<svg xmlns="http://www.w3.org/2000/svg" width="16.65" height="13.876" viewBox="0 0 16.65 13.876">
  <path id="Icon_awesome-volume-up" data-name="Icon awesome-volume-up" d="M6.216,2.716,3.644,5.287H.694A.694.694,0,0,0,0,5.981v4.163a.694.694,0,0,0,.694.694h2.95l2.572,2.571A.694.694,0,0,0,7.4,12.918V3.207A.694.694,0,0,0,6.216,2.716ZM12.96,1.24a.7.7,0,0,0-.768,1.17,6.754,6.754,0,0,1,0,11.307.7.7,0,1,0,.768,1.169,8.153,8.153,0,0,0,0-13.646Zm.915,6.823A5.337,5.337,0,0,0,11.4,3.546a.691.691,0,0,0-.957.216.7.7,0,0,0,.214.964,3.951,3.951,0,0,1,0,6.673.7.7,0,0,0-.214.964.692.692,0,0,0,.957.216A5.337,5.337,0,0,0,13.875,8.062ZM9.777,5.84a.694.694,0,1,0-.669,1.216,1.139,1.139,0,0,1,0,2.012.694.694,0,0,0,.669,1.216,2.527,2.527,0,0,0,0-4.444Z" transform="translate(0 -1.125)" fill="#5028a0"/>
</svg>
