<svg xmlns="http://www.w3.org/2000/svg" width="20.571" height="24" viewBox="0 0 20.571 24">
  <path id="Icon_metro-file-pdf" data-name="Icon metro-file-pdf" d="M22.231,7.293a3.116,3.116,0,0,1,.643,1.018,3.091,3.091,0,0,1,.268,1.179V24.918A1.28,1.28,0,0,1,21.856,26.2h-18a1.28,1.28,0,0,1-1.286-1.286V3.489A1.28,1.28,0,0,1,3.856,2.2h12a3.092,3.092,0,0,1,1.179.268,3.116,3.116,0,0,1,1.018.643ZM16.285,4.025V9.061h5.036a1.463,1.463,0,0,0-.295-.549L16.834,4.32a1.463,1.463,0,0,0-.549-.295Zm5.143,20.464V10.775H15.856a1.28,1.28,0,0,1-1.286-1.286V3.918H4.285V24.489H21.428Zm-6.884-7.942a10.19,10.19,0,0,0,1.125.75,13.29,13.29,0,0,1,1.567-.094q1.969,0,2.371.656a.647.647,0,0,1,.027.7.039.039,0,0,1-.013.027l-.027.027v.013q-.08.509-.951.509a5.525,5.525,0,0,1-1.54-.268,9.766,9.766,0,0,1-1.741-.71,24.116,24.116,0,0,0-5.25,1.112Q8.062,22.775,6.87,22.775a.779.779,0,0,1-.375-.094l-.321-.161q-.013-.013-.08-.067a.553.553,0,0,1-.08-.482,2.909,2.909,0,0,1,.75-1.225,6.473,6.473,0,0,1,1.768-1.292.2.2,0,0,1,.308.08.077.077,0,0,1,.027.054q.7-1.138,1.433-2.638a20.441,20.441,0,0,0,1.393-3.509,10.826,10.826,0,0,1-.409-2.136A5.207,5.207,0,0,1,11.37,9.6q.147-.536.563-.536h.295a.565.565,0,0,1,.469.2,1.07,1.07,0,0,1,.121.911.291.291,0,0,1-.054.107.349.349,0,0,1,.013.107v.4a17.538,17.538,0,0,1-.187,2.571,6.776,6.776,0,0,0,1.955,3.188Zm-7.714,5.5a5.914,5.914,0,0,0,1.835-2.116,7.635,7.635,0,0,0-1.172,1.125A4.452,4.452,0,0,0,6.83,22.052ZM12.16,9.73a3.982,3.982,0,0,0-.027,1.768q.013-.094.094-.589,0-.04.094-.576a.3.3,0,0,1,.054-.107.039.039,0,0,1-.013-.027.027.027,0,0,0-.007-.02.027.027,0,0,1-.007-.02.771.771,0,0,0-.174-.482.039.039,0,0,1-.013.027V9.73ZM10.5,18.583A19.644,19.644,0,0,1,14.3,17.5a2.02,2.02,0,0,1-.174-.127,2.4,2.4,0,0,1-.214-.181,7.094,7.094,0,0,1-1.7-2.357A17.9,17.9,0,0,1,11.1,17.471q-.4.75-.6,1.112Zm8.652-.214a3.205,3.205,0,0,0-1.875-.321,5.066,5.066,0,0,0,1.661.375,1.3,1.3,0,0,0,.241-.013q0-.013-.027-.04Z" transform="translate(-2.571 -2.203)"/>
</svg>
