<svg width="48" height="48" viewBox="0 0 48 48" fill="none" xmlns="http://www.w3.org/2000/svg">
<path d="M38.84 27.44C40.4858 27.44 41.82 26.1058 41.82 24.46C41.82 22.8142 40.4858 21.48 38.84 21.48C37.1942 21.48 35.86 22.8142 35.86 24.46C35.86 26.1058 37.1942 27.44 38.84 27.44Z" fill="#202020"/>
<path d="M36.28 27.82H41.4C41.8615 27.82 42.3041 28.0033 42.6304 28.3296C42.9567 28.656 43.14 29.0985 43.14 29.56V35.82H34.54V29.56C34.54 29.0985 34.7233 28.656 35.0496 28.3296C35.3759 28.0033 35.8185 27.82 36.28 27.82Z" fill="#202020"/>
<path d="M20 17.68C20.069 17.68 20.1351 17.7074 20.1838 17.7561C20.2326 17.8049 20.26 17.871 20.26 17.94V20.14H19.74V18C19.7308 17.9612 19.7306 17.9209 19.7395 17.882C19.7484 17.8432 19.766 17.8069 19.7912 17.7759C19.8163 17.745 19.8482 17.7203 19.8844 17.7036C19.9206 17.687 19.9602 17.6789 20 17.68Z" fill="#202020"/>
<path d="M22.22 20.06C22.22 20.1289 22.1926 20.1951 22.1438 20.2438C22.0951 20.2926 22.029 20.32 21.96 20.32H19.76V19.82H21.96C22.0256 19.8198 22.0889 19.8444 22.1371 19.8889C22.1853 19.9335 22.215 19.9946 22.22 20.06Z" fill="#202020"/>
<path d="M20.1 13.04V11.68V9.46001H23.52L22.2 10.5L23.74 11.8L20.26 11.7" stroke="#202020" stroke-width="0.3" stroke-miterlimit="10"/>
<path d="M33.04 18.38H26V17.32L20.18 12.78L14.38 17.32V18.38H7.34L5.34 23.12H6.5V36.14H33.72V23.12H35.16L33.04 18.38ZM12.98 32C12.9801 32.2034 12.9006 32.3989 12.7587 32.5446C12.6167 32.6903 12.4234 32.7748 12.22 32.78H8.4C8.19662 32.7748 8.00332 32.6903 7.86134 32.5446C7.71936 32.3989 7.63993 32.2034 7.64 32V30C7.63993 29.7966 7.71936 29.6011 7.86134 29.4554C8.00332 29.3097 8.19662 29.2252 8.4 29.22H12.22C12.4234 29.2252 12.6167 29.3097 12.7587 29.4554C12.9006 29.6011 12.9801 29.7966 12.98 30V32ZM12.22 28.52H8.4C8.21709 28.4904 8.05068 28.3967 7.93057 28.2556C7.81046 28.1145 7.7445 27.9353 7.7445 27.75C7.7445 27.5647 7.81046 27.3855 7.93057 27.2444C8.05068 27.1033 8.21709 27.0096 8.4 26.98H12.22C12.4029 27.0096 12.5693 27.1033 12.6894 27.2444C12.8095 27.3855 12.8755 27.5647 12.8755 27.75C12.8755 27.9353 12.8095 28.1145 12.6894 28.2556C12.5693 28.3967 12.4029 28.4904 12.22 28.52ZM12.22 26.52H8.4C8.19844 26.52 8.00513 26.4399 7.8626 26.2974C7.72007 26.1549 7.64 25.9616 7.64 25.76C7.63993 25.5565 7.71936 25.3611 7.86134 25.2154C8.00332 25.0697 8.19662 24.9852 8.4 24.98H12.22C12.4234 24.9852 12.6167 25.0697 12.7587 25.2154C12.9006 25.3611 12.9801 25.5565 12.98 25.76C12.9748 25.9581 12.8924 26.1463 12.7505 26.2845C12.6085 26.4227 12.4181 26.5001 12.22 26.5V26.52ZM22.22 36.02H18.22V27.64C18.2198 27.3445 18.3344 27.0604 18.5396 26.8477C18.7449 26.635 19.0246 26.5104 19.32 26.5H21.1C21.3989 26.5052 21.6837 26.6277 21.8932 26.8409C22.1027 27.0541 22.22 27.3411 22.22 27.64V36.02ZM20 23.32C19.3046 23.3359 18.6202 23.1442 18.0342 22.7694C17.4482 22.3946 16.9872 21.8537 16.7099 21.2158C16.4327 20.5778 16.3519 19.8717 16.4778 19.1875C16.6037 18.5034 16.9305 17.8723 17.4167 17.3748C17.9028 16.8773 18.5262 16.5359 19.2072 16.3943C19.8882 16.2526 20.596 16.3171 21.2403 16.5795C21.8845 16.8419 22.4359 17.2903 22.8241 17.8674C23.2124 18.4446 23.4198 19.1244 23.42 19.82C23.4253 20.2744 23.341 20.7254 23.172 21.1472C23.003 21.569 22.7525 21.9534 22.4349 22.2784C22.1174 22.6034 21.7389 22.8627 21.3211 23.0414C20.9033 23.2201 20.4544 23.3148 20 23.32ZM32.32 32C32.3149 32.2053 32.2311 32.4007 32.0859 32.5459C31.9407 32.6911 31.7453 32.7749 31.54 32.78H27.74C27.6376 32.78 27.5361 32.7598 27.4415 32.7206C27.3469 32.6814 27.2609 32.624 27.1885 32.5515C27.116 32.4791 27.0586 32.3931 27.0194 32.2985C26.9802 32.2039 26.96 32.1024 26.96 32V30C26.96 29.8976 26.9802 29.7961 27.0194 29.7015C27.0586 29.6069 27.116 29.5209 27.1885 29.4485C27.2609 29.376 27.3469 29.3186 27.4415 29.2794C27.5361 29.2402 27.6376 29.22 27.74 29.22H31.54C31.7453 29.2251 31.9407 29.3089 32.0859 29.4541C32.2311 29.5993 32.3149 29.7947 32.32 30V32ZM31.54 28.52H27.74C27.6285 28.538 27.5144 28.5316 27.4056 28.5012C27.2968 28.4708 27.1959 28.4172 27.1099 28.3439C27.0239 28.2707 26.9548 28.1797 26.9074 28.0771C26.86 27.9746 26.8355 27.863 26.8355 27.75C26.8355 27.637 26.86 27.5254 26.9074 27.4229C26.9548 27.3203 27.0239 27.2293 27.1099 27.1561C27.1959 27.0828 27.2968 27.0292 27.4056 26.9988C27.5144 26.9684 27.6285 26.962 27.74 26.98H31.54C31.6515 26.962 31.7656 26.9684 31.8744 26.9988C31.9832 27.0292 32.0841 27.0828 32.1701 27.1561C32.2561 27.2293 32.3252 27.3203 32.3726 27.4229C32.42 27.5254 32.4445 27.637 32.4445 27.75C32.4445 27.863 32.42 27.9746 32.3726 28.0771C32.3252 28.1797 32.2561 28.2707 32.1701 28.3439C32.0841 28.4172 31.9832 28.4708 31.8744 28.5012C31.7656 28.5316 31.6515 28.538 31.54 28.52ZM31.54 26.52H27.74C27.6385 26.5227 27.5375 26.505 27.443 26.468C27.3485 26.431 27.2623 26.3754 27.1896 26.3046C27.1169 26.2338 27.0591 26.1491 27.0197 26.0555C26.9803 25.962 26.96 25.8615 26.96 25.76C26.96 25.6576 26.9802 25.5561 27.0194 25.4615C27.0586 25.3669 27.116 25.2809 27.1885 25.2085C27.2609 25.136 27.3469 25.0786 27.4415 25.0394C27.5361 25.0002 27.6376 24.98 27.74 24.98H31.54C31.7453 24.9851 31.9407 25.0689 32.0859 25.2141C32.2311 25.3593 32.3149 25.5547 32.32 25.76C32.3097 25.9599 32.2231 26.1481 32.0779 26.2859C31.9327 26.4236 31.7401 26.5003 31.54 26.5V26.52Z" fill="#202020"/>
</svg>
