<svg width="33" height="32" viewBox="0 0 33 32" fill="none" xmlns="http://www.w3.org/2000/svg">
<ellipse rx="16" ry="15.8289" transform="matrix(0.999942 0.0107563 -0.0109902 0.99994 16.5207 16)" fill="url(#paint0_linear_1554_49)"/>
<g clip-path="url(#clip0_1554_49)">
<path fill-rule="evenodd" clip-rule="evenodd" d="M13.3259 8.61775C14.1079 8.58213 14.3572 8.57422 16.3492 8.57422C18.3412 8.57422 18.5906 8.58279 19.3719 8.61775C20.1532 8.6527 20.6866 8.77604 21.1532 8.95477C21.6419 9.13746 22.0852 9.42304 22.4519 9.79238C22.8252 10.1545 23.1132 10.5924 23.2972 11.0765C23.4786 11.5382 23.6026 12.0658 23.6386 12.8375C23.6746 13.6124 23.6826 13.8591 23.6826 15.8291C23.6826 17.7998 23.6739 18.0465 23.6386 18.8201C23.6032 19.5917 23.4786 20.1194 23.2972 20.581C23.1132 21.0652 22.8247 21.5039 22.4519 21.8665C22.0852 22.2358 21.6419 22.5207 21.1532 22.7028C20.6866 22.8822 20.1532 23.0048 19.3732 23.0405C18.5906 23.0761 18.3412 23.084 16.3492 23.084C14.3572 23.084 14.1079 23.0754 13.3259 23.0405C12.5459 23.0055 12.0126 22.8822 11.5459 22.7028C11.0565 22.5207 10.6131 22.2353 10.2466 21.8665C9.87348 21.5042 9.58477 21.0657 9.40056 20.5817C9.21989 20.12 9.09589 19.5924 9.05989 18.8208C9.02389 18.0458 9.01589 17.7991 9.01589 15.8291C9.01589 13.8584 9.02456 13.6117 9.05989 12.8388C9.09523 12.0658 9.21989 11.5382 9.40056 11.0765C9.58504 10.5924 9.87397 10.154 10.2472 9.79172C10.6133 9.42271 11.0562 9.13709 11.5452 8.95477C12.0119 8.77604 12.5452 8.65336 13.3252 8.61775H13.3259ZM19.3126 9.92363C18.5392 9.88867 18.3072 9.88142 16.3492 9.88142C14.3912 9.88142 14.1592 9.88867 13.3859 9.92363C12.6706 9.95594 12.2826 10.074 12.0239 10.1736C11.6819 10.3055 11.4372 10.4618 11.1806 10.7157C10.9373 10.9499 10.75 11.235 10.6326 11.55C10.5319 11.8059 10.4126 12.1898 10.3799 12.8975C10.3446 13.6625 10.3372 13.892 10.3372 15.8291C10.3372 17.7662 10.3446 17.9957 10.3799 18.7607C10.4126 19.4684 10.5319 19.8523 10.6326 20.1082C10.7499 20.4228 10.9372 20.7083 11.1806 20.9425C11.4172 21.1832 11.7059 21.3685 12.0239 21.4846C12.2826 21.5842 12.6706 21.7023 13.3859 21.7346C14.1592 21.7695 14.3906 21.7768 16.3492 21.7768C18.3079 21.7768 18.5392 21.7695 19.3126 21.7346C20.0279 21.7023 20.4159 21.5842 20.6746 21.4846C21.0166 21.3527 21.2612 21.1964 21.5179 20.9425C21.7612 20.7083 21.9486 20.4228 22.0659 20.1082C22.1666 19.8523 22.2859 19.4684 22.3186 18.7607C22.3539 17.9957 22.3612 17.7662 22.3612 15.8291C22.3612 13.892 22.3539 13.6625 22.3186 12.8975C22.2859 12.1898 22.1666 11.8059 22.0659 11.55C21.9326 11.2117 21.7746 10.9696 21.5179 10.7157C21.2812 10.475 20.993 10.2898 20.6746 10.1736C20.4159 10.074 20.0279 9.95594 19.3126 9.92363ZM15.4126 18.0656C15.9357 18.281 16.5181 18.3101 17.0605 18.1478C17.6029 17.9856 18.0715 17.6421 18.3863 17.176C18.7011 16.71 18.8426 16.1502 18.7866 15.5924C18.7306 15.0346 18.4806 14.5133 18.0792 14.1176C17.8234 13.8647 17.514 13.671 17.1734 13.5505C16.8329 13.43 16.4695 13.3858 16.1096 13.4209C15.7496 13.456 15.402 13.5697 15.0918 13.7536C14.7815 13.9376 14.5164 14.1874 14.3154 14.4849C14.1145 14.7824 13.9827 15.1203 13.9296 15.4742C13.8765 15.8282 13.9033 16.1894 14.0083 16.5318C14.1132 16.8743 14.2935 17.1895 14.5364 17.4547C14.7792 17.7199 15.0784 17.9285 15.4126 18.0656ZM13.6839 13.1923C14.0339 12.846 14.4494 12.5713 14.9068 12.3839C15.3641 12.1965 15.8542 12.1001 16.3492 12.1001C16.8442 12.1001 17.3344 12.1965 17.7917 12.3839C18.249 12.5713 18.6645 12.846 19.0146 13.1923C19.3646 13.5386 19.6422 13.9496 19.8317 14.4021C20.0211 14.8545 20.1186 15.3394 20.1186 15.8291C20.1186 16.3188 20.0211 16.8037 19.8317 17.2561C19.6422 17.7086 19.3646 18.1196 19.0146 18.4659C18.3077 19.1652 17.3489 19.5581 16.3492 19.5581C15.3495 19.5581 14.3908 19.1652 13.6839 18.4659C12.977 17.7666 12.5799 16.8181 12.5799 15.8291C12.5799 14.8401 12.977 13.8916 13.6839 13.1923ZM20.9546 12.6554C21.0413 12.5745 21.1107 12.4771 21.1588 12.3692C21.2068 12.2612 21.2324 12.1448 21.2342 12.0268C21.2359 11.9089 21.2137 11.7918 21.1689 11.6825C21.1241 11.5732 21.0575 11.4739 20.9732 11.3905C20.8889 11.307 20.7885 11.2412 20.678 11.1969C20.5675 11.1525 20.4492 11.1306 20.3299 11.1323C20.2107 11.134 20.093 11.1594 19.9839 11.2069C19.8748 11.2544 19.7764 11.3231 19.6946 11.4089C19.5354 11.5758 19.4483 11.7974 19.4517 12.0268C19.4551 12.2562 19.5487 12.4753 19.7127 12.6375C19.8766 12.7997 20.0981 12.8923 20.3299 12.8957C20.5618 12.899 20.7859 12.8128 20.9546 12.6554Z" fill="white"/>
</g>
<defs>
<linearGradient id="paint0_linear_1554_49" x1="47.4864" y1="-23.4893" x2="-15.967" y2="57.9185" gradientUnits="userSpaceOnUse">
<stop stop-color="#B103B3"/>
<stop offset="1" stop-color="#FDD524"/>
</linearGradient>
<clipPath id="clip0_1554_49">
<rect width="16" height="15.8288" fill="white" transform="translate(8.34792 7.91406)"/>
</clipPath>
</defs>
</svg>
