<svg width="33" height="32" viewBox="0 0 33 32" fill="none" xmlns="http://www.w3.org/2000/svg">
<ellipse rx="16" ry="15.8289" transform="matrix(0.999942 0.0107563 -0.0109902 0.99994 16.173 16)" fill="#EE2629"/>
<path d="M14.6606 17.8773L18.8384 15.5478L14.7128 13.129L14.6606 17.8773ZM23.9761 11.7802C24.076 12.1532 24.1425 12.6526 24.1836 13.2862C24.2326 13.92 24.2506 14.4663 24.2454 14.9411L24.2861 15.6064C24.267 17.3396 24.125 18.6123 23.8921 19.425C23.6843 20.1352 23.2153 20.5892 22.4931 20.7793C22.116 20.8781 21.4273 20.9419 20.3708 20.9781C19.3303 21.0223 18.3781 21.0358 17.4981 21.0263L16.2257 21.0601C12.8739 21.0241 10.7874 20.875 9.96587 20.6445C9.24809 20.4389 8.78916 19.9749 8.597 19.2605C8.4971 18.8874 8.43058 18.3881 8.38954 17.7545C8.34051 17.1207 8.32251 16.5744 8.32773 16.0996L8.28704 15.4343C8.30609 13.7011 8.44808 12.4284 8.68103 11.6156C8.88884 10.9055 9.35786 10.4515 10.08 10.2614C10.4571 10.1626 11.1458 10.0988 12.2023 10.0626C13.2429 10.0184 14.1951 10.0049 15.075 10.0144L16.3475 9.98058C19.6993 10.0166 21.7857 10.1657 22.6073 10.3962C23.325 10.6018 23.784 11.0658 23.9761 11.7802Z" fill="white"/>
</svg>
