<svg xmlns="http://www.w3.org/2000/svg" width="48.789" height="49.269" viewBox="0 0 48.789 49.269">
  <g id="noun_Assignment_2400663" transform="translate(-38.114 -35.97)">
    <g id="Group_226" data-name="Group 226" transform="translate(38.239 36.097)">
      <g id="Group_225" data-name="Group 225" transform="translate(0 0)">
        <g id="Group_209" data-name="Group 209" transform="translate(3.098 6.674)">
          <path id="Path_336" data-name="Path 336" d="M108.381,138.321H67.071a1.033,1.033,0,0,1-1.033-1.033V97.011a1.033,1.033,0,0,1,1.033-1.033h41.31a1.033,1.033,0,0,1,1.033,1.033v40.277A1.033,1.033,0,0,1,108.381,138.321ZM68.1,136.255h39.244V98.044H68.1Z" transform="translate(-66.038 -95.978)" fill="#14a032" stroke="#fff" stroke-width="0.25"/>
        </g>
        <g id="Group_210" data-name="Group 210" transform="translate(6.55 0.161)">
          <path id="Path_337" data-name="Path 337" d="M134.733,46.127H98.046a1.033,1.033,0,1,1,0-2.066h36.687a2.206,2.206,0,0,0,2.2-2.2,2.23,2.23,0,0,0-2.2-2.251H100.369a4.938,4.938,0,0,1,.518,2.2,1.033,1.033,0,0,1-2.066,0,2.883,2.883,0,0,0-1.262-2.382,1.033,1.033,0,0,1,.582-1.886h36.592a4.292,4.292,0,0,1,0,8.584Z" transform="translate(-97.013 -37.543)" fill="#14a032" stroke="#fff" stroke-width="0.25"/>
        </g>
        <g id="Group_211" data-name="Group 211">
          <path id="Path_338" data-name="Path 338" d="M42.37,64.459h-3.1a1.033,1.033,0,0,1-1.033-1.033V41.738a5.76,5.76,0,0,1,1.812-4.257,5.307,5.307,0,0,1,4.094-1.362L46,36.261a1.033,1.033,0,0,1,.5.176,4.947,4.947,0,0,1,2.164,4.089,1.033,1.033,0,0,1-2.066,0A2.881,2.881,0,0,0,45.541,38.3l-1.558-.12h-.011A3.262,3.262,0,0,0,41.447,39,3.692,3.692,0,0,0,40.3,41.738V62.393H42.37a1.033,1.033,0,0,1,0,2.065Z" transform="translate(-38.239 -36.097)" fill="#14a032" stroke="#fff" stroke-width="0.25"/>
        </g>
        <g id="Group_212" data-name="Group 212" transform="translate(6.55 3.397)">
          <path id="Path_339" data-name="Path 339" d="M98.045,71.924a1.033,1.033,0,0,1-.538-1.915,2.81,2.81,0,0,0,1.312-2.4,1.033,1.033,0,0,1,2.066,0,4.887,4.887,0,0,1-2.3,4.165A1.029,1.029,0,0,1,98.045,71.924Z" transform="translate(-97.012 -66.575)" fill="#14a032" stroke="#fff" stroke-width="0.25"/>
        </g>
        <g id="Group_213" data-name="Group 213" transform="translate(6.55 3.397)">
          <path id="Path_340" data-name="Path 340" d="M98.045,71.924a1.033,1.033,0,0,1-.538-1.915,2.81,2.81,0,0,0,1.312-2.4,1.033,1.033,0,0,1,2.066,0,4.887,4.887,0,0,1-2.3,4.165A1.029,1.029,0,0,1,98.045,71.924Z" transform="translate(-97.012 -66.575)" fill="#14a032" stroke="#fff" stroke-width="0.25"/>
        </g>
        <rect id="Rectangle_276" data-name="Rectangle 276" width="2.066" height="2.066" transform="translate(29.95 11.838)" fill="#14a032" stroke="#fff" stroke-width="0.25"/>
        <rect id="Rectangle_277" data-name="Rectangle 277" width="2.066" height="2.066" transform="translate(25.819 11.838)" fill="#14a032" stroke="#fff" stroke-width="0.25"/>
        <rect id="Rectangle_278" data-name="Rectangle 278" width="2.066" height="2.066" transform="translate(21.688 11.838)" fill="#14a032" stroke="#fff" stroke-width="0.25"/>
        <rect id="Rectangle_279" data-name="Rectangle 279" width="2.066" height="2.066" transform="translate(17.557 11.838)" fill="#14a032" stroke="#fff" stroke-width="0.25"/>
        <g id="Group_214" data-name="Group 214" transform="translate(7.229 17.001)">
          <path id="Path_341" data-name="Path 341" d="M126.858,190.709h-22.72a1.033,1.033,0,0,1,0-2.066h22.72a1.033,1.033,0,1,1,0,2.066Z" transform="translate(-103.105 -188.643)" fill="#14a032" stroke="#fff" stroke-width="0.25"/>
        </g>
        <g id="Group_215" data-name="Group 215" transform="translate(7.229 21.132)">
          <path id="Path_342" data-name="Path 342" d="M126.858,227.773h-22.72a1.033,1.033,0,0,1,0-2.065h22.72a1.033,1.033,0,1,1,0,2.065Z" transform="translate(-103.105 -225.708)" fill="#14a032" stroke="#fff" stroke-width="0.25"/>
        </g>
        <g id="Group_216" data-name="Group 216" transform="translate(7.229 25.263)">
          <path id="Path_343" data-name="Path 343" d="M126.858,264.84h-22.72a1.033,1.033,0,0,1,0-2.066h22.72a1.033,1.033,0,1,1,0,2.066Z" transform="translate(-103.105 -262.774)" fill="#14a032" stroke="#fff" stroke-width="0.25"/>
        </g>
        <g id="Group_217" data-name="Group 217" transform="translate(7.229 29.394)">
          <path id="Path_344" data-name="Path 344" d="M126.858,301.9h-22.72a1.033,1.033,0,0,1,0-2.066h22.72a1.033,1.033,0,1,1,0,2.066Z" transform="translate(-103.105 -299.839)" fill="#14a032" stroke="#fff" stroke-width="0.25"/>
        </g>
        <g id="Group_218" data-name="Group 218" transform="translate(7.229 33.525)">
          <path id="Path_345" data-name="Path 345" d="M126.858,338.97h-22.72a1.033,1.033,0,0,1,0-2.066h22.72a1.033,1.033,0,1,1,0,2.066Z" transform="translate(-103.105 -336.904)" fill="#14a032" stroke="#fff" stroke-width="0.25"/>
        </g>
        <g id="Group_219" data-name="Group 219" transform="translate(7.229 37.656)">
          <path id="Path_346" data-name="Path 346" d="M126.858,376.036h-22.72a1.033,1.033,0,0,1,0-2.066h22.72a1.033,1.033,0,1,1,0,2.066Z" transform="translate(-103.105 -373.97)" fill="#14a032" stroke="#fff" stroke-width="0.25"/>
        </g>
        <g id="Group_220" data-name="Group 220" transform="translate(23.218 41.787)">
          <path id="Path_347" data-name="Path 347" d="M254.327,413.1h-6.732a1.033,1.033,0,1,1,0-2.066h6.732a1.033,1.033,0,1,1,0,2.066Z" transform="translate(-246.562 -411.036)" fill="#14a032" stroke="#fff" stroke-width="0.25"/>
        </g>
        <g id="Group_221" data-name="Group 221" transform="translate(34.081 22.165)">
          <path id="Path_348" data-name="Path 348" d="M349.195,253.564h-4.131a1.033,1.033,0,0,1-1.033-1.033V236.008a1.033,1.033,0,0,1,1.033-1.033h4.131a1.033,1.033,0,0,1,1.033,1.033v16.524A1.033,1.033,0,0,1,349.195,253.564Zm-3.1-2.066h2.066V237.04H346.1Z" transform="translate(-344.031 -234.975)" fill="#14a032" stroke="#fff" stroke-width="0.25"/>
        </g>
        <g id="Group_222" data-name="Group 222" transform="translate(34.081 38.689)">
          <path id="Path_349" data-name="Path 349" d="M349.195,388.4h-4.131a1.033,1.033,0,0,1-1.033-1.033v-3.1a1.033,1.033,0,0,1,1.033-1.033h4.131a1.033,1.033,0,0,1,1.033,1.033v3.1A1.033,1.033,0,0,1,349.195,388.4Zm-3.1-2.065h2.066V385.3H346.1Z" transform="translate(-344.031 -383.236)" fill="#14a032" stroke="#fff" stroke-width="0.25"/>
        </g>
        <g id="Group_223" data-name="Group 223" transform="translate(34.081 15.969)">
          <path id="Path_350" data-name="Path 350" d="M349.194,187.639h-4.131a1.033,1.033,0,0,1-.98-1.359l2.065-6.2a1.033,1.033,0,0,1,1.96,0l2.066,6.2a1.033,1.033,0,0,1-.98,1.359Zm-2.7-2.066h1.265l-.633-1.9Z" transform="translate(-344.03 -179.377)" fill="#14a032" stroke="#fff" stroke-width="0.25"/>
        </g>
        <g id="Group_224" data-name="Group 224" transform="translate(38.212 31.46)">
          <path id="Path_351" data-name="Path 351" d="M385.227,327.667h-3.1a1.033,1.033,0,0,1,0-2.066h2.065v-6.2a1.033,1.033,0,0,1,2.066,0v7.229A1.033,1.033,0,0,1,385.227,327.667Z" transform="translate(-381.096 -318.372)" fill="#14a032" stroke="#fff" stroke-width="0.25"/>
        </g>
      </g>
    </g>
  </g>
</svg>
