<svg xmlns="http://www.w3.org/2000/svg" width="46.664" height="49.033" viewBox="0 0 46.664 49.033">
  <g id="icon-onlineclass" transform="translate(-2.248 -1.1)">
    <path id="Path_2165" data-name="Path 2165" d="M3.053,30.236H7.474a6.779,6.779,0,0,0-.237,1.342,5.053,5.053,0,1,0,5.053-5.053,4.906,4.906,0,0,0-4.422,2.685H3.605v-27H47.9V29.13H43.953a5.117,5.117,0,0,0-4.9-3.632,5.053,5.053,0,1,0,5.053,5.053v-.316h4.264a.54.54,0,0,0,.553-.553V1.653a.54.54,0,0,0-.553-.553H3.053a.54.54,0,0,0-.553.553V29.6c.079.316.237.632.553.632Zm9.238-2.685a4.027,4.027,0,1,1-4.027,4.027A4.044,4.044,0,0,1,12.291,27.551Zm26.846,7.027a4.027,4.027,0,1,1,4.027-4.027A4.044,4.044,0,0,1,39.137,34.578Z" transform="translate(-0.053)" fill="#14a032"/>
    <path id="Path_2166" data-name="Path 2166" d="M30.259,41.318A6.159,6.159,0,1,0,24.1,35.159,6.167,6.167,0,0,0,30.259,41.318Zm0-11.212a5.132,5.132,0,1,1-5.132,5.132A5.122,5.122,0,0,1,30.259,30.105Z" transform="translate(-4.598 -5.871)" fill="#14a032"/>
    <path id="Path_2167" data-name="Path 2167" d="M48.874,53.385C48.8,49.437,44.453,46.2,39,46.2a11.661,11.661,0,0,0-6.554,1.9,14.693,14.693,0,0,0-6.869-1.579,14.741,14.741,0,0,0-7.659,2.053,12.412,12.412,0,0,0-5.764-1.342c-5.369-.079-9.791,3.158-9.87,7.106A1.627,1.627,0,0,0,2.6,55.675c1.026,1.5,4.264,2.211,9.475,2.211,1.026,0,1.974-.079,2.843-.079,1.9,1.184,5.448,1.816,10.58,1.816,6.4,0,10.265-.869,11.607-2.685.553,0,1.184.079,1.816.079,5.211,0,8.449-.79,9.475-2.211.553-.711.553-1.263.474-1.421ZM12.238,56.859c-6.238,0-8.054-1.105-8.606-1.816a1.024,1.024,0,0,1-.237-.553c0-.079.079-.079.079-.158,0-3.4,3.948-6.238,8.764-6.238a11.289,11.289,0,0,1,4.738,1.026,7.824,7.824,0,0,0-3.4,6.08,2.031,2.031,0,0,0,.395,1.579,11.678,11.678,0,0,1-1.737.079ZM36.4,56.307c-.632.869-2.921,2.211-10.738,2.211s-10.107-1.342-10.738-2.211c-.395-.474-.237-.79-.237-.79,0-.079.079-.079.079-.158,0-4.264,4.9-7.817,10.975-7.817s10.975,3.474,10.975,7.817v.158s.079.316-.316.79ZM47.611,54.1c-.553.711-2.29,1.816-8.606,1.816H37.662a1.641,1.641,0,0,0,0-.632,8.2,8.2,0,0,0-4.185-6.633A11.256,11.256,0,0,1,39,47.226c4.9,0,8.764,2.764,8.764,6.238v.158c.079-.079.079.237-.158.474Z" transform="translate(0 -9.49)" fill="#14a032"/>
    <path id="Path_2168" data-name="Path 2168" d="M21.928,9.4H7.953a.553.553,0,1,0,0,1.105H21.928a.54.54,0,0,0,.553-.553.665.665,0,0,0-.553-.553Z" transform="translate(-1.084 -1.746)" fill="#14a032"/>
    <path id="Path_2169" data-name="Path 2169" d="M21.928,15.5H7.953a.553.553,0,0,0,0,1.105H21.928a.54.54,0,0,0,.553-.553.665.665,0,0,0-.553-.553Z" transform="translate(-1.084 -3.03)" fill="#14a032"/>
    <path id="Path_2170" data-name="Path 2170" d="M15.928,21.6H7.953a.553.553,0,0,0,0,1.105h7.975a.54.54,0,0,0,.553-.553.593.593,0,0,0-.553-.553Z" transform="translate(-1.084 -4.314)" fill="#14a032"/>
    <path id="Path_2171" data-name="Path 2171" d="M51.352,9.969c-.395-.948-1.974-1.184-4.659-.553A6.8,6.8,0,0,0,42.113,7.6,6.706,6.706,0,0,0,35.4,14.311v.079c-2.053,1.5-2.921,2.685-2.527,3.632.237.553.948.869,2.053.869a15.7,15.7,0,0,0,1.737-.158,3.419,3.419,0,0,1,.395-.079,6.633,6.633,0,0,0,5.053,2.29,6.706,6.706,0,0,0,6.711-6.711,2.186,2.186,0,0,0-.079-.711c1.9-1.184,3.079-2.527,2.606-3.553ZM33.823,17.707c-.079-.237.237-.869,1.658-2.053a6.383,6.383,0,0,0,.869,2.132c-1.895.395-2.448.079-2.527-.079Zm3.632,0a5.345,5.345,0,0,1-1.026-3.316A5.667,5.667,0,0,1,47.64,13.206a28.788,28.788,0,0,1-4.816,2.606,55.954,55.954,0,0,1-5.369,1.9Zm4.659,2.369a5.638,5.638,0,0,1-3.869-1.5A30.226,30.226,0,0,0,43.3,16.759a34.513,34.513,0,0,0,4.5-2.369,5.712,5.712,0,0,1-5.685,5.685Zm6.475-7.58a8.285,8.285,0,0,0-1.105-2.211c1.974-.395,2.843-.158,2.921.079.079.316-.474,1.105-1.816,2.132Z" transform="translate(-6.425 -1.368)" fill="#14a032"/>
  </g>
</svg>
