<svg xmlns="http://www.w3.org/2000/svg" width="52.387" height="52.461" viewBox="0 0 52.387 52.461">
  <g id="icon-teacher-online-exam" transform="translate(-0.3 0.6)">
    <path id="Path_2172" data-name="Path 2172" d="M24.094,34.252a.459.459,0,0,1-.417-.25.552.552,0,0,1-.083-.5l1.751-5.421c0-.083.083-.167.167-.25l25.855-25.6a2.931,2.931,0,0,1,2.919-.751,3.007,3.007,0,0,1,2.168,2.168,2.921,2.921,0,0,1-.834,2.919L29.765,32.25c-.083.083-.167.083-.167.167L24.26,34.252h-.167Zm2.252-5.671-1.418,4.254,4.17-1.418L54.87,5.811a2.012,2.012,0,0,0,.584-1.418,1.953,1.953,0,0,0-.584-1.418,2.012,2.012,0,0,0-1.418-.584h0a1.953,1.953,0,0,0-1.418.584Z" transform="translate(-3.86 -0.323)" fill="#14a032"/>
    <path id="Path_2173" data-name="Path 2173" d="M58.487,9.071c-.167,0-.25-.083-.417-.167l-3.5-3.5a.637.637,0,0,1-.167-.417c0-.167.083-.25.167-.417a.637.637,0,0,1,.417-.167c.167,0,.25.083.417.167l3.5,3.5h0a.514.514,0,0,1,.083.584.529.529,0,0,1-.5.417Z" transform="translate(-8.979 -0.83)" fill="#14a032"/>
    <path id="Path_2174" data-name="Path 2174" d="M54.287,13.271c-.167,0-.25-.083-.417-.167l-3.5-3.5a.637.637,0,0,1-.167-.417c0-.167.083-.25.167-.417a.637.637,0,0,1,.417-.167c.167,0,.25.083.417.167l3.5,3.5a.514.514,0,0,1,.083.584c-.083.334-.25.417-.5.417Z" transform="translate(-8.281 -1.527)" fill="#14a032"/>
    <path id="Path_2175" data-name="Path 2175" d="M29.728,37.589c-.167,0-.25-.083-.417-.167l-3.336-3.5h0a.622.622,0,0,1,0-.751.526.526,0,0,1,.751,0l3.42,3.42a.514.514,0,0,1,.083.584.529.529,0,0,1-.5.417Z" transform="translate(-4.24 -5.578)" fill="#14a032"/>
    <path id="Path_2176" data-name="Path 2176" d="M31.576,48.358H7.556a.481.481,0,0,1-.5-.5L6.972,41.6H.8a.481.481,0,0,1-.5-.5V-.1A.481.481,0,0,1,.8-.6H43.67c.167,0,.25.083.417.167a.637.637,0,0,1,.167.417V6.489a.481.481,0,0,1-.5.5.538.538,0,0,1-.5-.5V.484H1.3V40.518H7.556c.167,0,.25.083.417.167a.637.637,0,0,1,.167.417l.083,6.255H31.66a.481.481,0,0,1,.5.5.715.715,0,0,1-.584.5Z" fill="#14a032"/>
    <path id="Path_2177" data-name="Path 2177" d="M52.1,31.163a.481.481,0,0,1-.5-.5V16.4a.5.5,0,1,1,1,0V30.662c0,.167-.083.25-.167.417a.863.863,0,0,1-.334.083Z" transform="translate(-8.514 -2.738)" fill="#14a032"/>
    <path id="Path_2178" data-name="Path 2178" d="M7.566,56.572c-.167,0-.25-.083-.417-.167L.477,49.733a.435.435,0,0,1,.083-.667.517.517,0,0,1,.667-.083L7.9,55.654a.514.514,0,0,1,.083.584.554.554,0,0,1-.417.334Z" transform="translate(-0.01 -8.214)" fill="#14a032"/>
    <path id="Path_2179" data-name="Path 2179" d="M45.611,57.321a12.529,12.529,0,1,1,8.841-3.67A12.645,12.645,0,0,1,45.611,57.321Zm0-24.02A11.441,11.441,0,1,0,57.037,44.727a11.789,11.789,0,0,0-3.336-8.09A12.178,12.178,0,0,0,45.611,33.3Z" transform="translate(-5.444 -5.46)" fill="#14a032"/>
    <path id="Path_2180" data-name="Path 2180" d="M46.125,55.25a9.909,9.909,0,0,1-7.006-2.919A9.925,9.925,0,0,1,46.125,35.4a9.909,9.909,0,0,1,7.006,2.919,10.057,10.057,0,0,1,2.919,7.006,9.909,9.909,0,0,1-2.919,7.006,10.21,10.21,0,0,1-7.006,2.919Zm0-18.766h0A8.828,8.828,0,1,0,52.38,39.07a8.838,8.838,0,0,0-6.255-2.586Z" transform="translate(-5.958 -5.975)" fill="#14a032"/>
    <path id="Path_2181" data-name="Path 2181" d="M53.822,49.927a.306.306,0,0,1-.25-.083l-5.922-3.67a.459.459,0,0,1-.25-.417V38.5a.5.5,0,1,1,1,0v7.006l5.671,3.5c.167.167.334.334.25.584a.563.563,0,0,1-.5.334Z" transform="translate(-7.817 -6.406)" fill="#14a032"/>
    <path id="Path_2182" data-name="Path 2182" d="M56.487,11.071c-.167,0-.25-.083-.417-.167l-3.5-3.5a.637.637,0,0,1-.167-.417c0-.167.083-.25.167-.417a.637.637,0,0,1,.417-.167c.167,0,.25.083.417.167l3.5,3.5h0a.514.514,0,0,1,.083.584.529.529,0,0,1-.5.417Z" transform="translate(-8.647 -1.162)" fill="#14a032"/>
    <path id="Path_2183" data-name="Path 2183" d="M56.284,48H55.7a.481.481,0,0,1-.5-.5.538.538,0,0,1,.5-.5h.584a.5.5,0,0,1,0,1Z" transform="translate(-9.111 -7.9)" fill="#14a032"/>
    <path id="Path_2184" data-name="Path 2184" d="M40.084,48H39.5a.481.481,0,0,1-.5-.5.538.538,0,0,1,.5-.5h.584a.481.481,0,0,1,.5.5A.538.538,0,0,1,40.084,48Z" transform="translate(-6.423 -7.9)" fill="#14a032"/>
    <path id="Path_2185" data-name="Path 2185" d="M48,56.385a.481.481,0,0,1-.5-.5V55.3a.481.481,0,0,1,.5-.5.538.538,0,0,1,.5.5v.5c0,.167-.083.25-.167.417a.632.632,0,0,1-.334.167Z" transform="translate(-7.833 -9.194)" fill="#14a032"/>
    <path id="Path_2186" data-name="Path 2186" d="M54.694,44.034a.529.529,0,0,1-.5-.417.431.431,0,0,1,.25-.584l.5-.25a.544.544,0,0,1,.584.917l-.5.25a.63.63,0,0,1-.334.083Z" transform="translate(-8.939 -7.185)" fill="#14a032"/>
    <path id="Path_2187" data-name="Path 2187" d="M40.594,52.134a.529.529,0,0,1-.5-.417.431.431,0,0,1,.25-.584l.5-.25a.544.544,0,1,1,.584.917l-.5.25a.5.5,0,0,1-.334.083Z" transform="translate(-6.599 -8.53)" fill="#14a032"/>
    <path id="Path_2188" data-name="Path 2188" d="M52.133,55.184a.721.721,0,0,1-.5-.25l-.25-.5a.544.544,0,1,1,.917-.584l.25.5a.532.532,0,0,1,0,.5c0,.25-.25.334-.417.334Z" transform="translate(-8.463 -8.994)" fill="#14a032"/>
    <path id="Path_2189" data-name="Path 2189" d="M44.033,41.084a.721.721,0,0,1-.5-.25l-.25-.5a.544.544,0,0,1,.917-.584l.25.5a.532.532,0,0,1,0,.5.426.426,0,0,1-.417.334Z" transform="translate(-7.119 -6.654)" fill="#14a032"/>
    <path id="Path_2190" data-name="Path 2190" d="M51.888,41.1a.721.721,0,0,1-.5-.25.532.532,0,0,1,0-.5l.25-.5a.544.544,0,1,1,.917.584l-.25.5a.637.637,0,0,1-.417.167Z" transform="translate(-8.468 -6.671)" fill="#14a032"/>
    <path id="Path_2191" data-name="Path 2191" d="M43.688,55.2a.721.721,0,0,1-.5-.25.532.532,0,0,1,0-.5l.25-.5h0c.083-.083.167-.25.334-.25a.752.752,0,0,1,.417.083c.083.083.25.167.25.334a.752.752,0,0,1-.083.417l-.25.5h0c0,.083-.167.167-.417.167Z" transform="translate(-7.107 -9.012)" fill="#14a032"/>
    <path id="Path_2192" data-name="Path 2192" d="M41.1,44.034a.306.306,0,0,1-.25-.083l-.5-.25a.544.544,0,0,1,.584-.917l.5.25a.431.431,0,0,1,.25.584.627.627,0,0,1-.584.417Z" transform="translate(-6.605 -7.185)" fill="#14a032"/>
    <path id="Path_2193" data-name="Path 2193" d="M20.55,49.732a3,3,0,0,1-.917-.167,6.019,6.019,0,0,1-2-1.168c-.751-.584-1.334-1.084-2.168-1a2.769,2.769,0,0,0-2.168,1.835h0a.651.651,0,0,1-.334.334.379.379,0,0,1-.417,0c-.167-.083-.25-.167-.25-.334-.083-.167,0-.334,0-.417A3.838,3.838,0,0,1,15.379,46.4,3.951,3.951,0,0,1,18.3,47.647a3.439,3.439,0,0,0,1.585.917h0a2.582,2.582,0,0,0,1.585-.083,1,1,0,0,1-.417-.417,2.824,2.824,0,0,1-.751-2.752,2.621,2.621,0,0,1,1.918-1.918h0a1.59,1.59,0,0,1,1.084.167,1.826,1.826,0,0,1,.834.751,2.936,2.936,0,0,1-.167,3.169,5.063,5.063,0,0,1-.584.834,6.41,6.41,0,0,0,3.336,0,.556.556,0,0,1,.25,1.084,7.409,7.409,0,0,1-4.5-.167h0a3.656,3.656,0,0,1-1.918.5Zm2-5.171h-.167A1.429,1.429,0,0,0,21.3,45.729a1.646,1.646,0,0,0,.5,1.668h0a4.626,4.626,0,0,0,.667.5,3.7,3.7,0,0,0,.667-.917c.5-.834.584-1.585.25-2a1.158,1.158,0,0,0-.834-.417Z" transform="translate(-1.984 -7.296)" fill="#14a032"/>
    <path id="Path_2194" data-name="Path 2194" d="M20.447,5.9H5.1a.481.481,0,0,1-.5-.5.538.538,0,0,1,.5-.5H20.447a.5.5,0,1,1,0,1Z" transform="translate(-0.714 -0.913)" fill="#14a032"/>
    <path id="Path_2195" data-name="Path 2195" d="M17.194,9.084H5.1a.481.481,0,0,1-.5-.5c0-.25.25-.584.5-.584H17.194a.481.481,0,0,1,.5.5A.551.551,0,0,1,17.194,9.084Z" transform="translate(-0.714 -1.427)" fill="#14a032"/>
    <path id="Path_2196" data-name="Path 2196" d="M24.394,14.2H12.3a.5.5,0,0,1,0-1H24.394a.481.481,0,0,1,.5.5C24.978,13.951,24.728,14.2,24.394,14.2Z" transform="translate(-1.909 -2.29)" fill="#14a032"/>
    <path id="Path_2197" data-name="Path 2197" d="M20.891,17.2H12.3a.5.5,0,0,1,0-1h8.591a.5.5,0,0,1,0,1Z" transform="translate(-1.909 -2.788)" fill="#14a032"/>
    <path id="Path_2198" data-name="Path 2198" d="M8.687,17.6H5.1a.481.481,0,0,1-.5-.5V13.6a.481.481,0,0,1,.5-.5H8.6c.167,0,.25.083.417.167a.637.637,0,0,1,.167.417v3.5c0,.167-.083.25-.167.417Zm-3-1.084h2.5v-2.5h-2.5Z" transform="translate(-0.714 -2.274)" fill="#14a032"/>
    <path id="Path_2199" data-name="Path 2199" d="M44.523,14.2H37.1a.5.5,0,0,1,0-1h7.423a.481.481,0,0,1,.5.5A.538.538,0,0,1,44.523,14.2Z" transform="translate(-6.024 -2.29)" fill="#14a032"/>
    <path id="Path_2200" data-name="Path 2200" d="M42.021,17.2H37.1a.5.5,0,0,1,0-1h4.921a.481.481,0,0,1,.5.5C42.605,16.951,42.355,17.2,42.021,17.2Z" transform="translate(-6.024 -2.788)" fill="#14a032"/>
    <path id="Path_2201" data-name="Path 2201" d="M33.487,17.6H29.9a.481.481,0,0,1-.5-.5V13.6a.481.481,0,0,1,.5-.5h3.5c.167,0,.25.083.417.167a.637.637,0,0,1,.167.417v3.5c0,.167-.083.25-.167.417Zm-3-1.084h2.5v-2.5h-2.5Z" transform="translate(-4.829 -2.274)" fill="#14a032"/>
    <path id="Path_2202" data-name="Path 2202" d="M24.394,22.4H12.3a.5.5,0,0,1,0-1H24.394a.481.481,0,0,1,.5.5C24.978,22.151,24.728,22.4,24.394,22.4Z" transform="translate(-1.909 -3.651)" fill="#14a032"/>
    <path id="Path_2203" data-name="Path 2203" d="M27.4,25.4H12.3a.5.5,0,0,1,0-1H27.4a.481.481,0,0,1,.5.5C27.98,25.151,27.73,25.4,27.4,25.4Z" transform="translate(-1.909 -4.149)" fill="#14a032"/>
    <path id="Path_2204" data-name="Path 2204" d="M8.687,25.8H5.1a.481.481,0,0,1-.5-.5V21.8a.481.481,0,0,1,.5-.5H8.6c.167,0,.25.083.417.167a.637.637,0,0,1,.167.417v3.5c0,.167-.083.25-.167.417Zm-3-1h2.5V22.3h-2.5Z" transform="translate(-0.714 -3.635)" fill="#14a032"/>
    <path id="Path_2205" data-name="Path 2205" d="M23.56,30.6H12.3a.5.5,0,0,1,0-1H23.56a.481.481,0,0,1,.5.5C24.144,30.434,23.894,30.6,23.56,30.6Z" transform="translate(-1.909 -5.012)" fill="#14a032"/>
    <path id="Path_2206" data-name="Path 2206" d="M20.891,33.6H12.3a.5.5,0,1,1,0-1h8.591a.5.5,0,1,1,0,1Z" transform="translate(-1.909 -5.51)" fill="#14a032"/>
    <path id="Path_2207" data-name="Path 2207" d="M8.687,34.1H5.1a.481.481,0,0,1-.5-.5V30.1a.481.481,0,0,1,.5-.5H8.6c.167,0,.25.083.417.167a.637.637,0,0,1,.167.417v3.5c0,.167-.083.25-.167.417-.083-.083-.25,0-.334,0Zm-3-1.084h2.5v-2.5h-2.5Z" transform="translate(-0.714 -5.012)" fill="#14a032"/>
    <path id="Path_2208" data-name="Path 2208" d="M20.14,38.9H12.3a.481.481,0,0,1-.5-.5.538.538,0,0,1,.5-.5h7.84a.5.5,0,1,1,0,1Z" transform="translate(-1.909 -6.39)" fill="#14a032"/>
    <path id="Path_2209" data-name="Path 2209" d="M16.721,41.8H12.3a.481.481,0,0,1-.5-.5.538.538,0,0,1,.5-.5h4.42a.481.481,0,0,1,.5.5A.538.538,0,0,1,16.721,41.8Z" transform="translate(-1.909 -6.871)" fill="#14a032"/>
    <path id="Path_2210" data-name="Path 2210" d="M8.687,42.3H5.1a.481.481,0,0,1-.5-.5V38.3a.481.481,0,0,1,.5-.5H8.6c.167,0,.25.083.417.167a.637.637,0,0,1,.167.417v3.5c0,.167-.083.25-.167.417-.083-.083-.25,0-.334,0Zm-3-1.084h2.5v-2.5h-2.5Z" transform="translate(-0.714 -6.373)" fill="#14a032"/>
    <path id="Path_2211" data-name="Path 2211" d="M45.827,8.553H33.9a.481.481,0,0,1-.5-.5V5.3a.481.481,0,0,1,.5-.5H45.827c.167,0,.25.083.417.167a.637.637,0,0,1,.167.417V8.053c0,.167-.083.25-.167.417A3.612,3.612,0,0,0,45.827,8.553ZM34.4,7.469H45.243V5.884H34.4Z" transform="translate(-5.493 -0.896)" fill="#14a032"/>
  </g>
</svg>
