<svg xmlns="http://www.w3.org/2000/svg" width="48.514" height="48.515" viewBox="0 0 48.514 48.515">
  <g id="Group_967" data-name="Group 967" transform="translate(-918.653 -339.467)">
    <g id="noun-calendar-3972213" transform="translate(822.11 312.917)">
      <path id="Path_2226" data-name="Path 2226" d="M144.18,181.97H97.432a.508.508,0,0,1-.508-.508v-35.57a.508.508,0,0,1,.508-.508h46.748a.508.508,0,0,1,.508.508v35.569a.507.507,0,0,1-.508.508Zm-46.24-1.016h45.733V146.4H97.939Z" transform="translate(-0.005 -107.281)" fill="#14a050" stroke="#14a050" stroke-width="0.75"/>
      <path id="Path_2227" data-name="Path 2227" d="M144.175,78.127a.508.508,0,0,1-.508-.508V71.014H97.934v6.606a.508.508,0,1,1-1.016,0V70.505A.508.508,0,0,1,97.426,70h46.748a.508.508,0,0,1,.508.508v7.114a.507.507,0,0,1-.508.508Z" transform="translate(0 -39.008)" fill="#14a050" stroke="#14a050" stroke-width="0.75"/>
      <path id="Path_2228" data-name="Path 2228" d="M125.27,36.071a.508.508,0,0,1,0-1.016c1.194,0,2.2-1.629,2.2-3.557s-1.008-3.558-2.2-3.558-2.2,1.629-2.2,3.557a.508.508,0,0,1-1.016,0c0-2.565,1.414-4.573,3.218-4.573s3.218,2.009,3.218,4.573-1.414,4.574-3.218,4.574Z" transform="translate(-22.763)" fill="#14a050" stroke="#14a050" stroke-width="0.75"/>
      <path id="Path_2229" data-name="Path 2229" d="M222.2,36.071a.508.508,0,0,1,0-1.016c1.194,0,2.2-1.629,2.2-3.557s-1.008-3.558-2.2-3.558S220,29.57,220,31.5a.508.508,0,0,1-1.016,0c0-2.565,1.414-4.573,3.218-4.573s3.218,2.009,3.218,4.573S224,36.071,222.2,36.071Z" transform="translate(-110.546)" fill="#14a050" stroke="#14a050" stroke-width="0.75"/>
      <path id="Path_2230" data-name="Path 2230" d="M319.12,36.071a.508.508,0,0,1,0-1.016c1.194,0,2.2-1.629,2.2-3.557s-1.008-3.558-2.2-3.558-2.2,1.629-2.2,3.557a.508.508,0,0,1-1.016,0c0-2.565,1.414-4.573,3.218-4.573s3.218,2.009,3.218,4.573-1.414,4.574-3.218,4.574Z" transform="translate(-198.32)" fill="#14a050" stroke="#14a050" stroke-width="0.75"/>
      <path id="Path_2231" data-name="Path 2231" d="M416.04,36.071a.508.508,0,0,1,0-1.016c1.194,0,2.2-1.629,2.2-3.557s-1.008-3.558-2.2-3.558-2.2,1.629-2.2,3.557a.508.508,0,0,1-1.016,0c0-2.565,1.414-4.573,3.218-4.573s3.218,2.009,3.218,4.573-1.414,4.574-3.218,4.574Z" transform="translate(-286.093)" fill="#14a050" stroke="#14a050" stroke-width="0.75"/>
      <path id="Path_2232" data-name="Path 2232" d="M512.97,36.071a.508.508,0,1,1,0-1.016c1.193,0,2.2-1.629,2.2-3.557s-1.008-3.558-2.2-3.558-2.2,1.629-2.2,3.557a.508.508,0,0,1-1.016,0c0-2.565,1.414-4.573,3.218-4.573s3.218,2.009,3.218,4.573-1.414,4.574-3.218,4.574Z" transform="translate(-373.876)" fill="#14a050" stroke="#14a050" stroke-width="0.75"/>
      <path id="Path_2233" data-name="Path 2233" d="M154.326,206.352a3.557,3.557,0,1,1,3.557-3.557A3.561,3.561,0,0,1,154.326,206.352Zm0-6.1a2.541,2.541,0,1,0,2.541,2.541A2.544,2.544,0,0,0,154.326,200.254Z" transform="translate(-48.769 -156.053)" fill="#14a050" stroke="#14a050" stroke-width="0.75"/>
      <path id="Path_2234" data-name="Path 2234" d="M262.016,206.352a3.557,3.557,0,1,1,3.557-3.557A3.561,3.561,0,0,1,262.016,206.352Zm0-6.1a2.541,2.541,0,1,0,2.541,2.541A2.544,2.544,0,0,0,262.016,200.254Z" transform="translate(-146.297 -156.053)" fill="#14a050" stroke="#14a050" stroke-width="0.75"/>
      <path id="Path_2235" data-name="Path 2235" d="M369.716,206.352a3.557,3.557,0,1,1,3.557-3.557A3.561,3.561,0,0,1,369.716,206.352Zm0-6.1a2.541,2.541,0,1,0,2.541,2.541A2.544,2.544,0,0,0,369.716,200.254Z" transform="translate(-243.834 -156.053)" fill="#14a050" stroke="#14a050" stroke-width="0.75"/>
      <path id="Path_2236" data-name="Path 2236" d="M477.406,206.352a3.557,3.557,0,1,1,3.557-3.557A3.561,3.561,0,0,1,477.406,206.352Zm0-6.1a2.541,2.541,0,1,0,2.541,2.541A2.544,2.544,0,0,0,477.406,200.254Z" transform="translate(-341.361 -156.053)" fill="#14a050" stroke="#14a050" stroke-width="0.75"/>
      <path id="Path_2237" data-name="Path 2237" d="M154.326,314.042a3.557,3.557,0,1,1,3.557-3.557A3.561,3.561,0,0,1,154.326,314.042Zm0-6.1a2.541,2.541,0,1,0,2.541,2.541A2.544,2.544,0,0,0,154.326,307.944Z" transform="translate(-48.769 -253.58)" fill="#14a050" stroke="#14a050" stroke-width="0.75"/>
      <path id="Path_2238" data-name="Path 2238" d="M477.406,314.042a3.557,3.557,0,1,1,3.557-3.557A3.561,3.561,0,0,1,477.406,314.042Zm0-6.1a2.541,2.541,0,1,0,2.541,2.541A2.544,2.544,0,0,0,477.406,307.944Z" transform="translate(-341.361 -253.58)" fill="#14a050" stroke="#14a050" stroke-width="0.75"/>
      <path id="Path_2239" data-name="Path 2239" d="M154.326,421.732a3.557,3.557,0,1,1,3.557-3.557A3.561,3.561,0,0,1,154.326,421.732Zm0-6.1a2.541,2.541,0,1,0,2.541,2.541A2.544,2.544,0,0,0,154.326,415.634Z" transform="translate(-48.769 -351.108)" fill="#14a050" stroke="#14a050" stroke-width="0.75"/>
      <path id="Path_2240" data-name="Path 2240" d="M477.406,421.732a3.557,3.557,0,1,1,3.557-3.557A3.561,3.561,0,0,1,477.406,421.732Zm0-6.1a2.541,2.541,0,1,0,2.541,2.541A2.544,2.544,0,0,0,477.406,415.634Z" transform="translate(-341.361 -351.108)" fill="#14a050" stroke="#14a050" stroke-width="0.75"/>
    </g>
    <g id="Icon_feather-check-circle" data-name="Icon feather-check-circle" transform="translate(932.915 363.732)">
      <path id="Path_2241" data-name="Path 2241" d="M17.171,9.429v.652A7.086,7.086,0,1,1,12.97,3.6" transform="translate(0 0)" fill="none" stroke="#14a050" stroke-linecap="round" stroke-linejoin="round" stroke-width="2"/>
      <path id="Path_2242" data-name="Path 2242" d="M22.711,6l-7.086,7.093L13.5,10.967" transform="translate(-5.54 -1.588)" fill="none" stroke="#14a050" stroke-linecap="round" stroke-linejoin="round" stroke-width="2"/>
    </g>
  </g>
</svg>
