<svg id="noun_course_3971390" xmlns="http://www.w3.org/2000/svg" width="46.173" height="47.765" viewBox="0 0 46.173 47.765">
  <path id="Path_376" data-name="Path 376" d="M49.377,9.961H46.192V6.776a.8.8,0,0,0-.8-.8H42.212V2.8a.8.8,0,0,0-.8-.8H4.8a.8.8,0,0,0-.8.8V41.008a.8.8,0,0,0,.8.8H7.98v3.184a.8.8,0,0,0,.8.8h3.184v3.184a.8.8,0,0,0,.8.8h36.62a.8.8,0,0,0,.8-.8V10.757A.8.8,0,0,0,49.377,9.961Zm-.8,6.369H13.553V11.553H48.58ZM44.6,9.961H12.757a.8.8,0,0,0-.8.8v1.592H9.573V7.573H44.6ZM40.62,3.592V5.98H8.776a.8.8,0,0,0-.8.8V8.369H5.592V3.592ZM5.592,40.212V9.961H7.98V40.212Zm3.98,3.98V13.941h2.388V44.192Zm3.98,3.98V17.922H48.58V48.173Z" transform="translate(-4 -2)" fill="#14a032"/>
  <rect id="Rectangle_1109" data-name="Rectangle 1109" width="32.896" height="0.983" transform="translate(10.341 25.268)" fill="#14a032"/>
  <rect id="Rectangle_1544" data-name="Rectangle 1544" width="5.896" height="0.983" transform="translate(10.341 18.268)" fill="#14a032"/>
  <rect id="Rectangle_1545" data-name="Rectangle 1545" width="5.896" height="0.983" transform="translate(10.341 20.268)" fill="#14a032"/>
  <rect id="Rectangle_1546" data-name="Rectangle 1546" width="5.896" height="0.983" transform="translate(10.341 22.268)" fill="#14a032"/>
  <rect id="Rectangle_1550" data-name="Rectangle 1550" width="2.896" height="0.983" transform="translate(10.341 44.268)" fill="#14a032"/>
  <rect id="Rectangle_1551" data-name="Rectangle 1551" width="2.896" height="0.983" transform="translate(14.341 44.268)" fill="#14a032"/>
  <rect id="Rectangle_1547" data-name="Rectangle 1547" width="5.896" height="0.983" transform="translate(19.341 18.268)" fill="#14a032"/>
  <rect id="Rectangle_1548" data-name="Rectangle 1548" width="5.896" height="0.983" transform="translate(19.341 20.268)" fill="#14a032"/>
  <rect id="Rectangle_1549" data-name="Rectangle 1549" width="5.896" height="0.983" transform="translate(19.341 22.268)" fill="#14a032"/>
  <rect id="Rectangle_1110" data-name="Rectangle 1110" width="32.896" height="14.965" transform="translate(10.341 27.216)" fill="#14a032"/>
  <rect id="Rectangle_1111" data-name="Rectangle 1111" width="5.896" height="4.982" transform="translate(37.341 18.268)" fill="#14a032"/>
</svg>
