<svg xmlns="http://www.w3.org/2000/svg" viewBox="0 0 56 56"><defs><style>.cls-1{fill:none;stroke:#447bbe;stroke-miterlimit:10;stroke-width:1.5px;}.cls-2{fill:#447bbe;}</style></defs><g id="Layer_1" data-name="Layer 1"><path class="cls-1" d="M13.94,42.22h0A5.47,5.47,0,0,0,16,38h0A5.64,5.64,0,0,0,4.71,38h0a5.53,5.53,0,0,0,2.13,4.32h0a4.55,4.55,0,0,0-4.57,4.52v7H18.39V46.66A4.55,4.55,0,0,0,13.94,42.22Z"/><path class="cls-1" d="M31.82,42.22h0A5.51,5.51,0,0,0,33.88,38h0a5.65,5.65,0,0,0-11.29,0h0a5.56,5.56,0,0,0,2.13,4.32h0a4.53,4.53,0,0,0-4.45,4.52v7H36.39V46.66A4.55,4.55,0,0,0,31.82,42.22Z"/><path class="cls-1" d="M49.7,42.22h0A5.51,5.51,0,0,0,51.76,38h0a5.64,5.64,0,0,0-11.28,0h0a5.52,5.52,0,0,0,2.12,4.32h0a4.54,4.54,0,0,0-4.45,4.52v7H54.27V46.66A4.55,4.55,0,0,0,49.7,42.22Z"/><rect class="cls-1" x="24.81" y="6.25" width="11.37" height="22.65"/><rect class="cls-2" x="31.11" y="8.47" width="2.75" height="2.72"/><rect class="cls-2" x="38.35" y="13.03" width="2.89" height="2.86"/><rect class="cls-2" x="31.11" y="12.36" width="2.75" height="2.72"/><rect class="cls-2" x="31.11" y="16.23" width="2.75" height="2.72"/><rect class="cls-2" x="31.11" y="20.12" width="2.75" height="2.72"/><rect class="cls-2" x="31.11" y="24.01" width="2.75" height="2.72"/><rect class="cls-2" x="27.18" y="20.12" width="2.75" height="2.72"/><rect class="cls-2" x="27.18" y="24.01" width="2.75" height="2.72"/><rect class="cls-1" x="36.18" y="11.57" width="12.56" height="17.36"/><rect class="cls-2" x="43.68" y="13.03" width="2.89" height="2.86"/><rect class="cls-2" x="38.35" y="17.28" width="2.89" height="2.86"/><rect class="cls-2" x="43.68" y="17.28" width="2.89" height="2.86"/><path class="cls-2" d="M40.13,21.56H44a.79.79,0,0,1,.8.79h0v6H39.33v-6A.79.79,0,0,1,40.13,21.56Z"/><rect class="cls-2" x="27.18" y="8.47" width="2.75" height="2.72"/><rect class="cls-2" x="27.18" y="12.36" width="2.75" height="2.72"/><rect class="cls-2" x="27.18" y="16.23" width="2.75" height="2.72"/><path class="cls-2" d="M14.14,3.8A10.68,10.68,0,0,0,3.46,14.47c0,5.9,10.68,16.91,10.68,16.91s10.67-11,10.67-16.91A10.67,10.67,0,0,0,14.14,3.8Zm0,15.48a5.79,5.79,0,1,1,5.78-5.78A5.78,5.78,0,0,1,14.14,19.28Z"/></g></svg>