<svg width="25" height="47" viewBox="0 0 25 47" fill="none" xmlns="http://www.w3.org/2000/svg">
<path d="M21.7766 0.547565L0.580624 21.7035C0.208349 22.0751 0 22.5735 0 23.0924C0 23.6114 0.208349 24.1098 0.580624 24.4813L21.7766 45.6453C21.95 45.8186 22.1574 45.9563 22.3864 46.0504C22.6154 46.1444 22.8615 46.1928 23.1101 46.1928C23.3586 46.1928 23.6047 46.1444 23.8337 46.0504C24.0628 45.9563 24.2701 45.8186 24.4435 45.6453C24.8003 45.2899 25 44.8128 25 44.3161C25 43.8193 24.8003 43.3422 24.4435 42.9869L4.51141 23.0924L24.4435 3.20201C24.799 2.84682 24.998 2.3706 24.998 1.87479C24.998 1.37898 24.799 0.902759 24.4435 0.547565C24.2701 0.374276 24.0628 0.236543 23.8337 0.142498C23.6047 0.0484526 23.3586 0 23.1101 0C22.8615 0 22.6154 0.0484526 22.3864 0.142498C22.1574 0.236543 21.95 0.374276 21.7766 0.547565Z" fill="#343F64" fill-opacity="0.5"/>
</svg>
