<svg width="13" height="12" viewBox="0 0 13 12" fill="none" xmlns="http://www.w3.org/2000/svg">
<path d="M0.420174 4.22554L4.31732 3.67806L6.05945 0.264102C6.10703 0.170629 6.18531 0.0949614 6.28201 0.0489671C6.52453 -0.0667604 6.81923 0.0296792 6.94049 0.264102L8.68262 3.67806L12.5798 4.22554C12.6872 4.24038 12.7854 4.28934 12.8607 4.36352C12.9516 4.45386 13.0017 4.5754 13 4.70142C12.9982 4.82745 12.9448 4.94766 12.8514 5.03563L10.0318 7.69291L10.698 11.4452C10.7136 11.5324 10.7036 11.6222 10.6691 11.7043C10.6346 11.7864 10.5771 11.8575 10.5029 11.9095C10.4288 11.9616 10.341 11.9925 10.2496 11.9988C10.1582 12.0051 10.0668 11.9865 9.98576 11.9452L6.49997 10.1736L3.01418 11.9452C2.91901 11.9941 2.8085 12.0104 2.70259 11.9926C2.43552 11.9481 2.25593 11.7033 2.30198 11.4452L2.96813 7.69291L0.148494 5.03563C0.0717478 4.96293 0.0210953 4.86798 0.00574684 4.76412C-0.035696 4.50447 0.151564 4.26412 0.420174 4.22554Z" fill="white"/>
</svg>
