<svg xmlns="http://www.w3.org/2000/svg" width="604.568" height="831.719" viewBox="0 0 604.568 831.719">
  <g id="InstituteWebsiteLRightArt" transform="translate(-282.166 -7.445)">
    <line id="Line_25" data-name="Line 25" x2="544.161" y2="410.265" transform="translate(282.5 428.5)" fill="none" stroke="#dcdcdc" stroke-width="1"/>
    <line id="Line_26" data-name="Line 26" x2="535.452" y2="401.984" transform="translate(296.5 429.5)" fill="none" stroke="#dcdcdc" stroke-width="1"/>
    <line id="Line_27" data-name="Line 27" x2="526.329" y2="393.894" transform="translate(311.5 429.5)" fill="none" stroke="#dcdcdc" stroke-width="1"/>
    <line id="Line_28" data-name="Line 28" x2="519.207" y2="385.804" transform="translate(324.5 429.5)" fill="none" stroke="#dcdcdc" stroke-width="1"/>
    <line id="Line_29" data-name="Line 29" x2="511.085" y2="377.713" transform="translate(338.5 429.5)" fill="none" stroke="#dcdcdc" stroke-width="1"/>
    <line id="Line_30" data-name="Line 30" x2="501.963" y2="369.623" transform="translate(353.5 429.5)" fill="none" stroke="#dcdcdc" stroke-width="1"/>
    <line id="Line_31" data-name="Line 31" x2="492.841" y2="361.534" transform="translate(368.5 429.5)" fill="none" stroke="#dcdcdc" stroke-width="1"/>
    <line id="Line_32" data-name="Line 32" x2="481.719" y2="353.443" transform="translate(385.5 429.5)" fill="none" stroke="#dcdcdc" stroke-width="1"/>
    <line id="Line_33" data-name="Line 33" x2="470.597" y2="346.353" transform="translate(402.5 428.5)" fill="none" stroke="#dcdcdc" stroke-width="1"/>
    <line id="Line_34" data-name="Line 34" x2="461.474" y2="338.263" transform="translate(417.5 428.5)" fill="none" stroke="#dcdcdc" stroke-width="1"/>
    <line id="Line_35" data-name="Line 35" x1="1" y2="562.582" transform="matrix(0.588, -0.809, 0.809, 0.588, 430.714, 427.995)" fill="none" stroke="#dcdcdc" stroke-width="1"/>
    <line id="Line_36" data-name="Line 36" x1="468.264" y2="420.683" transform="translate(282.5 7.817)" fill="none" stroke="#dcdcdc" stroke-width="1"/>
    <line id="Line_37" data-name="Line 37" x1="460.287" y2="414.995" transform="translate(296.5 14.505)" fill="none" stroke="#dcdcdc" stroke-width="1"/>
    <line id="Line_38" data-name="Line 38" x1="451.978" y2="407.564" transform="translate(311.5 21.937)" fill="none" stroke="#dcdcdc" stroke-width="1"/>
    <line id="Line_39" data-name="Line 39" x1="445.669" y2="400.132" transform="translate(324.5 29.368)" fill="none" stroke="#dcdcdc" stroke-width="1"/>
    <line id="Line_40" data-name="Line 40" x1="438.361" y2="392.7" transform="translate(338.5 36.8)" fill="none" stroke="#dcdcdc" stroke-width="1"/>
    <line id="Line_41" data-name="Line 41" x1="430.052" y2="385.269" transform="translate(353.5 44.231)" fill="none" stroke="#dcdcdc" stroke-width="1"/>
    <line id="Line_42" data-name="Line 42" x1="421.743" y2="377.838" transform="translate(368.5 51.662)" fill="none" stroke="#dcdcdc" stroke-width="1"/>
    <line id="Line_43" data-name="Line 43" x1="411.434" y2="370.406" transform="translate(385.5 59.094)" fill="none" stroke="#dcdcdc" stroke-width="1"/>
    <line id="Line_44" data-name="Line 44" x1="401.126" y2="361.975" transform="translate(402.5 66.525)" fill="none" stroke="#dcdcdc" stroke-width="1"/>
    <line id="Line_45" data-name="Line 45" x1="392.817" y2="354.543" transform="translate(417.5 73.957)" fill="none" stroke="#dcdcdc" stroke-width="1"/>
    <line id="Line_46" data-name="Line 46" x1="1" y2="518.642" transform="translate(816.339 80.646) rotate(48)" fill="none" stroke="#dcdcdc" stroke-width="1"/>
    <g id="Polygon_9" data-name="Polygon 9" transform="translate(489.5 422)" fill="#fff">
      <path d="M 18 32.1862907409668 C 15.99668025970459 32.1862907409668 14.11326026916504 31.40616035461426 12.69668960571289 29.98959922790527 L 6.01039981842041 23.30330085754395 C 3.086159944534302 20.37904930114746 3.086159944534302 15.62094974517822 6.01039981842041 12.69668960571289 L 12.69668960571289 6.01039981842041 C 14.11326026916504 4.5938401222229 15.99668025970459 3.81370997428894 18 3.81370997428894 C 20.00332069396973 3.81370997428894 21.88673973083496 4.5938401222229 23.30330085754395 6.01039981842041 L 29.98959922790527 12.69670009613037 C 32.91384124755859 15.62094974517822 32.91384124755859 20.37904930114746 29.98959922790527 23.30331039428711 L 23.30330085754395 29.98959922790527 C 21.88673973083496 31.40616035461426 20.00332069396973 32.1862907409668 18 32.1862907409668 Z" stroke="none"/>
      <path d="M 18 4.313709259033203 C 16.13022041320801 4.313709259033203 14.37236976623535 5.041839599609375 13.05024909973145 6.363960266113281 L 6.363960266113281 13.05024909973145 C 3.634658813476563 15.77955055236816 3.634658813476563 20.22045135498047 6.363960266113281 22.94974136352539 L 13.05024909973145 29.63603019714355 C 14.37236976623535 30.95816040039063 16.13022994995117 31.6862907409668 18 31.6862907409668 C 19.86976051330566 31.6862907409668 21.62762069702148 30.95816040039063 22.94974136352539 29.63603019714355 L 29.63603019714355 22.94974899291992 C 30.95816040039063 21.62763023376465 31.6862907409668 19.86977005004883 31.6862907409668 18 C 31.6862907409668 16.13022994995117 30.95816040039063 14.37237930297852 29.63603019714355 13.05026054382324 L 22.94974136352539 6.363960266113281 C 21.62762069702148 5.041839599609375 19.86977005004883 4.313709259033203 18 4.313709259033203 M 17.99999809265137 3.313709259033203 C 20.04737854003906 3.313709259033203 22.09475517272949 4.094755172729492 23.6568489074707 5.656850814819336 L 30.3431396484375 12.34314918518066 C 33.46733856201172 15.46734046936035 33.46733856201172 20.53265953063965 30.3431396484375 23.6568603515625 L 23.6568489074707 30.3431396484375 C 22.09475517272949 31.90523910522461 20.04737854003906 32.6862907409668 17.99999809265137 32.6862907409668 C 15.9526195526123 32.6862907409668 13.90523910522461 31.90523910522461 12.3431396484375 30.3431396484375 L 5.656850814819336 23.6568489074707 C 2.532661437988281 20.53265953063965 2.532661437988281 15.46734046936035 5.656850814819336 12.3431396484375 L 12.3431396484375 5.656850814819336 C 13.90523910522461 4.094755172729492 15.9526195526123 3.313709259033203 17.99999809265137 3.313709259033203 Z" stroke="none" fill="#306bff"/>
    </g>
    <path id="Polygon_10" data-name="Polygon 10" d="M5.172,2.828a4,4,0,0,1,5.657,0l2.343,2.343a4,4,0,0,1,0,5.657l-2.343,2.343a4,4,0,0,1-5.657,0L2.828,10.828a4,4,0,0,1,0-5.657Z" transform="translate(510.5 415)" fill="#306bff"/>
  </g>
</svg>
