<svg xmlns="http://www.w3.org/2000/svg" width="74.961" height="81" viewBox="0 0 74.961 81">
  <g id="Group_72" data-name="Group 72" transform="translate(-15.039 -405)">
    <g id="Group_66" data-name="Group 66" transform="translate(0 40)">
      <circle id="Ellipse_16" data-name="Ellipse 16" cx="31.5" cy="31.5" r="31.5" transform="translate(27 383)" fill="#ededed"/>
      <path id="Subtraction_1" data-name="Subtraction 1" d="M962.309-3925.276h0a23.465,23.465,0,0,1-14.877-7.072,23.447,23.447,0,0,1-6.579-15.15l21.457,22.22Zm8.563-.842-28.879-29.906a23.392,23.392,0,0,1,2.79-5.709l31.9,33.031a23.38,23.38,0,0,1-5.807,2.584Zm10.984-6.934-32.544-33.7a23.508,23.508,0,0,1,5.16-3.257l30.822,31.917a23.53,23.53,0,0,1-3.438,5.04Zm5.731-12.375h0l-25.7-26.612a23.84,23.84,0,0,1,2.429-.124,23.531,23.531,0,0,1,6.687.965l16.064,16.635a23.552,23.552,0,0,1,.744,5.886,23.779,23.779,0,0,1-.223,3.25Z" transform="translate(-925.812 4345.164)" fill="#306bff"/>
      <circle id="Ellipse_18" data-name="Ellipse 18" cx="4" cy="4" r="4" transform="translate(55 369)" fill="#306bff"/>
      <circle id="Ellipse_19" data-name="Ellipse 19" cx="2" cy="2" r="2" transform="translate(63 365)" fill="#306bff"/>
    </g>
  </g>
</svg>
