<svg xmlns="http://www.w3.org/2000/svg" width="460.015" height="460" viewBox="0 0 460.015 460">
  <g id="Group_629" data-name="Group 629" transform="translate(4.429 -401)">
    <path id="Intersection_46" data-name="Intersection 46" d="M0,0C0,254,205.93,460,460.015,460V0Z" transform="translate(455.586 861) rotate(180)" fill="rgba(220,220,220,0.23)"/>
    <path id="Intersection_58" data-name="Intersection 58" d="M0,0C0,215.9,175.041,391,391.013,391V0Z" transform="translate(386.583 861) rotate(180)" fill="rgba(220,220,220,0.23)"/>
    <path id="Intersection_60" data-name="Intersection 60" d="M0,0C0,174.442,141.429,315.919,315.929,315.919V0Z" transform="translate(311.5 861) rotate(180)" fill="rgba(220,220,220,0.23)"/>
    <path id="Intersection_62" data-name="Intersection 62" d="M0,0C0,137.172,111.212,248.421,248.429,248.421V0Z" transform="translate(244 861) rotate(180)" fill="rgba(220,220,220,0.23)"/>
    <path id="Intersection_64" data-name="Intersection 64" d="M0,0C0,107.95,87.52,195.5,195.506,195.5V0Z" transform="translate(191.077 861) rotate(180)" fill="rgba(220,220,220,0.23)"/>
  </g>
</svg>
