<svg xmlns="http://www.w3.org/2000/svg" width="118" height="118" viewBox="0 0 118 118">
  <g id="Group_632" data-name="Group 632" transform="translate(-1028 -119)">
    <g id="Group_631" data-name="Group 631">
      <path id="Intersection_66" data-name="Intersection 66" d="M0,0A118,118,0,0,0,118,118V0Z" transform="translate(1028 119)" fill="#146efa"/>
    </g>
    <path id="Intersection_68" data-name="Intersection 68" d="M0,0A95,95,0,0,0,95,95V0Z" transform="translate(1051 119)" fill="#fff"/>
    <path id="Intersection_70" data-name="Intersection 70" d="M0,0A80,80,0,0,0,80,80V0Z" transform="translate(1066 119)" fill="#146efa"/>
    <path id="Intersection_72" data-name="Intersection 72" d="M0,0A62,62,0,0,0,62,62V0Z" transform="translate(1084 119)" fill="#fff"/>
    <path id="Intersection_74" data-name="Intersection 74" d="M0,0A47.372,47.372,0,0,0,47.372,47.368V0Z" transform="translate(1098.628 119)" fill="#146efa"/>
  </g>
</svg>
