<svg xmlns="http://www.w3.org/2000/svg" width="318.862" height="311.369" viewBox="0 0 318.862 311.369">
  <g id="Group_38" data-name="Group 38" transform="translate(-949.273 -402.5)">
    <path id="Intersection_1" data-name="Intersection 1" d="M262.27,182.227v-8.678l3.618,4.959v3.719Zm-9.044,0V161.153l3.618,4.959v16.115Zm-9.044,0v-33.47l3.618,4.959v28.511Zm-9.044,0V136.36l3.617,4.958v40.908Zm-9.044,0V123.964l3.617,4.958v53.3Zm-9.044,0V111.568l3.617,4.958v65.7Zm-9.044,0V99.172l3.617,4.958v78.1Zm-9.044,0V86.776l3.617,4.958v90.493Zm-9.044,0V74.378l3.618,4.959V182.227Zm-9.044,0V61.982l3.618,4.959V182.227Zm-9.044,0V49.586l3.618,4.959V182.227Zm-9.044,0V37.19l3.618,4.959V182.227Zm-9.044,0V24.794l3.617,4.958V182.227Zm-9.044,0V12.4l3.617,4.958V182.227Zm-9.044,0V0l3.617,4.958V182.227Zm-9.044,0V4.958L130.231,0V182.227Zm-9.044,0V17.354l3.617-4.958V182.227Zm-9.045,0V29.752l3.618-4.959V182.227Zm-9.044,0V42.148l3.618-4.959V182.227Zm-9.044,0V54.544l3.618-4.959V182.227Zm-9.044,0V66.94l3.618-4.959V182.227Zm-9.044,0V79.337l3.617-4.958V182.227Zm-9.044,0V91.733l3.617-4.958v95.452Zm-9.044,0v-78.1l3.617-4.958v83.056Zm-9.044,0v-65.7l3.617-4.958v70.66Zm-9.044,0V128.921l3.617-4.958v58.263Zm-9.044,0V141.318l3.618-4.959v45.867Zm-9.044,0V153.715l3.618-4.959v33.471Zm-9.044,0V166.111l3.618-4.959v21.075Zm-9.044,0v-3.72l3.618-4.959v8.679Z" transform="matrix(0.899, -0.438, 0.438, 0.899, 949.273, 519.058)" fill="#306bff" opacity="0.05"/>
    <path id="Intersection_2" data-name="Intersection 2" d="M77.338,162.178V.071C78.092.037,78.853.013,79.612,0V162.249C78.853,162.236,78.092,162.212,77.338,162.178ZM83.025.012Q84.165.039,85.3.1V162.151q-1.133.059-2.274.087ZM71.651,161.723V.526Q72.784.4,73.926.3V161.953Q72.784,161.854,71.651,161.723ZM88.711.347c.76.072,1.521.154,2.274.246V161.656c-.754.092-1.515.175-2.274.246ZM65.965,160.861V1.388c.754-.142,1.514-.274,2.275-.395V161.256C67.478,161.135,66.718,161,65.965,160.861ZM94.4,1.086q1.143.19,2.275.412V160.752q-1.132.222-2.275.412Zm-34.12,158.49V2.674q1.131-.3,2.275-.566V160.142Q61.409,159.874,60.278,159.575ZM100.084,2.242q1.144.276,2.275.584v156.6q-1.132.308-2.275.584Zm-45.493,155.6V4.406q1.13-.39,2.275-.748V158.592Q55.722,158.234,54.591,157.844ZM105.771,3.838q1.144.367,2.275.767v153.04q-1.129.4-2.275.767ZM48.9,155.634V6.615q1.128-.488,2.275-.944V156.578Q50.034,156.123,48.9,155.634ZM111.457,5.9c.763.31,1.524.632,2.275.964V155.385c-.751.332-1.512.654-2.275.964Zm-68.239,147V9.346q1.128-.6,2.274-1.158V154.061Q44.344,153.5,43.218,152.9ZM117.144,8.469q1.147.572,2.275,1.181V152.6q-1.126.608-2.275,1.181ZM37.532,149.591V12.658q1.126-.718,2.274-1.4V150.99Q38.656,150.308,37.532,149.591ZM122.831,11.6q1.151.7,2.274,1.426v136.2q-1.126.732-2.274,1.426ZM31.845,145.609V16.64q1.12-.858,2.274-1.68V147.289Q32.969,146.469,31.845,145.609ZM128.517,15.369q1.153.836,2.274,1.711V145.169q-1.122.875-2.274,1.711ZM26.159,140.827V21.423c.747-.689,1.5-1.359,2.274-2.02V142.846C27.661,142.186,26.906,141.515,26.159,140.827ZM134.2,19.894q1.158,1.009,2.275,2.058V140.3q-1.119,1.051-2.275,2.058ZM20.472,135.034V27.214q1.111-1.25,2.274-2.456V137.491Q21.586,136.288,20.472,135.034ZM139.89,25.354q1.162,1.229,2.274,2.508V134.387q-1.11,1.277-2.274,2.508ZM14.785,127.86V34.389q1.1-1.564,2.275-3.071v99.614Q15.887,129.424,14.785,127.86Zm130.792-95.8q1.174,1.546,2.274,3.148v91.837q-1.1,1.6-2.274,3.148ZM9.1,118.515V43.734q1.081-2.08,2.275-4.086V122.6Q10.179,120.594,9.1,118.515Zm142.165-77.9q1.2,2.078,2.275,4.231V117.4q-1.077,2.154-2.275,4.231ZM3.412,104.5V57.754c.667-2.222,1.428-4.41,2.275-6.548v59.837C4.84,108.906,4.079,106.718,3.412,104.5ZM156.95,52.684q1.293,3.458,2.275,7.06v42.761q-.979,3.6-2.275,7.06ZM0,81.124c0-.1,0-.192,0-.287v.575C0,81.316,0,81.22,0,81.124Z" transform="translate(1116.664 490.32) rotate(34)" fill="#306bff"/>
    <ellipse id="Ellipse_18" data-name="Ellipse 18" cx="47" cy="46" rx="47" ry="46" transform="translate(1091 555)" fill="#fff"/>
    <ellipse id="Ellipse_19" data-name="Ellipse 19" cx="12" cy="11" rx="12" ry="11" transform="translate(1125 591)" fill="#306bff"/>
  </g>
</svg>
