<svg width="204" height="49" viewBox="0 0 204 49" fill="none" xmlns="http://www.w3.org/2000/svg">
<g clip-path="url(#clip0_1411_4623)">
<path d="M24.9801 16.7148V17.6438C25.0031 18.8808 24.5591 20.0798 23.7311 20.9978C22.9661 21.8968 21.8431 22.4088 20.6661 22.3978H10.0391C10.0391 19.2598 12.5851 16.7148 15.7241 16.7148H24.9801Z" fill="#146EFA"/>
<path d="M24.9801 25.6133V26.5463C25.0031 27.7803 24.5591 28.9793 23.7311 29.8983C22.9661 30.7953 21.8431 31.3083 20.6661 31.2993H10.0391C10.0391 28.1603 12.5851 25.6143 15.7241 25.6143L24.9801 25.6133Z" fill="#14A050"/>
<path d="M29.778 48.25H4.149C1.857 48.25 0 46.393 0 44.102V4.125C0.012 1.843 1.867 0 4.149 0H29.589C29.589 3.5 26.754 6.338 23.254 6.342H6.647V41.92H23.465C26.95 41.94 29.769 44.764 29.778 48.25Z" fill="#141414"/>
<path d="M61.177 0.003C60.507 -0.002 59.844 0.127 59.223 0.38C58.596 0.648 58.024 1.034 57.543 1.515C56.548 2.477 56.001 3.81 56.03 5.195V20.711C54.947 19.443 53.694 18.333 52.306 17.41C50.133 16.033 47.602 15.335 45.031 15.405C42.245 15.365 39.5141 16.184 37.2121 17.752C34.9451 19.295 33.118 21.402 31.914 23.869C30.688 26.329 30.054 29.045 30.059 31.793C30.039 34.604 30.679 37.377 31.929 39.893C33.114 42.34 34.926 44.43 37.181 45.948C39.509 47.479 42.245 48.271 45.03 48.218C49.327 48.318 53.416 46.383 56.068 43.004C56.063 45.88 58.392 48.214 61.267 48.218C61.274 48.218 61.279 48.218 61.284 48.218H61.973V0H61.18V0.003H61.177ZM51.14 41.232C49.607 42.236 47.811 42.763 45.978 42.747C44.133 42.789 42.315 42.296 40.749 41.323C39.268 40.369 38.086 39.014 37.341 37.419C36.539 35.692 36.13 33.81 36.144 31.906C36.125 29.972 36.534 28.056 37.341 26.297C38.084 24.691 39.265 23.325 40.749 22.362C42.316 21.387 44.132 20.89 45.978 20.931C47.79 20.917 49.563 21.443 51.072 22.445C52.614 23.451 53.871 24.839 54.722 26.471C55.593 28.103 56.055 29.922 56.06 31.769C56.072 33.668 55.622 35.541 54.751 37.228C54.329 38.047 53.804 38.812 53.19 39.497C52.59 40.167 51.898 40.75 51.14 41.232Z" fill="#141414"/>
<path d="M95.0812 28.7052V48.2502H94.3222C92.9382 48.2792 91.6022 47.7312 90.6382 46.7362C89.6522 45.7602 89.1062 44.4272 89.1242 43.0412V29.7872C89.2452 27.5612 88.5442 25.3682 87.1552 23.6252C85.8582 22.1122 84.0132 21.4162 81.5142 21.4162C79.2732 21.3422 77.1112 22.2602 75.6102 23.9302C74.0402 25.6472 73.2042 27.9092 73.2792 30.2362V42.9842C73.2912 44.2382 72.8482 45.4572 72.0302 46.4132C71.0442 47.5912 69.5802 48.2682 68.0422 48.2512H67.2852V16.3452H69.3822C71.4942 16.3452 73.2082 18.0542 73.2122 20.1662C75.5542 17.2662 79.1252 15.6372 82.8492 15.7692C86.7082 15.7692 89.7522 16.9792 91.8882 19.3722C92.9562 20.5602 93.7732 21.9532 94.2872 23.4682C94.8372 25.1582 95.1042 26.9282 95.0812 28.7052Z" fill="#141414"/>
<path d="M130.989 31.6978C130.998 32.2208 130.976 32.7448 130.921 33.2628L130.822 33.9448H115.826C114.209 33.9448 113.042 33.4538 112.382 32.4908C111.811 31.6918 111.476 30.7488 111.412 29.7668V28.6168H124.841C124.552 26.5518 123.62 24.6288 122.168 23.1288C120.49 21.5118 118.215 20.6598 115.885 20.7818C114.364 20.7818 112.864 21.1858 111.55 21.9558C110.203 22.7388 109.053 23.8208 108.191 25.1208C107.311 26.4248 106.733 27.9088 106.5 29.4648V29.5928L106.455 29.6758C106.399 30.0098 106.382 30.3468 106.396 30.6838V30.7438C106.396 31.6678 106.396 32.4628 106.464 33.1148C106.573 36.5868 108.496 39.7458 111.528 41.4388C113.039 42.2888 114.748 42.7248 116.477 42.7038C118.206 42.7438 119.911 42.3228 121.418 41.4848C121.662 41.3388 121.886 41.1638 122.088 40.9638C124.268 38.9508 127.46 38.4748 130.132 39.7608L129.777 40.5158C128.606 42.9408 126.72 44.9468 124.376 46.2608C116.635 50.6058 106.839 47.8518 102.496 40.1138C102.489 40.1018 102.483 40.0918 102.475 40.0788C99.6978 34.9718 99.6678 28.8078 102.399 23.6778C103.712 21.2158 105.632 19.1308 107.977 17.6208C110.342 16.1118 113.097 15.3238 115.903 15.3498C118.786 15.2688 121.633 16.0078 124.115 17.4778C126.381 18.8908 128.176 20.9418 129.279 23.3728C130.447 25.9898 131.032 28.8318 130.989 31.6978Z" fill="#141414"/>
<path d="M166.838 31.6947C166.846 32.2177 166.827 32.7417 166.772 33.2597L166.671 33.9417H151.683C150.058 33.9417 148.899 33.4507 148.233 32.4877C147.664 31.6887 147.33 30.7447 147.269 29.7637V28.6137H160.698C160.411 26.5467 159.471 24.6257 158.019 23.1257C156.344 21.5087 154.071 20.6567 151.745 20.7787C150.221 20.7757 148.722 21.1807 147.407 21.9527C146.053 22.7347 144.904 23.8167 144.038 25.1177C143.163 26.4237 142.589 27.9067 142.35 29.4617V29.5897L142.308 29.6727C142.255 30.0067 142.237 30.3437 142.252 30.6807V30.7407C142.252 31.6647 142.252 32.4597 142.314 33.1117C142.473 38.5137 146.93 42.7917 152.335 42.7317C154.064 42.7687 155.766 42.3487 157.279 41.5117C157.517 41.3627 157.741 41.1857 157.943 40.9887C160.123 38.9787 163.307 38.5027 165.983 39.7867L165.634 40.5417C164.463 42.9687 162.574 44.9747 160.222 46.2877C152.475 50.6307 142.68 47.8727 138.335 40.1267C138.332 40.1197 138.329 40.1107 138.323 40.1047C135.543 34.9977 135.515 28.8337 138.255 23.7017C139.564 21.2377 141.484 19.1527 143.835 17.6467C146.198 16.1367 148.953 15.3477 151.76 15.3767C154.643 15.2987 157.49 16.0347 159.972 17.5027C162.235 18.9177 164.03 20.9697 165.126 23.3997C166.295 26.0047 166.881 28.8377 166.838 31.6947Z" fill="#141414"/>
<path d="M203.12 0.00404624C202.447 -0.00095376 201.781 0.128046 201.157 0.381046C200.54 0.653046 199.976 1.04005 199.5 1.51605C198.506 2.47805 197.956 3.81005 197.987 5.19605V20.712C196.899 19.441 195.635 18.33 194.242 17.411C192.07 16.036 189.539 15.338 186.971 15.406C184.182 15.371 181.449 16.195 179.147 17.767C176.881 19.314 175.06 21.421 173.848 23.884C172.629 26.342 171.999 29.051 172.002 31.794C171.986 34.595 172.622 37.36 173.863 39.872C175.05 42.316 176.862 44.403 179.115 45.927C181.445 47.459 184.184 48.251 186.973 48.198C191.252 48.311 195.337 46.398 197.986 43.034C197.986 45.914 200.321 48.251 203.201 48.251H203.892V0.00404624H203.12ZM187.919 42.725C186.075 42.767 184.26 42.272 182.688 41.302C181.212 40.345 180.035 38.989 179.292 37.395C178.484 35.671 178.075 33.789 178.094 31.885C178.073 29.949 178.479 28.032 179.292 26.276C180.026 24.668 181.21 23.3 182.694 22.34C184.263 21.364 186.076 20.868 187.92 20.909C189.733 20.898 191.51 21.425 193.023 22.422C194.561 23.432 195.814 24.819 196.662 26.45C197.542 28.094 197.997 29.929 197.989 31.794C198 33.692 197.551 35.566 196.68 37.251C196.257 38.073 195.736 38.837 195.117 39.522C194.518 40.203 193.827 40.794 193.066 41.287C191.53 42.262 189.741 42.763 187.919 42.725Z" fill="#141414"/>
</g>
<defs>
<clipPath id="clip0_1411_4623">
<rect width="203.419" height="48.232" fill="white"/>
</clipPath>
</defs>
</svg>
