<svg xmlns="http://www.w3.org/2000/svg" xmlns:xlink="http://www.w3.org/1999/xlink" width="1212.982" height="1002.1" viewBox="0 0 1212.982 1002.1">
  <defs>
    <filter id="Path_768" x="0" y="0" width="1212.982" height="1002.1" filterUnits="userSpaceOnUse">
      <feOffset input="SourceAlpha"/>
      <feGaussianBlur stdDeviation="49.5" result="blur"/>
      <feFlood flood-opacity="0.102"/>
      <feComposite operator="in" in2="blur"/>
      <feComposite in="SourceGraphic"/>
    </filter>
    <linearGradient id="linear-gradient" x1="0.5" y1="1" x2="0.5" gradientUnits="objectBoundingBox">
      <stop offset="0" stop-color="gray" stop-opacity="0.251"/>
      <stop offset="0.54" stop-color="gray" stop-opacity="0.122"/>
      <stop offset="1" stop-color="gray" stop-opacity="0.102"/>
    </linearGradient>
  </defs>
  <g id="Group_441" data-name="Group 441" transform="translate(-283.864 10.385)">
    <g transform="matrix(1, 0, 0, 1, 283.86, -10.38)" filter="url(#Path_768)">
      <path id="Path_768-2" data-name="Path 768" d="M2158.9-13749.193s-73.875-82.35-148.961-161.068-72.763-169.113-12.127-158.639,94.479,37.531,94.479,37.531,36.332,16.955,31.488-43.6-116.045-223.8,16.251-298.215,298.625,8.771,368.866,86.279,192.559,148.961,280.966,25.432,78.719,159.861,78.719,159.861l-33.91,404.494-693.939-6.055Z" transform="translate(-1804.41 14550.71)" fill="#fff"/>
    </g>
    <g id="noun_Gears_2186705" transform="translate(993 519.574) rotate(173)">
      <g id="Group_418" data-name="Group 418">
        <path id="Path_770" data-name="Path 770" d="M158.587,192.715l16.406,8.75c-3.281,7.656-6.562,15.312-8.75,21.874l-18.593-4.375a106.78,106.78,0,0,1-18.593,19.687l4.375,17.5-22.968,9.843-8.75-16.406c-9.843,2.187-18.593,2.187-27.343,0l-9.843,16.406c-7.656-3.281-15.312-6.562-21.874-8.75l4.375-18.593c-7.656-5.469-14.218-10.937-19.687-18.593l-17.5,4.375L0,201.464l16.406-8.75a77.684,77.684,0,0,1-1.094-27.343L0,155.529c3.281-7.656,6.562-14.218,8.75-21.874l18.593,4.375c4.375-7.656,10.937-14.218,18.593-19.687l-4.375-17.5L64.529,91l8.75,16.406c9.843-2.187,18.593-2.187,27.343,0L110.464,91c7.656,3.281,15.312,6.562,21.874,9.843l-4.375,17.5a84.1,84.1,0,0,1,19.687,19.687l17.5-4.375c3.281,6.562,6.562,14.218,9.843,21.874l-16.406,9.843C160.775,174.122,160.775,182.871,158.587,192.715Zm-21.874,6.562a52.607,52.607,0,0,0-28.436-70c-27.343-12.031-59.06,1.094-71.091,28.436-10.937,27.343,2.187,59.06,29.53,71.091C94.059,239.744,125.776,226.619,136.713,199.277Z" transform="translate(0 8.527)" fill="#f6f6f6" fill-rule="evenodd"/>
        <path id="Path_771" data-name="Path 771" d="M312.587,100.621l16.406,9.843c-3.281,7.656-6.562,14.218-9.843,21.874l-17.5-4.375a84.1,84.1,0,0,1-19.687,19.687l4.375,17.5c-6.562,3.281-14.218,6.562-21.874,9.843l-9.843-16.406a53.319,53.319,0,0,1-26.249,0l-9.843,16.406-22.968-9.843,5.469-17.5a84.1,84.1,0,0,1-19.687-19.687l-18.593,5.469c-2.187-7.656-5.469-15.312-8.75-22.968l15.312-9.843a105.407,105.407,0,0,1,0-26.249L154,64.529c3.281-7.656,5.469-15.312,8.75-21.874l18.593,4.375c4.375-7.656,10.937-14.218,18.593-19.687l-4.375-17.5C203.217,6.562,210.873,3.281,217.435,0l9.843,15.312a114.338,114.338,0,0,1,27.343,0L264.464,0c7.656,3.281,14.218,6.562,21.874,8.75l-4.375,18.593c7.656,4.375,14.218,10.937,19.687,18.593l17.5-4.375,9.843,22.968-16.406,8.75C314.775,83.122,314.775,91.871,312.587,100.621Zm-21.874,7.656c12.031-27.343-1.094-59.06-28.436-71.091a55.24,55.24,0,0,0-71.091,29.53c-10.937,27.343,2.187,59.06,29.53,70A52.607,52.607,0,0,0,290.713,108.277Z" transform="translate(14.431)" fill="#f6f6f6" fill-rule="evenodd"/>
        <path id="Path_772" data-name="Path 772" d="M312.587,273.715l16.406,8.75c-3.281,7.656-6.562,15.312-9.843,21.874l-17.5-4.375a84.1,84.1,0,0,1-19.687,19.687l4.375,18.593c-6.562,2.187-14.218,5.469-21.874,8.75l-9.843-16.406c-8.75,2.187-17.5,2.187-26.249,1.094l-9.843,15.312c-7.656-3.281-15.312-5.469-22.968-8.75l5.469-18.593c-7.656-4.375-14.218-10.937-19.687-18.593l-18.593,4.375A130.356,130.356,0,0,0,154,283.558l15.312-9.843a114.339,114.339,0,0,1,0-27.343L154,236.529c3.281-7.656,5.469-14.218,8.75-21.874l18.593,4.375c4.375-7.656,10.937-14.218,18.593-19.687l-4.375-17.5c7.656-3.281,15.312-6.562,21.874-9.843l9.843,16.406a57.785,57.785,0,0,1,27.343,0L264.464,172c7.656,3.281,14.218,6.562,21.874,9.843l-4.375,17.5a84.1,84.1,0,0,1,19.687,19.687l17.5-4.375c3.281,6.562,6.562,14.218,9.843,21.874l-16.406,9.843C314.775,255.122,314.775,263.871,312.587,273.715Zm-21.874,6.562a52.607,52.607,0,0,0-28.436-70c-28.436-12.031-59.06,1.094-71.091,29.53-10.937,27.343,2.187,57.966,29.53,70C248.059,320.744,279.776,307.619,290.713,280.277Z" transform="translate(14.431 16.117)" fill="#f6f6f6" fill-rule="evenodd"/>
      </g>
    </g>
    <g id="Group_419" data-name="Group 419" transform="translate(714.339 447.348)">
      <rect id="Rectangle_674" data-name="Rectangle 674" width="48.843" height="19.442" rx="8.84" transform="translate(76.024 193.543)" fill="#dcdcdc"/>
      <rect id="Rectangle_675" data-name="Rectangle 675" width="48.843" height="19.442" rx="8.84" transform="translate(124.867 193.543)" fill="#b4b4b4"/>
      <rect id="Rectangle_677" data-name="Rectangle 677" width="48.843" height="19.442" rx="8.84" transform="translate(173.71 193.543)" fill="#dcdcdc"/>
      <rect id="Rectangle_678" data-name="Rectangle 678" width="48.843" height="19.442" rx="8.84" transform="translate(222.553 193.543)" fill="#b4b4b4"/>
      <rect id="Rectangle_680" data-name="Rectangle 680" width="48.843" height="19.442" rx="8.84" transform="translate(271.396 193.543)" fill="#dcdcdc"/>
      <rect id="Rectangle_681" data-name="Rectangle 681" width="48.843" height="19.442" rx="8.84" transform="translate(320.238 193.543)" fill="#b4b4b4"/>
      <rect id="Rectangle_683" data-name="Rectangle 683" width="48.843" height="19.442" rx="8.84" transform="translate(369.081 193.543) rotate(180)" fill="#dcdcdc"/>
      <rect id="Rectangle_684" data-name="Rectangle 684" width="48.843" height="19.442" rx="8.84" transform="translate(320.238 193.543) rotate(180)" fill="#b4b4b4"/>
      <rect id="Rectangle_686" data-name="Rectangle 686" width="48.843" height="19.442" rx="8.84" transform="translate(271.396 193.543) rotate(180)" fill="#dcdcdc"/>
      <rect id="Rectangle_687" data-name="Rectangle 687" width="48.843" height="19.442" rx="8.84" transform="translate(222.553 193.543) rotate(180)" fill="#b4b4b4"/>
      <rect id="Rectangle_689" data-name="Rectangle 689" width="48.843" height="19.442" rx="8.84" transform="translate(173.71 193.543) rotate(180)" fill="#dcdcdc"/>
      <rect id="Rectangle_690" data-name="Rectangle 690" width="48.843" height="19.442" rx="8.84" transform="translate(124.867 193.543) rotate(180)" fill="#b4b4b4"/>
      <rect id="Rectangle_692" data-name="Rectangle 692" width="48.843" height="19.442" rx="8.84" transform="translate(76.024 154.659)" fill="#dcdcdc"/>
      <rect id="Rectangle_693" data-name="Rectangle 693" width="48.843" height="19.442" rx="8.84" transform="translate(124.867 154.659)" fill="#b4b4b4"/>
      <rect id="Rectangle_695" data-name="Rectangle 695" width="48.843" height="19.442" rx="8.84" transform="translate(173.71 154.659)" fill="#dcdcdc"/>
      <rect id="Rectangle_696" data-name="Rectangle 696" width="48.843" height="19.442" rx="8.84" transform="translate(222.553 154.659)" fill="#b4b4b4"/>
      <rect id="Rectangle_698" data-name="Rectangle 698" width="48.843" height="19.442" rx="8.84" transform="translate(271.396 154.659)" fill="#dcdcdc"/>
      <rect id="Rectangle_699" data-name="Rectangle 699" width="48.843" height="19.442" rx="8.84" transform="translate(320.238 154.659)" fill="#b4b4b4"/>
      <rect id="Rectangle_701" data-name="Rectangle 701" width="48.843" height="19.442" rx="8.84" transform="translate(369.081 154.659) rotate(180)" fill="#dcdcdc"/>
      <rect id="Rectangle_702" data-name="Rectangle 702" width="48.843" height="19.442" rx="8.84" transform="translate(320.238 154.659) rotate(180)" fill="#b4b4b4"/>
      <rect id="Rectangle_704" data-name="Rectangle 704" width="48.843" height="19.442" rx="8.84" transform="translate(271.396 154.659) rotate(180)" fill="#dcdcdc"/>
      <rect id="Rectangle_705" data-name="Rectangle 705" width="48.843" height="19.442" rx="8.84" transform="translate(222.553 154.659) rotate(180)" fill="#b4b4b4"/>
      <rect id="Rectangle_707" data-name="Rectangle 707" width="48.843" height="19.442" rx="8.84" transform="translate(173.71 154.659) rotate(180)" fill="#dcdcdc"/>
      <rect id="Rectangle_708" data-name="Rectangle 708" width="48.843" height="19.442" rx="8.84" transform="translate(124.867 154.659) rotate(180)" fill="#b4b4b4"/>
      <rect id="Rectangle_710" data-name="Rectangle 710" width="48.843" height="19.442" rx="8.84" transform="translate(76.024 116.722)" fill="#dcdcdc"/>
      <rect id="Rectangle_711" data-name="Rectangle 711" width="48.843" height="19.442" rx="8.84" transform="translate(124.867 116.722)" fill="#b4b4b4"/>
      <rect id="Rectangle_713" data-name="Rectangle 713" width="48.843" height="19.442" rx="8.84" transform="translate(173.71 116.722)" fill="#dcdcdc"/>
      <rect id="Rectangle_714" data-name="Rectangle 714" width="48.843" height="19.442" rx="8.84" transform="translate(222.553 116.722)" fill="#b4b4b4"/>
      <rect id="Rectangle_716" data-name="Rectangle 716" width="48.843" height="19.442" rx="8.84" transform="translate(271.396 116.722)" fill="#dcdcdc"/>
      <rect id="Rectangle_717" data-name="Rectangle 717" width="48.843" height="19.442" rx="8.84" transform="translate(320.238 116.722)" fill="#b4b4b4"/>
      <rect id="Rectangle_719" data-name="Rectangle 719" width="48.843" height="19.442" rx="8.84" transform="translate(369.081 116.722) rotate(180)" fill="#dcdcdc"/>
      <rect id="Rectangle_720" data-name="Rectangle 720" width="48.843" height="19.442" rx="8.84" transform="translate(320.238 116.722) rotate(180)" fill="#b4b4b4"/>
      <rect id="Rectangle_722" data-name="Rectangle 722" width="48.843" height="19.442" rx="8.84" transform="translate(271.396 116.722) rotate(180)" fill="#dcdcdc"/>
      <rect id="Rectangle_723" data-name="Rectangle 723" width="48.843" height="19.442" rx="8.84" transform="translate(222.553 116.722) rotate(180)" fill="#b4b4b4"/>
      <rect id="Rectangle_725" data-name="Rectangle 725" width="48.843" height="19.442" rx="8.84" transform="translate(173.71 116.722) rotate(180)" fill="#dcdcdc"/>
      <rect id="Rectangle_726" data-name="Rectangle 726" width="48.843" height="19.442" rx="8.84" transform="translate(124.867 116.722) rotate(180)" fill="#b4b4b4"/>
      <rect id="Rectangle_728" data-name="Rectangle 728" width="48.843" height="19.442" rx="8.84" transform="translate(76.024 77.838)" fill="#dcdcdc"/>
      <rect id="Rectangle_729" data-name="Rectangle 729" width="48.843" height="19.442" rx="8.84" transform="translate(124.867 77.838)" fill="#b4b4b4"/>
      <rect id="Rectangle_731" data-name="Rectangle 731" width="48.843" height="19.442" rx="8.84" transform="translate(173.71 77.838)" fill="#dcdcdc"/>
      <rect id="Rectangle_732" data-name="Rectangle 732" width="48.843" height="19.442" rx="8.84" transform="translate(222.553 77.838)" fill="#b4b4b4"/>
      <rect id="Rectangle_734" data-name="Rectangle 734" width="48.843" height="19.442" rx="8.84" transform="translate(271.396 77.838)" fill="#dcdcdc"/>
      <rect id="Rectangle_735" data-name="Rectangle 735" width="48.843" height="19.442" rx="8.84" transform="translate(320.238 77.838)" fill="#b4b4b4"/>
      <rect id="Rectangle_737" data-name="Rectangle 737" width="52.636" height="20.95" rx="8.84" transform="translate(316.445 13.067)" fill="#dcdcdc"/>
      <rect id="Rectangle_739" data-name="Rectangle 739" width="48.843" height="19.442" rx="8.84" transform="translate(320.238 77.838) rotate(180)" fill="#b4b4b4"/>
      <rect id="Rectangle_741" data-name="Rectangle 741" width="48.843" height="19.442" rx="8.84" transform="translate(271.396 77.838) rotate(180)" fill="#dcdcdc"/>
      <rect id="Rectangle_742" data-name="Rectangle 742" width="48.843" height="19.442" rx="8.84" transform="translate(222.553 77.838) rotate(180)" fill="#b4b4b4"/>
      <rect id="Rectangle_744" data-name="Rectangle 744" width="48.843" height="19.442" rx="8.84" transform="translate(173.71 77.838) rotate(180)" fill="#dcdcdc"/>
      <rect id="Rectangle_745" data-name="Rectangle 745" width="48.843" height="19.442" rx="8.84" transform="translate(124.867 77.838) rotate(180)" fill="#b4b4b4"/>
      <path id="Path_789" data-name="Path 789" d="M878.456,138.771a7.758,7.758,0,0,0-2.186-3.03c-7.089-6.459-18.551-4.5-27.352-8.45-2.03-.91-4.107-2.172-6.307-1.826-3.073.474-5.932,3.983-8.611,2.428l.19.583-.19-.1,1.973,6a21.91,21.91,0,0,0,3.025,6.6,17.27,17.27,0,0,0,4.178,28.727c.095.2.185.4.275.607l.251.1A20.164,20.164,0,0,1,845,174.6c-2.281.318-6.26,2.845-10.167,6.563l-7.815-.261a25.579,25.579,0,0,1-14.055-4.78l-23.407-16.81a7.829,7.829,0,0,0-4.481,1.982c-2.9-3.025-5.368-6.165-5.159-8.061,0,0-10.878-20.357-14.833-10.181s7.417,20.865,7.417,20.865l7.213,9.347a39.325,39.325,0,0,0-.541,4.955c8.9,10.181,40.046,19.39,40.046,19.39l4.856.237.028.237a16.535,16.535,0,0,0-.436,3.888q0,.285,0,.583v.389c.247,16.237,2.471,65.914,2.471,65.914.432-.194.882-.37,1.337-.536l-.346,4.415s-20.765,2.907-36.092,8.725-15.819,12.6-15.819,12.6v59.873c-4.377,2.248-11.286,5.216-14.833,3.618-3.85-1.717-5.961-.275-6.345,1.228h0a1.9,1.9,0,0,0,0,.906h0a1.622,1.622,0,0,0,.147.384v.028a1.542,1.542,0,0,0,.261.341c1.484,1.456,33.621,14.055,41.037,12.116a5.117,5.117,0,0,0,.673-.228c.071-.028.133-.066.2-.1s.275-.128.4-.2.147-.1.218-.147.223-.147.327-.228a2.188,2.188,0,0,0,.2-.185c.066-.062.194-.166.28-.261s.123-.142.185-.213.171-.19.247-.294.1-.157.161-.232.152-.218.218-.332.09-.161.133-.247.133-.242.194-.37a2.7,2.7,0,0,0,.109-.251c.033-.085.119-.27.171-.408s.057-.166.09-.251a4.6,4.6,0,0,0,.147-.474.922.922,0,0,1,.066-.242c.043-.166.09-.327.128-.474a1.3,1.3,0,0,1,.047-.228c.038-.18.076-.36.1-.541a.44.44,0,0,1,.033-.2c.033-.194.062-.394.085-.588v-.171c.024-.213.047-.427.066-.64v-.133q.028-.346.043-.692v-.882a40.585,40.585,0,0,0-.948-8.6h0l1.864-50.991a278.143,278.143,0,0,0,29.1-1.072l1.062,24.336s0,15.995,5.439,23.264c4.657,6.222,10.034,33.74,11.485,41.55-2,3.794-5.818,8.536-12.476,8.374,0,0-12.524-1.081-11.817,2.371h0a1.761,1.761,0,0,0,.081.266h0a2.439,2.439,0,0,0,.137.289h0c.052.09.109.18.175.275l.038.057q.107.149.242.313v.024c.085.1.175.2.275.3l.085.085c.114.114.228.228.36.346,6.425,5.818,44,6.786,44,6.786v-.27h0c0-1.683-.247-10.513-2.494-17.161h.522s-5.439-48.957-9.887-54.77c0,0-1.181-25.816,1.484-41.991l.474-.18c12.462-4.657,13.349-16.123,12.064-24.545,2.371.759,3.756,1.276,3.756,1.276s-.043-.365-.123-1.015l.123.047s-.237-1.541-.631-3.941c-.891-6.606-2.618-18.148-4.458-23.6-.3-1.2-.583-2.224-.844-3a51.24,51.24,0,0,1-2.177-10.067,119.325,119.325,0,0,1-.764-13.354,128.175,128.175,0,0,1,1.366-17.811,108.965,108.965,0,0,0,1.375-15.1,20.137,20.137,0,0,0-.3-4.268c-.659-3.021-3.576-4.984-6.606-6.236-.194-.081-.394-.147-.593-.223.076-1.143.171-2.442.294-3.794a3.258,3.258,0,0,0,2.518.512,6.011,6.011,0,0,0,3.068-2.371c4.382-5.382,8.882-10.992,10.565-17.678a38.2,38.2,0,0,0,.948-9.1v-.5A9.9,9.9,0,0,0,878.456,138.771Z" transform="translate(-434.303 -125.42)" fill="url(#linear-gradient)"/>
      <path id="Path_790" data-name="Path 790" d="M932.34,200.947s6.639,9.958,5.216,14.7,15.649,1.9,15.649,1.9.474-18.494,3.794-22.762S932.34,200.947,932.34,200.947Z" transform="translate(-528.082 -161.359)" fill="#f7c4a7"/>
      <path id="Path_791" data-name="Path 791" d="M808.455,190.935s-13.752-11.381-13.278-15.649c0,0-10.432-19.917-14.226-9.958s7.113,20.391,7.113,20.391l13.278,17.545Z" transform="translate(-448.061 -144.945)" fill="#f7c4a7"/>
      <path id="Path_792" data-name="Path 792" d="M783.543,598.92s-12.8,8.061-18.02,5.69-7.113,1.423-5.69,2.845,32.246,13.752,39.359,11.855,3.495-17.432,3.495-17.432Z" transform="translate(-437.138 -374.392)" fill="#141414"/>
      <path id="Path_793" data-name="Path 793" d="M925.493,669.817s-3.082,13.041-13.752,12.8c0,0-16.123-1.423-9.958,4.268s42.2,6.639,42.2,6.639,0-19.442-6.639-23.71S925.493,669.817,925.493,669.817Z" transform="translate(-511.277 -410.672)" fill="#141414"/>
      <path id="Path_794" data-name="Path 794" d="M912.34,470.559l1.423,33.194s0,15.649,5.216,22.762,11.381,42.678,11.381,42.678h18.02s-5.216-47.894-9.484-53.585c0,0-1.9-42.2,4.742-51.688Z" transform="translate(-517.567 -303.41)" fill="#505050"/>
      <path id="Path_796" data-name="Path 796" d="M891.964,412.291s10.907,26.081-9.01,33.668S827,452.6,827,452.6l-1.9,55.008s-22.288,2.845-22.762-4.268V443.114s.474-6.639,15.174-12.329,34.617-8.536,34.617-8.536l.948-12.329Z" transform="translate(-459.729 -275.017)" fill="#505050"/>
      <path id="Path_797" data-name="Path 797" d="M926.021,233.577a22.691,22.691,0,0,1,11.144,1.574c2.907,1.223,5.69,3.144,6.335,6.1.749,3.5-.081,11.348-1.034,17.991a123.9,123.9,0,0,0-.578,31.435c.474,4.358,1.162,8.156,2.086,9.849,2.845,5.216,5.69,29.875,5.69,29.875s-31.3-11.855-46.946-4.742c0,0-2.134-48.606-2.371-64.492-.185-12.3,15.411-26.318,20.628-26.792C924.03,234.1,922.982,233.895,926.021,233.577Z" transform="translate(-511.26 -182.224)" opacity="0.1"/>
      <path id="Path_798" data-name="Path 798" d="M926.021,231.577a22.691,22.691,0,0,1,11.144,1.574c2.907,1.223,5.69,3.144,6.335,6.1.749,3.5-.081,11.348-1.034,17.991a123.9,123.9,0,0,0-.578,31.435,50.988,50.988,0,0,0,2.086,9.849c2.134,6.4,5.69,29.875,5.69,29.875s-31.3-11.855-46.946-4.742c0,0-2.134-48.606-2.371-64.492-.185-12.3,15.411-26.318,20.628-26.792C924.03,232.1,922.982,231.895,926.021,231.577Z" transform="translate(-511.26 -181.172)" fill="#be643c"/>
      <path id="Path_799" data-name="Path 799" d="M934.486,266.7l-33.668-1.9s-2.143-16.507,2.717-16.336l33.322,1.162S943.97,258.166,934.486,266.7Z" transform="translate(-511.261 -190.125)" opacity="0.1"/>
      <path id="Path_800" data-name="Path 800" d="M887.161,241.279l-38.41-1.9s-29.875-9.01-38.41-18.968c0,0,.474-17.546,9.958-18.494l22.435,16.45a24.222,24.222,0,0,0,13.477,4.676l33.322,1.162S896.645,232.743,887.161,241.279Z" transform="translate(-463.935 -165.651)" fill="#be643c"/>
      <path id="Path_801" data-name="Path 801" d="M952.968,203.607c.564-4.5,2.6-5.989,4.031-7.824,3.319-4.268-24.659,6.165-24.659,6.165a50.3,50.3,0,0,1,3.794,6.976,17,17,0,0,0,7.113,1.56C947.353,210.483,950.018,206.04,952.968,203.607Z" transform="translate(-528.082 -161.885)" opacity="0.1"/>
      <circle id="Ellipse_157" data-name="Ellipse 157" cx="17.071" cy="17.071" r="17.071" transform="translate(398.093 13.982)" fill="#f7c4a7"/>
      <path id="Path_802" data-name="Path 802" d="M926.605,148.5c-1.816-1.987-2.693-4.633-3.519-7.2l-1.9-5.875c2.57,1.517,5.311-1.9,8.261-2.371,2.11-.337,4.107.9,6.051,1.783,8.441,3.86,19.442,1.944,26.233,8.265a7.588,7.588,0,0,1,2.1,2.964,9.914,9.914,0,0,1,.379,3.319,38.087,38.087,0,0,1-.887,8.906c-1.612,6.539-5.927,12.031-10.134,17.294a5.727,5.727,0,0,1-2.945,2.343c-2.442.545-4.329-2.091-5.273-4.405a46.9,46.9,0,0,1-2.75-9.517,12.506,12.506,0,0,0-1.129-4.021c-1.47-2.6-5.093-5.069-7.293-7.089S928.625,150.707,926.605,148.5Z" transform="translate(-522.22 -129.413)" opacity="0.1"/>
      <path id="Path_803" data-name="Path 803" d="M926.605,147.5c-1.816-1.987-2.693-4.633-3.519-7.2l-1.9-5.875c2.57,1.517,5.311-1.9,8.261-2.371,2.11-.337,4.107.9,6.051,1.783,8.441,3.86,19.442,1.944,26.233,8.265a7.588,7.588,0,0,1,2.1,2.964,9.914,9.914,0,0,1,.379,3.319,38.087,38.087,0,0,1-.887,8.906c-1.612,6.539-5.927,12.031-10.134,17.294a5.726,5.726,0,0,1-2.945,2.343c-2.442.545-4.329-2.091-5.273-4.405a46.9,46.9,0,0,1-2.75-9.517,12.506,12.506,0,0,0-1.129-4.021c-1.47-2.6-5.093-5.069-7.293-7.089S928.625,149.707,926.605,147.5Z" transform="translate(-522.22 -128.887)" fill="#141414"/>
      <ellipse id="Ellipse_158" data-name="Ellipse 158" cx="1.423" cy="3.082" rx="1.423" ry="3.082" transform="translate(418.247 29.868)" fill="#f7c4a7"/>
      <path id="Path_804" data-name="Path 804" d="M956.024,368.42s-.948,2.845-5.69,2.371-18.494-1.423-18.494,0" transform="translate(-527.82 -253.196)" opacity="0.1"/>
      <path id="Path_805" data-name="Path 805" d="M901.785,704.727a3.942,3.942,0,0,1-1.38-1.977c-.123.616.256,1.423,1.38,2.452,6.165,5.69,42.2,6.639,42.2,6.639v-.474C943.757,711.362,907.931,710.4,901.785,704.727Z" transform="translate(-511.28 -428.986)" fill="#fff" opacity="0.5"/>
      <path id="Path_806" data-name="Path 806" d="M799.188,626.007c-7.113,1.9-37.936-10.432-39.359-11.855a1.542,1.542,0,0,1-.394-.692,1.707,1.707,0,0,0,.394,1.641c1.423,1.423,32.246,13.752,39.359,11.855,3.661-.977,4.476-5.562,4.41-9.788C803.527,621.1,802.574,625.1,799.188,626.007Z" transform="translate(-437.134 -382.037)" fill="#fff" opacity="0.5"/>
      <path id="Path_807" data-name="Path 807" d="M581.141,627.583a.711.711,0,1,0-.711-.711A.711.711,0,0,0,581.141,627.583Z" transform="translate(-343.049 -388.715)" fill="#67647e"/>
      <rect id="Rectangle_747" data-name="Rectangle 747" width="48.843" height="19.442" rx="8.84" transform="translate(493.322 271.787) rotate(180)" fill="#b4b4b4"/>
      <rect id="Rectangle_749" data-name="Rectangle 749" width="48.843" height="19.442" rx="8.84" transform="translate(444.479 233.85)" fill="#dcdcdc"/>
      <rect id="Rectangle_750" data-name="Rectangle 750" width="48.843" height="19.442" rx="8.84" transform="translate(493.322 233.85) rotate(180)" fill="#b4b4b4"/>
      <rect id="Rectangle_752" data-name="Rectangle 752" width="48.843" height="19.442" rx="8.84" transform="translate(444.479 194.966)" fill="#dcdcdc"/>
    </g>
    <g id="Group_420" data-name="Group 420" transform="translate(649.996 -23.031)">
      <path id="Path_817" data-name="Path 817" d="M342.108,426.173s-12.551-5.469-18.446.308S339.445,430.357,342.108,426.173Z" transform="translate(-280.403 -154.78)" fill="#3f3d56"/>
      <path id="Path_818" data-name="Path 818" d="M314.577,361.036c4.218-7.127,12.562-7.459,12.562-7.459s8.131-1.04,13.348,9.814c4.862,10.117,11.572,19.885,1.08,22.254l-1.9-5.9-1.174,6.338a41.048,41.048,0,0,1-4.489.077c-11.236-.363-21.936.106-21.592-3.926C312.876,376.876,310.519,367.894,314.577,361.036Z" transform="translate(-274.545 -115.58)" fill="#141414"/>
      <path id="Path_819" data-name="Path 819" d="M292.785,662.62s5.325,9.889,8.748,9.889,3.043,6.466,2.282,7.987-2.662,4.944.38,9.889a6.067,6.067,0,0,1,.175,5.5c-1.954,5.095-9.555,3.551-9.313-1.9q0-.09.01-.181c.38-6.085-2.662-15.594-5.705-17.876s-5.705-8.367-5.705-8.367Z" transform="translate(-258.654 -287.966)" fill="#ffb8b8"/>
      <path id="Path_820" data-name="Path 820" d="M371.525,657.46s-5.325,9.889-8.748,9.889-3.043,6.466-2.282,7.987,2.662,4.944-.38,9.889a6.067,6.067,0,0,0-.175,5.5c1.954,5.095,9.555,3.551,9.313-1.9q0-.09-.01-.181c-.38-6.085,2.662-15.594,5.705-17.876s5.705-8.367,5.705-8.367Z" transform="translate(-300.882 -285.088)" fill="#ffb8b8"/>
      <path id="Path_821" data-name="Path 821" d="M293.58,542.1l2.282,4.944s33.469,11.03,30.427,23.961-17.876,33.089-20.158,32.328-14.453-3.043-14.833-9.508,8.748-17.876,8.748-17.876l-12.551-11.41-18.264-.38-15.586,11.79S270,590.4,262.773,596.109s-17.876,9.508-19.4,7.226S224.739,567.2,227.4,564.161s29.666-14.452,29.666-14.452l7.226-10.269,28.145-1.521Z" transform="translate(-227.121 -218.413)" fill="#505050"/>
      <path id="Path_822" data-name="Path 822" d="M341.292,401.852s-1.9,12.551,1.9,14.072-7.607,7.987-7.607,7.987h-6.466l-4.184-8.748s3.8-6.846,1.521-13.312S341.292,401.852,341.292,401.852Z" transform="translate(-281.679 -140.918)" fill="#ffb8b8"/>
      <path id="Path_823" data-name="Path 823" d="M341.292,401.852s-1.9,12.551,1.9,14.072-7.607,7.987-7.607,7.987h-6.466l-4.184-8.748s3.8-6.846,1.521-13.312S341.292,401.852,341.292,401.852Z" transform="translate(-281.679 -140.918)" opacity="0.1"/>
      <path id="Path_824" data-name="Path 824" d="M337.239,429.557s-4.184,4.564-4.944,5.325-4.184,4.944-11.41-1.141-7.987,1.141-7.987,1.141v45.64s6.085-2.662,11.03,0,15.213-.761,15.213-.761l1.9-47.162Z" transform="translate(-274.964 -157.973)" fill="#d0cde1"/>
      <path id="Path_825" data-name="Path 825" d="M355.461,428.7s3.554-1.521,6.6,0,13.692,9.128,12.931,12.551-10.649,27.384-3.8,38.794,7.987,14.453,7.987,14.453l-16.735-8.748s-12.931-7.987-11.79-12.931S355.461,428.7,355.461,428.7Z" transform="translate(-295.98 -157.12)" fill="#be643c"/>
      <path id="Path_826" data-name="Path 826" d="M298.516,429.557s-7.983.761-8.363,1.521-11.981,3.993-11.22,7.417,11.22,34.04,6.656,39.745-12.171,13.692-9.508,14.453,7.226-1.141,11.79,0,15.213-8.367,14.072-18.636S301.935,432.219,298.516,429.557Z" transform="translate(-254.122 -157.973)" fill="#be643c"/>
      <path id="Path_827" data-name="Path 827" d="M360.883,591.421v3.8s1.9,8.748-4.184,8.367-2.282-10.649-2.282-10.649l.38-3.423Z" transform="translate(-297.467 -247.193)" fill="#ffb8b8"/>
      <path id="Path_828" data-name="Path 828" d="M322.7,594.679s4.184,8.748,0,9.508-7.226-4.944-7.226-6.466S322.7,594.679,322.7,594.679Z" transform="translate(-276.403 -250.071)" fill="#ffb8b8"/>
      <ellipse id="Ellipse_159" data-name="Ellipse 159" cx="0.761" cy="1.521" rx="0.761" ry="1.521" transform="translate(40.026 254.278)" fill="#ffb8b8"/>
      <ellipse id="Ellipse_160" data-name="Ellipse 160" cx="0.761" cy="1.521" rx="0.761" ry="1.521" transform="translate(62.465 254.278)" fill="#ffb8b8"/>
      <path id="Path_829" data-name="Path 829" d="M292.771,440.737s-9.508,0-9.128,3.8,12.931,69.221,12.931,69.221,5.325-4.944,9.889-3.8Z" transform="translate(-258.64 -164.209)" fill="#be643c"/>
      <path id="Path_830" data-name="Path 830" d="M368.531,443.317s9.508,1.9,9.508,7.607S364.347,511.4,362.446,511.4s-9.128-1.141-9.128-3.043S368.531,443.317,368.531,443.317Z" transform="translate(-297.508 -165.648)" fill="#be643c"/>
      <path id="Path_831" data-name="Path 831" d="M372.2,468.687l-8.558,33.466S367.631,472.871,372.2,468.687Z" transform="translate(-303.264 -179.798)" opacity="0.2"/>
      <path id="Path_832" data-name="Path 832" d="M307.723,458.054l8.655,43.755S313.611,460.578,307.723,458.054Z" transform="translate(-272.078 -173.868)" opacity="0.2"/>
      <circle id="Ellipse_161" data-name="Ellipse 161" cx="11.03" cy="11.03" r="11.03" transform="translate(40.977 244.96)" fill="#ffb8b8"/>
      <path id="Path_833" data-name="Path 833" d="M94.243,247.9l8.244-4.318,11.385,1.766,2.355,10.4-5.863-.225-1.638-3.822v3.759l-2.706-.1-1.57-6.085-.981,6.478-9.618-.2Z" transform="translate(-52.346 -3.129)" fill="#141414"/>
    </g>
    <path id="Icon_awesome-code" data-name="Icon awesome-code" d="M26.446,48.5l-5.784-1.678a1.14,1.14,0,0,1-.778-1.413L32.827.824A1.14,1.14,0,0,1,34.24.046l5.784,1.678A1.14,1.14,0,0,1,40.8,3.138L27.859,47.722a1.136,1.136,0,0,1-1.413.778ZM15.636,37.861l4.125-4.4a1.138,1.138,0,0,0-.076-1.631l-8.591-7.557,8.591-7.557a1.13,1.13,0,0,0,.076-1.631l-4.125-4.4a1.139,1.139,0,0,0-1.612-.047L.361,23.439a1.13,1.13,0,0,0,0,1.659l13.664,12.81a1.131,1.131,0,0,0,1.612-.047Zm31.025.057,13.664-12.81a1.13,1.13,0,0,0,0-1.659L46.661,10.628a1.148,1.148,0,0,0-1.612.047l-4.125,4.4A1.138,1.138,0,0,0,41,16.706l8.591,7.567L41,31.83a1.13,1.13,0,0,0-.076,1.631l4.125,4.4a1.139,1.139,0,0,0,1.612.057Z" transform="translate(917.034 365.396) rotate(173)" fill="#be643c"/>
    <path id="Icon_awesome-database" data-name="Icon awesome-database" d="M53.235,8.691v5.432c0,4.787-11.922,8.691-26.618,8.691S0,18.911,0,14.124V8.691C0,3.9,11.922,0,26.618,0S53.235,3.9,53.235,8.691Zm0,12.222V33.136c0,4.787-11.922,8.691-26.618,8.691S0,37.923,0,33.136V20.914c5.719,3.938,16.185,5.772,26.618,5.772S47.516,24.852,53.235,20.914Zm0,19.012V52.149c0,4.787-11.922,8.691-26.618,8.691S0,56.936,0,52.149V39.926C5.719,43.865,16.185,45.7,26.618,45.7S47.516,43.865,53.235,39.926Z" transform="translate(759.004 490.91) rotate(173)" fill="#be643c"/>
  </g>
</svg>
