<svg xmlns="http://www.w3.org/2000/svg" xmlns:xlink="http://www.w3.org/1999/xlink" width="153" height="270" viewBox="0 0 153 270">
  <defs>
    <clipPath id="clip-path">
      <rect width="79" height="171" fill="none"/>
    </clipPath>
  </defs>
  <g id="Group_267" data-name="Group 267" transform="translate(68 -152)">
    <g id="Group_266" data-name="Group 266">
      <g id="Repeat_Grid_3" data-name="Repeat Grid 3" transform="translate(6 152)" clip-path="url(#clip-path)">
        <g transform="translate(-22 -135)">
          <circle id="Ellipse_16" data-name="Ellipse 16" cx="2.5" cy="2.5" r="2.5" transform="translate(22 135)" fill="#ededed"/>
        </g>
        <g transform="translate(-8 -135)">
          <circle id="Ellipse_16-2" data-name="Ellipse 16" cx="2.5" cy="2.5" r="2.5" transform="translate(22 135)" fill="#ededed"/>
        </g>
        <g transform="translate(6 -135)">
          <circle id="Ellipse_16-3" data-name="Ellipse 16" cx="2.5" cy="2.5" r="2.5" transform="translate(22 135)" fill="#ededed"/>
        </g>
        <g transform="translate(20 -135)">
          <circle id="Ellipse_16-4" data-name="Ellipse 16" cx="2.5" cy="2.5" r="2.5" transform="translate(22 135)" fill="#ededed"/>
        </g>
        <g transform="translate(34 -135)">
          <circle id="Ellipse_16-5" data-name="Ellipse 16" cx="2.5" cy="2.5" r="2.5" transform="translate(22 135)" fill="#ededed"/>
        </g>
        <g transform="translate(48 -135)">
          <circle id="Ellipse_16-6" data-name="Ellipse 16" cx="2.5" cy="2.5" r="2.5" transform="translate(22 135)" fill="#ededed"/>
        </g>
        <g transform="translate(-22 -119)">
          <circle id="Ellipse_16-7" data-name="Ellipse 16" cx="2.5" cy="2.5" r="2.5" transform="translate(22 135)" fill="#ededed"/>
        </g>
        <g transform="translate(-8 -119)">
          <circle id="Ellipse_16-8" data-name="Ellipse 16" cx="2.5" cy="2.5" r="2.5" transform="translate(22 135)" fill="#ededed"/>
        </g>
        <g transform="translate(6 -119)">
          <circle id="Ellipse_16-9" data-name="Ellipse 16" cx="2.5" cy="2.5" r="2.5" transform="translate(22 135)" fill="#ededed"/>
        </g>
        <g transform="translate(20 -119)">
          <circle id="Ellipse_16-10" data-name="Ellipse 16" cx="2.5" cy="2.5" r="2.5" transform="translate(22 135)" fill="#ededed"/>
        </g>
        <g transform="translate(34 -119)">
          <circle id="Ellipse_16-11" data-name="Ellipse 16" cx="2.5" cy="2.5" r="2.5" transform="translate(22 135)" fill="#ededed"/>
        </g>
        <g transform="translate(48 -119)">
          <circle id="Ellipse_16-12" data-name="Ellipse 16" cx="2.5" cy="2.5" r="2.5" transform="translate(22 135)" fill="#ededed"/>
        </g>
        <g transform="translate(-22 -103)">
          <circle id="Ellipse_16-13" data-name="Ellipse 16" cx="2.5" cy="2.5" r="2.5" transform="translate(22 135)" fill="#ededed"/>
        </g>
        <g transform="translate(-8 -103)">
          <circle id="Ellipse_16-14" data-name="Ellipse 16" cx="2.5" cy="2.5" r="2.5" transform="translate(22 135)" fill="#ededed"/>
        </g>
        <g transform="translate(6 -103)">
          <circle id="Ellipse_16-15" data-name="Ellipse 16" cx="2.5" cy="2.5" r="2.5" transform="translate(22 135)" fill="#ededed"/>
        </g>
        <g transform="translate(20 -103)">
          <circle id="Ellipse_16-16" data-name="Ellipse 16" cx="2.5" cy="2.5" r="2.5" transform="translate(22 135)" fill="#ededed"/>
        </g>
        <g transform="translate(34 -103)">
          <circle id="Ellipse_16-17" data-name="Ellipse 16" cx="2.5" cy="2.5" r="2.5" transform="translate(22 135)" fill="#ededed"/>
        </g>
        <g transform="translate(48 -103)">
          <circle id="Ellipse_16-18" data-name="Ellipse 16" cx="2.5" cy="2.5" r="2.5" transform="translate(22 135)" fill="#ededed"/>
        </g>
        <g transform="translate(-22 -87)">
          <circle id="Ellipse_16-19" data-name="Ellipse 16" cx="2.5" cy="2.5" r="2.5" transform="translate(22 135)" fill="#ededed"/>
        </g>
        <g transform="translate(-8 -87)">
          <circle id="Ellipse_16-20" data-name="Ellipse 16" cx="2.5" cy="2.5" r="2.5" transform="translate(22 135)" fill="#ededed"/>
        </g>
        <g transform="translate(6 -87)">
          <circle id="Ellipse_16-21" data-name="Ellipse 16" cx="2.5" cy="2.5" r="2.5" transform="translate(22 135)" fill="#ededed"/>
        </g>
        <g transform="translate(20 -87)">
          <circle id="Ellipse_16-22" data-name="Ellipse 16" cx="2.5" cy="2.5" r="2.5" transform="translate(22 135)" fill="#ededed"/>
        </g>
        <g transform="translate(34 -87)">
          <circle id="Ellipse_16-23" data-name="Ellipse 16" cx="2.5" cy="2.5" r="2.5" transform="translate(22 135)" fill="#ededed"/>
        </g>
        <g transform="translate(48 -87)">
          <circle id="Ellipse_16-24" data-name="Ellipse 16" cx="2.5" cy="2.5" r="2.5" transform="translate(22 135)" fill="#ededed"/>
        </g>
        <g transform="translate(-22 -71)">
          <circle id="Ellipse_16-25" data-name="Ellipse 16" cx="2.5" cy="2.5" r="2.5" transform="translate(22 135)" fill="#ededed"/>
        </g>
        <g transform="translate(-8 -71)">
          <circle id="Ellipse_16-26" data-name="Ellipse 16" cx="2.5" cy="2.5" r="2.5" transform="translate(22 135)" fill="#ededed"/>
        </g>
        <g transform="translate(6 -71)">
          <circle id="Ellipse_16-27" data-name="Ellipse 16" cx="2.5" cy="2.5" r="2.5" transform="translate(22 135)" fill="#ededed"/>
        </g>
        <g transform="translate(20 -71)">
          <circle id="Ellipse_16-28" data-name="Ellipse 16" cx="2.5" cy="2.5" r="2.5" transform="translate(22 135)" fill="#ededed"/>
        </g>
        <g transform="translate(34 -71)">
          <circle id="Ellipse_16-29" data-name="Ellipse 16" cx="2.5" cy="2.5" r="2.5" transform="translate(22 135)" fill="#ededed"/>
        </g>
        <g transform="translate(48 -71)">
          <circle id="Ellipse_16-30" data-name="Ellipse 16" cx="2.5" cy="2.5" r="2.5" transform="translate(22 135)" fill="#ededed"/>
        </g>
        <g transform="translate(-22 -55)">
          <circle id="Ellipse_16-31" data-name="Ellipse 16" cx="2.5" cy="2.5" r="2.5" transform="translate(22 135)" fill="#ededed"/>
        </g>
        <g transform="translate(-8 -55)">
          <circle id="Ellipse_16-32" data-name="Ellipse 16" cx="2.5" cy="2.5" r="2.5" transform="translate(22 135)" fill="#ededed"/>
        </g>
        <g transform="translate(6 -55)">
          <circle id="Ellipse_16-33" data-name="Ellipse 16" cx="2.5" cy="2.5" r="2.5" transform="translate(22 135)" fill="#ededed"/>
        </g>
        <g transform="translate(20 -55)">
          <circle id="Ellipse_16-34" data-name="Ellipse 16" cx="2.5" cy="2.5" r="2.5" transform="translate(22 135)" fill="#ededed"/>
        </g>
        <g transform="translate(34 -55)">
          <circle id="Ellipse_16-35" data-name="Ellipse 16" cx="2.5" cy="2.5" r="2.5" transform="translate(22 135)" fill="#ededed"/>
        </g>
        <g transform="translate(48 -55)">
          <circle id="Ellipse_16-36" data-name="Ellipse 16" cx="2.5" cy="2.5" r="2.5" transform="translate(22 135)" fill="#ededed"/>
        </g>
        <g transform="translate(-22 -39)">
          <circle id="Ellipse_16-37" data-name="Ellipse 16" cx="2.5" cy="2.5" r="2.5" transform="translate(22 135)" fill="#ededed"/>
        </g>
        <g transform="translate(-8 -39)">
          <circle id="Ellipse_16-38" data-name="Ellipse 16" cx="2.5" cy="2.5" r="2.5" transform="translate(22 135)" fill="#ededed"/>
        </g>
        <g transform="translate(6 -39)">
          <circle id="Ellipse_16-39" data-name="Ellipse 16" cx="2.5" cy="2.5" r="2.5" transform="translate(22 135)" fill="#ededed"/>
        </g>
        <g transform="translate(20 -39)">
          <circle id="Ellipse_16-40" data-name="Ellipse 16" cx="2.5" cy="2.5" r="2.5" transform="translate(22 135)" fill="#ededed"/>
        </g>
        <g transform="translate(34 -39)">
          <circle id="Ellipse_16-41" data-name="Ellipse 16" cx="2.5" cy="2.5" r="2.5" transform="translate(22 135)" fill="#ededed"/>
        </g>
        <g transform="translate(48 -39)">
          <circle id="Ellipse_16-42" data-name="Ellipse 16" cx="2.5" cy="2.5" r="2.5" transform="translate(22 135)" fill="#ededed"/>
        </g>
        <g transform="translate(-22 -23)">
          <circle id="Ellipse_16-43" data-name="Ellipse 16" cx="2.5" cy="2.5" r="2.5" transform="translate(22 135)" fill="#ededed"/>
        </g>
        <g transform="translate(-8 -23)">
          <circle id="Ellipse_16-44" data-name="Ellipse 16" cx="2.5" cy="2.5" r="2.5" transform="translate(22 135)" fill="#ededed"/>
        </g>
        <g transform="translate(6 -23)">
          <circle id="Ellipse_16-45" data-name="Ellipse 16" cx="2.5" cy="2.5" r="2.5" transform="translate(22 135)" fill="#ededed"/>
        </g>
        <g transform="translate(20 -23)">
          <circle id="Ellipse_16-46" data-name="Ellipse 16" cx="2.5" cy="2.5" r="2.5" transform="translate(22 135)" fill="#ededed"/>
        </g>
        <g transform="translate(34 -23)">
          <circle id="Ellipse_16-47" data-name="Ellipse 16" cx="2.5" cy="2.5" r="2.5" transform="translate(22 135)" fill="#ededed"/>
        </g>
        <g transform="translate(48 -23)">
          <circle id="Ellipse_16-48" data-name="Ellipse 16" cx="2.5" cy="2.5" r="2.5" transform="translate(22 135)" fill="#ededed"/>
        </g>
        <g transform="translate(-22 -7)">
          <circle id="Ellipse_16-49" data-name="Ellipse 16" cx="2.5" cy="2.5" r="2.5" transform="translate(22 135)" fill="#ededed"/>
        </g>
        <g transform="translate(-8 -7)">
          <circle id="Ellipse_16-50" data-name="Ellipse 16" cx="2.5" cy="2.5" r="2.5" transform="translate(22 135)" fill="#ededed"/>
        </g>
        <g transform="translate(6 -7)">
          <circle id="Ellipse_16-51" data-name="Ellipse 16" cx="2.5" cy="2.5" r="2.5" transform="translate(22 135)" fill="#ededed"/>
        </g>
        <g transform="translate(20 -7)">
          <circle id="Ellipse_16-52" data-name="Ellipse 16" cx="2.5" cy="2.5" r="2.5" transform="translate(22 135)" fill="#ededed"/>
        </g>
        <g transform="translate(34 -7)">
          <circle id="Ellipse_16-53" data-name="Ellipse 16" cx="2.5" cy="2.5" r="2.5" transform="translate(22 135)" fill="#ededed"/>
        </g>
        <g transform="translate(48 -7)">
          <circle id="Ellipse_16-54" data-name="Ellipse 16" cx="2.5" cy="2.5" r="2.5" transform="translate(22 135)" fill="#ededed"/>
        </g>
        <g transform="translate(-22 9)">
          <circle id="Ellipse_16-55" data-name="Ellipse 16" cx="2.5" cy="2.5" r="2.5" transform="translate(22 135)" fill="#ededed"/>
        </g>
        <g transform="translate(-8 9)">
          <circle id="Ellipse_16-56" data-name="Ellipse 16" cx="2.5" cy="2.5" r="2.5" transform="translate(22 135)" fill="#ededed"/>
        </g>
        <g transform="translate(6 9)">
          <circle id="Ellipse_16-57" data-name="Ellipse 16" cx="2.5" cy="2.5" r="2.5" transform="translate(22 135)" fill="#ededed"/>
        </g>
        <g transform="translate(20 9)">
          <circle id="Ellipse_16-58" data-name="Ellipse 16" cx="2.5" cy="2.5" r="2.5" transform="translate(22 135)" fill="#ededed"/>
        </g>
        <g transform="translate(34 9)">
          <circle id="Ellipse_16-59" data-name="Ellipse 16" cx="2.5" cy="2.5" r="2.5" transform="translate(22 135)" fill="#ededed"/>
        </g>
        <g transform="translate(48 9)">
          <circle id="Ellipse_16-60" data-name="Ellipse 16" cx="2.5" cy="2.5" r="2.5" transform="translate(22 135)" fill="#ededed"/>
        </g>
        <g transform="translate(-22 25)">
          <circle id="Ellipse_16-61" data-name="Ellipse 16" cx="2.5" cy="2.5" r="2.5" transform="translate(22 135)" fill="#ededed"/>
        </g>
        <g transform="translate(-8 25)">
          <circle id="Ellipse_16-62" data-name="Ellipse 16" cx="2.5" cy="2.5" r="2.5" transform="translate(22 135)" fill="#ededed"/>
        </g>
        <g transform="translate(6 25)">
          <circle id="Ellipse_16-63" data-name="Ellipse 16" cx="2.5" cy="2.5" r="2.5" transform="translate(22 135)" fill="#ededed"/>
        </g>
        <g transform="translate(20 25)">
          <circle id="Ellipse_16-64" data-name="Ellipse 16" cx="2.5" cy="2.5" r="2.5" transform="translate(22 135)" fill="#ededed"/>
        </g>
        <g transform="translate(34 25)">
          <circle id="Ellipse_16-65" data-name="Ellipse 16" cx="2.5" cy="2.5" r="2.5" transform="translate(22 135)" fill="#ededed"/>
        </g>
        <g transform="translate(48 25)">
          <circle id="Ellipse_16-66" data-name="Ellipse 16" cx="2.5" cy="2.5" r="2.5" transform="translate(22 135)" fill="#ededed"/>
        </g>
      </g>
      <circle id="Ellipse_17" data-name="Ellipse 17" cx="52.5" cy="52.5" r="52.5" transform="translate(-68 317)" fill="#ededed"/>
      <circle id="Ellipse_18" data-name="Ellipse 18" cx="24.5" cy="24.5" r="24.5" transform="translate(11 345)" fill="#fff"/>
      <circle id="Ellipse_20" data-name="Ellipse 20" cx="2.5" cy="2.5" r="2.5" transform="translate(47 355)" fill="#5d23aa"/>
      <circle id="Ellipse_21" data-name="Ellipse 21" cx="2.5" cy="2.5" r="2.5" transform="translate(35 264)" fill="#5d23aa"/>
      <circle id="Ellipse_22" data-name="Ellipse 22" cx="2.5" cy="2.5" r="2.5" transform="translate(62 231)" fill="#5d23aa"/>
      <circle id="Ellipse_23" data-name="Ellipse 23" cx="2.5" cy="2.5" r="2.5" transform="translate(76 248)" fill="#5d23aa"/>
      <circle id="Ellipse_24" data-name="Ellipse 24" cx="9.5" cy="9.5" r="9.5" transform="translate(26 360)" fill="#5d23aa"/>
    </g>
  </g>
</svg>
