<svg xmlns="http://www.w3.org/2000/svg" width="324.156" height="261.104" viewBox="0 0 324.156 261.104">
  <g id="Group_410" data-name="Group 410" transform="translate(-1060.286 -1408.453)">
    <g id="Group_384" data-name="Group 384" transform="translate(-383.262 1442.918) rotate(-36)">
      <line id="Line_63" data-name="Line 63" x2="352" transform="translate(1066.5 988.5)" fill="none" stroke="#b4b4b4" stroke-width="1"/>
      <line id="Line_63-2" data-name="Line 63" x2="352" transform="translate(1066.5 994.5)" fill="none" stroke="#b4b4b4" stroke-width="1"/>
      <line id="Line_63-3" data-name="Line 63" x2="352" transform="translate(1066.5 1000.5)" fill="none" stroke="#b4b4b4" stroke-width="1"/>
      <line id="Line_63-4" data-name="Line 63" x2="352" transform="translate(1066.5 1006.5)" fill="none" stroke="#b4b4b4" stroke-width="1"/>
      <line id="Line_63-5" data-name="Line 63" x2="352" transform="translate(1066.5 1012.5)" fill="none" stroke="#b4b4b4" stroke-width="1"/>
      <line id="Line_63-6" data-name="Line 63" x2="352" transform="translate(1066.5 1018.5)" fill="none" stroke="#b4b4b4" stroke-width="1"/>
      <line id="Line_63-7" data-name="Line 63" x2="352" transform="translate(1066.5 1024.5)" fill="none" stroke="#b4b4b4" stroke-width="1"/>
      <line id="Line_63-8" data-name="Line 63" x2="352" transform="translate(1066.5 1030.5)" fill="none" stroke="#b4b4b4" stroke-width="1"/>
      <line id="Line_63-9" data-name="Line 63" x2="352" transform="translate(1066.5 1036.5)" fill="none" stroke="#b4b4b4" stroke-width="1"/>
      <line id="Line_63-10" data-name="Line 63" x2="352" transform="translate(1066.5 1042.5)" fill="none" stroke="#b4b4b4" stroke-width="1"/>
      <line id="Line_63-11" data-name="Line 63" x2="352" transform="translate(1066.5 1048.5)" fill="none" stroke="#b4b4b4" stroke-width="1"/>
      <line id="Line_63-12" data-name="Line 63" x2="352" transform="translate(1066.5 1054.5)" fill="none" stroke="#b4b4b4" stroke-width="1"/>
    </g>
    <path id="Polygon_3" data-name="Polygon 3" d="M38.5,0,77,52H0Z" transform="matrix(-0.017, 1, -1, -0.017, 1220.759, 1454.111)" fill="#14a050"/>
    <path id="Polygon_4" data-name="Polygon 4" d="M26.571,0,53.141,35.947H0Z" transform="matrix(-0.956, 0.292, -0.292, -0.956, 1218.329, 1458.605)" fill="#b4b4b4"/>
  </g>
</svg>
