<svg width="20" height="20" viewBox="0 0 20 20" fill="none" xmlns="http://www.w3.org/2000/svg">
<path d="M18.75 1.87451L13.7456 1.87453V0.628906C13.7456 0.283594 13.4659 0.00390625 13.1206 0.00390625C12.7753 0.00390625 12.4956 0.283594 12.4956 0.628906V1.87422H7.49563V0.628906C7.49563 0.283594 7.21594 0.00390625 6.87063 0.00390625C6.52531 0.00390625 6.24563 0.283594 6.24563 0.628906V1.87422H1.25C0.559687 1.87422 0 2.43391 0 3.12422V18.7492C0 19.4395 0.559687 19.9992 1.25 19.9992H18.75C19.4403 19.9992 20 19.4395 20 18.7492V3.12422C20 2.4342 19.4403 1.87451 18.75 1.87451ZM18.75 18.7492H1.25V3.12422H6.24563V3.75391C6.24563 4.0992 6.52531 4.37891 6.87063 4.37891C7.21594 4.37891 7.49563 4.0992 7.49563 3.75391V3.12453H12.4956V3.75422C12.4956 4.09953 12.7753 4.37922 13.1206 4.37922C13.4659 4.37922 13.7456 4.09953 13.7456 3.75422V3.12453H18.75V18.7492ZM14.375 9.99951H15.625C15.97 9.99951 16.25 9.71951 16.25 9.37451V8.12451C16.25 7.77951 15.97 7.49951 15.625 7.49951H14.375C14.03 7.49951 13.75 7.77951 13.75 8.12451V9.37451C13.75 9.71951 14.03 9.99951 14.375 9.99951ZM14.375 14.9992H15.625C15.97 14.9992 16.25 14.7195 16.25 14.3742V13.1242C16.25 12.7792 15.97 12.4992 15.625 12.4992H14.375C14.03 12.4992 13.75 12.7792 13.75 13.1242V14.3742C13.75 14.7198 14.03 14.9992 14.375 14.9992ZM10.625 12.4992H9.375C9.03 12.4992 8.75 12.7792 8.75 13.1242V14.3742C8.75 14.7195 9.03 14.9992 9.375 14.9992H10.625C10.97 14.9992 11.25 14.7195 11.25 14.3742V13.1242C11.25 12.7795 10.97 12.4992 10.625 12.4992ZM10.625 7.49951H9.375C9.03 7.49951 8.75 7.77951 8.75 8.12451V9.37451C8.75 9.71951 9.03 9.99951 9.375 9.99951H10.625C10.97 9.99951 11.25 9.71951 11.25 9.37451V8.12451C11.25 7.7792 10.97 7.49951 10.625 7.49951ZM5.625 7.49951H4.375C4.03 7.49951 3.75 7.77951 3.75 8.12451V9.37451C3.75 9.71951 4.03 9.99951 4.375 9.99951H5.625C5.97 9.99951 6.25 9.71951 6.25 9.37451V8.12451C6.25 7.7792 5.97 7.49951 5.625 7.49951ZM5.625 12.4992H4.375C4.03 12.4992 3.75 12.7792 3.75 13.1242V14.3742C3.75 14.7195 4.03 14.9992 4.375 14.9992H5.625C5.97 14.9992 6.25 14.7195 6.25 14.3742V13.1242C6.25 12.7795 5.97 12.4992 5.625 12.4992Z" fill="#1F2B6C"/>
</svg>
