<svg width="33" height="31" viewBox="0 0 33 31" fill="none" xmlns="http://www.w3.org/2000/svg">
<path d="M19.4749 26.7178C19.944 26.447 20.2849 25.9988 20.4228 25.4716C20.5607 24.9445 20.4841 24.3817 20.2101 23.907L19.1767 22.1172C18.9026 21.6425 18.4534 21.2948 17.928 21.1507C17.4025 21.0065 16.8438 21.0776 16.3747 21.3484C12.8376 23.3905 10.7709 19.8108 9.73746 18.021C8.70406 16.2312 6.63727 12.6516 10.1744 10.6096C10.6434 10.3388 10.9844 9.8905 11.1222 9.36336C11.2601 8.83623 11.1836 8.27341 10.9095 7.79873L9.87612 6.00892C9.60204 5.53423 9.15287 5.18656 8.6274 5.04238C8.10194 4.89821 7.54323 4.96934 7.07418 5.24013C2.65282 7.79269 1.0334 11.114 6.20037 20.0631C11.3673 29.0121 15.0536 29.2704 19.4749 26.7178Z" stroke="#1F2B6C" stroke-width="2" stroke-linecap="round" stroke-linejoin="round"/>
<path d="M28.8875 19.3268C29.827 15.7271 29.3035 11.8847 27.4322 8.64361C25.5609 5.40255 22.4948 3.02802 18.9075 2.04172M23.4728 17.8411C23.7527 16.772 23.8198 15.6558 23.6704 14.5561C23.521 13.4564 23.158 12.3949 22.6022 11.4321C22.0463 10.4693 21.3084 9.62422 20.4307 8.94501C19.553 8.26581 18.5527 7.76583 17.4869 7.47365M18.0872 16.3446C18.275 15.6243 18.1702 14.8555 17.7957 14.207C17.4213 13.5585 16.8079 13.0833 16.0901 12.8858" stroke="#159EEC" stroke-width="2" stroke-linecap="round" stroke-linejoin="round"/>
</svg>
