<?xml version="1.0" encoding="utf-8"?>
<!-- Generator: Adobe Illustrator 16.0.0, SVG Export Plug-In . SVG Version: 6.00 Build 0)  -->
<!DOCTYPE svg PUBLIC "-//W3C//DTD SVG 1.1//EN" "http://www.w3.org/Graphics/SVG/1.1/DTD/svg11.dtd">
<svg version="1.1" xmlns="http://www.w3.org/2000/svg" xmlns:xlink="http://www.w3.org/1999/xlink" x="0px" y="0px" width="144px"
	 height="144px" viewBox="0 0 144 144" enable-background="new 0 0 144 144" xml:space="preserve">
<g id="Layer_1">
</g>
<g id="Layer_2">
	<linearGradient id="SVGID_1_" gradientUnits="userSpaceOnUse" x1="22.8232" y1="-13.1768" x2="121.1772" y2="157.1774">
		<stop  offset="0" style="stop-color:#146EFA"/>
		<stop  offset="1" style="stop-color:#14A050"/>
	</linearGradient>
	<rect fill="url(#SVGID_1_)" width="144" height="144"/>
	<circle fill="#FFFFFF" cx="72.08" cy="72.121" r="53.275"/>
	<path fill="#146EFF" d="M83.285,63.955v1.059c0.029,1.404-0.48,2.768-1.422,3.814c-0.867,1.02-2.145,1.604-3.482,1.59H66.299
		c0-3.568,2.893-6.461,6.463-6.461h10.523V63.955z"/>
	<path fill="#09B14B" d="M83.285,73.594v1.063c0.029,1.402-0.48,2.766-1.422,3.809c-0.867,1.023-2.145,1.604-3.482,1.594H66.299
		c0-3.566,2.893-6.461,6.463-6.461l0,0h10.523V73.594z"/>
	<path fill="#282828" d="M88.742,98.156H59.6c-2.604,0-4.713-2.113-4.713-4.717l0,0V50.572c0.012-2.594,2.119-4.69,4.713-4.69
		h28.928c0,3.979-3.223,7.208-7.205,7.212H62.441v37.867h19.125C85.527,90.98,88.73,94.191,88.742,98.156z"/>
</g>
</svg>
