<svg width="14" height="13" viewBox="0 0 14 13" fill="none" xmlns="http://www.w3.org/2000/svg">
<path d="M1.16699 3.2487C1.16699 2.67406 1.41282 2.12296 1.85041 1.71663C2.28799 1.3103 2.88149 1.08203 3.50033 1.08203H10.5003C11.1192 1.08203 11.7127 1.3103 12.1502 1.71663C12.5878 2.12296 12.8337 2.67406 12.8337 3.2487V9.7487C12.8337 10.3233 12.5878 10.8744 12.1502 11.2808C11.7127 11.6871 11.1192 11.9154 10.5003 11.9154H3.50033C2.88149 11.9154 2.28799 11.6871 1.85041 11.2808C1.41282 10.8744 1.16699 10.3233 1.16699 9.7487V3.2487Z" stroke="#202020" stroke-linecap="round" stroke-linejoin="round"/>
<path d="M4.95833 5.95833C5.76375 5.95833 6.41667 5.35205 6.41667 4.60417C6.41667 3.85628 5.76375 3.25 4.95833 3.25C4.15292 3.25 3.5 3.85628 3.5 4.60417C3.5 5.35205 4.15292 5.95833 4.95833 5.95833Z" stroke="#202020" stroke-linecap="round" stroke-linejoin="round"/>
<path d="M8.4735 6.83499L3.5 11.9153H10.5776C11.1758 11.9153 11.7496 11.6946 12.1726 11.3018C12.5957 10.909 12.8333 10.3762 12.8333 9.82065V9.74861C12.8333 9.4962 12.7313 9.39924 12.5475 9.21236L10.1967 6.83174C10.0871 6.72076 9.95383 6.63221 9.80535 6.57172C9.65687 6.51124 9.49645 6.48017 9.33431 6.48047C9.17218 6.48078 9.01189 6.51246 8.86368 6.5735C8.71546 6.63454 8.58258 6.7236 8.4735 6.83499V6.83499Z" stroke="#202020" stroke-linecap="round" stroke-linejoin="round"/>
</svg>
