<svg width="16" height="17" viewBox="0 0 16 17" fill="none" xmlns="http://www.w3.org/2000/svg">
<path d="M11.1953 9.56477C11.3229 9.22369 11.3877 8.86229 11.3864 8.49811C11.3864 7.68949 11.0652 6.91399 10.4934 6.34222C9.92163 5.77044 9.14613 5.44922 8.33751 5.44922C7.97782 5.44964 7.6211 5.51436 7.28418 5.64033L7.99974 6.37811C8.10851 6.36071 8.21847 6.35179 8.32862 6.35144C8.90037 6.35025 9.44937 6.57533 9.85573 6.97753C10.2621 7.37973 10.4928 7.92638 10.4975 8.49811C10.4971 8.60826 10.4882 8.71822 10.4708 8.827L11.1953 9.56477Z" fill="#202020" fill-opacity="0.4"/>
<path d="M15.2399 8.2921C13.7421 5.52321 11.1154 3.84766 8.20877 3.84766C7.41737 3.84951 6.63129 3.97703 5.87988 4.22543L6.59544 4.94543C7.12248 4.80923 7.66442 4.73906 8.20877 4.73654C10.711 4.73654 12.9865 6.1321 14.3421 8.48321C13.8448 9.35548 13.1856 10.1248 12.3999 10.7499L13.031 11.381C13.9404 10.6474 14.6956 9.74107 15.2532 8.71432L15.3688 8.50099L15.2399 8.2921Z" fill="#202020" fill-opacity="0.4"/>
<path d="M2.16428 3.06847L4.14651 5.05069C2.89358 5.85741 1.86957 6.97326 1.17317 8.29069L1.05762 8.49958L1.17317 8.71292C2.67095 11.4818 5.29762 13.1574 8.20428 13.1574C9.3388 13.1571 10.4586 12.9004 11.4798 12.4062L13.7021 14.6285L14.4798 13.9618L2.92428 2.40625L2.16428 3.06847ZM6.49762 7.40181L9.45317 10.3574C9.11923 10.5641 8.73479 10.6748 8.34206 10.6774C8.0567 10.6774 7.77415 10.6209 7.51067 10.5113C7.2472 10.4017 7.008 10.2411 6.80683 10.0387C6.60567 9.8363 6.44652 9.59612 6.33853 9.33198C6.23055 9.06783 6.17586 8.78494 6.17762 8.49958C6.18262 8.11139 6.29325 7.73189 6.49762 7.40181ZM5.85317 6.75736C5.43737 7.34376 5.24247 8.05838 5.303 8.77469C5.36353 9.491 5.67558 10.1628 6.18389 10.6711C6.6922 11.1794 7.36398 11.4914 8.08029 11.552C8.7966 11.6125 9.51122 11.4176 10.0976 11.0018L10.8087 11.7129C9.98552 12.0648 9.09954 12.2462 8.20428 12.2463C5.70206 12.2463 3.42651 10.8507 2.07095 8.49958C2.72149 7.34768 3.65838 6.38323 4.79095 5.69958L5.85317 6.75736Z" fill="#202020" fill-opacity="0.4"/>
</svg>
