<svg width="16" height="17" viewBox="0 0 16 17" fill="none" xmlns="http://www.w3.org/2000/svg">
<path d="M14.9424 8.2921C13.4446 5.52321 10.818 3.84766 7.91132 3.84766C5.00465 3.84766 2.37354 5.52321 0.889093 8.2921L0.764648 8.50099L0.880204 8.71432C2.37798 11.4832 5.00465 13.1588 7.91132 13.1588C10.818 13.1588 13.4491 11.5054 14.9424 8.71432L15.058 8.50099L14.9424 8.2921ZM7.91132 12.2477C5.40909 12.2477 3.11132 10.8521 1.77798 8.50099C3.11132 6.14988 5.40909 4.75432 7.91132 4.75432C10.4135 4.75432 12.6846 6.15432 14.0402 8.50099C12.6846 10.8521 10.4091 12.2477 7.91132 12.2477Z" fill="#202020"/>
<path d="M8.04031 5.46492C7.4377 5.46932 6.8499 5.6522 6.35116 5.99047C5.85243 6.32874 5.46512 6.80722 5.23816 7.36548C5.0112 7.92374 4.95477 8.53673 5.076 9.12704C5.19722 9.71736 5.49066 10.2585 5.91926 10.6821C6.34786 11.1058 6.89239 11.3929 7.48407 11.5072C8.07575 11.6216 8.68805 11.558 9.24363 11.3246C9.79921 11.0911 10.2731 10.6983 10.6056 10.1956C10.938 9.69299 11.114 9.1031 11.1114 8.50048C11.1097 8.09934 11.0288 7.70249 10.8734 7.33267C10.718 6.96284 10.4912 6.62732 10.2059 6.34533C9.92057 6.06333 9.58242 5.84041 9.21082 5.68933C8.83921 5.53826 8.44144 5.462 8.04031 5.46492ZM8.04031 10.6738C7.61465 10.6694 7.19977 10.5394 6.84778 10.3C6.4958 10.0605 6.2224 9.72247 6.06193 9.32819C5.90146 8.93391 5.86107 8.501 5.94583 8.08383C6.03059 7.66667 6.23672 7.28386 6.53834 6.98346C6.83996 6.68307 7.22362 6.4785 7.64112 6.39544C8.05863 6.31238 8.49137 6.35454 8.88499 6.51662C9.27862 6.6787 9.61557 6.95348 9.85354 7.30644C10.0915 7.6594 10.2199 8.0748 10.2225 8.50048C10.2237 8.78697 10.168 9.07084 10.0587 9.33564C9.9493 9.60044 9.78847 9.84089 9.58547 10.0431C9.38248 10.2452 9.14137 10.4051 8.87613 10.5134C8.61089 10.6216 8.32679 10.6762 8.04031 10.6738Z" fill="#202020"/>
</svg>
