<svg width="16" height="16" viewBox="0 0 16 16" fill="none" xmlns="http://www.w3.org/2000/svg">
<path d="M14.375 6.5H9.625C9.55625 6.5 9.5 6.55625 9.5 6.625V8.375C9.5 8.44375 9.55625 8.5 9.625 8.5H10.375C10.4438 8.5 10.5 8.44375 10.5 8.375V7.5H11.4375V12.5H10.7188C10.65 12.5 10.5938 12.5562 10.5938 12.625V13.375C10.5938 13.4438 10.65 13.5 10.7188 13.5H13.2812C13.35 13.5 13.4062 13.4438 13.4062 13.375V12.625C13.4062 12.5562 13.35 12.5 13.2812 12.5H12.5625V7.5H13.5V8.375C13.5 8.44375 13.5562 8.5 13.625 8.5H14.375C14.4438 8.5 14.5 8.44375 14.5 8.375V6.625C14.5 6.55625 14.4438 6.5 14.375 6.5ZM10.25 4.625V2.625C10.25 2.55625 10.1938 2.5 10.125 2.5H1.625C1.55625 2.5 1.5 2.55625 1.5 2.625V4.625C1.5 4.69375 1.55625 4.75 1.625 4.75H2.5C2.56875 4.75 2.625 4.69375 2.625 4.625V3.625H5.25V12.375H3.8125C3.74375 12.375 3.6875 12.4312 3.6875 12.5V13.375C3.6875 13.4438 3.74375 13.5 3.8125 13.5H7.9375C8.00625 13.5 8.0625 13.4438 8.0625 13.375V12.5C8.0625 12.4312 8.00625 12.375 7.9375 12.375H6.5V3.625H9.125V4.625C9.125 4.69375 9.18125 4.75 9.25 4.75H10.125C10.1938 4.75 10.25 4.69375 10.25 4.625Z" fill="#202020"/>
</svg>
