<svg width="22" height="14" viewBox="0 0 22 14" fill="none" xmlns="http://www.w3.org/2000/svg">
<rect width="22" height="14" fill="#0184FF"/>
<path d="M16.6265 2.45501C16.6966 2.5253 16.7359 2.6205 16.7359 2.71976C16.7359 2.81901 16.6966 2.91421 16.6265 2.9845L15.8443 3.7675L14.3443 2.26751L15.1265 1.48451C15.1968 1.4142 15.2922 1.37471 15.3916 1.37471C15.4911 1.37471 15.5864 1.4142 15.6568 1.48451L16.6265 2.45426V2.45501ZM15.314 4.297L13.814 2.797L8.70425 7.9075C8.66297 7.94877 8.6319 7.99911 8.6135 8.0545L8.00975 9.865C7.9988 9.89801 7.99725 9.93341 8.00526 9.96725C8.01327 10.0011 8.03054 10.032 8.05513 10.0566C8.07972 10.0812 8.11066 10.0985 8.1445 10.1065C8.17834 10.1145 8.21374 10.113 8.24675 10.102L10.0573 9.49826C10.1126 9.48008 10.1629 9.44926 10.2043 9.40826L15.314 4.29775V4.297Z" fill="white"/>
<path fill-rule="evenodd" clip-rule="evenodd" d="M5.75 11.125C5.75 11.4234 5.86853 11.7095 6.0795 11.9205C6.29048 12.1315 6.57663 12.25 6.875 12.25H15.125C15.4234 12.25 15.7095 12.1315 15.9205 11.9205C16.1315 11.7095 16.25 11.4234 16.25 11.125V6.625C16.25 6.52554 16.2105 6.43016 16.1402 6.35984C16.0698 6.28951 15.9745 6.25 15.875 6.25C15.7755 6.25 15.6802 6.28951 15.6098 6.35984C15.5395 6.43016 15.5 6.52554 15.5 6.625V11.125C15.5 11.2245 15.4605 11.3198 15.3902 11.3902C15.3198 11.4605 15.2245 11.5 15.125 11.5H6.875C6.77554 11.5 6.68016 11.4605 6.60984 11.3902C6.53951 11.3198 6.5 11.2245 6.5 11.125V2.875C6.5 2.77554 6.53951 2.68016 6.60984 2.60984C6.68016 2.53951 6.77554 2.5 6.875 2.5H11.75C11.8495 2.5 11.9448 2.46049 12.0152 2.39017C12.0855 2.31984 12.125 2.22446 12.125 2.125C12.125 2.02554 12.0855 1.93016 12.0152 1.85983C11.9448 1.78951 11.8495 1.75 11.75 1.75H6.875C6.57663 1.75 6.29048 1.86853 6.0795 2.0795C5.86853 2.29048 5.75 2.57663 5.75 2.875V11.125Z" fill="white"/>
</svg>
