<svg width="22" height="14" viewBox="0 0 22 14" fill="none" xmlns="http://www.w3.org/2000/svg">
<rect width="22" height="14" fill="#0184FF"/>
<g clip-path="url(#clip0_3_28)">
<path d="M17.5083 6.80801C16.1042 4.26307 13.6417 2.72304 10.9167 2.72304C8.19167 2.72304 5.72501 4.26307 4.33334 6.80801L4.21667 7L4.32501 7.19608C5.72917 9.74101 8.19167 11.281 10.9167 11.281C13.6417 11.281 16.1083 9.76144 17.5083 7.19608L17.6167 7L17.5083 6.80801ZM10.9167 10.4436C8.57084 10.4436 6.41667 9.16095 5.16667 7C6.41667 4.83905 8.57084 3.55637 10.9167 3.55637C13.2625 3.55637 15.3917 4.84314 16.6625 7C15.3917 9.16095 13.2583 10.4436 10.9167 10.4436V10.4436Z" fill="white"/>
<path d="M11.0375 4.20997C10.4725 4.21401 9.92148 4.3821 9.45391 4.69301C8.98635 5.00391 8.62325 5.44369 8.41047 5.9568C8.1977 6.4699 8.14479 7.03332 8.25844 7.57588C8.37209 8.11845 8.64719 8.61583 9.049 9.0052C9.45081 9.39457 9.96131 9.65847 10.516 9.76356C11.0707 9.86866 11.6447 9.81023 12.1656 9.59567C12.6865 9.38111 13.1308 9.02003 13.4424 8.55804C13.7541 8.09606 13.9191 7.55388 13.9167 7C13.915 6.63131 13.8392 6.26655 13.6935 5.92664C13.5478 5.58673 13.3352 5.27835 13.0677 5.01916C12.8002 4.75997 12.4832 4.55508 12.1348 4.41622C11.7865 4.27737 11.4135 4.20728 11.0375 4.20997V4.20997ZM11.0375 8.99755C10.6384 8.99352 10.2495 8.87397 9.91949 8.65393C9.58951 8.43388 9.3332 8.12315 9.18275 7.76076C9.03231 7.39837 8.99444 7.00047 9.07391 6.61705C9.15337 6.23363 9.34662 5.88178 9.62939 5.60568C9.91216 5.32959 10.2718 5.14156 10.6632 5.06522C11.0547 4.98888 11.4604 5.02763 11.8294 5.1766C12.1984 5.32557 12.5143 5.57812 12.7374 5.90253C12.9605 6.22694 13.0808 6.60875 13.0833 7C13.0844 7.26332 13.0322 7.52423 12.9297 7.76761C12.8272 8.01099 12.6764 8.23199 12.4861 8.41781C12.2958 8.60362 12.0697 8.75055 11.8211 8.85007C11.5724 8.94958 11.3061 8.99971 11.0375 8.99755V8.99755Z" fill="white"/>
</g>
<defs>
<clipPath id="clip0_3_28">
<rect width="15" height="10" fill="white" transform="translate(3.5 2)"/>
</clipPath>
</defs>
</svg>
