<svg width="22" height="20" viewBox="0 0 22 20" fill="none" xmlns="http://www.w3.org/2000/svg">
<rect width="22" height="20" fill="#0184FF"/>
<path d="M9.125 4V4.66667H6V6H6.625V14.6667C6.625 15.0203 6.7567 15.3594 6.99112 15.6095C7.22554 15.8595 7.54348 16 7.875 16H14.125C14.4565 16 14.7745 15.8595 15.0089 15.6095C15.2433 15.3594 15.375 15.0203 15.375 14.6667V6H16V4.66667H12.875V4H9.125ZM7.875 6H14.125V14.6667H7.875V6ZM9.125 7.33333V13.3333H10.375V7.33333H9.125ZM11.625 7.33333V13.3333H12.875V7.33333H11.625Z" fill="white" stroke="#0184FF" stroke-width="0.4"/>
</svg>
