<svg width="current" height="current" viewBox="0 0 16 14" fill="none" xmlns="http://www.w3.org/2000/svg">
<path d="M6.08365 0.0923996C6.31257 0.0290295 6.55448 0.135467 6.66243 0.347056C6.91113 0.834547 7.41707 1.16661 7.99967 1.16661C8.58228 1.16661 9.08822 0.834547 9.33692 0.347056C9.44487 0.135467 9.68678 0.0290295 9.9157 0.0923996C11.0387 0.403252 12.0503 0.980206 12.8786 1.75044C13.0404 1.90085 13.0843 2.13959 12.9866 2.33771C12.8884 2.53684 12.833 2.76121 12.833 2.99994C12.833 3.82836 13.5046 4.49994 14.333 4.49994L14.3539 4.49979C14.575 4.49663 14.7719 4.639 14.8381 4.84991C15.0515 5.52925 15.1663 6.25166 15.1663 6.99994C15.1663 7.49382 15.1163 7.97655 15.0209 8.44314C14.9695 8.69402 14.737 8.86558 14.4821 8.84054C14.4332 8.83574 14.3835 8.83327 14.333 8.83327C13.5046 8.83327 12.833 9.50485 12.833 10.3333C12.833 10.702 12.9654 11.0385 13.1859 11.2998C13.351 11.4955 13.3416 11.7844 13.164 11.9689C12.3181 12.8479 11.2494 13.5118 10.0477 13.8696C9.78683 13.9472 9.51171 13.8019 9.42882 13.5426C9.23531 12.9372 8.66792 12.4999 7.99967 12.4999C7.33143 12.4999 6.76404 12.9372 6.57053 13.5426C6.48764 13.8019 6.21252 13.9472 5.9516 13.8696C4.74997 13.5118 3.6812 12.8479 2.83536 11.9689C2.65778 11.7844 2.64833 11.4955 2.81349 11.2998C3.03393 11.0385 3.16634 10.702 3.16634 10.3333C3.16634 9.50485 2.49477 8.83327 1.66634 8.83327C1.61583 8.83327 1.56609 8.83574 1.51723 8.84054C1.26238 8.86558 1.0298 8.69402 0.978481 8.44314C0.883041 7.97655 0.833008 7.49382 0.833008 6.99994C0.833008 6.25166 0.947857 5.52926 1.16125 4.8499C1.2275 4.639 1.42437 4.49663 1.64541 4.49979L1.66634 4.49994C2.49477 4.49994 3.16634 3.82836 3.16634 2.99994C3.16634 2.76121 3.11093 2.53684 3.01275 2.33771C2.91507 2.13959 2.95897 1.90085 3.12073 1.75044C3.94908 0.980206 4.9607 0.403252 6.08365 0.0923996ZM4.05485 2.25988C4.12735 2.49409 4.16634 2.74276 4.16634 2.99994C4.16634 4.25957 3.23475 5.30163 2.02296 5.4747C1.89899 5.96206 1.83301 6.47298 1.83301 6.99994C1.83301 7.28619 1.85248 7.56766 1.89012 7.84315C3.16599 7.95633 4.16634 9.02798 4.16634 10.3333C4.16634 10.7779 4.04994 11.196 3.84615 11.5581C4.41731 12.0789 5.08636 12.4935 5.82209 12.7713C6.25105 12.0126 7.06503 11.4999 7.99967 11.4999C8.93432 11.4999 9.7483 12.0126 10.1773 12.7713C10.913 12.4935 11.582 12.0789 12.1532 11.5581C11.9494 11.196 11.833 10.7779 11.833 10.3333C11.833 9.02798 12.8334 7.95633 14.1092 7.84315C14.1469 7.56766 14.1663 7.28619 14.1663 6.99994C14.1663 6.47298 14.1004 5.96206 13.9764 5.47469C12.7646 5.30162 11.833 4.25957 11.833 2.99994C11.833 2.74277 11.872 2.4941 11.9445 2.25988C11.3742 1.78467 10.7171 1.4107 10.0009 1.1651C9.54528 1.77258 8.81879 2.16661 7.99967 2.16661C7.18056 2.16661 6.45406 1.77258 5.99847 1.1651C5.28222 1.4107 4.62516 1.78467 4.05485 2.25988Z" fill="#202020" fill-opacity="0.6"/>
<path d="M5.16634 6.99994C5.16634 5.43513 6.43486 4.1666 7.99967 4.1666C9.56448 4.1666 10.833 5.43513 10.833 6.99994C10.833 8.56475 9.56448 9.83327 7.99967 9.83327C6.43486 9.83327 5.16634 8.56475 5.16634 6.99994ZM7.99967 5.1666C6.98715 5.1666 6.16634 5.98741 6.16634 6.99994C6.16634 8.01246 6.98715 8.83327 7.99967 8.83327C9.0122 8.83327 9.83301 8.01246 9.83301 6.99994C9.83301 5.98741 9.0122 5.1666 7.99967 5.1666Z" fill="#202020" fill-opacity="0.6"/>
</svg>
