<svg xmlns="http://www.w3.org/2000/svg" width="current" height="current" viewBox="0 0 27.196 27.196">
  <g id="Icon_feather-eye-off" data-name="Icon feather-eye-off" transform="translate(-0.086 -0.086)">
    <path id="Path_299" data-name="Path 299" d="M20.263,21.44a11.154,11.154,0,0,1-6.579,2.282C5.93,23.722,1.5,14.861,1.5,14.861A20.435,20.435,0,0,1,7.1,8.282m4.253-2.016A10.1,10.1,0,0,1,13.684,6c7.753,0,12.184,8.861,12.184,8.861a20.49,20.49,0,0,1-2.392,3.533m-7.443-1.185a3.323,3.323,0,1,1-4.7-4.7" transform="translate(0 -1.177)" fill="none" stroke="#dc2828" stroke-linecap="round" stroke-linejoin="round" stroke-width="2"/>
    <path id="Path_300" data-name="Path 300" d="M1.5,1.5,25.867,25.867" fill="none" stroke="#dc2828" stroke-linecap="round" stroke-linejoin="round" stroke-width="2"/>
  </g>
</svg>
