<svg width="current" height="cureent" viewBox="0 0 14 14" fill="none" xmlns="http://www.w3.org/2000/svg">
<path d="M1.70635 8.26883L8.26885 1.70633C9.3626 0.56883 11.1563 0.56883 12.2938 1.66258C13.4313 2.75633 13.4313 4.59383 12.2938 5.68758L12.2501 5.73133L11.0251 7.00008L10.4126 6.38758L11.6813 5.11883C12.4251 4.37508 12.4251 3.10633 11.6813 2.36258C10.9376 1.61883 9.66885 1.57508 8.9251 2.31883L8.88135 2.36258L2.3626 8.88133C1.5751 9.62508 1.5751 10.8938 2.31885 11.6376C3.0626 12.4251 4.33135 12.4251 5.0751 11.6813L5.11885 11.6376L8.35635 8.40008C8.79385 7.96258 8.7501 7.26258 8.35635 6.86883C7.91885 6.47508 7.2626 6.47508 6.8251 6.86883L5.03135 8.66258L4.41885 8.05008L6.25635 6.21258C7.04385 5.46883 8.26885 5.51258 9.0126 6.30008C9.7126 7.04383 9.7126 8.22508 9.0126 9.01258L5.73135 12.2938C4.6376 13.4313 2.84385 13.4313 1.70635 12.3376C0.568848 11.2438 0.568848 9.40633 1.70635 8.26883C1.70635 8.26883 1.70635 8.31258 1.70635 8.26883Z" fill="#0184FF"/>
</svg>
