<svg width="56" height="56" viewBox="0 0 56 56" fill="none" xmlns="http://www.w3.org/2000/svg">
<rect width="56" height="56" rx="20" fill="#055DEB" fill-opacity="0.3"/>
<path d="M38.9994 16.6252H17.0004C16.7932 16.6252 16.6252 16.7932 16.6252 17.0004V38.9994C16.6252 39.2066 16.7932 39.3746 17.0004 39.3746H38.9994C39.2066 39.3746 39.3746 39.2066 39.3746 38.9994V17.0004C39.3746 16.7932 39.2066 16.6252 38.9994 16.6252Z" stroke="#202020" stroke-miterlimit="10"/>
<path d="M16.6252 19.8894H39.3746" stroke="#202020" stroke-width="0.5" stroke-miterlimit="10"/>
<path d="M21.6028 17.751H18.2636C18.1531 17.751 18.0635 17.8406 18.0635 17.9511V18.4889C18.0635 18.5994 18.1531 18.689 18.2636 18.689H21.6028C21.7133 18.689 21.8029 18.5994 21.8029 18.4889V17.9511C21.8029 17.8406 21.7133 17.751 21.6028 17.751Z" fill="#202020"/>
<path d="M23.0411 18.7013C23.2621 18.7013 23.4413 18.5221 23.4413 18.3011C23.4413 18.0801 23.2621 17.9009 23.0411 17.9009C22.82 17.9009 22.6409 18.0801 22.6409 18.3011C22.6409 18.5221 22.82 18.7013 23.0411 18.7013Z" fill="#202020"/>
<path d="M24.4544 18.7013C24.6754 18.7013 24.8546 18.5221 24.8546 18.3011C24.8546 18.0801 24.6754 17.9009 24.4544 17.9009C24.2334 17.9009 24.0542 18.0801 24.0542 18.3011C24.0542 18.5221 24.2334 18.7013 24.4544 18.7013Z" fill="#202020"/>
<path d="M25.9427 18.7013C26.1637 18.7013 26.3429 18.5221 26.3429 18.3011C26.3429 18.0801 26.1637 17.9009 25.9427 17.9009C25.7217 17.9009 25.5425 18.0801 25.5425 18.3011C25.5425 18.5221 25.7217 18.7013 25.9427 18.7013Z" fill="#202020"/>
<path d="M26.8309 27.4462L26.4241 27.853C26.3753 27.9018 26.3753 27.981 26.4241 28.0298L29.1744 30.7802C29.2233 30.829 29.3025 30.829 29.3513 30.7802L29.7581 30.3734C29.8069 30.3245 29.8069 30.2453 29.7581 30.1965L27.0078 27.4462C26.959 27.3973 26.8798 27.3973 26.8309 27.4462Z" fill="#202020"/>
<path d="M29.7189 27.8513L29.3387 27.471C29.2898 27.4222 29.2107 27.4222 29.1618 27.471L26.4115 30.2213C26.3627 30.2702 26.3627 30.3493 26.4115 30.3982L26.7918 30.7785C26.8406 30.8273 26.9198 30.8273 26.9686 30.7784L29.7189 28.0281C29.7678 27.9793 29.7678 27.9001 29.7189 27.8513Z" fill="#202020"/>
<path d="M37.8864 21.5154H18.1011C18.0044 21.5154 17.926 21.5938 17.926 21.6905V22.3408C17.926 22.4375 18.0044 22.5159 18.1011 22.5159H37.8864C37.9831 22.5159 38.0615 22.4375 38.0615 22.3408V21.6905C38.0615 21.5938 37.9831 21.5154 37.8864 21.5154Z" fill="#202020"/>
<path d="M37.7863 23.3914H18.001C17.9043 23.3914 17.8259 23.4697 17.8259 23.5664V24.2168C17.8259 24.3135 17.9043 24.3919 18.001 24.3919H37.7863C37.883 24.3919 37.9614 24.3135 37.9614 24.2168V23.5664C37.9614 23.4697 37.883 23.3914 37.7863 23.3914Z" fill="#202020"/>
<path d="M23.6291 25.2297H18.1387C18.042 25.2297 17.9636 25.3081 17.9636 25.4048V25.7925C17.9636 25.8892 18.042 25.9676 18.1387 25.9676H23.6291C23.7258 25.9676 23.8042 25.8892 23.8042 25.7925V25.4048C23.8042 25.3081 23.7258 25.2297 23.6291 25.2297Z" fill="#202020"/>
<path d="M22.2158 27.1309H18.1387C18.042 27.1309 17.9636 27.2093 17.9636 27.306V27.6937C17.9636 27.7904 18.042 27.8687 18.1387 27.8687H22.2158C22.3125 27.8687 22.3909 27.7904 22.3909 27.6937V27.306C22.3909 27.2093 22.3125 27.1309 22.2158 27.1309Z" fill="#202020"/>
<path d="M19.2766 29.0317H18.1761C18.0794 29.0317 18.001 29.1101 18.001 29.2068V29.5945C18.001 29.6912 18.0794 29.7696 18.1761 29.7696H19.2766C19.3733 29.7696 19.4517 29.6912 19.4517 29.5945V29.2068C19.4517 29.1101 19.3733 29.0317 19.2766 29.0317Z" fill="#202020"/>
<path d="M19.902 30.8076H18.1761C18.0794 30.8076 18.001 30.886 18.001 30.9827V31.3704C18.001 31.4671 18.0794 31.5455 18.1761 31.5455H19.902C19.9987 31.5455 20.0771 31.4671 20.0771 31.3704V30.9827C20.0771 30.886 19.9987 30.8076 19.902 30.8076Z" fill="#202020"/>
<path d="M37.7864 34.5596H18.1512C18.0545 34.5596 17.9761 34.638 17.9761 34.7347V35.2099C17.9761 35.3066 18.0545 35.385 18.1512 35.385H37.7864C37.8831 35.385 37.9615 35.3066 37.9615 35.2099V34.7347C37.9615 34.638 37.8831 34.5596 37.7864 34.5596Z" fill="#202020"/>
<path d="M37.6864 36.4731H18.1387C18.042 36.4731 17.9636 36.5515 17.9636 36.6482V37.1235C17.9636 37.2202 18.042 37.2986 18.1387 37.2986H37.6864C37.7831 37.2986 37.8615 37.2202 37.8615 37.1235V36.6482C37.8615 36.5515 37.7831 36.4731 37.6864 36.4731Z" fill="#202020"/>
<path d="M22.6034 30.8076H20.8775C20.7808 30.8076 20.7024 30.886 20.7024 30.9827V31.3704C20.7024 31.4671 20.7808 31.5455 20.8775 31.5455H22.6034C22.7001 31.5455 22.7785 31.4671 22.7785 31.3704V30.9827C22.7785 30.886 22.7001 30.8076 22.6034 30.8076Z" fill="#202020"/>
<path d="M22.6159 29.0317H20.2146C20.1179 29.0317 20.0396 29.1101 20.0396 29.2068V29.5945C20.0396 29.6912 20.1179 29.7696 20.2146 29.7696H22.6159C22.7126 29.7696 22.791 29.6912 22.791 29.5945V29.2068C22.791 29.1101 22.7126 29.0317 22.6159 29.0317Z" fill="#202020"/>
<path d="M37.4861 25.2297H32.5335C32.4368 25.2297 32.3584 25.3081 32.3584 25.4048V25.7925C32.3584 25.8892 32.4368 25.9676 32.5335 25.9676H37.4861C37.5828 25.9676 37.6612 25.8892 37.6612 25.7925V25.4048C37.6612 25.3081 37.5828 25.2297 37.4861 25.2297Z" fill="#202020"/>
<path d="M23.8166 32.6462H18.3262C18.2295 32.6462 18.1511 32.7246 18.1511 32.8213V33.209C18.1511 33.3057 18.2295 33.3841 18.3262 33.3841H23.8166C23.9133 33.3841 23.9917 33.3057 23.9917 33.209V32.8213C23.9917 32.7246 23.9133 32.6462 23.8166 32.6462Z" fill="#202020"/>
<path d="M37.6863 32.6462H32.7337C32.637 32.6462 32.5586 32.7246 32.5586 32.8213V33.209C32.5586 33.3057 32.637 33.3841 32.7337 33.3841H37.6863C37.783 33.3841 37.8614 33.3057 37.8614 33.209V32.8213C37.8614 32.7246 37.783 32.6462 37.6863 32.6462Z" fill="#202020"/>
<path d="M37.8864 27.1309H33.1089C33.0122 27.1309 32.9338 27.2093 32.9338 27.306V27.6937C32.9338 27.7904 33.0122 27.8687 33.1089 27.8687H37.8864C37.9831 27.8687 38.0615 27.7904 38.0615 27.6937V27.306C38.0615 27.2093 37.9831 27.1309 37.8864 27.1309Z" fill="#202020"/>
<path d="M37.8864 28.9316H33.1089C33.0122 28.9316 32.9338 29.01 32.9338 29.1067V29.4944C32.9338 29.5911 33.0122 29.6695 33.1089 29.6695H37.8864C37.9831 29.6695 38.0615 29.5911 38.0615 29.4944V29.1067C38.0615 29.01 37.9831 28.9316 37.8864 28.9316Z" fill="#202020"/>
<path d="M37.8864 30.7451H34.6473C34.5506 30.7451 34.4722 30.8235 34.4722 30.9202V31.458C34.4722 31.5547 34.5506 31.6331 34.6473 31.6331H37.8864C37.9831 31.6331 38.0615 31.5547 38.0615 31.458V30.9202C38.0615 30.8235 37.9831 30.7451 37.8864 30.7451Z" fill="#202020"/>
<path d="M33.8218 30.7327H32.6587C32.562 30.7327 32.4836 30.8111 32.4836 30.9078V31.4455C32.4836 31.5422 32.562 31.6206 32.6587 31.6206H33.8218C33.9185 31.6206 33.9969 31.5422 33.9969 31.4455V30.9078C33.9969 30.8111 33.9185 30.7327 33.8218 30.7327Z" fill="#202020"/>
<path d="M28.0687 32.6337C30.0579 32.6337 31.6705 31.0211 31.6705 29.0318C31.6705 27.0425 30.0579 25.4299 28.0687 25.4299C26.0794 25.4299 24.4668 27.0425 24.4668 29.0318C24.4668 31.0211 26.0794 32.6337 28.0687 32.6337Z" stroke="#202020" stroke-width="0.6" stroke-miterlimit="10"/>
</svg>
