<svg width="56" height="56" viewBox="0 0 56 56" fill="none" xmlns="http://www.w3.org/2000/svg">
<rect width="56" height="56" rx="20" fill="#F098C0" fill-opacity="0.3"/>
<g clip-path="url(#clip0_806_1547)">
<path d="M37.3681 29.5081V28.2834C37.3621 28.2024 37.3272 28.1264 37.2699 28.069C37.2125 28.0116 37.1364 27.9767 37.0554 27.9707C36.9725 27.9707 36.893 28.0036 36.8343 28.0623C36.7757 28.1209 36.7427 28.2005 36.7427 28.2834V29.0391C36.2024 28.8238 35.6299 28.7005 35.0489 28.6743V23.2801H34.5278L35.7264 21.8469L37.1336 23.3583H36.6385V26.9805C36.6385 27.0634 36.6714 27.1429 36.7301 27.2016C36.7887 27.2602 36.8683 27.2932 36.9512 27.2932C36.9944 27.2968 37.0379 27.2914 37.0789 27.2773C37.1199 27.2632 37.1575 27.2407 37.1894 27.2113C37.2212 27.1819 37.2466 27.1462 37.2639 27.1065C37.2812 27.0667 37.2901 27.0238 37.29 26.9805V23.9837H38.5668L35.7264 20.9088L32.8079 23.9837H34.1629V27.7622C33.9701 27.1569 33.6557 26.5974 33.239 26.1179C32.8223 25.6385 32.312 25.2492 31.7395 24.9739V20.4658H32.7297L30.5147 18.0163L28.3519 20.4658H29.2639V24.6352C28.3096 24.7102 27.4008 25.0737 26.658 25.6775V22.6808H27.544L25.303 20.4658L23.2183 22.6026H24.0782V28.3876C23.697 28.2346 23.2903 28.155 22.8795 28.1531C22.5005 28.152 22.1233 28.2047 21.759 28.3094V20.0749H23.1401L20.2476 17L17.4854 20.0749H18.7623V23.0717C18.7623 23.1546 18.7952 23.2341 18.8539 23.2928C18.9125 23.3514 18.992 23.3844 19.075 23.3844C19.1579 23.3844 19.2375 23.3514 19.2961 23.2928C19.3547 23.2341 19.3877 23.1546 19.3877 23.0717V19.4495H18.8665L20.2737 17.8599L21.7069 19.3974H21.1857V28.5961C20.3829 29.0012 19.7469 29.6741 19.3877 30.4984V24.4528C19.3913 24.413 19.3866 24.3729 19.3738 24.3351C19.3611 24.2972 19.3405 24.2625 19.3135 24.233C19.2865 24.2036 19.2537 24.1801 19.2171 24.1641C19.1805 24.1481 19.141 24.1399 19.101 24.1401C19.0181 24.1401 18.9386 24.173 18.8799 24.2317C18.8213 24.2903 18.7883 24.3698 18.7883 24.4528V32.4528C18.0048 32.6348 17.3057 33.0761 16.8043 33.7052C16.303 34.3342 16.0287 35.1142 16.0261 35.9186C16.0261 36.8792 16.4077 37.8005 17.087 38.4798C17.7663 39.1591 18.6876 39.5407 19.6483 39.5407H30.5147V38.8893H19.544C18.7514 38.8824 17.9931 38.5645 17.4325 38.004C16.872 37.4435 16.5541 36.6852 16.5473 35.8925C16.547 35.118 16.8493 34.374 17.3896 33.8191C17.9299 33.2642 18.6656 32.9422 19.4398 32.9218H19.8046V32.5831C19.8192 32.4968 19.8192 32.4087 19.8046 32.3225C19.7947 32.2359 19.7947 32.1485 19.8046 32.0619C19.8046 31.2118 20.1423 30.3966 20.7434 29.7955C21.3445 29.1944 22.1598 28.8567 23.0098 28.8567C23.7654 28.8577 24.4923 29.1465 25.0424 29.6645L25.5896 30.1336V29.2736C25.5896 28.1678 26.0289 27.1073 26.8108 26.3254C27.5927 25.5435 28.6532 25.1042 29.759 25.1042C30.8333 25.0969 31.8679 25.5097 32.642 26.2546C33.4161 26.9995 33.8684 28.0175 33.9023 29.0912V29.43H34.3975H34.658C35.9297 29.43 37.1493 29.9351 38.0485 30.8343C38.9477 31.7335 39.4528 32.9531 39.4528 34.2248C39.4528 35.4964 38.9477 36.716 38.0485 37.6152C37.1493 38.5144 35.9297 39.0195 34.658 39.0195H31.5831V39.645H34.5799C35.7623 39.6415 36.9112 39.2514 37.8514 38.5343C38.7915 37.8171 39.4714 36.8122 39.7872 35.6727C40.1031 34.5332 40.0377 33.3216 39.6009 32.2228C39.1642 31.1239 38.3801 30.1981 37.3681 29.5863V29.5081ZM24.8861 28.8046C24.6814 28.6828 24.4626 28.5865 24.2346 28.5179L24.8861 28.8046Z" fill="black"/>
<path d="M24.86 36.042C24.568 36.042 24.304 35.992 24.068 35.892C23.836 35.792 23.652 35.648 23.516 35.46C23.38 35.272 23.31 35.05 23.306 34.794H24.206C24.218 34.966 24.278 35.102 24.386 35.202C24.498 35.302 24.65 35.352 24.842 35.352C25.038 35.352 25.192 35.306 25.304 35.214C25.416 35.118 25.472 34.994 25.472 34.842C25.472 34.718 25.434 34.616 25.358 34.536C25.282 34.456 25.186 34.394 25.07 34.35C24.958 34.302 24.802 34.25 24.602 34.194C24.33 34.114 24.108 34.036 23.936 33.96C23.768 33.88 23.622 33.762 23.498 33.606C23.378 33.446 23.318 33.234 23.318 32.97C23.318 32.722 23.38 32.506 23.504 32.322C23.628 32.138 23.802 31.998 24.026 31.902C24.25 31.802 24.506 31.752 24.794 31.752C25.226 31.752 25.576 31.858 25.844 32.07C26.116 32.278 26.266 32.57 26.294 32.946H25.37C25.362 32.802 25.3 32.684 25.184 32.592C25.072 32.496 24.922 32.448 24.734 32.448C24.57 32.448 24.438 32.49 24.338 32.574C24.242 32.658 24.194 32.78 24.194 32.94C24.194 33.052 24.23 33.146 24.302 33.222C24.378 33.294 24.47 33.354 24.578 33.402C24.69 33.446 24.846 33.498 25.046 33.558C25.318 33.638 25.54 33.718 25.712 33.798C25.884 33.878 26.032 33.998 26.156 34.158C26.28 34.318 26.342 34.528 26.342 34.788C26.342 35.012 26.284 35.22 26.168 35.412C26.052 35.604 25.882 35.758 25.658 35.874C25.434 35.986 25.168 36.042 24.86 36.042ZM27.9103 32.49V33.54H29.3203V34.206H27.9103V35.316H29.5003V36H27.0703V31.806H29.5003V32.49H27.9103ZM32.2076 36.042C31.8156 36.042 31.4556 35.95 31.1276 35.766C30.7996 35.582 30.5396 35.328 30.3476 35.004C30.1556 34.676 30.0596 34.306 30.0596 33.894C30.0596 33.486 30.1556 33.12 30.3476 32.796C30.5396 32.468 30.7996 32.212 31.1276 32.028C31.4556 31.844 31.8156 31.752 32.2076 31.752C32.6036 31.752 32.9636 31.844 33.2876 32.028C33.6156 32.212 33.8736 32.468 34.0616 32.796C34.2536 33.12 34.3496 33.486 34.3496 33.894C34.3496 34.306 34.2536 34.676 34.0616 35.004C33.8736 35.328 33.6156 35.582 33.2876 35.766C32.9596 35.95 32.5996 36.042 32.2076 36.042ZM32.2076 35.292C32.4596 35.292 32.6816 35.236 32.8736 35.124C33.0656 35.008 33.2156 34.844 33.3236 34.632C33.4316 34.42 33.4856 34.174 33.4856 33.894C33.4856 33.614 33.4316 33.37 33.3236 33.162C33.2156 32.95 33.0656 32.788 32.8736 32.676C32.6816 32.564 32.4596 32.508 32.2076 32.508C31.9556 32.508 31.7316 32.564 31.5356 32.676C31.3436 32.788 31.1936 32.95 31.0856 33.162C30.9776 33.37 30.9236 33.614 30.9236 33.894C30.9236 34.174 30.9776 34.42 31.0856 34.632C31.1936 34.844 31.3436 35.008 31.5356 35.124C31.7316 35.236 31.9556 35.292 32.2076 35.292Z" fill="black"/>
</g>
<defs>
<clipPath id="clip0_806_1547">
<rect width="24" height="22.5928" fill="white" transform="translate(16 17)"/>
</clipPath>
</defs>
</svg>
