<svg width="56" height="56" viewBox="0 0 56 56" fill="none" xmlns="http://www.w3.org/2000/svg">
<rect width="56" height="56" rx="20" fill="#F5C551" fill-opacity="0.3"/>
<path d="M20 22V32H25V28C25 27.4696 25.2107 26.9609 25.5858 26.5858C25.9609 26.2107 26.4696 26 27 26H32C32.5304 26 33.0391 26.2107 33.4142 26.5858C33.7893 26.9609 34 27.4696 34 28V32H36V22H20ZM16 36V34H20C19.4696 34 18.9609 33.7893 18.5858 33.4142C18.2107 33.0391 18 32.5304 18 32V22C18 21.4696 18.2107 20.9609 18.5858 20.5858C18.9609 20.2107 19.4696 20 20 20H36C36.5304 20 37.0391 20.2107 37.4142 20.5858C37.7893 20.9609 38 21.4696 38 22V32C38 32.5304 37.7893 33.0391 37.4142 33.4142C37.0391 33.7893 36.5304 34 36 34H40V36H34C34 37.11 33.1 38 32 38H27C26.4696 38 25.9609 37.7893 25.5858 37.4142C25.2107 37.0391 25 36.5304 25 36H16ZM27.5 36C27.3674 36 27.2402 36.0527 27.1464 36.1464C27.0527 36.2402 27 36.3674 27 36.5C27 36.6326 27.0527 36.7598 27.1464 36.8536C27.2402 36.9473 27.3674 37 27.5 37C27.6326 37 27.7598 36.9473 27.8536 36.8536C27.9473 36.7598 28 36.6326 28 36.5C28 36.3674 27.9473 36.2402 27.8536 36.1464C27.7598 36.0527 27.6326 36 27.5 36ZM31.5 36C31.3674 36 31.2402 36.0527 31.1464 36.1464C31.0527 36.2402 31 36.3674 31 36.5C31 36.6326 31.0527 36.7598 31.1464 36.8536C31.2402 36.9473 31.3674 37 31.5 37C31.6326 37 31.7598 36.9473 31.8536 36.8536C31.9473 36.7598 32 36.6326 32 36.5C32 36.3674 31.9473 36.2402 31.8536 36.1464C31.7598 36.0527 31.6326 36 31.5 36ZM29 36V37H30V36H29ZM27 28V35H32V28H27Z" fill="black"/>
</svg>
