<svg width="56" height="56" viewBox="0 0 56 56" fill="none" xmlns="http://www.w3.org/2000/svg">
<rect width="56" height="56" rx="20" fill="#5028A0" fill-opacity="0.3"/>
<path d="M35.2 37H18.67C18.3735 37.0002 18.0883 36.886 17.874 36.681C17.6597 36.476 17.5329 36.1962 17.52 35.9V21.82C17.52 21.6689 17.5498 21.5194 17.6076 21.3799C17.6654 21.2404 17.7501 21.1136 17.8568 21.0068C17.9636 20.9 18.0904 20.8153 18.2299 20.7575C18.3695 20.6997 18.519 20.67 18.67 20.67H28.22C28.3216 20.6596 28.4237 20.6857 28.5078 20.7436C28.5919 20.8016 28.6526 20.8876 28.6791 20.9863C28.7056 21.085 28.6961 21.1898 28.6523 21.2821C28.6084 21.3744 28.5332 21.4481 28.44 21.49H18.67C18.6324 21.4899 18.5951 21.4975 18.5605 21.5122C18.5259 21.5269 18.4945 21.5484 18.4684 21.5755C18.4423 21.6025 18.4219 21.6346 18.4084 21.6697C18.3949 21.7049 18.3887 21.7424 18.39 21.78V35.9C18.3887 35.9376 18.3949 35.9751 18.4084 36.0102C18.4219 36.0453 18.4423 36.0774 18.4684 36.1044C18.4945 36.1315 18.5259 36.153 18.5605 36.1677C18.5951 36.1824 18.6324 36.19 18.67 36.19H35.2C35.2769 36.19 35.3507 36.1594 35.4051 36.105C35.4595 36.0506 35.49 35.9769 35.49 35.9V28.2C35.5222 28.1238 35.5767 28.0592 35.6463 28.0146C35.7159 27.97 35.7974 27.9475 35.88 27.95C35.9923 27.9499 36.1002 27.9939 36.1806 28.0723C36.261 28.1508 36.3074 28.2577 36.31 28.37V35.9C36.2976 36.1894 36.1764 36.4635 35.9706 36.6675C35.7648 36.8714 35.4896 36.9901 35.2 37Z" fill="black"/>
<path d="M18.17 24H27C27.0451 24 27.0884 24.0179 27.1203 24.0498C27.1521 24.0817 27.17 24.1249 27.17 24.17V24.78C27.1781 24.806 27.1798 24.8336 27.1749 24.8605C27.17 24.8873 27.1588 24.9125 27.1421 24.9341C27.1255 24.9557 27.1039 24.9729 27.0791 24.9844C27.0544 24.9959 27.0273 25.0012 27 25H18.17V24Z" fill="black"/>
<path d="M20.2 22.5801H19.02C18.9372 22.5801 18.87 22.6472 18.87 22.7301V23.0801C18.87 23.1629 18.9372 23.2301 19.02 23.2301H20.2C20.2828 23.2301 20.35 23.1629 20.35 23.0801V22.7301C20.35 22.6472 20.2828 22.5801 20.2 22.5801Z" fill="black"/>
<path d="M22.35 22.5801H21.17C21.0872 22.5801 21.02 22.6472 21.02 22.7301V23.0801C21.02 23.1629 21.0872 23.2301 21.17 23.2301H22.35C22.4329 23.2301 22.5 23.1629 22.5 23.0801V22.7301C22.5 22.6472 22.4329 22.5801 22.35 22.5801Z" fill="black"/>
<path d="M24.0101 22.5801H22.8301C22.7472 22.5801 22.6801 22.6472 22.6801 22.7301V23.0801C22.6801 23.1629 22.7472 23.2301 22.8301 23.2301H24.0101C24.0929 23.2301 24.1601 23.1629 24.1601 23.0801V22.7301C24.1601 22.6472 24.0929 22.5801 24.0101 22.5801Z" fill="black"/>
<path d="M28.75 28.2H27.91C27.8272 28.2 27.76 28.2671 27.76 28.35V28.7C27.76 28.7828 27.8272 28.85 27.91 28.85H28.75C28.8329 28.85 28.9 28.7828 28.9 28.7V28.35C28.9 28.2671 28.8329 28.2 28.75 28.2Z" fill="black"/>
<path d="M25.45 26.4399H19.95C19.8395 26.4399 19.75 26.5295 19.75 26.6399V30.1999C19.75 30.3104 19.8395 30.3999 19.95 30.3999H25.45C25.5605 30.3999 25.65 30.3104 25.65 30.1999V26.6399C25.65 26.5295 25.5605 26.4399 25.45 26.4399Z" fill="black"/>
<path d="M33.46 30.0801H27.92C27.8316 30.0801 27.76 30.1517 27.76 30.2401V30.8301C27.76 30.9184 27.8316 30.9901 27.92 30.9901H33.46C33.5484 30.9901 33.62 30.9184 33.62 30.8301V30.2401C33.62 30.1517 33.5484 30.0801 33.46 30.0801Z" fill="black"/>
<path d="M33.4601 32.45H19.2201C19.1317 32.45 19.0601 32.5216 19.0601 32.61V32.9599C19.0601 33.0483 19.1317 33.12 19.2201 33.12H33.4601C33.5484 33.12 33.6201 33.0483 33.6201 32.9599V32.61C33.6201 32.5216 33.5484 32.45 33.4601 32.45Z" fill="black"/>
<path d="M33.4601 34.5801H19.2201C19.1317 34.5801 19.0601 34.6517 19.0601 34.7401V35.0901C19.0601 35.1784 19.1317 35.2501 19.2201 35.2501H33.4601C33.5484 35.2501 33.6201 35.1784 33.6201 35.0901V34.7401C33.6201 34.6517 33.5484 34.5801 33.4601 34.5801Z" fill="black"/>
<path d="M31.33 21.0601C30.8919 21.4551 30.5799 21.9705 30.4331 22.5418C30.2863 23.1132 30.3112 23.7152 30.5048 24.2724C30.6983 24.8297 31.0518 25.3176 31.5211 25.675C31.9904 26.0324 32.5547 26.2435 33.1434 26.282C33.732 26.3204 34.319 26.1844 34.8307 25.891C35.3425 25.5976 35.7565 25.1599 36.0208 24.6325C36.2851 24.1051 36.388 23.5115 36.3168 22.9259C36.2455 22.3403 36.0031 21.7887 35.62 21.3401C35.3598 21.0353 35.0411 20.7858 34.6829 20.6063C34.3246 20.4268 33.934 20.3208 33.5341 20.2947C33.1343 20.2686 32.7332 20.3229 32.3546 20.4543C31.9761 20.5858 31.6277 20.7918 31.33 21.0601ZM34.86 25.0601C34.5181 25.3597 34.0951 25.5513 33.6443 25.6107C33.1935 25.67 32.7353 25.5944 32.3275 25.3934C31.9196 25.1925 31.5805 24.8752 31.353 24.4816C31.1254 24.088 31.0196 23.6357 31.0489 23.182C31.0782 22.7283 31.2413 22.2935 31.5177 21.9325C31.794 21.5714 32.1711 21.3004 32.6014 21.1536C33.0317 21.0067 33.4959 20.9908 33.9353 21.1076C34.3746 21.2245 34.7695 21.4689 35.07 21.8101C35.2731 22.0376 35.4289 22.3031 35.5283 22.5914C35.6278 22.8796 35.6689 23.1847 35.6494 23.489C35.6299 23.7933 35.55 24.0907 35.4145 24.3638C35.279 24.637 35.0905 24.8804 34.86 25.0801V25.0601Z" fill="black"/>
<path d="M38.46 23.7901C38.46 23.5901 38.46 23.3901 38.46 23.1901C38.4752 22.9937 38.4752 22.7964 38.46 22.6001L37.46 22.4301L37.12 21.4301L37.8 20.6501C37.5693 20.3229 37.3008 20.0242 37 19.7601L36.08 20.2201L35.23 19.6401L35.32 18.6401C34.9667 18.4895 34.5978 18.3789 34.22 18.3101L33.74 19.2201H32.74L32.21 18.3301C31.8232 18.4177 31.4475 18.5486 31.09 18.7201L31.24 19.7201L30.43 20.3401L29.47 20.0001C29.2083 20.306 28.9834 20.6416 28.8 21.0001L29.52 21.7301L29.23 22.7301L28.23 22.9601C28.23 23.1601 28.23 23.3701 28.23 23.5801C28.2401 23.771 28.2601 23.9612 28.29 24.1501L29.29 24.3201L29.63 25.3201L28.95 26.1001C29.1561 26.4406 29.4011 26.756 29.68 27.0401L30.6 26.5801L31.45 27.1601L31.35 28.1601C31.7166 28.312 32.0989 28.4227 32.49 28.4901L33 27.5001H34L34.53 28.3901C34.9031 28.2998 35.2653 28.169 35.61 28.0001L35.46 27.0001L36.27 26.3801L37.22 26.7901C37.4811 26.4837 37.706 26.1481 37.89 25.7901L37.16 25.0001L37.45 24.0001L38.46 23.7901ZM35.56 25.8801C35.0588 26.3191 34.4388 26.5998 33.7782 26.6866C33.1176 26.7734 32.4461 26.6625 31.8486 26.3678C31.251 26.0731 30.7542 25.6078 30.421 25.0309C30.0877 24.454 29.933 23.7912 29.9763 23.1263C30.0196 22.4615 30.259 21.8243 30.6643 21.2955C31.0695 20.7667 31.6225 20.3698 32.2532 20.1551C32.8839 19.9404 33.5641 19.9175 34.2079 20.0892C34.8516 20.261 35.43 20.6197 35.87 21.1201C36.1638 21.4522 36.3889 21.8392 36.5324 22.2587C36.676 22.6783 36.735 23.1221 36.7062 23.5646C36.6774 24.0071 36.5613 24.4395 36.3645 24.8369C36.1678 25.2343 35.8944 25.5888 35.56 25.8801Z" fill="black"/>
</svg>
