<svg width="56" height="56" viewBox="0 0 56 56" fill="none" xmlns="http://www.w3.org/2000/svg">
<rect width="56" height="56" rx="20" fill="#055DEB" fill-opacity="0.3"/>
<path d="M19.9167 22.6167H36.5834C36.6709 22.6167 36.7576 22.6339 36.8385 22.6674C36.9194 22.7009 36.9929 22.7501 37.0548 22.812C37.1167 22.8739 37.1658 22.9474 37.1993 23.0282C37.2328 23.1091 37.2501 23.1958 37.2501 23.2834V25.7334C37.2501 25.8306 37.2114 25.9239 37.1427 25.9926C37.0739 26.0614 36.9806 26.1 36.8834 26.1H19.6667C19.5695 26.1 19.4762 26.0614 19.4074 25.9926C19.3387 25.9239 19.3001 25.8306 19.3001 25.7334V23.2834C19.2996 23.1149 19.3629 22.9525 19.4773 22.8288C19.5917 22.7051 19.7487 22.6293 19.9167 22.6167Z" fill="#202020"/>
<path d="M20.3999 27.3H27.0666V37.05H21.3332C21.2172 37.05 21.1024 37.0272 20.9952 36.9828C20.888 36.9384 20.7906 36.8734 20.7086 36.7913C20.6266 36.7093 20.5615 36.6119 20.5171 36.5048C20.4728 36.3976 20.4499 36.2827 20.4499 36.1667V27.3H20.3999Z" fill="#202020"/>
<path d="M35.1833 37.0334H29.4166V27.2834H36.0833V36.1667C36.0833 36.401 35.9902 36.6257 35.8245 36.7913C35.6589 36.957 35.4342 37.05 35.1999 37.05L35.1833 37.0334Z" fill="#202020"/>
<path d="M28.2667 23.3334C29.1504 23.3334 29.8667 22.7066 29.8667 21.9334C29.8667 21.1602 29.1504 20.5334 28.2667 20.5334C27.3831 20.5334 26.6667 21.1602 26.6667 21.9334C26.6667 22.7066 27.3831 23.3334 28.2667 23.3334Z" fill="#202020"/>
<path d="M22.5666 23.7667C21.8666 22.9334 20.8999 21.1667 21.9499 19.8667C22.1241 19.626 22.3453 19.4231 22.6001 19.2702C22.8548 19.1173 23.1379 19.0176 23.4323 18.9771C23.7267 18.9366 24.0262 18.9561 24.3128 19.0346C24.5994 19.113 24.8672 19.2487 25.0999 19.4334L27.6999 21.6167L26.8166 22.6501L24.2666 20.4834C24.1735 20.407 24.0655 20.3509 23.9495 20.3186C23.8334 20.2863 23.712 20.2785 23.5928 20.2958C23.4736 20.313 23.3594 20.3549 23.2573 20.4188C23.1552 20.4827 23.0675 20.5671 22.9999 20.6667C22.4166 21.4501 23.5666 22.8834 23.5832 22.9001L22.5666 23.7667Z" fill="#202020"/>
<path d="M34.0833 23.7666L33 22.9C33.3166 22.5333 34.0666 21.3333 33.5833 20.6833C33.5162 20.5801 33.4276 20.4927 33.3234 20.4272C33.2193 20.3617 33.1022 20.3195 32.9801 20.3037C32.8581 20.2878 32.7341 20.2986 32.6167 20.3354C32.4992 20.3722 32.3912 20.434 32.3 20.5166L29.6667 22.75L28.8167 21.7166L31.55 19.45C31.7816 19.2718 32.0462 19.1412 32.3286 19.0657C32.6109 18.9902 32.9053 18.9713 33.195 19.01C33.4846 19.0488 33.7638 19.1444 34.0164 19.2914C34.2689 19.4384 34.4899 19.6339 34.6666 19.8666C35.7 21.1666 34.7833 23 34.0833 23.7666Z" fill="#202020"/>
</svg>
