<svg width="56" height="56" viewBox="0 0 56 56" fill="none" xmlns="http://www.w3.org/2000/svg">
<rect width="56" height="56" rx="20" fill="#F5C551" fill-opacity="0.3"/>
<path d="M28.6667 36.4526H18.2837C17.7533 36.4526 17.2446 36.2709 16.8695 35.9474C16.4944 35.6239 16.2837 35.1852 16.2837 34.7278V17.9572C16.2874 17.5019 16.4998 17.0663 16.8745 16.7455C17.2491 16.4247 17.7557 16.2446 18.2837 16.2446H37.7305C38.2572 16.2446 38.7623 16.4251 39.1347 16.7462C39.5071 17.0674 39.7163 17.503 39.7163 17.9572V30.74" stroke="black" stroke-width="0.4" stroke-miterlimit="10"/>
<path d="M37.149 23.1069H19.5461C19.2328 23.1069 18.9788 23.326 18.9788 23.5962V24.5993C18.9788 24.8695 19.2328 25.0886 19.5461 25.0886H37.149C37.4623 25.0886 37.7163 24.8695 37.7163 24.5993V23.5962C37.7163 23.326 37.4623 23.1069 37.149 23.1069Z" fill="black"/>
<path d="M26.2553 26.3486H20.3263C19.8641 26.3486 19.4894 26.6718 19.4894 27.0703V32.3792C19.4894 32.7778 19.8641 33.1009 20.3263 33.1009H26.2553C26.7175 33.1009 27.0922 32.7778 27.0922 32.3792V27.0703C27.0922 26.6718 26.7175 26.3486 26.2553 26.3486Z" stroke="black" stroke-width="0.2" stroke-miterlimit="10"/>
<path d="M37.7021 16.2446H18.0142C17.5614 16.2413 17.1255 16.3924 16.8014 16.6651C16.4772 16.9377 16.2912 17.3098 16.2837 17.7002V20.8929H39.7163V17.9449C39.7145 17.7189 39.6608 17.4955 39.5584 17.2876C39.456 17.0796 39.3069 16.8912 39.1197 16.7331C38.9324 16.5751 38.7108 16.4505 38.4675 16.3667C38.2242 16.2828 37.9641 16.2413 37.7021 16.2446ZM20.5816 19.425H18.7943C18.531 19.425 18.2784 19.3348 18.0922 19.1742C17.906 19.0136 17.8014 18.7958 17.8014 18.5687C17.8014 18.3416 17.906 18.1238 18.0922 17.9632C18.2784 17.8027 18.531 17.7125 18.7943 17.7125H20.5816C20.8449 17.7125 21.0974 17.8027 21.2837 17.9632C21.4699 18.1238 21.5745 18.3416 21.5745 18.5687C21.5745 18.7958 21.4699 19.0136 21.2837 19.1742C21.0974 19.3348 20.8449 19.425 20.5816 19.425Z" fill="black"/>
<path d="M32.3688 38.0551C32.3121 38.2605 32.3088 38.4742 32.3591 38.6809C32.4095 38.8875 32.5122 39.082 32.66 39.2504C32.8078 39.4187 32.9969 39.5568 33.2139 39.6547C33.4309 39.7526 33.6702 39.8079 33.9149 39.8166C34.1339 39.8194 34.351 39.7804 34.5506 39.7026C34.7502 39.6248 34.9275 39.5099 35.0697 39.3662C35.212 39.2225 35.3157 39.0535 35.3735 38.8713C35.4313 38.6891 35.4418 38.4981 35.4043 38.312C35.3191 37.0887 34.9504 34.7401 34.9504 34.7401C34.944 34.6664 34.9561 34.5924 34.986 34.5231C35.0158 34.4539 35.0626 34.391 35.1232 34.3387C35.1838 34.2865 35.2567 34.2461 35.3371 34.2204C35.4174 34.1946 35.5032 34.1842 35.5887 34.1896H37.3759C37.5252 34.1834 37.6659 34.1278 37.7689 34.0344C37.8719 33.941 37.9293 33.817 37.9291 33.6881V30.2997C37.9292 30.2318 37.9132 30.1645 37.8823 30.102C37.8513 30.0395 37.8059 29.9831 37.7488 29.9362C37.6918 29.8893 37.6243 29.8528 37.5504 29.8291C37.4766 29.8054 37.3979 29.7949 37.3191 29.7982L30.3546 29.945C30.2016 29.9513 30.0572 30.0082 29.9516 30.1039C29.8459 30.1995 29.7871 30.3266 29.7872 30.4588V33.7737C29.7904 33.905 29.8504 34.0305 29.9554 34.1255C30.0603 34.2206 30.2027 34.2784 30.3546 34.2875L32.695 34.3976L32.3404 38.1529" stroke="black" stroke-width="0.3" stroke-miterlimit="10"/>
<path d="M30.0568 29.8471V26.7401C30.0568 26.7401 30.0568 26.3242 30.4539 26.4954C30.6518 26.6287 30.8844 26.7184 31.1316 26.7568C31.3787 26.7951 31.633 26.781 31.8724 26.7156C32.383 26.5077 32.8653 26.1896 33.4752 26.7156C34.0851 27.2416 34.7943 26.5566 34.7943 26.5566C34.7943 26.5566 35.1348 26.2385 35.8298 26.7034C36.5248 27.1682 37.3334 26.5077 37.3334 26.5077C37.3334 26.5077 37.6738 26.2997 37.7589 26.6544C37.844 27.0092 37.6738 29.7492 37.6738 29.7492L30.0568 29.8471Z" stroke="black" stroke-width="0.3" stroke-miterlimit="10"/>
<path d="M35.6312 28.8684H35.8581C35.8882 28.8684 35.9171 28.8787 35.9384 28.8971C35.9596 28.9154 35.9716 28.9403 35.9716 28.9663V29.6757H35.5177V28.9663C35.5177 28.9403 35.5297 28.9154 35.5509 28.8971C35.5722 28.8787 35.6011 28.8684 35.6312 28.8684Z" fill="black"/>
<path d="M33.7447 28.8931H33.9717C34.0017 28.8931 34.0306 28.9034 34.0519 28.9217C34.0732 28.9401 34.0851 28.965 34.0851 28.9909V29.7004H33.6312V28.9909C33.6312 28.965 33.6432 28.9401 33.6645 28.9217C33.6857 28.9034 33.7146 28.8931 33.7447 28.8931Z" fill="black"/>
<path d="M31.8298 28.9419H32.0567C32.0868 28.9419 32.1157 28.9522 32.137 28.9706C32.1583 28.9889 32.1702 29.0138 32.1702 29.0398V29.7492H31.7163V29.0398C31.7163 29.0138 31.7283 28.9889 31.7495 28.9706C31.7708 28.9522 31.7997 28.9419 31.8298 28.9419Z" fill="black"/>
<path d="M35.3334 28.0488C34.766 28.5136 33.9859 28.11 33.6738 27.9143C33.2879 27.7763 32.8627 27.7422 32.4539 27.8164H32.3546C32.3259 27.8248 32.3016 27.8417 32.286 27.8641C32.2704 27.8865 32.2646 27.9129 32.2695 27.9387V27.9999C32.2728 28.0129 32.2792 28.0253 32.2882 28.0362C32.2972 28.047 32.3088 28.0562 32.3221 28.063C32.3353 28.0699 32.3501 28.0744 32.3655 28.0761C32.3809 28.0779 32.3965 28.0769 32.4114 28.0733C32.7624 27.9792 33.1383 27.9792 33.4894 28.0733C33.7606 28.2967 34.1153 28.4293 34.4897 28.4473C34.8642 28.4652 35.2338 28.3673 35.532 28.1711C36.0993 27.7063 37.5461 28.3302 37.5603 28.3302V28.0733C37.5603 28.0733 36.0568 27.4494 35.3334 28.0488Z" fill="black"/>
<path d="M33.8865 38.9601C34.2547 38.9601 34.5532 38.7027 34.5532 38.3852C34.5532 38.0677 34.2547 37.8103 33.8865 37.8103C33.5183 37.8103 33.2198 38.0677 33.2198 38.3852C33.2198 38.7027 33.5183 38.9601 33.8865 38.9601Z" stroke="black" stroke-width="0.1" stroke-miterlimit="10"/>
<path d="M37.9432 30.8623H29.8014V31.3638H37.9432V30.8623Z" fill="black"/>
</svg>
