<svg width="56" height="56" viewBox="0 0 56 56" fill="none" xmlns="http://www.w3.org/2000/svg">
<rect width="56" height="56" rx="20" fill="#5028A0" fill-opacity="0.3"/>
<path d="M15.4492 17H35.7545C36.1388 17 36.5074 17.1527 36.7792 17.4244C37.0509 17.6962 37.2036 18.0647 37.2036 18.4491V20.6226H14.0001V18.4676C13.9977 18.2758 14.0333 18.0854 14.105 17.9074C14.1768 17.7294 14.2831 17.5675 14.4179 17.431C14.5527 17.2944 14.7133 17.186 14.8903 17.1121C15.0673 17.0381 15.2573 17 15.4492 17Z" fill="#202020"/>
<path d="M19.6258 24.3987H18.0839C17.8766 24.4292 17.6871 24.5332 17.5501 24.6918C17.4131 24.8504 17.3378 25.053 17.3378 25.2625C17.3378 25.4721 17.4131 25.6747 17.5501 25.8333C17.6871 25.9919 17.8766 26.0959 18.0839 26.1264H19.6258C19.8332 26.0959 20.0226 25.9919 20.1596 25.8333C20.2966 25.6747 20.372 25.4721 20.372 25.2625C20.372 25.053 20.2966 24.8504 20.1596 24.6918C20.0226 24.5332 19.8332 24.4292 19.6258 24.3987ZM19.6258 25.5691H18.0839C18.0449 25.5691 18.0062 25.5614 17.9701 25.5464C17.9341 25.5315 17.9013 25.5096 17.8737 25.482C17.8461 25.4544 17.8242 25.4216 17.8093 25.3856C17.7943 25.3495 17.7867 25.3109 17.7867 25.2718C17.7815 25.2289 17.7852 25.1853 17.7976 25.1438C17.81 25.1024 17.8308 25.0639 17.8587 25.0308C17.8865 24.9977 17.9209 24.9707 17.9596 24.9514C17.9984 24.9322 18.0407 24.9211 18.0839 24.9189H19.6258C19.7063 24.9236 19.782 24.959 19.8372 25.0177C19.8925 25.0764 19.9232 25.154 19.9231 25.2347C19.9284 25.2767 19.9246 25.3194 19.9121 25.3599C19.8995 25.4003 19.8785 25.4376 19.8503 25.4693C19.8222 25.501 19.7876 25.5263 19.7489 25.5435C19.7102 25.5607 19.6682 25.5694 19.6258 25.5691Z" fill="#202020"/>
<path d="M33.7698 30.6021C33.765 30.377 33.6735 30.1624 33.5142 30.0031C33.355 29.8439 33.1404 29.7523 32.9152 29.7476H21.9358C21.7285 29.778 21.539 29.8821 21.4021 30.0407C21.2651 30.1993 21.1897 30.4019 21.1897 30.6114C21.1897 30.821 21.2651 31.0236 21.4021 31.1822C21.539 31.3408 21.7285 31.4448 21.9358 31.4753H32.9152C33.1435 31.4704 33.3609 31.3763 33.5206 31.2131C33.6804 31.0498 33.7698 30.8305 33.7698 30.6021ZM21.6757 30.6021C21.6757 30.5233 21.7071 30.4477 21.7628 30.3919C21.8185 30.3362 21.8941 30.3049 21.973 30.3049H32.9524C33.0312 30.3049 33.1068 30.3362 33.1625 30.3919C33.2183 30.4477 33.2496 30.5233 33.2496 30.6021C33.2521 30.6427 33.2463 30.6834 33.2325 30.7216C33.2187 30.7598 33.1972 30.7948 33.1694 30.8244C33.1415 30.854 33.1079 30.8776 33.0706 30.8937C33.0332 30.9098 32.993 30.918 32.9524 30.9179H21.9358C21.8603 30.9086 21.7912 30.8707 21.7428 30.8119C21.6944 30.7531 21.6704 30.6781 21.6757 30.6021Z" fill="#202020"/>
<path d="M21.9358 32.3474C21.7285 32.3779 21.539 32.482 21.4021 32.6405C21.2651 32.7991 21.1897 33.0017 21.1897 33.2113C21.1897 33.4208 21.2651 33.6234 21.4021 33.782C21.539 33.9406 21.7285 34.0447 21.9358 34.0751H30.9645C31.0886 34.0934 31.2152 34.0847 31.3356 34.0497C31.456 34.0146 31.5674 33.954 31.6623 33.8721C31.7572 33.7901 31.8333 33.6887 31.8855 33.5746C31.9377 33.4606 31.9647 33.3367 31.9647 33.2113C31.9647 33.0859 31.9377 32.962 31.8855 32.8479C31.8333 32.7339 31.7572 32.6325 31.6623 32.5505C31.5674 32.4685 31.456 32.408 31.3356 32.3729C31.2152 32.3379 31.0886 32.3292 30.9645 32.3474H21.9358ZM31.2246 33.202C31.2246 33.2858 31.1914 33.3661 31.1321 33.4253C31.0729 33.4845 30.9926 33.5178 30.9088 33.5178H21.9358C21.8733 33.5083 21.815 33.4801 21.7686 33.4371C21.7223 33.394 21.6899 33.338 21.6757 33.2763C21.6757 33.1975 21.7071 33.1219 21.7628 33.0661C21.8185 33.0104 21.8941 32.9791 21.973 32.9791H30.9645C31.0368 32.9882 31.1032 33.0235 31.1511 33.0782C31.199 33.133 31.2252 33.2035 31.2246 33.2763V33.202Z" fill="#202020"/>
<path d="M19.6258 32.3518H18.0839C17.8766 32.3823 17.6871 32.4863 17.5501 32.6449C17.4131 32.8035 17.3378 33.0061 17.3378 33.2157C17.3378 33.4252 17.4131 33.6278 17.5501 33.7864C17.6871 33.945 17.8766 34.049 18.0839 34.0795H19.6258C19.8332 34.049 20.0226 33.945 20.1596 33.7864C20.2966 33.6278 20.372 33.4252 20.372 33.2157C20.372 33.0061 20.2966 32.8035 20.1596 32.6449C20.0226 32.4863 19.8332 32.3823 19.6258 32.3518ZM19.6258 33.5222H18.0839C18.0034 33.5175 17.9278 33.4821 17.8725 33.4234C17.8172 33.3647 17.7865 33.287 17.7867 33.2064C17.7867 33.1275 17.818 33.0519 17.8737 32.9962C17.9295 32.9405 18.0051 32.9091 18.0839 32.9091H19.6258C19.7047 32.9091 19.7803 32.9405 19.836 32.9962C19.8918 33.0519 19.9231 33.1275 19.9231 33.2064C19.9342 33.252 19.9349 33.2996 19.9253 33.3456C19.9156 33.3916 19.8959 33.4349 19.8674 33.4722C19.8389 33.5096 19.8024 33.5402 19.7606 33.5617C19.7189 33.5832 19.6728 33.5951 19.6258 33.5965V33.5222Z" fill="#202020"/>
<path d="M19.6258 29.7476H18.0839C17.8766 29.778 17.6871 29.8821 17.5501 30.0407C17.4131 30.1993 17.3378 30.4019 17.3378 30.6114C17.3378 30.821 17.4131 31.0236 17.5501 31.1822C17.6871 31.3408 17.8766 31.4448 18.0839 31.4753H19.6258C19.8332 31.4448 20.0226 31.3408 20.1596 31.1822C20.2966 31.0236 20.372 30.821 20.372 30.6114C20.372 30.4019 20.2966 30.1993 20.1596 30.0407C20.0226 29.8821 19.8332 29.778 19.6258 29.7476ZM19.6258 30.9179H18.0839C18.0432 30.918 18.003 30.9098 17.9657 30.8937C17.9284 30.8776 17.8947 30.854 17.8669 30.8244C17.839 30.7948 17.8175 30.7598 17.8037 30.7216C17.7899 30.6834 17.7841 30.6427 17.7867 30.6021C17.7867 30.5233 17.818 30.4477 17.8737 30.3919C17.9295 30.3362 18.0051 30.3049 18.0839 30.3049H19.6258C19.7047 30.3049 19.7803 30.3362 19.836 30.3919C19.8918 30.4477 19.9231 30.5233 19.9231 30.6021C19.9256 30.6427 19.9198 30.6834 19.906 30.7216C19.8922 30.7598 19.8707 30.7948 19.8429 30.8244C19.815 30.854 19.7814 30.8776 19.744 30.8937C19.7067 30.9098 19.6665 30.918 19.6258 30.9179Z" fill="#202020"/>
<path d="M32.9152 24.3987H21.9358C21.7285 24.4292 21.539 24.5332 21.4021 24.6918C21.2651 24.8504 21.1897 25.053 21.1897 25.2625C21.1897 25.4721 21.2651 25.6747 21.4021 25.8333C21.539 25.9919 21.7285 26.0959 21.9358 26.1264H32.9152C33.1225 26.0959 33.312 25.9919 33.449 25.8333C33.586 25.6747 33.6613 25.4721 33.6613 25.2625C33.6613 25.053 33.586 24.8504 33.449 24.6918C33.312 24.5332 33.1225 24.4292 32.9152 24.3987ZM32.9152 25.5691H21.9358C21.8636 25.56 21.7972 25.5247 21.7493 25.4699C21.7013 25.4151 21.6752 25.3446 21.6757 25.2718C21.665 25.1908 21.686 25.1087 21.7345 25.0429C21.7831 24.977 21.8552 24.9326 21.9358 24.9189H32.9152C32.9957 24.9236 33.0713 24.959 33.1266 25.0177C33.1819 25.0764 33.2126 25.154 33.2124 25.2347C33.2177 25.2767 33.214 25.3194 33.2014 25.3599C33.1889 25.4003 33.1678 25.4376 33.1397 25.4693C33.1115 25.501 33.077 25.5263 33.0382 25.5435C32.9995 25.5607 32.9576 25.5694 32.9152 25.5691Z" fill="#202020"/>
<path d="M19.6258 27.0713H18.0839C17.8766 27.1018 17.6871 27.2058 17.5501 27.3644C17.4131 27.523 17.3378 27.7256 17.3378 27.9351C17.3378 28.1447 17.4131 28.3473 17.5501 28.5059C17.6871 28.6645 17.8766 28.7685 18.0839 28.799H19.6258C19.8332 28.7685 20.0226 28.6645 20.1596 28.5059C20.2966 28.3473 20.372 28.1447 20.372 27.9351C20.372 27.7256 20.2966 27.523 20.1596 27.3644C20.0226 27.2058 19.8332 27.1018 19.6258 27.0713ZM19.6258 28.2417H18.0839C18.0051 28.2417 17.9295 28.2104 17.8737 28.1546C17.818 28.0989 17.7867 28.0233 17.7867 27.9444C17.7841 27.9039 17.7899 27.8632 17.8037 27.825C17.8175 27.7867 17.839 27.7517 17.8669 27.7221C17.8947 27.6925 17.9284 27.669 17.9657 27.6529C18.003 27.6368 18.0432 27.6285 18.0839 27.6286H19.6258C19.6665 27.6285 19.7067 27.6368 19.744 27.6529C19.7814 27.669 19.815 27.6925 19.8429 27.7221C19.8707 27.7517 19.8922 27.7867 19.906 27.825C19.9198 27.8632 19.9256 27.9039 19.9231 27.9444C19.9231 28.0233 19.8918 28.0989 19.836 28.1546C19.7803 28.2104 19.7047 28.2417 19.6258 28.2417Z" fill="#202020"/>
<path d="M32.9152 27.0713H21.9358C21.7285 27.1018 21.539 27.2058 21.4021 27.3644C21.2651 27.523 21.1897 27.7256 21.1897 27.9351C21.1897 28.1447 21.2651 28.3473 21.4021 28.5059C21.539 28.6645 21.7285 28.7685 21.9358 28.799H32.9152C33.1225 28.7685 33.312 28.6645 33.449 28.5059C33.586 28.3473 33.6613 28.1447 33.6613 27.9351C33.6613 27.7256 33.586 27.523 33.449 27.3644C33.312 27.2058 33.1225 27.1018 32.9152 27.0713ZM32.9152 28.2417H21.9358C21.8636 28.2326 21.7972 28.1973 21.7493 28.1425C21.7013 28.0877 21.6752 28.0172 21.6757 27.9444C21.6732 27.9039 21.679 27.8632 21.6928 27.825C21.7066 27.7867 21.7281 27.7517 21.7559 27.7221C21.7838 27.6925 21.8174 27.669 21.8548 27.6529C21.8921 27.6368 21.9323 27.6285 21.973 27.6286H32.9524C32.993 27.6285 33.0332 27.6368 33.0706 27.6529C33.1079 27.669 33.1415 27.6925 33.1694 27.7221C33.1972 27.7517 33.2187 27.7867 33.2325 27.825C33.2463 27.8632 33.2521 27.9039 33.2496 27.9444C33.2499 27.9868 33.2412 28.0288 33.224 28.0675C33.2068 28.1062 33.1815 28.1408 33.1498 28.1689C33.1182 28.1971 33.0809 28.2181 33.0404 28.2307C32.9999 28.2432 32.9572 28.247 32.9152 28.2417Z" fill="#202020"/>
<path d="M37.0333 37.9245H15.1674C15.0098 37.9245 14.8586 37.8619 14.7471 37.7504C14.6356 37.6389 14.573 37.4877 14.573 37.33V21.9106H36.8661V30.8093H37.4234V21.6319V21.3533H14.0156V37.3672C14.0156 37.6727 14.137 37.9656 14.353 38.1816C14.569 38.3976 14.862 38.519 15.1674 38.519H37.0333C37.1008 38.5146 37.1645 38.4858 37.2124 38.438C37.2602 38.3901 37.289 38.3265 37.2934 38.2589C37.3015 38.2195 37.3009 38.1787 37.2918 38.1395C37.2826 38.1003 37.2651 38.0636 37.2404 38.0318C37.2157 38 37.1844 37.974 37.1486 37.9555C37.1129 37.9369 37.0735 37.9264 37.0333 37.9245Z" fill="#202020"/>
<path d="M41.6067 28.5108L41.2537 28.1578C41.1396 28.0421 41.0037 27.9502 40.8538 27.8875C40.7039 27.8248 40.543 27.7925 40.3805 27.7925C40.2181 27.7925 40.0572 27.8248 39.9073 27.8875C39.7574 27.9502 39.6215 28.0421 39.5074 28.1578L33.191 34.4742C33.105 34.56 33.0441 34.6676 33.0146 34.7854C32.9851 34.9032 32.9883 35.0268 33.0238 35.143C33.0007 35.1344 32.9759 35.1311 32.9513 35.1333C32.9268 35.1354 32.903 35.143 32.8817 35.1554C32.8604 35.1678 32.8421 35.1848 32.8281 35.2052C32.8141 35.2255 32.8048 35.2487 32.8009 35.273L32.3179 37.1308C32.3059 37.1695 32.3048 37.2108 32.3146 37.2501C32.3243 37.2894 32.3446 37.3254 32.3733 37.354C32.4019 37.3827 32.4379 37.403 32.4772 37.4128C32.5165 37.4225 32.5578 37.4214 32.5965 37.4095L34.4543 36.9264C34.4902 36.9174 34.523 36.8989 34.5492 36.8727C34.5753 36.8465 34.5939 36.8137 34.6029 36.7778C34.6887 36.7953 34.7772 36.7953 34.863 36.7778C34.9531 36.7781 35.0424 36.7601 35.1254 36.725C35.2084 36.6898 35.2834 36.6383 35.346 36.5735L41.681 30.2571C41.9005 30.0146 42.0158 29.6955 42.0019 29.3687C41.988 29.0419 41.846 28.7337 41.6067 28.5108ZM34.993 36.2762C34.945 36.3206 34.882 36.3453 34.8165 36.3453C34.7511 36.3453 34.6881 36.3206 34.6401 36.2762L33.5068 35.1244C33.4798 35.1036 33.458 35.0768 33.4429 35.0462C33.4279 35.0156 33.4201 34.982 33.4201 34.9479C33.4201 34.9138 33.4279 34.8802 33.4429 34.8496C33.458 34.819 33.4798 34.7923 33.5068 34.7714L39.4331 28.8452L40.9936 30.2571L34.993 36.2762Z" fill="#202020"/>
</svg>
