<svg width="16" height="16" viewBox="0 0 16 16" fill="none" xmlns="http://www.w3.org/2000/svg">
<path d="M6.90302 5.61523H8.40302V4.11523H6.90302V5.61523ZM7.65302 13.8652C4.34552 13.8652 1.65302 11.1727 1.65302 7.86523C1.65302 4.55773 4.34552 1.86523 7.65302 1.86523C10.9605 1.86523 13.653 4.55773 13.653 7.86523C13.653 11.1727 10.9605 13.8652 7.65302 13.8652ZM7.65302 0.365234C6.6681 0.365234 5.69283 0.559228 4.78289 0.936138C3.87295 1.31305 3.04615 1.86549 2.34971 2.56193C0.943191 3.96846 0.153015 5.87611 0.153015 7.86523C0.153015 9.85436 0.943191 11.762 2.34971 13.1685C3.04615 13.865 3.87295 14.4174 4.78289 14.7943C5.69283 15.1712 6.6681 15.3652 7.65302 15.3652C9.64214 15.3652 11.5498 14.5751 12.9563 13.1685C14.3628 11.762 15.153 9.85436 15.153 7.86523C15.153 6.88032 14.959 5.90505 14.5821 4.99511C14.2052 4.08517 13.6528 3.25837 12.9563 2.56193C12.2599 1.86549 11.4331 1.31305 10.5231 0.936138C9.6132 0.559228 8.63793 0.365234 7.65302 0.365234ZM6.90302 11.6152H8.40302V7.11523H6.90302V11.6152Z" fill="#0184FF"/>
</svg>
