<svg width="24" height="24" viewBox="0 0 24 24" fill="none" xmlns="http://www.w3.org/2000/svg">
<path fill-rule="evenodd" clip-rule="evenodd" d="M2.25 2.5C2.25 2.08579 2.58579 1.75 3 1.75H17C17.4142 1.75 17.75 2.08579 17.75 2.5V10C17.75 10.4142 17.4142 10.75 17 10.75H3C2.58579 10.75 2.25 10.4142 2.25 10V2.5ZM3.75 3.25V9.25H16.25V3.25H3.75Z" fill="#1C1B1F"/>
<path fill-rule="evenodd" clip-rule="evenodd" d="M16.2626 6C16.2626 5.58579 16.5983 5.25 17.0126 5.25H21.5C21.9142 5.25 22.25 5.58579 22.25 6V14.0507C22.25 14.4278 21.97 14.7462 21.596 14.7945L10.25 16.2596V21.5C10.25 21.9142 9.91421 22.25 9.5 22.25C9.08579 22.25 8.75 21.9142 8.75 21.5V15.6002C8.75 15.2231 9.02998 14.9047 9.40395 14.8564L20.75 13.3913V6.75H17.0126C16.5983 6.75 16.2626 6.41421 16.2626 6Z" fill="#1C1B1F"/>
</svg>
