<svg width="13" height="13" viewBox="0 0 13 13" fill="none" xmlns="http://www.w3.org/2000/svg">
<path d="M6.13358 8.18837C6.50733 8.33625 6.84858 8.53288 7.1557 8.77744C7.46283 9.02119 7.72526 9.30556 7.94383 9.62731C8.38959 10.2765 8.62967 11.0449 8.63283 11.8324V12.1875H7.92189V11.8316C7.92341 11.4114 7.84121 10.9951 7.68009 10.607C7.51896 10.2189 7.28214 9.86682 6.98345 9.57125C6.69027 9.28223 6.3455 9.05073 5.96701 8.88875C5.57365 8.72022 5.15021 8.63315 4.72226 8.63281C4.30205 8.63129 3.88575 8.71349 3.49766 8.87462C3.10957 9.03574 2.75746 9.27256 2.46189 9.57125C2.17296 9.86451 1.94147 10.2093 1.77939 10.5877C1.61201 10.9728 1.52751 11.388 1.52345 11.8316V12.1875H0.812513V11.8316C0.810435 11.0435 1.05099 10.2739 1.50151 9.62731C1.95025 8.97991 2.58033 8.47957 3.31258 8.18919C3.14623 8.07489 2.99475 7.94034 2.86164 7.78863C2.7301 7.63928 2.6164 7.47514 2.52283 7.2995C2.42962 7.12402 2.35865 6.9376 2.31158 6.74456C2.26357 6.54792 2.23768 6.34652 2.23439 6.14412C2.23439 5.80044 2.29939 5.47788 2.42939 5.17806C2.68359 4.58406 3.15667 4.11069 3.75051 3.85612C4.05688 3.72571 4.38628 3.65801 4.71925 3.65703C5.05222 3.65605 5.38201 3.72182 5.68914 3.85044C6.28329 4.10483 6.75668 4.57822 7.01108 5.17238C7.22146 5.66711 7.26621 6.21662 7.13864 6.73887C7.08989 6.93144 7.01839 7.11669 6.92251 7.29462C6.82725 7.47074 6.71369 7.63632 6.5837 7.78863C6.4537 7.94056 6.30339 8.073 6.13358 8.18837ZM4.72226 7.92188C4.96683 7.92188 5.19676 7.87556 5.41126 7.78375C5.83655 7.60304 6.17505 7.26425 6.35539 6.83881C6.45208 6.62025 6.50001 6.38869 6.50001 6.14494C6.50106 5.91227 6.45535 5.68177 6.3656 5.46711C6.27586 5.25245 6.14391 5.058 5.97758 4.89531C5.81306 4.73489 5.6213 4.60503 5.41126 4.51181C5.19454 4.41502 4.95962 4.3657 4.72226 4.36719C4.47851 4.36719 4.24858 4.4135 4.03408 4.50531C3.60644 4.68771 3.26584 5.02831 3.08345 5.45594C2.99164 5.67044 2.94533 5.90038 2.94533 6.14494C2.94533 6.38869 2.99164 6.61862 3.08345 6.83313C3.17689 7.04763 3.30283 7.23694 3.46208 7.39944C3.62694 7.56603 3.82339 7.69805 4.03992 7.78776C4.25645 7.87747 4.4887 7.92306 4.72308 7.92188H4.72226ZM12.1875 0.8125V6.5H10.7656L8.63283 8.63281V6.5H7.92189V5.78906H9.34376V6.91681L10.4715 5.78906H11.4766V1.52344H4.3672V2.80069C4.24803 2.81574 4.12935 2.83444 4.01133 2.85675C3.8903 2.87973 3.7715 2.91316 3.65626 2.95669V0.8125H12.1875Z" fill="#0184FF"/>
</svg>
