<svg width="13" height="13" viewBox="0 0 13 13" fill="none" xmlns="http://www.w3.org/2000/svg">
<path d="M5.68789 2.43789C5.68789 1.96382 5.49957 1.50916 5.16434 1.17394C4.82912 0.838716 4.37446 0.650391 3.90039 0.650391C3.42632 0.650391 2.97166 0.838716 2.63644 1.17394C2.30122 1.50916 2.11289 1.96382 2.11289 2.43789C2.11289 2.91196 2.30122 3.36662 2.63644 3.70184C2.97166 4.03707 3.42632 4.22539 3.90039 4.22539C4.37446 4.22539 4.82912 4.03707 5.16434 3.70184C5.49957 3.36662 5.68789 2.91196 5.68789 2.43789ZM2.76289 2.43789C2.76289 2.28851 2.79231 2.1406 2.84948 2.00259C2.90664 1.86458 2.99043 1.73918 3.09606 1.63356C3.20168 1.52793 3.32708 1.44414 3.46509 1.38698C3.6031 1.32981 3.75101 1.30039 3.90039 1.30039C4.04977 1.30039 4.19769 1.32981 4.33569 1.38698C4.4737 1.44414 4.5991 1.52793 4.70472 1.63356C4.81035 1.73918 4.89414 1.86458 4.9513 2.00259C5.00847 2.1406 5.03789 2.28851 5.03789 2.43789C5.03789 2.73957 4.91805 3.0289 4.70472 3.24222C4.4914 3.45555 4.20207 3.57539 3.90039 3.57539C3.59871 3.57539 3.30938 3.45555 3.09606 3.24222C2.88273 3.0289 2.76289 2.73957 2.76289 2.43789ZM1.62539 4.87539H4.34434C4.23774 5.07689 4.15844 5.29529 4.11164 5.52539H1.62539C1.5392 5.52539 1.45653 5.55963 1.39558 5.62058C1.33463 5.68153 1.30039 5.76419 1.30039 5.85039V6.17539C1.30039 6.99439 2.01474 7.87449 3.31279 8.07989C3.10349 8.22289 2.92929 8.41334 2.80514 8.63499C1.43364 8.26384 0.650391 7.20694 0.650391 6.17539V5.85039C0.650391 5.5918 0.753114 5.34381 0.935962 5.16096C1.11881 4.97811 1.3668 4.87539 1.62539 4.87539ZM5.12174 4.87539C5.44934 4.47889 5.94529 4.22539 6.50039 4.22539C6.88965 4.22471 7.26845 4.3514 7.57899 4.58612C7.88952 4.82084 8.11475 5.15071 8.22029 5.52539C8.31437 5.85981 8.30907 6.21439 8.20503 6.54585C8.101 6.87731 7.90273 7.17132 7.63442 7.39201C7.36612 7.61269 7.03937 7.7505 6.69407 7.78862C6.34876 7.82674 5.99983 7.76353 5.68984 7.60669C5.45117 7.48522 5.24284 7.31167 5.08026 7.09887C4.91767 6.88607 4.80497 6.63946 4.7505 6.37725C4.69602 6.11505 4.70116 5.84395 4.76553 5.584C4.8299 5.32405 4.95186 5.08188 5.12239 4.87539H5.12174ZM5.47274 5.52539C5.40872 5.66043 5.37193 5.80675 5.36446 5.95601C5.35699 6.10527 5.37899 6.25454 5.42921 6.39529C5.47943 6.53605 5.55688 6.66553 5.65714 6.77636C5.7574 6.88718 5.8785 6.97717 6.01354 7.04119C6.14858 7.10521 6.2949 7.142 6.44416 7.14947C6.59342 7.15694 6.74269 7.13494 6.88344 7.08472C7.0242 7.03451 7.15368 6.95706 7.26451 6.8568C7.37533 6.75654 7.46532 6.63543 7.52934 6.50039C7.65863 6.22758 7.67426 5.91459 7.57278 5.63026C7.4713 5.34593 7.26102 5.11356 6.98822 4.98427C6.71541 4.85497 6.40241 4.83935 6.11808 4.94083C5.83375 5.04231 5.60138 5.25258 5.47209 5.52539H5.47274ZM10.1956 8.63499C10.0718 8.41322 9.89801 8.22338 9.68799 8.08054C10.9854 7.87449 11.7004 6.99374 11.7004 6.17539V5.85039C11.7004 5.76419 11.6661 5.68153 11.6052 5.62058C11.5443 5.55963 11.4616 5.52539 11.3754 5.52539H8.88914C8.84322 5.29876 8.76507 5.07987 8.65709 4.87539H11.3754C11.634 4.87539 11.882 4.97811 12.0648 5.16096C12.2477 5.34381 12.3504 5.5918 12.3504 5.85039V6.17539C12.3504 7.20694 11.5665 8.26319 10.1956 8.63499ZM9.41694 8.69154C9.23954 8.5358 9.01145 8.45007 8.77539 8.45039H4.22539C4.09726 8.45005 3.97032 8.47503 3.85187 8.52391C3.73342 8.57279 3.6258 8.64459 3.5352 8.7352C3.44459 8.8258 3.37279 8.93342 3.32391 9.05187C3.27503 9.17032 3.25005 9.29726 3.25039 9.42539V9.75039C3.25039 11.0315 4.45939 12.3504 6.50039 12.3504C8.54139 12.3504 9.75039 11.0315 9.75039 9.75039V9.42539C9.75039 9.13289 9.62169 8.87029 9.41694 8.69089V8.69154ZM3.90039 9.42539C3.90039 9.3392 3.93463 9.25653 3.99558 9.19558C4.05653 9.13463 4.1392 9.10039 4.22539 9.10039H8.77539C8.86159 9.10039 8.94425 9.13463 9.0052 9.19558C9.06615 9.25653 9.10039 9.3392 9.10039 9.42539V9.75039C9.10039 10.6851 8.16959 11.7004 6.50039 11.7004C4.83119 11.7004 3.90039 10.6851 3.90039 9.75039V9.42539ZM9.10039 0.650391C9.57446 0.650391 10.0291 0.838716 10.3643 1.17394C10.6996 1.50916 10.8879 1.96382 10.8879 2.43789C10.8879 2.91196 10.6996 3.36662 10.3643 3.70184C10.0291 4.03707 9.57446 4.22539 9.10039 4.22539C8.62632 4.22539 8.17166 4.03707 7.83644 3.70184C7.50122 3.36662 7.31289 2.91196 7.31289 2.43789C7.31289 1.96382 7.50122 1.50916 7.83644 1.17394C8.17166 0.838716 8.62632 0.650391 9.10039 0.650391ZM9.10039 1.30039C8.79871 1.30039 8.50938 1.42023 8.29606 1.63356C8.08273 1.84688 7.96289 2.13621 7.96289 2.43789C7.96289 2.73957 8.08273 3.0289 8.29606 3.24222C8.50938 3.45555 8.79871 3.57539 9.10039 3.57539C9.40207 3.57539 9.6914 3.45555 9.90472 3.24222C10.118 3.0289 10.2379 2.73957 10.2379 2.43789C10.2379 2.13621 10.118 1.84688 9.90472 1.63356C9.6914 1.42023 9.40207 1.30039 9.10039 1.30039Z" fill="#0184FF"/>
</svg>
