<svg width="24" height="24" viewBox="0 0 24 24" fill="none" xmlns="http://www.w3.org/2000/svg">
<path fill-rule="evenodd" clip-rule="evenodd" d="M3.76592 2.84703C3.83837 2.49924 4.14489 2.25 4.50015 2.25H19.5002C19.8554 2.25 20.1619 2.49924 20.2344 2.84703L22.7344 14.847C22.8189 15.2525 22.5586 15.6498 22.1531 15.7342C21.7476 15.8187 21.3504 15.5585 21.2659 15.153L18.8903 3.75H5.11L2.73439 15.153C2.64991 15.5585 2.25269 15.8187 1.84719 15.7342C1.44168 15.6498 1.18143 15.2525 1.26592 14.847L3.76592 2.84703Z" fill="#1C1B1F"/>
<path fill-rule="evenodd" clip-rule="evenodd" d="M1.25015 15C1.25015 14.5858 1.58594 14.25 2.00015 14.25H7.4547C7.78513 14.25 8.07664 14.4663 8.17246 14.7825L8.92019 17.25H15.0801L15.8278 14.7825C15.9237 14.4663 16.2152 14.25 16.5456 14.25H22.0002C22.4144 14.25 22.7502 14.5858 22.7502 15V21.5C22.7502 21.9142 22.4144 22.25 22.0002 22.25H2.00015C1.58594 22.25 1.25015 21.9142 1.25015 21.5V15ZM2.75015 15.75V20.75H21.2502V15.75H17.102L16.3543 18.2175C16.2585 18.5337 15.967 18.75 15.6365 18.75H8.36379C8.03335 18.75 7.74185 18.5337 7.64602 18.2175L6.89829 15.75H2.75015Z" fill="#1C1B1F"/>
<path fill-rule="evenodd" clip-rule="evenodd" d="M8.46982 10.5303C8.76271 10.8232 9.23759 10.8232 9.53048 10.5303L12.0002 8.06066L14.4698 10.5303C14.7627 10.8232 15.2376 10.8232 15.5305 10.5303C15.8234 10.2374 15.8234 9.76256 15.5305 9.46967L12.5305 6.46967C12.2376 6.17678 11.7627 6.17678 11.4698 6.46967L8.46982 9.46967C8.17693 9.76256 8.17693 10.2374 8.46982 10.5303Z" fill="#1C1B1F"/>
<path fill-rule="evenodd" clip-rule="evenodd" d="M12.0002 6.25C12.4144 6.25 12.7502 6.58579 12.7502 7V13C12.7502 13.4142 12.4144 13.75 12.0002 13.75C11.5859 13.75 11.2502 13.4142 11.2502 13V7C11.2502 6.58579 11.5859 6.25 12.0002 6.25Z" fill="#1C1B1F"/>
</svg>
