<svg width="58" height="58" viewBox="0 0 58 58" fill="none" xmlns="http://www.w3.org/2000/svg">
<g clip-path="url(#clip0_9204_7415)">
<path d="M38.6504 20.5391C34.9927 20.5391 31.4171 21.6233 28.3755 23.6548C25.3338 25.6863 22.9626 28.5738 21.5615 31.9525C20.1604 35.3312 19.7923 39.0494 20.5037 42.6372C21.2151 46.225 22.9741 49.5215 25.5583 52.1099C28.1426 54.6984 31.4362 56.4627 35.0229 57.1799C38.6095 57.8971 42.3283 57.5351 45.7093 56.1394C49.0902 54.7438 51.9816 52.3773 54.018 49.3389C56.0544 46.3006 57.1444 42.7267 57.1504 39.0691C57.1543 36.6371 56.6787 34.2282 55.7508 31.9802C54.8228 29.7322 53.4607 27.6893 51.7425 25.9682C50.0242 24.2471 47.9834 22.8817 45.737 21.9502C43.4905 21.0186 41.0824 20.5391 38.6504 20.5391ZM42.8204 33.9891H45.6504L44.9104 36.7391H42.8104C42.6607 38.0082 42.0738 39.1856 41.1504 40.0691C40.0498 40.9859 38.7176 41.5811 37.3004 41.7891L43.3904 49.0191V49.2191H38.7804L32.0204 41.2991V38.8191H35.3204C36.0186 38.9075 36.7258 38.7476 37.3181 38.3674C37.9104 37.9872 38.3501 37.4108 38.5604 36.7391H31.6504L32.3804 33.9891H38.4504C38.1987 33.4202 37.772 32.9466 37.2324 32.6372C36.6927 32.3278 36.0684 32.1988 35.4504 32.2691H31.6504L32.4804 28.8791H45.6504L44.9204 31.6591H41.9804C42.4252 32.366 42.7117 33.1609 42.8204 33.9891Z" fill="#0184FF"/>
<path d="M18.45 20.8495C28.6397 20.8495 36.9 16.2425 36.9 10.5595C36.9 4.87652 28.6397 0.269531 18.45 0.269531C8.26035 0.269531 0 4.87652 0 10.5595C0 16.2425 8.26035 20.8495 18.45 20.8495Z" fill="#0184FF"/>
<path d="M23.5903 24.1593C23.5903 24.1593 19.1403 28.4593 18.9903 31.3793C15.6503 31.1793 1.49027 29.8293 0.0502689 21.9193C0.0301187 21.7265 0.0301187 21.5321 0.0502689 21.3393L0.150269 18.5693C0.150269 18.5693 6.65027 25.2393 23.5903 24.1593Z" fill="#0184FF"/>
<path d="M17.7105 34.44C17.7105 34.44 16.4705 39.29 17.2605 41.02C13.5105 40.74 3.18049 39.64 0.440485 33.21C0.135814 32.4343 0.0027638 31.6019 0.0504851 30.77L0.150485 28.46C4.90785 32.6229 11.0967 34.7743 17.4105 34.46" fill="#0184FF"/>
<path d="M17.7098 44.3796C17.7098 44.3796 18.7098 49.5296 20.3798 51.1096C16.9898 50.9796 5.59983 51.1996 1.26983 44.6796C0.408561 43.3295 -0.0237365 41.7502 0.0298294 40.1496V38.5996C4.98567 42.6828 11.2991 44.7468 17.7098 44.3796Z" fill="#0184FF"/>
</g>
<defs>
<clipPath id="clip0_9204_7415">
<rect width="57.14" height="57.27" fill="white" transform="translate(0 0.269531)"/>
</clipPath>
</defs>
</svg>
