<svg width="16" height="16" viewBox="0 0 16 16" fill="none" xmlns="http://www.w3.org/2000/svg">
<path d="M14.4177 0.512751H1.50016C1.38211 0.511429 1.26498 0.533537 1.15554 0.577797C1.0461 0.622057 0.946527 0.687588 0.862589 0.770597C0.778651 0.853605 0.712014 0.952441 0.666538 1.06138C0.621061 1.17032 0.597649 1.2872 0.597656 1.40525V14.3328C0.597649 14.4508 0.621061 14.5677 0.666538 14.6766C0.712014 14.7856 0.778651 14.8844 0.862589 14.9674C0.946527 15.0504 1.0461 15.1159 1.15554 15.1602C1.26498 15.2045 1.38211 15.2266 1.50016 15.2253H14.4177C14.6544 15.2253 14.8814 15.1312 15.0487 14.9638C15.2161 14.7965 15.3102 14.5695 15.3102 14.3328V1.40525C15.3102 1.16855 15.2161 0.941535 15.0487 0.774159C14.8814 0.606782 14.6544 0.512751 14.4177 0.512751ZM2.00016 3.95275H1.56766V1.57275H3.33266V2.01275H2.00016V3.95275ZM2.79266 3.02775H12.9052V5.98275H2.80266L2.79266 3.02775ZM6.97266 6.82025V10.7703H3.02516V6.82025H6.97266ZM12.4202 14.4103H3.73016C3.54295 14.4096 3.36364 14.3348 3.23149 14.2021C3.09935 14.0695 3.02516 13.89 3.02516 13.7028H13.1277C13.1277 13.8904 13.0531 14.0703 12.9204 14.203C12.7878 14.3357 12.6078 14.4103 12.4202 14.4103ZM13.1277 13.2628H3.02516V12.5553H13.1277V13.2628ZM3.02516 12.1153C3.02516 11.9283 3.09943 11.749 3.23165 11.6167C3.36386 11.4845 3.54318 11.4103 3.73016 11.4103H12.4202C12.6074 11.4103 12.7869 11.4844 12.9196 11.6166C13.0522 11.7487 13.127 11.928 13.1277 12.1153H3.02516ZM13.1277 8.76275H7.56766V6.82025H13.1277V8.76275Z" fill="#0184FF"/>
</svg>
