<svg width="24" height="24" viewBox="0 0 24 24" fill="none" xmlns="http://www.w3.org/2000/svg">
<path fill-rule="evenodd" clip-rule="evenodd" d="M3.25 3C3.25 2.0335 4.0335 1.25 5 1.25H15.5C15.7126 1.25 15.9152 1.34024 16.0575 1.49828L20.5575 6.49828C20.6814 6.63599 20.75 6.81472 20.75 7V11.5C20.75 11.9142 20.4142 12.25 20 12.25C19.5858 12.25 19.25 11.9142 19.25 11.5V7.2878L15.166 2.75H5C4.86193 2.75 4.75 2.86193 4.75 3V21C4.75 21.1381 4.86192 21.25 5 21.25H11C11.4142 21.25 11.75 21.5858 11.75 22C11.75 22.4142 11.4142 22.75 11 22.75H5C4.03351 22.75 3.25 21.9665 3.25 21V3Z" fill="#1C1B1F"/>
<path fill-rule="evenodd" clip-rule="evenodd" d="M17.2186 13.2826L17 14L16.7814 13.2826C16.9239 13.2391 17.0761 13.2391 17.2186 13.2826ZM17 22C16.6097 22.6404 16.6094 22.6402 16.6091 22.64L16.6068 22.6387L16.6026 22.6361L16.5905 22.6286C16.5809 22.6224 16.5679 22.6142 16.5519 22.6038C16.5199 22.583 16.4756 22.5535 16.4209 22.5154C16.3116 22.4392 16.1599 22.3281 15.9801 22.182C15.6213 21.8904 15.1458 21.4555 14.6701 20.8757C13.7179 19.7148 12.75 17.9522 12.75 15.6C12.75 15.3606 12.8467 15.1772 12.9222 15.0679C12.9997 14.9557 13.0915 14.8679 13.1686 14.8033C13.3228 14.6741 13.5123 14.5601 13.6939 14.4632C14.0644 14.2657 14.537 14.069 14.983 13.8991C15.4347 13.7271 15.8837 13.5732 16.218 13.4628C16.3856 13.4075 16.5255 13.3627 16.6239 13.3317C16.6731 13.3161 16.7119 13.304 16.7387 13.2957L16.7697 13.2861L16.7814 13.2826C16.7814 13.2826 16.7814 13.2826 17 14C17.2186 13.2826 17.2186 13.2826 17.2186 13.2826L17.2303 13.2861L17.2613 13.2957C17.2881 13.304 17.3269 13.3161 17.3761 13.3317C17.4745 13.3627 17.6144 13.4075 17.782 13.4628C18.1163 13.5732 18.5653 13.7271 19.017 13.8991C19.463 14.069 19.9356 14.2657 20.3061 14.4632C20.4877 14.5601 20.6772 14.6741 20.8314 14.8033C20.9085 14.8679 21.0003 14.9557 21.0778 15.0679C21.1533 15.1772 21.25 15.3606 21.25 15.6C21.25 17.9522 20.2821 19.7148 19.3299 20.8757C18.8542 21.4555 18.3787 21.8904 18.0199 22.182C17.8401 22.3281 17.6884 22.4392 17.5791 22.5154C17.5244 22.5535 17.4801 22.583 17.4481 22.6038C17.4321 22.6142 17.4191 22.6224 17.4095 22.6286L17.3974 22.6361L17.3932 22.6387L17.3916 22.6396C17.3913 22.6398 17.3903 22.6404 17 22ZM17 22L16.6091 22.64C16.8488 22.7862 17.1506 22.7865 17.3903 22.6404L17 22ZM17 21.0772C16.9762 21.0584 16.9516 21.0386 16.9261 21.018C16.6287 20.7762 16.2292 20.4111 15.8299 19.9243C15.0699 18.9979 14.3241 17.6495 14.2552 15.8687C14.2944 15.8449 14.3423 15.8174 14.3998 15.7868C14.6856 15.6343 15.088 15.4643 15.517 15.3009C15.9403 15.1396 16.3663 14.9935 16.6883 14.8872C16.8095 14.8472 16.9154 14.813 17 14.786C17.0846 14.813 17.1905 14.8472 17.3117 14.8872C17.6337 14.9935 18.0597 15.1396 18.483 15.3009C18.912 15.4643 19.3144 15.6343 19.6002 15.7868C19.6577 15.8174 19.7056 15.8449 19.7448 15.8687C19.6759 17.6495 18.9301 18.9979 18.1701 19.9243C17.7708 20.4111 17.3713 20.7762 17.0739 21.018C17.0484 21.0386 17.0238 21.0584 17 21.0772Z" fill="#1C1B1F"/>
<path fill-rule="evenodd" clip-rule="evenodd" d="M15 1.25C15.4142 1.25 15.75 1.58579 15.75 2V6.25H20C20.4142 6.25 20.75 6.58579 20.75 7C20.75 7.41421 20.4142 7.75 20 7.75H15C14.5858 7.75 14.25 7.41421 14.25 7V2C14.25 1.58579 14.5858 1.25 15 1.25Z" fill="#1C1B1F"/>
</svg>
