<svg width="22" height="22" viewBox="0 0 22 22" fill="none" xmlns="http://www.w3.org/2000/svg">
<path d="M8.12596 0.638599C8.46935 0.543544 8.83221 0.703201 8.99413 1.02058C9.36718 1.75182 10.1261 2.24991 11 2.24991C11.8739 2.24991 12.6328 1.75182 13.0059 1.02058C13.1678 0.703201 13.5307 0.543544 13.874 0.638599C15.5585 1.10488 17.0759 1.97031 18.3184 3.12565C18.5611 3.35128 18.6269 3.70939 18.4804 4.00657C18.3331 4.30525 18.25 4.64181 18.25 4.99991C18.25 6.24254 19.2574 7.24991 20.5 7.24991L20.5314 7.24968C20.8629 7.24495 21.1583 7.4585 21.2576 7.77486C21.5777 8.79388 21.75 9.87748 21.75 10.9999C21.75 11.7407 21.6749 12.4648 21.5318 13.1647C21.4548 13.541 21.1059 13.7984 20.7237 13.7608C20.6504 13.7536 20.5758 13.7499 20.5 13.7499C19.2574 13.7499 18.25 14.7573 18.25 15.9999C18.25 16.553 18.4486 17.0578 18.7793 17.4497C19.027 17.7433 19.0128 18.1766 18.7465 18.4534C17.4777 19.7718 15.8745 20.7677 14.0721 21.3043C13.6807 21.4208 13.2681 21.2028 13.1437 20.8139C12.8535 19.9059 12.0024 19.2499 11 19.2499C9.99764 19.2499 9.14655 19.9059 8.85629 20.8139C8.73195 21.2028 8.31927 21.4208 7.92789 21.3043C6.12545 20.7677 4.52229 19.7718 3.25353 18.4534C2.98716 18.1766 2.97299 17.7433 3.22072 17.4497C3.55139 17.0578 3.75 16.553 3.75 15.9999C3.75 14.7573 2.74264 13.7499 1.5 13.7499C1.42423 13.7499 1.34963 13.7536 1.27634 13.7608C0.894056 13.7984 0.545187 13.541 0.468209 13.1647C0.325049 12.4648 0.25 11.7407 0.25 10.9999C0.25 9.87749 0.422274 8.79389 0.742364 7.77485C0.841733 7.4585 1.13705 7.24495 1.4686 7.24968L1.5 7.24991C2.74264 7.24991 3.75 6.24254 3.75 4.99991C3.75 4.64181 3.66689 4.30526 3.51962 4.00657C3.3731 3.70939 3.43894 3.35128 3.68159 3.12565C4.92411 1.97031 6.44153 1.10488 8.12596 0.638599ZM5.08277 3.88982C5.19152 4.24114 5.25 4.61415 5.25 4.99991C5.25 6.88936 3.85261 8.45244 2.03493 8.71204C1.84898 9.44309 1.75 10.2095 1.75 10.9999C1.75 11.4293 1.77921 11.8515 1.83567 12.2647C3.74948 12.4345 5.25 14.042 5.25 15.9999C5.25 16.6668 5.0754 17.294 4.76971 17.8371C5.62645 18.6183 6.63002 19.2403 7.73362 19.6569C8.37706 18.5189 9.59804 17.7499 11 17.7499C12.402 17.7499 13.6229 18.5189 14.2664 19.6569C15.37 19.2403 16.3735 18.6183 17.2303 17.8371C16.9246 17.294 16.75 16.6668 16.75 15.9999C16.75 14.042 18.2505 12.4345 20.1643 12.2647C20.2208 11.8515 20.25 11.4293 20.25 10.9999C20.25 10.2095 20.151 9.44309 19.9651 8.71204C18.1474 8.45243 16.75 6.88935 16.75 4.99991C16.75 4.61415 16.8085 4.24114 16.9172 3.88982C16.0618 3.17701 15.0762 2.61605 14.0018 2.24766C13.3184 3.15887 12.2287 3.74991 11 3.74991C9.77133 3.74991 8.68158 3.15887 7.99819 2.24766C6.92382 2.61605 5.93823 3.17701 5.08277 3.88982Z" fill="white"/>
<path d="M6.75 10.9999C6.75 8.65269 8.65279 6.74991 11 6.74991C13.3472 6.74991 15.25 8.65269 15.25 10.9999C15.25 13.3471 13.3472 15.2499 11 15.2499C8.65279 15.2499 6.75 13.3471 6.75 10.9999ZM11 8.24991C9.48121 8.24991 8.25 9.48112 8.25 10.9999C8.25 12.5187 9.48121 13.7499 11 13.7499C12.5188 13.7499 13.75 12.5187 13.75 10.9999C13.75 9.48112 12.5188 8.24991 11 8.24991Z" fill="white"/>
</svg>
