<svg width="16" height="14" viewBox="0 0 16 14" fill="none" xmlns="http://www.w3.org/2000/svg">
<path d="M14.4 0H1.6C0.666667 0 0 0.666667 0 1.6V10.5333H16V1.6C16 0.666667 15.3333 0 14.4 0ZM14.4 9.06667C14.4 9.33333 14.1333 9.6 13.8667 9.6H2C1.73333 9.6 1.46667 9.33333 1.46667 9.06667V1.73333C1.6 1.46667 1.73333 1.2 2 1.2H13.8667C14.1333 1.2 14.4 1.46667 14.4 1.73333V9.06667Z" fill="#0184FF"/>
<path d="M0.132812 10.667V10.9337C0.132812 12.1337 1.06615 13.2003 2.39948 13.2003H13.5995C14.7995 13.2003 15.8661 12.267 15.8661 10.9337V10.667H0.132812ZM9.99948 11.867C9.99948 12.0003 9.86615 12.1337 9.73281 12.1337H6.26615C6.13281 12.1337 5.99948 12.0003 5.99948 11.867V10.9337H9.99948V11.867Z" fill="#0184FF"/>
<path d="M9.06738 7.99876H12.8007V3.06543H9.06738V7.99876ZM9.73405 3.99876H12.134V4.26543H9.73405V3.99876ZM9.73405 4.66543H12.134V4.9321H9.73405V4.66543ZM9.73405 5.3321H12.134V5.59876H9.73405V5.3321ZM9.73405 6.1321H12.134V6.39876H9.73405V6.1321ZM9.73405 6.79876H12.134V7.06543H9.73405V6.79876Z" fill="#0184FF"/>
<path d="M14.0005 1.59961H2.00052C1.86719 1.59961 1.86719 1.73294 1.86719 1.73294V9.06628C1.86719 9.19961 2.00052 9.19961 2.00052 9.19961H13.8672C14.0005 9.19961 14.0005 9.06628 14.0005 9.06628V1.73294C14.1339 1.59961 14.0005 1.59961 14.0005 1.59961ZM2.40052 6.79961H5.73385V7.06628H2.40052V6.79961ZM8.00052 8.26628H2.40052V7.99961H8.00052V8.26628ZM13.2005 8.13294C13.2005 8.26628 13.0672 8.39961 12.9339 8.39961H9.06719C8.93385 8.39961 8.80052 8.26628 8.80052 8.13294V2.93294C8.80052 2.79961 8.93385 2.66628 9.06719 2.66628H12.9339C13.0672 2.66628 13.2005 2.79961 13.2005 2.93294V8.13294Z" fill="#0184FF"/>
</svg>
