<svg width="16" height="16" viewBox="0 0 16 16" fill="none" xmlns="http://www.w3.org/2000/svg">
<path d="M15 10.3333V10.45V1.46667C15 1.23333 14.7544 1 14.5088 1H1.61404C1.24561 1 1 1.23333 1 1.46667V10.3333H15ZM7.87719 9.16667C7.50877 9.16667 7.14035 8.81667 7.14035 8.46667C7.14035 8.11667 7.50877 7.65 8 7.65C8.49123 7.65 8.73684 8 8.73684 8.46667C8.73684 8.81667 8.36842 9.16667 7.87719 9.16667ZM12.9123 8.46667C12.9123 8.81667 12.5439 9.16667 12.1754 9.16667C11.807 9.16667 11.3158 8.81667 11.3158 8.35C11.3158 7.88333 11.6842 7.53333 12.1754 7.53333C12.6667 7.53333 12.9123 8 12.9123 8.46667ZM7.87719 2.05C8.49123 2.05 9.10526 2.51667 9.10526 3.21667C9.10526 3.91667 8.61404 4.38333 7.87719 4.38333C7.14035 4.38333 6.64912 3.91667 6.64912 3.21667C6.64912 2.51667 7.26316 2.05 7.87719 2.05ZM3.57895 5.78333H7.87719V4.96667H8.12281V5.78333H12.4211V6.95H12.1754V6.01667H8.12281V6.95H7.75439V6.01667H3.82456V6.95H3.57895V5.78333ZM3.70175 7.65C4.19298 7.65 4.5614 8 4.5614 8.46667C4.5614 8.93333 4.07018 9.16667 3.70175 9.16667C3.21053 9.16667 2.84211 8.81667 2.84211 8.46667C2.84211 8 3.21053 7.65 3.70175 7.65Z" fill="#0184FF"/>
<path d="M1 10.5669V10.4502V11.3835C1 11.6169 1.24561 11.8502 1.49123 11.8502H14.386C14.6316 11.8502 14.8772 11.6169 14.8772 11.3835V10.5669H1ZM2.22807 11.3835H1.61404V10.9169H2.22807V11.3835ZM3.57895 11.3835H2.84211V10.9169H3.45614V11.3835H3.57895ZM14.2632 11.3835H12.7895V10.9169H14.2632V11.3835Z" fill="#0184FF"/>
<path d="M8.85883 12.8996V11.8496H7.01672V12.8996C7.01672 13.3663 6.6483 13.7163 6.15707 13.7163H4.19216C3.82374 13.7163 3.57812 13.9496 3.57812 14.2996V14.4163C3.57812 14.7663 3.82374 14.9996 4.19216 14.9996H11.5606C11.929 14.9996 12.1746 14.7663 12.0518 14.4163V14.2996C12.0518 13.9496 11.8062 13.7163 11.5606 13.7163H9.71848C9.22725 13.8329 8.85883 13.3663 8.85883 12.8996Z" fill="#0184FF"/>
</svg>
