<svg width="21" height="21" viewBox="0 0 21 21" fill="none" xmlns="http://www.w3.org/2000/svg">
<path d="M8.86187 3.30628C8.86187 2.49591 8.53995 1.71871 7.96691 1.14569C7.39388 0.572655 6.61669 0.250732 5.80631 0.250732C4.99594 0.250732 4.21874 0.572655 3.64572 1.14569C3.07269 1.71871 2.75076 2.49591 2.75076 3.30628C2.75076 4.11666 3.07269 4.89385 3.64572 5.46688C4.21874 6.03992 4.99594 6.36184 5.80631 6.36184C6.61669 6.36184 7.39388 6.03992 7.96691 5.46688C8.53995 4.89385 8.86187 4.11666 8.86187 3.30628ZM3.86187 3.30628C3.86187 3.05093 3.91216 2.7981 4.00989 2.56218C4.1076 2.32627 4.25083 2.11191 4.43139 1.93136C4.61194 1.7508 4.8263 1.60757 5.06221 1.50986C5.29812 1.41213 5.55096 1.36184 5.80631 1.36184C6.06166 1.36184 6.31452 1.41213 6.55041 1.50986C6.78633 1.60757 7.00069 1.7508 7.18123 1.93136C7.3618 2.11191 7.50503 2.32627 7.60274 2.56218C7.70046 2.7981 7.75075 3.05093 7.75075 3.30628C7.75075 3.82198 7.5459 4.31656 7.18123 4.68121C6.81658 5.04587 6.322 5.25073 5.80631 5.25073C5.29062 5.25073 4.79604 5.04587 4.43139 4.68121C4.06672 4.31656 3.86187 3.82198 3.86187 3.30628ZM1.91743 7.47295H6.5652C6.38298 7.81739 6.24742 8.19072 6.16742 8.58406H1.91743C1.77009 8.58406 1.62878 8.64259 1.52459 8.74678C1.4204 8.85096 1.36187 8.99226 1.36187 9.13961V9.69517C1.36187 11.0952 2.58298 12.5996 4.80187 12.9507C4.44409 13.1952 4.14631 13.5207 3.93409 13.8996C1.58965 13.2652 0.250763 11.4585 0.250763 9.69517V9.13961C0.250763 8.69758 0.426358 8.27366 0.738918 7.9611C1.05148 7.64854 1.47539 7.47295 1.91743 7.47295ZM7.89409 7.47295C8.45409 6.79517 9.30186 6.36184 10.2508 6.36184C10.9162 6.36067 11.5637 6.57724 12.0945 6.97847C12.6253 7.3797 13.0103 7.94358 13.1908 8.58406C13.3516 9.15571 13.3425 9.76183 13.1647 10.3284C12.9868 10.895 12.6479 11.3976 12.1893 11.7749C11.7306 12.1521 11.1721 12.3877 10.5818 12.4528C9.99156 12.518 9.3951 12.4099 8.8652 12.1418C8.45722 11.9342 8.1011 11.6375 7.82318 11.2738C7.54525 10.91 7.3526 10.4884 7.25949 10.0402C7.16636 9.59202 7.17515 9.1286 7.28518 8.68425C7.39522 8.23989 7.60369 7.82592 7.8952 7.47295H7.89409ZM8.49409 8.58406C8.38465 8.81489 8.32176 9.06501 8.30899 9.32016C8.29622 9.5753 8.33383 9.83047 8.41968 10.0711C8.50552 10.3117 8.63792 10.533 8.8093 10.7225C8.98069 10.9119 9.18769 11.0657 9.41853 11.1752C9.64937 11.2846 9.89949 11.3475 10.1546 11.3603C10.4098 11.373 10.6649 11.3354 10.9055 11.2496C11.1462 11.1637 11.3675 11.0314 11.5569 10.86C11.7464 10.6886 11.9002 10.4816 12.0096 10.2507C12.2306 9.78438 12.2574 9.24936 12.0839 8.76332C11.9104 8.27729 11.551 7.88007 11.0846 7.65907C10.6183 7.43804 10.0833 7.41134 9.59723 7.58481C9.1112 7.75828 8.71398 8.11772 8.49298 8.58406H8.49409ZM16.5673 13.8996C16.3557 13.5205 16.0586 13.196 15.6996 12.9518C17.9174 12.5996 19.1397 11.0941 19.1397 9.69517V9.13961C19.1397 8.99226 19.081 8.85096 18.9769 8.74678C18.8728 8.64259 18.7314 8.58406 18.5841 8.58406H14.3341C14.2556 8.19666 14.122 7.82249 13.9374 7.47295H18.5841C19.0261 7.47295 19.4501 7.64854 19.7626 7.9611C20.0752 8.27366 20.2508 8.69758 20.2508 9.13961V9.69517C20.2508 11.4585 18.9108 13.2641 16.5673 13.8996ZM15.2363 13.9963C14.9331 13.7301 14.5432 13.5835 14.1396 13.5841H6.36187C6.14284 13.5835 5.92585 13.6262 5.72337 13.7097C5.52089 13.7933 5.33693 13.916 5.18206 14.0709C5.02717 14.2258 4.90443 14.4097 4.82088 14.6122C4.73732 14.8147 4.69462 15.0317 4.6952 15.2507V15.8063C4.6952 17.9962 6.76187 20.2507 10.2508 20.2507C13.7396 20.2507 15.8063 17.9962 15.8063 15.8063V15.2507C15.8063 14.7507 15.5863 14.3018 15.2363 13.9952V13.9963ZM5.80631 15.2507C5.80631 15.1034 5.86484 14.9621 5.96903 14.8579C6.07322 14.7537 6.21453 14.6952 6.36187 14.6952H14.1396C14.287 14.6952 14.4283 14.7537 14.5325 14.8579C14.6367 14.9621 14.6952 15.1034 14.6952 15.2507V15.8063C14.6952 17.4041 13.1041 19.1396 10.2508 19.1396C7.39742 19.1396 5.80631 17.4041 5.80631 15.8063V15.2507ZM14.6952 0.250732C15.5056 0.250732 16.2827 0.572655 16.8557 1.14569C17.4289 1.71871 17.7508 2.49591 17.7508 3.30628C17.7508 4.11666 17.4289 4.89385 16.8557 5.46688C16.2827 6.03992 15.5056 6.36184 14.6952 6.36184C13.8848 6.36184 13.1076 6.03992 12.5346 5.46688C11.9616 4.89385 11.6396 4.11666 11.6396 3.30628C11.6396 2.49591 11.9616 1.71871 12.5346 1.14569C13.1076 0.572655 13.8848 0.250732 14.6952 0.250732ZM14.6952 1.36184C14.1795 1.36184 13.6849 1.5667 13.3203 1.93136C12.9556 2.29601 12.7508 2.79059 12.7508 3.30628C12.7508 3.82198 12.9556 4.31656 13.3203 4.68121C13.6849 5.04587 14.1795 5.25073 14.6952 5.25073C15.2109 5.25073 15.7055 5.04587 16.0701 4.68121C16.4347 4.31656 16.6397 3.82198 16.6397 3.30628C16.6397 2.79059 16.4347 2.29601 16.0701 1.93136C15.7055 1.5667 15.2109 1.36184 14.6952 1.36184Z" fill="#1C1B1F"/>
</svg>
