<svg width="current" height="current" viewBox="0 0 16 16" fill="none" xmlns="http://www.w3.org/2000/svg">
<path d="M7.84781 0.5C6.70031 0.5 5.50031 2.13 4.94531 4.78H10.7503C10.2003 2.13 9.00031 0.5 7.84781 0.5Z" fill="#0184FF"/>
<path d="M6.51789 0.5C5.31558 0.745188 4.19179 1.28163 3.24508 2.06227C2.29836 2.84292 1.55765 3.84392 1.08789 4.9775H4.19539C4.60539 2.875 5.44789 1.25 6.51789 0.5Z" fill="#0184FF"/>
<path d="M9.09473 0.43457C10.2022 1.15457 11.0772 2.81957 11.4972 4.97707H14.9122C14.4165 3.78259 13.6203 2.73659 12.6009 1.94066C11.5816 1.14473 10.3738 0.625904 9.09473 0.43457Z" fill="#0184FF"/>
<path d="M7.84711 15.3172C9.01711 15.3172 10.2496 13.6122 10.7821 10.8672H4.91211C5.44461 13.6122 6.67461 15.3172 7.84711 15.3172Z" fill="#0184FF"/>
<path d="M11.0526 7.90465C11.0536 7.21001 11.0094 6.51603 10.9201 5.82715H4.7726C4.60229 7.15464 4.59558 8.49802 4.7526 9.82715H10.9401C11.0149 9.18904 11.0524 8.54712 11.0526 7.90465Z" fill="#0184FF"/>
<path d="M3.92 7.90453C3.91965 7.25351 3.95973 6.60309 4.04 5.95703H0.75C0.58891 6.56748 0.504923 7.1957 0.5 7.82703C0.503512 8.45928 0.587521 9.08851 0.75 9.69953H4.02C3.95305 9.10354 3.91967 8.50427 3.92 7.90453Z" fill="#0184FF"/>
<path d="M6.23039 15.0922C5.27289 14.2472 4.53039 12.6622 4.16539 10.6797H1.08789C1.53863 11.7672 2.23903 12.7332 3.13241 13.4998C4.02579 14.2664 5.08707 14.8119 6.23039 15.0922Z" fill="#0184FF"/>
<path d="M9.3623 15.1826C10.5887 14.9534 11.7385 14.4218 12.7076 13.636C13.6767 12.8502 14.4345 11.8351 14.9123 10.6826H11.5273C11.1523 12.7326 10.3673 14.3601 9.3623 15.1826Z" fill="#0184FF"/>
<path d="M15.4828 7.82703C15.4789 7.19563 15.3949 6.56727 15.2328 5.95703H11.6553C11.7346 6.60315 11.7739 7.25356 11.7728 7.90453C11.7731 8.50427 11.7397 9.10354 11.6728 9.69953H15.2503C15.4068 9.08774 15.4849 8.45853 15.4828 7.82703Z" fill="#0184FF"/>
</svg>
