<svg width="16" height="16" viewBox="0 0 16 16" fill="none" xmlns="http://www.w3.org/2000/svg">
<path d="M1.66038 9.03046L7.86788 2.98046C7.95836 2.89279 8.0794 2.84377 8.20538 2.84377C8.33137 2.84377 8.4524 2.89279 8.54288 2.98046L14.6979 8.98046C14.747 9.02519 14.8046 9.05968 14.8672 9.08191C14.9298 9.10415 14.9962 9.11368 15.0625 9.10996C15.1289 9.10623 15.1938 9.08933 15.2535 9.06022C15.3132 9.03112 15.3666 8.99041 15.4104 8.94046L15.8104 8.45296C15.8828 8.36031 15.9202 8.24512 15.9161 8.12761C15.912 8.01011 15.8666 7.89782 15.7879 7.81046L13.5004 5.41796C13.4161 5.32664 13.3689 5.20721 13.3679 5.08296V2.08296C13.3672 1.9552 13.3162 1.83285 13.2258 1.74251C13.1355 1.65216 13.0131 1.60112 12.8854 1.60046H12.0804C11.956 1.60097 11.8365 1.64925 11.7467 1.73533C11.6569 1.82141 11.6037 1.9387 11.5979 2.06296L11.5304 3.48296L8.54288 0.50046C8.45218 0.411294 8.33008 0.361328 8.20288 0.361328C8.07569 0.361328 7.95359 0.411294 7.86288 0.50046L0.350382 7.75046C0.302478 7.79648 0.264592 7.85189 0.239098 7.91324C0.213604 7.97458 0.20105 8.04052 0.202224 8.10694C0.203397 8.17335 0.218272 8.23881 0.245918 8.29922C0.273563 8.35962 0.313382 8.41366 0.362882 8.45796L1.00038 9.04296C1.09314 9.12141 1.21128 9.16341 1.33274 9.16111C1.4542 9.15881 1.57067 9.11236 1.66038 9.03046Z" fill="#0184FF"/>
<path d="M6.80008 15.6478H4.11008C3.91748 15.6481 3.72671 15.6105 3.54868 15.537C3.37065 15.4635 3.20885 15.3557 3.07255 15.2196C2.93625 15.0835 2.82811 14.9219 2.75433 14.744C2.68055 14.5661 2.64258 14.3754 2.64258 14.1828V10.1553C2.64471 10.0607 2.68427 9.97079 2.75258 9.9053L8.08008 4.7328C8.14719 4.66803 8.23681 4.63184 8.33008 4.63184C8.42334 4.63184 8.51297 4.66803 8.58008 4.7328L13.8726 9.9628C13.9386 10.0294 13.9762 10.119 13.9776 10.2128V14.2503C13.9779 14.4342 13.9419 14.6164 13.8717 14.7864C13.8014 14.9565 13.6983 15.1109 13.5683 15.241C13.4382 15.3711 13.2837 15.4742 13.1137 15.5444C12.9437 15.6146 12.7615 15.6506 12.5776 15.6503H9.77758L9.73758 11.9003C9.73626 11.8126 9.70031 11.7289 9.63755 11.6675C9.5748 11.6062 9.49034 11.5721 9.40258 11.5728L7.04508 11.6078C6.95733 11.6098 6.87392 11.6464 6.81303 11.7096C6.75215 11.7728 6.71874 11.8575 6.72008 11.9453L6.80008 15.6478Z" fill="#0184FF"/>
</svg>
