<svg width="current" height="current" viewBox="0 0 16 16" fill="none" xmlns="http://www.w3.org/2000/svg">
<g clip-path="url(#clip0_9204_7380)">
<path d="M9.11997 7.75031C9.18163 7.67338 9.25957 7.61106 9.34818 7.56783C9.43679 7.52461 9.53388 7.50155 9.63247 7.50031C9.76523 7.50211 9.89453 7.54288 10.0043 7.61755C10.1141 7.69222 10.1995 7.7975 10.25 7.92031V3.82031H5.70997V7.83531C5.7096 7.90575 5.72342 7.97554 5.75058 8.04052C5.77775 8.10551 5.81772 8.16436 5.8681 8.21358C5.91849 8.2628 5.97826 8.30138 6.04387 8.32701C6.10947 8.35265 6.17956 8.36483 6.24997 8.36281H6.97997V6.44531C6.9933 6.16885 7.11251 5.90811 7.31288 5.71716C7.51326 5.52621 7.77943 5.4197 8.05622 5.4197C8.33301 5.4197 8.59918 5.52621 8.79955 5.71716C8.99993 5.90811 9.11914 6.16885 9.13247 6.44531L9.11997 7.75031Z" fill="#0184FF"/>
<path d="M12.7073 9.31457C12.5645 9.31523 12.4278 9.37242 12.327 9.47361C12.2263 9.57481 12.1698 9.71179 12.1698 9.85457V10.9296C11.8923 11.3696 11.6698 10.9296 11.6698 10.9296V9.13707C11.6748 9.06323 11.6646 8.98915 11.6398 8.91942C11.615 8.84969 11.5761 8.7858 11.5256 8.73172C11.4751 8.67764 11.414 8.63452 11.3461 8.60504C11.2782 8.57556 11.205 8.56035 11.131 8.56035C11.057 8.56035 10.9838 8.57556 10.9159 8.60504C10.848 8.63452 10.7869 8.67764 10.7364 8.73172C10.6859 8.7858 10.647 8.84969 10.6222 8.91942C10.5974 8.98915 10.5872 9.06323 10.5923 9.13707V10.4096C10.4348 10.9096 10.2323 10.7071 10.1198 10.5396V8.72707C10.1198 8.58452 10.0631 8.4478 9.96234 8.347C9.86154 8.2462 9.72483 8.18957 9.58227 8.18957C9.43972 8.18957 9.303 8.2462 9.2022 8.347C9.1014 8.4478 9.04477 8.58452 9.04477 8.72707V10.3921C8.84727 10.8496 8.56977 10.3746 8.56977 10.3746V6.34707C8.56977 6.20452 8.51314 6.0678 8.41234 5.967C8.31154 5.8662 8.17483 5.80957 8.03227 5.80957C7.88972 5.80957 7.753 5.8662 7.6522 5.967C7.5514 6.0678 7.49477 6.20452 7.49477 6.34707V10.2946C7.49477 10.8321 7.28227 10.8596 7.28227 10.8596L6.58727 10.0621C6.49345 9.95466 6.3608 9.88891 6.21851 9.8793C6.07622 9.86969 5.93593 9.917 5.82852 10.0108C5.72111 10.1046 5.65537 10.2373 5.64575 10.3796C5.63614 10.5219 5.68345 10.6622 5.77727 10.7696L6.43227 11.5196L7.78727 13.6521L7.83727 14.4346H12.7073V13.4346L13.2498 12.6096V9.85957C13.2504 9.78803 13.2369 9.71706 13.2099 9.6508C13.1829 9.58455 13.143 9.52431 13.0925 9.47361C13.042 9.4229 12.982 9.38273 12.9159 9.35542C12.8497 9.32812 12.7788 9.31424 12.7073 9.31457Z" fill="#0184FF"/>
<path d="M12.8051 14.8779H7.83008V15.6279H12.8051V14.8779Z" fill="#0184FF"/>
<path d="M5.71022 5.695H3.18272C3.10707 5.50925 2.96923 5.35556 2.79277 5.26022C2.61631 5.16488 2.41221 5.13383 2.21538 5.17237C2.01855 5.21091 1.84123 5.31666 1.71377 5.47151C1.5863 5.62635 1.5166 5.82069 1.5166 6.02125C1.5166 6.22182 1.5863 6.41615 1.71377 6.571C1.84123 6.72585 2.01855 6.83159 2.21538 6.87013C2.41221 6.90867 2.61631 6.87762 2.79277 6.78228C2.96923 6.68695 3.10707 6.53325 3.18272 6.3475H5.71022V5.695Z" fill="#0184FF"/>
<path d="M9.94043 6.24985H12.4679C12.5436 6.4356 12.6814 6.58929 12.8579 6.68463C13.0343 6.77996 13.2384 6.81102 13.4353 6.77247C13.6321 6.73393 13.8094 6.62819 13.9369 6.47334C14.0643 6.31849 14.134 6.12416 14.134 5.92359C14.134 5.72303 14.0643 5.5287 13.9369 5.37385C13.8094 5.219 13.6321 5.11326 13.4353 5.07472C13.2384 5.03617 13.0343 5.06723 12.8579 5.16256C12.6814 5.2579 12.5436 5.41159 12.4679 5.59734H9.94043V6.24985Z" fill="#0184FF"/>
<path d="M6.46953 4.43513L4.68203 2.64763C4.74324 2.50308 4.76397 2.34461 4.74198 2.18918C4.72 2.03376 4.65614 1.88724 4.55725 1.76534C4.45835 1.64344 4.32815 1.55075 4.1806 1.4972C4.03304 1.44365 3.8737 1.43126 3.71964 1.46136C3.56558 1.49146 3.42262 1.56292 3.30607 1.66807C3.18952 1.77322 3.10378 1.9081 3.05804 2.05826C3.01231 2.20842 3.00829 2.3682 3.04642 2.52046C3.08456 2.67273 3.16341 2.81175 3.27453 2.92263C3.39543 3.04452 3.55013 3.12731 3.71861 3.1603C3.88709 3.19328 4.06159 3.17493 4.21953 3.10763L5.99953 4.89513L6.46953 4.43513Z" fill="#0184FF"/>
<path d="M9.81797 4.89534L11.6055 3.10784C11.79 3.18475 11.9955 3.19517 12.1869 3.13732C12.3782 3.07948 12.5435 2.95696 12.6545 2.79071C12.7656 2.62447 12.8154 2.42482 12.7955 2.22591C12.7756 2.02699 12.6872 1.84116 12.5455 1.70019C12.4038 1.55922 12.2175 1.47186 12.0184 1.45305C11.8194 1.43424 11.62 1.48514 11.4544 1.59706C11.2888 1.70898 11.1671 1.87496 11.1103 2.06663C11.0535 2.25829 11.0651 2.46374 11.143 2.64784L9.35547 4.43534L9.81797 4.89534Z" fill="#0184FF"/>
<path d="M7.3225 0.882812H8.6575C8.84249 0.882813 9.0199 0.956299 9.15071 1.08711C9.28151 1.21791 9.355 1.39532 9.355 1.58031V4.43531H6.625V1.58031C6.625 1.39532 6.69849 1.21791 6.82929 1.08711C6.9601 0.956299 7.13751 0.882813 7.3225 0.882812V0.882812Z" stroke="#0184FF" stroke-width="2" stroke-miterlimit="10"/>
</g>
<defs>
<clipPath id="clip0_9204_7380">
<rect width="16" height="16" fill="white"/>
</clipPath>
</defs>
</svg>
