<svg width="47" height="55" viewBox="0 0 47 55" fill="none" xmlns="http://www.w3.org/2000/svg">
<g clip-path="url(#clip0_9204_7400)">
<path d="M23.4104 18.6C28.5466 18.6 32.7104 14.4362 32.7104 9.3C32.7104 4.16375 28.5466 0 23.4104 0C18.2741 0 14.1104 4.16375 14.1104 9.3C14.1104 14.4362 18.2741 18.6 23.4104 18.6Z" fill="#0184FF"/>
<path d="M16.1698 19.4199C16.1698 19.4199 23.2798 24.2899 29.8498 19.4199C31.7837 19.8859 33.5286 20.9328 34.8498 22.4199C34.9325 22.5121 34.9915 22.623 35.0216 22.7432C35.0517 22.8633 35.052 22.989 35.0224 23.1093C34.9928 23.2295 34.9343 23.3407 34.8519 23.4332C34.7695 23.5257 34.6658 23.5967 34.5498 23.6399L23.3098 27.9799C23.1331 28.0496 22.9365 28.0496 22.7598 27.9799L11.3198 23.6199C11.2019 23.5773 11.0965 23.5062 11.0127 23.4129C10.929 23.3196 10.8697 23.2071 10.84 23.0854C10.8103 22.9636 10.8112 22.8364 10.8425 22.7151C10.8739 22.5937 10.9348 22.482 11.0198 22.3899C12.4562 20.9784 14.2286 19.9562 16.1698 19.4199Z" fill="#0184FF"/>
<path d="M6.68953 25.2499C6.40734 25.149 6.10502 25.1173 5.80804 25.1576C5.51106 25.1979 5.22812 25.309 4.98305 25.4815C4.73799 25.6541 4.53798 25.883 4.39988 26.149C4.26178 26.415 4.18964 26.7102 4.18953 27.0099V30.0099C4.72382 29.6981 5.33087 29.5325 5.94953 29.5299C6.89992 29.5299 7.81154 29.9068 8.48451 30.5779C9.15748 31.249 9.53688 32.1595 9.53953 33.1099V41.5699C9.53688 42.5203 9.15748 43.4309 8.48451 44.102C7.81154 44.7731 6.89992 45.1499 5.94953 45.1499C5.33087 45.1474 4.72382 44.9818 4.18953 44.6699V47.1899C4.18612 47.5746 4.30144 47.951 4.51976 48.2678C4.73809 48.5845 5.0488 48.8262 5.40953 48.9599L21.6295 54.8399V30.6399L6.68953 25.2499Z" fill="#0184FF"/>
<path d="M1.93 33.0703H5.88C6.07891 33.0703 6.26968 33.1493 6.41033 33.29C6.55098 33.4306 6.63 33.6214 6.63 33.8203V40.1603C6.63 40.3592 6.55098 40.55 6.41033 40.6906C6.26968 40.8313 6.07891 40.9103 5.88 40.9103H1.93C1.42158 40.9103 0.933682 40.7098 0.572307 40.3521C0.210931 39.9945 0.00526861 39.5087 0 39.0003L0 35.0003C0 34.4884 0.203339 33.9975 0.565284 33.6356C0.927229 33.2737 1.41813 33.0703 1.93 33.0703Z" fill="#0184FF"/>
<path d="M39.4996 25.2496C39.7823 25.1467 40.0857 25.1134 40.384 25.1528C40.6824 25.1921 40.9668 25.3029 41.2132 25.4756C41.4595 25.6484 41.6606 25.878 41.7992 26.1451C41.9379 26.4122 42.01 26.7087 42.0096 27.0096V30.0096C41.4718 29.6974 40.8614 29.5319 40.2396 29.5296C39.2909 29.5323 38.3818 29.9103 37.711 30.5811C37.0402 31.2519 36.6622 32.161 36.6596 33.1096V41.5697C36.6622 42.5183 37.0402 43.4274 37.711 44.0982C38.3818 44.769 39.2909 45.147 40.2396 45.1496C40.8614 45.1474 41.4718 44.9819 42.0096 44.6696V47.1896C42.0074 47.5733 41.8872 47.947 41.6654 48.2601C41.4436 48.5731 41.1308 48.8104 40.7696 48.9396L24.5596 54.8396V30.6396L39.4996 25.2496Z" fill="#0184FF"/>
<path d="M44.2702 40.9199H40.3702C40.1713 40.9199 39.9805 40.8409 39.8399 40.7003C39.6992 40.5596 39.6202 40.3688 39.6202 40.1699V33.8299C39.6202 33.631 39.6992 33.4402 39.8399 33.2996C39.9805 33.1589 40.1713 33.0799 40.3702 33.0799H44.2702C44.7821 33.0799 45.273 33.2833 45.6349 33.6452C45.9969 34.0072 46.2002 34.4981 46.2002 35.0099V39.0099C46.1949 39.5183 45.9893 40.0041 45.6279 40.3617C45.2665 40.7194 44.7786 40.9199 44.2702 40.9199Z" fill="#0184FF"/>
</g>
<defs>
<clipPath id="clip0_9204_7400">
<rect width="46.2" height="54.84" fill="white"/>
</clipPath>
</defs>
</svg>
