<svg width="current" height="current" viewBox="0 0 62 48" fill="none" xmlns="http://www.w3.org/2000/svg">
<g clip-path="url(#clip0_9204_7423)">
<path d="M9.54016 34.4192C12.3734 34.4192 14.6702 32.1224 14.6702 29.2892C14.6702 26.456 12.3734 24.1592 9.54016 24.1592C6.70694 24.1592 4.41016 26.456 4.41016 29.2892C4.41016 32.1224 6.70694 34.4192 9.54016 34.4192Z" fill="#0184FF"/>
<path d="M2.80029 35.4189H16.2803C17.0229 35.4189 17.7351 35.7139 18.2602 36.239C18.7853 36.7641 19.0803 37.4763 19.0803 38.2189V47.3789H2.08029C1.52499 47.3685 0.995978 47.1405 0.607011 46.744C0.218044 46.3476 0.000186882 45.8143 0.000285751 45.2589V38.2589C-0.00501556 37.8879 0.063494 37.5195 0.201832 37.1751C0.34017 36.8308 0.545576 36.5174 0.806109 36.2531C1.06664 35.9889 1.37711 35.779 1.71945 35.6358C2.0618 35.4926 2.42919 35.4189 2.80029 35.4189Z" fill="#0184FF"/>
<path d="M31.3898 34.4192C34.223 34.4192 36.5198 32.1224 36.5198 29.2892C36.5198 26.456 34.223 24.1592 31.3898 24.1592C28.5565 24.1592 26.2598 26.456 26.2598 29.2892C26.2598 32.1224 28.5565 34.4192 31.3898 34.4192Z" fill="#0184FF"/>
<path d="M24.6496 35.4189H38.1296C38.8722 35.4189 39.5844 35.7139 40.1095 36.239C40.6346 36.7641 40.9296 37.4763 40.9296 38.2189V47.3789H21.8496V38.2189C21.8496 37.4763 22.1446 36.7641 22.6697 36.239C23.1948 35.7139 23.907 35.4189 24.6496 35.4189Z" fill="#0184FF"/>
<path d="M52.4601 34.4192C55.2933 34.4192 57.5901 32.1224 57.5901 29.2892C57.5901 26.456 55.2933 24.1592 52.4601 24.1592C49.6269 24.1592 47.3301 26.456 47.3301 29.2892C47.3301 32.1224 49.6269 34.4192 52.4601 34.4192Z" fill="#0184FF"/>
<path d="M45.7199 35.4192H59.1999C59.9425 35.4192 60.6547 35.7142 61.1798 36.2393C61.7049 36.7644 61.9999 37.4766 61.9999 38.2192V45.2192C61.9999 45.7815 61.7765 46.3207 61.3789 46.7183C60.9814 47.1159 60.4421 47.3392 59.8799 47.3392H42.8799V38.2192C42.8798 37.8481 42.9536 37.4807 43.0968 37.1384C43.24 36.7961 43.4498 36.4856 43.7141 36.2251C43.9783 35.9645 44.2917 35.7591 44.6361 35.6208C44.9804 35.4824 45.3488 35.4139 45.7199 35.4192Z" fill="#0184FF"/>
<path d="M54.0001 0.109394H8.83012C8.47471 0.108077 8.12254 0.176943 7.7938 0.312042C7.46507 0.44714 7.16624 0.645812 6.91446 0.896661C6.66268 1.14751 6.46291 1.4456 6.32659 1.77383C6.19028 2.10207 6.12011 2.45398 6.12012 2.80939V22.2194C7.35621 21.6416 8.71824 21.3854 10.0798 21.4746C11.4413 21.5639 12.7583 21.9956 13.9084 22.7297C15.0585 23.4639 16.0046 24.4767 16.6587 25.6742C17.3128 26.8716 17.6538 28.2149 17.6501 29.5794C17.654 30.3094 17.5564 31.0363 17.3601 31.7394H23.5701C23.3766 31.046 23.279 30.3293 23.2801 29.6094C23.2419 28.5197 23.4234 27.4336 23.814 26.4156C24.2046 25.3977 24.7962 24.4688 25.5535 23.6844C26.3109 22.9 27.2184 22.2762 28.222 21.8501C29.2257 21.4241 30.3048 21.2045 31.3951 21.2045C32.4854 21.2045 33.5646 21.4241 34.5682 21.8501C35.5718 22.2762 36.4794 22.9 37.2367 23.6844C37.994 24.4688 38.5856 25.3977 38.9762 26.4156C39.3668 27.4336 39.5484 28.5197 39.5101 29.6094C39.5079 30.3298 39.407 31.0464 39.2101 31.7394H44.3601C44.1632 31.0464 44.0623 30.3298 44.0601 29.6094C44.0628 27.4566 44.9191 25.3928 46.4413 23.8706C47.9636 22.3484 50.0274 21.492 52.1801 21.4894C53.7757 21.4858 55.3358 21.9595 56.6601 22.8494V2.84939C56.6654 2.49481 56.6008 2.14266 56.47 1.81306C56.3392 1.48345 56.1447 1.18284 55.8977 0.928404C55.6507 0.673964 55.356 0.470674 55.0304 0.330147C54.7048 0.18962 54.3547 0.114608 54.0001 0.109394ZM25.3801 8.50939H38.6501C38.9616 8.48873 39.2739 8.53224 39.5679 8.63722C39.8618 8.7422 40.1311 8.90641 40.359 9.11969C40.5869 9.33297 40.7685 9.59076 40.8927 9.87711C41.0169 10.1635 41.081 10.4723 41.081 10.7844C41.081 11.0965 41.0169 11.4053 40.8927 11.6917C40.7685 11.978 40.5869 12.2358 40.359 12.4491C40.1311 12.6624 39.8618 12.8266 39.5679 12.9316C39.2739 13.0365 38.9616 13.0801 38.6501 13.0594H25.3401C25.0287 13.0801 24.7163 13.0365 24.4224 12.9316C24.1284 12.8266 23.8592 12.6624 23.6313 12.4491C23.4034 12.2358 23.2217 11.978 23.0975 11.6917C22.9733 11.4053 22.9092 11.0965 22.9092 10.7844C22.9092 10.4723 22.9733 10.1635 23.0975 9.87711C23.2217 9.59076 23.4034 9.33297 23.6313 9.11969C23.8592 8.90641 24.1284 8.7422 24.4224 8.63722C24.7163 8.53224 25.0287 8.48873 25.3401 8.50939H25.3801ZM46.1301 19.9894H16.9401C16.3354 19.9894 15.7555 19.7492 15.3279 19.3216C14.9003 18.894 14.6601 18.3141 14.6601 17.7094C14.6601 17.1047 14.9003 16.5248 15.3279 16.0972C15.7555 15.6696 16.3354 15.4294 16.9401 15.4294H46.1301C46.7348 15.4294 47.3147 15.6696 47.7423 16.0972C48.1699 16.5248 48.4101 17.1047 48.4101 17.7094C48.4101 18.3141 48.1699 18.894 47.7423 19.3216C47.3147 19.7492 46.7348 19.9894 46.1301 19.9894Z" fill="#0184FF"/>
</g>
<defs>
<clipPath id="clip0_9204_7423">
<rect width="62" height="47.27" fill="white" transform="translate(0 0.109375)"/>
</clipPath>
</defs>
</svg>
