<svg width="24" height="24" viewBox="0 0 24 24" fill="none" xmlns="http://www.w3.org/2000/svg">
<path fill-rule="evenodd" clip-rule="evenodd" d="M3.25 3C3.25 2.0335 4.0335 1.25 5 1.25H15.5C15.7126 1.25 15.9152 1.34024 16.0575 1.49828L20.5575 6.49828C20.6814 6.63599 20.75 6.81472 20.75 7V11.5C20.75 11.9142 20.4142 12.25 20 12.25C19.5858 12.25 19.25 11.9142 19.25 11.5V7.2878L15.166 2.75H5C4.86193 2.75 4.75 2.86193 4.75 3V21C4.75 21.1381 4.86192 21.25 5 21.25H11C11.4142 21.25 11.75 21.5858 11.75 22C11.75 22.4142 11.4142 22.75 11 22.75H5C4.03351 22.75 3.25 21.9665 3.25 21V3Z" fill="#1C1B1F"/>
<path fill-rule="evenodd" clip-rule="evenodd" d="M15 1.25C15.4142 1.25 15.75 1.58579 15.75 2V6.25H20C20.4142 6.25 20.75 6.58579 20.75 7C20.75 7.41421 20.4142 7.75 20 7.75H15C14.5858 7.75 14.25 7.41421 14.25 7V2C14.25 1.58579 14.5858 1.25 15 1.25Z" fill="#1C1B1F"/>
<path d="M15.8171 22.75C16.2855 22.75 16.6653 22.3702 16.6653 21.9018C16.6653 21.4333 16.2855 21.0536 15.8171 21.0536C15.3486 21.0536 14.9689 21.4333 14.9689 21.9018C14.9689 22.3702 15.3486 22.75 15.8171 22.75Z" fill="#1C1B1F"/>
<path d="M19.9368 22.75C20.4053 22.75 20.785 22.3702 20.785 21.9018C20.785 21.4333 20.4053 21.0536 19.9368 21.0536C19.4684 21.0536 19.0887 21.4333 19.0887 21.9018C19.0887 22.3702 19.4684 22.75 19.9368 22.75Z" fill="#1C1B1F"/>
<path d="M11.7584 13.0971C11.8697 12.93 12.0954 12.8849 12.2625 12.9963L14.4435 14.4503C14.521 14.502 14.5757 14.5814 14.5963 14.6722L15.7437 19.7207H20.0284L21.0262 16.328H16.9076C16.7068 16.328 16.5441 16.1652 16.5441 15.9645C16.5441 15.7637 16.7068 15.601 16.9076 15.601H21.5121C21.6266 15.601 21.7345 15.655 21.8031 15.7467C21.8717 15.8384 21.8931 15.9571 21.8608 16.067L20.6491 20.1868C20.6036 20.3415 20.4616 20.4477 20.3004 20.4477H15.4536C15.2838 20.4477 15.1367 20.3303 15.0991 20.1648L13.9195 14.9748L11.8592 13.6012C11.6921 13.4898 11.647 13.2641 11.7584 13.0971Z" fill="#1C1B1F"/>
<path d="M16.5441 18.1455C16.5441 17.9448 16.7068 17.782 16.9076 17.782H20.785C20.9858 17.782 21.1485 17.9448 21.1485 18.1455C21.1485 18.3463 20.9858 18.509 20.785 18.509H16.9076C16.7068 18.509 16.5441 18.3463 16.5441 18.1455Z" fill="#1C1B1F"/>
<path d="M11.7584 13.0971L11.6752 13.0416L11.7584 13.0971ZM12.2625 12.9963L12.207 13.0795L12.2625 12.9963ZM14.4435 14.4503L14.499 14.3671L14.4435 14.4503ZM14.5963 14.6722L14.4988 14.6944V14.6944L14.5963 14.6722ZM15.7437 19.7207L15.6462 19.7429C15.6566 19.7884 15.697 19.8207 15.7437 19.8207V19.7207ZM20.0284 19.7207V19.8207C20.0727 19.8207 20.1118 19.7915 20.1243 19.7489L20.0284 19.7207ZM21.0262 16.328L21.1222 16.3562C21.1311 16.326 21.1252 16.2933 21.1063 16.2681C21.0874 16.2428 21.0578 16.228 21.0262 16.228V16.328ZM21.8031 15.7467L21.8832 15.6868L21.8031 15.7467ZM21.8608 16.067L21.9567 16.0953L21.8608 16.067ZM20.6491 20.1868L20.745 20.215V20.215L20.6491 20.1868ZM15.0991 20.1648L15.1966 20.1426V20.1426L15.0991 20.1648ZM13.9195 14.9748L14.0171 14.9526C14.0114 14.9276 13.9963 14.9058 13.975 14.8916L13.9195 14.9748ZM11.8592 13.6012L11.9146 13.518L11.8592 13.6012ZM15.8171 22.85C16.3407 22.85 16.7653 22.4255 16.7653 21.9018H16.5653C16.5653 22.315 16.2303 22.65 15.8171 22.65V22.85ZM16.7653 21.9018C16.7653 21.3781 16.3407 20.9536 15.8171 20.9536V21.1536C16.2303 21.1536 16.5653 21.4886 16.5653 21.9018H16.7653ZM15.8171 20.9536C15.2934 20.9536 14.8689 21.3781 14.8689 21.9018H15.0689C15.0689 21.4886 15.4039 21.1536 15.8171 21.1536V20.9536ZM14.8689 21.9018C14.8689 22.4255 15.2934 22.85 15.8171 22.85V22.65C15.4039 22.65 15.0689 22.315 15.0689 21.9018H14.8689ZM19.9368 22.85C20.4605 22.85 20.885 22.4255 20.885 21.9018H20.685C20.685 22.315 20.3501 22.65 19.9368 22.65V22.85ZM20.885 21.9018C20.885 21.3781 20.4605 20.9536 19.9368 20.9536V21.1536C20.3501 21.1536 20.685 21.4886 20.685 21.9018H20.885ZM19.9368 20.9536C19.4132 20.9536 18.9887 21.3781 18.9887 21.9018H19.1887C19.1887 21.4886 19.5236 21.1536 19.9368 21.1536V20.9536ZM18.9887 21.9018C18.9887 22.4255 19.4132 22.85 19.9368 22.85V22.65C19.5236 22.65 19.1887 22.315 19.1887 21.9018H18.9887ZM11.8416 13.1526C11.9223 13.0315 12.0859 12.9987 12.207 13.0795L12.3179 12.9131C12.1049 12.7711 11.8171 12.8286 11.6752 13.0416L11.8416 13.1526ZM12.207 13.0795L14.388 14.5335L14.499 14.3671L12.3179 12.9131L12.207 13.0795ZM14.388 14.5335C14.4442 14.571 14.4839 14.6285 14.4988 14.6944L14.6939 14.65C14.6675 14.5342 14.5978 14.433 14.499 14.3671L14.388 14.5335ZM14.4988 14.6944L15.6462 19.7429L15.8412 19.6986L14.6939 14.65L14.4988 14.6944ZM15.7437 19.8207H20.0284V19.6207H15.7437V19.8207ZM20.1243 19.7489L21.1222 16.3562L20.9303 16.2998L19.9324 19.6925L20.1243 19.7489ZM21.0262 16.228H16.9076V16.428H21.0262V16.228ZM16.9076 16.228C16.7621 16.228 16.6441 16.11 16.6441 15.9645H16.4441C16.4441 16.2205 16.6516 16.428 16.9076 16.428V16.228ZM16.6441 15.9645C16.6441 15.8189 16.7621 15.701 16.9076 15.701V15.501C16.6516 15.501 16.4441 15.7085 16.4441 15.9645H16.6441ZM16.9076 15.701H21.5121V15.501H16.9076V15.701ZM21.5121 15.701C21.5951 15.701 21.6733 15.7401 21.723 15.8066L21.8832 15.6868C21.7957 15.5698 21.6581 15.501 21.5121 15.501V15.701ZM21.723 15.8066C21.7728 15.8731 21.7883 15.9591 21.7649 16.0388L21.9567 16.0953C21.9979 15.9551 21.9707 15.8037 21.8832 15.6868L21.723 15.8066ZM21.7649 16.0388L20.5532 20.1586L20.745 20.215L21.9567 16.0953L21.7649 16.0388ZM20.5532 20.1586C20.5202 20.2707 20.4173 20.3477 20.3004 20.3477V20.5477C20.506 20.5477 20.687 20.4123 20.745 20.215L20.5532 20.1586ZM20.3004 20.3477H15.4536V20.5477H20.3004V20.3477ZM15.4536 20.3477C15.3305 20.3477 15.2239 20.2626 15.1966 20.1426L15.0016 20.187C15.0495 20.398 15.2372 20.5477 15.4536 20.5477V20.3477ZM15.1966 20.1426L14.0171 14.9526L13.822 14.9969L15.0016 20.187L15.1966 20.1426ZM13.975 14.8916L11.9146 13.518L11.8037 13.6844L13.8641 15.058L13.975 14.8916ZM11.9146 13.518C11.7936 13.4373 11.7608 13.2737 11.8416 13.1526L11.6752 13.0416C11.5332 13.2546 11.5907 13.5424 11.8037 13.6844L11.9146 13.518ZM16.6441 18.1455C16.6441 18 16.7621 17.882 16.9076 17.882V17.682C16.6516 17.682 16.4441 17.8895 16.4441 18.1455H16.6441ZM16.9076 17.882H20.785V17.682H16.9076V17.882ZM20.785 17.882C20.9306 17.882 21.0485 18 21.0485 18.1455H21.2485C21.2485 17.8895 21.041 17.682 20.785 17.682V17.882ZM21.0485 18.1455C21.0485 18.2911 20.9306 18.409 20.785 18.409V18.609C21.041 18.609 21.2485 18.4015 21.2485 18.1455H21.0485ZM20.785 18.409H16.9076V18.609H20.785V18.409ZM16.9076 18.409C16.7621 18.409 16.6441 18.2911 16.6441 18.1455H16.4441C16.4441 18.4015 16.6516 18.609 16.9076 18.609V18.409Z" fill="#1C1B1F"/>
<path d="M6.96387 6.09888H12.0005" stroke="#1C1B1F" stroke-linecap="round"/>
<path d="M6.96387 9.04944H12.0005" stroke="#1C1B1F" stroke-linecap="round"/>
<path d="M6.96387 12H9.72206" stroke="#1C1B1F" stroke-linecap="round"/>
</svg>
