<svg width="24" height="24" viewBox="0 0 24 24" fill="none" xmlns="http://www.w3.org/2000/svg">
<path fill-rule="evenodd" clip-rule="evenodd" d="M9.90705 17.2558C10.3181 17.2044 10.6929 17.496 10.7443 17.907L11.2443 21.907C11.2957 22.318 11.0041 22.6929 10.5931 22.7442C10.1821 22.7956 9.80725 22.5041 9.75587 22.093L9.25587 18.093C9.20449 17.682 9.49604 17.3072 9.90705 17.2558Z" fill="#1C1B1F"/>
<path fill-rule="evenodd" clip-rule="evenodd" d="M11.9378 5.50365C12.0801 5.34238 12.2849 5.25 12.5 5.25H22C22.4142 5.25 22.75 5.58579 22.75 6V22C22.75 22.4142 22.4142 22.75 22 22.75H10.5C10.2057 22.75 9.93864 22.5779 9.81704 22.3099C9.69544 22.0419 9.74179 21.7276 9.93558 21.5061L13.2141 17.7593L11.7558 6.09303C11.7291 5.87956 11.7954 5.66492 11.9378 5.50365ZM13.3496 6.75L14.7442 17.907C14.7708 18.1193 14.7053 18.3328 14.5644 18.4939L12.1528 21.25H21.25V6.75H13.3496Z" fill="#1C1B1F"/>
<path fill-rule="evenodd" clip-rule="evenodd" d="M12.75 14C12.75 13.5858 13.0858 13.25 13.5 13.25H17.5C17.9142 13.25 18.25 13.5858 18.25 14C18.25 14.4142 17.9142 14.75 17.5 14.75H13.5C13.0858 14.75 12.75 14.4142 12.75 14Z" fill="#1C1B1F"/>
<path fill-rule="evenodd" clip-rule="evenodd" d="M12.25 10C12.25 9.58579 12.5858 9.25 13 9.25H17.5C17.9142 9.25 18.25 9.58579 18.25 10C18.25 10.4142 17.9142 10.75 17.5 10.75H13C12.5858 10.75 12.25 10.4142 12.25 10Z" fill="#1C1B1F"/>
<path fill-rule="evenodd" clip-rule="evenodd" d="M1.25 2C1.25 1.58579 1.58579 1.25 2 1.25H12C12.3782 1.25 12.6973 1.53165 12.7442 1.90697L14.7442 17.907C14.7709 18.1204 14.7046 18.3351 14.5623 18.4964C14.4199 18.6576 14.2151 18.75 14 18.75H2C1.58579 18.75 1.25 18.4142 1.25 18V2ZM2.75 2.75V17.25H13.1504L11.3379 2.75H2.75Z" fill="#1C1B1F"/>
<path fill-rule="evenodd" clip-rule="evenodd" d="M4.25 6C4.25 5.58579 4.58579 5.25 5 5.25H8.5C8.91421 5.25 9.25 5.58579 9.25 6C9.25 6.41421 8.91421 6.75 8.5 6.75H5C4.58579 6.75 4.25 6.41421 4.25 6Z" fill="#1C1B1F"/>
<path fill-rule="evenodd" clip-rule="evenodd" d="M4.25 10C4.25 9.58579 4.58579 9.25 5 9.25H9C9.41421 9.25 9.75 9.58579 9.75 10C9.75 10.4142 9.41421 10.75 9 10.75H5C4.58579 10.75 4.25 10.4142 4.25 10Z" fill="#1C1B1F"/>
<path fill-rule="evenodd" clip-rule="evenodd" d="M4.25 14C4.25 13.5858 4.58579 13.25 5 13.25H9.5C9.91421 13.25 10.25 13.5858 10.25 14C10.25 14.4142 9.91421 14.75 9.5 14.75H5C4.58579 14.75 4.25 14.4142 4.25 14Z" fill="#1C1B1F"/>
</svg>
