<svg width="18" height="18" viewBox="0 0 18 18" fill="none" xmlns="http://www.w3.org/2000/svg">
<path d="M8.43628 11.5975C9.01128 11.825 9.53628 12.1275 10.0088 12.5038C10.4813 12.8788 10.885 13.3162 11.2213 13.8112C11.9071 14.81 12.2764 15.9922 12.2813 17.2037V17.75H11.1875V17.2025C11.1899 16.556 11.0634 15.9155 10.8155 15.3185C10.5676 14.7214 10.2033 14.1797 9.74377 13.725C9.29272 13.2804 8.76231 12.9242 8.18002 12.675C7.57485 12.4157 6.9234 12.2818 6.26502 12.2812C5.61854 12.2789 4.97808 12.4054 4.38102 12.6533C3.78395 12.9011 3.24225 13.2655 2.78752 13.725C2.34302 14.1762 1.98688 14.7066 1.73752 15.2888C1.48002 15.8812 1.35002 16.52 1.34377 17.2025V17.75H0.250021V17.2025C0.246824 15.99 0.616908 14.806 1.31002 13.8112C2.00039 12.8152 2.96974 12.0455 4.09628 11.5988C3.84035 11.4229 3.60731 11.2159 3.40252 10.9825C3.20015 10.7527 3.02523 10.5002 2.88128 10.23C2.73788 9.96003 2.62869 9.67323 2.55628 9.37625C2.48242 9.07372 2.44259 8.76388 2.43752 8.45249C2.43752 7.92375 2.53752 7.42751 2.73752 6.96625C3.1286 6.0524 3.85642 5.32414 4.77002 4.93249C5.24135 4.73186 5.74812 4.62771 6.26039 4.6262C6.77265 4.62469 7.28002 4.72588 7.75252 4.92375C8.6666 5.31512 9.39489 6.04342 9.78628 6.95751C10.1099 7.71863 10.1788 8.56403 9.98252 9.36749C9.90752 9.66375 9.79752 9.94875 9.65002 10.2225C9.50346 10.4934 9.32876 10.7482 9.12877 10.9825C8.92877 11.2162 8.69752 11.42 8.43628 11.5975ZM6.26502 11.1875C6.64128 11.1875 6.99502 11.1162 7.32502 10.975C7.97931 10.697 8.50008 10.1758 8.77752 9.52125C8.92628 9.185 9.00002 8.82875 9.00002 8.45375C9.00163 8.0958 8.93131 7.74118 8.79323 7.41094C8.65517 7.08069 8.45217 6.78154 8.19628 6.53125C7.94317 6.28445 7.64815 6.08466 7.32502 5.94125C6.9916 5.79234 6.63019 5.71646 6.26502 5.71875C5.89002 5.71875 5.53628 5.79 5.20628 5.93125C4.54837 6.21186 4.02437 6.73586 3.74377 7.39375C3.60252 7.72375 3.53128 8.07751 3.53128 8.45375C3.53128 8.82875 3.60252 9.18249 3.74377 9.51251C3.88752 9.84251 4.08128 10.1338 4.32628 10.3838C4.57991 10.64 4.88214 10.8432 5.21526 10.9812C5.54838 11.1192 5.90569 11.1893 6.26628 11.1875H6.26502ZM17.75 0.25V9H15.5625L12.2813 12.2812V9H11.1875V7.90625H13.375V9.64125L15.11 7.90625H16.6563V1.34375H5.71877V3.30875C5.53543 3.33191 5.35285 3.36068 5.17128 3.395C4.98508 3.43035 4.80231 3.48178 4.62502 3.54875V0.25H17.75Z" fill="#1C1B1F"/>
</svg>
