<svg width="current" height="current" viewBox="0 0 59 61" fill="none" xmlns="http://www.w3.org/2000/svg">
<g clip-path="url(#clip0_9204_7409)">
<path d="M42.61 43.3591C41.7309 44.1606 40.6706 44.737 39.52 45.0391L35.32 46.1791C34.1741 46.5136 32.9537 46.4927 31.82 46.1191C31.1445 45.9093 30.5512 45.4941 30.1229 44.9313C29.6945 44.3684 29.4523 43.686 29.43 42.9791C29.2839 41.7691 29.4563 40.542 29.93 39.4191L31.25 36.1691C31.6467 35.0938 32.2632 34.1129 33.06 33.2891L44.52 21.8491V15.1191H33.9C32.8151 15.1059 31.7789 14.6664 31.0154 13.8954C30.252 13.1245 29.8225 12.0841 29.82 10.9991V0.539062H4.12C3.02812 0.541703 1.98172 0.976621 1.20964 1.7487C0.437559 2.52078 0.00264059 3.56718 0 4.65906V55.9891C0 57.0818 0.43407 58.1297 1.20672 58.9023C1.97937 59.675 3.02731 60.1091 4.12 60.1091H40.4C41.4927 60.1091 42.5406 59.675 43.3133 58.9023C44.0859 58.1297 44.52 57.0818 44.52 55.9891V41.6491L42.61 43.3591ZM7.82 17.9691H33.51C33.878 18.0116 34.2175 18.188 34.4639 18.4645C34.7103 18.7411 34.8465 19.0986 34.8465 19.4691C34.8465 19.8395 34.7103 20.197 34.4639 20.4736C34.2175 20.7502 33.878 20.9265 33.51 20.9691H7.82C7.45202 20.9265 7.11252 20.7502 6.86609 20.4736C6.61966 20.197 6.48349 19.8395 6.48349 19.4691C6.48349 19.0986 6.61966 18.7411 6.86609 18.4645C7.11252 18.188 7.45202 18.0116 7.82 17.9691ZM7.82 24.4691H25.43C25.798 24.5116 26.1375 24.688 26.3839 24.9645C26.6303 25.2411 26.7665 25.5986 26.7665 25.9691C26.7665 26.3395 26.6303 26.697 26.3839 26.9736C26.1375 27.2502 25.798 27.4265 25.43 27.4691H7.82C7.60847 27.4935 7.39416 27.473 7.19114 27.4088C6.98812 27.3445 6.80097 27.2381 6.64199 27.0965C6.483 26.9548 6.35578 26.7811 6.26866 26.5868C6.18154 26.3925 6.13651 26.182 6.13651 25.9691C6.13651 25.7561 6.18154 25.5456 6.26866 25.3513C6.35578 25.157 6.483 24.9833 6.64199 24.8417C6.80097 24.7 6.98812 24.5936 7.19114 24.5294C7.39416 24.4651 7.60847 24.4446 7.82 24.4691ZM7.65 31.9091H25.26C25.628 31.9516 25.9675 32.128 26.2139 32.4045C26.4603 32.6811 26.5965 33.0386 26.5965 33.4091C26.5965 33.7795 26.4603 34.137 26.2139 34.4136C25.9675 34.6902 25.628 34.8665 25.26 34.9091H7.61C7.39847 34.9335 7.18416 34.913 6.98114 34.8488C6.77812 34.7845 6.59097 34.6781 6.43199 34.5365C6.273 34.3948 6.14578 34.2211 6.05866 34.0268C5.97154 33.8325 5.92651 33.622 5.92651 33.4091C5.92651 33.1961 5.97154 32.9856 6.05866 32.7913C6.14578 32.597 6.273 32.4233 6.43199 32.2817C6.59097 32.14 6.77812 32.0336 6.98114 31.9694C7.18416 31.9051 7.39847 31.8846 7.61 31.9091H7.65ZM6.31 40.0691C6.31262 39.6694 6.47255 39.2868 6.75517 39.0042C7.03778 38.7216 7.42033 38.5617 7.82 38.5591H25.43C25.798 38.6016 26.1375 38.778 26.3839 39.0545C26.6303 39.3311 26.7665 39.6886 26.7665 40.0591C26.7665 40.4295 26.6303 40.787 26.3839 41.0636C26.1375 41.3402 25.798 41.5165 25.43 41.5591H7.82C7.62004 41.5644 7.42101 41.5299 7.23448 41.4577C7.04795 41.3854 6.87763 41.2768 6.73342 41.1382C6.58921 40.9996 6.47398 40.8337 6.39443 40.6501C6.31487 40.4666 6.27258 40.2691 6.27 40.0691H6.31ZM33.55 51.8691H21.94C21.572 51.8265 21.2325 51.6502 20.9861 51.3736C20.7397 51.097 20.6035 50.7395 20.6035 50.3691C20.6035 49.9986 20.7397 49.6411 20.9861 49.3645C21.2325 49.088 21.572 48.9116 21.94 48.8691H33.51C33.878 48.9116 34.2175 49.088 34.4639 49.3645C34.7103 49.6411 34.8465 49.9986 34.8465 50.3691C34.8465 50.7395 34.7103 51.097 34.4639 51.3736C34.2175 51.6502 33.878 51.8265 33.51 51.8691H33.55Z" fill="#0184FF"/>
<path d="M36.5195 39.6186L38.5395 41.6286L35.7795 42.3786L33.0195 43.1086L33.7595 40.3486L34.4995 37.5986L36.5195 39.6186Z" fill="#0184FF"/>
<path d="M52.1421 28.105L47.7227 23.6855L36.3241 35.0841L40.7435 39.5035L52.1421 28.105Z" fill="#0184FF"/>
<path d="M56.2137 17.703L58.13 19.6192C58.5651 20.0543 58.8095 20.6444 58.8095 21.2597C58.8095 21.875 58.5651 22.4651 58.13 22.9002L55.0541 25.9761L49.8568 20.7789L52.8974 17.7383C53.3325 17.3033 53.9226 17.0588 54.5379 17.0588C55.1532 17.0588 55.7433 17.3033 56.1784 17.7383L56.2137 17.703Z" fill="#0184FF"/>
<path d="M31.9297 1.17871H45.1497V12.7287H35.3797C34.4647 12.7287 33.5872 12.3652 32.9402 11.7182C32.2932 11.0712 31.9297 10.1937 31.9297 9.27871V1.17871Z" fill="#0184FF"/>
</g>
<defs>
<clipPath id="clip0_9204_7409">
<rect width="58.8" height="59.57" fill="white" transform="translate(0 0.539062)"/>
</clipPath>
</defs>
</svg>
