<svg width="47" height="61" viewBox="0 0 47 61" fill="none" xmlns="http://www.w3.org/2000/svg">
<g clip-path="url(#clip0_9204_7392)">
<path d="M37.5202 12.1194C36.9702 10.9094 29.1702 -2.72056 17.9502 1.72944C15.7463 2.90354 14.0128 4.79943 13.0402 7.09944C12.8035 7.78529 12.4665 8.43231 12.0402 9.01944C10.5902 10.8794 7.43024 13.4494 7.20024 14.0194C6.56024 15.4394 3.58024 24.4094 7.20024 36.5594L7.63024 36.4394C8.93522 36.0915 10.2797 35.9133 11.6302 35.9094H34.2802C36.4179 35.9082 38.5325 36.3509 40.4902 37.2094C40.4902 37.2094 43.2802 20.6394 37.5202 12.1194ZM23.3002 31.8794C18.1702 31.8794 14.0202 27.2094 14.0202 21.4394C14.0202 21.1894 14.2802 18.7294 14.4302 17.3694C14.4552 17.1005 14.5557 16.8441 14.7203 16.63C14.8849 16.4159 15.1068 16.2527 15.3602 16.1594L27.2102 11.6894C27.5252 11.571 27.8715 11.5651 28.1904 11.6726C28.5093 11.7801 28.7812 11.9945 28.9602 12.2794C30.4402 14.6794 32.5702 19.2794 32.5702 21.4394C32.5702 27.2094 28.4202 31.8794 23.3002 31.8794Z" fill="#0184FF"/>
<path d="M23.0104 37.1699L17.9004 42.0399L23.0104 53.7299L28.2904 41.8099L23.0104 37.1699Z" fill="#0184FF"/>
<path d="M31.87 37.96H35.13C35.2292 37.9624 35.3247 37.9983 35.4009 38.0619C35.4772 38.1254 35.5297 38.2128 35.55 38.31L36.69 44.73C36.7045 44.8007 36.7002 44.874 36.6774 44.9425C36.6545 45.011 36.614 45.0722 36.56 45.12L25.85 54.74L25.75 54.86L23.67 58.86C23.6349 58.9294 23.5814 58.9878 23.5151 59.0285C23.4489 59.0693 23.3727 59.0909 23.295 59.0909C23.2172 59.0909 23.141 59.0693 23.0748 59.0285C23.0086 58.9878 22.955 58.9294 22.92 58.86L20.78 54.77C20.7553 54.7235 20.7212 54.6826 20.68 54.65L9.41996 44.94C9.36243 44.8902 9.31915 44.826 9.29455 44.7539C9.26996 44.6819 9.26492 44.6046 9.27996 44.53L10.64 38.29C10.6625 38.1957 10.7163 38.1118 10.7925 38.0519C10.8688 37.992 10.963 37.9596 11.06 37.96H14.34C14.4209 37.9595 14.5002 37.983 14.5678 38.0275C14.6354 38.072 14.6884 38.1355 14.72 38.21L22.9 56.1C22.9345 56.1743 22.9895 56.2373 23.0586 56.2814C23.1277 56.3255 23.208 56.3489 23.29 56.3489C23.3719 56.3489 23.4522 56.3255 23.5213 56.2814C23.5904 56.2373 23.6454 56.1743 23.68 56.1L31.48 38.21C31.5133 38.1347 31.568 38.0708 31.6374 38.0264C31.7067 37.9819 31.7876 37.9588 31.87 37.96Z" fill="#0184FF"/>
<path d="M9.49961 37.9502C9.51254 37.8947 9.51127 37.8367 9.49593 37.7818C9.48059 37.7268 9.45166 37.6766 9.41182 37.6358C9.37197 37.5949 9.32249 37.5648 9.26793 37.5481C9.21337 37.5314 9.15549 37.5287 9.09961 37.5402C7.21961 37.9702 0.639609 39.9702 0.0996094 47.2802V59.9302C0.0996094 60.0204 0.135431 60.1069 0.199193 60.1707C0.262955 60.2344 0.349436 60.2702 0.43961 60.2702H21.2096C21.2678 60.2711 21.3252 60.257 21.3764 60.2293C21.4275 60.2016 21.4707 60.1612 21.5018 60.1121C21.5329 60.0629 21.5509 60.0066 21.554 59.9485C21.5571 59.8904 21.5453 59.8325 21.5196 59.7802L19.3296 55.2302C19.3085 55.1871 19.2777 55.1494 19.2396 55.1202L8.17961 45.7902C8.13231 45.7507 8.0963 45.6993 8.07523 45.6414C8.05416 45.5834 8.04877 45.5209 8.05961 45.4602L9.49961 37.9502Z" fill="#0184FF"/>
<path d="M36.7805 37.9502C36.7676 37.8947 36.7688 37.8367 36.7842 37.7818C36.7995 37.7268 36.8284 37.6766 36.8683 37.6358C36.9081 37.5949 36.9576 37.5648 37.0122 37.5481C37.0667 37.5314 37.1246 37.5287 37.1805 37.5402C39.0605 37.9702 45.6405 39.9702 46.2405 47.2802V59.9302C46.2405 59.9749 46.2317 60.0191 46.2146 60.0604C46.1975 60.1016 46.1725 60.1391 46.1409 60.1707C46.1093 60.2022 46.0718 60.2273 46.0306 60.2444C45.9893 60.2614 45.9451 60.2702 45.9005 60.2702H25.0705C25.0123 60.2711 24.9549 60.257 24.9037 60.2293C24.8526 60.2016 24.8094 60.1612 24.7783 60.1121C24.7472 60.0629 24.7292 60.0066 24.7261 59.9485C24.723 59.8904 24.7348 59.8325 24.7605 59.7802L26.9505 55.2302C26.9716 55.1871 27.0024 55.1494 27.0405 55.1202L38.1005 45.7902C38.1468 45.7502 38.1815 45.6985 38.2009 45.6404C38.2202 45.5823 38.2236 45.5201 38.2105 45.4602L36.7805 37.9502Z" fill="#0184FF"/>
</g>
<defs>
<clipPath id="clip0_9204_7392">
<rect width="46.27" height="59.43" fill="white" transform="translate(0 0.839844)"/>
</clipPath>
</defs>
</svg>
