<svg width="19" height="13" viewBox="0 0 19 13" fill="none" xmlns="http://www.w3.org/2000/svg">
<path d="M12.6531 2.86523V10.8652H2.65308V2.86523H12.6531ZM13.6531 0.865234H1.65308C1.38786 0.865234 1.13351 0.970591 0.945969 1.15813C0.758433 1.34566 0.653076 1.60002 0.653076 1.86523V11.8652C0.653076 12.1305 0.758433 12.3848 0.945969 12.5723C1.13351 12.7599 1.38786 12.8652 1.65308 12.8652H13.6531C13.9183 12.8652 14.1726 12.7599 14.3602 12.5723C14.5477 12.3848 14.6531 12.1305 14.6531 11.8652V8.36523L18.6531 12.3652V1.36523L14.6531 5.36523V1.86523C14.6531 1.60002 14.5477 1.34566 14.3602 1.15813C14.1726 0.970591 13.9183 0.865234 13.6531 0.865234Z" fill="#2094FF"/>
</svg>
