<svg width="18" height="17" viewBox="0 0 18 17" fill="none" xmlns="http://www.w3.org/2000/svg">
<path fill-rule="evenodd" clip-rule="evenodd" d="M0.0410156 1.5C0.0410156 1.15482 0.320838 0.875 0.666016 0.875H17.3327C17.6779 0.875 17.9577 1.15482 17.9577 1.5V6.08333C17.9577 6.42851 17.6779 6.70833 17.3327 6.70833C16.9875 6.70833 16.7077 6.42851 16.7077 6.08333V2.125H1.29102V13.375H3.58268C3.92786 13.375 4.20768 13.6548 4.20768 14V15.0721L7.46984 13.441C7.55663 13.3976 7.65232 13.375 7.74935 13.375H9.62435C9.96953 13.375 10.2493 13.6548 10.2493 14C10.2493 14.3452 9.96953 14.625 9.62435 14.625H7.89689L3.86219 16.6424C3.66845 16.7392 3.43836 16.7289 3.2541 16.615C3.06984 16.5011 2.95768 16.2999 2.95768 16.0833V14.625H0.666016C0.320838 14.625 0.0410156 14.3452 0.0410156 14V1.5Z" fill="#0184FF"/>
<path fill-rule="evenodd" clip-rule="evenodd" d="M3.37435 4.83333C3.37435 4.48816 3.65417 4.20833 3.99935 4.20833H6.49935C6.84453 4.20833 7.12435 4.48816 7.12435 4.83333C7.12435 5.17851 6.84453 5.45833 6.49935 5.45833H3.99935C3.65417 5.45833 3.37435 5.17851 3.37435 4.83333Z" fill="#0184FF"/>
<path fill-rule="evenodd" clip-rule="evenodd" d="M3.37435 7.33333C3.37435 6.98816 3.65417 6.70833 3.99935 6.70833H8.99935C9.34453 6.70833 9.62435 6.98816 9.62435 7.33333C9.62435 7.67851 9.34453 7.95833 8.99935 7.95833H3.99935C3.65417 7.95833 3.37435 7.67851 3.37435 7.33333Z" fill="#0184FF"/>
<path fill-rule="evenodd" clip-rule="evenodd" d="M17.7285 8.5163C17.9956 8.73488 18.035 9.12864 17.8164 9.39579L14.0664 13.9791C13.9608 14.1082 13.8081 14.1897 13.6421 14.2055C13.4761 14.2214 13.3107 14.1702 13.1826 14.0635L10.6826 11.9802C10.4174 11.7592 10.3816 11.3651 10.6026 11.0999C10.8235 10.8347 11.2176 10.7989 11.4828 11.0199L13.4983 12.6995L16.849 8.60425C17.0676 8.33709 17.4613 8.29772 17.7285 8.5163Z" fill="#0184FF"/>
</svg>
