<svg width="16" height="16" viewBox="0 0 16 16" fill="none" xmlns="http://www.w3.org/2000/svg">
<g clip-path="url(#clip0_16419_13733)">
<path fill-rule="evenodd" clip-rule="evenodd" d="M0 7.99997C0 5.87824 0.842855 3.84341 2.34315 2.34312C3.84344 0.842824 5.87827 -3.05176e-05 8 -3.05176e-05C10.1217 -3.05176e-05 12.1566 0.842824 13.6569 2.34312C15.1571 3.84341 16 5.87824 16 7.99997C16 10.1217 15.1571 12.1565 13.6569 13.6568C12.1566 15.1571 10.1217 16 8 16C5.87827 16 3.84344 15.1571 2.34315 13.6568C0.842855 12.1565 0 10.1217 0 7.99997Z" fill="#3758F9"/>
<path d="M11.3173 5.0005L12.1493 5.6661L7.54343 11.424L3.92529 8.40957L4.60796 7.59037L7.38983 9.90824L11.3173 5.0005Z" fill="white"/>
</g>
<defs>
<clipPath id="clip0_16419_13733">
<rect width="16" height="16" fill="white"/>
</clipPath>
</defs>
</svg>
