<svg width="16" height="22" viewBox="0 0 16 22" fill="none" xmlns="http://www.w3.org/2000/svg">
<g clip-path="url(#clip0_12599_8375)">
<path d="M11.7 10.47H2.63003C2.29866 10.47 2.03003 10.7386 2.03003 11.07V20.14C2.03003 20.4713 2.29866 20.74 2.63003 20.74H11.7C12.0314 20.74 12.3 20.4713 12.3 20.14V11.07C12.3 10.7386 12.0314 10.47 11.7 10.47Z" stroke="#202020" stroke-miterlimit="10"/>
<path d="M0.530029 3.73002L1.50003 1.27002L3.73003 2.80002L5.83003 10.23H2.50003L0.530029 3.73002Z" stroke="#202020" stroke-miterlimit="10"/>
<path d="M0.929993 3.79997L3.32999 2.96997" stroke="#202020" stroke-miterlimit="10"/>
<path d="M2.13 3.38L4.1 10.07" stroke="#202020" stroke-miterlimit="10"/>
<path d="M8.68997 0.5H5.65997V10.47H8.68997V0.5Z" stroke="#202020" stroke-miterlimit="10"/>
<path d="M7.40002 1.96997H8.33002" stroke="#202020" stroke-miterlimit="10"/>
<path d="M6.72998 3.38H8.55998" stroke="#202020" stroke-miterlimit="10"/>
<path d="M7.40002 4.63H8.33002" stroke="#202020" stroke-miterlimit="10"/>
<path d="M6.72998 6.13H8.55998" stroke="#202020" stroke-miterlimit="10"/>
<path d="M7.40002 7.63H8.70002" stroke="#202020" stroke-miterlimit="10"/>
<path d="M6.72998 8.87H8.32998" stroke="#202020" stroke-miterlimit="10"/>
<path d="M8.83002 9.74L11.46 1.97C11.5088 1.80697 11.5928 1.65668 11.7062 1.52977C11.8196 1.40285 11.9595 1.30244 12.116 1.23564C12.2725 1.16884 12.4418 1.13729 12.6118 1.14322C12.7819 1.14916 12.9486 1.19244 13.1 1.27C14.4 1.74 13.5 3.39 13.5 3.39L10.93 10.24" stroke="#202020" stroke-miterlimit="10"/>
<path d="M11.63 2.59998L14.11 3.46998C14.1904 3.49682 14.2646 3.53961 14.3281 3.5958C14.3916 3.65199 14.4431 3.72042 14.4795 3.79699C14.5159 3.87355 14.5365 3.95668 14.54 4.04139C14.5435 4.1261 14.5299 4.21065 14.5 4.28998L12.63 9.16998" stroke="#202020" stroke-miterlimit="10"/>
<path d="M9.41998 7.91998L11.45 8.62998" stroke="#202020" stroke-miterlimit="10"/>
</g>
<defs>
<clipPath id="clip0_12599_8375">
<rect width="15.04" height="21.23" fill="white"/>
</clipPath>
</defs>
</svg>
