<svg width="8" height="8" viewBox="0 0 8 8" fill="none" xmlns="http://www.w3.org/2000/svg">
<path fill-rule="evenodd" clip-rule="evenodd" d="M0.313118 0.313195C0.50838 0.117933 0.824963 0.117933 1.02023 0.313195L7.68689 6.97986C7.88215 7.17512 7.88215 7.49171 7.68689 7.68697C7.49163 7.88223 7.17505 7.88223 6.97978 7.68697L0.313118 1.0203C0.117856 0.825039 0.117856 0.508457 0.313118 0.313195Z" fill="#202020"/>
<path fill-rule="evenodd" clip-rule="evenodd" d="M7.68689 0.313195C7.88215 0.508457 7.88215 0.825039 7.68689 1.0203L1.02023 7.68697C0.824963 7.88223 0.50838 7.88223 0.313118 7.68697C0.117856 7.49171 0.117856 7.17512 0.313118 6.97986L6.97978 0.313195C7.17505 0.117933 7.49163 0.117933 7.68689 0.313195Z" fill="#202020"/>
</svg>
