<svg width="current" height="current" viewBox="0 0 14 14" fill="none" xmlns="http://www.w3.org/2000/svg">
<path d="M5.66683 2.33333H8.3335C8.3335 1.97971 8.19302 1.64057 7.94297 1.39052C7.69292 1.14048 7.35378 1 7.00016 1C6.64654 1 6.3074 1.14048 6.05735 1.39052C5.80731 1.64057 5.66683 1.97971 5.66683 2.33333ZM4.66683 2.33333C4.66683 2.02692 4.72718 1.7235 4.84444 1.44041C4.9617 1.15731 5.13358 0.900088 5.35025 0.683418C5.56692 0.466748 5.82414 0.294875 6.10723 0.177614C6.39033 0.0603535 6.69374 0 7.00016 0C7.30658 0 7.61 0.0603535 7.89309 0.177614C8.17618 0.294875 8.43341 0.466748 8.65008 0.683418C8.86675 0.900088 9.03862 1.15731 9.15588 1.44041C9.27314 1.7235 9.3335 2.02692 9.3335 2.33333H13.1668C13.2994 2.33333 13.4266 2.38601 13.5204 2.47978C13.6142 2.57355 13.6668 2.70073 13.6668 2.83333C13.6668 2.96594 13.6142 3.09312 13.5204 3.18689C13.4266 3.28066 13.2994 3.33333 13.1668 3.33333H12.2868L11.5068 11.4073C11.447 12.026 11.1589 12.6002 10.6986 13.0179C10.2384 13.4356 9.63903 13.6669 9.0175 13.6667H4.98283C4.3614 13.6667 3.76223 13.4354 3.30213 13.0177C2.84203 12.6 2.55399 12.0259 2.49416 11.4073L1.7135 3.33333H0.833496C0.700888 3.33333 0.573711 3.28066 0.479943 3.18689C0.386174 3.09312 0.333496 2.96594 0.333496 2.83333C0.333496 2.70073 0.386174 2.57355 0.479943 2.47978C0.573711 2.38601 0.700888 2.33333 0.833496 2.33333H4.66683ZM6.00016 5.5C6.00016 5.36739 5.94748 5.24022 5.85372 5.14645C5.75995 5.05268 5.63277 5 5.50016 5C5.36755 5 5.24038 5.05268 5.14661 5.14645C5.05284 5.24022 5.00016 5.36739 5.00016 5.5V10.5C5.00016 10.6326 5.05284 10.7598 5.14661 10.8536C5.24038 10.9473 5.36755 11 5.50016 11C5.63277 11 5.75995 10.9473 5.85372 10.8536C5.94748 10.7598 6.00016 10.6326 6.00016 10.5V5.5ZM8.50016 5C8.63277 5 8.75995 5.05268 8.85371 5.14645C8.94748 5.24022 9.00016 5.36739 9.00016 5.5V10.5C9.00016 10.6326 8.94748 10.7598 8.85371 10.8536C8.75995 10.9473 8.63277 11 8.50016 11C8.36755 11 8.24038 10.9473 8.14661 10.8536C8.05284 10.7598 8.00016 10.6326 8.00016 10.5V5.5C8.00016 5.36739 8.05284 5.24022 8.14661 5.14645C8.24038 5.05268 8.36755 5 8.50016 5ZM3.4895 11.3113C3.52545 11.6824 3.69833 12.0268 3.97441 12.2774C4.25049 12.528 4.60999 12.6667 4.98283 12.6667H9.0175C9.39033 12.6667 9.74983 12.528 10.0259 12.2774C10.302 12.0268 10.4749 11.6824 10.5108 11.3113L11.2828 3.33333H2.7175L3.4895 11.3113Z" fill="#FF0000"/>
</svg>
