<svg width="20" height="20" viewBox="0 0 20 20" fill="none" xmlns="http://www.w3.org/2000/svg">
<g clip-path="url(#clip0_12605_8533)">
<path d="M18.65 0.5H10.52V18.07H18.65V0.5Z" stroke="#231F20" stroke-miterlimit="10"/>
<path d="M10.52 6.48001H18.65" stroke="#231F20" stroke-miterlimit="10"/>
<path d="M12.02 2.35001V5.45001" stroke="#231F20" stroke-miterlimit="10"/>
<path d="M12.02 7.35001V11.8" stroke="#231F20" stroke-miterlimit="10"/>
<path d="M11.07 18.35V19.05" stroke="#231F20" stroke-miterlimit="10"/>
<path d="M18.05 18.2V18.97" stroke="#231F20" stroke-miterlimit="10"/>
<path d="M8.81 0.5H0.89C0.674609 0.5 0.5 0.674609 0.5 0.89V5.43C0.5 5.64539 0.674609 5.82 0.89 5.82H8.81C9.02539 5.82 9.2 5.64539 9.2 5.43V0.89C9.2 0.674609 9.02539 0.5 8.81 0.5Z" stroke="#231F20" stroke-miterlimit="10"/>
<path d="M2.14997 1.73001H4.99997C5.11136 1.73001 5.21819 1.77426 5.29696 1.85303C5.37572 1.93179 5.41997 2.03862 5.41997 2.15001V4.15001C5.41251 4.25707 5.36528 4.35747 5.28756 4.43148C5.20985 4.5055 5.10727 4.54778 4.99997 4.55001H2.14997C2.03593 4.55001 1.92656 4.50471 1.84591 4.42407C1.76527 4.34343 1.71997 4.23406 1.71997 4.12001V2.12001C1.71997 2.06486 1.73083 2.01024 1.75194 1.95929C1.77305 1.90833 1.80399 1.86203 1.84299 1.82303C1.88199 1.78403 1.92829 1.75309 1.97924 1.73198C2.0302 1.71088 2.08482 1.70001 2.13997 1.70001L2.14997 1.73001Z" stroke="#231F20" stroke-miterlimit="10"/>
<path d="M8.26001 1.29999H7.57001V1.98999H8.26001V1.29999Z" fill="#231F20"/>
<path d="M8.26001 2.64999H7.57001V3.33999H8.26001V2.64999Z" fill="#231F20"/>
<path d="M7.92002 4.88999C8.10779 4.88999 8.26002 4.73777 8.26002 4.54999C8.26002 4.36221 8.10779 4.20999 7.92002 4.20999C7.73224 4.20999 7.58002 4.36221 7.58002 4.54999C7.58002 4.73777 7.73224 4.88999 7.92002 4.88999Z" fill="#231F20"/>
<path d="M8.57 7H1C0.723858 7 0.5 7.22386 0.5 7.5V17.57C0.5 17.8461 0.723858 18.07 1 18.07H8.57C8.84614 18.07 9.07 17.8461 9.07 17.57V7.5C9.07 7.22386 8.84614 7 8.57 7Z" stroke="#231F20" stroke-miterlimit="10"/>
<path d="M1.94001 8H1.32001V8.63H1.94001V8Z" fill="#231F20"/>
<path d="M3.26001 8H2.64001V8.63H3.26001V8Z" fill="#231F20"/>
<path d="M4.52997 8H3.90997V8.63H4.52997V8Z" fill="#231F20"/>
<path d="M6.40002 8.31H8.26002" stroke="#231F20" stroke-miterlimit="10"/>
<path d="M4.79 16.34C6.33087 16.34 7.58 15.0909 7.58 13.55C7.58 12.0091 6.33087 10.76 4.79 10.76C3.24913 10.76 2 12.0091 2 13.55C2 15.0909 3.24913 16.34 4.79 16.34Z" stroke="#231F20" stroke-miterlimit="10"/>
<path d="M0.5 9.57001H9.07" stroke="#231F20" stroke-miterlimit="10"/>
</g>
<defs>
<clipPath id="clip0_12605_8533">
<rect width="19.15" height="19.05" fill="white"/>
</clipPath>
</defs>
</svg>
