<svg width="94" height="80" viewBox="0 0 94 80" fill="none" xmlns="http://www.w3.org/2000/svg">
<g clip-path="url(#clip0_2124_1266)">
<path d="M21.4556 32.1411H13.3611C12.2459 32.1411 11.3379 33.0511 11.3379 34.1687V39.5765C11.3379 40.6941 12.2459 41.6041 13.3611 41.6041H21.4556C22.5708 41.6041 23.4788 40.6941 23.4788 39.5765V34.1687C23.4788 33.0511 22.5708 32.1411 21.4556 32.1411ZM16.7327 40.2528H13.3611C13.1823 40.2525 13.0108 40.1811 12.8843 40.0543C12.7578 39.9276 12.6866 39.7558 12.6862 39.5765V34.1687C12.6866 33.9894 12.7578 33.8176 12.8843 33.6909C13.0108 33.5641 13.1823 33.4928 13.3611 33.4924H16.7342V40.2528H16.7327ZM22.129 39.5779C22.1286 39.7572 22.0574 39.929 21.9309 40.0558C21.8044 40.1825 21.633 40.2539 21.4541 40.2543H18.0811V33.4938H21.4541C21.633 33.4942 21.8044 33.5656 21.9309 33.6923C22.0574 33.8191 22.1286 33.9909 22.129 34.1701V39.5779ZM21.4556 46.337H13.3611C12.2459 46.337 11.3379 47.2469 11.3379 48.3645V53.7723C11.3379 54.8899 12.2459 55.7999 13.3611 55.7999H21.4556C22.5708 55.7999 23.4788 54.8899 23.4788 53.7723V48.3645C23.4788 47.2469 22.5708 46.337 21.4556 46.337ZM16.7327 54.4487H13.3611C13.1823 54.4483 13.0108 54.3769 12.8843 54.2502C12.7578 54.1234 12.6866 53.9516 12.6862 53.7723V48.3645C12.6866 48.1853 12.7578 48.0135 12.8843 47.8867C13.0108 47.76 13.1823 47.6886 13.3611 47.6882H16.7342V54.4487H16.7327ZM22.129 53.7723C22.1286 53.9516 22.0574 54.1234 21.9309 54.2502C21.8044 54.3769 21.633 54.4483 21.4541 54.4487H18.0811V47.6882H21.4541C21.633 47.6886 21.8044 47.76 21.9309 47.8867C22.0574 48.0135 22.1286 48.1853 22.129 48.3645V53.7723ZM21.4556 59.8565H13.3611C12.2459 59.8565 11.3379 60.7664 11.3379 61.884V67.2918C11.3379 68.4094 12.2459 69.3194 13.3611 69.3194H21.4556C22.5708 69.3194 23.4788 68.4094 23.4788 67.2918V61.884C23.4788 60.7664 22.5708 59.8565 21.4556 59.8565ZM16.7327 67.9682H13.3611C13.1823 67.9678 13.0108 67.8964 12.8843 67.7696C12.7578 67.6429 12.6866 67.4711 12.6862 67.2918V61.884C12.6866 61.7048 12.7578 61.533 12.8843 61.4062C13.0108 61.2794 13.1823 61.2081 13.3611 61.2077H16.7342V67.9682H16.7327ZM22.129 67.2918C22.1286 67.4711 22.0574 67.6429 21.9309 67.7696C21.8044 67.8964 21.633 67.9678 21.4541 67.9682H18.0811V61.2077H21.4541C21.633 61.2081 21.8044 61.2794 21.9309 61.4062C22.0574 61.533 22.1286 61.7048 22.129 61.884V67.2918ZM70.6955 34.1701V39.5779C70.6955 40.6956 71.6036 41.6055 72.7188 41.6055H80.8132C81.9284 41.6055 82.8364 40.6956 82.8364 39.5779V34.1701C82.8364 33.0525 81.9284 32.1426 80.8132 32.1426H72.7188C72.1823 32.143 71.6679 32.3567 71.2886 32.7369C70.9092 33.117 70.6959 33.6325 70.6955 34.1701ZM77.4416 33.4938H80.8146C80.9935 33.4942 81.165 33.5656 81.2915 33.6923C81.4179 33.8191 81.4892 33.9909 81.4895 34.1701V39.5779C81.4892 39.7572 81.4179 39.929 81.2915 40.0558C81.165 40.1825 80.9935 40.2539 80.8146 40.2543H77.4416V33.4938ZM76.0918 40.2528H72.7188C72.5399 40.2525 72.3685 40.1811 72.242 40.0543C72.1155 39.9276 72.0443 39.7558 72.0439 39.5765V34.1687C72.0443 33.9894 72.1155 33.8176 72.242 33.6909C72.3685 33.5641 72.5399 33.4928 72.7188 33.4924H76.0918V40.2528ZM80.8146 46.337H72.7202C71.605 46.337 70.697 47.2469 70.697 48.3645V53.7723C70.697 54.8899 71.605 55.7999 72.7202 55.7999H80.8146C81.9299 55.7999 82.8379 54.8899 82.8379 53.7723V48.3645C82.8379 47.2469 81.9299 46.337 80.8146 46.337ZM76.0918 54.4487H72.7188C72.5399 54.4483 72.3685 54.3769 72.242 54.2502C72.1155 54.1234 72.0443 53.9516 72.0439 53.7723V48.3645C72.0443 48.1853 72.1155 48.0135 72.242 47.8867C72.3685 47.76 72.5399 47.6886 72.7188 47.6882H76.0918V54.4487ZM81.4881 53.7723C81.4877 53.9516 81.4165 54.1234 81.29 54.2502C81.1635 54.3769 80.9921 54.4483 80.8132 54.4487H77.4402V47.6882H80.8132C80.9921 47.6886 81.1635 47.76 81.29 47.8867C81.4165 48.0135 81.4877 48.1853 81.4881 48.3645V53.7723ZM80.8146 59.8565H72.7202C71.605 59.8565 70.697 60.7664 70.697 61.884V67.2918C70.697 68.4094 71.605 69.3194 72.7202 69.3194H80.8146C81.9299 69.3194 82.8379 68.4094 82.8379 67.2918V61.884C82.8379 60.7664 81.9299 59.8565 80.8146 59.8565ZM76.0918 67.9682H72.7188C72.5399 67.9678 72.3685 67.8964 72.242 67.7696C72.1155 67.6429 72.0443 67.4711 72.0439 67.2918V61.884C72.0443 61.7048 72.1155 61.533 72.242 61.4062C72.3685 61.2794 72.5399 61.2081 72.7188 61.2077H76.0918V67.9682ZM81.4881 67.2918C81.4877 67.4711 81.4165 67.6429 81.29 67.7696C81.1635 67.8964 80.9921 67.9678 80.8132 67.9682H77.4402V61.2077H80.8132C80.9921 61.2081 81.1635 61.2794 81.29 61.4062C81.4165 61.533 81.4877 61.7048 81.4881 61.884V67.2918ZM33.4152 41.7915C32.6568 41.5348 32.3215 41.3878 32.3215 41.0532C32.3215 40.7821 32.6007 40.5485 33.1806 40.5485C33.7548 40.5485 34.175 40.6956 34.4095 40.7965L34.7074 39.8404C34.2282 39.6566 33.7181 39.567 33.2051 39.5765C31.8135 39.5765 30.976 40.2615 30.976 41.1541C30.976 41.9141 31.6135 42.3972 32.5935 42.7C33.3 42.9236 33.5806 43.1125 33.5806 43.4384C33.5806 43.7802 33.2569 44.0051 32.6453 44.0051C32.0783 44.0051 31.5286 43.8436 31.1703 43.6792L30.8998 44.6584C31.2307 44.8213 31.8956 44.9771 32.569 44.9771C34.185 44.9771 34.9448 44.2315 34.9448 43.3533C34.9448 42.615 34.4556 42.1333 33.4152 41.7915ZM38.8503 40.5571C39.3208 40.5571 39.6979 40.648 39.967 40.7504L40.2375 39.8116C40.0029 39.702 39.4791 39.5779 38.7884 39.5779C37.0055 39.5779 35.5708 40.5715 35.5708 42.3597C35.5708 43.8523 36.6198 44.9771 38.6575 44.9771C39.3741 44.9771 39.9252 44.8617 40.1699 44.7521L39.967 43.8277C39.6079 43.9408 39.2338 43.9986 38.8575 43.9994C37.6703 43.9994 36.9709 43.3374 36.9709 42.2891C36.9724 41.1239 37.7941 40.5571 38.8503 40.5571ZM44.5747 41.6762H42.3802V39.663H41.0448V44.8992H42.3802V42.7073H44.5747V44.8992H45.9029V39.663H44.5747V41.6762ZM49.6601 39.5779C47.9218 39.5779 46.7951 40.7504 46.7951 42.3193C46.7951 43.8119 47.8167 44.9857 49.5637 44.9857C51.2862 44.9857 52.4561 43.9431 52.4561 42.2285C52.4547 40.7806 51.4689 39.5779 49.6601 39.5779ZM49.6357 44.0455C48.7435 44.0455 48.2024 43.3216 48.2024 42.2963C48.2024 41.2782 48.7262 40.5167 49.6256 40.5167C50.5437 40.5167 51.0502 41.3257 51.0502 42.266C51.0502 43.2841 50.5336 44.0455 49.6357 44.0455ZM55.9284 39.5779C54.1887 39.5779 53.0619 40.7504 53.0619 42.3193C53.0619 43.8119 54.0836 44.9857 55.8306 44.9857C57.5545 44.9857 58.7244 43.9431 58.7244 42.2285C58.723 40.7806 57.7344 39.5779 55.9284 39.5779ZM55.9011 44.0455C55.0089 44.0455 54.4678 43.3216 54.4678 42.2963C54.4678 41.2782 54.9916 40.5167 55.891 40.5167C56.8106 40.5167 57.3156 41.3257 57.3156 42.266C57.3156 43.2841 56.8005 44.0455 55.9011 44.0455ZM60.9333 39.663H59.5965V44.8992H63.276V43.9042H60.9333V39.663ZM56.5314 27.4097C56.5314 24.8996 55.5364 22.4923 53.7652 20.7174C51.9941 18.9424 49.5919 17.9453 47.0872 17.9453C44.5824 17.9453 42.1802 18.9424 40.4091 20.7174C38.638 22.4923 37.643 24.8996 37.643 27.4097C37.643 29.9198 38.638 32.3271 40.4091 34.102C42.1802 35.8769 44.5824 36.874 47.0872 36.874C49.5919 36.874 51.9941 35.8769 53.7652 34.102C55.5364 32.3271 56.5314 29.9198 56.5314 27.4097ZM40.3425 27.4097C40.3429 25.6163 41.0542 23.8965 42.3199 22.6287C43.5855 21.3609 45.3019 20.6488 47.0915 20.6492C48.881 20.6496 50.5971 21.3624 51.8623 22.6307C53.1274 23.8991 53.8379 25.6192 53.8376 27.4126C53.8372 29.2059 53.1259 30.9257 51.8602 32.1935C50.5946 33.4614 48.8782 34.1734 47.0886 34.173C45.2991 34.1726 43.583 33.4599 42.3178 32.1915C41.0527 30.9231 40.3422 29.203 40.3425 27.4097Z" fill="#055DEB"/>
<path d="M48.3217 29.0156V23.7029C48.3217 22.9719 47.767 22.374 47.0889 22.374C46.4108 22.374 45.8561 22.9719 45.8561 23.7029V27.6881H44.6234C43.9452 27.6881 43.3906 28.286 43.3906 29.017C43.3906 29.748 43.9452 30.3459 44.6234 30.3459H47.0889C47.4155 30.344 47.7283 30.2032 47.9591 29.9541C48.19 29.705 48.3203 29.3677 48.3217 29.0156Z" fill="#055DEB"/>
<path d="M88.8869 71.9767H87.5379V29.4602H88.4497C89.967 29.4602 90.6502 28.3902 89.9728 27.0835L85.5474 18.5505C84.8685 17.2438 83.0722 16.1738 81.5563 16.1738H58.7476L48.4356 7.9483V4.70288C51.1321 6.82295 53.8287 4.53937 56.5252 2.25579C59.222 -0.0279632 61.9188 -2.31172 64.6155 -0.190772C61.9189 -3.94214 59.2222 -3.28987 56.5256 -2.6376C53.8289 -1.98532 51.1322 -1.33305 48.4356 -5.08442V-6.41235C48.437 -7.14363 47.8301 -7.7417 47.088 -7.7417C46.3458 -7.7417 45.7389 -7.14363 45.7389 -6.41235V7.94972L35.4269 16.1752H12.6211C11.1037 16.1752 9.3074 17.2452 8.63 18.5519L4.2046 27.085C3.52576 28.3916 4.21035 29.4616 5.72767 29.4616H6.6395V71.9781H5.29046C4.93315 71.9789 4.59067 72.119 4.33788 72.3678C4.08509 72.6166 3.94255 72.954 3.94141 73.3061V75.9633C3.94255 76.3154 4.08509 76.6527 4.33788 76.9016C4.59067 77.1504 4.93315 77.2905 5.29046 77.2913H88.8869C89.244 77.2901 89.5861 77.1499 89.8386 76.9011C90.091 76.6523 90.2334 76.3152 90.2345 75.9633V73.3061C90.2338 72.954 90.0916 72.6165 89.8391 72.3674C89.5865 72.1183 89.2442 71.9778 88.8869 71.9767ZM25.5147 71.9767H9.33473V29.4602H22.1881C22.214 29.6912 22.26 29.9109 22.3319 30.1107C22.6843 31.0815 23.7083 32.1175 25.5161 32.1175V71.9767H25.5147ZM32.7058 75.653V73.5271H61.4701V75.653H32.7058ZM38.998 71.9767V56.033H46.4134V71.9767H38.998ZM47.7625 71.9767V56.033H55.1779V71.9767H47.7625ZM65.9646 71.9767H57.8746V56.033H60.5713V53.3672C60.5713 53.3672 51.3048 47.85 48.3651 45.788C47.9881 45.5371 47.5436 45.4031 47.0887 45.4031C46.6338 45.4031 46.1893 45.5371 45.8123 45.788C42.8725 47.85 33.6061 53.3672 33.6061 53.3672V56.033H36.3013V71.9767H28.2113V29.4602H25.5147C24.7726 29.4602 24.6359 29.079 25.2069 28.6156L46.0467 11.7025C46.3329 11.4715 46.7111 11.3553 47.088 11.3553C47.4648 11.3553 47.8416 11.4715 48.1292 11.7025L68.969 28.6156C69.54 29.079 69.4034 29.4602 68.6612 29.4602H65.9646V71.9767ZM84.8412 71.9767H68.6612V32.1175C70.4691 32.1175 71.4931 31.0815 71.8455 30.1107C71.9174 29.9109 71.9634 29.6912 71.9893 29.4602H84.8426V71.9767H84.8412Z" fill="#055DEB"/>
<path d="M88.8869 71.9767H87.5379V29.4602H88.4497C89.967 29.4602 90.6502 28.3902 89.9728 27.0835L85.5474 18.5505C84.8685 17.2438 83.0722 16.1738 81.5563 16.1738H58.7476L48.4356 7.9483V4.70288C51.1321 6.82295 53.8287 4.53937 56.5252 2.25579C59.222 -0.0279632 61.9188 -2.31172 64.6155 -0.190772C61.9189 -3.94214 59.2222 -3.28987 56.5256 -2.6376C53.8289 -1.98532 51.1322 -1.33305 48.4356 -5.08442V-6.41235C48.437 -7.14363 47.8301 -7.7417 47.088 -7.7417C46.3458 -7.7417 45.7389 -7.14363 45.7389 -6.41235V7.94972L35.4269 16.1752H12.6211C11.1037 16.1752 9.3074 17.2452 8.63 18.5519L4.2046 27.085C3.52576 28.3916 4.21035 29.4616 5.72767 29.4616H6.6395V71.9781H5.29046C4.93315 71.9789 4.59067 72.119 4.33788 72.3678C4.08509 72.6166 3.94255 72.954 3.94141 73.3061V75.9633C3.94255 76.3154 4.08509 76.6527 4.33788 76.9016C4.59067 77.1504 4.93315 77.2905 5.29046 77.2913H88.8869C89.244 77.2901 89.5861 77.1499 89.8386 76.9011C90.091 76.6523 90.2334 76.3152 90.2345 75.9633V73.3061C90.2338 72.954 90.0916 72.6165 89.8391 72.3674C89.5865 72.1183 89.2442 71.9778 88.8869 71.9767ZM25.5147 71.9767H9.33473V29.4602H22.1881C22.214 29.6912 22.26 29.9109 22.3319 30.1107C22.6843 31.0815 23.7083 32.1175 25.5161 32.1175V71.9767H25.5147ZM32.7058 75.653V73.5271H61.4701V75.653H32.7058ZM38.998 71.9767V56.033H46.4134V71.9767H38.998ZM47.7625 71.9767V56.033H55.1779V71.9767H47.7625ZM65.9646 71.9767H57.8746V56.033H60.5713V53.3672C60.5713 53.3672 51.3048 47.85 48.3651 45.788C47.9881 45.5371 47.5436 45.4031 47.0887 45.4031C46.6338 45.4031 46.1893 45.5371 45.8123 45.788C42.8725 47.85 33.6061 53.3672 33.6061 53.3672V56.033H36.3013V71.9767H28.2113V29.4602H25.5147C24.7726 29.4602 24.6359 29.079 25.2069 28.6156L46.0467 11.7025C46.3329 11.4715 46.7111 11.3553 47.088 11.3553C47.4648 11.3553 47.8416 11.4715 48.1292 11.7025L68.969 28.6156C69.54 29.079 69.4034 29.4602 68.6612 29.4602H65.9646V71.9767ZM84.8412 71.9767H68.6612V32.1175C70.4691 32.1175 71.4931 31.0815 71.8455 30.1107C71.9174 29.9109 71.9634 29.6912 71.9893 29.4602H84.8426V71.9767H84.8412Z" stroke="white"/>
<path d="M43.0918 65.1953H45.0478V66.0436H43.0918V65.1953ZM49.1282 65.1953H51.0842V66.0436H49.1282V65.1953Z" fill="#055DEB"/>
</g>
<defs>
<clipPath id="clip0_2124_1266">
<rect width="92.8678" height="79.7184" fill="white" transform="translate(0.654297 0.22998)"/>
</clipPath>
</defs>
</svg>
