<svg width="20" height="20" viewBox="0 0 20 20" fill="none" xmlns="http://www.w3.org/2000/svg">
<path d="M3.75 4.59999L4.73333 8.52499H10.15L10.9833 5.19165V1.30832H9.91667V2.55832C9.86827 3.16471 9.59219 3.73032 9.14389 4.14151C8.6956 4.5527 8.1083 4.77902 7.5 4.77499C6.87323 4.81748 6.25343 4.62244 5.76393 4.22868C5.27444 3.83492 4.95113 3.27131 4.85833 2.64999V1.30832H3.75V3.66665" stroke="#202020" stroke-miterlimit="10"/>
<path d="M4.73332 8.52499C4.73332 8.52499 2.29165 13.8917 2.39999 17.4333C3.20832 17.5 4.99999 17.6083 6.08332 18.3333C7.37499 18.875 10.25 20.4333 12.525 18.4917C12.4583 17.3917 12.4167 17.0333 12.4167 17.0333" stroke="#202020" stroke-miterlimit="10"/>
<path d="M10.15 8.52499C10.907 10.1176 11.4667 11.7967 11.8167 13.525" stroke="#202020" stroke-miterlimit="10"/>
<path d="M6.80832 8.82499L5.94165 11.2083L5.98332 8.67499L6.80832 8.82499Z" fill="#202020"/>
<path d="M8.94166 8.625C9 9.06667 9.04166 9.45833 9.05833 9.925C9.0911 10.3579 9.04306 10.793 8.91666 11.2083C8.90397 10.7924 8.81352 10.3826 8.65 10C8.5 9.61667 8.325 9.23333 8.14166 8.875L8.94166 8.625Z" fill="#202020"/>
<path d="M13 16.8583H8.37497C8.37497 16.8583 8.29997 14.2667 10.6166 13.925C10.7363 13.9104 10.8577 13.9273 10.9688 13.9741C11.0799 14.0209 11.1768 14.0959 11.25 14.1917C11.6416 14.675 12.1416 15.3667 13.2916 14.15C13.9601 13.1431 14.5722 12.0998 15.125 11.025C15.3583 10.65 17.1083 8.95833 17.75 11.125C17.7558 11.2416 17.7558 11.3584 17.75 11.475C17.7559 12.3418 17.5589 13.1979 17.175 13.975V13.975C17.0743 14.1735 17.0255 14.3942 17.0333 14.6167V16.825H16.0666L16.1333 14.5C16.1376 14.3833 16.11 14.2677 16.0535 14.1655C15.997 14.0633 15.9136 13.9785 15.8125 13.9202C15.7113 13.8619 15.5961 13.8323 15.4794 13.8346C15.3627 13.837 15.2488 13.8711 15.15 13.9333C14.1057 14.6189 13.3427 15.657 13 16.8583V16.8583Z" stroke="#202020" stroke-miterlimit="10"/>
<path d="M12.4 4.04167L12.7334 3.5H17.2084L18.1084 5.58333L14.9834 9.06667L11.775 5.69167L12.1084 4.70833" stroke="#202020" stroke-miterlimit="10"/>
<path d="M17.8583 5.52499H11.9583" stroke="#202020" stroke-miterlimit="10"/>
<path d="M14.1667 3.5L13.8083 5.375L14.6834 8.75" stroke="#202020" stroke-miterlimit="10"/>
<path d="M15.8333 3.77499L15.9833 5.27499L15.9083 6.37499" stroke="#202020" stroke-miterlimit="10"/>
</svg>
