<svg width="14" height="12" viewBox="0 0 14 12" fill="none" xmlns="http://www.w3.org/2000/svg">
<path d="M0.545805 0.290953C0.627425 0.113617 0.80479 0 1.00001 0H13C13.1952 0 13.3726 0.113617 13.4542 0.290953C13.5358 0.468289 13.5068 0.676911 13.3798 0.825197L8.70001 6.29074V11.5C8.70001 11.6728 8.61073 11.8334 8.46392 11.9247C8.31712 12.0159 8.1336 12.0248 7.97862 11.9483L5.57862 10.7631C5.40801 10.6789 5.30001 10.5051 5.30001 10.3148V6.29074L0.620209 0.825197C0.49324 0.676911 0.464186 0.468289 0.545805 0.290953ZM2.08637 1L6.17981 5.78073C6.25738 5.87132 6.30001 5.98666 6.30001 6.10593V10.0041L7.70001 10.6954V6.10593C7.70001 5.98666 7.74264 5.87132 7.82021 5.78073L11.9136 1H2.08637Z" fill="#202020"/>
</svg>
