<svg width="22" height="23" viewBox="0 0 22 23" fill="none" xmlns="http://www.w3.org/2000/svg">
<g clip-path="url(#clip0_12599_8393)">
<path d="M8 11.99C8 11.99 8.53 5.84001 13.75 6.07001C15.1496 6.07895 16.4959 6.60795 17.5271 7.55421C18.5584 8.50046 19.201 9.79636 19.33 11.19L19.4 14.02" stroke="#202020" stroke-miterlimit="10"/>
<path d="M11.93 6.27997C9.81998 3.56997 7.34998 4.78997 7.34998 4.78997C7.34998 4.78997 10.13 6.01997 10.35 7.12997L17.59 13.92L19.59 11.39" stroke="#202020" stroke-miterlimit="10"/>
<path d="M11.68 6.35998L9.33002 2.78998C9.33002 2.78998 13.28 2.78998 13.75 6.06998" stroke="#202020" stroke-miterlimit="10"/>
<path d="M13.03 6.06002C13.03 6.06002 14.68 2.52002 18.2 2.79002C17 3.97002 15.63 4.79003 15.85 6.36003" stroke="#202020" stroke-miterlimit="10"/>
<path d="M15.06 6.36001C15.06 6.36001 17.58 4.26001 19.4 4.69001C19.4 4.69001 17.4 5.78001 17.4 7.44001" stroke="#202020" stroke-miterlimit="10"/>
<path d="M12.19 3.64003C12.1442 3.04501 12.2581 2.44855 12.5201 1.91233C12.7821 1.37612 13.1825 0.919612 13.68 0.590027C14.2053 0.853987 14.646 1.26012 14.9518 1.76221C15.2577 2.26429 15.4164 2.84216 15.41 3.43003" stroke="#202020" stroke-miterlimit="10"/>
<path d="M10.68 14.27H20.48C20.6677 15.6946 20.338 17.1392 19.5507 18.3412C18.7634 19.5432 17.5709 20.4228 16.19 20.82C15.9159 20.907 15.6349 20.9706 15.35 21.01C14.27 21.14 11.54 21.35 9.64001 20.36" stroke="#202020" stroke-miterlimit="10"/>
<path d="M5.81 22.13C8.74263 22.13 11.12 19.7526 11.12 16.82C11.12 13.8874 8.74263 11.51 5.81 11.51C2.87737 11.51 0.5 13.8874 0.5 16.82C0.5 19.7526 2.87737 22.13 5.81 22.13Z" stroke="#202020" stroke-miterlimit="10"/>
<path d="M4.72998 13.69C5.076 13.9762 5.51096 14.1327 5.95998 14.1327C6.409 14.1327 6.84396 13.9762 7.18998 13.69" stroke="#202020" stroke-miterlimit="10"/>
<path d="M5.96001 14.19C6.03001 13.62 4.96001 9.79 6.53001 9.31" stroke="#202020" stroke-miterlimit="10"/>
<path d="M8.33002 11.51L13.58 6.35999" stroke="#202020" stroke-miterlimit="10"/>
<path d="M10.18 13.34L16.78 7.13" stroke="#202020" stroke-miterlimit="10"/>
<path d="M13.48 6.06L19.11 11.39" stroke="#202020" stroke-miterlimit="10"/>
<path d="M8.88 9.03003L14.01 14.14" stroke="#202020" stroke-miterlimit="10"/>
<path d="M13.48 14.27L18.75 9.12" stroke="#202020" stroke-miterlimit="10"/>
<path d="M12.38 16.67C12.5678 16.67 12.72 16.5178 12.72 16.33C12.72 16.1422 12.5678 15.99 12.38 15.99C12.1922 15.99 12.04 16.1422 12.04 16.33C12.04 16.5178 12.1922 16.67 12.38 16.67Z" fill="#202020"/>
<path d="M14.35 16.67C14.5378 16.67 14.69 16.5178 14.69 16.33C14.69 16.1422 14.5378 15.99 14.35 15.99C14.1622 15.99 14.01 16.1422 14.01 16.33C14.01 16.5178 14.1622 16.67 14.35 16.67Z" fill="#202020"/>
<path d="M17.98 15.99C18.1678 15.99 18.32 15.8378 18.32 15.65C18.32 15.4622 18.1678 15.31 17.98 15.31C17.7922 15.31 17.64 15.4622 17.64 15.65C17.64 15.8378 17.7922 15.99 17.98 15.99Z" fill="#202020"/>
<path d="M16.25 17.92C16.4378 17.92 16.59 17.7678 16.59 17.58C16.59 17.3922 16.4378 17.24 16.25 17.24C16.0622 17.24 15.91 17.3922 15.91 17.58C15.91 17.7678 16.0622 17.92 16.25 17.92Z" fill="#202020"/>
<path d="M13.24 18.66C13.4278 18.66 13.58 18.5078 13.58 18.32C13.58 18.1322 13.4278 17.98 13.24 17.98C13.0522 17.98 12.9 18.1322 12.9 18.32C12.9 18.5078 13.0522 18.66 13.24 18.66Z" fill="#202020"/>
</g>
<defs>
<clipPath id="clip0_12599_8393">
<rect width="21.02" height="22.62" fill="white"/>
</clipPath>
</defs>
</svg>
