<svg width="16" height="19" viewBox="0 0 16 19" fill="none" xmlns="http://www.w3.org/2000/svg">
<g clip-path="url(#clip0_12599_8417)">
<path d="M15.0051 5.40674H0.994932C0.670655 5.40674 0.407776 5.66962 0.407776 5.99389V17.3537C0.407776 17.678 0.670655 17.9409 0.994932 17.9409H15.0051C15.3294 17.9409 15.5923 17.678 15.5923 17.3537V5.99389C15.5923 5.66962 15.3294 5.40674 15.0051 5.40674Z" stroke="#202020" stroke-miterlimit="10"/>
<path d="M8 17.9409V5.52905" stroke="#202020" stroke-miterlimit="10"/>
<path d="M10.6259 4.9093C8.40772 5.76557 7.47806 4.69728 8.40772 2.69116C8.40772 2.69116 9.39447 0.407776 10.6259 0.407776C10.9239 0.408834 11.2188 0.468857 11.4935 0.584386C11.7682 0.699915 12.0174 0.868666 12.2266 1.08092C12.4358 1.29317 12.601 1.54472 12.7125 1.82108C12.8241 2.09744 12.8799 2.39315 12.8766 2.69116C12.8766 3.89809 10.6259 4.9093 10.6259 4.9093Z" stroke="#202020" stroke-miterlimit="10"/>
<path d="M5.4149 4.9093C7.60858 5.7248 8.56271 4.69728 7.65751 2.65854C7.65751 2.65854 6.64629 0.407776 5.4149 0.407776C5.11687 0.408834 4.822 0.468857 4.54727 0.584386C4.27254 0.699915 4.02339 0.868666 3.81417 1.08092C3.60496 1.29317 3.43981 1.54472 3.32824 1.82108C3.21668 2.09744 3.1609 2.39315 3.16413 2.69116V2.69116C3.16413 3.89809 5.4149 4.9093 5.4149 4.9093Z" stroke="#202020" stroke-miterlimit="10"/>
</g>
<defs>
<clipPath id="clip0_12599_8417">
<rect width="16" height="18.3486" fill="white"/>
</clipPath>
</defs>
</svg>
