<svg width="20" height="20" viewBox="0 0 20 20" fill="none" xmlns="http://www.w3.org/2000/svg">
<path d="M4.44165 17.1666V7.08331" stroke="#202020" stroke-miterlimit="10"/>
<path d="M2.5 18.5C2.54197 18.2942 2.62645 18.0995 2.74802 17.9282C2.8696 17.757 3.02559 17.613 3.20602 17.5056C3.38645 17.3981 3.58733 17.3295 3.7958 17.3041C4.00427 17.2788 4.21574 17.2972 4.41667 17.3583C5.03333 17.3083 5.80833 17 6.45 18.5H2.5Z" stroke="#202020" stroke-miterlimit="10"/>
<path d="M1.66667 5.47498L3.08334 2.02498C3.10783 1.96797 3.14853 1.91941 3.20038 1.88534C3.25224 1.85126 3.31296 1.83317 3.37501 1.83331H5.56667C5.6244 1.83783 5.67978 1.85809 5.72679 1.89188C5.77381 1.92567 5.81066 1.97171 5.83334 2.02498L7.33334 5.47498C7.35406 5.52321 7.36246 5.57582 7.3578 5.6281C7.35314 5.68038 7.33556 5.73069 7.30663 5.77448C7.27771 5.81828 7.23835 5.85421 7.1921 5.87902C7.14585 5.90384 7.09416 5.91677 7.04167 5.91665H1.92501C1.87539 5.91162 1.82766 5.89495 1.78571 5.86798C1.74375 5.84101 1.70876 5.80452 1.68358 5.76147C1.6584 5.71842 1.64375 5.67004 1.64081 5.62025C1.63787 5.57047 1.64673 5.52069 1.66667 5.47498V5.47498Z" stroke="#202020" stroke-miterlimit="10"/>
<path d="M2.52502 6.22498V8.19164" stroke="#202020" stroke-miterlimit="10"/>
<path d="M2.52498 9.48331C2.69987 9.48331 2.84165 9.34153 2.84165 9.16664C2.84165 8.99175 2.69987 8.84998 2.52498 8.84998C2.35009 8.84998 2.20831 8.99175 2.20831 9.16664C2.20831 9.34153 2.35009 9.48331 2.52498 9.48331Z" stroke="#202020" stroke-miterlimit="10"/>
<path d="M17.6917 1.83331H10.3333C10.071 1.83331 9.85834 2.04598 9.85834 2.30831V6.60831C9.85834 6.87065 10.071 7.08331 10.3333 7.08331H17.6917C17.954 7.08331 18.1667 6.87065 18.1667 6.60831V2.30831C18.1667 2.04598 17.954 1.83331 17.6917 1.83331Z" stroke="#202020" stroke-miterlimit="10"/>
<path d="M10.8917 4.91664L12.1083 3.72498L15.3583 7.08331" stroke="#202020" stroke-miterlimit="10"/>
<path d="M14.8083 4.45836L16.3083 3.02502L18.1667 4.83336" stroke="#202020" stroke-miterlimit="10"/>
<path d="M10.8917 9.65002H7.80834C7.65584 9.65002 7.50958 9.7106 7.40175 9.81844C7.29392 9.92627 7.23334 10.0725 7.23334 10.225V11.2917" stroke="#202020" stroke-miterlimit="10"/>
<path d="M13.125 9.65002H16.4C16.5149 9.65002 16.6251 9.69568 16.7064 9.77694C16.7877 9.85821 16.8333 9.96843 16.8333 10.0834V11.4" stroke="#202020" stroke-miterlimit="10"/>
<path d="M12.0167 9.7917C12.0949 9.7917 12.1583 9.72827 12.1583 9.65003C12.1583 9.57179 12.0949 9.50836 12.0167 9.50836C11.9384 9.50836 11.875 9.57179 11.875 9.65003C11.875 9.72827 11.9384 9.7917 12.0167 9.7917Z" stroke="#202020" stroke-miterlimit="10"/>
<path d="M5.83331 16.3583L5.90831 12.5583C5.90831 12.5583 6.25831 11.2917 7.21665 11.475C7.51923 11.501 7.80199 11.6363 8.01209 11.8556C8.22219 12.0749 8.34526 12.3632 8.35831 12.6667V16.3583H5.83331Z" stroke="#202020" stroke-miterlimit="10"/>
<path d="M15.5667 16.3583L15.65 12.5583C15.65 12.5583 16 11.2917 16.9583 11.475C17.2609 11.501 17.5437 11.6363 17.7538 11.8556C17.9639 12.0749 18.0869 12.3632 18.1 12.6667V16.3583H15.5667Z" stroke="#202020" stroke-miterlimit="10"/>
<path d="M8.375 13.0583L15.6 12.9833" stroke="#202020" stroke-miterlimit="10"/>
<path d="M8.375 14.4417L15.6 14.5167" stroke="#202020" stroke-miterlimit="10"/>
<path d="M8.33331 16.3583H15.6916" stroke="#202020" stroke-miterlimit="10"/>
</svg>
