<svg width="20" height="20" viewBox="0 0 20 20" fill="none" xmlns="http://www.w3.org/2000/svg">
<path d="M5.18335 5.1H14.0667C14.1872 5.09436 14.3077 5.11326 14.4207 5.15553C14.5338 5.19781 14.637 5.2626 14.7243 5.34597C14.8116 5.42933 14.881 5.52955 14.9284 5.64054C14.9758 5.75153 15.0002 5.87098 15 5.99167V19.4333H4.29169V5.99167C4.29169 5.75519 4.38563 5.52839 4.55285 5.36117C4.72007 5.19395 4.94687 5.1 5.18335 5.1V5.1Z" stroke="#231F20" stroke-miterlimit="10"/>
<path d="M4.04167 19.4333H1.75V9.18332H4.29167" stroke="#231F20" stroke-miterlimit="10"/>
<path d="M15.2083 19.4333H17.5V9.18332H14.9583" stroke="#231F20" stroke-miterlimit="10"/>
<path d="M11.55 0.758331H7.19165V4.90833H11.55V0.758331Z" stroke="#231F20" stroke-miterlimit="10"/>
<path d="M9.375 1.89166V4.01666" stroke="#231F20" stroke-miterlimit="10"/>
<path d="M8.33331 2.95834H10.5" stroke="#231F20" stroke-miterlimit="10"/>
<path d="M6.16669 11.4333H7.91669" stroke="#231F20" stroke-miterlimit="10"/>
<path d="M8.54169 11.4333H10.5" stroke="#231F20" stroke-miterlimit="10"/>
<path d="M11.2083 11.4333H12.875" stroke="#231F20" stroke-miterlimit="10"/>
<path d="M6.16669 13.4333H7.91669" stroke="#231F20" stroke-miterlimit="10"/>
<path d="M8.54169 13.4333H10.5" stroke="#231F20" stroke-miterlimit="10"/>
<path d="M11.2083 13.4333H12.875" stroke="#231F20" stroke-miterlimit="10"/>
<path d="M7.91669 19.4333V15.4333H11.5584V19.4333" stroke="#231F20" stroke-miterlimit="10"/>
</svg>
