<svg xmlns="http://www.w3.org/2000/svg" width="21.5" height="16.5" viewBox="0 0 21.5 16.5">
  <path id="Icon_simple-youtube" data-name="Icon simple-youtube" d="M19.589,7.741a2.6,2.6,0,0,0-1.741-1.867,56.046,56.046,0,0,0-7.833-.448,54.8,54.8,0,0,0-7.833.448A2.6,2.6,0,0,0,.443,7.741a29.9,29.9,0,0,0-.436,5.19A29.9,29.9,0,0,0,.443,18.1a2.6,2.6,0,0,0,1.741,1.867,55.924,55.924,0,0,0,7.833.448,56.056,56.056,0,0,0,7.833-.448A2.6,2.6,0,0,0,19.589,18.1a29.906,29.906,0,0,0,.417-5.169,29.906,29.906,0,0,0-.417-5.19ZM8.013,16.14V9.716l5.222,3.22Z" transform="translate(0.743 -4.67)" fill="#fff" stroke="#707070" stroke-width="1.5"/>
</svg>
