<svg xmlns="http://www.w3.org/2000/svg" width="60.278" height="48" viewBox="0 0 60.278 48">
  <g id="Group_594" data-name="Group 594" transform="translate(-821.124 -526.185)">
    <g id="Group_593" data-name="Group 593" transform="translate(821.124 526.185)">
      <g id="Group_582" data-name="Group 582" transform="translate(4.27 31.068)">
        <path id="Path_2211" data-name="Path 2211" d="M78.509,383.483a3.863,3.863,0,0,1-2.618-1.047q-.024-.022-.047-.047a3.835,3.835,0,0,1-.949-1.883l-.233.233a3.69,3.69,0,0,1-6.232-1.931l-.656.634a3.686,3.686,0,0,1-5.207-5.217l6.422-6.33a.792.792,0,0,1,1.116,0l7.349,7.349,2.963,3.056a2.432,2.432,0,0,0,1.572.6,1.986,1.986,0,0,0,.68-.116.792.792,0,0,1,.819,1.315l-2.413,2.32A3.614,3.614,0,0,1,78.509,383.483Zm-1.52-2.188a2.281,2.281,0,0,0,1.52.6,2.042,2.042,0,0,0,1.452-.605l.011-.011.98-.942a4.064,4.064,0,0,1-1.608-.872q-.022-.019-.042-.04l-2.977-3.07-6.784-6.784-5.858,5.774a2.13,2.13,0,0,0,0,2.969,2.128,2.128,0,0,0,2.973,0l.01-.009,2.791-2.7a.792.792,0,0,1,1.11,1.129,2.015,2.015,0,0,0,0,2.88,2.129,2.129,0,0,0,2.973,0l2.325-2.326h0a.792.792,0,1,1,1.119,1.119A2.1,2.1,0,0,0,76.99,381.295Z" transform="translate(-61.489 -367.667)" fill="#146efa"/>
      </g>
      <g id="Group_583" data-name="Group 583" transform="translate(24.732 36.371)">
        <path id="Path_2212" data-name="Path 2212" d="M220.265,419.487a3.656,3.656,0,0,1-2.606-1.069,3.761,3.761,0,0,1-.589-4.493.792.792,0,0,1,.433-.352,1.976,1.976,0,0,0,.528-.367,2.219,2.219,0,0,0,.049-3.022.792.792,0,0,1,1.164-1.071l2.977,2.977a2.042,2.042,0,0,0,1.452.605,2.28,2.28,0,0,0,1.52-.6,2.1,2.1,0,0,0,0-2.881h0a.792.792,0,1,1,1.119-1.119l0,0,2.323,2.323a2.526,2.526,0,0,0,.352.317A.794.794,0,0,1,229.2,412l-6.325,6.418A3.661,3.661,0,0,1,220.265,419.487Zm-1.934-4.556a2.164,2.164,0,0,0,.447,2.368,2.128,2.128,0,0,0,2.973,0l3.2-3.248a3.742,3.742,0,0,1-1.28.227,3.615,3.615,0,0,1-2.571-1.069l-.913-.913a3.679,3.679,0,0,1-1.038,2.029A3.829,3.829,0,0,1,218.331,414.931Zm8.954-3.629a3.758,3.758,0,0,1-.137.522l.327-.332Z" transform="translate(-216.579 -407.858)" fill="#146efa"/>
      </g>
      <g id="Group_584" data-name="Group 584" transform="translate(7.628 14.79)">
        <path id="Path_2213" data-name="Path 2213" d="M104.01,273.4a3.656,3.656,0,0,1-2.606-1.069l-2.985-3.078L88.288,259.124a.789.789,0,0,1-.2-.342l-1.116-3.907a.792.792,0,0,1,.2-.777l9.209-9.209a.792.792,0,0,1,1.119,0,1.249,1.249,0,0,0,.435.274.793.793,0,0,1,.132.058,5.1,5.1,0,0,0,2.51.554,23.84,23.84,0,0,0,5.864-1.119c.429-.118.855-.234,1.274-.345a.792.792,0,0,1,.761.206l16.272,16.273,2.32,2.227.011.011a3.686,3.686,0,0,1-5.207,5.218l-.662-.639a3.618,3.618,0,0,1-1.015,1.936,3.711,3.711,0,0,1-5.212,0l-.234-.234a3.835,3.835,0,0,1-.949,1.883c-.015.016-.03.032-.047.047a3.863,3.863,0,0,1-2.618,1.047,3.614,3.614,0,0,1-2.571-1.069l-.913-.913a3.674,3.674,0,0,1-3.644,3.1ZM89.552,258.15l9.994,9.994,2.985,3.078a2.129,2.129,0,0,0,2.965-.009,2.219,2.219,0,0,0,.048-3.022.792.792,0,0,1,1.164-1.071l2.977,2.977a2.042,2.042,0,0,0,1.452.605,2.28,2.28,0,0,0,1.52-.6,2.1,2.1,0,0,0,0-2.881h0a.792.792,0,0,1,1.119-1.119h0l2.325,2.326a2.129,2.129,0,0,0,2.973,0,2.016,2.016,0,0,0,0-2.88.792.792,0,0,1,1.11-1.129l2.791,2.7.01.009a2.128,2.128,0,0,0,2.973,0,2.131,2.131,0,0,0,.005-2.968l-2.319-2.226-.012-.011L107.68,245.959l-.819.224a24.919,24.919,0,0,1-6.283,1.175,6.666,6.666,0,0,1-3.216-.719,2.638,2.638,0,0,1-.338-.154l-8.4,8.4Z" transform="translate(-86.94 -244.285)" fill="#146efa"/>
      </g>
      <g id="Group_585" data-name="Group 585" transform="translate(21.766 9.488)">
        <path id="Path_2214" data-name="Path 2214" d="M194.893,206.522a.792.792,0,0,1-.608-1.3l.465-.558q.023-.028.048-.053l.279-.279a.792.792,0,0,1,1.081-.036l.744.651a.792.792,0,0,1-.391,1.377c-.292.049-.561.074-.8.1a6.59,6.59,0,0,0-.666.085A.8.8,0,0,1,194.893,206.522Z" transform="translate(-194.102 -204.102)" fill="#146efa"/>
      </g>
      <g id="Group_586" data-name="Group 586" transform="translate(0 1.21)">
        <path id="Path_2215" data-name="Path 2215" d="M37.078,166.656a.792.792,0,0,1-.56-.232l-7.162-7.162a.792.792,0,0,1,0-1.118l16.464-16.557a.792.792,0,0,1,.56-.234h0a.792.792,0,0,1,.56.232l7.162,7.162a.792.792,0,0,1,.013,1.106l-1.86,1.953a.792.792,0,0,1-.486.241c-3.345.372-4.8,1.371-5.05,2.183a1.278,1.278,0,0,0,.545,1.264.791.791,0,0,1,.05,1.16l-9.674,9.767a.792.792,0,0,1-.561.234ZM31.033,158.7l6.042,6.042,8.578-8.661a2.545,2.545,0,0,1-.448-2.315c.3-.979,1.492-2.684,6.1-3.259l1.131-1.187-6.055-6.055Z" transform="translate(-29.124 -141.353)" fill="#146efa"/>
      </g>
      <g id="Group_587" data-name="Group 587" transform="translate(6.97 17.575)">
        <path id="Path_2216" data-name="Path 2216" d="M83.077,267.639a1.127,1.127,0,1,1,.793-.329A1.115,1.115,0,0,1,83.077,267.639Zm0-1.583a.457.457,0,1,0,.326.133A.463.463,0,0,0,83.077,266.055Z" transform="translate(-81.954 -265.392)" fill="#146efa"/>
      </g>
      <g id="Group_588" data-name="Group 588" transform="translate(15.978 6.983)">
        <path id="Path_2217" data-name="Path 2217" d="M179.13,210.778a.789.789,0,0,1-.56-.232l-15.955-15.955-.82.224a24.915,24.915,0,0,1-6.283,1.175,6.625,6.625,0,0,1-3.275-.751c-1.485-.789-2.238-2.069-1.953-3.336.471-2.094,3.445-3.419,8.159-3.636h.015a4.723,4.723,0,0,0,2.657-1.306,6.89,6.89,0,0,1,4.385-1.851,8.386,8.386,0,0,1,3.567.92l.851-.458a.792.792,0,0,1,.935.137l14.883,14.883a.791.791,0,0,1,.206.76l-1.023,3.907a.792.792,0,0,1-.211.364l-5.023,4.93A.79.79,0,0,1,179.13,210.778Zm-16.278-17.861a.792.792,0,0,1,.56.232l15.724,15.724,4.307-4.228.853-3.256L170.15,187.243l-.691.372a.792.792,0,0,1-.734.009,7.264,7.264,0,0,0-3.226-.932,5.46,5.46,0,0,0-3.421,1.525,6.064,6.064,0,0,1-3.569,1.632c-4.9.226-6.5,1.616-6.68,2.4-.121.539.324,1.151,1.162,1.6a5.1,5.1,0,0,0,2.521.56,23.843,23.843,0,0,0,5.864-1.119c.429-.118.855-.235,1.274-.345A.777.777,0,0,1,162.852,192.917Z" transform="translate(-150.226 -185.109)" fill="#146efa"/>
      </g>
      <g id="Group_589" data-name="Group 589" transform="translate(35.068 0)">
        <path id="Path_2218" data-name="Path 2218" d="M312.178,157.395a.789.789,0,0,1-.56-.232L295.154,140.7a.792.792,0,0,1,0-1.119l7.162-7.162a.792.792,0,0,1,1.12,0L319.9,148.881a.791.791,0,0,1,0,1.119l-7.162,7.162A.789.789,0,0,1,312.178,157.395Zm-15.345-17.256,15.345,15.345,6.043-6.043L302.876,134.1Z" transform="translate(-294.922 -132.185)" fill="#146efa"/>
      </g>
      <g id="Group_590" data-name="Group 590" transform="translate(51.154 16.073)">
        <path id="Path_2219" data-name="Path 2219" d="M417.929,256.165a1.084,1.084,0,0,1-.764-1.852c.014-.014.029-.028.044-.041a1.105,1.105,0,0,1,.72-.265,1.053,1.053,0,0,1,.752.307,1.081,1.081,0,0,1,.02,1.512A1.042,1.042,0,0,1,417.929,256.165Zm-.386-1.418a.506.506,0,0,0,.7.728l-.515-.6.564.556a.5.5,0,0,0-.359-.847A.538.538,0,0,0,417.543,254.746Z" transform="translate(-416.846 -254.007)" fill="#146efa"/>
      </g>
    </g>
  </g>
</svg>
