<svg xmlns="http://www.w3.org/2000/svg" width="37.698" height="39.555" viewBox="0 0 37.698 39.555">
  <g id="noun_customer_support_1163884" data-name="noun_customer support_1163884" transform="translate(-3.2 -1.018)">
    <path id="Path_2313" data-name="Path 2313" d="M40.047,20.873a.856.856,0,0,0-.851.851A17.167,17.167,0,1,1,20.833,4.578l-.77.567a.832.832,0,0,0,.486,1.5.708.708,0,0,0,.486-.162l2.756-2.108a.866.866,0,0,0,.324-.689.768.768,0,0,0-.365-.649L21,1.173a.736.736,0,0,0-1.094.243.8.8,0,0,0,.243,1.135l.568.365A18.852,18.852,0,1,0,40.9,21.725.856.856,0,0,0,40.047,20.873Z" transform="translate(0 0)"/>
    <circle id="Ellipse_257" data-name="Ellipse 257" cx="1.013" cy="1.013" r="1.013" transform="translate(38.425 16.333)"/>
    <circle id="Ellipse_258" data-name="Ellipse 258" cx="1.013" cy="1.013" r="1.013" transform="translate(37.088 12.564)"/>
    <circle id="Ellipse_259" data-name="Ellipse 259" cx="1.013" cy="1.013" r="1.013" transform="translate(34.656 8.997)"/>
    <circle id="Ellipse_260" data-name="Ellipse 260" cx="1.013" cy="1.013" r="1.013" transform="translate(31.251 5.956)"/>
    <circle id="Ellipse_261" data-name="Ellipse 261" cx="1.013" cy="1.013" r="1.013" transform="translate(27.238 3.848)"/>
    <path id="Path_2314" data-name="Path 2314" d="M49.156,66.7l-2.311,1.743L46.4,70.429l3.081-2.351Z" transform="translate(-25.689 -39.057)"/>
    <path id="Path_2315" data-name="Path 2315" d="M50.237,72,47.4,74.148l1.419,1.338c.041,0,.041.041.081.041s.041,0,.081-.041L50.6,73.743a.149.149,0,0,0,.041-.122Z" transform="translate(-26.283 -42.209)"/>
    <path id="Path_2316" data-name="Path 2316" d="M48.411,58.332l-.567,2.635,1.905-1.459-.284-1.135.811-1.013a.076.076,0,0,0,0-.122l-.527-1.257a.087.087,0,0,0-.081-.081h-1.5a.087.087,0,0,0-.081.081L47.6,57.238a.149.149,0,0,0,.041.122Z" transform="translate(-26.402 -32.635)"/>
    <path id="Path_2317" data-name="Path 2317" d="M42.813,25.7a5.533,5.533,0,1,0,5.513,5.553A5.519,5.519,0,0,0,42.813,25.7Zm4.175,5.513a4.175,4.175,0,1,1-8.35,0,4.084,4.084,0,0,1,.122-1.013,5.581,5.581,0,0,0,2.392.567,3.888,3.888,0,0,0,2.27-.689c.081-.081,1.905-1.378,3.364-.041A3.98,3.98,0,0,1,46.988,31.213Z" transform="translate(-20.277 -14.677)"/>
    <path id="Path_2318" data-name="Path 2318" d="M63.088,61.778l.041-1.459A4.4,4.4,0,0,0,58.711,55.9h-.122L56.4,65.507A12.764,12.764,0,0,0,63.088,61.778Zm-1.905-1.5H59.156v-.689h2.027Z" transform="translate(-31.635 -32.635)"/>
    <path id="Path_2319" data-name="Path 2319" d="M34.913,65.647,32.521,56h-.2A4.4,4.4,0,0,0,27.9,60.418l.081,1.662A13.273,13.273,0,0,0,34.913,65.647Z" transform="translate(-14.688 -32.694)"/>
  </g>
</svg>
