<svg xmlns="http://www.w3.org/2000/svg" width="14.27" height="15.688" viewBox="0 0 14.27 15.688">
  <g id="Icon_feather-share-2" data-name="Icon feather-share-2" transform="translate(-3.75 -2.25)">
    <path id="Path_2158" data-name="Path 2158" d="M26.757,5.128A2.128,2.128,0,1,1,24.628,3,2.128,2.128,0,0,1,26.757,5.128Z" transform="translate(-9.487)" fill="none" stroke="#146efa" stroke-linecap="round" stroke-linejoin="round" stroke-width="1.5"/>
    <path id="Path_2159" data-name="Path 2159" d="M8.757,15.628A2.128,2.128,0,1,1,6.628,13.5,2.128,2.128,0,0,1,8.757,15.628Z" transform="translate(0 -5.534)" fill="none" stroke="#146efa" stroke-linecap="round" stroke-linejoin="round" stroke-width="1.5"/>
    <path id="Path_2160" data-name="Path 2160" d="M26.757,26.128A2.128,2.128,0,1,1,24.628,24,2.128,2.128,0,0,1,26.757,26.128Z" transform="translate(-9.487 -11.068)" fill="none" stroke="#146efa" stroke-linecap="round" stroke-linejoin="round" stroke-width="1.5"/>
    <path id="Path_2161" data-name="Path 2161" d="M12.885,20.265l4.845,2.823" transform="translate(-4.419 -9.1)" fill="none" stroke="#146efa" stroke-linecap="round" stroke-linejoin="round" stroke-width="1.5"/>
    <path id="Path_2162" data-name="Path 2162" d="M17.723,9.765l-4.838,2.823" transform="translate(-4.419 -3.566)" fill="none" stroke="#146efa" stroke-linecap="round" stroke-linejoin="round" stroke-width="1.5"/>
  </g>
</svg>
