<svg xmlns="http://www.w3.org/2000/svg" width="38.744" height="38.744" viewBox="0 0 38.744 38.744">
  <g id="Icon_feather-image" data-name="Icon feather-image" transform="translate(-3.5 -3.5)">
    <path id="Path_373" data-name="Path 373" d="M8.537,4.5H36.793A4.037,4.037,0,0,1,40.83,8.537V36.793a4.037,4.037,0,0,1-4.037,4.037H8.537A4.037,4.037,0,0,1,4.5,36.793V8.537A4.037,4.037,0,0,1,8.537,4.5Z" transform="translate(0 0)" fill="none" stroke="#fff" stroke-linecap="round" stroke-linejoin="round" stroke-width="2"/>
    <path id="Path_374" data-name="Path 374" d="M16.555,13.528A3.028,3.028,0,1,1,13.528,10.5,3.028,3.028,0,0,1,16.555,13.528Z" transform="translate(2.073 2.073)" fill="none" stroke="#fff" stroke-linecap="round" stroke-linejoin="round" stroke-width="2"/>
    <path id="Path_375" data-name="Path 375" d="M39.793,25.092,29.7,15,7.5,37.2" transform="translate(1.037 3.628)" fill="none" stroke="#fff" stroke-linecap="round" stroke-linejoin="round" stroke-width="2"/>
  </g>
</svg>
