<svg xmlns="http://www.w3.org/2000/svg" width="10.36" height="10.116" viewBox="0 0 10.36 10.116">
  <path id="Icon_ionic-ios-heart" data-name="Icon ionic-ios-heart" d="M10.215,3.938h-.022a2.56,2.56,0,0,0-2.137,1.17,2.56,2.56,0,0,0-2.138-1.17H5.895A2.544,2.544,0,0,0,3.375,6.48,5.477,5.477,0,0,0,4.451,9.466a18.848,18.848,0,0,0,3.6,3.472,18.848,18.848,0,0,0,3.6-3.472A5.477,5.477,0,0,0,12.735,6.48,2.544,2.544,0,0,0,10.215,3.938Z" transform="translate(-2.875 -3.438)" fill="none" stroke="#565656" stroke-width="1"/>
</svg>
