<svg xmlns="http://www.w3.org/2000/svg" width="55.202" height="44.161" viewBox="0 0 55.202 44.161">
  <path id="Icon_awesome-user-slash" data-name="Icon awesome-user-slash" d="M54.666,39.512l-23.417-18.1a11.014,11.014,0,1,0-14.594-11.29L3.924.293A1.385,1.385,0,0,0,1.983.535L.293,2.708A1.374,1.374,0,0,0,.534,4.64L51.285,43.859a1.385,1.385,0,0,0,1.941-.242l1.691-2.182a1.367,1.367,0,0,0-.25-1.923ZM8.28,36.433v3.588a4.141,4.141,0,0,0,4.14,4.14H42.625L17.888,25.039A11.575,11.575,0,0,0,8.28,36.433Z" transform="translate(-0.002)" fill="#fff"/>
</svg>
