<svg width="10" height="11" viewBox="0 0 10 11" fill="none" xmlns="http://www.w3.org/2000/svg">
<path d="M7.9625 2.78562L6.22892 1.05204L7.05821 0.222754L7.05828 0.222821L7.06122 0.219616C7.1323 0.142072 7.22053 0.104781 7.33468 0.108003L7.3375 0.00804327M7.9625 2.78562L8.8625 2.02704C8.95417 1.92704 9 1.80838 9 1.67104C9 1.53338 8.95417 1.41871 8.8625 1.32704L7.6875 0.152043C7.59583 0.0603765 7.47917 0.0123766 7.3375 0.00804327M7.9625 2.78562L8.79018 1.95794C8.86377 1.87698 8.9 1.78299 8.9 1.67104C8.9 1.55808 8.86345 1.46942 8.79179 1.39775L7.61679 0.222754C7.54488 0.150845 7.45325 0.111631 7.33444 0.107997L7.3375 0.00804327M7.9625 2.78562L6.9875 0.152043C7.07917 0.0520432 7.19583 0.00404327 7.3375 0.00804327M1.9 7.00204V7.10204H2H2.45H2.49121L2.52046 7.073L6.07046 3.548L6.14167 3.47729L6.07071 3.40633L5.59571 2.93133L5.52475 2.86037L5.45404 2.93158L1.92904 6.48158L1.9 6.51083V6.55204V7.00204ZM0.1 10.902V9.10204H9.9V10.902H0.1ZM1.1 7.90204V6.16846L5.525 1.74346L7.25858 3.47704L2.83358 7.90204H1.1Z" fill="#1C1B1F" stroke="white" stroke-width="0.2"/>
</svg>
