<svg xmlns="http://www.w3.org/2000/svg" width="17.715" height="21.641" viewBox="0 0 17.715 21.641">
  <g id="noun_admin_1046327" transform="translate(-24.1 -18.475)">
    <path id="Path_2155" data-name="Path 2155" d="M41.1,21.72a11.169,11.169,0,0,1-7.7-3.066.68.68,0,0,0-.92,0,11.169,11.169,0,0,1-7.7,3.066.683.683,0,0,0-.681.681V33.03a11.1,11.1,0,0,0,7.495,6.711c.071.02,1.289.375,1.363.375.089,0,1.277-.35,1.363-.375,5.1-1.406,7.495-6.037,7.495-6.711V22.4A.737.737,0,0,0,41.1,21.72Zm-.681,11.174a11.293,11.293,0,0,1-1.5,2.385,6.471,6.471,0,0,0-4.735-3.884,3.777,3.777,0,0,0,2.487-3.543,3.747,3.747,0,0,0-7.495,0,3.777,3.777,0,0,0,2.487,3.543,6.471,6.471,0,0,0-4.735,3.884,9.089,9.089,0,0,1-1.5-2.385V23.049a12.468,12.468,0,0,0,7.495-3,12.468,12.468,0,0,0,7.495,3Z" fill="#505050"/>
  </g>
</svg>
