<svg xmlns="http://www.w3.org/2000/svg" width="35.978" height="39.727" viewBox="0 0 35.978 39.727">
  <g id="noun_Call_Back_399349" data-name="noun_Call Back_399349" transform="translate(-18.179 -11.608)">
    <path id="Path_2299" data-name="Path 2299" d="M53.219,49.068l-3.39-3.651a1,1,0,0,0-1.418-.053l-1.317,1.224a3.086,3.086,0,0,0-.342-.554s-3.137-3.173-4.045-4.337-3.223-4.979-3.223-4.979a3.033,3.033,0,0,0-.2-.231,1,1,0,0,0,.617-.147l1.552-.977a1,1,0,0,0,.315-1.383l-2.656-4.217a1,1,0,0,0-1.382-.314l-1.553.977a.985.985,0,0,0-.3.295l-.638.463c-1.2.867-1.332,2.054-.83,3.694A32.682,32.682,0,0,0,38.853,43c3.136,4.324,5.684,7.074,8.087,8.872,1.4,1.05,2.537,1.462,3.733.595l.67-.486a1,1,0,0,0,.482-.244l1.344-1.248A1.006,1.006,0,0,0,53.219,49.068Z" transform="translate(-6.936 -7.688)"/>
    <g id="Group_726" data-name="Group 726" transform="translate(18.179 11.608)">
      <path id="Path_2300" data-name="Path 2300" d="M36.108,49.423l-.016,0h0A16.076,16.076,0,0,1,35.325,17.3L35.3,21.019l5.325-4.676-5.273-4.736-.02,3.775a17.9,17.9,0,0,0-10.22,3.792.862.862,0,0,0-.182.135c-.007.007-.011.014-.018.021a18.18,18.18,0,0,0-2.672,2.648.962.962,0,0,0-.115.115.981.981,0,0,0-.105.162,18,18,0,0,0-2.01,3.186c-.011.02-.025.036-.036.058s-.013.039-.021.059a17.835,17.835,0,0,0-1.3,3.7c0,.013-.01.025-.013.038s0,.025,0,.038a17.971,17.971,0,0,0-.457,3.926s0,.009,0,.013a.141.141,0,0,0,0,.021c0,.011,0,.021,0,.032a18.057,18.057,0,0,0,.421,3.879c0,.031,0,.061.011.092a.774.774,0,0,0,.033.1,17.807,17.807,0,0,0,1.26,3.629c.009.024.014.047.025.071s.024.033.034.051A18.017,18.017,0,0,0,21.994,44.4a.932.932,0,0,0,.075.117.858.858,0,0,0,.075.075,18.2,18.2,0,0,0,2.651,2.676.988.988,0,0,0,.107.105.928.928,0,0,0,.149.1,18.02,18.02,0,0,0,3.2,2.023.607.607,0,0,0,.053.033c.016.008.034.011.051.018a17.844,17.844,0,0,0,3.7,1.31c.015,0,.029.011.044.015l.036,0a17.914,17.914,0,0,0,3.944.461H36.1a.951.951,0,0,0,.956-.951A.962.962,0,0,0,36.108,49.423Z" transform="translate(-18.179 -11.608)"/>
      <path id="Path_2301" data-name="Path 2301" d="M72.226,29.987a.958.958,0,1,0,1.352,0A.994.994,0,0,0,72.226,29.987Z" transform="translate(-41.552 -19.482)"/>
      <path id="Path_2302" data-name="Path 2302" d="M76.478,37.34a1,1,0,0,0,.411-.1.951.951,0,1,0-.411.1Z" transform="translate(-43.104 -21.962)"/>
      <path id="Path_2303" data-name="Path 2303" d="M77.738,42.968a.957.957,0,0,0,.931.745.789.789,0,0,0,.211-.024.954.954,0,1,0-1.141-.721Z" transform="translate(-44.059 -24.734)"/>
      <path id="Path_2304" data-name="Path 2304" d="M55.65,77.8a.958.958,0,0,0,.207,1.892,1.031,1.031,0,0,0,.21-.024A.957.957,0,1,0,55.65,77.8Z" transform="translate(-34.143 -40.371)"/>
      <path id="Path_2305" data-name="Path 2305" d="M61.822,75.673a.955.955,0,0,0,.821,1.724.955.955,0,1,0-.821-1.724Z" transform="translate(-36.914 -39.415)"/>
      <path id="Path_2306" data-name="Path 2306" d="M76.777,61.661a.956.956,0,1,0,.443,1.275A.955.955,0,0,0,76.777,61.661Z" transform="translate(-43.054 -33.324)"/>
      <path id="Path_2307" data-name="Path 2307" d="M78.824,55.235a.956.956,0,1,0-.43,1.863,1.117,1.117,0,0,0,.215.024.955.955,0,0,0,.215-1.886Z" transform="translate(-44.031 -30.561)"/>
      <path id="Path_2308" data-name="Path 2308" d="M67.363,72.215a.954.954,0,1,0,1.341.153A.955.955,0,0,0,67.363,72.215Z" transform="translate(-39.402 -37.863)"/>
      <path id="Path_2309" data-name="Path 2309" d="M79.4,48.511a.955.955,0,1,0-.01,1.911h0a.955.955,0,0,0,.005-1.911Z" transform="translate(-44.374 -27.649)"/>
      <path id="Path_2310" data-name="Path 2310" d="M73.348,67.472a.957.957,0,0,0-1.2,1.491.971.971,0,0,0,.6.21.956.956,0,0,0,.6-1.7Z" transform="translate(-41.484 -35.799)"/>
    </g>
  </g>
</svg>
