<svg width="16" height="16" viewBox="0 0 16 16" fill="none" xmlns="http://www.w3.org/2000/svg">
<path d="M8.56524 14.5663H3.33333C3.00623 14.5663 2.69253 14.4364 2.46123 14.2051C2.22995 13.9738 2.10001 13.6601 2.1 13.333C2.1 13.333 2.1 13.333 2.1 13.333L2.10667 3.99975V3.99967C2.10667 3.32059 2.64954 2.76634 3.33333 2.76634H4H4.1V2.66634V1.43301H5.23333V2.66634V2.76634H5.33333H10.6667H10.7667V2.66634V1.43301H11.9V2.66634V2.76634H12H12.6667C13.3448 2.76634 13.9 3.32157 13.9 3.99967V8.21159L12.7667 9.34492V6.66634V6.56634H12.6667H3.33333H3.23333V6.66634V13.333V13.433H3.33333H7.43191L8.56524 14.5663ZM3.33333 3.89967H3.23333V3.99967V5.33301V5.43301H3.33333H12.6667H12.7667V5.33301V3.99967V3.89967H12.6667H3.33333ZM11.0907 13.1837L13.8467 10.4278L14.6454 11.2265L11.0265 14.8581L8.80809 12.6397L9.60667 11.8411L10.9493 13.1837L11.02 13.2544L11.0907 13.1837ZM6.86929 9.2623L6.79858 9.33301L6.86929 9.40372L7.85858 10.393L7.06 11.1916L6.07071 10.2023L6 10.1316L5.92929 10.2023L4.94 11.1916L4.14142 10.393L5.13071 9.40372L5.20142 9.33301L5.13071 9.2623L4.14142 8.27301L4.94 7.47443L5.92929 8.46372L6 8.53443L6.07071 8.46372L7.06 7.47443L7.85858 8.27301L6.86929 9.2623Z" fill="#202020" stroke="white" stroke-width="0.2"/>
</svg>
