<svg width="current" height="current" viewBox="0 0 22 22" fill="none" xmlns="http://www.w3.org/2000/svg">
<path d="M8.12596 0.638721C8.46935 0.543666 8.83221 0.703323 8.99413 1.02071C9.36718 1.75194 10.1261 2.25003 11 2.25003C11.8739 2.25003 12.6328 1.75194 13.0059 1.02071C13.1678 0.703323 13.5307 0.543666 13.874 0.638721C15.5585 1.105 17.0759 1.97043 18.3184 3.12578C18.5611 3.3514 18.6269 3.70951 18.4804 4.00669C18.3331 4.30538 18.25 4.64193 18.25 5.00003C18.25 6.24267 19.2574 7.25003 20.5 7.25003L20.5314 7.2498C20.8629 7.24507 21.1583 7.45862 21.2576 7.77498C21.5777 8.794 21.75 9.87761 21.75 11C21.75 11.7408 21.6749 12.4649 21.5318 13.1648C21.4548 13.5412 21.1059 13.7985 20.7237 13.7609C20.6504 13.7537 20.5758 13.75 20.5 13.75C19.2574 13.75 18.25 14.7574 18.25 16C18.25 16.5531 18.4486 17.0579 18.7793 17.4498C19.027 17.7434 19.0128 18.1767 18.7465 18.4535C17.4777 19.7719 15.8745 20.7678 14.0721 21.3044C13.6807 21.421 13.2681 21.203 13.1437 20.814C12.8535 19.906 12.0024 19.25 11 19.25C9.99764 19.25 9.14655 19.906 8.85629 20.814C8.73195 21.203 8.31927 21.421 7.92789 21.3044C6.12545 20.7678 4.52229 19.7719 3.25353 18.4535C2.98716 18.1767 2.97299 17.7434 3.22072 17.4498C3.55139 17.0579 3.75 16.5531 3.75 16C3.75 14.7574 2.74264 13.75 1.5 13.75C1.42423 13.75 1.34963 13.7537 1.27634 13.7609C0.894056 13.7985 0.545187 13.5412 0.468209 13.1648C0.325049 12.4649 0.25 11.7408 0.25 11C0.25 9.87761 0.422274 8.79401 0.742364 7.77497C0.841733 7.45862 1.13705 7.24507 1.4686 7.2498L1.5 7.25003C2.74264 7.25003 3.75 6.24267 3.75 5.00003C3.75 4.64193 3.66689 4.30538 3.51962 4.00669C3.3731 3.70951 3.43894 3.3514 3.68159 3.12578C4.92411 1.97043 6.44153 1.105 8.12596 0.638721ZM5.08277 3.88994C5.19152 4.24126 5.25 4.61427 5.25 5.00003C5.25 6.88948 3.85261 8.45256 2.03493 8.71216C1.84898 9.44321 1.75 10.2096 1.75 11C1.75 11.4294 1.77921 11.8516 1.83567 12.2648C3.74948 12.4346 5.25 14.0421 5.25 16C5.25 16.667 5.0754 17.2941 4.76971 17.8372C5.62645 18.6184 6.63002 19.2404 7.73362 19.657C8.37706 18.519 9.59804 17.75 11 17.75C12.402 17.75 13.6229 18.519 14.2664 19.657C15.37 19.2404 16.3735 18.6184 17.2303 17.8372C16.9246 17.2941 16.75 16.667 16.75 16C16.75 14.0421 18.2505 12.4346 20.1643 12.2648C20.2208 11.8516 20.25 11.4294 20.25 11C20.25 10.2096 20.151 9.44321 19.9651 8.71216C18.1474 8.45256 16.75 6.88948 16.75 5.00003C16.75 4.61427 16.8085 4.24126 16.9172 3.88994C16.0618 3.17713 15.0762 2.61617 14.0018 2.24778C13.3184 3.159 12.2287 3.75003 11 3.75003C9.77133 3.75003 8.68158 3.159 7.99819 2.24778C6.92382 2.61617 5.93823 3.17713 5.08277 3.88994Z" fill="#0184FF"/>
<path d="M6.75 11C6.75 8.65281 8.65279 6.75003 11 6.75003C13.3472 6.75003 15.25 8.65281 15.25 11C15.25 13.3472 13.3472 15.25 11 15.25C8.65279 15.25 6.75 13.3472 6.75 11ZM11 8.25003C9.48121 8.25003 8.25 9.48124 8.25 11C8.25 12.5188 9.48121 13.75 11 13.75C12.5188 13.75 13.75 12.5188 13.75 11C13.75 9.48124 12.5188 8.25003 11 8.25003Z" fill="#0184FF"/>
</svg>
