<svg xmlns="http://www.w3.org/2000/svg" width="16" height="16" viewBox="0 0 16 16">
  <path id="Icon_simple-whatsapp" data-name="Icon simple-whatsapp" d="M11.665,9.588c-.2-.1-1.179-.579-1.36-.644s-.315-.1-.449.1-.513.643-.629.775-.233.14-.431.049a5.411,5.411,0,0,1-1.6-.989A6.048,6.048,0,0,1,6.089,7.5a.294.294,0,0,1,.087-.409c.1-.1.2-.229.3-.348a1.689,1.689,0,0,0,.2-.331.367.367,0,0,0-.016-.349c-.051-.1-.448-1.08-.615-1.467s-.324-.34-.448-.34-.248-.011-.381-.011a.752.752,0,0,0-.533.239,2.225,2.225,0,0,0-.7,1.651A3.9,3.9,0,0,0,4.8,8.179a8.889,8.889,0,0,0,3.4,2.991c.476.2.847.32,1.136.419a2.759,2.759,0,0,0,1.253.081,2.052,2.052,0,0,0,1.344-.951,1.651,1.651,0,0,0,.12-.951c-.053-.091-.187-.14-.383-.231M8.04,14.5H8.031a6.667,6.667,0,0,1-3.371-.92l-.24-.143-2.5.649.667-2.431-.159-.249a6.612,6.612,0,0,1,10.3-8.156,6.525,6.525,0,0,1,1.939,4.66A6.62,6.62,0,0,1,8.044,14.5M13.68,2.3A8.1,8.1,0,0,0,8.031,0a7.927,7.927,0,0,0-6.9,11.892L0,16l4.224-1.1a8.041,8.041,0,0,0,3.807.965h0A7.96,7.96,0,0,0,16,7.933a7.867,7.867,0,0,0-2.329-5.608" transform="translate(0 0)" fill="#565656"/>
</svg>
