<svg id="Layer_1" data-name="Layer 1" xmlns="http://www.w3.org/2000/svg" viewBox="0 0 66.6 69.7"><defs><style>.cls-1{fill:#6a6a6a;}</style></defs><title>Class</title><path class="cls-1" d="M26.3,72.8a6.3,6.3,0,1,0,6.3,6.3h0A6.4,6.4,0,0,0,26.3,72.8Zm0,10.5A4.3,4.3,0,1,1,30.6,79h0A4.4,4.4,0,0,1,26.3,83.3Z" transform="translate(-16.7 -27.6)"/><path class="cls-1" d="M26.3,85.7a7.6,7.6,0,0,0-7.6,7.6v3a1,1,0,0,0,2,0v-3a5.6,5.6,0,0,1,11.2,0v3a1,1,0,1,0,2,0v-3A7.66,7.66,0,0,0,26.3,85.7Z" transform="translate(-16.7 -27.6)"/><path class="cls-1" d="M36.5,79.1a6.3,6.3,0,1,0,6.3-6.3A6.27,6.27,0,0,0,36.5,79.1Zm10.5,0a4.3,4.3,0,1,1-4.3-4.3A4.27,4.27,0,0,1,47,79.1Z" transform="translate(-16.7 -27.6)"/><path class="cls-1" d="M42.8,85.7a7.6,7.6,0,0,0-7.6,7.6v3a1,1,0,0,0,2,0v-3a5.6,5.6,0,0,1,11.2,0v3a1,1,0,0,0,2,0v-3A7.66,7.66,0,0,0,42.8,85.7Z" transform="translate(-16.7 -27.6)"/><path class="cls-1" d="M53,79.1a6.3,6.3,0,1,0,6.3-6.3A6.27,6.27,0,0,0,53,79.1Zm10.5,0a4.25,4.25,0,1,1-8.5,0,4.33,4.33,0,0,1,4.3-4.3,4.25,4.25,0,0,1,4.2,4.3Z" transform="translate(-16.7 -27.6)"/><path class="cls-1" d="M59.2,85.7a7.6,7.6,0,0,0-7.6,7.6v3a1,1,0,0,0,2,0v-3a5.6,5.6,0,1,1,11.2,0v3a1,1,0,0,0,2,0v-3A7.6,7.6,0,0,0,59.2,85.7Z" transform="translate(-16.7 -27.6)"/><path class="cls-1" d="M69.4,79.1a6.3,6.3,0,1,0,6.3-6.3h0A6.4,6.4,0,0,0,69.4,79.1Zm10.6,0a4.3,4.3,0,1,1-4.3-4.3h0A4.27,4.27,0,0,1,80,79.1Z" transform="translate(-16.7 -27.6)"/><path class="cls-1" d="M75.7,85.7a7.6,7.6,0,0,0-7.6,7.6v3a1,1,0,0,0,2,0v-3a5.6,5.6,0,0,1,11.2,0v3a1,1,0,0,0,2,0v-3A7.66,7.66,0,0,0,75.7,85.7Z" transform="translate(-16.7 -27.6)"/><path class="cls-1" d="M18.6,67.5a5.68,5.68,0,0,1,5.7-5.6,5.46,5.46,0,0,1,3.8,1.6h0a5.61,5.61,0,0,1,1.7,4v3a1,1,0,0,0,2,0v-3a6.86,6.86,0,0,0-1-3.7H77.7a.94.94,0,0,0,1-1V28.6a.94.94,0,0,0-1-1H24.2a.94.94,0,0,0-1,1V47a6.28,6.28,0,1,0,7.2,5.2A6.15,6.15,0,0,0,25.2,47V29.6H76.8V61.8H29.3a7.5,7.5,0,0,0-10.7.7,7.58,7.58,0,0,0-1.9,5v3a1,1,0,0,0,2,0v-3Zm9.9-14.3a4.3,4.3,0,1,1-4.3-4.3,4.4,4.4,0,0,1,4.3,4.3Z" transform="translate(-16.7 -27.6)"/></svg>