<svg xmlns="http://www.w3.org/2000/svg" width="41.205" height="48.599" viewBox="0 0 41.205 48.599">
  <g id="noun_content_986487" transform="translate(-4.35 0.75)">
    <g id="Group_265" data-name="Group 265" transform="translate(4.6 -0.4)">
      <path id="Path_364" data-name="Path 364" d="M28.3,25.952H48.288V11.8H28.3Zm1.094-1.094V23.034l1.824-1.824,2.043,2.043,4.96-4.96,2.845,3.283,2.043-2.043,4.158,4.158v1.167ZM47.266,12.894v9.264L43.108,18l-2.043,1.97-2.772-3.283L33.26,21.721l-2.043-2.043L29.394,21.5V12.894Z" transform="translate(-11.011 -2.9)" fill="#202020" stroke="#202020" stroke-width="0.5"/>
      <path id="Path_365" data-name="Path 365" d="M41.439-.4,38.156,2.81,34.873-.4,31.518,2.81,28.235-.4,24.952,2.81,21.67-.4,18.314,2.81,15.032-.4,11.749,2.81,8.466-.4,4.6,3.174V47.6H45.3V3.174Zm2.772,46.905H5.694V3.685L8.466,1.132l3.283,3.21,3.283-3.21,3.283,3.21,3.356-3.21,3.283,3.21,3.283-3.21,3.283,3.21L34.8,1.132l3.283,3.21,3.283-3.21,2.772,2.553v42.82Z" transform="translate(-4.6 0.4)" fill="#202020" stroke="#202020" stroke-width="0.5"/>
      <path id="Path_366" data-name="Path 366" d="M16.5,55.09l5.544-2.845L16.5,49.4ZM17.594,51.3l2.043,1.021-2.043,1.021Z" transform="translate(-7.819 -13.072)" fill="#202020" stroke="#202020" stroke-width="0.5"/>
      <path id="Path_367" data-name="Path 367" d="M8.9,56.494H24.876V46.5H8.9Zm1.094-8.9H23.781V55.4H9.994Z" transform="translate(-5.763 -12.288)" fill="#202020" stroke="#202020" stroke-width="0.5"/>
      <rect id="Rectangle_310" data-name="Rectangle 310" width="7.441" height="1.094" transform="translate(3.647 10.796)" fill="#202020" stroke="#202020" stroke-width="0.5"/>
      <rect id="Rectangle_311" data-name="Rectangle 311" width="10.504" height="1.094" transform="translate(3.647 14.371)" fill="#202020" stroke="#202020" stroke-width="0.5"/>
      <rect id="Rectangle_312" data-name="Rectangle 312" width="9.337" height="1.094" transform="translate(3.647 17.872)" fill="#202020" stroke="#202020" stroke-width="0.5"/>
      <rect id="Rectangle_313" data-name="Rectangle 313" width="11.745" height="1.094" transform="translate(3.647 21.374)" fill="#202020" stroke="#202020" stroke-width="0.5"/>
      <rect id="Rectangle_314" data-name="Rectangle 314" width="9.191" height="1.094" transform="translate(28.085 35.453)" fill="#202020" stroke="#202020" stroke-width="0.5"/>
      <rect id="Rectangle_315" data-name="Rectangle 315" width="13.641" height="1.094" transform="translate(23.708 38.662)" fill="#202020" stroke="#202020" stroke-width="0.5"/>
      <rect id="Rectangle_316" data-name="Rectangle 316" width="16.194" height="1.094" transform="translate(21.082 41.945)" fill="#202020" stroke="#202020" stroke-width="0.5"/>
      <rect id="Rectangle_317" data-name="Rectangle 317" width="33.629" height="1.094" transform="translate(3.647 26.334)" fill="#202020" stroke="#202020" stroke-width="0.5"/>
      <rect id="Rectangle_318" data-name="Rectangle 318" width="33.629" height="1.094" transform="translate(3.647 29.471)" fill="#202020" stroke="#202020" stroke-width="0.5"/>
    </g>
  </g>
</svg>
