<svg width="127" height="127" viewBox="0 0 127 127" fill="none" xmlns="http://www.w3.org/2000/svg">
<g clip-path="url(#clip0_2124_1058)">
<path d="M63.02 126.04C97.825 126.04 126.04 97.825 126.04 63.02C126.04 28.215 97.825 0 63.02 0C28.215 0 0 28.215 0 63.02C0 97.825 28.215 126.04 63.02 126.04Z" fill="white"/>
<path d="M63.0201 116.71C92.6722 116.71 116.71 92.6722 116.71 63.0201C116.71 33.3679 92.6722 9.33008 63.0201 9.33008C33.3679 9.33008 9.33008 33.3679 9.33008 63.0201C9.33008 92.6722 33.3679 116.71 63.0201 116.71Z" stroke="url(#paint0_linear_2124_1058)" stroke-width="6" stroke-miterlimit="10"/>
<path d="M99.1598 36.1601C98.5496 35.5487 97.8247 35.0637 97.0268 34.7327C96.2289 34.4018 95.3736 34.2314 94.5098 34.2314C93.646 34.2314 92.7906 34.4018 91.9927 34.7327C91.1948 35.0637 90.47 35.5487 89.8598 36.1601L52.7898 73.2301L36.1798 56.6201C35.5696 56.0087 34.8447 55.5237 34.0468 55.1927C33.2489 54.8618 32.3936 54.6914 31.5298 54.6914C30.666 54.6914 29.8106 54.8618 29.0127 55.1927C28.2148 55.5237 27.49 56.0087 26.8798 56.6201C26.2684 57.2303 25.7834 57.9551 25.4524 58.753C25.1215 59.5509 24.9512 60.4062 24.9512 61.2701C24.9512 62.1339 25.1215 62.9892 25.4524 63.7871C25.7834 64.585 26.2684 65.3098 26.8798 65.9201L52.4198 91.5001L52.7498 91.8301L99.0898 45.4901C99.7103 44.8839 100.205 44.1609 100.544 43.3627C100.884 42.5646 101.062 41.707 101.069 40.8396C101.075 39.9723 100.91 39.1122 100.582 38.309C100.255 37.5058 99.7711 36.7755 99.1598 36.1601Z" fill="url(#paint1_linear_2124_1058)"/>
</g>
<defs>
<linearGradient id="paint0_linear_2124_1058" x1="6.33008" y1="63.0201" x2="119.71" y2="63.0201" gradientUnits="userSpaceOnUse">
<stop stop-color="#146EFA"/>
<stop offset="0.48" stop-color="#14A050"/>
<stop offset="0.89" stop-color="#5028A0"/>
</linearGradient>
<linearGradient id="paint1_linear_2124_1058" x1="24.9498" y1="63.0201" x2="101.09" y2="63.0201" gradientUnits="userSpaceOnUse">
<stop offset="0.13" stop-color="#146EFA"/>
<stop offset="0.21" stop-color="#1473E8"/>
<stop offset="0.73" stop-color="#14937B"/>
<stop offset="0.96" stop-color="#14A050"/>
</linearGradient>
<clipPath id="clip0_2124_1058">
<rect width="126.04" height="126.04" fill="white"/>
</clipPath>
</defs>
</svg>
