<?xml version="1.0" encoding="utf-8"?>
<!-- Generator: Adobe Illustrator 16.0.0, SVG Export Plug-In . SVG Version: 6.00 Build 0)  -->
<!DOCTYPE svg PUBLIC "-//W3C//DTD SVG 1.1//EN" "http://www.w3.org/Graphics/SVG/1.1/DTD/svg11.dtd">
<svg version="1.1" id="Layer_1" xmlns="http://www.w3.org/2000/svg" xmlns:xlink="http://www.w3.org/1999/xlink" x="0px" y="0px"
	 width="48px" height="48px" viewBox="0 0 48 48" enable-background="new 0 0 48 48" xml:space="preserve">
<g>
	<path d="M46.343,28.144l-8.581,4.471v-1.446l9.308-4.842c0.38-0.201,0.534-0.672,0.333-1.059c-0.195-0.383-0.673-0.536-1.06-0.33
		l-8.581,4.472v-1.547l9.308-4.847c0.38-0.202,0.534-0.672,0.333-1.059c-0.195-0.377-0.673-0.53-1.06-0.329l-8.581,4.467v-1.457
		l9.148-4.757c0.264-0.138,0.423-0.408,0.418-0.705c0-0.296-0.164-0.561-0.435-0.693l-14.25-7.046c-0.217-0.111-0.477-0.111-0.694,0
		L1.262,26.433c-0.271,0.132-0.44,0.407-0.44,0.71c0,0.302,0.169,0.572,0.44,0.704l15.346,7.454
		c0.106,0.053,0.223,0.079,0.339,0.079c0.122,0,0.249-0.032,0.36-0.091l9.901-5.16v1.457l-10.278,5.351L1.939,29.658
		c-0.381-0.185-0.853-0.026-1.038,0.366c-0.186,0.392-0.031,0.857,0.36,1.043l15.346,7.454c0.106,0.053,0.223,0.079,0.339,0.079
		c0.122,0,0.249-0.031,0.36-0.09l9.901-5.16v1.542l-10.278,5.351L1.939,32.964c-0.381-0.19-0.853-0.026-1.038,0.37
		c-0.191,0.382-0.031,0.858,0.36,1.044l15.346,7.448c0.106,0.053,0.223,0.085,0.339,0.085c0.122,0,0.249-0.032,0.36-0.095
		l9.901-5.155v1.436l-10.278,5.351L1.939,36.174c-0.381-0.19-0.853-0.025-1.038,0.366c-0.191,0.387-0.031,0.857,0.36,1.043
		l15.346,7.448c0.106,0.059,0.223,0.085,0.339,0.085c0.122,0,0.249-0.031,0.36-0.095l11.05-5.742l18.712-9.743
		c0.38-0.195,0.534-0.673,0.333-1.055C47.207,28.095,46.729,27.942,46.343,28.144z M27.987,27.963l-13.096-6.446l7.433-3.634
		l12.867,6.33L27.987,27.963z M32.289,13.014l12.522,6.187l-7.898,4.111l-12.804-6.304L32.289,13.014z M16.937,33.716l-13.541-6.58
		l9.715-4.746l13.143,6.468L16.937,33.716z M30.731,28.297c0.005-0.005,0.016-0.005,0.021-0.011l5.44-2.829v7.967l-7.411,3.862
		v-7.967L30.731,28.297z"/>
	<path d="M14.844,13.411c6.326,0,11.104-2.257,11.104-5.245s-4.773-5.245-11.104-5.245S3.735,5.179,3.735,8.167
		S8.514,13.411,14.844,13.411z M14.844,4.49c5.621,0,9.535,1.938,9.535,3.676c0,1.737-3.915,3.676-9.535,3.676
		S5.309,9.904,5.309,8.167C5.309,6.429,9.224,4.49,14.844,4.49z"/>
	<path d="M25.757,12.733c0.18-0.397,0-0.864-0.393-1.038c-0.396-0.175-0.857,0-1.038,0.397c-0.541,1.197-4.317,2.495-9.482,2.495
		s-8.942-1.297-9.488-2.5c-0.18-0.392-0.641-0.572-1.038-0.392c-0.392,0.18-0.572,0.646-0.392,1.038
		c1.065,2.352,6.404,3.427,10.918,3.427C19.357,16.16,24.702,15.085,25.757,12.733z"/>
	<path d="M15.628,18.337c0-0.434-0.349-0.784-0.779-0.784c-5.165,0-8.942-1.298-9.487-2.505c-0.186-0.387-0.646-0.567-1.043-0.387
		c-0.392,0.18-0.572,0.641-0.392,1.038c1.065,2.353,6.404,3.428,10.918,3.428C15.279,19.127,15.628,18.771,15.628,18.337z"/>
	<path d="M9.965,21.341c0.381,0,0.715-0.275,0.773-0.667c0.069-0.424-0.228-0.826-0.657-0.89c-3.289-0.493-4.55-1.33-4.751-1.695
		c-0.212-0.382-0.683-0.52-1.065-0.313c-0.381,0.207-0.519,0.684-0.313,1.065c0.795,1.446,3.645,2.156,5.896,2.495
		C9.891,21.341,9.928,21.341,9.965,21.341z"/>
	<path d="M5.288,20.917c-0.249-0.354-0.736-0.444-1.091-0.195c-0.354,0.249-0.445,0.731-0.201,1.091
		c0.435,0.625,1.436,1.123,3.062,1.515c0.063,0.015,0.122,0.021,0.186,0.021c0.354,0,0.672-0.239,0.763-0.599
		c0.1-0.423-0.159-0.847-0.578-0.948C5.611,21.363,5.298,20.938,5.288,20.917z"/>
	<ellipse transform="matrix(-0.3835 -0.9236 0.9236 -0.3835 13.5781 54.6835)" cx="25.042" cy="22.81" rx="1.356" ry="3.534"/>
</g>
</svg>
