<svg width="20" height="20" viewBox="0 0 20 20" fill="none" xmlns="http://www.w3.org/2000/svg">
<path d="M14.375 16.25C15.0654 16.25 15.625 15.6904 15.625 15C15.625 14.3096 15.0654 13.75 14.375 13.75C13.6846 13.75 13.125 14.3096 13.125 15C13.125 15.6904 13.6846 16.25 14.375 16.25Z" fill="#0184FF"/>
<path d="M19.2356 14.6744C18.8495 13.6906 18.1831 12.8417 17.3191 12.233C16.455 11.6243 15.4314 11.2825 14.375 11.25C13.3186 11.2825 12.295 11.6243 11.4309 12.233C10.5669 12.8417 9.90055 13.6906 9.51438 14.6744L9.375 15L9.51438 15.3256C9.90055 16.3095 10.5669 17.1583 11.4309 17.767C12.295 18.3757 13.3186 18.7175 14.375 18.75C15.4314 18.7175 16.455 18.3757 17.3191 17.767C18.1831 17.1583 18.8495 16.3095 19.2356 15.3256L19.375 15L19.2356 14.6744ZM14.375 17.5C13.8805 17.5 13.3972 17.3534 12.9861 17.0787C12.575 16.804 12.2545 16.4135 12.0653 15.9567C11.8761 15.4999 11.8266 14.9972 11.923 14.5123C12.0195 14.0273 12.2576 13.5819 12.6072 13.2323C12.9569 12.8826 13.4023 12.6445 13.8873 12.5481C14.3722 12.4516 14.8749 12.5011 15.3317 12.6903C15.7885 12.8795 16.179 13.2 16.4537 13.6111C16.7284 14.0222 16.875 14.5056 16.875 15C16.8742 15.6628 16.6105 16.2982 16.1419 16.7669C15.6732 17.2355 15.0378 17.4992 14.375 17.5ZM7.74938 13C7.23813 12.6164 6.83341 12.1085 6.57365 11.5245C6.3139 10.9405 6.20772 10.2998 6.2652 9.66325C6.32268 9.02668 6.54191 8.41537 6.90208 7.88735C7.26224 7.35933 7.7514 6.93213 8.32309 6.64632C8.89478 6.3605 9.53004 6.22555 10.1686 6.25428C10.8071 6.28301 11.4276 6.47446 11.9714 6.81047C12.5151 7.14647 12.9639 7.61587 13.2752 8.1741C13.5865 8.73233 13.7499 9.36086 13.75 10H12.5C12.5 9.57388 12.3911 9.15481 12.1836 8.78261C11.976 8.41041 11.6768 8.09743 11.3143 7.87339C10.9518 7.64936 10.5381 7.5217 10.1124 7.50255C9.68666 7.48339 9.26312 7.57338 8.88197 7.76395C8.50081 7.95453 8.1747 8.23937 7.9346 8.59143C7.6945 8.94349 7.54837 9.35109 7.5101 9.77551C7.47183 10.1999 7.54269 10.6271 7.71594 11.0164C7.88919 11.4057 8.15909 11.7443 8.5 12L7.74938 13Z" fill="#0184FF"/>
<path d="M18.316 6.9025L16.841 4.3475C16.6967 4.09688 16.4699 3.9041 16.1993 3.80208C15.9287 3.70007 15.6311 3.69513 15.3572 3.78813L13.836 4.30313C13.5738 4.12662 13.2998 3.96833 13.016 3.82937L12.701 2.25438C12.6442 1.97112 12.4911 1.71628 12.2676 1.53317C12.0442 1.35006 11.7642 1.25 11.4753 1.25H8.52535C8.23638 1.25003 7.95634 1.35018 7.73288 1.53341C7.50943 1.71664 7.35636 1.97163 7.29972 2.255L6.98472 3.82875C6.69766 3.96638 6.42053 4.12385 6.15535 4.3L4.64285 3.78813C4.36918 3.69546 4.07184 3.70056 3.80151 3.80256C3.53118 3.90456 3.30459 4.09715 3.16035 4.3475L1.68535 6.9025C1.54085 7.15268 1.48748 7.44519 1.53432 7.73028C1.58115 8.01537 1.72529 8.27544 1.94222 8.46625L3.1491 9.52687C3.13847 9.68437 3.12535 9.84062 3.12535 10C3.12535 10.1613 3.1316 10.3206 3.14285 10.4788L1.94285 11.5338C1.72571 11.7244 1.58133 11.9844 1.53427 12.2695C1.48721 12.5546 1.54037 12.8472 1.68472 13.0975L3.15972 15.6525C3.30401 15.9031 3.53082 16.0959 3.80142 16.1979C4.07202 16.2999 4.36964 16.3049 4.64347 16.2119L6.16472 15.6969C6.4268 15.8737 6.70078 16.0322 6.98472 16.1713L7.2991 17.745C7.35576 18.0285 7.50892 18.2835 7.7325 18.4668C7.95608 18.65 8.23627 18.7501 8.52535 18.75H9.37535V17.5H8.52535L8.0816 15.2812C7.46774 15.0532 6.8979 14.7208 6.39722 14.2987L4.24285 15.0275L2.76785 12.4725L4.47097 10.9756C4.35445 10.3293 4.35297 9.66747 4.4666 9.02062L2.76785 7.52688L4.24285 4.9725L6.38472 5.6975C6.88897 5.27483 7.46324 4.94359 8.0816 4.71875L8.52535 2.5H11.4753L11.9191 4.71875C12.5329 4.94682 13.1028 5.2792 13.6035 5.70125L15.7578 4.9725L17.2328 7.5275L15.4841 9.06L16.3078 10L18.0578 8.46625C18.275 8.2756 18.4194 8.01561 18.4664 7.73051C18.5135 7.44542 18.4603 7.15282 18.316 6.9025Z" fill="#0184FF"/>
</svg>
