<svg xmlns="http://www.w3.org/2000/svg" width="46" height="46" viewBox="0 0 46 46">
  <g id="noun_knowledge_3764752" transform="translate(-4 -4)">
    <path id="Path_714" data-name="Path 714" d="M35.8,40.5l10.43-6.518A2.464,2.464,0,0,1,50,36.072v.186A5.748,5.748,0,0,1,47.5,41L35.712,49.067a7.393,7.393,0,0,1-4.174,1.291H11.778A4.076,4.076,0,0,0,8.9,51.552L5.4,55.046A.821.821,0,0,1,4,54.465V45.43a.819.819,0,0,1,.241-.581L6.9,42.185A5.751,5.751,0,0,1,10.969,40.5H12.7l2.763-2.763a7.392,7.392,0,0,1,5.228-2.165H31.351a2.22,2.22,0,0,1,2.219,2.219v0a4.327,4.327,0,0,1-.945,2.707Zm-7.978,0h1.4a2.708,2.708,0,0,0,2.707-2.707v0a.576.576,0,0,0-.577-.577H20.686A5.749,5.749,0,0,0,16.62,38.9l-3,3a.819.819,0,0,1-.581.241H10.969a4.107,4.107,0,0,0-2.9,1.2L5.643,45.77v6.713L7.735,50.39a5.715,5.715,0,0,1,4.043-1.675h19.76a5.747,5.747,0,0,0,3.247-1l11.783-8.062a4.106,4.106,0,0,0,1.788-3.39v-.186a.821.821,0,0,0-1.257-.7L36.471,42.019a.825.825,0,0,1-.435.125H22.892a.821.821,0,1,1,0-1.643Z" transform="translate(0 -5.287)" fill="#be643c" fill-rule="evenodd"/>
    <path id="Path_715" data-name="Path 715" d="M17.392,15H10.821a.821.821,0,0,0,0,1.643h6.571a.821.821,0,1,0,0-1.643Z" transform="translate(-1.071 -1.964)" fill="#be643c" fill-rule="evenodd"/>
    <path id="Path_716" data-name="Path 716" d="M51.392,15H44.821a.821.821,0,1,0,0,1.643h6.571a.821.821,0,0,0,0-1.643Z" transform="translate(-7.143 -1.964)" fill="#be643c" fill-rule="evenodd"/>
    <path id="Path_717" data-name="Path 717" d="M49.294,4.138,44.365,7.423a.821.821,0,1,0,.911,1.367L50.2,5.5a.821.821,0,1,0-.911-1.367Z" transform="translate(-7.143 0)" fill="#be643c" fill-rule="evenodd"/>
    <path id="Path_718" data-name="Path 718" d="M49.2,25.423l-4.929-3.286a.821.821,0,1,0-.911,1.367l4.929,3.286a.821.821,0,1,0,.911-1.367Z" transform="translate(-6.964 -3.214)" fill="#be643c" fill-rule="evenodd"/>
    <path id="Path_719" data-name="Path 719" d="M12.366,5.5,17.295,8.79a.821.821,0,1,0,.911-1.367L13.277,4.138A.821.821,0,1,0,12.366,5.5Z" transform="translate(-1.429 0)" fill="#be643c" fill-rule="evenodd"/>
    <path id="Path_720" data-name="Path 720" d="M14.277,26.79,19.206,23.5a.821.821,0,1,0-.911-1.367l-4.929,3.286a.821.821,0,1,0,.911,1.367Z" transform="translate(-1.607 -3.214)" fill="#be643c" fill-rule="evenodd"/>
    <path id="Path_721" data-name="Path 721" d="M25.332,20.975l-.124-.153A15.245,15.245,0,0,1,22,12.214a8.214,8.214,0,0,1,16.428,0,15.245,15.245,0,0,1-3.208,8.609l-.124.153a.819.819,0,0,1,.047.274v4.107a3.286,3.286,0,0,1-3.286,3.286H28.571a3.286,3.286,0,0,1-3.286-3.286V21.25a.819.819,0,0,1,.047-.274Zm8.167,1.1H26.928v3.286A1.642,1.642,0,0,0,28.571,27h3.286A1.642,1.642,0,0,0,33.5,25.357Zm-.113-1.643c.19-.2.374-.411.551-.632a13.446,13.446,0,0,0,2.848-7.582,6.571,6.571,0,0,0-13.143,0A13.446,13.446,0,0,0,26.49,19.8c.177.222.361.434.551.632h1.327l-1.42-6.393a.821.821,0,0,1,1.6-.356l1.5,6.75h.325l1.5-6.75a.821.821,0,1,1,1.6.356l-1.42,6.393Z" transform="translate(-3.214)" fill="#be643c" fill-rule="evenodd"/>
  </g>
</svg>
