<svg xmlns="http://www.w3.org/2000/svg" width="14.996" height="14.996" viewBox="0 0 14.996 14.996">
  <g id="icon-ed-instagram" transform="translate(-2 -2)">
    <path id="Path_301" data-name="Path 301" d="M6.249,3h6.5A3.249,3.249,0,0,1,16,6.249v6.5A3.249,3.249,0,0,1,12.747,16h-6.5A3.249,3.249,0,0,1,3,12.747v-6.5A3.249,3.249,0,0,1,6.249,3Z" transform="translate(0 0)" fill="none" stroke="#141414" stroke-linecap="round" stroke-linejoin="round" stroke-width="2"/>
    <path id="Path_302" data-name="Path 302" d="M18,14.479a2.981,2.981,0,1,1-2.512-2.512A2.981,2.981,0,0,1,18,14.479Z" transform="translate(-5.523 -5.444)" fill="none" stroke="#141414" stroke-linecap="round" stroke-linejoin="round" stroke-width="2"/>
    <path id="Path_303" data-name="Path 303" d="M26.25,9.75h0" transform="translate(-13.178 -3.826)" fill="none" stroke="#141414" stroke-linecap="round" stroke-linejoin="round" stroke-width="2"/>
  </g>
</svg>
