<?xml version="1.0" encoding="utf-8"?>
<!-- Generator: Adobe Illustrator 24.0.2, SVG Export Plug-In . SVG Version: 6.00 Build 0)  -->
<svg version="1.1" xmlns="http://www.w3.org/2000/svg" xmlns:xlink="http://www.w3.org/1999/xlink" x="0px" y="0px"
	 viewBox="0 0 64 64" style="enable-background:new 0 0 64 64;" xml:space="preserve">
<style type="text/css">
	.st0{display:none;}
	.st1{display:inline;}
</style>
<g id="Layer_1">
</g>
<g id="course" class="st0">
	<path class="st1" d="M56.1,28.6h-2.6v-5.2c0-0.5-0.4-0.9-0.9-0.9h-1.6c-1,0-1.9,0.1-2.9,0.1c-0.2-0.8-0.8-1.4-1.6-1.7v-2.8
		c0-7.2-5.8-13-13-13h-3.5c-7.2,0-13,5.8-13,13v2.8c-0.8,0.3-1.4,0.9-1.6,1.7c-1-0.1-1.9-0.1-2.9-0.1h-1.6c-0.5,0-0.9,0.4-0.9,0.9
		v5.2H7.5c-0.5,0-0.9,0.4-0.9,0.9v28.7C6.6,58.6,7,59,7.5,59h48.7c0.5,0,0.9-0.4,0.9-0.9V29.5C57,29,56.6,28.6,56.1,28.6z
		 M55.3,30.3v23.5H38.3c4-1.7,8.4-2.6,12.8-2.6h0.7c0.5,0,0.9-0.4,0.9-0.9v-2.6c0.5,0,0.9-0.4,0.9-0.9V30.3H55.3z M12.7,47.7
		c6.5,0,12.9,2,18.2,5.7v1.4c-5.5-3.5-11.8-5.3-18.2-5.4V47.7z M24.8,21.6H24c0-0.5-0.4-0.9-0.9-0.9h-0.9v-2.6
		c0-4.3,3.5-7.8,7.8-7.8h3.5c4.3,0,7.8,3.5,7.8,7.8v2.6h-0.9c-0.5,0-0.9,0.4-0.9,0.9h-0.9c-1.4,0-2.6,1.2-2.6,2.6v1.7
		c-1.5,0.7-3,1.6-4.3,2.5c-1.4-0.9-2.8-1.8-4.3-2.5v-1.7C27.5,22.8,26.3,21.6,24.8,21.6z M24,23.4h0.9c0.5,0,0.9,0.4,0.9,0.9v5.2
		c0,0.5-0.4,0.9-0.9,0.9H24V23.4z M45.7,22.5c0.5,0,0.9,0.4,0.9,0.9v7c0,0.5-0.4,0.9-0.9,0.9h-4.3v-8.7H45.7z M39.6,30.3h-0.9
		c-0.5,0-0.9-0.4-0.9-0.9v-5.2c0-0.5,0.4-0.9,0.9-0.9h0.9V30.3z M31.8,34.7c3.4,0,6.1,2.7,6.1,6.1c0,3.4-2.7,6.1-6.1,6.1
		s-6.1-2.7-6.1-6.1C25.7,37.4,28.4,34.7,31.8,34.7z M32.7,53.4c5.4-3.7,11.7-5.7,18.2-5.7v1.7c-6.5,0-12.8,1.9-18.2,5.4V53.4z
		 M51.8,24.2V46h-0.7c-6.5,0-12.9,1.8-18.4,5.3v-2.8c4.3-0.5,7.4-4.4,6.9-8.7c-0.4-3.6-3.3-6.5-6.9-6.9v-3.1
		c1.1-0.8,2.3-1.4,3.5-2.1v1.6c0,1.4,1.2,2.6,2.6,2.6l0,0h0.9c0,0.5,0.4,0.9,0.9,0.9h5.2c1.4,0,2.6-1.2,2.6-2.6v-6
		c0.9-0.1,1.9-0.1,2.8-0.1H51.8z M30.1,6.9h3.5c6.2,0,11.3,5.1,11.3,11.3v2.6h-1.7v-2.6c0-5.3-4.3-9.6-9.6-9.6h-3.5
		c-5.3,0-9.6,4.3-9.6,9.6v2.6h-1.7v-2.6C18.8,11.9,23.8,6.9,30.1,6.9z M17,23.4c0-0.5,0.4-0.9,0.9-0.9h4.3v8.7h-4.3
		c-0.5,0-0.9-0.4-0.9-0.9V23.4z M11.8,24.2h0.7c0.9,0,1.9,0.1,2.8,0.1v6c0,1.4,1.2,2.6,2.6,2.6h5.2c0.5,0,0.9-0.4,0.9-0.9h0.9
		c1.4,0,2.6-1.2,2.6-2.6l0,0v-1.6c1.2,0.6,2.4,1.3,3.5,2.1V33c-4.3,0.5-7.4,4.4-6.9,8.7c0.4,3.6,3.3,6.5,6.9,6.9v2.8
		C25.4,47.8,19,46,12.5,46h-0.7V24.2z M10.1,30.3v16.5c0,0.5,0.4,0.9,0.9,0.9v2.6c0,0.5,0.4,0.9,0.9,0.9h0.7c4.4,0,8.7,0.9,12.8,2.6
		H8.3V30.3H10.1z M31.8,57.3H8.3v-1.7h20.4c0.9,0.5,1.7,1,2.5,1.6c0.3,0.2,0.7,0.2,1,0c0.8-0.6,1.7-1.1,2.5-1.6h20.4v1.7H31.8z"/>
	<path class="st1" d="M28.7,45c0.3,0.2,0.6,0.2,0.8,0l7-3.5c0.4-0.2,0.6-0.7,0.4-1.2c-0.1-0.2-0.2-0.3-0.4-0.4l-7-3.5
		c-0.4-0.2-1,0-1.2,0.4c-0.1,0.1-0.1,0.3-0.1,0.4v7C28.3,44.5,28.5,44.8,28.7,45z M30.1,38.7l4.1,2.1l-4.1,2.1V38.7z"/>
</g>
<g id="classroom" class="st0">
	<g class="st1">
		<polygon points="43.4,12.2 30.5,12.2 28.1,23.2 26.4,20.9 23.4,20.9 23.4,22.7 25.5,22.7 29,27.3 31.9,14 43.4,14 		"/>
		<polygon points="41.9,16 38.1,19.7 34.4,16 33.2,17.2 36.9,20.9 33.2,24.7 34.4,25.9 38.1,22.2 41.9,25.9 43.1,24.7 39.4,20.9 
			43.1,17.2 		"/>
		<path d="M16.4,24.4c3.4,0,6.1-2.7,6.1-6.1s-2.7-6.1-6.1-6.1s-6.1,2.7-6.1,6.1S13.1,24.4,16.4,24.4z M20.8,18.3
			c0,0.8-0.2,1.5-0.6,2.1l-2.9-2.5v-3.9C19.3,14.5,20.8,16.2,20.8,18.3z M15.5,14.1v4.7l3.5,3.1c-0.7,0.6-1.6,0.9-2.6,0.9
			c-2.4,0-4.3-1.9-4.3-4.3C12.1,16.2,13.6,14.5,15.5,14.1z"/>
		<rect x="10.3" y="26.1" width="13.9" height="1.7"/>
		<rect x="10.3" y="29.6" width="13.9" height="1.7"/>
		<path d="M55.7,26.4l-3.5-0.9c2-1,3.4-3.1,3.4-5.4v-1.5c0-3.4-2.6-6.2-5.9-6.3c-1,0-1.9,0.2-2.8,0.6v-2.3c1,0,1.7-0.8,1.7-1.7V7
			c0-1-0.8-1.7-1.7-1.7h-40c-1,0-1.7,0.8-1.7,1.7v1.7c0,1,0.8,1.7,1.7,1.7v24.3h33v4.3c0,1.4,1.2,2.6,2.6,2.6c0.3,0,0.6-0.1,0.9-0.2
			v14.9c0-1.9-1.3-3.6-3.1-4.2l-2.9-0.8v-0.2c1.1-0.8,1.7-2.1,1.7-3.5v-1.6c0-2.3-1.7-4.3-4-4.5c-1.2-0.1-2.4,0.3-3.3,1.1
			c-0.9,0.8-1.4,2-1.4,3.2v1.7c0,1.4,0.7,2.6,1.7,3.5v0.2l-2.6,0.7l-2.6-0.7v-0.2c1.1-0.8,1.7-2.1,1.7-3.5v-1.6c0-2.3-1.7-4.3-4-4.5
			c-1.2-0.1-2.4,0.3-3.3,1.1c-0.9,0.8-1.4,2-1.4,3.2v1.7c0,1.4,0.7,2.6,1.7,3.5v0.2L19,52.3l-2.6-0.7v-0.2c1.1-0.8,1.7-2.1,1.7-3.5
			v-1.6c0-2.3-1.7-4.3-4-4.5c-1.2-0.1-2.4,0.3-3.3,1.1c-0.9,0.8-1.4,2-1.4,3.2v1.7c0,1.4,0.7,2.6,1.7,3.5v0.2l-2.9,0.8
			c-1.8,0.5-3.1,2.2-3.1,4.2v2.6h10.4h0.9h15.6h0.9h10.4h12.2V41.6c0.3,0.1,0.6,0.2,0.9,0.2c1.4,0,2.6-1.2,2.6-2.6v-8.6
			C59,28.6,57.6,26.9,55.7,26.4z M6.9,57.4v-0.9c0-1.1,0.8-2.2,1.9-2.5l4.2-1.2v-2.5l-0.4-0.3c-0.8-0.5-1.3-1.3-1.3-2.2v-1.7
			c0-0.7,0.3-1.4,0.8-1.9c0.5-0.5,1.3-0.7,2-0.7c1.3,0.1,2.4,1.3,2.4,2.8v1.6c0,0.9-0.5,1.8-1.3,2.2l-0.4,0.3v2.5l2.2,0.6
			c-0.8,0.8-1.3,1.9-1.3,3.1v0.9H6.9z M31.2,57.4H17.3v-0.9c0-1.1,0.8-2.2,1.9-2.5l4.2-1.2v-2.5l-0.4-0.3c-0.8-0.5-1.3-1.3-1.3-2.2
			v-1.7c0-0.7,0.3-1.4,0.8-1.9c0.5-0.5,1.3-0.7,2-0.7c1.3,0.1,2.4,1.3,2.4,2.8v1.6c0,0.9-0.5,1.8-1.3,2.2l-0.4,0.3v2.5l4.2,1.2
			c1.1,0.3,1.9,1.3,1.9,2.5V57.4z M41.6,57.4h-8.7v-0.9c0-1.2-0.5-2.3-1.3-3.1l2.2-0.6v-2.5l-0.4-0.3c-0.8-0.5-1.3-1.3-1.3-2.2v-1.7
			c0-0.7,0.3-1.4,0.8-1.9c0.5-0.5,1.3-0.7,2-0.7c1.3,0.1,2.4,1.3,2.4,2.8v1.6c0,0.9-0.5,1.8-1.3,2.2l-0.4,0.3v2.5l4.2,1.2
			c1.1,0.3,1.9,1.3,1.9,2.5V57.4z M53.8,18.5v1.5c0,1.8-1.2,3.5-2.9,4.1l-0.6,0.2v1.8c0,0.5-0.4,0.9-0.9,0.9c-0.5,0-0.9-0.4-0.9-0.9
			v-1.8L48,24.1c-1.7-0.6-2.9-2.3-2.9-4.1v-1.7c0-1.2,0.5-2.3,1.3-3.1c0.9-0.8,2-1.3,3.2-1.2C51.9,14,53.8,16.1,53.8,18.5z M6.9,7
			h40l0,1.7h-40V7z M39.9,30.6v2.5H8.6V10.5h36.5v3.6c-1.1,1.1-1.7,2.6-1.7,4.2v1.7c0,2.3,1.3,4.4,3.4,5.4l-3.5,0.9
			C41.2,26.9,39.9,28.6,39.9,30.6z M53.8,57.4h-3.5V46.1h-1.7v11.3h-3.5V39.2v-0.9h8.7v0.9V57.4z M57.3,39.2c0,0.5-0.4,0.9-0.9,0.9
			c-0.5,0-0.9-0.4-0.9-0.9v-1.7v-7h-1.7v6.1h-8.7v-6.1h-1.7v7v1.7c0,0.5-0.4,0.9-0.9,0.9c-0.5,0-0.9-0.4-0.9-0.9v-8.6
			c0-1.2,0.8-2.2,2-2.5l3.5-0.9c0.4,0.9,1.3,1.6,2.4,1.6c1.1,0,2-0.6,2.4-1.6l3.5,0.9c1.2,0.3,2,1.3,2,2.5V39.2z"/>
		<rect x="48.6" y="30.5" width="1.7" height="1.7"/>
	</g>
</g>
<g id="student">
</g>
</svg>
