<svg id="Icon_ionic-md-thumbs-up" data-name="Icon ionic-md-thumbs-up" xmlns="http://www.w3.org/2000/svg" width="12.382" height="11.432" viewBox="0 0 12.382 11.432">
  <path id="Path_223" data-name="Path 223" d="M12.381,4.5H17.5a1.092,1.092,0,0,1,1.018.7l1.7,4.031a1.139,1.139,0,0,1,.077.417v1.149a1.313,1.313,0,0,1-1.125,1.328H15.623l.536,2.426.018.179a.863.863,0,0,1-.247.6l-.6.6-3.751-3.79a1.146,1.146,0,0,1-.327-.807V5.619A1.123,1.123,0,0,1,12.381,4.5Z" transform="translate(-7.916 -4.5)" fill="#565656"/>
  <path id="Path_224" data-name="Path 224" d="M3.375,22.418H5.28V15.75H3.375Z" transform="translate(-3.375 -15.75)" fill="#565656"/>
</svg>
