<svg xmlns="http://www.w3.org/2000/svg" width="70" height="70" viewBox="0 0 70 70">
  <g id="Group_585" data-name="Group 585" transform="translate(-818 -2170)">
    <g id="Ellipse_187" data-name="Ellipse 187" transform="translate(818 2170)" fill="#fff" stroke="#141414" stroke-width="2">
      <circle cx="35" cy="35" r="35" stroke="none"/>
      <circle cx="35" cy="35" r="34" fill="none"/>
    </g>
    <path id="Icon_awesome-award" data-name="Icon awesome-award" d="M7.975,29.778c-.714-.714-.342-.512-2.063-.973a5.925,5.925,0,0,1-2.088-1.094L.1,36.845a1.314,1.314,0,0,0,1.267,1.809l4.327-.165,2.976,3.143a1.314,1.314,0,0,0,2.17-.407l4.274-10.48a5.893,5.893,0,0,1-7.138-.968Zm23.459,7.068-3.726-9.135A5.911,5.911,0,0,1,25.62,28.8c-1.73.463-1.351.261-2.063.973a5.894,5.894,0,0,1-7.138.968l4.274,10.48a1.314,1.314,0,0,0,2.17.407l2.977-3.143,4.327.165a1.314,1.314,0,0,0,1.267-1.809ZM21.6,27.919c1.255-1.277,1.4-1.167,3.185-1.654a3.337,3.337,0,0,0,2.338-2.38c.614-2.332.455-2.05,2.131-3.757a3.406,3.406,0,0,0,.856-3.25c-.613-2.33-.614-2.005,0-4.338a3.406,3.406,0,0,0-.856-3.25c-1.676-1.706-1.517-1.426-2.131-3.757a3.337,3.337,0,0,0-2.338-2.38c-2.289-.625-2.013-.461-3.691-2.169A3.267,3.267,0,0,0,17.9.114c-2.289.624-1.969.625-4.262,0a3.265,3.265,0,0,0-3.193.871c-1.676,1.706-1.4,1.544-3.69,2.169a3.337,3.337,0,0,0-2.338,2.38C3.8,7.865,3.959,7.584,2.283,9.291a3.4,3.4,0,0,0-.856,3.25c.613,2.329.614,2,0,4.337a3.408,3.408,0,0,0,.856,3.251c1.676,1.706,1.517,1.425,2.131,3.757a3.337,3.337,0,0,0,2.338,2.38c1.838.5,1.975.422,3.184,1.654a3.263,3.263,0,0,0,4.084.478,3.258,3.258,0,0,1,3.492,0A3.262,3.262,0,0,0,21.6,27.919ZM8.019,14.449a7.748,7.748,0,1,1,7.747,7.885A7.817,7.817,0,0,1,8.019,14.449Z" transform="translate(837 2184)" fill="#141414"/>
  </g>
</svg>
