<svg xmlns="http://www.w3.org/2000/svg" width="56.008" height="55.999" viewBox="0 0 56.008 55.999">
  <g id="noun_SEO_2469537" transform="translate(-56.098 -56.223)">
    <g id="Group_272" data-name="Group 272" transform="translate(56.098 56.223)">
      <g id="Group_264" data-name="Group 264" transform="translate(0 0)">
        <g id="Group_263" data-name="Group 263">
          <path id="Path_542" data-name="Path 542" d="M100.286,72.059a22.93,22.93,0,0,1,1.038,3.225c.135.559.252,1.124.344,1.7.018.117.037.24.055.356,0,.018.043.313.018.1s.012.086.012.1c.037.283.068.571.086.86a23.5,23.5,0,0,1,.043,3.354c-.018.27-.037.541-.061.817-.012.135-.025.27-.043.405-.006.061-.012.123-.018.178-.012.074-.08.344-.006.031-.135.534-.178,1.112-.295,1.659a23.435,23.435,0,0,1-.964,3.287c-.092.246-.19.485-.289.725-.074.178.123-.276,0,.006-.025.055-.049.111-.074.172-.061.141-.129.283-.19.418q-.378.8-.811,1.567-.415.737-.885,1.438c-.16.233-.319.467-.485.7-.092.129-.19.252-.283.381-.031.043-.135.19.018-.025-.055.074-.117.154-.178.227a23.671,23.671,0,0,1-2.39,2.574c-.405.375-.823.737-1.253,1.081-.055.049-.117.092-.172.135-.092.074-.123.025.037-.031a1.5,1.5,0,0,0-.319.24c-.227.166-.455.326-.682.485a21.986,21.986,0,0,1-2.777,1.622q-.35.175-.7.332c-.117.055-.233.1-.356.154-.08.031-.24.135.018-.006a1.634,1.634,0,0,1-.24.1c-.473.19-.958.369-1.444.522a23.69,23.69,0,0,1-3.041.768c-.252.043-.5.086-.749.123-.025.006-.3.043-.086.012s-.061.006-.086.012c-.141.018-.283.031-.418.049-.516.055-1.038.092-1.56.111a23.039,23.039,0,0,1-3.121-.1c-.129-.012-.252-.025-.381-.043l-.166-.018c-.025-.006-.3-.043-.086-.012s-.061-.012-.086-.012c-.055-.006-.111-.018-.166-.025-.141-.018-.276-.043-.418-.068-.516-.086-1.026-.2-1.536-.319a23.022,23.022,0,0,1-3.041-.971,2.889,2.889,0,0,1-.319-.129c.307.172-.068-.031-.141-.061-.252-.111-.5-.221-.743-.344-.491-.24-.977-.5-1.45-.768-.455-.264-.9-.541-1.333-.829-.221-.147-.436-.3-.651-.455-.117-.086-.24-.172-.356-.264a.7.7,0,0,0-.141-.1c.123.092.141.111.074.055-.037-.025-.068-.055-.1-.08a23.033,23.033,0,0,1-2.457-2.248c-.381-.4-.749-.817-1.1-1.247-.086-.1-.166-.209-.252-.313-.037-.043-.074-.092-.111-.141.166.233.049.061.006,0-.166-.221-.332-.448-.491-.676a22.864,22.864,0,0,1-1.659-2.764c-.117-.233-.227-.461-.338-.7-.055-.117-.111-.233-.16-.35-.031-.068-.055-.129-.086-.2s-.166-.3-.012-.025a8.979,8.979,0,0,1-.541-1.438,22.752,22.752,0,0,1-.8-3.035c-.049-.252-.092-.5-.129-.749a1.961,1.961,0,0,1-.061-.418c0,.025.037.3.012.074-.012-.086-.018-.166-.031-.252-.061-.516-.1-1.038-.129-1.554a23.017,23.017,0,0,1,.061-3.121c.025-.252.049-.5.08-.756a1.144,1.144,0,0,1,.025-.209c-.006.025-.043.3-.012.074.018-.141.043-.276.061-.418.08-.516.184-1.026.3-1.536a22.674,22.674,0,0,1,.934-3.047c.043-.1.08-.215.123-.319.025-.068.055-.129.08-.2.061-.16-.092.215-.025.055.111-.252.215-.5.332-.743.233-.5.485-.983.749-1.462.258-.455.528-.9.817-1.339.147-.221.295-.436.442-.651.086-.123.172-.24.258-.356s.227-.233.264-.356c-.055.16-.1.129-.031.037.037-.049.074-.092.111-.141.092-.117.184-.233.283-.344.178-.221.369-.436.553-.645.375-.418.762-.817,1.161-1.21s.811-.756,1.235-1.118c.2-.172.412-.338.62-.5.147-.117-.24.178,0,0,.049-.037.092-.074.141-.1.117-.086.24-.172.356-.258a22.865,22.865,0,0,1,2.746-1.689c.485-.252.977-.485,1.474-.706.055-.025.1-.043.16-.068-.264.123-.117.049-.055.025.117-.049.24-.1.356-.141.252-.1.5-.19.762-.283a23.512,23.512,0,0,1,3.029-.835c.252-.049.5-.1.749-.141.141-.025.276-.043.418-.068.055-.006.111-.018.166-.025.295-.043-.289.037.006,0,.516-.061,1.032-.117,1.554-.141A23.007,23.007,0,0,1,82,58.734q.378.028.756.074c.129.012.252.031.375.043.074.006.233.043-.074-.012l.252.037c.516.08,1.032.172,1.542.283a22.367,22.367,0,0,1,3.059.9c.227.086.455.172.676.264.074.031.27.1-.018-.006.055.018.1.043.16.068.129.055.264.117.393.172.5.227.989.473,1.468.731a22.989,22.989,0,0,1,2.721,1.745c.08.061.326.233.1.074.117.086.233.184.35.276.209.166.412.344.614.516.412.356.8.725,1.192,1.106a1.229,1.229,0,0,0,1.739-1.739A24.188,24.188,0,0,0,85.4,56.75,24.194,24.194,0,0,0,60.97,65.83a24.138,24.138,0,0,0,32.909,34.445A24.156,24.156,0,0,0,103.7,74.627a22.931,22.931,0,0,0-1.038-3.225,1.23,1.23,0,1,0-2.371.657Z" transform="translate(-56.098 -56.223)" fill="#14a050"/>
        </g>
      </g>
      <g id="Group_266" data-name="Group 266" transform="translate(39.132 39.12)">
        <g id="Group_265" data-name="Group 265">
          <path id="Path_543" data-name="Path 543" d="M709.617,707.808l-4.89-4.89-7.777-7.777-1.763-1.763a1.229,1.229,0,0,0-1.738,1.738l4.89,4.89,7.777,7.777,1.763,1.763a1.229,1.229,0,0,0,1.739-1.739Z" transform="translate(-693.098 -693.023)" fill="#14a050"/>
        </g>
      </g>
      <g id="Group_271" data-name="Group 271" transform="translate(12.982 4.514)">
        <g id="Group_268" data-name="Group 268" transform="translate(0 0.037)">
          <g id="Group_267" data-name="Group 267">
            <path id="Path_544" data-name="Path 544" d="M269.516,155.885l4.165-4.165,6.629-6.629,1.511-1.511h-1.739l2.875,2.875,4.589,4.589L288.6,152.1a1.248,1.248,0,0,0,1.739,0l1.96-1.96,4.712-4.712,5.7-5.7,4.921-4.921c.792-.792,1.61-1.573,2.384-2.384l.037-.037a1.229,1.229,0,0,0-1.738-1.739l-1.96,1.96-4.712,4.712-5.7,5.7-4.921,4.921c-.793.792-1.628,1.56-2.384,2.384l-.037.037h1.739l-2.875-2.875-4.589-4.589-1.057-1.057a1.248,1.248,0,0,0-1.739,0l-4.165,4.165-6.629,6.629-1.511,1.511a1.229,1.229,0,0,0,1.739,1.739Z" transform="translate(-267.423 -130.298)" fill="#14a050"/>
          </g>
        </g>
        <g id="Group_270" data-name="Group 270" transform="translate(31.353)">
          <g id="Group_269" data-name="Group 269">
            <path id="Path_545" data-name="Path 545" d="M779.012,132.157h9.215L787,130.929v9.215a1.229,1.229,0,1,0,2.457,0v-9.215a1.248,1.248,0,0,0-1.229-1.229h-9.215a1.229,1.229,0,1,0,0,2.457Z" transform="translate(-777.782 -129.7)" fill="#14a050"/>
          </g>
        </g>
      </g>
    </g>
  </g>
</svg>
