<svg xmlns="http://www.w3.org/2000/svg" width="70.129" height="57.504" viewBox="0 0 70.129 57.504">
  <g id="icon-student" transform="translate(103.129 54.701)">
    <path id="Path_5" data-name="Path 5" d="M89.154,41.811l-33.762-16.3a1.615,1.615,0,0,0-1.047,0l-33.763,16.3A1.091,1.091,0,0,0,20,42.858a1.119,1.119,0,0,0,.7,1.047l12.573,6.059a22.8,22.8,0,0,0-1.863,9.2,23.517,23.517,0,0,0,47.034,0,22.41,22.41,0,0,0-1.863-9.2l6.871-3.38v14.2a.875.875,0,0,0-.582.815L81.007,72.778a1.255,1.255,0,0,0,.239.931,1.437,1.437,0,0,0,.931.465h5.009a1.059,1.059,0,0,0,.931-.465.905.905,0,0,0,.239-.932l-1.979-11.06A1.485,1.485,0,0,0,85.8,60.9V45.536l3.377-1.63a1.338,1.338,0,0,0,.7-1.047,1.019,1.019,0,0,0-.717-1.047ZM54.926,80.461a21.188,21.188,0,0,1-19.56-29.34l19.093,9.2a.99.99,0,0,0,.931,0l19.093-9.2a21.656,21.656,0,0,1,1.63,8.15A21.191,21.191,0,0,1,54.926,80.461Zm28.645-8.615,1.047-6.636,1.048,6.636Zm.7-28.174c-.119,0-.119.119-.239.119L54.93,57.879,23.842,42.858,54.926,27.724,86.01,42.743Z" transform="translate(-123 -80)" fill="#5028a0" stroke="#5028a0" stroke-width="0.25"/>
  </g>
</svg>
