<svg xmlns="http://www.w3.org/2000/svg" width="37.522" height="48.5" viewBox="0 0 37.522 48.5">
  <g id="icon-teacher" transform="translate(-26.299 -22.122)">
    <g id="Group_16" data-name="Group 16" transform="translate(26.549 22.372)">
      <path id="Path_13" data-name="Path 13" d="M49.947,49.9a9.713,9.713,0,0,1-.654.86l-.392.4a10.377,10.377,0,0,1,5.166,2.912,10.909,10.909,0,0,1,3.139,7.742v6.882a1.077,1.077,0,0,1-.262.662,5.2,5.2,0,0,1-2.093,1.39,25.472,25.472,0,0,1-6.409,1.522,66.855,66.855,0,0,1-8.371.529,54.735,54.735,0,0,1-12.1-1.191,13.646,13.646,0,0,1-3.793-1.39,2.847,2.847,0,0,1-.916-.794A1.077,1.077,0,0,1,23,68.759V61.811a10.909,10.909,0,0,1,3.139-7.742,11.467,11.467,0,0,1,4.381-2.713l-.589-.6c-.131-.2-.327-.4-.458-.6A12.449,12.449,0,0,0,21.5,61.811v6.882a2.714,2.714,0,0,0,.523,1.588A5.923,5.923,0,0,0,24.7,72.133a27.387,27.387,0,0,0,6.736,1.588,70.934,70.934,0,0,0,8.567.529,53.7,53.7,0,0,0,12.425-1.257,15.119,15.119,0,0,0,4.251-1.588,4.577,4.577,0,0,0,1.308-1.191,2.713,2.713,0,0,0,.523-1.588V61.811A12.026,12.026,0,0,0,49.947,49.9Z" transform="translate(-21.5 -26.251)" fill="#14a050" stroke="#14a050" stroke-width="0.5"/>
      <path id="Path_14" data-name="Path 14" d="M37.723,39.827a8.4,8.4,0,0,0,1.43,4.7,7.936,7.936,0,0,0,.975,1.111,27.042,27.042,0,0,0-.195,3.332,26.3,26.3,0,0,0,.65,6.076,6.833,6.833,0,0,0,.78,1.96,1.427,1.427,0,0,0,.585.653,1.4,1.4,0,0,0,.91.327,1.547,1.547,0,0,0,.91-.327,3.9,3.9,0,0,0,.91-1.307,15.713,15.713,0,0,0,.78-3.136,28.649,28.649,0,0,0,.26-4.247,27.043,27.043,0,0,0-.195-3.332,6.951,6.951,0,0,0,1.624-2.156,8.186,8.186,0,0,0,.78-3.659,11.867,11.867,0,0,0,3.444-2.81,15.217,15.217,0,0,0,3.444-9.8,15.217,15.217,0,0,0-3.444-9.8,10.859,10.859,0,0,0-17.024,0,15.217,15.217,0,0,0-3.444,9.8,15.217,15.217,0,0,0,3.444,9.8A10.824,10.824,0,0,0,37.723,39.827Zm1.494.653A10.134,10.134,0,0,0,41.231,41c-.065.131-.13.327-.195.457a13.107,13.107,0,0,0-.65,2.222,4.172,4.172,0,0,1-.52-.915A7.3,7.3,0,0,1,39.217,40.481Zm2.794,2.679a6.658,6.658,0,0,1,.585-1.568.9.9,0,0,1,.195-.261.229.229,0,0,1,.065.131,3.463,3.463,0,0,1,.455.98,15.31,15.31,0,0,1,.52,2.418,2.285,2.285,0,0,1-1.1.261,3.047,3.047,0,0,1-1.1-.261C41.816,44.27,41.881,43.682,42.011,43.16Zm1.559,11.434a6.659,6.659,0,0,1-.585,1.568.9.9,0,0,1-.195.261.228.228,0,0,1-.065-.131,3.463,3.463,0,0,1-.455-.98,22.529,22.529,0,0,1-.845-6.469c0-.849.065-1.7.13-2.483a4.181,4.181,0,0,0,1.3.261,3.083,3.083,0,0,0,1.3-.261c.065.784.13,1.633.13,2.483A25.469,25.469,0,0,1,43.571,54.594Zm1.754-10.977-.065.065c-.065-.327-.13-.653-.195-.915a9.89,9.89,0,0,0-.65-1.829,10.134,10.134,0,0,0,2.014-.523A8.037,8.037,0,0,1,45.325,43.617ZM35.448,18.331a9.879,9.879,0,0,1,7.407-3.594,9.879,9.879,0,0,1,7.407,3.594,13.708,13.708,0,0,1,3.119,8.821,13.359,13.359,0,0,1-3.119,8.821,9.879,9.879,0,0,1-7.407,3.594,9.879,9.879,0,0,1-7.407-3.594,14.032,14.032,0,0,1,0-17.641Z" transform="translate(-24.68 -13.3)" fill="#14a050" stroke="#14a050" stroke-width="0.5"/>
    </g>
  </g>
</svg>
