<svg xmlns="http://www.w3.org/2000/svg" width="70" height="70" viewBox="0 0 70 70">
  <g id="Group_587" data-name="Group 587" transform="translate(-130 -3321)">
    <g id="Ellipse_186" data-name="Ellipse 186" transform="translate(130 3321)" fill="#fff" stroke="#141414" stroke-width="2">
      <circle cx="35" cy="35" r="35" stroke="none"/>
      <circle cx="35" cy="35" r="34" fill="none"/>
    </g>
    <path id="Icon_awesome-user-graduate" data-name="Icon awesome-user-graduate" d="M25.123,25.217l-7.5,7.5-7.5-7.5A10.548,10.548,0,0,0,0,35.741V36.5a3.776,3.776,0,0,0,3.775,3.775H31.462A3.776,3.776,0,0,0,35.238,36.5v-.755A10.548,10.548,0,0,0,25.123,25.217ZM1.07,6.277l.5.118v4.594A1.817,1.817,0,0,0,1.5,14.135l-1.227,4.9c-.134.543.165,1.1.6,1.1H4.161c.433,0,.731-.558.6-1.1l-1.227-4.9a1.817,1.817,0,0,0-.071-3.146V6.851L8.652,8.1a10.05,10.05,0,1,0,19.035,4.483,9.889,9.889,0,0,0-1.1-4.483L34.16,6.277a1.252,1.252,0,0,0,0-2.478L19.184.181a6.756,6.756,0,0,0-3.123,0L1.07,3.791a1.257,1.257,0,0,0,0,2.486Z" transform="translate(147 3336.002)" fill="#141414"/>
  </g>
</svg>
