<svg id="Layer_1" data-name="Layer 1" xmlns="http://www.w3.org/2000/svg" viewBox="0 0 66.7 69.71"><title>Class Icon</title><path d="M26.26,72.78a6.27,6.27,0,1,0,6.27,6.27h0A6.29,6.29,0,0,0,26.26,72.78Zm0,10.55a4.27,4.27,0,1,1,4.27-4.26h0A4.27,4.27,0,0,1,26.26,83.33Z" transform="translate(-16.65 -27.64)"/><path d="M26.27,85.75a7.61,7.61,0,0,0-7.61,7.61v3a1,1,0,0,0,2,0v-3a5.62,5.62,0,1,1,11.23,0v3a1,1,0,0,0,2,0v-3A7.62,7.62,0,0,0,26.27,85.75Z" transform="translate(-16.65 -27.64)"/><path d="M36.47,79.05a6.27,6.27,0,1,0,6.27-6.27A6.27,6.27,0,0,0,36.47,79.05Zm10.55,0a4.27,4.27,0,1,1-4.27-4.27A4.27,4.27,0,0,1,47,79.05Z" transform="translate(-16.65 -27.64)"/><path d="M42.76,85.75a7.61,7.61,0,0,0-7.61,7.61v3a1,1,0,0,0,2,0v-3a5.62,5.62,0,1,1,11.23,0v3a1,1,0,0,0,2,0v-3A7.62,7.62,0,0,0,42.76,85.75Z" transform="translate(-16.65 -27.64)"/><path d="M53,79.05a6.27,6.27,0,1,0,6.27-6.27A6.27,6.27,0,0,0,53,79.05Zm10.55,0a4.27,4.27,0,1,1-4.27-4.27,4.27,4.27,0,0,1,4.27,4.27Z" transform="translate(-16.65 -27.64)"/><path d="M59.24,85.75a7.61,7.61,0,0,0-7.61,7.61v3a1,1,0,0,0,2,0v-3a5.62,5.62,0,1,1,11.23,0v3a1,1,0,0,0,2,0v-3A7.62,7.62,0,0,0,59.24,85.75Z" transform="translate(-16.65 -27.64)"/><path d="M69.45,79.05a6.27,6.27,0,1,0,6.27-6.27h0A6.29,6.29,0,0,0,69.45,79.05Zm10.55,0a4.27,4.27,0,1,1-4.27-4.27h0A4.29,4.29,0,0,1,80,79.05Z" transform="translate(-16.65 -27.64)"/><path d="M75.73,85.75a7.61,7.61,0,0,0-7.61,7.61v3a1,1,0,1,0,2,0v-3a5.62,5.62,0,1,1,11.23,0v3a1,1,0,0,0,2,0v-3A7.62,7.62,0,0,0,75.73,85.75Z" transform="translate(-16.65 -27.64)"/><path d="M18.65,67.51a5.62,5.62,0,0,1,9.5-4h0a5.61,5.61,0,0,1,1.69,4v3a1,1,0,0,0,2,0v-3a7.55,7.55,0,0,0-1-3.73h46.9a1,1,0,0,0,1-1V28.64a1,1,0,0,0-1-1H24.21a1,1,0,0,0-1,1V47.08a6.28,6.28,0,1,0,2,0V29.64H76.79V61.83H29.26a7.61,7.61,0,0,0-12.61,5.68v3a1,1,0,0,0,2,0Zm9.88-14.3a4.27,4.27,0,1,1-4.27-4.27,4.27,4.27,0,0,1,4.27,4.27v0Z" transform="translate(-16.65 -27.64)"/></svg>