<svg xmlns="http://www.w3.org/2000/svg" width="61.965" height="56.499" viewBox="0 0 61.965 56.499">
  <g id="noun_Email_2995364" transform="translate(-8.75 -20.401)">
    <g id="Group_262" data-name="Group 262" transform="translate(9 20.651)">
      <path id="Path_521" data-name="Path 521" d="M13.554,35.974h1.533V31.454a4.382,4.382,0,0,1,4.37-4.37H60.009a4.382,4.382,0,0,1,4.37,4.37v4.519h1.65l.053,0,.041,0h.022l.05,0H66.2l.048,0h.01l.046,0h.005l.042,0h.01l.045,0h.011l.034,0,.03,0h0l.039.005h.005l.039.006.015,0,.035.005.025,0,.024,0,.032.006.026,0,.024,0,.038.007.015,0,.035.007.023,0,.031.007.023.005.028.007.031.007.023.006.023.006.037.01.013,0,.037.01.022.006.031.009.018.005.038.011.011,0,.042.013.01,0,.044.015h0l.046.016.009,0,.044.015h0l.041.015.01,0,.01,0,.141.055.046.019,0,0,.047.02h0l.1.044h0l.048.023q.168.081.328.175l0,0,.084.051.01.006q.066.041.131.084h0l.036.024.015.01.035.024,0,0,.038.027.008.006q.082.06.162.123l.008.007.077.063h0l.079.067,0,0c.039.034.077.068.115.1l.006.006.034.032v-8.8a3.157,3.157,0,0,0-3.146-3.146H36.148a2.744,2.744,0,0,1-2.693-2.172,1.351,1.351,0,0,0-1.319-1.062H12.1a1.7,1.7,0,0,0-1.7,1.7V37.242a4.618,4.618,0,0,1,.576-.469h0a4.563,4.563,0,0,1,.649-.371l.049-.023h0l.048-.022.04-.017.01,0,0,0,.046-.019.137-.054.014-.005.01,0,.041-.015h0l.036-.013.018-.006.035-.012.013,0,.152-.047h0l.047-.014.006,0,.042-.011.014,0,.036-.009.023-.006.023-.006.033-.008.024-.006.028-.006.027-.006.027-.006.031-.006.02,0,.034-.007.028-.005.022,0,.036-.006.021,0,.028,0,.032,0,.019,0,.036-.005h.006l.039-.005h0l.033,0,.031,0,.015,0,.042,0h.012l.041,0h.005l.046,0h.01l.048,0h.008l.05,0h.022l.041,0,.053,0h.117Zm12.8,36.361a.469.469,0,0,1,0-.938H53.2a.469.469,0,0,1,0,.938ZM21.169,41.4H58.3a.469.469,0,0,1,.469.469V67.659a.469.469,0,0,1-.469.469H21.169a.469.469,0,0,1-.469-.469V41.866A.469.469,0,0,1,21.169,41.4Zm35.942.938H22.363L39.82,58.54l4.218-3.953a.452.452,0,0,1,.048-.045L57.111,42.336Zm-35.472.605V66.424l13.229-11.2Zm.545,24.249h34.91L44.387,55.543,40.15,59.515a.468.468,0,0,1-.647.008l-3.944-3.661L22.183,67.189ZM57.827,66.6V42.947L45.07,54.9ZM19.457,31.088H60.009A4.357,4.357,0,0,1,63.1,32.371a4.407,4.407,0,0,1,.345.388V31.454a3.443,3.443,0,0,0-3.432-3.432H19.457a3.443,3.443,0,0,0-3.432,3.432v1.305a4.384,4.384,0,0,1,3.432-1.672Zm40.552.939H19.457a3.443,3.443,0,0,0-3.432,3.432v.515H63.441v-.515a3.443,3.443,0,0,0-3.432-3.432Zm10.457,8.5V72.1a4.565,4.565,0,0,1-4.554,4.554H13.554A4.565,4.565,0,0,1,9,72.1V23.755a3.111,3.111,0,0,1,3.1-3.1H32.136a2.768,2.768,0,0,1,2.694,2.173,1.328,1.328,0,0,0,1.319,1.061H65.912a4.565,4.565,0,0,1,4.554,4.554Zm-1.433-.4c0-.026-.007-.052-.011-.078l-.006-.039-.007-.039L69,39.934l-.008-.038c-.005-.025-.011-.051-.017-.076h0l-.009-.038-.01-.038h0l-.01-.038-.011-.037-.011-.037h0c-.011-.037-.023-.074-.035-.11h0l-.013-.036-.013-.036h0l-.014-.036h0l-.014-.036h0l-.014-.035h0l-.015-.035h0l-.015-.035h0l-.016-.035h0l-.016-.035h0l-.016-.034h0l-.017-.034h0l-.017-.034h0l-.018-.034h0l-.018-.034h0L68.658,39h0l-.019-.033h0l-.019-.033L68.6,38.9h0l-.02-.032h0l-.02-.032h0L68.54,38.8l-.021-.031-.022-.031h0l-.022-.031h0l-.022-.03h0l-.022-.03-.023-.03h0l-.023-.03h0l-.023-.03h0l-.024-.029h0l-.024-.029h0l-.025-.029h0l-.025-.028-.025-.028-.026-.028-.026-.028-.026-.027-.027-.027-.027-.027-.027-.026-.027-.026-.028-.026L68,38.176l-.028-.025h0l-.029-.024h0l-.029-.024h0l-.029-.024h0l-.03-.023h0l-.03-.023h0l-.03-.023-.03-.023h0l-.031-.022h0l-.031-.022h0l-.031-.021h0l-.031-.021-.032-.021h0l-.032-.02h0l-.032-.02h0l-.033-.02-.033-.019h0l-.033-.019h0l-.033-.018h0l-.034-.018h0l-.034-.018h0l-.034-.017h0l-.034-.017h0l-.034-.016h0L67.2,37.66h0l-.035-.015h0l-.035-.015h0l-.035-.015h0l-.036-.014h0l-.036-.014h0l-.036-.013h0l-.036-.013-.036-.013h0l-.11-.035h0L66.77,37.5l-.037-.01-.038-.01h0l-.038-.009-.038-.009h0l-.076-.017-.038-.008-.039-.007-.039-.007-.039-.006-.078-.011-.039,0-.039,0-.039,0-.04,0-.04,0-.04,0-.04,0h-52.6l-.04,0-.04,0-.04,0-.04,0-.04,0-.039,0-.039,0-.039.005h0l-.039.006-.039.006L13,37.431l-.038.007-.038.008-.038.008h0l-.038.008-.038.009-.038.009-.038.01-.037.01-.037.011h0l-.037.011h0l-.037.012h0l-.037.012-.036.013-.036.013h0l-.036.013h0L12.4,37.6h0l-.035.014h0l-.035.015h0l-.035.015h0l-.035.015h0l-.035.016h0l-.034.016h0l-.034.017h0l-.034.017h0l-.034.018h0l-.033.018h0l-.033.018h0l-.033.019h0l-.033.019-.033.02h0l-.032.02h0l-.032.02h0l-.032.021-.031.021h0l-.031.021h0l-.031.022h0l-.03.022h0l-.03.023-.03.023h0l-.03.023h0l-.059.047h0l-.058.049h0l-.028.025h0l-.028.025h0l-.028.026-.028.026h0l-.027.026-.027.027h0l-.027.027h0l-.026.027h0l-.026.028h0l-.026.028h0l-.025.028h0l-.025.028-.025.029-.024.029h0l-.024.029-.024.03h0l-.023.03-.045.061h0l-.022.03h0l-.022.031h0l-.021.031-.021.031-.021.032-.02.032-.02.032-.02.033h0l-.019.033L10.807,39l-.018.033-.018.034h0l-.018.034h0l-.017.034-.017.034L10.7,39.2l-.016.035-.016.035-.015.035h0l-.015.035h0l-.014.035h0l-.014.036-.013.036-.013.036-.013.036-.012.037-.012.037-.011.037h0l-.011.037-.01.037-.01.038-.009.038-.009.038-.008.038-.008.038-.008.038-.007.038-.007.039-.006.039-.006.039h0l-.005.039,0,.039,0,.039,0,.04,0,.04,0,.04,0,.04,0,.04V72.1a3.157,3.157,0,0,0,3.146,3.146H65.912A3.157,3.157,0,0,0,69.058,72.1V40.406l0-.04,0-.04,0-.04,0-.04,0-.04,0-.039,0-.039ZM11.615,38.055l-.059.047Zm-.059.047-.058.049Z" transform="translate(-9 -20.651)" fill="#14a050" stroke="#14a050" stroke-width="0.5"/>
    </g>
  </g>
</svg>
