<svg width="current" height="current" viewBox="0 0 20 16" fill="none" xmlns="http://www.w3.org/2000/svg">
<path d="M1.66683 1.39134L2.7335 0.333008L16.6668 14.2663L15.6085 15.333L13.0418 12.7663C12.0835 13.083 11.0668 13.2497 10.0002 13.2497C5.8335 13.2497 2.27516 10.658 0.833496 6.99967C1.4085 5.53301 2.32516 4.24134 3.49183 3.21634L1.66683 1.39134ZM10.0002 4.49967C10.6632 4.49967 11.2991 4.76307 11.7679 5.23191C12.2368 5.70075 12.5002 6.33663 12.5002 6.99967C12.5002 7.29134 12.4502 7.57467 12.3585 7.83301L9.16683 4.64134C9.42516 4.54967 9.7085 4.49967 10.0002 4.49967ZM10.0002 0.749674C14.1668 0.749674 17.7252 3.34134 19.1668 6.99967C18.4835 8.73301 17.3252 10.233 15.8335 11.3247L14.6502 10.133C15.7835 9.34967 16.7168 8.28301 17.3502 6.99967C15.9752 4.19967 13.1335 2.41634 10.0002 2.41634C9.09183 2.41634 8.20016 2.56634 7.36683 2.83301L6.0835 1.55801C7.2835 1.04134 8.6085 0.749674 10.0002 0.749674ZM2.65016 6.99967C4.02516 9.79967 6.86683 11.583 10.0002 11.583C10.5752 11.583 11.1418 11.5247 11.6668 11.408L9.76683 9.49967C8.57516 9.37467 7.62516 8.42467 7.50016 7.23301L4.66683 4.39134C3.84183 5.09967 3.15016 5.98301 2.65016 6.99967Z" fill="#202020"/>
</svg>
