<svg xmlns="http://www.w3.org/2000/svg" width="35.776" height="36.127" viewBox="0 0 35.776 36.127">
  <g id="noun_Assignment_2400663" transform="translate(-38.114 -35.971)">
    <g id="Group_226" data-name="Group 226" transform="translate(38.239 36.097)">
      <g id="Group_225" data-name="Group 225" transform="translate(0 0)">
        <g id="Group_209" data-name="Group 209" transform="translate(2.268 4.885)">
          <path id="Path_336" data-name="Path 336" d="M97.029,126.969H66.794a.756.756,0,0,1-.756-.756V96.734a.756.756,0,0,1,.756-.756H97.029a.756.756,0,0,1,.756.756v29.479A.756.756,0,0,1,97.029,126.969ZM67.55,125.457H96.273V97.49H67.55Z" transform="translate(-66.038 -95.978)" fill="#565656" stroke="#fff" stroke-width="0.25"/>
        </g>
        <g id="Group_210" data-name="Group 210" transform="translate(4.794 0.118)">
          <path id="Path_337" data-name="Path 337" d="M124.62,43.826H97.769a.756.756,0,1,1,0-1.512H124.62a1.614,1.614,0,0,0,1.612-1.612,1.632,1.632,0,0,0-1.612-1.647H99.469a3.614,3.614,0,0,1,.379,1.612.756.756,0,0,1-1.512,0,2.11,2.11,0,0,0-.924-1.744.756.756,0,0,1,.426-1.38H124.62a3.142,3.142,0,0,1,0,6.283Z" transform="translate(-97.013 -37.543)" fill="#565656" stroke="#fff" stroke-width="0.25"/>
        </g>
        <g id="Group_211" data-name="Group 211">
          <path id="Path_338" data-name="Path 338" d="M41.262,56.855H38.995a.756.756,0,0,1-.756-.756V40.226a4.216,4.216,0,0,1,1.326-3.116,3.884,3.884,0,0,1,3-1l1.354.1a.756.756,0,0,1,.368.129,3.621,3.621,0,0,1,1.584,2.993.756.756,0,0,1-1.512,0,2.109,2.109,0,0,0-.774-1.631l-1.141-.088h-.008a2.388,2.388,0,0,0-1.848.605,2.7,2.7,0,0,0-.836,2V55.343h1.512a.756.756,0,0,1,0,1.512Z" transform="translate(-38.239 -36.097)" fill="#565656" stroke="#fff" stroke-width="0.25"/>
        </g>
        <g id="Group_212" data-name="Group 212" transform="translate(4.794 2.486)">
          <path id="Path_339" data-name="Path 339" d="M97.768,70.49a.756.756,0,0,1-.394-1.4,2.057,2.057,0,0,0,.961-1.757.756.756,0,0,1,1.512,0,3.577,3.577,0,0,1-1.686,3.049A.753.753,0,0,1,97.768,70.49Z" transform="translate(-97.012 -66.575)" fill="#565656" stroke="#fff" stroke-width="0.25"/>
        </g>
        <g id="Group_213" data-name="Group 213" transform="translate(4.794 2.486)">
          <path id="Path_340" data-name="Path 340" d="M97.768,70.49a.756.756,0,0,1-.394-1.4,2.057,2.057,0,0,0,.961-1.757.756.756,0,0,1,1.512,0,3.577,3.577,0,0,1-1.686,3.049A.753.753,0,0,1,97.768,70.49Z" transform="translate(-97.012 -66.575)" fill="#565656" stroke="#fff" stroke-width="0.25"/>
        </g>
        <rect id="Rectangle_276" data-name="Rectangle 276" width="1.512" height="1.512" transform="translate(21.92 8.664)" fill="#565656" stroke="#fff" stroke-width="0.25"/>
        <rect id="Rectangle_277" data-name="Rectangle 277" width="1.512" height="1.512" transform="translate(18.897 8.664)" fill="#565656" stroke="#fff" stroke-width="0.25"/>
        <rect id="Rectangle_278" data-name="Rectangle 278" width="1.512" height="1.512" transform="translate(15.873 8.664)" fill="#565656" stroke="#fff" stroke-width="0.25"/>
        <rect id="Rectangle_279" data-name="Rectangle 279" width="1.512" height="1.512" transform="translate(12.85 8.664)" fill="#565656" stroke="#fff" stroke-width="0.25"/>
        <g id="Group_214" data-name="Group 214" transform="translate(5.291 12.443)">
          <path id="Path_341" data-name="Path 341" d="M120.49,190.155H103.861a.756.756,0,0,1,0-1.512H120.49a.756.756,0,1,1,0,1.512Z" transform="translate(-103.105 -188.643)" fill="#565656" stroke="#fff" stroke-width="0.25"/>
        </g>
        <g id="Group_215" data-name="Group 215" transform="translate(5.291 15.467)">
          <path id="Path_342" data-name="Path 342" d="M120.49,227.22H103.861a.756.756,0,0,1,0-1.512H120.49a.756.756,0,1,1,0,1.512Z" transform="translate(-103.105 -225.708)" fill="#565656" stroke="#fff" stroke-width="0.25"/>
        </g>
        <g id="Group_216" data-name="Group 216" transform="translate(5.291 18.49)">
          <path id="Path_343" data-name="Path 343" d="M120.49,264.286H103.861a.756.756,0,0,1,0-1.512H120.49a.756.756,0,1,1,0,1.512Z" transform="translate(-103.105 -262.774)" fill="#565656" stroke="#fff" stroke-width="0.25"/>
        </g>
        <g id="Group_217" data-name="Group 217" transform="translate(5.291 21.514)">
          <path id="Path_344" data-name="Path 344" d="M120.49,301.351H103.861a.756.756,0,0,1,0-1.512H120.49a.756.756,0,1,1,0,1.512Z" transform="translate(-103.105 -299.839)" fill="#565656" stroke="#fff" stroke-width="0.25"/>
        </g>
        <g id="Group_218" data-name="Group 218" transform="translate(5.291 24.537)">
          <path id="Path_345" data-name="Path 345" d="M120.49,338.416H103.861a.756.756,0,0,1,0-1.512H120.49a.756.756,0,1,1,0,1.512Z" transform="translate(-103.105 -336.904)" fill="#565656" stroke="#fff" stroke-width="0.25"/>
        </g>
        <g id="Group_219" data-name="Group 219" transform="translate(5.291 27.56)">
          <path id="Path_346" data-name="Path 346" d="M120.49,375.482H103.861a.756.756,0,0,1,0-1.512H120.49a.756.756,0,1,1,0,1.512Z" transform="translate(-103.105 -373.97)" fill="#565656" stroke="#fff" stroke-width="0.25"/>
        </g>
        <g id="Group_220" data-name="Group 220" transform="translate(16.993 30.584)">
          <path id="Path_347" data-name="Path 347" d="M252.245,412.548h-4.927a.756.756,0,1,1,0-1.512h4.927a.756.756,0,1,1,0,1.512Z" transform="translate(-246.562 -411.036)" fill="#565656" stroke="#fff" stroke-width="0.25"/>
        </g>
        <g id="Group_221" data-name="Group 221" transform="translate(24.944 16.223)">
          <path id="Path_348" data-name="Path 348" d="M347.81,248.581h-3.024a.756.756,0,0,1-.756-.756V235.731a.756.756,0,0,1,.756-.756h3.024a.756.756,0,0,1,.756.756v12.094A.756.756,0,0,1,347.81,248.581Zm-2.268-1.512h1.512V236.487h-1.512Z" transform="translate(-344.031 -234.975)" fill="#565656" stroke="#fff" stroke-width="0.25"/>
        </g>
        <g id="Group_222" data-name="Group 222" transform="translate(24.944 28.316)">
          <path id="Path_349" data-name="Path 349" d="M347.81,387.015h-3.024a.756.756,0,0,1-.756-.756v-2.268a.756.756,0,0,1,.756-.756h3.024a.756.756,0,0,1,.756.756v2.268A.756.756,0,0,1,347.81,387.015Zm-2.268-1.512h1.512v-.756h-1.512Z" transform="translate(-344.031 -383.236)" fill="#565656" stroke="#fff" stroke-width="0.25"/>
        </g>
        <g id="Group_223" data-name="Group 223" transform="translate(24.944 11.687)">
          <path id="Path_350" data-name="Path 350" d="M347.81,185.424h-3.023a.756.756,0,0,1-.717-.995l1.512-4.535a.756.756,0,0,1,1.434,0l1.512,4.535a.756.756,0,0,1-.717.995Zm-1.975-1.512h.926l-.463-1.389Z" transform="translate(-344.03 -179.377)" fill="#565656" stroke="#fff" stroke-width="0.25"/>
        </g>
        <g id="Group_224" data-name="Group 224" transform="translate(27.967 23.025)">
          <path id="Path_351" data-name="Path 351" d="M384.119,325.175h-2.268a.756.756,0,0,1,0-1.512h1.512v-4.535a.756.756,0,0,1,1.512,0v5.291A.756.756,0,0,1,384.119,325.175Z" transform="translate(-381.096 -318.372)" fill="#565656" stroke="#fff" stroke-width="0.25"/>
        </g>
      </g>
    </g>
  </g>
</svg>
