<svg xmlns="http://www.w3.org/2000/svg" width="17" height="17" viewBox="0 0 17 17">
  <g id="Icon_feather-instagram" data-name="Icon feather-instagram" transform="translate(-2 -2)">
    <path id="Path_301" data-name="Path 301" d="M6.75,3h7.5A3.75,3.75,0,0,1,18,6.75v7.5A3.75,3.75,0,0,1,14.25,18H6.75A3.75,3.75,0,0,1,3,14.25V6.75A3.75,3.75,0,0,1,6.75,3Z" transform="translate(0 0)" fill="none" stroke="#fff" stroke-linecap="round" stroke-linejoin="round" stroke-width="2"/>
    <path id="Path_302" data-name="Path 302" d="M18.91,14.871a3.441,3.441,0,1,1-2.9-2.9,3.441,3.441,0,0,1,2.9,2.9Z" transform="translate(-4.977 -4.905)" fill="none" stroke="#fff" stroke-linecap="round" stroke-linejoin="round" stroke-width="2"/>
    <path id="Path_303" data-name="Path 303" d="M26.25,9.75h0" transform="translate(-11.625 -3.375)" fill="none" stroke="#fff" stroke-linecap="round" stroke-linejoin="round" stroke-width="2"/>
  </g>
</svg>
