<svg xmlns="http://www.w3.org/2000/svg" width="70" height="70" viewBox="0 0 70 70">
  <g id="Group_588" data-name="Group 588" transform="translate(-130 -3902)">
    <g id="Ellipse_189" data-name="Ellipse 189" transform="translate(130 3902)" fill="#fff" stroke="#141414" stroke-width="2">
      <circle cx="35" cy="35" r="35" stroke="none"/>
      <circle cx="35" cy="35" r="34" fill="none"/>
    </g>
    <g id="noun_Language_3323705" transform="translate(143.992 3914.988)">
      <g id="Group_558" data-name="Group 558" transform="translate(1.56 4.25)">
        <path id="Path_2172" data-name="Path 2172" d="M36.479,15.875H26.023V8.648a4.4,4.4,0,0,0-4.4-4.4H5.958a4.4,4.4,0,0,0-4.4,4.4v9.8A4.348,4.348,0,0,0,2.3,20.886c1.55,2.984,8.7,7.395,8.777,7.44a1.007,1.007,0,0,0,.5.142.964.964,0,0,0,.9-1.33,26.984,26.984,0,0,1-1.2-4.3h5.134V30.07a4.4,4.4,0,0,0,4.4,4.392H31.158a26.984,26.984,0,0,1-1.2,4.3.964.964,0,0,0,.9,1.33,1.007,1.007,0,0,0,.5-.142c.078-.045,7.227-4.456,8.777-7.44a4.348,4.348,0,0,0,.743-2.441v-9.8A4.4,4.4,0,0,0,36.479,15.875ZM13.927,18.3a7.736,7.736,0,0,1-4.1,1.033H9.807a.969.969,0,1,1,0-1.937h.019a6.348,6.348,0,0,0,2.5-.452,8.685,8.685,0,0,1-1.511-2.59.969.969,0,0,1,1.808-.7,6.425,6.425,0,0,0,1.3,2.163,6.385,6.385,0,0,0,1.421-3.365H9.807a.969.969,0,1,1,0-1.937h3.042v-1.7a.969.969,0,0,1,1.937,0v1.7h3.035a.969.969,0,1,1,0,1.937H17.3a8.436,8.436,0,0,1-1.789,4.495,5.544,5.544,0,0,0,1.989.439,4.255,4.255,0,0,0-.956,1.847,6.852,6.852,0,0,1-2.616-.936ZM38.94,30.07a2.357,2.357,0,0,1-.439,1.395.922.922,0,0,0-.1.174c-.762,1.447-3.623,3.649-5.793,5.16.433-1.666.652-3.068.665-3.158a.964.964,0,0,0-.22-.775.993.993,0,0,0-.736-.342H20.812a2.459,2.459,0,0,1-2.461-2.454v-9.8a2.464,2.464,0,0,1,2.461-2.461H36.479a2.464,2.464,0,0,1,2.461,2.461Zm-6.794-3.611v0L29.57,20.016l-.005-.01a.873.873,0,0,0-.054-.1c-.012-.022-.022-.045-.036-.065a.913.913,0,0,0-.065-.078.785.785,0,0,0-.056-.065.851.851,0,0,0-.069-.057.864.864,0,0,0-.076-.065c-.022-.015-.047-.026-.07-.039a.941.941,0,0,0-.1-.051l-.011-.006c-.024-.01-.048-.014-.072-.021a.874.874,0,0,0-.1-.028.942.942,0,0,0-.1-.012.889.889,0,0,0-.092-.007c-.034,0-.065,0-.1.008a.784.784,0,0,0-.088.01.927.927,0,0,0-.1.03c-.023.008-.046.011-.068.02l-.011.006a.877.877,0,0,0-.1.051c-.024.013-.049.024-.071.039s-.049.039-.074.059a.922.922,0,0,0-.072.059.776.776,0,0,0-.053.065.883.883,0,0,0-.065.081c-.014.02-.023.043-.036.065a1.075,1.075,0,0,0-.055.1l-.005.01L25.2,26.458v0l-1.3,3.245a.969.969,0,1,0,1.8.719l1.048-2.62H30.6l1.048,2.62a.969.969,0,1,0,1.8-.719Zm-4.629-.594,1.153-2.881,1.152,2.881Z" transform="translate(-1.56 -4.25)" fill="#141414"/>
      </g>
    </g>
  </g>
</svg>
