<svg xmlns="http://www.w3.org/2000/svg" width="14" height="14" viewBox="0 0 14 14">
  <g id="Icon_ionic-ios-checkbox-outline" data-name="Icon ionic-ios-checkbox-outline" transform="translate(-4.5 -4.5)">
    <g id="Group_344" data-name="Group 344">
      <g id="Group_343" data-name="Group 343">
        <g id="Group_345" data-name="Group 345">
          <path id="Path_372" data-name="Path 372" d="M17.333,4.5H5.667A1.165,1.165,0,0,0,4.5,5.667V17.333A1.165,1.165,0,0,0,5.667,18.5H17.333A1.165,1.165,0,0,0,18.5,17.333V5.667A1.165,1.165,0,0,0,17.333,4.5Zm.146,12.688a.293.293,0,0,1-.292.292H5.813a.293.293,0,0,1-.292-.292V5.813a.293.293,0,0,1,.292-.292H17.188a.293.293,0,0,1,.292.292Z" fill="#999"/>
        </g>
      </g>
      <path id="Path_373" data-name="Path 373" d="M18.314,12.91l-.642-.66a.138.138,0,0,0-.1-.044h0a.132.132,0,0,0-.1.044L13.02,16.731,11.4,15.112a.141.141,0,0,0-.2,0l-.649.649a.145.145,0,0,0,0,.208L12.59,18.01a.646.646,0,0,0,.427.208.677.677,0,0,0,.423-.2h0l4.874-4.9A.156.156,0,0,0,18.314,12.91Z" transform="translate(-2.891 -3.71)" fill="#999"/>
    </g>
  </g>
</svg>
