<svg xmlns="http://www.w3.org/2000/svg" width="16.528" height="13.75" viewBox="0 0 16.528 13.75">
  <g id="Icon_feather-camera" data-name="Icon feather-camera" transform="translate(-0.875 -3.875)">
    <path id="Path_221" data-name="Path 221" d="M16.778,15.611A1.389,1.389,0,0,1,15.389,17H2.889A1.389,1.389,0,0,1,1.5,15.611V7.972A1.389,1.389,0,0,1,2.889,6.583H5.667L7.056,4.5h4.167l1.389,2.083h2.778a1.389,1.389,0,0,1,1.389,1.389Z" fill="none" stroke="#565656" stroke-linecap="round" stroke-linejoin="round" stroke-width="1.25"/>
    <path id="Path_222" data-name="Path 222" d="M17.556,16.278A2.778,2.778,0,1,1,14.778,13.5,2.778,2.778,0,0,1,17.556,16.278Z" transform="translate(-5.639 -4.833)" fill="none" stroke="#565656" stroke-linecap="round" stroke-linejoin="round" stroke-width="1.25"/>
  </g>
</svg>
