<svg xmlns="http://www.w3.org/2000/svg" width="89.867" height="73.001" viewBox="0 0 89.867 73.001">
  <path id="Path_727" data-name="Path 727" d="M60.653,12.994c-6.533,0-12.082,4.466-12.716,11.185-.061.649-.137,2.647-.137,3.242a14.072,14.072,0,0,0,2.281,7.728,26.676,26.676,0,0,0,2.7,3.459,3.487,3.487,0,0,1-.113.745,6.56,6.56,0,0,1-1.99,3.134,11.963,11.963,0,0,1-3.581,1.862c-1.154.429-2.476.843-3.825,1.257a3.927,3.927,0,0,0,1.859,1.961c.97-.306,1.921-.622,2.81-.953a12.646,12.646,0,0,0,4.417-2.389,9.411,9.411,0,0,0,2.467-3.7,9.368,9.368,0,0,0,5.756,2.285,9.455,9.455,0,0,0,5.793-2.291,9.4,9.4,0,0,0,2.467,3.7c1.955,1.887,5.534,2.832,9.133,3.929s7.229,2.318,8.368,3.291c1.668,1.425,2.826,2.956,2.823,4.364l-.027,10.257L79.3,66.057a17.741,17.741,0,0,1,.277,2.418l10.567.011a1.21,1.21,0,0,0,.964-.261l.016-.011.005-.005a1.234,1.234,0,0,0,.421-1.126l.029-11.267c.007-2.6-1.8-4.613-3.672-6.21-2.038-1.741-5.643-2.671-9.231-3.765s-7.146-2.379-8.158-3.357a6.557,6.557,0,0,1-1.99-3.132,3.514,3.514,0,0,1-.113-.745A26.612,26.612,0,0,0,71,35.341,14.25,14.25,0,0,0,73.3,27.768a1.21,1.21,0,0,0,.051-.348c0-.154.015-.867.024-1.554s.035-1.215-.009-1.687c-.633-6.718-6.183-11.185-12.716-11.185Zm0,2.418c5.468,0,9.783,3.459,10.3,8.993-.007-.076.009.753,0,1.429s-.022,1.327-.022,1.587A11.925,11.925,0,0,1,68.988,34,24.128,24.128,0,0,1,66.511,37.1a1.21,1.21,0,0,0-.272.3c-.343.346-.7.676-1.062.98a7.446,7.446,0,0,1-4.6,2.012,7.456,7.456,0,0,1-4.647-2.074c-.341-.29-.669-.609-.991-.937a1.209,1.209,0,0,0-.272-.286A24.347,24.347,0,0,1,52.1,33.822a11.642,11.642,0,0,1-1.882-6.4c0-.233.11-2.873.124-3.016.521-5.534,4.84-8.993,10.308-8.993ZM32.721,18.428c-6.533,0-12.082,4.466-12.716,11.185-.061.649-.135,2.651-.135,3.245a14.058,14.058,0,0,0,2.28,7.724,26.733,26.733,0,0,0,2.7,3.464,3.452,3.452,0,0,1-.111.742,6.567,6.567,0,0,1-1.992,3.134c-1.012.977-4.568,2.259-8.156,3.353s-7.2,2.025-9.235,3.767c-1.92,1.64-3.572,3.633-3.584,6.115L1.713,72.708a1.21,1.21,0,0,0,1.21,1.215H44.744a17.74,17.74,0,0,1-.459-2.42H4.136L4.187,61.17c.007-1.359,1.049-2.847,2.737-4.29,1.139-.973,4.771-2.194,8.369-3.291s7.176-2.039,9.131-3.927a9.409,9.409,0,0,0,2.465-3.7,9.373,9.373,0,0,0,5.758,2.283,9.452,9.452,0,0,0,5.793-2.291,9.387,9.387,0,0,0,2.465,3.708c1.955,1.887,5.534,2.83,9.133,3.927.792.241,1.577.49,2.345.74a17.74,17.74,0,0,1,3.1-1.565c-1.491-.522-3.111-.991-4.743-1.489-3.588-1.093-7.146-2.376-8.158-3.353a6.56,6.56,0,0,1-1.99-3.134,3.445,3.445,0,0,1-.111-.745,26.585,26.585,0,0,0,2.582-3.264A14.25,14.25,0,0,0,45.375,33.2a1.209,1.209,0,0,0,.051-.343c0-.154.013-.869.022-1.556s.034-1.217-.011-1.689c-.633-6.718-6.183-11.185-12.716-11.185Zm0,2.42c5.468,0,9.787,3.459,10.308,8.993-.007-.076.009.755,0,1.43-.008.64-.021,1.217-.022,1.5,0,.016,0,.072,0,.086a11.919,11.919,0,0,1-1.948,6.573,24.161,24.161,0,0,1-2.471,3.1,1.21,1.21,0,0,0-.279.3c-.343.346-.7.675-1.059.979a7.45,7.45,0,0,1-4.6,2.012A7.452,7.452,0,0,1,28,43.753c-.342-.292-.673-.611-1-.94a1.21,1.21,0,0,0-.268-.284,24.356,24.356,0,0,1-2.564-3.273,11.631,11.631,0,0,1-1.884-6.4c0-.233.11-2.874.124-3.018.521-5.534,4.839-8.993,10.307-8.993ZM61.773,52.631A16.682,16.682,0,1,0,78.549,69.312q0-.021,0-.042s0-.006,0-.009q0-.036,0-.073A16.7,16.7,0,0,0,61.774,52.63Zm.013,2.332a14.333,14.333,0,0,1,14.43,14.243q0,.013,0,.026s0,.006,0,.009q0,.036,0,.073a14.35,14.35,0,1,1-14.43-14.35Zm.064,3.55A1.166,1.166,0,0,0,60.7,59.7v8.451H52.25a1.166,1.166,0,1,0,0,2.333H60.7v8.45a1.166,1.166,0,1,0,2.333,0v-8.45h8.451a1.166,1.166,0,1,0,0-2.333H63.032V59.7a1.166,1.166,0,0,0-1.183-1.183Z" transform="translate(-1.713 -12.994)" fill="#fff" fill-rule="evenodd"/>
</svg>
