<svg xmlns="http://www.w3.org/2000/svg" width="25.27" height="25.348" viewBox="0 0 25.27 25.348">
  <path id="Icon_open-link-broken" data-name="Icon open-link-broken" d="M6.1,0V3.038H3.059V6.075H9.135V0ZM17.883.091a5.77,5.77,0,0,0-1.61.273,6.257,6.257,0,0,0-2.278,1.428L12.658,3.129a1.519,1.519,0,1,0,2.1,2.1l1.337-1.337a2.954,2.954,0,0,1,1.154-.668,3.091,3.091,0,0,1,3.22.668,3.136,3.136,0,0,1,0,4.374l-4.556,4.556a1.519,1.519,0,1,0,2.1,2.1l4.556-4.556a6.013,6.013,0,0,0,0-8.536A5.9,5.9,0,0,0,19.614.213a6.406,6.406,0,0,0-1.7-.091ZM6.978,8.93a1.519,1.519,0,0,0-.577.486L1.844,13.973A6.034,6.034,0,0,0,8.1,23.936a6.257,6.257,0,0,0,2.278-1.428l1.337-1.337a1.519,1.519,0,1,0-2.1-2.1L8.284,20.412a2.953,2.953,0,0,1-1.154.668,3.091,3.091,0,0,1-3.22-.668,3.136,3.136,0,0,1,0-4.374l4.556-4.556A1.519,1.519,0,0,0,7.13,8.93a1.519,1.519,0,0,0-.182,0Zm8.262,9.295V24.3h3.038V21.263h3.038V18.225Z" transform="translate(0.432 0.5)" fill="#dc2828" stroke="#fff" stroke-width="1"/>
</svg>
