<svg xmlns="http://www.w3.org/2000/svg" width="58" height="57.987" viewBox="0 0 58 57.987">
  <path id="Icon_awesome-instagram" data-name="Icon awesome-instagram" d="M29,16.364A14.867,14.867,0,1,0,43.868,31.231,14.844,14.844,0,0,0,29,16.364ZM29,40.9a9.666,9.666,0,1,1,9.666-9.666A9.683,9.683,0,0,1,29,40.9ZM47.944,15.756a3.468,3.468,0,1,1-3.468-3.468A3.46,3.46,0,0,1,47.944,15.756Zm9.847,3.519c-.22-4.645-1.281-8.76-4.684-12.15s-7.5-4.451-12.15-4.684c-4.788-.272-19.137-.272-23.925,0-4.632.22-8.747,1.281-12.15,4.671S.431,14.617.2,19.263C-.073,24.05-.073,38.4.2,43.187c.22,4.645,1.281,8.76,4.684,12.15s7.5,4.451,12.15,4.684c4.788.272,19.137.272,23.925,0,4.645-.22,8.76-1.281,12.15-4.684s4.451-7.5,4.684-12.15c.272-4.788.272-19.124,0-23.912ZM51.606,48.324a9.786,9.786,0,0,1-5.512,5.512C42.277,55.35,33.219,55,29,55s-13.289.336-17.093-1.165A9.786,9.786,0,0,1,6.4,48.324C4.883,44.507,5.232,35.449,5.232,31.231S4.9,17.943,6.4,14.139a9.786,9.786,0,0,1,5.512-5.512C15.726,7.113,24.783,7.462,29,7.462S42.29,7.125,46.094,8.626a9.786,9.786,0,0,1,5.512,5.512c1.514,3.817,1.165,12.875,1.165,17.093S53.12,44.52,51.606,48.324Z" transform="translate(0.005 -2.238)" fill="#5028a0"/>
</svg>
