<svg xmlns="http://www.w3.org/2000/svg" width="43.986" height="36.05" viewBox="0 0 43.986 36.05">
  <g id="noun_student_1116504" transform="translate(103 54.575)">
    <path id="Path_5" data-name="Path 5" d="M63.546,35.743,42.286,25.48a1.017,1.017,0,0,0-.66,0L20.367,35.743A.687.687,0,0,0,20,36.4a.7.7,0,0,0,.44.66l7.917,3.812a14.357,14.357,0,0,0-1.173,5.791,14.808,14.808,0,1,0,29.617,0,14.111,14.111,0,0,0-1.173-5.791l4.325-2.126v8.944a.551.551,0,0,0-.367.513l-1.173,7.038a.79.79,0,0,0,.147.586.905.905,0,0,0,.586.293H62.3a.667.667,0,0,0,.586-.293.57.57,0,0,0,.147-.586l-1.246-6.964a.935.935,0,0,0-.367-.513V38.089l2.126-1.026a.842.842,0,0,0,.44-.66A.641.641,0,0,0,63.546,35.743ZM41.993,60.082A13.342,13.342,0,0,1,29.677,41.608L41.7,47.4a.623.623,0,0,0,.586,0l12.023-5.791a13.637,13.637,0,0,1,1.026,5.132A13.344,13.344,0,0,1,41.993,60.082Zm18.034-5.425.66-4.179.66,4.179Zm.44-17.741c-.073,0-.073.073-.147.073L41.993,45.86,22.419,36.4l19.574-9.53L61.566,36.33Z" transform="translate(-123 -80)" fill="#565656"/>
  </g>
</svg>
