<svg xmlns="http://www.w3.org/2000/svg" width="48.929" height="48.5" viewBox="0 0 48.929 48.5">
  <g id="icon-institute" transform="translate(-127.9 -342.75)">
    <g id="noun_School_3628460" transform="translate(128.15 343)">
      <g id="Group_18" data-name="Group 18">
        <path id="Path_17" data-name="Path 17" d="M342.4,242.512H322.844a.55.55,0,0,1-.544-.552v-32.13a.567.567,0,0,1,.2-.43l9.777-7.955a.542.542,0,0,1,.68,0l9.782,7.955a.55.55,0,0,1,.2.43v32.13A.55.55,0,0,1,342.4,242.512Zm-19.009-1.1h18.465V210.1l-9.233-7.508-9.233,7.508Z" transform="translate(-308.406 -194.512)" fill="#146efa" stroke="#146efa" stroke-width="0.5"/>
        <path id="Path_18" data-name="Path 18" d="M411.375,775.991H400.244a.546.546,0,0,1-.544-.544v-8.8a.546.546,0,0,1,.544-.544H411.37a.546.546,0,0,1,.544.544v8.808A.536.536,0,0,1,411.375,775.991ZM400.788,774.9h10.038v-7.715H400.788Z" transform="translate(-381.595 -727.991)" fill="#146efa" stroke="#146efa" stroke-width="0.5"/>
        <path id="Path_19" data-name="Path 19" d="M403.742,603.105h-3.5a.546.546,0,0,1-.544-.544v-4.717a.546.546,0,0,1,.544-.544h3.5a.546.546,0,0,1,.544.544v4.717A.542.542,0,0,1,403.742,603.105Zm-2.954-1.088h2.41v-3.629h-2.41Z" transform="translate(-381.646 -568.556)" fill="#146efa" stroke="#146efa" stroke-width="0.5"/>
        <path id="Path_20" data-name="Path 20" d="M544.042,603.105h-3.5a.546.546,0,0,1-.544-.544v-4.717a.546.546,0,0,1,.544-.544h3.5a.546.546,0,0,1,.544.544v4.717A.546.546,0,0,1,544.042,603.105Zm-2.954-1.088h2.41v-3.629h-2.41Z" transform="translate(-514.211 -568.556)" fill="#146efa" stroke="#146efa" stroke-width="0.5"/>
        <path id="Path_21" data-name="Path 21" d="M95.427,409.119H82.343a.544.544,0,0,1-.49-.783l3.139-6.431a.551.551,0,0,1,.49-.3h9.945a.546.546,0,0,1,.544.544v6.431A.546.546,0,0,1,95.427,409.119Zm-12.214-1.088h11.67v-5.343H85.819Z" transform="translate(-81.276 -383.638)" fill="#146efa" stroke="#146efa" stroke-width="0.5"/>
        <path id="Path_22" data-name="Path 22" d="M695.329,409.119H682.244a.546.546,0,0,1-.544-.544v-6.431a.546.546,0,0,1,.544-.544h9.945a.551.551,0,0,1,.49.3l3.139,6.431a.551.551,0,0,1-.027.528A.557.557,0,0,1,695.329,409.119Zm-12.54-1.088h11.67l-2.606-5.343h-9.064Z" transform="translate(-647.966 -383.638)" fill="#146efa" stroke="#146efa" stroke-width="0.5"/>
        <path id="Path_23" data-name="Path 23" d="M131.834,543.091h-10.99a.546.546,0,0,1-.544-.544v-22.2a.546.546,0,0,1,.544-.544h10.99a.546.546,0,0,1,.544.544v22.2A.546.546,0,0,1,131.834,543.091ZM121.388,542h9.9V520.888h-9.9Z" transform="translate(-117.683 -495.091)" fill="#146efa" stroke="#146efa" stroke-width="0.5"/>
        <path id="Path_24" data-name="Path 24" d="M693.234,543.091h-10.99a.546.546,0,0,1-.544-.544v-22.2a.546.546,0,0,1,.544-.544h10.99a.546.546,0,0,1,.544.544v22.2A.542.542,0,0,1,693.234,543.091ZM682.788,542h9.9V520.888h-9.9Z" transform="translate(-647.966 -495.091)" fill="#146efa" stroke="#146efa" stroke-width="0.5"/>
        <path id="Path_25" data-name="Path 25" d="M758.912,771.905h-3.068a.546.546,0,0,1-.544-.544v-4.717a.546.546,0,0,1,.544-.544h3.068a.546.546,0,0,1,.544.544v4.717A.546.546,0,0,1,758.912,771.905Zm-2.524-1.088h1.98v-3.629h-1.98Z" transform="translate(-717.561 -727.991)" fill="#146efa" stroke="#146efa" stroke-width="0.5"/>
        <path id="Path_26" data-name="Path 26" d="M758.912,603.105h-3.068a.546.546,0,0,1-.544-.544v-4.717a.546.546,0,0,1,.544-.544h3.068a.546.546,0,0,1,.544.544v4.717A.546.546,0,0,1,758.912,603.105Zm-2.524-1.088h1.98v-3.629h-1.98Z" transform="translate(-717.561 -568.556)" fill="#146efa" stroke="#146efa" stroke-width="0.5"/>
        <path id="Path_27" data-name="Path 27" d="M196.113,771.905h-3.068a.546.546,0,0,1-.544-.544v-4.717a.546.546,0,0,1,.544-.544h3.068a.546.546,0,0,1,.544.544v4.717A.546.546,0,0,1,196.113,771.905Zm-2.519-1.088h1.98v-3.629h-1.98Z" transform="translate(-185.955 -727.991)" fill="#146efa" stroke="#146efa" stroke-width="0.5"/>
        <path id="Path_28" data-name="Path 28" d="M196.113,604.2h-3.068a.546.546,0,0,1-.544-.544v-4.717a.546.546,0,0,1,.544-.544h3.068a.546.546,0,0,1,.544.544v4.717A.546.546,0,0,1,196.113,604.2Zm-2.519-1.088h1.98v-3.629h-1.98Z" transform="translate(-185.955 -569.595)" fill="#146efa" stroke="#146efa" stroke-width="0.5"/>
        <path id="Path_29" data-name="Path 29" d="M120.079,928.988H72.751a.544.544,0,1,1,0-1.088h47.328a.544.544,0,1,1,0,1.088Z" transform="translate(-72.2 -880.988)" fill="#146efa" stroke="#146efa" stroke-width="0.5"/>
        <path id="Path_30" data-name="Path 30" d="M502.544,775.991a.546.546,0,0,1-.544-.544v-8.8a.544.544,0,1,1,1.088,0v8.808A.544.544,0,0,1,502.544,775.991Z" transform="translate(-478.329 -727.991)" fill="#146efa" stroke="#146efa" stroke-width="0.5"/>
        <path id="Path_31" data-name="Path 31" d="M426.518,356.536a4.918,4.918,0,1,1,4.918-4.918A4.924,4.924,0,0,1,426.518,356.536Zm0-8.743a3.83,3.83,0,1,0,3.83,3.83A3.836,3.836,0,0,0,426.518,347.794Z" transform="translate(-402.304 -331.755)" fill="#146efa" stroke="#146efa" stroke-width="0.5"/>
        <path id="Path_32" data-name="Path 32" d="M504.372,393.587a.537.537,0,0,1-.392-.169l-1.828-1.9a.54.54,0,0,1-.152-.375v-2.1a.544.544,0,1,1,1.088,0v1.882l1.676,1.736a.542.542,0,0,1-.016.767A.51.51,0,0,1,504.372,393.587Z" transform="translate(-478.318 -371.275)" fill="#146efa" stroke="#146efa" stroke-width="0.5"/>
        <path id="Path_33" data-name="Path 33" d="M507.5,81h-4.956a.546.546,0,0,1-.544-.544V76.644a.546.546,0,0,1,.544-.544H507.5a.541.541,0,0,1,.49.773l-.778,1.676.778,1.676a.556.556,0,0,1-.033.522A.542.542,0,0,1,507.5,81Zm-4.412-1.088h3.564l-.528-1.132a.557.557,0,0,1,0-.457l.528-1.132h-3.564Z" transform="translate(-478.295 -76.1)" fill="#146efa" stroke="#146efa" stroke-width="0.5"/>
        <path id="Path_34" data-name="Path 34" d="M502.544,84a.546.546,0,0,1-.544-.544V76.644a.544.544,0,1,1,1.088,0v6.817A.541.541,0,0,1,502.544,84Z" transform="translate(-478.329 -76.1)" fill="#146efa" stroke="#146efa" stroke-width="0.5"/>
      </g>
    </g>
  </g>
</svg>
