<svg xmlns="http://www.w3.org/2000/svg" width="79.026" height="72.876" viewBox="0 0 79.026 72.876">
  <g id="noun_online_exam_3626921" data-name="noun_online exam_3626921" transform="translate(-83.182 -116.025)">
    <g id="Group_227" data-name="Group 227" transform="translate(83.59 116.4)">
      <path id="Path_352" data-name="Path 352" d="M734.087,566.43H723.212a.912.912,0,1,1,0-1.823h9.964v-18.1a.912.912,0,0,1,1.823,0v19.007A.9.9,0,0,1,734.087,566.43Z" transform="translate(-664.075 -506.474)" fill="#fff" stroke="#fff" stroke-width="0.75"/>
      <path id="Path_353" data-name="Path 353" d="M734.087,317.957a.914.914,0,0,1-.912-.911V306.562a1.039,1.039,0,0,0-1.039-1.039h-8.925a.912.912,0,0,1,0-1.823h8.925A2.867,2.867,0,0,1,735,306.562v10.493A.9.9,0,0,1,734.087,317.957Z" transform="translate(-664.075 -286.626)" fill="#fff" stroke="#fff" stroke-width="0.75"/>
      <path id="Path_354" data-name="Path 354" d="M208.035,346.582H163.312a.914.914,0,0,1-.912-.912V306.562a2.867,2.867,0,0,1,2.862-2.862h22.143a.912.912,0,0,1,0,1.823H165.262a1.039,1.039,0,0,0-1.039,1.039v38.205h43.812a.907.907,0,1,1,0,1.814Z" transform="translate(-155.216 -286.626)" fill="#fff" stroke="#fff" stroke-width="0.75"/>
      <path id="Path_355" data-name="Path 355" d="M159.172,768.121H86.116a2.524,2.524,0,0,1-2.051-3.993l6.873-9.618a.915.915,0,0,1,1.486,1.067l-6.873,9.617a.69.69,0,0,0-.055.729.672.672,0,0,0,.62.383h73.047a.671.671,0,0,0,.62-.383.689.689,0,0,0-.055-.729l-6.864-9.617a.915.915,0,0,1,1.486-1.067l6.873,9.618a2.523,2.523,0,0,1-2.051,3.993Z" transform="translate(-83.59 -695.995)" fill="#fff" stroke="#fff" stroke-width="0.75"/>
      <path id="Path_356" data-name="Path 356" d="M391.163,842.8H366.24a.9.9,0,0,1-.82-.519.909.909,0,0,1,.118-.966l3.865-4.686a.9.9,0,0,1,.7-.328H387.3a.905.905,0,0,1,.7.328l3.865,4.686a.892.892,0,0,1,.119.966A.915.915,0,0,1,391.163,842.8Zm-22.991-1.823h21.049l-2.361-2.862H370.533Z" transform="translate(-339.647 -770.674)" fill="#fff" stroke="#fff" stroke-width="0.75"/>
      <path id="Path_357" data-name="Path 357" d="M441.739,188.478a14.239,14.239,0,0,1-10.082-24.294A14.127,14.127,0,0,1,441.694,160h.045a14.077,14.077,0,0,1,3.09.337,14.238,14.238,0,0,1-3.09,28.141Zm-.045-26.664a12.44,12.44,0,0,0-12.38,12.416,12.2,12.2,0,0,0,.337,2.881,12.057,12.057,0,0,0,1.623,3.81,12.61,12.61,0,0,0,2.379,2.735,12.429,12.429,0,0,0,20.174-6.545,12.7,12.7,0,0,0,.337-2.881,12.488,12.488,0,0,0-9.727-12.124,12.678,12.678,0,0,0-2.7-.292Z" transform="translate(-396.149 -156.025)" fill="#fff" stroke="#fff" stroke-width="0.75"/>
      <path id="Path_358" data-name="Path 358" d="M579.689,264.387a.933.933,0,0,1-.647-.264l-5.178-5.178a.9.9,0,0,1-.264-.647v-4.886a.912.912,0,1,1,1.823,0v4.512l4.9,4.9a.908.908,0,0,1,0,1.285A.837.837,0,0,1,579.689,264.387Z" transform="translate(-528.931 -240.093)" fill="#fff" stroke="#fff" stroke-width="0.75"/>
      <path id="Path_359" data-name="Path 359" d="M574.612,122.189a.914.914,0,0,1-.912-.912v-3.965a.912.912,0,1,1,1.823,0v3.965A.908.908,0,0,1,574.612,122.189Z" transform="translate(-529.021 -116.4)" fill="#fff" stroke="#fff" stroke-width="0.75"/>
      <path id="Path_360" data-name="Path 360" d="M393.923,530.723H369.812a.912.912,0,1,1,0-1.823h24.112a.912.912,0,0,1,0,1.823Z" transform="translate(-342.891 -491.296)" fill="#fff" stroke="#fff" stroke-width="0.75"/>
      <path id="Path_361" data-name="Path 361" d="M254.864,633.575h-5.752a.914.914,0,0,1-.912-.912v-5.752a.914.914,0,0,1,.912-.912h5.752a.914.914,0,0,1,.912.912v5.752A.909.909,0,0,1,254.864,633.575Zm-4.85-1.823h3.929v-3.929h-3.929Z" transform="translate(-233.194 -579.545)" fill="#fff" stroke="#fff" stroke-width="0.75"/>
      <path id="Path_362" data-name="Path 362" d="M391.189,659.423H369.812a.912.912,0,1,1,0-1.823h21.377a.912.912,0,0,1,0,1.823Z" transform="translate(-342.891 -608.264)" fill="#fff" stroke="#fff" stroke-width="0.75"/>
      <path id="Path_363" data-name="Path 363" d="M835.2,424.2a.934.934,0,0,1-.647-.264l-3.71-3.71-.027-.027-1.076-1.076a.908.908,0,0,1,0-1.285l3.117-3.118a2.091,2.091,0,0,1,2.972,0l3.127,3.127a2.1,2.1,0,0,1,0,2.972h0l-3.109,3.118A.882.882,0,0,1,835.2,424.2Zm-3.035-5.242L835.211,422l2.47-2.47a.275.275,0,0,0,0-.392l-3.127-3.127a.289.289,0,0,0-.2-.082.3.3,0,0,0-.2.082l-2.471,2.47.456.456C832.148,418.94,832.158,418.95,832.167,418.959Zm6.153,1.212Z" transform="translate(-761.48 -386.962)" fill="#fff" stroke="#fff" stroke-width="0.75"/>
      <path id="Path_364" data-name="Path 364" d="M677.716,473.294h-4.8a.914.914,0,0,1-.912-.912v-4.8a.941.941,0,0,1,.264-.647l14.367-14.367a.9.9,0,0,1,.648-.264.942.942,0,0,1,.647.264l1.094,1.094.027.027,3.683,3.683a.9.9,0,0,1,.264.647.943.943,0,0,1-.264.647l-11.988,11.978-2.388,2.388A.92.92,0,0,1,677.716,473.294Zm-3.9-1.823h3.519l2.124-2.115,11.34-11.34-3.063-3.063-.027-.027-.428-.428-13.464,13.455Z" transform="translate(-618.36 -421.679)" fill="#fff" stroke="#fff" stroke-width="0.75"/>
      <path id="Path_365" data-name="Path 365" d="M550.435,118.623h-5.223a.912.912,0,1,1,0-1.823h5.223a.912.912,0,1,1,0,1.823Z" transform="translate(-502.302 -116.764)" fill="#fff" stroke="#fff" stroke-width="0.75"/>
      <path id="Path_366" data-name="Path 366" d="M482.416,238.694a.853.853,0,0,1-.392-.091,9.788,9.788,0,0,1-3.984-3.537,9.658,9.658,0,0,1-1.276-3.008,10.021,10.021,0,0,1-.265-2.27,9.781,9.781,0,0,1,5.032-8.551.912.912,0,0,1,.884,1.6,7.966,7.966,0,0,0-1.313,13.009,8.258,8.258,0,0,0,1.723,1.13.9.9,0,0,1,.419,1.222A.949.949,0,0,1,482.416,238.694Z" transform="translate(-440.682 -211.574)" fill="#fff" stroke="#fff" stroke-width="0.75"/>
      <path id="Path_367" data-name="Path 367" d="M572.061,405.322h-.283a.912.912,0,0,1,.055-1.823h.228a.912.912,0,1,1,0,1.823Z" transform="translate(-526.471 -377.326)" fill="#fff" stroke="#fff" stroke-width="0.75"/>
      <path id="Path_368" data-name="Path 368" d="M378.062,401.023h-8.25a.912.912,0,1,1,0-1.823h8.25a.912.912,0,1,1,0,1.823Z" transform="translate(-342.891 -373.42)" fill="#fff" stroke="#fff" stroke-width="0.75"/>
      <path id="Path_369" data-name="Path 369" d="M254.166,385.628a.934.934,0,0,1-.647-.264l-1.677-1.677a.909.909,0,0,1,1.285-1.285l1.03,1.03,2.789-2.79a.909.909,0,0,1,1.285,1.285l-3.428,3.428A.855.855,0,0,1,254.166,385.628Z" transform="translate(-236.261 -356.311)" fill="#fff" stroke="#fff" stroke-width="0.75"/>
      <path id="Path_370" data-name="Path 370" d="M256.589,510.967a.933.933,0,0,1-.647-.264.908.908,0,0,1,0-1.285l4.376-4.376a.909.909,0,1,1,1.285,1.285l-4.376,4.376A.912.912,0,0,1,256.589,510.967Z" transform="translate(-239.988 -469.371)" fill="#fff" stroke="#fff" stroke-width="0.75"/>
      <path id="Path_371" data-name="Path 371" d="M260.965,510.967a.933.933,0,0,1-.647-.264l-4.376-4.376a.909.909,0,1,1,1.285-1.285l4.376,4.376a.907.907,0,0,1-.638,1.55Z" transform="translate(-239.988 -469.371)" fill="#fff" stroke="#fff" stroke-width="0.75"/>
    </g>
  </g>
</svg>
