<svg xmlns="http://www.w3.org/2000/svg" width="19.215" height="17.443" viewBox="0 0 19.215 17.443">
  <g id="Icon_feather-briefcase" data-name="Icon feather-briefcase" transform="translate(-2.25 -3.75)">
    <path id="Path_2153" data-name="Path 2153" d="M4.771,10.5H18.943a1.771,1.771,0,0,1,1.771,1.771v8.857A1.771,1.771,0,0,1,18.943,22.9H4.771A1.771,1.771,0,0,1,3,21.129V12.271A1.771,1.771,0,0,1,4.771,10.5Z" transform="translate(0 -2.457)" fill="none" stroke="#505050" stroke-linecap="round" stroke-linejoin="round" stroke-width="1.5"/>
    <path id="Path_2154" data-name="Path 2154" d="M19.086,20.443V6.271A1.771,1.771,0,0,0,17.314,4.5H13.771A1.771,1.771,0,0,0,12,6.271V20.443" transform="translate(-3.686)" fill="none" stroke="#505050" stroke-linecap="round" stroke-linejoin="round" stroke-width="1.5"/>
  </g>
</svg>
