<svg xmlns="http://www.w3.org/2000/svg" width="70" height="73.076" viewBox="0 0 70 73.076">
  <g id="Group_578" data-name="Group 578" transform="translate(-818 -3322.462)">
    <g id="noun_attributes_339028" transform="translate(794.443 3300.881)">
      <g id="Group_577" data-name="Group 577" transform="translate(23.557 21.581)">
        <path id="Path_2183" data-name="Path 2183" d="M75.26,68.866a29.55,29.55,0,0,1-41.254-.21c0,.208-.007.4,0,.616l0,2.938a32.181,32.181,0,0,0,41.25.191l0-3.1C75.265,69.147,75.258,69.016,75.26,68.866Z" transform="translate(-20.256 -6.707)" fill="#141414"/>
        <path id="Path_2184" data-name="Path 2184" d="M42.734,67.755c.9-.425,1.78-.836,2.572-1.263a5.932,5.932,0,0,0,1.4-1.045,12.4,12.4,0,0,1-1.156-1.1,1.316,1.316,0,0,1,1.965-1.75c.007.008.176.191.47.463a8.047,8.047,0,0,0-.47-4.23,16.384,16.384,0,0,1-1.257-7.689,9.083,9.083,0,0,1,8.865-7.721h.211a9.088,9.088,0,0,1,8.869,7.72,16.431,16.431,0,0,1-1.257,7.689,8.027,8.027,0,0,0-.477,4.221c.174-.165.349-.321.522-.5a1.316,1.316,0,0,1,1.881,1.84q-.552.565-1.116,1.06a5.951,5.951,0,0,0,1.394,1.04c.794.428,1.671.841,2.575,1.265,2.775,1.3,5.644,2.652,7.125,4.93a8.658,8.658,0,0,1,1,4.985,29.852,29.852,0,0,0,2.5-2.719,8.86,8.86,0,0,0-1.3-3.7c-1.889-2.906-5.248-4.484-8.212-5.877-.86-.4-1.691-.794-2.448-1.2-1.284-.689-1.941-1.713-.968-4.469a19.161,19.161,0,0,0,1.393-8.83A11.662,11.662,0,0,0,55.332,40.787h-.211A11.657,11.657,0,0,0,43.637,50.872,19.093,19.093,0,0,0,45.03,59.7c.97,2.77.348,3.765-.97,4.473-.754.406-1.586.8-2.444,1.2-2.966,1.393-6.328,2.971-8.216,5.878a8.739,8.739,0,0,0-1.274,3.458A29.869,29.869,0,0,0,34.6,77.461a8.353,8.353,0,0,1,1.008-4.775C37.085,70.407,39.956,69.059,42.734,67.755Z" transform="translate(-20.849 -15.513)" fill="#141414"/>
        <path id="Path_2185" data-name="Path 2185" d="M67.855,66.749a29.854,29.854,0,0,1-2.5,2.719c0,.15.005.281,0,.437l0,3.1a32.527,32.527,0,0,0,2.635-2.445v-.62A20.049,20.049,0,0,0,67.855,66.749Z" transform="translate(-10.35 -7.309)" fill="#141414"/>
        <path id="Path_2186" data-name="Path 2186" d="M34.642,72.87l0-2.938c-.005-.219,0-.408,0-.616a29.869,29.869,0,0,1-2.473-2.752,18.777,18.777,0,0,0-.161,3.4v.418A32.555,32.555,0,0,0,34.642,72.87Z" transform="translate(-20.891 -7.368)" fill="#141414"/>
        <path id="Path_2187" data-name="Path 2187" d="M58.966,57.7c-2.325,2.2-4.732,3.3-7.277,3.246a11.6,11.6,0,0,1-7.206-3.237A4.571,4.571,0,0,1,43.2,60.1a13.86,13.86,0,0,0,8.4,3.478c.089,0,.177,0,.266,0a12.587,12.587,0,0,0,8.382-3.478A4.567,4.567,0,0,1,58.966,57.7Z" transform="translate(-17.349 -10.167)" fill="#141414"/>
        <path id="Path_2188" data-name="Path 2188" d="M57.564,57.4a1.317,1.317,0,0,0-1.861.021c-.173.177-.348.333-.522.5a4.567,4.567,0,0,0,1.287,2.4q.564-.5,1.116-1.06A1.317,1.317,0,0,0,57.564,57.4Z" transform="translate(-13.564 -10.382)" fill="#141414"/>
        <path id="Path_2189" data-name="Path 2189" d="M44.84,57.927c-.293-.273-.463-.456-.47-.463a1.316,1.316,0,0,0-1.965,1.75,12.405,12.405,0,0,0,1.156,1.1A4.571,4.571,0,0,0,44.84,57.927Z" transform="translate(-17.706 -10.382)" fill="#141414"/>
        <path id="Path_2190" data-name="Path 2190" d="M53.123,53.469a1.316,1.316,0,0,0-1.316-1.316H49.865V48.584a1.316,1.316,0,0,0-2.632,0v4.885a1.316,1.316,0,0,0,1.316,1.316h3.258A1.316,1.316,0,0,0,53.123,53.469Z" transform="translate(-16.075 -13.465)" fill="#141414"/>
        <path id="Path_2191" data-name="Path 2191" d="M25.251,54.725a32.138,32.138,0,0,0,8.886,22.2v-.418a18.777,18.777,0,0,1,.161-3.4,29.571,29.571,0,0,1-5.059-27.242H26.5A32.144,32.144,0,0,0,25.251,54.725Z" transform="translate(-23.021 -13.909)" fill="#141414"/>
        <path id="Path_2192" data-name="Path 2192" d="M73.861,55.02a29.484,29.484,0,0,1-6.607,18.624,20.047,20.047,0,0,1,.132,3.188v.62a32.166,32.166,0,0,0,7.482-32.521H72.089A29.481,29.481,0,0,1,73.861,55.02Z" transform="translate(-9.749 -14.203)" fill="#141414"/>
        <path id="Path_2193" data-name="Path 2193" d="M35.248,34.024h.406A1.316,1.316,0,0,1,36.97,35.34v.686a29.555,29.555,0,0,1,8.226-4.2,9.833,9.833,0,0,1-.4-2.642A32.182,32.182,0,0,0,35.248,34.024Z" transform="translate(-19.862 -19.179)" fill="#141414"/>
        <path id="Path_2194" data-name="Path 2194" d="M57.593,29.341a9.832,9.832,0,0,1-.442,2.629,29.658,29.658,0,0,1,10.616,6.468l1.31-2.382A32.276,32.276,0,0,0,57.593,29.341Z" transform="translate(-12.942 -19.129)" fill="#141414"/>
        <path id="Path_2195" data-name="Path 2195" d="M52.273,35.82a7.249,7.249,0,0,1-6.93-5.159q-1.289.3-2.535.7a9.865,9.865,0,0,0,18.876.193c-.825-.288-1.666-.543-2.522-.758A7.249,7.249,0,0,1,52.273,35.82Z" transform="translate(-17.474 -18.712)" fill="#141414"/>
        <path id="Path_2196" data-name="Path 2196" d="M52.37,24.213a7.241,7.241,0,0,1,7.217,6.826q1.341.322,2.635.754c0-.115.017-.227.017-.343a9.87,9.87,0,0,0-19.74,0c0,.046.006.09.007.136.869-.27,1.755-.5,2.653-.694A7.243,7.243,0,0,1,52.37,24.213Z" transform="translate(-17.571 -21.581)" fill="#141414"/>
        <path id="Path_2197" data-name="Path 2197" d="M55.563,28.769c.008.137.021.272.021.411a7.2,7.2,0,0,1-.349,2.213c.857.215,1.7.47,2.522.758a9.832,9.832,0,0,0,.442-2.629Q56.9,29.091,55.563,28.769Z" transform="translate(-13.547 -19.31)" fill="#141414"/>
        <path id="Path_2198" data-name="Path 2198" d="M45.13,29.215c0-.188.014-.373.028-.558-.9.2-1.785.424-2.653.694a9.833,9.833,0,0,0,.4,2.642q1.244-.405,2.535-.7A7.211,7.211,0,0,1,45.13,29.215Z" transform="translate(-17.569 -19.345)" fill="#141414"/>
        <path id="Path_2199" data-name="Path 2199" d="M26.189,47.338V35.494h9.625a32.492,32.492,0,0,1,3.128-2.632H24.873a1.316,1.316,0,0,0-1.316,1.316V48.654a1.316,1.316,0,0,0,1.316,1.316h2.162q.384-1.341.877-2.632Z" transform="translate(-23.557 -18.017)" fill="#141414"/>
        <path id="Path_2200" data-name="Path 2200" d="M36.539,46.857H29.247q-.543,1.286-.966,2.632h9.574a1.316,1.316,0,0,0,1.316-1.316V34.384a29.878,29.878,0,0,0-2.632,2.148V46.857Z" transform="translate(-22.064 -17.536)" fill="#141414"/>
        <path id="Path_2201" data-name="Path 2201" d="M36.405,32.862H36a32.492,32.492,0,0,0-3.128,2.632h2.219v1.518a29.877,29.877,0,0,1,2.632-2.148v-.686A1.316,1.316,0,0,0,36.405,32.862Z" transform="translate(-20.614 -18.017)" fill="#141414"/>
        <path id="Path_2202" data-name="Path 2202" d="M27.076,43.862q-.494,1.29-.877,2.632h2.739q.422-1.344.966-2.632Z" transform="translate(-22.721 -14.541)" fill="#141414"/>
        <path id="Path_2203" data-name="Path 2203" d="M64.679,45.04l3.742-6.8q-.91-1.036-1.913-1.984L61.3,45.722a1.316,1.316,0,0,0,1.153,1.95h11.57q-.49-1.348-1.1-2.632Z" transform="translate(-11.682 -16.945)" fill="#141414"/>
        <path id="Path_2204" data-name="Path 2204" d="M79.915,47.522,70.958,31.238a1.315,1.315,0,0,0-2.305,0l-2.439,4.434c.676.613,1.322,1.259,1.944,1.927l1.648-3,6.73,12.238H74.2c.37.858.7,1.737.995,2.632h3.566a1.316,1.316,0,0,0,1.153-1.95Z" transform="translate(-10.078 -18.745)" fill="#141414"/>
        <path id="Path_2205" data-name="Path 2205" d="M67.131,38.809l1.342-2.439c-.622-.668-1.268-1.314-1.944-1.927l-1.31,2.382Q66.22,37.773,67.131,38.809Z" transform="translate(-10.393 -17.517)" fill="#141414"/>
        <path id="Path_2206" data-name="Path 2206" d="M70.089,42.931q.613,1.283,1.1,2.632h2.778c-.3-.895-.625-1.774-.995-2.632Z" transform="translate(-8.854 -14.835)" fill="#141414"/>
      </g>
    </g>
  </g>
</svg>
