<svg width="24" height="24" viewBox="0 0 24 24" fill="none" xmlns="http://www.w3.org/2000/svg">
<path d="M3.00942 10.72C2.94174 11.9307 3.31768 13.1246 4.06685 14.0781C4.81603 15.0316 5.88707 15.6793 7.07942 15.9L6.28942 15.11C6.19684 15.0174 6.1234 14.9075 6.0733 14.7865C6.02319 14.6656 5.9974 14.5359 5.9974 14.405C5.9974 14.1406 6.10245 13.887 6.28942 13.7C6.4764 13.513 6.73 13.408 6.99442 13.408C7.25885 13.408 7.51245 13.513 7.69942 13.7L10.2894 16.29C10.6794 16.68 10.6794 17.31 10.2894 17.7L7.70942 20.3C7.61684 20.3926 7.50693 20.466 7.38597 20.5161C7.265 20.5662 7.13535 20.592 7.00442 20.592C6.87349 20.592 6.74384 20.5662 6.62288 20.5161C6.50192 20.466 6.392 20.3926 6.29942 20.3C6.20684 20.2074 6.1334 20.0975 6.0833 19.9765C6.03319 19.8556 6.0074 19.7259 6.0074 19.595C6.0074 19.4641 6.03319 19.3344 6.0833 19.2135C6.1334 19.0925 6.20684 18.9826 6.29942 18.89L7.17942 18.01V17.95C5.38926 17.7373 3.75033 16.8416 2.6045 15.4499C1.45867 14.0581 0.894412 12.2777 1.02942 10.48C1.28942 6.78 4.54942 4 8.25942 4H9.99942C10.5494 4 10.9994 4.45 10.9994 5C10.9994 5.55 10.5494 6 9.99942 6H8.21942C5.51942 6 3.14942 8.04 3.00942 10.72ZM14.9994 11H19.9994C21.0994 11 21.9994 10.1 21.9994 9V6C21.9994 4.9 21.0994 4 19.9994 4H14.9994C13.8994 4 12.9994 4.9 12.9994 6V9C12.9994 10.1 13.8994 11 14.9994 11ZM19.9994 9H14.9994V6H19.9994V9ZM19.9994 20H14.9994C13.8994 20 12.9994 19.1 12.9994 18V15C12.9994 13.9 13.8994 13 14.9994 13H19.9994C21.0994 13 21.9994 13.9 21.9994 15V18C21.9994 19.1 21.0994 20 19.9994 20Z" fill="#0184FF"/>
</svg>
