<svg width="20" height="20" viewBox="0 0 20 20" fill="none" xmlns="http://www.w3.org/2000/svg">
<path d="M11.6667 6.66683H3.8889C3.74156 6.66683 3.60025 6.6083 3.49606 6.50411C3.39188 6.39992 3.33334 6.25862 3.33334 6.11127V3.88905C3.33334 3.74171 3.39188 3.6004 3.49606 3.49621C3.60025 3.39203 3.74156 3.3335 3.8889 3.3335H11.6667C11.814 3.3335 11.9553 3.39203 12.0595 3.49621C12.1637 3.6004 12.2222 3.74171 12.2222 3.88905V6.11127C12.2222 6.25862 12.1637 6.39992 12.0595 6.50411C11.9553 6.6083 11.814 6.66683 11.6667 6.66683ZM4.44445 5.55572H11.1111V4.41127H4.44445V5.55572Z" fill="#202020"/>
<path d="M11.6667 7.82227H3.8889C3.74156 7.82227 3.60025 7.8808 3.49606 7.98498C3.39188 8.08917 3.33334 8.23048 3.33334 8.37782V10.5556C3.33334 10.7029 3.39188 10.8442 3.49606 10.9484C3.60025 11.0526 3.74156 11.1112 3.8889 11.1112H10.2L12.2222 9.0556V8.37782C12.2222 8.23048 12.1637 8.08917 12.0595 7.98498C11.9553 7.8808 11.814 7.82227 11.6667 7.82227ZM11.1111 10H4.44445V8.88893H11.1111V10Z" fill="#202020"/>
<path d="M6.14445 17.5058V17.4724L6.32223 16.7002H2.22223V2.22244H13.3333V7.91688L14.4444 6.86688V1.66688C14.4444 1.51954 14.3859 1.37823 14.2817 1.27405C14.1775 1.16986 14.0362 1.11133 13.8889 1.11133H1.66667C1.51933 1.11133 1.37802 1.16986 1.27383 1.27405C1.16965 1.37823 1.11111 1.51954 1.11111 1.66688V17.2224C1.11111 17.3698 1.16965 17.5111 1.27383 17.6153C1.37802 17.7195 1.51933 17.778 1.66667 17.778H6.11111C6.11569 17.6866 6.12683 17.5956 6.14445 17.5058Z" fill="#202020"/>
<path d="M12.2222 10.6499L11.7889 11.0888C11.8964 11.0666 11.9949 11.0131 12.072 10.935C12.1492 10.8569 12.2014 10.7577 12.2222 10.6499Z" fill="#202020"/>
<path d="M3.33334 14.9666C3.33334 15.114 3.39188 15.2553 3.49606 15.3594C3.60025 15.4636 3.74156 15.5222 3.8889 15.5222H6.57779L6.74445 14.7999L6.81668 14.4944V14.4666H4.44445V13.3333H7.96668L9.07779 12.2222H3.8889C3.74156 12.2222 3.60025 12.2807 3.49606 12.3849C3.39188 12.4891 3.33334 12.6304 3.33334 12.7777V14.9666Z" fill="#202020"/>
<path d="M18.6056 9.26104L16.7333 7.38882C16.6502 7.3055 16.5515 7.2394 16.4429 7.1943C16.3342 7.14919 16.2177 7.12598 16.1 7.12598C15.9823 7.12598 15.8658 7.14919 15.7571 7.1943C15.6485 7.2394 15.5498 7.3055 15.4667 7.38882L7.85 15.0499L7.22222 17.7222C7.19872 17.8374 7.19819 17.9562 7.22067 18.0717C7.24314 18.1872 7.28819 18.2971 7.35321 18.3952C7.41823 18.4932 7.50197 18.5775 7.59961 18.6431C7.69725 18.7088 7.80688 18.7545 7.92222 18.7777C7.97949 18.7835 8.03718 18.7835 8.09444 18.7777C8.16251 18.7888 8.23193 18.7888 8.3 18.7777L10.9944 18.1833L18.6056 10.5555C18.6887 10.4729 18.7547 10.3746 18.7997 10.2664C18.8447 10.1582 18.8679 10.0421 18.8679 9.92493C18.8679 9.80772 18.8447 9.69167 18.7997 9.58345C18.7547 9.47523 18.6887 9.37699 18.6056 9.29438V9.26104ZM10.4278 17.1722L8.39444 17.6222L8.88889 15.6055L14.6 9.83326L16.1667 11.3999L10.4278 17.1722ZM16.7944 10.7722L15.2278 9.20549L16.1111 8.33326L17.6889 9.91104L16.7944 10.7722Z" fill="#202020"/>
</svg>
