<svg id="icon-website" xmlns="http://www.w3.org/2000/svg" width="70" height="64.183" viewBox="0 0 70 64.183">
  <path id="Path_352" data-name="Path 352" d="M1,52.051a5.392,5.392,0,0,0,5.646,5.078H23.581V61.2H19.064v2.033H52.933V61.2H48.417V57.129H65.353A5.392,5.392,0,0,0,71,52.051V49H1ZM46.158,61.2H25.838V57.129H46.158ZM3.259,51.033H68.738v1.017A3.233,3.233,0,0,1,65.349,55.1H6.646a3.233,3.233,0,0,1-3.389-3.051Z" transform="translate(-1 0.947)" fill="#565656"/>
  <path id="Path_353" data-name="Path 353" d="M58.082,11H53v2.033h5.082a3.051,3.051,0,0,1,3.051,3.051v31.5h2.033v-31.5A5.087,5.087,0,0,0,58.082,11Z" transform="translate(6.834 -0.389)" fill="#565656"/>
  <path id="Path_354" data-name="Path 354" d="M3.033,16.082a3.051,3.051,0,0,1,3.051-3.051h5.078V11H6.082A5.087,5.087,0,0,0,1,16.082v31.5H3.033Z" transform="translate(-1 -0.389)" fill="#565656"/>
  <path id="Path_355" data-name="Path 355" d="M58.607,1H13V43.682H58.607Zm-2.4,2.033v6.1H15.4v-6.1ZM15.4,41.649V11.162H56.206V41.649Z" transform="translate(-0.805 -1)" fill="#565656"/>
  <rect id="Rectangle_281" data-name="Rectangle 281" width="1.795" height="3.589" transform="translate(18.217 3.589)" fill="#565656"/>
  <rect id="Rectangle_282" data-name="Rectangle 282" width="1.795" height="3.589" transform="translate(22.215 3.589)" fill="#565656"/>
  <rect id="Rectangle_283" data-name="Rectangle 283" width="3.589" height="3.589" transform="translate(26.295 3.589)" fill="#565656"/>
  <path id="Path_356" data-name="Path 356" d="M54.858,34.767,59.3,28.106l-4.441-6.661-1.69,1.129,3.689,5.534-3.689,5.534Z" transform="translate(6.837 -0.18)" fill="#565656"/>
  <path id="Path_357" data-name="Path 357" d="M9.238,21.445,4.8,28.106l4.441,6.661,1.69-1.129L7.239,28.106l3.689-5.534Z" transform="translate(-0.936 -0.18)" fill="#565656"/>
  <path id="Path_358" data-name="Path 358" d="M41.708,28.356c-.07-.127-.154-.24-.231-.359A7.112,7.112,0,1,0,29.2,23.118a6.148,6.148,0,0,0-5.4,3.208L19.453,34.3H17v2.033H47.487V34.3H44.948Zm.924,5.94H38.943l-3.786-6.941a4.084,4.084,0,0,1,4.768,1.974ZM31.227,23.118a5.082,5.082,0,1,1,8.894,3.356,6.078,6.078,0,0,0-6.013-.9,6.146,6.146,0,0,0-2.85-2.085c-.009-.129-.031-.248-.031-.373ZM25.578,27.3a4.127,4.127,0,0,1,7.234,0l3.819,7H21.761Z" transform="translate(2.754 -0.344)" fill="#565656"/>
</svg>
