<svg xmlns="http://www.w3.org/2000/svg" width="15.906" height="11.284" viewBox="0 0 15.906 11.284">
  <g id="Group_341" data-name="Group 341" transform="translate(-393.439 -1156.638)">
    <path id="Icon_awesome-check" data-name="Icon awesome-check" d="M3.441,11.984.148,8.691a.507.507,0,0,1,0-.716l.716-.716a.507.507,0,0,1,.716,0L3.8,9.477,8.551,4.726a.507.507,0,0,1,.716,0l.716.716a.507.507,0,0,1,0,.716L4.158,11.984A.507.507,0,0,1,3.441,11.984Z" transform="translate(394 1152.622)" fill="#999" stroke="#fff" stroke-width="1"/>
    <path id="Icon_material-close" data-name="Icon material-close" d="M14.042,8.159,13.383,7.5l-2.612,2.612L8.159,7.5,7.5,8.159l2.612,2.612L7.5,13.383l.659.659,2.612-2.612,2.612,2.612.659-.659L11.43,10.771Z" transform="translate(395.303 1153.881)" fill="#999"/>
  </g>
</svg>
