<svg width="current" height="current" viewBox="0 0 17 11" fill="none" xmlns="http://www.w3.org/2000/svg">
<g clip-path="url(#clip0_12953_15690)">
<path d="M15.4187 5.21328C13.9264 2.45456 11.3094 0.785156 8.41339 0.785156C5.5174 0.785156 2.89595 2.45456 1.41696 5.21328L1.29297 5.4214L1.4081 5.63395C2.90038 8.39267 5.5174 10.0621 8.41339 10.0621C11.3094 10.0621 13.9308 8.41481 15.4187 5.63395L15.5338 5.4214L15.4187 5.21328ZM8.41339 9.1543C5.92035 9.1543 3.63102 7.76387 2.30258 5.4214C3.63102 3.07892 5.92035 1.68849 8.41339 1.68849C10.9064 1.68849 13.1692 3.08335 14.5198 5.4214C13.1692 7.76387 10.902 9.1543 8.41339 9.1543Z" fill="#202020" fill-opacity="0.6"/>
<path d="M8.53896 2.39461C7.93856 2.39899 7.35292 2.5812 6.85602 2.91823C6.35911 3.25525 5.97323 3.73198 5.7471 4.28818C5.52098 4.84439 5.46475 5.45514 5.58553 6.04328C5.70631 6.63142 5.99868 7.17058 6.4257 7.59266C6.85272 8.01474 7.39525 8.30081 7.98476 8.41473C8.57427 8.52865 9.18432 8.46532 9.73786 8.23273C10.2914 8.00015 10.7636 7.60874 11.0948 7.10794C11.426 6.60715 11.6014 6.01943 11.5988 5.41902C11.5971 5.01935 11.5165 4.62396 11.3616 4.25549C11.2068 3.88703 10.9808 3.55274 10.6966 3.27178C10.4123 2.99082 10.0754 2.76872 9.70517 2.6182C9.33492 2.46767 8.93862 2.3917 8.53896 2.39461ZM8.53896 7.58437C8.11486 7.58 7.7015 7.45041 7.35081 7.21188C7.00012 6.97335 6.72773 6.63652 6.56785 6.24369C6.40796 5.85085 6.36772 5.41953 6.45217 5.0039C6.53662 4.58827 6.742 4.20686 7.04251 3.90757C7.34302 3.60829 7.72527 3.40447 8.14124 3.32171C8.55721 3.23896 8.98836 3.28096 9.38054 3.44245C9.77272 3.60393 10.1084 3.8777 10.3455 4.22936C10.5826 4.58102 10.7105 4.9949 10.7132 5.41902C10.7143 5.70445 10.6589 5.98729 10.5499 6.25111C10.4409 6.51494 10.2807 6.75451 10.0784 6.95593C9.8762 7.15735 9.63598 7.31662 9.37171 7.4245C9.10744 7.53237 8.82439 7.58672 8.53896 7.58437Z" fill="#202020" fill-opacity="0.6"/>
</g>
<defs>
<clipPath id="clip0_12953_15690">
<rect width="15.9412" height="10.84" fill="white" transform="translate(0.53125)"/>
</clipPath>
</defs>
</svg>
