<svg xmlns="http://www.w3.org/2000/svg" width="57.336" height="48" viewBox="0 0 57.336 48">
  <g id="Group_746" data-name="Group 746" transform="translate(-234 -977)">
    <g id="noun_support_3678979" transform="translate(234 977)">
      <g id="Group_745" data-name="Group 745" transform="translate(0 0)">
        <path id="Path_2338" data-name="Path 2338" d="M75.6,42.2a8.253,8.253,0,0,0-5.281-2.546c0-.094-.094-.189-.094-.283A22.344,22.344,0,0,0,58.25,27.392a23.137,23.137,0,0,0-8.77-1.792,21.471,21.471,0,0,0-8.77,1.792A22.344,22.344,0,0,0,28.733,39.368c0,.094-.094.189-.094.283A8.74,8.74,0,0,0,23.358,42.2,8.582,8.582,0,0,0,21,48.138a8.754,8.754,0,0,0,2.358,5.941,7.936,7.936,0,0,0,5.752,2.546h1.132l-.377-1.037a6.5,6.5,0,0,0-.283-.754c0-.094,0-.094-.094-.189,0-.094,0-.189-.094-.189,0-.094,0-.189-.094-.189,0-.094,0-.094-.094-.189,0-.094,0-.189-.094-.189,0-.094,0-.094-.094-.189a.346.346,0,0,0-.094-.283v-.189a4.011,4.011,0,0,1-.189-1.037V52.1a.346.346,0,0,0-.094-.283V47.667h0V46.629h0a19.256,19.256,0,0,1,1.32-6.035h0c.094-.189.189-.472.283-.66A21.295,21.295,0,0,1,41.464,28.712a20.293,20.293,0,0,1,8.2-1.7,20.625,20.625,0,0,1,8.2,1.7,20.032,20.032,0,0,1,6.7,4.527,20.5,20.5,0,0,1,4.527,6.7c.094.189.189.472.283.66h0a21.563,21.563,0,0,1,1.32,6.035h0v1.037h0v.472A21.4,21.4,0,0,1,65.511,62a20.658,20.658,0,0,1-12.259,6.884,3.738,3.738,0,0,0-3.489-2.64,3.678,3.678,0,1,0,0,7.356,3.752,3.752,0,0,0,3.678-3.206,22.238,22.238,0,0,0,13.3-7.45A21.452,21.452,0,0,0,70.7,56.531a8.74,8.74,0,0,0,5.281-2.546,8.582,8.582,0,0,0,2.358-5.941A10.844,10.844,0,0,0,75.6,42.2ZM24.3,52.948a7.113,7.113,0,0,1-1.98-4.809,6.7,6.7,0,0,1,1.98-4.809,6.788,6.788,0,0,1,3.583-1.98,21.575,21.575,0,0,0-1.037,5.47v.472h0v3.866a.713.713,0,0,0,.094.377v.094a.713.713,0,0,0,.094.377V52.1a.567.567,0,0,0,.094.377v.094c0,.094.094.283.094.377v.094c0,.094.094.283.094.377v.094c0,.094.094.283.094.377v.094c0,.094.094.283.094.377h0c0,.189.094.283.094.472A6.632,6.632,0,0,1,24.3,52.948ZM49.385,72.091a2.169,2.169,0,1,1,2.169-2.169A2.134,2.134,0,0,1,49.385,72.091ZM74.564,52.948a6.788,6.788,0,0,1-3.583,1.98,24.936,24.936,0,0,0,1.037-5.281h0V47.29h0v-.472a21.575,21.575,0,0,0-1.037-5.47,6.788,6.788,0,0,1,3.583,1.98,7.113,7.113,0,0,1,1.98,4.809A7.586,7.586,0,0,1,74.564,52.948Z" transform="translate(-21 -25.6)" fill="#146efa"/>
      </g>
    </g>
    <path id="Path_2343" data-name="Path 2343" d="M30.1,64.371v1.055H53.874V64.371a7.834,7.834,0,0,0-11.943-6.678,8.046,8.046,0,0,0-1.888-.876l0,.01a.515.515,0,0,0-.621.263l-1.285,2.674L36.841,57a.514.514,0,0,0-.594-.274l0-.01A8.054,8.054,0,0,0,30.1,64.371Zm15.933-6.8a6.808,6.808,0,0,1,6.8,6.8l-7.053.007v-.007a7.981,7.981,0,0,0-2.924-6.01A6.767,6.767,0,0,1,46.033,57.571Zm-9.945.275L37.659,61.2a.521.521,0,0,0,.469.3h0a.521.521,0,0,0,.469-.3l1.557-3.242a7.094,7.094,0,0,1,4.582,6.409l-13.6.014v-.014A6.984,6.984,0,0,1,36.088,57.845Z" transform="translate(220.833 943.416)" fill="#146efa"/>
    <path id="Path_2344" data-name="Path 2344" d="M34.558,34.535a5.511,5.511,0,0,0,9.561,3.748,5.518,5.518,0,1,0,4.857-9.2,5.587,5.587,0,0,0,.049-.718A5.52,5.52,0,1,0,38.094,29.39,5.523,5.523,0,0,0,34.558,34.535Zm18.09,0a4.472,4.472,0,0,1-7.883,2.9,5.469,5.469,0,0,0,0-5.8,4.476,4.476,0,0,1,7.886,2.9Zm-9.143-10.65a4.478,4.478,0,0,1,4.428,5.145,5.5,5.5,0,0,0-3.811,1.763A5.448,5.448,0,0,0,39.1,29.108a4.444,4.444,0,0,1,4.41-5.223Zm-3.429,6.171A4.479,4.479,0,1,1,35.6,34.535,4.483,4.483,0,0,1,40.077,30.056Z" transform="translate(218.697 959.558)" fill="#146efa"/>
  </g>
</svg>
