<svg xmlns="http://www.w3.org/2000/svg" width="72.574" height="72.646" viewBox="0 0 72.574 72.646">
  <g id="Group_409" data-name="Group 409" transform="translate(-944.5 -1209.499)">
    <g id="noun_manage_3596153" transform="translate(804.24 1154.289)">
      <path id="Path_726" data-name="Path 726" d="M91.334,62.8V47.709H81.95a27.6,27.6,0,0,0-2.367-5.787l6.627-6.639L75.559,24.632l-6.651,6.651a27.385,27.385,0,0,0-5.763-2.367V19.46H48v9.4a27.219,27.219,0,0,0-5.775,2.367l-6.639-6.651L24.932,35.223l6.627,6.639a27.065,27.065,0,0,0-2.367,5.787H19.76V62.8h9.385a27.6,27.6,0,0,0,2.367,5.787l-6.627,6.639L35.535,85.875l6.7-6.6A27.385,27.385,0,0,0,48,81.638v9.468H63.1V81.638a27.219,27.219,0,0,0,5.775-2.367l6.639,6.651L86.163,75.271l-6.6-6.651a27.065,27.065,0,0,0,2.367-5.787ZM79.914,61.33a24.852,24.852,0,0,1-2.852,6.84l-.485.793,6.272,6.26-7.337,7.326-6.26-6.272-.793.485A25.077,25.077,0,0,1,61.63,79.6l-.9.225v8.911H50.364V79.827l-.9-.225a25.125,25.125,0,0,1-6.817-2.852l-.793-.473-6.272,6.272-7.337-7.326,6.272-6.26-.485-.793a25.408,25.408,0,0,1-2.84-6.84l-.225-.9h-8.84V50.076h8.828l.225-.9a24.97,24.97,0,0,1,2.852-6.84l.485-.793-6.272-6.26,7.337-7.325,6.26,6.272.793-.473A24.746,24.746,0,0,1,49.464,30.9l.9-.213V21.827H60.731V30.75l.9.213a25.124,25.124,0,0,1,6.817,2.852l.793.473,6.272-6.272,7.337,7.325L76.577,41.6l.485.793a25.562,25.562,0,0,1,2.84,6.84l.225.9h8.84V60.49H80.139Z" transform="translate(121 36.25)" fill="#fff" stroke="#146efa" stroke-width="1"/>
    </g>
    <g id="Group_18" data-name="Group 18" transform="translate(962.634 1225.672)">
      <path id="Path_17" data-name="Path 17" d="M337.449,232.371H322.71a.414.414,0,0,1-.41-.416V207.736a.427.427,0,0,1,.152-.324l7.369-6a.408.408,0,0,1,.513,0l7.374,6a.414.414,0,0,1,.152.324v24.219A.414.414,0,0,1,337.449,232.371Zm-14.329-.832h13.919v-23.6l-6.959-5.66-6.959,5.66Z" transform="translate(-311.827 -196.19)" fill="#fff" stroke="#fff" stroke-width="1"/>
      <path id="Path_18" data-name="Path 18" d="M408.5,773.556H400.11a.411.411,0,0,1-.41-.41V766.51a.411.411,0,0,1,.41-.41H408.5a.411.411,0,0,1,.41.41v6.639A.4.4,0,0,1,408.5,773.556Zm-7.98-.82h7.566V766.92H400.52Z" transform="translate(-386.053 -737.374)" fill="#fff" stroke="#fff" stroke-width="1"/>
      <path id="Path_19" data-name="Path 19" d="M402.747,601.676H400.11a.411.411,0,0,1-.41-.41V597.71a.411.411,0,0,1,.41-.41h2.637a.411.411,0,0,1,.41.41v3.555A.409.409,0,0,1,402.747,601.676Zm-2.227-.82h1.817V598.12H400.52Z" transform="translate(-386.091 -575.634)" fill="#fff" stroke="#fff" stroke-width="1"/>
      <path id="Path_20" data-name="Path 20" d="M543.047,601.676H540.41a.411.411,0,0,1-.41-.41V597.71a.411.411,0,0,1,.41-.41h2.637a.411.411,0,0,1,.41.41v3.555A.411.411,0,0,1,543.047,601.676Zm-2.227-.82h1.817V598.12H540.82Z" transform="translate(-520.561 -575.634)" fill="#fff" stroke="#fff" stroke-width="1"/>
      <path id="Path_21" data-name="Path 21" d="M92.072,407.268H82.209a.41.41,0,0,1-.369-.591l2.366-4.847a.415.415,0,0,1,.369-.23h7.5a.411.411,0,0,1,.41.41v4.847A.411.411,0,0,1,92.072,407.268Zm-9.207-.82h8.8V402.42H84.829Z" transform="translate(-81.405 -388.061)" fill="#fff" stroke="#fff" stroke-width="1"/>
      <path id="Path_22" data-name="Path 22" d="M691.973,407.268H682.11a.411.411,0,0,1-.41-.41V402.01a.411.411,0,0,1,.41-.41h7.5a.415.415,0,0,1,.369.23l2.366,4.847a.416.416,0,0,1-.021.4A.42.42,0,0,1,691.973,407.268Zm-9.453-.82h8.8l-1.964-4.027H682.52Z" transform="translate(-656.272 -388.061)" fill="#fff" stroke="#fff" stroke-width="1"/>
      <path id="Path_23" data-name="Path 23" d="M128.994,537.356H120.71a.411.411,0,0,1-.41-.41V520.21a.411.411,0,0,1,.41-.41h8.284a.411.411,0,0,1,.41.41v16.736A.411.411,0,0,1,128.994,537.356Zm-7.874-.82h7.464V520.62H121.12Z" transform="translate(-118.327 -501.175)" fill="#fff" stroke="#fff" stroke-width="1"/>
      <path id="Path_24" data-name="Path 24" d="M690.394,537.356H682.11a.411.411,0,0,1-.41-.41V520.21a.411.411,0,0,1,.41-.41h8.284a.411.411,0,0,1,.41.41v16.736A.409.409,0,0,1,690.394,537.356Zm-7.874-.82h7.464V520.62H682.52Z" transform="translate(-656.272 -501.175)" fill="#fff" stroke="#fff" stroke-width="1"/>
      <path id="Path_25" data-name="Path 25" d="M758.023,770.476H755.71a.411.411,0,0,1-.41-.41V766.51a.411.411,0,0,1,.41-.41h2.313a.411.411,0,0,1,.41.41v3.556A.411.411,0,0,1,758.023,770.476Zm-1.9-.82h1.493V766.92H756.12Z" transform="translate(-726.854 -737.374)" fill="#fff" stroke="#fff" stroke-width="1"/>
      <path id="Path_26" data-name="Path 26" d="M758.023,601.676H755.71a.411.411,0,0,1-.41-.41V597.71a.411.411,0,0,1,.41-.41h2.313a.411.411,0,0,1,.41.41v3.555A.411.411,0,0,1,758.023,601.676Zm-1.9-.82h1.493V598.12H756.12Z" transform="translate(-726.854 -575.634)" fill="#fff" stroke="#fff" stroke-width="1"/>
      <path id="Path_27" data-name="Path 27" d="M195.223,770.476H192.91a.411.411,0,0,1-.41-.41V766.51a.411.411,0,0,1,.41-.41h2.313a.411.411,0,0,1,.41.41v3.556A.411.411,0,0,1,195.223,770.476Zm-1.9-.82h1.493V766.92h-1.493Z" transform="translate(-187.567 -737.374)" fill="#fff" stroke="#fff" stroke-width="1"/>
      <path id="Path_28" data-name="Path 28" d="M195.223,602.776H192.91a.411.411,0,0,1-.41-.41V598.81a.411.411,0,0,1,.41-.41h2.313a.411.411,0,0,1,.41.41v3.556A.411.411,0,0,1,195.223,602.776Zm-1.9-.82h1.493V599.22h-1.493Z" transform="translate(-187.567 -576.688)" fill="#fff" stroke="#fff" stroke-width="1"/>
      <path id="Path_29" data-name="Path 29" d="M108.29,928.72H72.615a.41.41,0,1,1,0-.82H108.29a.41.41,0,1,1,0,.82Z" transform="translate(-72.2 -892.539)" fill="#fff" stroke="#fff" stroke-width="1"/>
      <path id="Path_30" data-name="Path 30" d="M502.41,773.556a.411.411,0,0,1-.41-.41V766.51a.41.41,0,1,1,.82,0v6.639A.41.41,0,0,1,502.41,773.556Z" transform="translate(-484.158 -737.374)" fill="#fff" stroke="#fff" stroke-width="1"/>
      <path id="Path_31" data-name="Path 31" d="M425.307,354.115a3.707,3.707,0,1,1,3.707-3.707A3.711,3.711,0,0,1,425.307,354.115Zm0-6.59a2.887,2.887,0,1,0,2.887,2.887A2.891,2.891,0,0,0,425.307,347.524Z" transform="translate(-407.055 -335.435)" fill="#fff" stroke="#fff" stroke-width="1"/>
      <path id="Path_32" data-name="Path 32" d="M503.788,392.334a.4.4,0,0,1-.3-.127l-1.378-1.431a.407.407,0,0,1-.115-.283V388.91a.41.41,0,0,1,.82,0v1.419l1.263,1.308a.408.408,0,0,1-.012.578A.385.385,0,0,1,503.788,392.334Z" transform="translate(-484.149 -375.516)" fill="#fff" stroke="#fff" stroke-width="1"/>
      <path id="Path_33" data-name="Path 33" d="M506.146,79.791H502.41a.411.411,0,0,1-.41-.41V76.51a.411.411,0,0,1,.41-.41h3.736a.4.4,0,0,1,.344.189.408.408,0,0,1,.025.394l-.586,1.263.586,1.263a.419.419,0,0,1-.025.394A.408.408,0,0,1,506.146,79.791Zm-3.326-.82h2.686l-.4-.853a.42.42,0,0,1,0-.344l.4-.853H502.82Z" transform="translate(-484.132 -76.1)" fill="#fff" stroke="#fff" stroke-width="1"/>
      <path id="Path_34" data-name="Path 34" d="M502.41,82.055a.411.411,0,0,1-.41-.41V76.51a.41.41,0,0,1,.82,0v5.138A.408.408,0,0,1,502.41,82.055Z" transform="translate(-484.158 -76.1)" fill="#fff" stroke="#fff" stroke-width="1"/>
    </g>
  </g>
</svg>
