<svg xmlns="http://www.w3.org/2000/svg" width="70" height="70" viewBox="0 0 70 70">
  <g id="Group_586" data-name="Group 586" transform="translate(-130 -2758)">
    <g id="Ellipse_185" data-name="Ellipse 185" transform="translate(130 2758)" fill="#fff" stroke="#141414" stroke-width="2">
      <circle cx="35" cy="35" r="35" stroke="none"/>
      <circle cx="35" cy="35" r="34" fill="none"/>
    </g>
    <g id="noun_personal_connection_1876311" data-name="noun_personal connection_1876311" transform="translate(139.5 2767)">
      <g id="Group_576" data-name="Group 576" transform="translate(5.5 2)">
        <g id="Group_565" data-name="Group 565" transform="translate(7.58 0)">
          <g id="Group_564" data-name="Group 564">
            <g id="Group_559" data-name="Group 559" transform="translate(8.249 18.876)">
              <path id="Path_2173" data-name="Path 2173" d="M27.1,27.4l3.2,2.3-1.412,1.412L26.8,27.772Z" transform="translate(-26.8 -27.4)" fill="#141414"/>
            </g>
            <g id="Group_560" data-name="Group 560" transform="translate(9.215 16.275)">
              <path id="Path_2174" data-name="Path 2174" d="M31.741,27.764l-3.641-2.6.223-1.263a5.467,5.467,0,0,0,6.763.074l.223,1.115Z" transform="translate(-28.1 -23.9)" fill="#141414"/>
            </g>
            <g id="Group_561" data-name="Group 561" transform="translate(13.971 18.876)">
              <path id="Path_2175" data-name="Path 2175" d="M35.912,31.116,34.5,29.7l3.2-2.3.3.372Z" transform="translate(-34.5 -27.4)" fill="#141414"/>
            </g>
            <g id="Group_562" data-name="Group 562" transform="translate(7.005)">
              <path id="Path_2176" data-name="Path 2176" d="M31.052,18.126a4.6,4.6,0,0,1-4.236-3.344.86.86,0,0,0-.372-.52,1.971,1.971,0,0,1-.966-2.824.722.722,0,0,0,.074-.669c-.966-2.378,0-6.243.074-6.317,0,0,.446-2.452,4.831-2.452.817,0,1.263.074,2.155.149a3.2,3.2,0,0,1,2.3.892,3.046,3.046,0,0,1,.372,2.527.764.764,0,0,0,.966.817A1.62,1.62,0,0,1,36.7,6.31c1.412,0,.074,2.9-.52,4.162a.684.684,0,0,0,.074.743c.149.149,1.115,1.635-.743,2.973-.149.074-.223.3-.3.446a4.589,4.589,0,0,1-4.162,3.493" transform="translate(-25.126 -2)" fill="#141414"/>
            </g>
            <g id="Group_563" data-name="Group 563" transform="translate(0 20.065)">
              <path id="Path_2177" data-name="Path 2177" d="M41.413,34.574V38.81H15.7V34.425c.743-3.419,5.425-5.053,6.986-5.425l2.527,4.162a.86.86,0,0,0,.52.372h.074a.675.675,0,0,0,.52-.223l2.155-2.155,2.155,2.155a.8.8,0,0,0,.52.223h.074a.559.559,0,0,0,.52-.372L34.279,29c1.561.446,6.243,2.007,6.986,5.425C41.413,34.5,41.413,34.5,41.413,34.574Z" transform="translate(-15.7 -29)" fill="#141414"/>
            </g>
          </g>
        </g>
        <g id="Group_567" data-name="Group 567" transform="translate(19.694 31.435)">
          <g id="Group_566" data-name="Group 566">
            <rect id="Rectangle_697" data-name="Rectangle 697" width="1.486" height="2.527" fill="#141414"/>
          </g>
        </g>
        <g id="Group_569" data-name="Group 569" transform="translate(28.389 31.435)">
          <g id="Group_568" data-name="Group 568" transform="translate(0)">
            <path id="Path_2178" data-name="Path 2178" d="M49.051,46.827h-2.3L43.7,44.3H46Z" transform="translate(-43.7 -44.3)" fill="#141414"/>
          </g>
        </g>
        <g id="Group_571" data-name="Group 571" transform="translate(7.134 31.435)">
          <g id="Group_570" data-name="Group 570">
            <path id="Path_2179" data-name="Path 2179" d="M20.451,44.3,17.4,46.827H15.1L18.147,44.3Z" transform="translate(-15.1 -44.3)" fill="#141414"/>
          </g>
        </g>
        <g id="Group_575" data-name="Group 575" transform="translate(0 35.374)">
          <g id="Group_572" data-name="Group 572" transform="translate(14.566)">
            <path id="Path_2180" data-name="Path 2180" d="M36.619,50.417v6.911a.745.745,0,0,1-.743.743h-2.6L31.417,59.93a.718.718,0,0,1-1.04,0l-1.932-1.858h-2.6a.745.745,0,0,1-.743-.743V50.343a.8.8,0,0,1,.743-.743H35.876A.81.81,0,0,1,36.619,50.417Z" transform="translate(-25.1 -49.6)" fill="#141414"/>
          </g>
          <g id="Group_573" data-name="Group 573" transform="translate(29.355)">
            <path id="Path_2181" data-name="Path 2181" d="M56.519,50.417v6.911a.7.7,0,0,1-.743.743H54.364v1.486a.743.743,0,0,1-1.189.595l-2.75-2.081H45.743A.745.745,0,0,1,45,57.329V50.343a.8.8,0,0,1,.743-.743H55.776A.81.81,0,0,1,56.519,50.417Z" transform="translate(-45 -49.6)" fill="#141414"/>
          </g>
          <g id="Group_574" data-name="Group 574">
            <path id="Path_2182" data-name="Path 2182" d="M17.019,50.417v6.911a.7.7,0,0,1-.743.743H11.594l-2.75,2.081a.743.743,0,0,1-1.189-.595V58.072H6.243a.7.7,0,0,1-.743-.743V50.343a.745.745,0,0,1,.743-.743H16.276A.81.81,0,0,1,17.019,50.417Z" transform="translate(-5.5 -49.6)" fill="#141414"/>
          </g>
        </g>
      </g>
    </g>
  </g>
</svg>
