<svg xmlns="http://www.w3.org/2000/svg" width="47.571" height="48.166" viewBox="0 0 47.571 48.166">
  <g id="Group_427" data-name="Group 427" transform="translate(-804.226 -152.75)">
    <path id="Path_740" data-name="Path 740" d="M342.258,242.226H322.84a.546.546,0,0,1-.54-.548V209.771a.563.563,0,0,1,.2-.427l9.709-7.9a.538.538,0,0,1,.675,0l9.714,7.9a.546.546,0,0,1,.2.427v31.907A.546.546,0,0,1,342.258,242.226Zm-18.877-1.1h18.337v-31.1l-9.168-7.456-9.168,7.456Z" transform="translate(495.463 -41.559)" fill="#202020" stroke="#202020" stroke-width="0.5"/>
    <path id="Path_741" data-name="Path 741" d="M411.294,775.922H400.24a.542.542,0,0,1-.54-.54V766.64a.542.542,0,0,1,.54-.54h11.049a.542.542,0,0,1,.54.54v8.747A.533.533,0,0,1,411.294,775.922Zm-10.514-1.081h9.968v-7.661h-9.968Z" transform="translate(422.244 -575.256)" fill="#202020" stroke="#202020" stroke-width="0.5"/>
    <path id="Path_742" data-name="Path 742" d="M403.714,603.065H400.24a.542.542,0,0,1-.54-.54V597.84a.542.542,0,0,1,.54-.54h3.474a.542.542,0,0,1,.54.54v4.684A.538.538,0,0,1,403.714,603.065Zm-2.934-1.08h2.393v-3.6h-2.393Z" transform="translate(422.194 -415.755)" fill="#202020" stroke="#202020" stroke-width="0.5"/>
    <path id="Path_743" data-name="Path 743" d="M544.014,603.065H540.54a.542.542,0,0,1-.54-.54V597.84a.542.542,0,0,1,.54-.54h3.474a.542.542,0,0,1,.54.54v4.684A.542.542,0,0,1,544.014,603.065Zm-2.934-1.08h2.393v-3.6h-2.393Z" transform="translate(289.575 -415.755)" fill="#202020" stroke="#202020" stroke-width="0.5"/>
    <path id="Path_744" data-name="Path 744" d="M95.333,409.067H82.339a.54.54,0,0,1-.486-.778L84.97,401.9a.547.547,0,0,1,.486-.3h9.876a.542.542,0,0,1,.54.54v6.386A.542.542,0,0,1,95.333,409.067ZM83.2,407.986H94.792v-5.305h-9Z" transform="translate(722.685 -230.763)" fill="#202020" stroke="#202020" stroke-width="0.5"/>
    <path id="Path_745" data-name="Path 745" d="M695.234,409.067H682.24a.542.542,0,0,1-.54-.54V402.14a.542.542,0,0,1,.54-.54h9.876a.547.547,0,0,1,.486.3l3.117,6.386a.548.548,0,0,1-.027.524A.553.553,0,0,1,695.234,409.067Zm-12.453-1.081H694.37l-2.588-5.305h-9Z" transform="translate(155.765 -230.763)" fill="#202020" stroke="#202020" stroke-width="0.5"/>
    <path id="Path_746" data-name="Path 746" d="M131.754,542.929H120.84a.542.542,0,0,1-.54-.54V520.34a.542.542,0,0,1,.54-.54h10.914a.542.542,0,0,1,.54.54v22.049A.542.542,0,0,1,131.754,542.929Zm-10.373-1.081h9.833V520.881h-9.833Z" transform="translate(686.264 -342.263)" fill="#202020" stroke="#202020" stroke-width="0.5"/>
    <path id="Path_747" data-name="Path 747" d="M693.154,542.929H682.24a.542.542,0,0,1-.54-.54V520.34a.542.542,0,0,1,.54-.54h10.914a.542.542,0,0,1,.54.54v22.049A.539.539,0,0,1,693.154,542.929Zm-10.373-1.081h9.833V520.881h-9.833Z" transform="translate(155.765 -342.263)" fill="#202020" stroke="#202020" stroke-width="0.5"/>
    <path id="Path_748" data-name="Path 748" d="M758.888,771.865H755.84a.542.542,0,0,1-.54-.54V766.64a.542.542,0,0,1,.54-.54h3.047a.542.542,0,0,1,.54.54v4.684A.542.542,0,0,1,758.888,771.865Zm-2.507-1.081h1.967v-3.6h-1.967Z" transform="translate(86.142 -575.256)" fill="#202020" stroke="#202020" stroke-width="0.5"/>
    <path id="Path_749" data-name="Path 749" d="M758.888,603.065H755.84a.542.542,0,0,1-.54-.54V597.84a.542.542,0,0,1,.54-.54h3.047a.542.542,0,0,1,.54.54v4.684A.542.542,0,0,1,758.888,603.065Zm-2.507-1.08h1.967v-3.6h-1.967Z" transform="translate(86.142 -415.755)" fill="#202020" stroke="#202020" stroke-width="0.5"/>
    <path id="Path_750" data-name="Path 750" d="M196.087,771.865H193.04a.542.542,0,0,1-.54-.54V766.64a.542.542,0,0,1,.54-.54h3.047a.542.542,0,0,1,.54.54v4.684A.542.542,0,0,1,196.087,771.865Zm-2.5-1.081h1.967v-3.6h-1.967Z" transform="translate(617.965 -575.256)" fill="#202020" stroke="#202020" stroke-width="0.5"/>
    <path id="Path_751" data-name="Path 751" d="M196.087,604.165H193.04a.542.542,0,0,1-.54-.54V598.94a.542.542,0,0,1,.54-.54h3.047a.542.542,0,0,1,.54.54v4.684A.542.542,0,0,1,196.087,604.165Zm-2.5-1.08h1.967v-3.6h-1.967Z" transform="translate(617.965 -416.796)" fill="#202020" stroke="#202020" stroke-width="0.5"/>
    <path id="Path_753" data-name="Path 753" d="M502.54,775.922a.542.542,0,0,1-.54-.54V766.64a.54.54,0,1,1,1.081,0v8.747A.541.541,0,0,1,502.54,775.922Z" transform="translate(325.471 -575.256)" fill="#202020" stroke="#202020" stroke-width="0.5"/>
    <path id="Path_754" data-name="Path 754" d="M426.484,356.468a4.884,4.884,0,1,1,4.884-4.884A4.889,4.889,0,0,1,426.484,356.468Zm0-8.682a3.8,3.8,0,1,0,3.8,3.8A3.809,3.809,0,0,0,426.484,347.786Z" transform="translate(401.528 -178.859)" fill="#202020" stroke="#202020" stroke-width="0.5"/>
    <path id="Path_755" data-name="Path 755" d="M504.355,393.552a.533.533,0,0,1-.389-.167l-1.815-1.886a.536.536,0,0,1-.151-.373V389.04a.54.54,0,1,1,1.081,0v1.869l1.664,1.723a.538.538,0,0,1-.016.762A.507.507,0,0,1,504.355,393.552Z" transform="translate(325.483 -218.394)" fill="#202020" stroke="#202020" stroke-width="0.5"/>
    <path id="Path_756" data-name="Path 756" d="M507.462,80.962H502.54a.542.542,0,0,1-.54-.54V76.64a.542.542,0,0,1,.54-.54h4.922a.537.537,0,0,1,.486.767l-.772,1.664.772,1.664a.552.552,0,0,1-.032.519A.538.538,0,0,1,507.462,80.962Zm-4.382-1.081h3.539l-.524-1.124a.553.553,0,0,1,0-.454l.524-1.124h-3.539Z" transform="translate(325.505 76.9)" fill="#202020" stroke="#202020" stroke-width="0.5"/>
    <path id="Path_757" data-name="Path 757" d="M502.54,83.945a.542.542,0,0,1-.54-.54V76.64a.54.54,0,1,1,1.081,0v6.77A.537.537,0,0,1,502.54,83.945Z" transform="translate(325.471 76.9)" fill="#202020" stroke="#202020" stroke-width="0.5"/>
  </g>
</svg>
