<svg xmlns="http://www.w3.org/2000/svg" width="current" height="current" viewBox="0 0 17.204 11.469">
  <path id="Icon_awesome-eye" data-name="Icon awesome-eye" d="M17.1,9.8A9.58,9.58,0,0,0,8.6,4.5,9.581,9.581,0,0,0,.1,9.8a.966.966,0,0,0,0,.872,9.58,9.58,0,0,0,8.5,5.3,9.581,9.581,0,0,0,8.5-5.3A.966.966,0,0,0,17.1,9.8ZM8.6,14.536a4.3,4.3,0,1,1,4.3-4.3A4.3,4.3,0,0,1,8.6,14.536Zm0-7.168a2.847,2.847,0,0,0-.756.113,1.429,1.429,0,0,1-2,2A2.861,2.861,0,1,0,8.6,7.367Z" transform="translate(0 -4.5)" fill="#141414"/>
</svg>
