<?xml version="1.0" encoding="utf-8"?>
<!-- Generator: Adobe Illustrator 16.0.0, SVG Export Plug-In . SVG Version: 6.00 Build 0)  -->
<!DOCTYPE svg PUBLIC "-//W3C//DTD SVG 1.1//EN" "http://www.w3.org/Graphics/SVG/1.1/DTD/svg11.dtd">
<svg version="1.1" id="Layer_1" xmlns="http://www.w3.org/2000/svg" xmlns:xlink="http://www.w3.org/1999/xlink" x="0px" y="0px"
	 width="47.4px" height="48.502px" viewBox="0 0 47.4 48.502" enable-background="new 0 0 47.4 48.502" xml:space="preserve">
<g>
	<g>
		<g>
			<path d="M44.668,28.397c-1.209-1.208-2.417-2.416-3.63-3.63c-1.923-1.924-3.848-3.847-5.771-5.771
				c-0.438-0.437-0.878-0.878-1.315-1.315c-0.29-0.289-0.785-0.289-1.075,0c-0.67,0.67-1.346,1.345-2.016,2.015
				c-1.6,1.599-3.202,3.203-4.802,4.802c-1.949,1.948-3.893,3.894-5.842,5.842c-1.675,1.675-3.345,3.346-5.021,5.021
				c-0.817,0.817-1.66,1.614-2.451,2.452c-0.01,0.009-0.021,0.02-0.036,0.035c-0.29,0.289-0.29,0.786,0,1.075
				c0.289,0.29,0.787,0.29,1.076,0c0.67-0.67,1.345-1.345,2.015-2.015c1.599-1.599,3.203-3.203,4.802-4.802
				c1.949-1.949,3.893-3.893,5.842-5.843c1.676-1.675,3.345-3.345,5.02-5.02c0.555-0.553,1.113-1.111,1.666-1.665
				c0.263-0.264,0.537-0.513,0.785-0.787c0.012-0.01,0.021-0.02,0.036-0.035c-0.359,0-0.716,0-1.075,0
				c1.208,1.208,2.415,2.416,3.628,3.629c1.925,1.923,3.849,3.847,5.773,5.771c0.435,0.437,0.876,0.879,1.313,1.314
				c0.289,0.29,0.787,0.29,1.076,0C44.962,29.179,44.962,28.687,44.668,28.397L44.668,28.397z"/>
		</g>
	</g>
	<g>
		<g>
			<path d="M6.081,32.138c0.969-0.975,1.939-1.949,2.908-2.923c1.553-1.559,3.106-3.122,4.655-4.681
				c0.355-0.355,0.71-0.715,1.065-1.071c-0.36,0-0.715,0-1.076,0c0.817,0.817,1.629,1.629,2.446,2.447
				c1.3,1.299,2.604,2.604,3.903,3.902c0.3,0.301,0.599,0.6,0.904,0.904c0.289,0.289,0.787,0.289,1.076,0
				c0.29-0.29,0.29-0.786,0-1.076c-0.817-0.816-1.63-1.63-2.447-2.446c-1.299-1.3-2.604-2.604-3.903-3.904
				c-0.299-0.299-0.599-0.599-0.904-0.903c-0.289-0.29-0.786-0.294-1.076,0c-0.97,0.975-1.939,1.949-2.909,2.924
				c-1.553,1.559-3.106,3.121-4.655,4.68c-0.355,0.355-0.71,0.715-1.065,1.07c-0.29,0.29-0.29,0.787,0,1.076
				C5.294,32.428,5.786,32.433,6.081,32.138L6.081,32.138z"/>
		</g>
	</g>
	<g>
		<g>
			<path d="M23.76,16.281c0,0.081-0.006,0.162-0.011,0.248c-0.006,0.036-0.006,0.071-0.011,0.107c0-0.01,0.021-0.122,0.005-0.031
				c-0.024,0.158-0.061,0.315-0.11,0.467c-0.026,0.076-0.051,0.147-0.082,0.223c0.045-0.122-0.01,0.021-0.03,0.061
				c-0.077,0.147-0.163,0.289-0.254,0.426c-0.02,0.026-0.041,0.056-0.061,0.082c0.005-0.01,0.071-0.086,0.015-0.025
				c-0.05,0.056-0.101,0.117-0.152,0.172c-0.045,0.046-0.091,0.097-0.142,0.137c-0.036,0.035-0.213,0.178-0.102,0.092
				c-0.117,0.086-0.233,0.167-0.36,0.233c-0.066,0.041-0.137,0.071-0.208,0.106c-0.011,0.005-0.112,0.051-0.03,0.015
				c0.076-0.035-0.051,0.021-0.066,0.026c-0.137,0.046-0.279,0.091-0.426,0.122c-0.045,0.01-0.091,0.02-0.137,0.025
				c-0.011,0-0.122,0.015-0.036,0.005c0.086-0.011-0.025,0-0.036,0c-0.045,0.005-0.091,0.005-0.142,0.01
				c-0.167,0.005-0.33,0-0.493-0.015c0.132,0.01-0.02-0.005-0.071-0.015c-0.092-0.015-0.178-0.041-0.264-0.061
				c-0.066-0.021-0.132-0.041-0.193-0.061c-0.041-0.015-0.086-0.03-0.126-0.045c0.01,0.005,0.106,0.051,0.025,0.01
				c-0.142-0.065-0.279-0.142-0.406-0.223c-0.066-0.04-0.127-0.086-0.193-0.131c0.102,0.076-0.015-0.016-0.05-0.051
				c-0.117-0.102-0.218-0.218-0.325-0.33c-0.096-0.102-0.025-0.025-0.005,0c-0.021-0.025-0.041-0.05-0.061-0.081
				c-0.046-0.066-0.086-0.127-0.127-0.193c-0.035-0.056-0.065-0.117-0.096-0.172c-0.021-0.041-0.117-0.264-0.061-0.122
				c-0.056-0.137-0.102-0.274-0.137-0.416c-0.016-0.066-0.031-0.132-0.046-0.203c-0.005-0.021-0.026-0.167-0.01-0.071
				c0.01,0.086-0.005-0.056-0.005-0.071c-0.011-0.152-0.011-0.304-0.005-0.461c0-0.036,0.005-0.071,0.01-0.106
				c0.01-0.122-0.02,0.117,0-0.005c0.015-0.082,0.03-0.158,0.045-0.233c0.036-0.143,0.082-0.284,0.132-0.421
				c0.041-0.112-0.051,0.102,0-0.005c0.015-0.031,0.031-0.061,0.046-0.092c0.04-0.081,0.081-0.157,0.126-0.233
				c0.036-0.056,0.071-0.111,0.106-0.167c0.021-0.025,0.041-0.056,0.056-0.081c0.066-0.096-0.071,0.086,0.005,0
				c0.102-0.117,0.203-0.228,0.32-0.335c0.021-0.021,0.157-0.132,0.102-0.092c-0.056,0.046,0.107-0.076,0.137-0.096
				c0.132-0.086,0.269-0.157,0.406-0.228c0.011-0.005,0.112-0.051,0.03-0.016c-0.086,0.036,0.046-0.015,0.066-0.025
				c0.066-0.02,0.127-0.046,0.193-0.061c0.076-0.02,0.152-0.041,0.233-0.061c0.036-0.004,0.066-0.015,0.102-0.02
				c0.016-0.005,0.157-0.021,0.071-0.011c-0.071,0.011,0.142-0.01,0.177-0.01c0.082-0.005,0.167-0.005,0.249,0
				c0.071,0,0.142,0.01,0.208,0.015c0.091,0.005-0.015-0.005-0.031-0.005c0.056,0.011,0.112,0.021,0.167,0.03
				c0.167,0.036,0.33,0.087,0.488,0.143c0.01,0.005,0.112,0.045,0.035,0.01c-0.091-0.035,0.077,0.036,0.092,0.046
				c0.071,0.036,0.136,0.071,0.203,0.112c0.077,0.045,0.152,0.091,0.223,0.142c0.026,0.02,0.056,0.041,0.082,0.061
				c-0.086-0.066-0.02-0.015,0.025,0.025c0.122,0.112,0.234,0.228,0.35,0.35c0.005,0.005,0.076,0.091,0.026,0.025
				c-0.062-0.071,0.061,0.086,0.061,0.081c0.045,0.066,0.086,0.127,0.126,0.198c0.046,0.076,0.086,0.158,0.127,0.234
				c0.015,0.03,0.031,0.061,0.041,0.091c-0.03-0.066-0.02-0.061,0,0.005c0.056,0.172,0.111,0.345,0.147,0.523
				c0.005,0.035,0.01,0.065,0.02,0.101c0.021,0.117-0.01-0.117,0,0.005C23.75,16.068,23.76,16.174,23.76,16.281
				c0.004,0.396,0.344,0.782,0.76,0.761c0.413-0.021,0.767-0.335,0.763-0.761c-0.021-1.711-1.086-3.203-2.68-3.802
				c-1.533-0.573-3.386-0.066-4.427,1.193c-1.086,1.314-1.279,3.203-0.385,4.68c0.888,1.472,2.614,2.198,4.289,1.874
				c1.859-0.361,3.189-2.086,3.208-3.949c0.006-0.396-0.354-0.782-0.761-0.761C24.104,15.54,23.764,15.855,23.76,16.281z"/>
		</g>
	</g>
	<g>
		<g>
			<path d="M43.368,8.839c0,1.254,0,2.503,0,3.757c0,2.857,0,5.715,0,8.578c0,3.117,0,6.228,0,9.344c0,2.041,0,4.087,0,6.127
				c0,0.188,0,0.371,0,0.559c0,0.03,0,0.061,0,0.092c0,0.02-0.006,0.096,0,0.07c0.006-0.167-0.016,0.025-0.021,0.061
				c0.041-0.152-0.016,0.021-0.03,0.057c-0.082,0.167,0.091-0.082-0.04,0.045c-0.133,0.133,0.117-0.041-0.046,0.041
				c-0.041,0.021-0.077,0.045-0.117,0.062c0.188-0.082-0.214,0,0-0.006c-0.289,0.011-0.579,0-0.868,0c-1.848,0-3.7,0-5.548,0
				c-2.924,0-5.847,0-8.771,0c-3.184,0-6.371,0-9.553,0c-2.629,0-5.259,0-7.888,0c-1.258,0-2.522,0.011-3.781,0
				c-0.021,0-0.041,0-0.061,0c-0.021,0-0.762-0.025-0.072,0c0.167,0.006-0.025-0.016-0.061-0.02c0.152,0.04-0.02-0.016-0.056-0.03
				c-0.117-0.058-0.031-0.026,0,0.004c-0.021-0.021-0.147-0.178-0.051-0.04c-0.035-0.052-0.071-0.112-0.096-0.168
				c0.066,0.157,0-0.045-0.005-0.071c0.021,0.107,0.005,0.076,0.01,0c0.005-0.096,0-0.192,0-0.289c0-0.649,0-1.304,0-1.954
				c0-2.584,0-5.167,0-7.751c0-3.173,0-6.35,0-9.522c0-2.431,0-4.863,0-7.289c0-0.522,0-1.041,0-1.563c0-0.03,0-0.056,0-0.086l0,0
				c0-0.025,0-0.045,0-0.071C6.299,8.865,6.299,8.865,6.319,8.779c-0.005,0,0.061-0.172-0.01-0.005
				C6.334,8.713,6.37,8.657,6.405,8.606C6.309,8.743,6.436,8.591,6.456,8.565c-0.117,0.112,0.03-0.01,0.056-0.03
				c0.021-0.01,0.041-0.02,0.056-0.031C6.487,8.54,6.487,8.545,6.573,8.515C6.659,8.495,6.659,8.495,6.568,8.51
				c0.025,0,0.045,0,0.071,0c0.071,0.005,0.142,0,0.213,0c1.467,0,2.934,0,4.396,0c2.746,0,5.492,0,8.238,0c3.198,0,6.39,0,9.588,0
				c2.838,0,5.675,0,8.512,0c1.666,0,3.331,0,4.995,0c0.138,0,0.269,0,0.406,0c0.021,0,0.04,0,0.061,0
				c0.076-0.005,0.112,0.01,0-0.01c0.027,0.004,0.229,0.071,0.072,0.004c0.061,0.026,0.115,0.061,0.167,0.097
				c-0.137-0.097,0.015,0.03,0.041,0.051c-0.111-0.117,0.01,0.031,0.03,0.056c0.01,0.021,0.02,0.041,0.03,0.056
				c-0.036-0.081-0.041-0.081-0.011,0.005c0.005,0.021,0.011,0.046,0.017,0.066C43.368,8.748,43.362,8.748,43.368,8.839
				c0.01,0.396,0.341,0.782,0.761,0.762c0.401-0.021,0.778-0.335,0.763-0.762c-0.03-1.041-0.844-1.832-1.879-1.852
				c-0.116,0-0.239,0-0.354,0c-0.615,0-1.229,0-1.844,0c-2.351,0-4.699,0-7.044,0c-3.163,0-6.325,0-9.488,0
				c-3.101,0-6.197,0-9.298,0c-2.213,0-4.431,0-6.644,0c-0.508,0-1.016,0-1.523,0c-0.218,0-0.431,0.004-0.649,0.061
				c-0.842,0.213-1.375,1-1.381,1.842c-0.01,1.512,0,3.025,0,4.538c0,3,0,6.005,0,9.004c0,3.076,0,6.157,0,9.233
				c0,1.797,0,3.588,0,5.386c0,0.126-0.005,0.253,0.011,0.38c0.086,0.99,0.893,1.696,1.873,1.716c0.375,0.006,0.751,0,1.127,0
				c2.025,0,4.056,0,6.081,0c3.045,0,6.091,0,9.136,0c3.188,0,6.381,0,9.568,0c2.513,0,5.03,0,7.542,0c0.727,0,1.452,0,2.179,0
				c0.41,0,0.872,0.041,1.273-0.081c0.813-0.248,1.31-1,1.319-1.832c0-0.173,0-0.345,0-0.518c0-0.782,0-1.563,0-2.346
				c0-2.771,0-5.538,0-8.309c0-3.183,0-6.366,0-9.548c0-2.238,0-4.477,0-6.715c0-0.325,0-0.645,0-0.97
				c0-0.396-0.351-0.782-0.761-0.761C43.718,8.093,43.368,8.413,43.368,8.839z"/>
		</g>
	</g>
	<g>
		<g>
			<path d="M2.172,14.113c1.188-0.34,2.38-0.685,3.568-1.025c-0.32-0.244-0.645-0.487-0.964-0.735c0,0.579,0,1.152,0,1.73
				c0,1.375,0,2.756,0,4.132c0,1.675,0,3.35,0,5.025c0,1.441,0,2.883,0,4.324c0,0.701-0.041,1.417,0,2.117c0,0.01,0,0.02,0,0.03
				c0.497-0.066,0.995-0.138,1.497-0.203c-0.523-1.817-1.045-3.629-1.568-5.447c-0.781-2.726-1.568-5.446-2.35-8.172
				c-0.112-0.381-0.218-0.756-0.33-1.137c-0.021-0.072-0.041-0.147-0.061-0.218c0-0.005,0-0.01-0.005-0.016
				c-0.021-0.061-0.021-0.122-0.01-0.005c0-0.02,0.004-0.244-0.016-0.071c0.01-0.066,0.031-0.132,0.051-0.193
				c-0.071,0.188,0.137-0.152,0.01-0.01C2.01,14.22,2.172,14.088,2.04,14.18c0.035-0.025,0.076-0.051,0.117-0.071
				C2.086,14.144,2.091,14.144,2.172,14.113c0.391-0.126,0.645-0.528,0.533-0.939c-0.106-0.386-0.543-0.66-0.938-0.533
				c-1.005,0.33-1.543,1.335-1.259,2.35c0.071,0.249,0.142,0.502,0.218,0.751c0.325,1.132,0.649,2.264,0.98,3.396
				c0.832,2.903,1.665,5.802,2.502,8.7c0.198,0.695,0.401,1.391,0.599,2.081c0.234,0.817,1.498,0.665,1.498-0.203
				c0-0.579,0-1.152,0-1.73c0-1.376,0-2.757,0-4.133c0-1.674,0-3.35,0-5.024c0-1.442,0-2.883,0-4.325c0-0.706,0.025-1.417,0-2.117
				c0-0.01,0-0.02,0-0.031c0-0.492-0.487-0.873-0.964-0.736c-1.188,0.34-2.381,0.686-3.569,1.025
				c-0.396,0.112-0.639,0.538-0.533,0.939C1.344,13.977,1.776,14.23,2.172,14.113z"/>
		</g>
	</g>
	<g>
		<g>
			<path d="M8.035,39.147c0.594,0,1.182,0,1.776,0c1.416,0,2.828,0,4.244,0c1.72,0,3.436,0,5.157,0c1.487,0,2.974,0,4.462,0
				c0.715,0,1.446,0.041,2.161,0c0.01,0,0.021,0,0.03,0c-0.066-0.497-0.136-0.994-0.202-1.497c-0.809,0.233-1.614,0.462-2.417,0.695
				c-1.762,0.508-3.528,1.016-5.289,1.522c-1.762,0.508-3.528,1.016-5.289,1.523c-0.808,0.233-1.62,0.446-2.416,0.695
				c-0.173,0.056,0.086-0.006-0.076,0.015c-0.127,0.016-0.051,0.005,0,0.011c-0.046-0.006-0.087-0.021-0.132-0.031
				c-0.015-0.005-0.111-0.045-0.035-0.01c0.086,0.041-0.041-0.025-0.056-0.04c-0.071-0.052,0.01,0.01,0.021,0.02
				c-0.015-0.01-0.137-0.142-0.076-0.071c0.051,0.066-0.086-0.187-0.03-0.04c-0.01-0.024-0.016-0.051-0.026-0.076
				c-0.005-0.025-0.015-0.051-0.02-0.075c-0.097-0.32-0.183-0.646-0.279-0.966C9.304,40,9.07,39.173,8.832,38.351
				c-0.015-0.056-0.036-0.116-0.051-0.172c-0.112-0.396-0.538-0.64-0.939-0.533c-0.396,0.106-0.645,0.538-0.533,0.939
				c0.193,0.67,0.386,1.345,0.579,2.015c0.122,0.427,0.249,0.858,0.371,1.284c0.097,0.33,0.172,0.66,0.375,0.944
				c0.467,0.649,1.259,0.924,2.031,0.721c0.086-0.021,0.167-0.046,0.249-0.071c0.467-0.137,0.939-0.27,1.406-0.406
				c1.7-0.486,3.395-0.979,5.096-1.467c1.863-0.538,3.726-1.07,5.589-1.609c1.003-0.289,2.026-0.554,3.025-0.867
				c0.015-0.005,0.03-0.011,0.045-0.016c0.818-0.233,0.665-1.498-0.202-1.498c-0.594,0-1.183,0-1.777,0c-1.416,0-2.827,0-4.243,0
				c-1.721,0-3.436,0-5.157,0c-1.487,0-2.974,0-4.461,0c-0.721,0-1.442-0.024-2.163,0c-0.01,0-0.02,0-0.03,0
				c-0.396,0-0.781,0.352-0.761,0.762C7.294,38.798,7.609,39.147,8.035,39.147z"/>
		</g>
	</g>
	<g>
		<g>
			<path d="M37.576,4.256c0.356,1.229,0.712,2.462,1.063,3.69c0.242-0.32,0.486-0.645,0.734-0.964c-0.593,0-1.182,0-1.775,0
				c-1.416,0-2.828,0-4.244,0c-1.72,0-3.437,0-5.157,0c-1.487,0-2.976,0-4.461,0c-0.716,0-1.447-0.041-2.163,0
				c-0.01,0-0.02,0-0.03,0c0.066,0.497,0.137,0.995,0.203,1.498c1.857-0.533,3.711-1.066,5.567-1.604
				c2.813-0.807,5.619-1.619,8.432-2.426c0.396-0.112,0.787-0.229,1.184-0.34c0.075-0.021,0.151-0.041,0.223-0.066
				c0.004,0,0.01,0,0.01-0.005c0.021-0.005,0.426-0.106,0.072-0.02c-0.188,0.046,0.212,0.02,0.009-0.01
				c0.066,0.01,0.133,0.03,0.193,0.051c-0.188-0.071,0.151,0.137,0.01,0.01c0.021,0.015,0.153,0.178,0.063,0.045
				c0.024,0.036,0.049,0.076,0.069,0.117C37.546,4.17,37.546,4.175,37.576,4.256c0.127,0.391,0.528,0.645,0.939,0.533
				c0.386-0.106,0.66-0.543,0.533-0.939c-0.329-1.015-1.336-1.543-2.36-1.259c-0.265,0.076-0.522,0.152-0.787,0.228
				c-1.172,0.34-2.345,0.675-3.517,1.016c-2.97,0.853-5.939,1.71-8.909,2.563c-0.711,0.203-1.42,0.411-2.132,0.614
				c-0.817,0.234-0.665,1.498,0.203,1.498c0.594,0,1.183,0,1.776,0c1.417,0,2.827,0,4.243,0c1.722,0,3.437,0,5.157,0
				c1.487,0,2.976,0,4.463,0c0.72,0,1.44,0.025,2.161,0c0.01,0,0.021,0,0.03,0c0.492,0,0.873-0.487,0.736-0.964
				c-0.355-1.229-0.709-2.462-1.06-3.69c-0.113-0.396-0.539-0.64-0.94-0.533C37.713,3.429,37.465,3.86,37.576,4.256z"/>
		</g>
	</g>
	<g>
		<g>
			<path d="M45.236,32.021c-0.438,0.127-0.869,0.249-1.305,0.376c0.32,0.243,0.644,0.487,0.964,0.735c0-0.995,0-1.989,0-2.979
				c0-1.594,0-3.188,0-4.781c0-0.365,0-0.727,0-1.092c-0.498,0.066-0.994,0.138-1.497,0.204c0.64,2.223,1.279,4.446,1.919,6.669
				c0.04,0.143,0.076,0.289,0.121,0.431c0.006,0.011,0.006,0.021,0.012,0.026c0.015,0.051,0.024,0.126,0.01,0.005
				c0.005,0.046,0.005,0.091,0.005,0.137c0.016-0.076,0.016-0.091,0.004-0.035c-0.019,0.051-0.024,0.111-0.045,0.162
				c0.071-0.188-0.137,0.152-0.01,0.01c-0.015,0.021-0.178,0.152-0.046,0.062c-0.035,0.025-0.075,0.051-0.117,0.071
				C45.323,31.991,45.317,31.991,45.236,32.021c-0.392,0.127-0.646,0.528-0.534,0.938c0.108,0.387,0.544,0.66,0.941,0.533
				c1.054-0.34,1.536-1.381,1.237-2.421c-0.136-0.482-0.28-0.965-0.416-1.447c-0.426-1.477-0.854-2.954-1.274-4.436
				c-0.105-0.37-0.214-0.741-0.319-1.111c-0.233-0.818-1.497-0.666-1.497,0.202c0,0.995,0,1.99,0,2.979c0,1.595,0,3.188,0,4.781
				c0,0.366,0,0.727,0,1.092c0,0.487,0.486,0.873,0.963,0.736c0.438-0.127,0.869-0.249,1.307-0.376
				c0.396-0.111,0.64-0.537,0.531-0.938C46.063,32.158,45.632,31.904,45.236,32.021z"/>
		</g>
	</g>
</g>
</svg>
