<svg xmlns="http://www.w3.org/2000/svg" width="45.858" height="45.857" viewBox="0 0 45.858 45.857">
  <g id="Group_415" data-name="Group 415" transform="translate(-1070.625 -151.625)">
    <path id="Path_738" data-name="Path 738" d="M18.24,23.48A10.74,10.74,0,1,0,7.5,12.74,10.74,10.74,0,0,0,18.24,23.48Zm0-19.332A8.592,8.592,0,1,1,9.648,12.74,8.592,8.592,0,0,1,18.24,4.148Z" transform="translate(1075.314 150)" fill="#505050" stroke="#fff" stroke-width="0.75"/>
    <path id="Path_739" data-name="Path 739" d="M26.83,13H22.277A20.341,20.341,0,0,0,2,33.406,1.074,1.074,0,0,0,3.074,34.48H46.033a1.181,1.181,0,0,0,1.074-1.2A20.32,20.32,0,0,0,26.83,13ZM4.148,32.332A18.172,18.172,0,0,1,22.255,15.148h4.554a18.172,18.172,0,0,1,18.15,17.184Z" transform="translate(1069 162.627)" fill="#505050" stroke="#fff" stroke-width="0.75"/>
  </g>
</svg>
