<svg width="current" height="current" viewBox="0 0 20 20" fill="none" xmlns="http://www.w3.org/2000/svg">
<path d="M5.33366 10.0003L9.33366 13.3337L14.667 6.66699M10.0003 19.3337C8.77465 19.3337 7.56099 19.0922 6.42861 18.6232C5.29624 18.1542 4.26734 17.4667 3.40066 16.6C2.53398 15.7333 1.84649 14.7044 1.37745 13.572C0.908406 12.4397 0.666992 11.226 0.666992 10.0003C0.666992 8.77465 0.908406 7.56099 1.37745 6.42861C1.84649 5.29624 2.53398 4.26734 3.40066 3.40066C4.26734 2.53398 5.29624 1.84649 6.42861 1.37745C7.56099 0.908406 8.77465 0.666992 10.0003 0.666992C12.4757 0.666992 14.8496 1.65032 16.6 3.40066C18.3503 5.151 19.3337 7.52497 19.3337 10.0003C19.3337 12.4757 18.3503 14.8496 16.6 16.6C14.8496 18.3503 12.4757 19.3337 10.0003 19.3337Z" stroke="#4ECB71"/>
</svg>
