<svg xmlns="http://www.w3.org/2000/svg" width="34.703" height="34.703" viewBox="0 0 34.703 34.703">
  <path id="Icon_metro-unlink" data-name="Icon metro-unlink" d="M12.826,28.71,7.487,34.049a.7.7,0,0,1-.48.188.749.749,0,0,1-.48-.188.707.707,0,0,1,0-.959l5.339-5.339a.679.679,0,0,1,.959.959Zm3.525.855v6.674a.668.668,0,1,1-1.335,0V29.565a.668.668,0,1,1,1.335,0Zm-4.672-4.672a.643.643,0,0,1-.667.667H4.338a.668.668,0,1,1,0-1.335h6.674a.643.643,0,0,1,.667.667Zm26.361,2.669A5.69,5.69,0,0,1,36.267,31.8L33.2,34.841a6.017,6.017,0,0,1-8.488-.042l-6.966-6.986a6.066,6.066,0,0,1-.876-1.168l4.984-.375,5.693,5.714a1.959,1.959,0,0,0,1.418.574,1.888,1.888,0,0,0,1.418-.553l3.066-3.045a1.907,1.907,0,0,0,.584-1.4,1.931,1.931,0,0,0-.584-1.418L27.737,20.41l.375-4.984a6.066,6.066,0,0,1,1.168.876l7.007,7.007a5.882,5.882,0,0,1,1.752,4.254Zm-12.867-15.1-4.984.375L14.494,7.125a1.931,1.931,0,0,0-1.418-.584,2.014,2.014,0,0,0-1.418.563L8.592,10.149a1.907,1.907,0,0,0-.584,1.4,1.931,1.931,0,0,0,.584,1.418l5.714,5.714-.375,5.005a6.066,6.066,0,0,1-1.168-.876L5.756,15.8A5.882,5.882,0,0,1,4,11.547,5.69,5.69,0,0,1,5.777,7.313L8.842,4.268a5.758,5.758,0,0,1,4.234-1.731A5.714,5.714,0,0,1,17.33,4.31L24.3,11.3a6.066,6.066,0,0,1,.876,1.168Zm13.2,1.752a.643.643,0,0,1-.667.667H31.032a.668.668,0,1,1,0-1.335h6.674a.643.643,0,0,1,.667.667ZM27.028,2.871V9.544a.668.668,0,1,1-1.335,0V2.871a.668.668,0,1,1,1.335,0ZM35.516,6.02l-5.339,5.339a.707.707,0,0,1-.959,0,.707.707,0,0,1,0-.959l5.339-5.339a.679.679,0,0,1,.959.959Z" transform="translate(-3.67 -2.203)"/>
</svg>
