<?xml version="1.0" encoding="utf-8"?>
<!-- Generator: Adobe Illustrator 24.0.2, SVG Export Plug-In . SVG Version: 6.00 Build 0)  -->
<svg version="1.1" id="Layer_1" xmlns="http://www.w3.org/2000/svg" xmlns:xlink="http://www.w3.org/1999/xlink" x="0px" y="0px"
	 viewBox="0 0 18 18" style="enable-background:new 0 0 18 18;" xml:space="preserve">
<style type="text/css">
	.st0{fill:none;}
	.st1{fill-rule:evenodd;clip-rule:evenodd;}
</style>
<g>
	<g>
		<rect x="-1" y="-1" class="st0" width="20" height="20"/>
		<path class="st1" d="M15.3,5.7l-6.6,6.6l-3,0l0-3l6.6-6.6L15.3,5.7z M16.4,1.5c-0.8-0.8-1.9-1.2-2.3-0.7L12.9,2l3,3
			c0,0,0.7-0.7,1.2-1.2C17.6,3.4,17.3,2.4,16.4,1.5L16.4,1.5z"/>
		<path class="st1" d="M9,0.6H1.6C1.1,0.6,0.7,1,0.7,1.5v14.8c0,0.5,0.4,0.9,0.9,0.9h14.8c0.5,0,0.9-0.4,0.9-0.9V9h-1.7v6.7
			c0,0,0,0,0,0H2.3c0,0,0,0,0,0V2.3c0,0,0,0,0,0H9V0.6z"/>
	</g>
</g>
</svg>
