<svg width="16" height="16" viewBox="0 0 16 16" fill="none" xmlns="http://www.w3.org/2000/svg">
<path fill-rule="evenodd" clip-rule="evenodd" d="M12.5 14.2857C12.9736 14.2857 13.4278 14.0976 13.7627 13.7627C14.0976 13.4278 14.2857 12.9736 14.2857 12.5C14.2857 12.0264 14.0976 11.5722 13.7627 11.2373C13.4278 10.9024 12.9736 10.7143 12.5 10.7143C12.0264 10.7143 11.5722 10.9024 11.2373 11.2373C10.9024 11.5722 10.7143 12.0264 10.7143 12.5C10.7143 12.9736 10.9024 13.4278 11.2373 13.7627C11.5722 14.0976 12.0264 14.2857 12.5 14.2857ZM12.5 15C13.163 15 13.7989 14.7366 14.2678 14.2678C14.7366 13.7989 15 13.163 15 12.5C15 11.837 14.7366 11.2011 14.2678 10.7322C13.7989 10.2634 13.163 10 12.5 10C11.837 10 11.2011 10.2634 10.7322 10.7322C10.2634 11.2011 10 11.837 10 12.5C10 13.163 10.2634 13.7989 10.7322 14.2678C11.2011 14.7366 11.837 15 12.5 15Z" fill="#202020"/>
<path fill-rule="evenodd" clip-rule="evenodd" d="M12.2635 10.9405C12.3617 10.9405 12.456 10.9801 12.5255 11.0504C12.595 11.1208 12.634 11.2163 12.634 11.3158V12.0987L12.896 12.364C12.9635 12.4348 13.0008 12.5296 13 12.628C12.9991 12.7264 12.9602 12.8205 12.8915 12.8901C12.8228 12.9597 12.7298 12.9991 12.6327 13C12.5355 13.0008 12.4419 12.963 12.372 12.8947L11.8929 12.4094V11.3158C11.8929 11.2163 11.932 11.1208 12.0015 11.0504C12.071 10.9801 12.1652 10.9405 12.2635 10.9405ZM4.48216 7.75058H3.74108V8.50115H4.48216V7.75058ZM3.74108 7C3.54453 7 3.35604 7.07908 3.21706 7.21984C3.07808 7.3606 3 7.55151 3 7.75058V8.50115C3 8.70022 3.07808 8.89113 3.21706 9.03189C3.35604 9.17265 3.54453 9.25173 3.74108 9.25173H4.48216C4.6787 9.25173 4.8672 9.17265 5.00618 9.03189C5.14516 8.89113 5.22323 8.70022 5.22323 8.50115V7.75058C5.22323 7.55151 5.14516 7.3606 5.00618 7.21984C4.8672 7.07908 4.6787 7 4.48216 7H3.74108ZM7.44647 7.75058H6.70539V8.50115H7.44647V7.75058ZM6.70539 7C6.50884 7 6.32035 7.07908 6.18137 7.21984C6.04239 7.3606 5.96431 7.55151 5.96431 7.75058V8.50115C5.96431 8.70022 6.04239 8.89113 6.18137 9.03189C6.32035 9.17265 6.50884 9.25173 6.70539 9.25173H7.44647C7.64301 9.25173 7.83151 9.17265 7.97049 9.03189C8.10947 8.89113 8.18755 8.70022 8.18755 8.50115V7.75058C8.18755 7.55151 8.10947 7.3606 7.97049 7.21984C7.83151 7.07908 7.64301 7 7.44647 7H6.70539ZM10.4108 7.75058H9.6697V8.50115H10.4108V7.75058ZM9.6697 7C9.47316 7 9.28466 7.07908 9.14568 7.21984C9.0067 7.3606 8.92862 7.55151 8.92862 7.75058V8.50115C8.92862 8.70022 9.0067 8.89113 9.14568 9.03189C9.28466 9.17265 9.47316 9.25173 9.6697 9.25173H10.4108C10.6073 9.25173 10.7958 9.17265 10.9348 9.03189C11.0738 8.89113 11.1519 8.70022 11.1519 8.50115V7.75058C11.1519 7.55151 11.0738 7.3606 10.9348 7.21984C10.7958 7.07908 10.6073 7 10.4108 7H9.6697ZM4.48216 10.7529H3.74108V11.5035H4.48216V10.7529ZM3.74108 10.0023C3.54453 10.0023 3.35604 10.0814 3.21706 10.2221C3.07808 10.3629 3 10.5538 3 10.7529V11.5035C3 11.7025 3.07808 11.8934 3.21706 12.0342C3.35604 12.175 3.54453 12.254 3.74108 12.254H4.48216C4.6787 12.254 4.8672 12.175 5.00618 12.0342C5.14516 11.8934 5.22323 11.7025 5.22323 11.5035V10.7529C5.22323 10.5538 5.14516 10.3629 5.00618 10.2221C4.8672 10.0814 4.6787 10.0023 4.48216 10.0023H3.74108ZM7.44647 10.7529H6.70539V11.5035H7.44647V10.7529ZM6.70539 10.0023C6.50884 10.0023 6.32035 10.0814 6.18137 10.2221C6.04239 10.3629 5.96431 10.5538 5.96431 10.7529V11.5035C5.96431 11.7025 6.04239 11.8934 6.18137 12.0342C6.32035 12.175 6.50884 12.254 6.70539 12.254H7.44647C7.64301 12.254 7.83151 12.175 7.97049 12.0342C8.10947 11.8934 8.18755 11.7025 8.18755 11.5035V10.7529C8.18755 10.5538 8.10947 10.3629 7.97049 10.2221C7.83151 10.0814 7.64301 10.0023 7.44647 10.0023H6.70539Z" fill="#202020"/>
<path fill-rule="evenodd" clip-rule="evenodd" d="M1.8 3.2C1.8 3.09391 1.84214 2.99217 1.91716 2.91716C1.99217 2.84214 2.09391 2.8 2.2 2.8H4.2V2H2.2C1.88174 2 1.57652 2.12643 1.35147 2.35147C1.12643 2.57652 1 2.88174 1 3.2V12.8C1 13.1183 1.12643 13.4235 1.35147 13.6485C1.57652 13.8736 1.88174 14 2.2 14H10.302C10.1314 13.7557 10.0011 13.4856 9.916 13.2H2.2C2.09391 13.2 1.99217 13.1579 1.91716 13.0828C1.84214 13.0078 1.8 12.9061 1.8 12.8V3.2ZM12.2 9.628C12.4653 9.59005 12.7347 9.59005 13 9.628V3.2C13 2.88174 12.8736 2.57652 12.6485 2.35147C12.4235 2.12643 12.1183 2 11.8 2H10.6V2.8H11.8C11.9061 2.8 12.0078 2.84214 12.0828 2.91716C12.1579 2.99217 12.2 3.09391 12.2 3.2V9.628ZM5 2.8H9.2252V2H5V2.8Z" fill="#202020"/>
<path fill-rule="evenodd" clip-rule="evenodd" d="M12.0003 5.99967H2.66699V5.33301H12.0003V5.99967Z" fill="#202020"/>
<path d="M3 1.42857C3 1.31491 3.04609 1.2059 3.12814 1.12553C3.21019 1.04515 3.32147 1 3.4375 1C3.55353 1 3.66481 1.04515 3.74686 1.12553C3.82891 1.2059 3.875 1.31491 3.875 1.42857V3.57143C3.875 3.68509 3.82891 3.7941 3.74686 3.87447C3.66481 3.95485 3.55353 4 3.4375 4C3.32147 4 3.21019 3.95485 3.12814 3.87447C3.04609 3.7941 3 3.68509 3 3.57143V1.42857ZM9.125 1.42857C9.125 1.31491 9.17109 1.2059 9.25314 1.12553C9.33519 1.04515 9.44647 1 9.5625 1C9.67853 1 9.78981 1.04515 9.87186 1.12553C9.95391 1.2059 10 1.31491 10 1.42857V3.57143C10 3.68509 9.95391 3.7941 9.87186 3.87447C9.78981 3.95485 9.67853 4 9.5625 4C9.44647 4 9.33519 3.95485 9.25314 3.87447C9.17109 3.7941 9.125 3.68509 9.125 3.57143V1.42857Z" fill="#202020"/>
</svg>
