<svg xmlns="http://www.w3.org/2000/svg" width="14.322" height="16.368" viewBox="0 0 14.322 16.368">
  <path id="Icon_metro-attachment" data-name="Icon metro-attachment" d="M13.666,7.156,12.628,6.118,7.436,11.309a2.2,2.2,0,0,0,3.115,3.114l6.23-6.229A3.671,3.671,0,1,0,11.59,3L5.049,9.544l-.014.014A5.119,5.119,0,0,0,12.275,16.8l.013-.014h0l4.465-4.464-1.039-1.038L11.25,15.745l-.014.013A3.651,3.651,0,0,1,6.072,10.6l.014-.014h0l6.542-6.54a2.2,2.2,0,1,1,3.115,3.114l-6.23,6.229a.734.734,0,0,1-1.039-1.038l5.192-5.191Z" transform="translate(-3.535 -1.928)" fill="#262626"/>
</svg>
