<svg width="current" height="current" viewBox="0 0 20 20" fill="none" xmlns="http://www.w3.org/2000/svg">
<path d="M13.5968 5.51953L10.1686 8.94777L6.74035 5.51953L5.85645 6.4034L9.28473 9.83164L5.85645 13.2599L6.74035 14.1438L10.1686 10.7155L13.5968 14.1438L14.4807 13.2599L11.0525 9.83164L14.4807 6.4034L13.5968 5.51953Z" fill="#FF0000"/>
<path d="M16.6292 3.37088C14.871 1.61272 12.4864 0.625 10 0.625C7.51361 0.625 5.12904 1.61272 3.37088 3.37088C1.61272 5.12904 0.625 7.51361 0.625 10C0.625 12.4864 1.61272 14.871 3.37088 16.6292C5.12904 18.3873 7.51361 19.375 10 19.375C12.4864 19.375 14.871 18.3873 16.6292 16.6292C18.3873 14.871 19.375 12.4864 19.375 10C19.375 7.51361 18.3873 5.12904 16.6292 3.37088ZM10 18.125C5.5199 18.125 1.87502 14.4801 1.87502 10C1.87502 5.5199 5.5199 1.87502 10 1.87502C14.4801 1.87502 18.125 5.5199 18.125 10C18.125 14.4801 14.4801 18.125 10 18.125Z" fill="#FF0000"/>
</svg>
