<?xml version="1.0" encoding="utf-8"?>
<!-- Generator: Adobe Illustrator 16.0.0, SVG Export Plug-In . SVG Version: 6.00 Build 0)  -->
<!DOCTYPE svg PUBLIC "-//W3C//DTD SVG 1.1//EN" "http://www.w3.org/Graphics/SVG/1.1/DTD/svg11.dtd">
<svg version="1.1" id="Layer_1" xmlns="http://www.w3.org/2000/svg" xmlns:xlink="http://www.w3.org/1999/xlink" x="0px" y="0px"
	 width="47.536px" height="48.525px" viewBox="0 0 47.536 48.525" enable-background="new 0 0 47.536 48.525" xml:space="preserve">
<path d="M1.241,35.193v10.454c0,1.037,0.84,1.879,1.877,1.879h41.313c1.037,0,1.879-0.842,1.879-1.879V35.193
	c0-1.037-0.842-1.879-1.879-1.879h-6.103c6.812-8.302,5.604-20.555-2.697-27.367C27.33-0.865,15.076,0.342,8.264,8.644
	c-2.851,3.473-4.41,7.826-4.413,12.318c-0.007,4.501,1.561,8.865,4.431,12.333H3.118c-1.037,0-1.877,0.841-1.877,1.878
	C1.241,35.181,1.241,35.186,1.241,35.193z M5.748,20.963C5.747,11.268,13.605,3.408,23.299,3.407
	c9.695,0,17.554,7.858,17.555,17.552c0,4.335-1.604,8.517-4.502,11.739c-1.706-1.32-3.703-2.215-5.826-2.605
	c-2.061-0.37-2.348-2.938-2.348-3.046v-0.226c1.554-1.807,2.677-3.941,3.286-6.244c0.244-0.878,0.369-1.784,0.372-2.694
	c0.001-0.4-0.026-0.801-0.081-1.198c0.68-1.47,0.812-3.135,0.376-4.695c-0.221-0.742-0.958-1.206-1.723-1.084
	c-1.028,0.107-3.249-0.592-4.417-1.057c-4.813-2.065-8.272,0.277-9.606,1.991c-2.061,0.906-2.399,3.493-2.273,5.671
	c0,0.118,0,0.235,0,0.357c0.063,3.349,1.271,6.575,3.423,9.141c0.123,0.141,0.253,0.268,0.386,0.398
	c-0.156,0.747-0.677,2.387-2.269,2.672c-2.021,0.379-3.931,1.207-5.591,2.423C7.266,29.31,5.732,25.206,5.748,20.963L5.748,20.963z
	 M18.893,21.465c0.112,0.009,0.225-0.002,0.333-0.033c0.409-0.117,0.7-0.198,1.775-3.047c2.091,1.413,4.679,1.886,7.135,1.305
	l0.099-0.033c0.579-0.224,1.131-0.514,1.644-0.863c-0.05,0.431-0.131,0.858-0.244,1.277c-0.737,2.689-2.165,5.061-3.915,6.497
	c-1.973,1.625-4.944,1.268-6.756-0.803c-1.056-1.248-1.854-2.694-2.348-4.253L18.893,21.465z M16.301,19.62
	c-0.426-2.131-0.624-5.549,0.991-6.104c0.19-0.067,0.355-0.195,0.47-0.362c1.081-1.404,2.752-2.229,4.526-2.229
	c1.022,0.016,2.031,0.241,2.961,0.662l0,0c0.339,0.136,3.227,1.272,5.08,1.207c0.31,1.488,0.225,3.826-2.774,5.056
	c-2.276,0.504-4.655-0.152-6.353-1.751c-0.368-0.365-0.962-0.361-1.327,0.008c-0.101,0.101-0.175,0.224-0.221,0.358
	c-0.408,1.136-0.939,2.474-1.225,3.089L16.301,19.62z M19.513,28.698c0.471,0.254,0.973,0.446,1.492,0.574
	c1.357,0.325,2.771,0.325,4.126,0c0.523-0.128,1.027-0.32,1.504-0.574c0.44,1.244,1.407,2.874,3.572,3.264
	c1.295,0.249,2.544,0.699,3.698,1.338H12.25c1.16-0.639,2.414-1.091,3.713-1.343C18.094,31.564,19.081,29.943,19.513,28.698z
	 M44.394,35.193v10.454H3.118V35.193H44.394z"/>
<polygon points="21.588,43.487 23.541,42.459 25.494,43.487 25.118,41.314 26.701,39.775 24.517,39.454 23.541,37.478 
	22.563,39.454 20.381,39.775 21.963,41.314 "/>
<polygon points="13.606,43.487 15.56,42.459 17.512,43.487 17.137,41.314 18.719,39.775 16.536,39.454 15.56,37.478 14.583,39.454 
	12.4,39.775 13.982,41.314 "/>
<polygon points="5.625,43.487 7.579,42.459 9.531,43.487 9.156,41.314 10.738,39.775 8.555,39.454 7.579,37.478 6.602,39.454 
	4.418,39.775 6.001,41.314 "/>
<polygon points="38.019,43.487 39.972,42.459 41.925,43.487 41.55,41.314 43.131,39.775 40.948,39.454 39.972,37.478 38.996,39.454 
	36.812,39.775 38.394,41.314 "/>
<polygon points="30.038,43.487 31.991,42.459 33.944,43.487 33.568,41.314 35.151,39.775 32.967,39.454 31.991,37.478 
	31.014,39.454 28.832,39.775 30.414,41.314 "/>
</svg>
