<svg width="80" height="78" viewBox="0 0 80 78" fill="none" xmlns="http://www.w3.org/2000/svg">
<path d="M67.5122 58.11C69.0732 55.38 70.2439 52.26 70.2439 48.75C70.2439 39 62.439 31.2 52.6829 31.2C42.9268 31.2 35.122 39 35.122 48.75C35.122 58.5 42.9268 66.3 52.6829 66.3C56.1951 66.3 59.3171 65.13 62.0488 63.57L74.5366 76.05L80 70.59L67.5122 58.11ZM52.6829 58.5C47.2195 58.5 42.9268 54.21 42.9268 48.75C42.9268 43.29 47.2195 39 52.6829 39C58.1463 39 62.439 43.29 62.439 48.75C62.439 54.21 58.1463 58.5 52.6829 58.5ZM39.0244 70.2V78C17.4829 78 0 60.528 0 39C0 17.472 17.4829 0 39.0244 0C57.9122 0 73.639 13.416 77.2683 31.2H69.1902C67.9731 26.4882 65.67 22.1262 62.4649 18.4627C59.2599 14.7991 55.2418 11.9356 50.7317 10.101V11.7C50.7317 15.99 47.2195 19.5 42.9268 19.5H35.122V27.3C35.122 29.445 33.3659 31.2 31.2195 31.2H23.4146V39H31.2195V50.7H27.3171L8.62439 32.019C8.11707 34.281 7.80488 36.582 7.80488 39C7.80488 56.199 21.8146 70.2 39.0244 70.2Z" fill="#BE643C"/>
</svg>
