<svg width="20" height="20" viewBox="0 0 20 20" fill="none" xmlns="http://www.w3.org/2000/svg">
<path d="M5.60834 13.5583V8.33331L6.66667 8.98331L7.5 8.33331L8.53334 8.95831L9.44167 8.33331L10.5583 8.95831L11.3917 8.33331L12.475 8.95831L13.3083 8.33331L14.1417 8.95831L15 8.33331L16.0333 9.16665L16.95 8.33331V17.5833C16.95 17.7661 16.914 17.947 16.8441 18.1159C16.7741 18.2847 16.6716 18.4381 16.5424 18.5674C16.4132 18.6966 16.2598 18.7991 16.0909 18.869C15.9221 18.939 15.7411 18.975 15.5583 18.975H7.05834" stroke="#202020" stroke-miterlimit="10"/>
<path d="M14.1083 8.98334V18.975" stroke="#202020" stroke-miterlimit="10"/>
<path d="M5.60833 8.33332C5.60833 8.33332 3.89167 6.58332 5.25 5.52498C6.025 5.19165 6.91667 4.97498 7.85833 6.72498C8.44167 7.89165 8.35 7.75832 8.35 7.75832" stroke="#202020" stroke-miterlimit="10"/>
<path d="M6.75001 4.08334L5.60834 2.98334C5.60834 2.98334 5.37501 1.91667 6.44168 2.025L7.27501 2.70834V1.16667C7.34143 1.06346 7.43269 0.978576 7.54043 0.91979C7.64817 0.861005 7.76894 0.8302 7.89168 0.8302C8.01441 0.8302 8.13518 0.861005 8.24292 0.91979C8.35066 0.978576 8.44192 1.06346 8.50834 1.16667C8.50834 2.10834 8.50834 2.56667 8.50834 2.56667L9.04168 2.06667C9.04168 2.06667 10.3333 1.85834 10 3.025C9.57597 3.39229 9.18553 3.79667 8.83334 4.23334L8.88334 7.16667" stroke="#202020" stroke-miterlimit="10"/>
<path d="M8.90002 4.25833H12.2167L13.875 2.51666L14.9417 3.55L12.5834 8.70833" stroke="#202020" stroke-miterlimit="10"/>
<path d="M12.2167 4.25836L12.3167 8.90836" stroke="#202020" stroke-miterlimit="10"/>
<path d="M10.05 2.12502V1.15002H14.0417V2.68336H10.05V2.12502Z" stroke="#202020" stroke-miterlimit="10"/>
<path d="M8.14166 8.54168C8.14166 8.54168 8.475 6.57502 10 6.66668C10.4126 6.77261 10.7874 6.99186 11.0819 7.29965C11.3764 7.60743 11.579 7.99147 11.6667 8.40835" stroke="#202020" stroke-miterlimit="10"/>
<path d="M14.9333 3.55002L15.7667 1.50002C15.7667 1.50002 16.1667 0.191687 17.8583 0.833354C19.325 1.38335 19.2083 2.18335 18.6083 3.56669L16.475 8.83335" stroke="#202020" stroke-miterlimit="10"/>
<path d="M16.2917 3.33331L16.8167 5.16665" stroke="#202020" stroke-miterlimit="10"/>
<path d="M15.375 5.54169L16 7.40002" stroke="#202020" stroke-miterlimit="10"/>
<path d="M5.06667 5.54167L3.73334 4.5" stroke="#202020" stroke-miterlimit="10"/>
<path d="M5.59165 5.05831L4.81665 3.58331" stroke="#202020" stroke-miterlimit="10"/>
<path d="M5.41669 7.90002L6.37502 7.16669" stroke="#202020" stroke-miterlimit="10"/>
<path d="M6.125 5.30001C6.125 5.30001 5.10833 3.94167 6.375 3.71667" stroke="#202020" stroke-miterlimit="10"/>
<path d="M4.72498 18.9667C6.04586 18.9667 7.11665 17.8959 7.11665 16.575C7.11665 15.2541 6.04586 14.1833 4.72498 14.1833C3.4041 14.1833 2.33331 15.2541 2.33331 16.575C2.33331 17.8959 3.4041 18.9667 4.72498 18.9667Z" stroke="#202020" stroke-miterlimit="10"/>
<path d="M4.625 14.1666C4.625 14.1666 5.05834 12.9666 3.73334 13.0916" stroke="#202020" stroke-miterlimit="10"/>
</svg>
