<svg xmlns="http://www.w3.org/2000/svg" width="13.563" height="13.563" viewBox="0 0 13.563 13.563">
  <path id="Icon_awesome-thumbs-up" data-name="Icon awesome-thumbs-up" d="M2.755,5.934H.636A.636.636,0,0,0,0,6.57v6.358a.636.636,0,0,0,.636.636H2.755a.636.636,0,0,0,.636-.636V6.57A.636.636,0,0,0,2.755,5.934ZM1.7,12.5a.636.636,0,1,1,.636-.636A.636.636,0,0,1,1.7,12.5ZM10.173,2.158c0,1.124-.688,1.754-.882,2.5h2.695A1.583,1.583,0,0,1,13.563,6.2a1.918,1.918,0,0,1-.515,1.3l0,0A2.213,2.213,0,0,1,12.8,9.613a2.1,2.1,0,0,1-.434,1.98,1.406,1.406,0,0,1-.163,1.182c-.541.777-1.881.788-3.014.788H9.113a7.6,7.6,0,0,1-3.167-.84,4.169,4.169,0,0,0-1.395-.429.318.318,0,0,1-.312-.318V6.314a.318.318,0,0,1,.094-.226c1.049-1.037,1.5-2.135,2.361-3a3.208,3.208,0,0,0,.673-1.56c.118-.49.364-1.531.9-1.531C8.9,0,10.173.212,10.173,2.158Z" fill="#fff"/>
</svg>
