<svg xmlns="http://www.w3.org/2000/svg" width="14.274" height="9.516" viewBox="0 0 14.274 9.516">
  <path id="password-eye" d="M14.188,8.9A7.948,7.948,0,0,0,7.137,4.5,7.949,7.949,0,0,0,.086,8.9a.8.8,0,0,0,0,.723,7.948,7.948,0,0,0,7.051,4.4,7.949,7.949,0,0,0,7.051-4.4A.8.8,0,0,0,14.188,8.9Zm-7.051,3.93a3.568,3.568,0,1,1,3.568-3.568A3.568,3.568,0,0,1,7.137,12.826Zm0-5.947a2.362,2.362,0,0,0-.627.094A1.186,1.186,0,0,1,4.852,8.631,2.374,2.374,0,1,0,7.137,6.879Z" transform="translate(0 -4.5)" fill="#80868b"/>
</svg>
