<svg xmlns="http://www.w3.org/2000/svg" width="15.021" height="12.017" viewBox="0 0 15.021 12.017">
  <path id="password-eye-close" d="M7.511,9.388A3.367,3.367,0,0,1,4.157,6.264l-2.462-1.9a7.822,7.822,0,0,0-.862,1.3.759.759,0,0,0,0,.685,7.528,7.528,0,0,0,6.678,4.164,7.29,7.29,0,0,0,1.828-.246L8.121,9.327a3.383,3.383,0,0,1-.61.061Zm7.365,1.364L12.281,8.746a7.775,7.775,0,0,0,1.907-2.4.759.759,0,0,0,0-.685A7.528,7.528,0,0,0,7.511,1.5a7.232,7.232,0,0,0-3.458.885L1.067.079A.376.376,0,0,0,.54.145L.079.738a.376.376,0,0,0,.066.527L13.954,11.938a.376.376,0,0,0,.527-.066l.461-.593a.376.376,0,0,0-.066-.527ZM10.564,7.419l-.922-.713A2.224,2.224,0,0,0,6.917,3.844a1.118,1.118,0,0,1,.219.662,1.1,1.1,0,0,1-.036.235L5.371,3.406a3.34,3.34,0,0,1,2.139-.777,3.378,3.378,0,0,1,3.38,3.38,3.3,3.3,0,0,1-.326,1.411Z" transform="translate(0 0)" fill="#80868b"/>
</svg>
