<svg width="current" height="current" viewBox="0 0 13 13" fill="none" xmlns="http://www.w3.org/2000/svg">
<path d="M0.94666 12.7193C0.854167 12.7192 0.762718 12.6997 0.678131 12.6623C0.593543 12.6249 0.517667 12.5703 0.455326 12.502C0.391859 12.4342 0.343429 12.3538 0.313212 12.2661C0.282996 12.1783 0.271675 12.0851 0.279993 11.9926L0.443326 10.1966L7.98866 2.65398L10.3467 5.01131L2.80333 12.5533L1.00733 12.7166C0.987159 12.7185 0.966913 12.7194 0.94666 12.7193ZM10.8173 4.53998L8.45999 2.18264L9.87399 0.768645C9.93591 0.70666 10.0094 0.657488 10.0904 0.623938C10.1713 0.590389 10.258 0.57312 10.3457 0.57312C10.4333 0.57312 10.52 0.590389 10.601 0.623938C10.6819 0.657488 10.7554 0.70666 10.8173 0.768645L12.2313 2.18264C12.2933 2.24456 12.3425 2.31809 12.376 2.39902C12.4096 2.47995 12.4269 2.5667 12.4269 2.65431C12.4269 2.74192 12.4096 2.82867 12.376 2.9096C12.3425 2.99054 12.2933 3.06406 12.2313 3.12598L10.818 4.53931L10.8173 4.53998Z" fill="#202020" fill-opacity="0.8"/>
</svg>
