<svg width="10" height="13" viewBox="0 0 10 13" fill="none" xmlns="http://www.w3.org/2000/svg">
<path d="M7.456 3.36V3.632H9.52V4.688H7.376C7.28 5.424 7.06667 6 6.736 6.416C6.416 6.832 5.94667 7.13067 5.328 7.312C4.72 7.49333 3.90933 7.584 2.896 7.584V8.848C2.896 10.288 3.52533 11.008 4.784 11.008C6.02133 11.008 6.64 10.3147 6.64 8.928H7.984C7.97333 9.99467 7.69067 10.8 7.136 11.344C6.58133 11.888 5.792 12.16 4.768 12.16C3.712 12.16 2.90667 11.8667 2.352 11.28C1.808 10.6933 1.536 9.872 1.536 8.816V6.56C2.752 6.56 3.648 6.52267 4.224 6.448C4.81067 6.36267 5.23733 6.192 5.504 5.936C5.77067 5.66933 5.94133 5.25333 6.016 4.688H0.816V3.632H6.08V3.344V1.904H0.816V0.832H9.52V1.904H7.456V3.36Z" fill="#202020" fill-opacity="0.6"/>
</svg>
