<svg width="current" height="current" viewBox="0 0 24 24" fill="none" xmlns="http://www.w3.org/2000/svg">
<path d="M17.25 19.5C18.0784 19.5 18.75 18.8284 18.75 18C18.75 17.1716 18.0784 16.5 17.25 16.5C16.4216 16.5 15.75 17.1716 15.75 18C15.75 18.8284 16.4216 19.5 17.25 19.5Z" fill="#0184FF"/>
<path d="M23.0828 17.6093C22.6193 16.4287 21.8197 15.4101 20.7829 14.6796C19.7461 13.9492 18.5177 13.539 17.25 13.5C15.9823 13.539 14.7539 13.9492 13.7171 14.6796C12.6803 15.4101 11.8807 16.4287 11.4173 17.6093L11.25 18L11.4173 18.3908C11.8807 19.5714 12.6803 20.59 13.7171 21.3205C14.7539 22.0509 15.9823 22.4611 17.25 22.5C18.5177 22.4611 19.7461 22.0509 20.7829 21.3205C21.8197 20.59 22.6193 19.5714 23.0828 18.3908L23.25 18L23.0828 17.6093ZM17.25 21C16.6567 21 16.0766 20.8241 15.5833 20.4945C15.0899 20.1648 14.7054 19.6963 14.4784 19.1481C14.2513 18.5999 14.1919 17.9967 14.3076 17.4148C14.4234 16.8328 14.7091 16.2983 15.1287 15.8787C15.5482 15.4592 16.0828 15.1734 16.6647 15.0577C17.2467 14.9419 17.8499 15.0013 18.3981 15.2284C18.9462 15.4555 19.4148 15.84 19.7444 16.3333C20.0741 16.8267 20.25 17.4067 20.25 18C20.249 18.7954 19.9326 19.5579 19.3702 20.1203C18.8078 20.6827 18.0453 20.9991 17.25 21ZM9.29925 15.6C8.68575 15.1397 8.2001 14.5302 7.88838 13.8294C7.57667 13.1286 7.44926 12.3598 7.51824 11.5959C7.58721 10.832 7.85029 10.0985 8.28249 9.46484C8.71469 8.83122 9.30168 8.31859 9.98771 7.9756C10.6737 7.63262 11.4361 7.47068 12.2023 7.50516C12.9685 7.53963 13.7132 7.76938 14.3656 8.17258C15.0181 8.57579 15.5567 9.13907 15.9302 9.80894C16.3038 10.4788 16.4999 11.2331 16.5 12H15C15 11.4887 14.8693 10.9858 14.6203 10.5392C14.3712 10.0925 14.0122 9.71694 13.5772 9.4481C13.1422 9.17925 12.6457 9.02607 12.1348 9.00308C11.624 8.9801 11.1157 9.08808 10.6584 9.31677C10.201 9.54546 9.80964 9.88727 9.52152 10.3097C9.2334 10.7322 9.05805 11.2213 9.01212 11.7306C8.9662 12.2399 9.05122 12.7525 9.25913 13.2197C9.46703 13.6869 9.79091 14.0932 10.2 14.4L9.29925 15.6Z" fill="#0184FF"/>
<path d="M21.9788 8.283L20.2088 5.217C20.0356 4.91625 19.7634 4.68492 19.4387 4.5625C19.114 4.44008 18.7569 4.43416 18.4283 4.54575L16.6028 5.16375C16.2882 4.95194 15.9594 4.762 15.6188 4.59525L15.2408 2.70525C15.1726 2.36535 14.9889 2.05953 14.7208 1.8398C14.4526 1.62007 14.1167 1.5 13.77 1.5H10.23C9.88323 1.50004 9.54719 1.62022 9.27905 1.84009C9.0109 2.05997 8.82722 2.36596 8.75925 2.706L8.38125 4.5945C8.03677 4.75966 7.70422 4.94862 7.386 5.16L5.571 4.54575C5.2426 4.43455 4.8858 4.44067 4.5614 4.56307C4.23701 4.68548 3.96509 4.91658 3.792 5.217L2.022 8.283C1.84861 8.58322 1.78457 8.93423 1.84076 9.27634C1.89696 9.61845 2.06993 9.93053 2.33025 10.1595L3.7785 11.4323C3.76575 11.6213 3.75 11.8088 3.75 12C3.75 12.1935 3.7575 12.3848 3.771 12.5745L2.331 13.8405C2.07044 14.0693 1.89718 14.3813 1.84071 14.7234C1.78424 15.0655 1.84803 15.4166 2.02125 15.717L3.79125 18.783C3.9644 19.0837 4.23657 19.3151 4.56129 19.4375C4.88601 19.5599 5.24315 19.5658 5.57175 19.4542L7.39725 18.8362C7.71174 19.0485 8.04052 19.2387 8.38125 19.4055L8.7585 21.294C8.82649 21.6342 9.01029 21.9403 9.27859 22.1601C9.54689 22.38 9.88311 22.5001 10.23 22.5H11.25V21H10.23L9.6975 18.3375C8.96087 18.0639 8.27706 17.665 7.67625 17.1585L5.091 18.033L3.321 14.967L5.36475 13.1708C5.22493 12.3952 5.22315 11.601 5.3595 10.8247L3.321 9.03225L5.091 5.967L7.66125 6.837C8.26635 6.3298 8.95548 5.93231 9.6975 5.6625L10.23 3H13.77L14.3025 5.6625C15.0391 5.93618 15.7229 6.33505 16.3238 6.8415L18.909 5.967L20.679 9.033L18.5805 10.872L19.569 12L21.669 10.1595C21.9296 9.93072 22.1028 9.61873 22.1593 9.27662C22.2158 8.9345 22.152 8.58338 21.9788 8.283V8.283Z" fill="#0184FF"/>
</svg>
