<svg width="current" height="current" viewBox="0 0 12 12" fill="none" xmlns="http://www.w3.org/2000/svg">
<path d="M6.00008 0.166626C9.20841 0.166626 11.8334 2.79163 11.8334 5.99996C11.8334 9.20829 9.20841 11.8333 6.00008 11.8333C2.79175 11.8333 0.166748 9.20829 0.166748 5.99996C0.166748 2.79163 2.79175 0.166626 6.00008 0.166626ZM6.00008 1.33329C4.89175 1.33329 3.90008 1.68329 3.14175 2.32496L9.67508 8.85829C10.2584 8.04163 10.6667 7.04996 10.6667 5.99996C10.6667 3.43329 8.56675 1.33329 6.00008 1.33329ZM8.85841 9.67496L2.32508 3.14163C1.68341 3.89996 1.33341 4.89163 1.33341 5.99996C1.33341 8.56663 3.43341 10.6666 6.00008 10.6666C7.10841 10.6666 8.10008 10.3166 8.85841 9.67496Z" fill="#C23934"/>
</svg>
