<svg width="24" height="24" viewBox="0 0 24 24" fill="none" xmlns="http://www.w3.org/2000/svg">
<path d="M15.0003 19.88C15.0403 20.18 14.9403 20.5 14.7103 20.71C14.3203 21.1 13.6903 21.1 13.3003 20.71L9.29035 16.7C9.06035 16.47 8.96035 16.16 9.00035 15.87V10.75L4.21035 4.62C3.87035 4.19 3.95035 3.56 4.38035 3.22C4.57035 3.08 4.78035 3 5.00035 3H19.0003C19.2203 3 19.4303 3.08 19.6203 3.22C20.0503 3.56 20.1303 4.19 19.7903 4.62L15.0003 10.75V19.88ZM7.04035 5L11.0003 10.06V15.58L13.0003 17.58V10.05L16.9603 5H7.04035Z" fill="black"/>
</svg>
