<svg width="12" height="14" viewBox="0 0 12 14" fill="none" xmlns="http://www.w3.org/2000/svg">
<path d="M4.66667 10.3333V8.33334H0V5.66668H4.66667V3.66668L8 7.00001L4.66667 10.3333ZM4.66667 0.333344H10.6667C11.0203 0.333344 11.3594 0.473819 11.6095 0.723868C11.8595 0.973916 12 1.31305 12 1.66668V12.3333C12 12.687 11.8595 13.0261 11.6095 13.2762C11.3594 13.5262 11.0203 13.6667 10.6667 13.6667H4.66667C4.31305 13.6667 3.97391 13.5262 3.72386 13.2762C3.47381 13.0261 3.33333 12.687 3.33333 12.3333V11H4.66667V12.3333H10.6667V1.66668H4.66667V3.00001H3.33333V1.66668C3.33333 1.31305 3.47381 0.973916 3.72386 0.723868C3.97391 0.473819 4.31305 0.333344 4.66667 0.333344Z" fill="#202020" fill-opacity="0.6"/>
</svg>
