<svg width="54" height="58" viewBox="0 0 54 58" fill="none" xmlns="http://www.w3.org/2000/svg">
<g filter="url(#filter0_dd_1214_228)">
<ellipse cx="27" cy="28.9866" rx="20" ry="19.9866" fill="white"/>
</g>
<path d="M34.42 30.7202C35.2429 30.7202 35.91 30.0531 35.91 29.2302C35.91 28.4073 35.2429 27.7402 34.42 27.7402C33.5971 27.7402 32.93 28.4073 32.93 29.2302C32.93 30.0531 33.5971 30.7202 34.42 30.7202Z" fill="#1D6CEC"/>
<path d="M33.14 30.9102H35.7C35.9307 30.9102 36.152 31.0018 36.3152 31.165C36.4783 31.3281 36.57 31.5494 36.57 31.7802V34.9102H32.27V31.7802C32.27 31.5494 32.3617 31.3281 32.5248 31.165C32.688 31.0018 32.9093 30.9102 33.14 30.9102Z" fill="#1D6CEC"/>
<path d="M25 25.8399C25.0345 25.8399 25.0675 25.8536 25.0919 25.878C25.1163 25.9023 25.13 25.9354 25.13 25.9699V27.0699H24.87V25.9999C24.8654 25.9805 24.8653 25.9603 24.8697 25.9409C24.8742 25.9215 24.883 25.9033 24.8956 25.8879C24.9082 25.8724 24.9241 25.86 24.9422 25.8517C24.9603 25.8434 24.9801 25.8394 25 25.8399Z" fill="#1D6CEC"/>
<path d="M26.11 27.0302C26.11 27.0646 26.0963 27.0977 26.0719 27.1221C26.0475 27.1465 26.0145 27.1602 25.98 27.1602H24.88V26.9102H25.98C26.0128 26.9101 26.0444 26.9224 26.0686 26.9446C26.0927 26.9669 26.1075 26.9974 26.11 27.0302Z" fill="#1D6CEC"/>
<path d="M25.05 23.52V22.84V21.73H26.76L26.1 22.25L26.87 22.9L25.13 22.85" stroke="#1D6CEC" stroke-width="0.3" stroke-miterlimit="10"/>
<path d="M31.52 26.1901H28V25.6601L25.09 23.3901L22.19 25.6601V26.1901H18.67L17.67 28.5601H18.25V35.0701H31.86V28.5601H32.58L31.52 26.1901ZM21.49 33.0001C21.49 33.1019 21.4503 33.1996 21.3793 33.2724C21.3083 33.3453 21.2117 33.3875 21.11 33.3901H19.2C19.0983 33.3875 19.0017 33.3453 18.9307 33.2724C18.8597 33.1996 18.82 33.1019 18.82 33.0001V32.0001C18.82 31.8984 18.8597 31.8007 18.9307 31.7278C19.0017 31.655 19.0983 31.6127 19.2 31.6101H21.11C21.2117 31.6127 21.3083 31.655 21.3793 31.7278C21.4503 31.8007 21.49 31.8984 21.49 32.0001V33.0001ZM21.11 31.2601H19.2C19.1085 31.2453 19.0253 31.1985 18.9653 31.1279C18.9052 31.0574 18.8722 30.9678 18.8722 30.8751C18.8722 30.7825 18.9052 30.6929 18.9653 30.6223C19.0253 30.5518 19.1085 30.5049 19.2 30.4901H21.11C21.2015 30.5049 21.2847 30.5518 21.3447 30.6223C21.4048 30.6929 21.4377 30.7825 21.4377 30.8751C21.4377 30.9678 21.4048 31.0574 21.3447 31.1279C21.2847 31.1985 21.2015 31.2453 21.11 31.2601ZM21.11 30.2601H19.2C19.0992 30.2601 19.0026 30.2201 18.9313 30.1488C18.86 30.0776 18.82 29.9809 18.82 29.8801C18.82 29.7784 18.8597 29.6807 18.9307 29.6078C19.0017 29.535 19.0983 29.4927 19.2 29.4901H21.11C21.2117 29.4927 21.3083 29.535 21.3793 29.6078C21.4503 29.6807 21.49 29.7784 21.49 29.8801C21.4874 29.9792 21.4462 30.0733 21.3752 30.1424C21.3042 30.2115 21.2091 30.2502 21.11 30.2501V30.2601ZM26.11 35.0101H24.11V30.8201C24.1099 30.6724 24.1672 30.5303 24.2698 30.424C24.3724 30.3177 24.5123 30.2553 24.66 30.2501H25.55C25.6994 30.2528 25.8419 30.314 25.9466 30.4206C26.0513 30.5272 26.11 30.6707 26.11 30.8201V35.0101ZM25 28.6601C24.6523 28.6681 24.3101 28.5722 24.0171 28.3849C23.7241 28.1975 23.4936 27.927 23.355 27.608C23.2164 27.289 23.176 26.936 23.2389 26.5939C23.3018 26.2519 23.4653 25.9363 23.7083 25.6875C23.9514 25.4388 24.2631 25.2681 24.6036 25.1973C24.9441 25.1264 25.298 25.1587 25.6201 25.2899C25.9422 25.4211 26.2179 25.6453 26.4121 25.9339C26.6062 26.2224 26.7099 26.5623 26.71 26.9101C26.7126 27.1373 26.6705 27.3628 26.586 27.5737C26.5015 27.7846 26.3763 27.9768 26.2175 28.1393C26.0587 28.3018 25.8694 28.4315 25.6605 28.5208C25.4516 28.6102 25.2272 28.6575 25 28.6601ZM31.16 33.0001C31.1575 33.1028 31.1156 33.2005 31.043 33.2731C30.9704 33.3457 30.8726 33.3876 30.77 33.3901H28.87C28.8188 33.3901 28.7681 33.38 28.7208 33.3605C28.6734 33.3409 28.6304 33.3121 28.5942 33.2759C28.558 33.2397 28.5293 33.1967 28.5097 33.1494C28.4901 33.1021 28.48 33.0514 28.48 33.0001V32.0001C28.48 31.9489 28.4901 31.8982 28.5097 31.8509C28.5293 31.8036 28.558 31.7606 28.5942 31.7244C28.6304 31.6882 28.6734 31.6594 28.7208 31.6398C28.7681 31.6202 28.8188 31.6101 28.87 31.6101H30.77C30.8726 31.6127 30.9704 31.6546 31.043 31.7272C31.1156 31.7998 31.1575 31.8975 31.16 32.0001V33.0001ZM30.77 31.2601H28.87C28.8142 31.2692 28.7572 31.2659 28.7028 31.2507C28.6484 31.2355 28.5979 31.2087 28.5549 31.1721C28.5119 31.1355 28.4774 31.09 28.4537 31.0387C28.43 30.9874 28.4177 30.9316 28.4177 30.8751C28.4177 30.8187 28.43 30.7628 28.4537 30.7116C28.4774 30.6603 28.5119 30.6148 28.5549 30.5782C28.5979 30.5416 28.6484 30.5147 28.7028 30.4995C28.7572 30.4843 28.8142 30.4811 28.87 30.4901H30.77C30.8258 30.4811 30.8828 30.4843 30.9372 30.4995C30.9916 30.5147 31.042 30.5416 31.0851 30.5782C31.1281 30.6148 31.1626 30.6603 31.1863 30.7116C31.21 30.7628 31.2222 30.8187 31.2222 30.8751C31.2222 30.9316 31.21 30.9874 31.1863 31.0387C31.1626 31.09 31.1281 31.1355 31.0851 31.1721C31.042 31.2087 30.9916 31.2355 30.9372 31.2507C30.8828 31.2659 30.8258 31.2692 30.77 31.2601ZM30.77 30.2601H28.87C28.8193 30.2615 28.7688 30.2526 28.7215 30.2341C28.6742 30.2156 28.6312 30.1879 28.5948 30.1524C28.5585 30.117 28.5296 30.0747 28.5098 30.0279C28.4901 29.9811 28.48 29.9309 28.48 29.8801C28.48 29.8289 28.4901 29.7782 28.5097 29.7309C28.5293 29.6836 28.558 29.6406 28.5942 29.6044C28.6304 29.5682 28.6734 29.5394 28.7208 29.5198C28.7681 29.5002 28.8188 29.4901 28.87 29.4901H30.77C30.8726 29.4927 30.9704 29.5346 31.043 29.6072C31.1156 29.6798 31.1575 29.7775 31.16 29.8801C31.1549 29.9801 31.1115 30.0742 31.0389 30.1431C30.9663 30.2119 30.8701 30.2503 30.77 30.2501V30.2601Z" fill="#1D6CEC"/>
<defs>
<filter id="filter0_dd_1214_228" x="0.38023" y="0.17364" width="53.2395" height="57.6259" filterUnits="userSpaceOnUse" color-interpolation-filters="sRGB">
<feFlood flood-opacity="0" result="BackgroundImageFix"/>
<feColorMatrix in="SourceAlpha" type="matrix" values="0 0 0 0 0 0 0 0 0 0 0 0 0 0 0 0 0 0 127 0" result="hardAlpha"/>
<feMorphology radius="2.20659" operator="dilate" in="SourceAlpha" result="effect1_dropShadow_1214_228"/>
<feOffset dy="2.20659"/>
<feGaussianBlur stdDeviation="2.20659"/>
<feComposite in2="hardAlpha" operator="out"/>
<feColorMatrix type="matrix" values="0 0 0 0 0.775 0 0 0 0 0.775 0 0 0 0 0.775 0 0 0 0.15 0"/>
<feBlend mode="normal" in2="BackgroundImageFix" result="effect1_dropShadow_1214_228"/>
<feColorMatrix in="SourceAlpha" type="matrix" values="0 0 0 0 0 0 0 0 0 0 0 0 0 0 0 0 0 0 127 0" result="hardAlpha"/>
<feMorphology radius="2.20659" operator="dilate" in="SourceAlpha" result="effect2_dropShadow_1214_228"/>
<feOffset dy="-2.20659"/>
<feGaussianBlur stdDeviation="2.20659"/>
<feComposite in2="hardAlpha" operator="out"/>
<feColorMatrix type="matrix" values="0 0 0 0 0.776471 0 0 0 0 0.776471 0 0 0 0 0.776471 0 0 0 0.15 0"/>
<feBlend mode="normal" in2="effect1_dropShadow_1214_228" result="effect2_dropShadow_1214_228"/>
<feBlend mode="normal" in="SourceGraphic" in2="effect2_dropShadow_1214_228" result="shape"/>
</filter>
</defs>
</svg>
