<svg width="54" height="58" viewBox="0 0 54 58" fill="none" xmlns="http://www.w3.org/2000/svg">
<g filter="url(#filter0_dd_1214_230)">
<ellipse cx="27" cy="28.9866" rx="20" ry="19.9866" fill="white"/>
</g>
<path d="M23 24.4598C23.8836 24.4598 24.6 23.7434 24.6 22.8598C24.6 21.9761 23.8836 21.2598 23 21.2598C22.1163 21.2598 21.4 21.9761 21.4 22.8598C21.4 23.7434 22.1163 24.4598 23 24.4598Z" fill="#055DEB"/>
<path d="M34.26 22.0498H26.96C26.8109 22.0498 26.69 22.1707 26.69 22.3198V29.0898C26.69 29.2389 26.8109 29.3598 26.96 29.3598H34.26C34.4091 29.3598 34.53 29.2389 34.53 29.0898V22.3198C34.53 22.1707 34.4091 22.0498 34.26 22.0498Z" stroke="#055DEB" stroke-width="0.2" stroke-miterlimit="10"/>
<path d="M27.85 35.1501L27.59 35.0801C27.542 35.064 27.5018 35.0303 27.4777 34.9858C27.4536 34.9412 27.4472 34.8892 27.46 34.8401L29 29.3901H29.71L28.08 35.0001C28.0753 35.0254 28.0655 35.0494 28.0512 35.0707C28.037 35.092 28.0185 35.1103 27.997 35.1243C27.9755 35.1383 27.9514 35.1478 27.9262 35.1523C27.9009 35.1567 27.875 35.156 27.85 35.1501Z" fill="#055DEB"/>
<path d="M33.28 35.1501L33.54 35.0801C33.588 35.064 33.6282 35.0303 33.6523 34.9858C33.6764 34.9412 33.6828 34.8892 33.67 34.8401L32.09 29.3901H31.38L33.05 35.0001C33.0547 35.0254 33.0645 35.0494 33.0788 35.0707C33.093 35.092 33.1115 35.1103 33.133 35.1243C33.1545 35.1383 33.1786 35.1478 33.2038 35.1523C33.2291 35.1567 33.255 35.156 33.28 35.1501Z" fill="#055DEB"/>
<path d="M27.83 25.4101C27.7741 25.3526 27.7072 25.3069 27.6334 25.2758C27.5595 25.2446 27.4802 25.2285 27.4 25.2285C27.3198 25.2285 27.2405 25.2446 27.1666 25.2758C27.0928 25.3069 27.0259 25.3526 26.97 25.4101L25.86 26.5101L25.08 25.8101V27.4901C25.08 27.4901 25.43 28.0301 25.82 28.0201H25.93C26.0712 27.9768 26.1987 27.8976 26.3 27.7901H26.36L26.44 27.7101L27.82 26.3301C27.885 26.2726 27.9372 26.2022 27.9732 26.1234C28.0093 26.0445 28.0284 25.959 28.0293 25.8723C28.0303 25.7856 28.013 25.6997 27.9787 25.62C27.9443 25.5404 27.8937 25.4689 27.83 25.4101Z" fill="#055DEB"/>
<path d="M30.116 23.9278L30.08 23.8798C30.0634 23.8578 30.0321 23.8533 30.01 23.8698L27.298 25.9038C27.2759 25.9204 27.2714 25.9518 27.288 25.9738L27.324 26.0218C27.3406 26.0439 27.3719 26.0484 27.394 26.0318L30.106 23.9978C30.1281 23.9813 30.1326 23.9499 30.116 23.9278Z" fill="#055DEB"/>
<path d="M21.51 27.4502L21.14 27.2502L21.51 27.0402V26.7002L21.09 26.8802L20.99 27.2402L21.14 27.5202L21.37 27.6102L21.51 27.5702V27.6802V27.4502Z" fill="#055DEB"/>
<path d="M23.76 24.7798H22.35C22.1792 24.7801 22.0126 24.833 21.873 24.9315C21.7334 25.0299 21.6276 25.169 21.57 25.3298L20.08 26.8198L20 26.9298C19.9028 27.0304 19.8486 27.1649 19.8486 27.3048C19.8486 27.4447 19.9028 27.5791 20 27.6798L21.59 29.2598C21.689 29.3563 21.8218 29.4103 21.96 29.4103C22.0982 29.4103 22.231 29.3563 22.33 29.2598L22.47 29.1198C22.5665 29.0208 22.6205 28.888 22.6205 28.7498C22.6205 28.6115 22.5665 28.4788 22.47 28.3798L21.63 27.5398L21.55 27.4498L21.37 27.2698L22.67 26.1198L21.94 27.1198C22.3351 27.5721 22.6711 28.0728 22.94 28.6098C23.1 29.8598 21.63 29.9098 21.53 29.9098V35.8398C21.53 36.037 21.6076 36.2262 21.7461 36.3666C21.8846 36.507 22.0728 36.5872 22.27 36.5898C22.4698 36.582 22.6585 36.4957 22.7952 36.3497C22.9318 36.2037 23.0054 36.0097 23 35.8098V31.2298H23.38V35.9998C23.38 36.1616 23.4443 36.3167 23.5587 36.4311C23.6731 36.5455 23.8282 36.6098 23.99 36.6098C24.151 36.6072 24.3046 36.5421 24.4185 36.4283C24.5323 36.3144 24.5974 36.1608 24.6 35.9998V25.6198C24.5974 25.3978 24.5081 25.1857 24.3511 25.0287C24.1941 24.8717 23.982 24.7824 23.76 24.7798Z" fill="#055DEB"/>
<defs>
<filter id="filter0_dd_1214_230" x="0.38023" y="0.17364" width="53.2395" height="57.6259" filterUnits="userSpaceOnUse" color-interpolation-filters="sRGB">
<feFlood flood-opacity="0" result="BackgroundImageFix"/>
<feColorMatrix in="SourceAlpha" type="matrix" values="0 0 0 0 0 0 0 0 0 0 0 0 0 0 0 0 0 0 127 0" result="hardAlpha"/>
<feMorphology radius="2.20659" operator="dilate" in="SourceAlpha" result="effect1_dropShadow_1214_230"/>
<feOffset dy="2.20659"/>
<feGaussianBlur stdDeviation="2.20659"/>
<feComposite in2="hardAlpha" operator="out"/>
<feColorMatrix type="matrix" values="0 0 0 0 0.775 0 0 0 0 0.775 0 0 0 0 0.775 0 0 0 0.15 0"/>
<feBlend mode="normal" in2="BackgroundImageFix" result="effect1_dropShadow_1214_230"/>
<feColorMatrix in="SourceAlpha" type="matrix" values="0 0 0 0 0 0 0 0 0 0 0 0 0 0 0 0 0 0 127 0" result="hardAlpha"/>
<feMorphology radius="2.20659" operator="dilate" in="SourceAlpha" result="effect2_dropShadow_1214_230"/>
<feOffset dy="-2.20659"/>
<feGaussianBlur stdDeviation="2.20659"/>
<feComposite in2="hardAlpha" operator="out"/>
<feColorMatrix type="matrix" values="0 0 0 0 0.776471 0 0 0 0 0.776471 0 0 0 0 0.776471 0 0 0 0.15 0"/>
<feBlend mode="normal" in2="effect1_dropShadow_1214_230" result="effect2_dropShadow_1214_230"/>
<feBlend mode="normal" in="SourceGraphic" in2="effect2_dropShadow_1214_230" result="shape"/>
</filter>
</defs>
</svg>
