<svg width="54" height="58" viewBox="0 0 54 58" fill="none" xmlns="http://www.w3.org/2000/svg">
<g filter="url(#filter0_dd_1214_231)">
<ellipse cx="27" cy="28.9866" rx="20" ry="19.9866" fill="white"/>
</g>
<path d="M27.1598 25.6057C28.7078 25.6057 29.9627 24.3508 29.9627 22.8029C29.9627 21.2549 28.7078 20 27.1598 20C25.6118 20 24.3569 21.2549 24.3569 22.8029C24.3569 24.3508 25.6118 25.6057 27.1598 25.6057Z" fill="#055DEB"/>
<path d="M29.24 25.9653C28.9953 26.2386 28.6904 26.4513 28.3494 26.5867C28.0084 26.7221 27.6407 26.7765 27.2751 26.7455C26.932 26.7632 26.5891 26.7065 26.2699 26.5794C25.9507 26.4522 25.6628 26.2575 25.4258 26.0087C24.6974 26.2839 24.0153 26.6688 23.4031 27.15L27.304 28.5948L31.3061 27.15C30.7038 26.6206 30.0012 26.2178 29.24 25.9653Z" fill="#055DEB"/>
<path d="M32.7354 33.1141C32.5257 33.1182 32.3226 33.0406 32.1689 32.8977C32.0153 32.7548 31.9231 32.5579 31.9119 32.3484L31.8397 30.7447C31.8356 30.5349 31.9132 30.3318 32.0561 30.1781C32.199 30.0245 32.3959 29.9324 32.6054 29.9212H32.9811V28.173C32.9804 28.104 32.9633 28.0362 32.9311 27.9751C32.899 27.9141 32.8527 27.8616 32.7962 27.822C32.7397 27.7824 32.6745 27.7569 32.6062 27.7476C32.5378 27.7383 32.4682 27.7454 32.4031 27.7684L27.7365 29.5022V37.0006L32.3887 35.2379C32.5614 35.1714 32.7102 35.0547 32.8158 34.9027C32.9214 34.7507 32.979 34.5706 32.9811 34.3855V33.1141H32.7354Z" fill="#055DEB"/>
<path d="M21.6516 33.1141C21.7638 33.1242 21.8768 33.1107 21.9835 33.0746C22.0901 33.0384 22.1881 32.9804 22.271 32.9043C22.354 32.8281 22.4201 32.7355 22.4652 32.6323C22.5103 32.5291 22.5334 32.4177 22.5329 32.305V30.7013C22.5408 30.4929 22.4665 30.2898 22.3259 30.1357C22.1854 29.9817 21.9899 29.889 21.7816 29.8778H21.406V28.173C21.4067 28.104 21.4238 28.0362 21.4559 27.9751C21.4881 27.9141 21.5343 27.8616 21.5909 27.822C21.6474 27.7824 21.7125 27.7569 21.7809 27.7476C21.8493 27.7383 21.9189 27.7454 21.9839 27.7684L26.6361 29.5022V37.0006L21.9984 35.2379C21.8245 35.1731 21.6746 35.0568 21.5688 34.9044C21.4629 34.7521 21.4061 34.571 21.406 34.3855V33.1141H21.6516Z" fill="#055DEB"/>
<path d="M33.8609 32.5821H33.6586C33.3198 32.6019 32.9869 32.4869 32.7325 32.2623C32.4781 32.0377 32.3228 31.7216 32.3005 31.3829C32.2908 31.214 32.3144 31.0448 32.3702 30.885C32.4259 30.7253 32.5127 30.5781 32.6254 30.4519C32.7382 30.3258 32.8747 30.2231 33.0272 30.1498C33.1797 30.0765 33.3452 30.034 33.5141 30.0248H33.7019C33.7968 30.0189 33.892 30.0319 33.9819 30.0629C34.0718 30.0938 34.1547 30.1423 34.2258 30.2053C34.2969 30.2684 34.3549 30.3449 34.3964 30.4305C34.4379 30.516 34.4621 30.6089 34.4677 30.7039V31.8163C34.4843 31.9975 34.4305 32.1781 34.3175 32.3207C34.2046 32.4632 34.041 32.5568 33.8609 32.5821Z" fill="#055DEB"/>
<path d="M20.6113 32.6259H20.8136C20.9825 32.6356 21.1517 32.6119 21.3115 32.5562C21.4712 32.5004 21.6184 32.4137 21.7446 32.301C21.8707 32.1882 21.9734 32.0517 22.0467 31.8992C22.12 31.7467 22.1625 31.5812 22.1717 31.4122C22.1915 31.0734 22.0766 30.7405 21.8519 30.4861C21.6273 30.2317 21.3112 30.0765 20.9725 30.0542H20.7703C20.6749 30.0463 20.579 30.0578 20.4883 30.088C20.3975 30.1183 20.3138 30.1666 20.2423 30.23C20.1707 30.2935 20.1127 30.3708 20.0719 30.4573C20.031 30.5438 20.0081 30.6376 20.0045 30.7332V31.8312C19.9837 32.0164 20.0352 32.2024 20.1483 32.3505C20.2613 32.4986 20.4272 32.5972 20.6113 32.6259Z" fill="#055DEB"/>
<defs>
<filter id="filter0_dd_1214_231" x="0.38023" y="0.17364" width="53.2395" height="57.6259" filterUnits="userSpaceOnUse" color-interpolation-filters="sRGB">
<feFlood flood-opacity="0" result="BackgroundImageFix"/>
<feColorMatrix in="SourceAlpha" type="matrix" values="0 0 0 0 0 0 0 0 0 0 0 0 0 0 0 0 0 0 127 0" result="hardAlpha"/>
<feMorphology radius="2.20659" operator="dilate" in="SourceAlpha" result="effect1_dropShadow_1214_231"/>
<feOffset dy="2.20659"/>
<feGaussianBlur stdDeviation="2.20659"/>
<feComposite in2="hardAlpha" operator="out"/>
<feColorMatrix type="matrix" values="0 0 0 0 0.775 0 0 0 0 0.775 0 0 0 0 0.775 0 0 0 0.15 0"/>
<feBlend mode="normal" in2="BackgroundImageFix" result="effect1_dropShadow_1214_231"/>
<feColorMatrix in="SourceAlpha" type="matrix" values="0 0 0 0 0 0 0 0 0 0 0 0 0 0 0 0 0 0 127 0" result="hardAlpha"/>
<feMorphology radius="2.20659" operator="dilate" in="SourceAlpha" result="effect2_dropShadow_1214_231"/>
<feOffset dy="-2.20659"/>
<feGaussianBlur stdDeviation="2.20659"/>
<feComposite in2="hardAlpha" operator="out"/>
<feColorMatrix type="matrix" values="0 0 0 0 0.776471 0 0 0 0 0.776471 0 0 0 0 0.776471 0 0 0 0.15 0"/>
<feBlend mode="normal" in2="effect1_dropShadow_1214_231" result="effect2_dropShadow_1214_231"/>
<feBlend mode="normal" in="SourceGraphic" in2="effect2_dropShadow_1214_231" result="shape"/>
</filter>
</defs>
</svg>
