<svg xmlns="http://www.w3.org/2000/svg" width="41.132" height="47.879" viewBox="0 0 41.132 47.879">
  <g id="icon-fee-management" transform="translate(-120.339 -31.716)">
    <path id="Path_459" data-name="Path 459" d="M177.992,45.322c0-1.688-2.516-2.963-5.851-2.963a8.711,8.711,0,0,0-4.633,1.112V38.954a.585.585,0,0,0-.027-.178,1.572,1.572,0,0,0,.027-.294V34.669c0-1.688-2.516-2.953-5.852-2.953s-5.851,1.266-5.851,2.953v3.813a1.714,1.714,0,0,0,.026.294.623.623,0,0,0-.026.178V42.4a8.76,8.76,0,0,0-4.633-1.112c-3.335,0-5.851,1.274-5.851,2.963v3.809a1.707,1.707,0,0,0,.026.294.623.623,0,0,0-.026.179v8.1l-8.159,4.538h-.008a.576.576,0,0,0-.063.041l-.014.009a.557.557,0,0,0-.053.046.61.61,0,0,0-.049.055l-.012.015c-.012.017-.022.033-.033.05l-.008.013c-.012.022-.023.044-.033.067v.006a.541.541,0,0,0-.021.064v.018h0c0,.02-.008.04-.011.06v8.879a.61.61,0,0,0,.316.527l15.189,8.5a.606.606,0,0,0,.3.078.6.6,0,0,0,.223-.043.63.63,0,0,0,.085-.04L174.8,66.629a.606.606,0,0,0,.3-.527V59.667c1.818-.514,2.9-1.466,2.9-2.578V49.6a.616.616,0,0,0-.026-.177,1.715,1.715,0,0,0,.026-.294Zm-1.217,7.962v.128c0,.711-1.8,1.745-4.634,1.745-.127,0-.253,0-.377-.008h0a.574.574,0,0,0-.158.017l-4.1-2.065V50.982a10.22,10.22,0,0,0,9.266,0Zm-30.556,4.239,8.031-4.462a10.47,10.47,0,0,0,4.858,1.227,9.944,9.944,0,0,0,5.15-1.458l3.518,1.774c-.65.87-1.366,2.664-.391,5.953l-9.752,5.42c-4.442-2.672-9.106-.611-10.326.019l-3.031-1.527a6.169,6.169,0,0,0-.012-5.855ZM149.839,54c-2.039-.255-3.3-1.062-3.3-1.664V49.914a10.211,10.211,0,0,0,9.266,0V50.8l-1.842,1.024-.011.006-3.972,2.208a.611.611,0,0,0-.141-.04Zm22.3-3.127c-2.828,0-4.633-1.034-4.633-1.745V47.173a10.22,10.22,0,0,0,9.266,0v1.958c0,.711-1.8,1.745-4.633,1.745Zm-12.657-1.816h0a.609.609,0,0,0-.57.012l-1.9,1.055V48.112a10.211,10.211,0,0,0,9.266,0v1.019a1.675,1.675,0,0,0,.026.294.6.6,0,0,0-.026.177v2.885Zm6.807-3.737v.939c0,.712-1.8,1.746-4.633,1.746s-4.633-1.034-4.633-1.746V44.614a10.211,10.211,0,0,0,9.266,0ZM156.7,51.7h.006l2.519-1.4,3.707,1.868a8.819,8.819,0,0,1-7.383.177Zm9.588-13.214c0,.712-1.8,1.745-4.633,1.745s-4.633-1.033-4.633-1.745V36.524a10.211,10.211,0,0,0,9.266,0Zm-4.633,2.963a8.716,8.716,0,0,0,4.633-1.112v2.426c0,.712-1.8,1.745-4.633,1.745s-4.633-1.033-4.633-1.745V40.333A8.75,8.75,0,0,0,161.656,41.445Zm-5.851,4.816v1.793c0,.711-1.8,1.745-4.633,1.745s-4.633-1.034-4.633-1.745V46.1a10.211,10.211,0,0,0,9.266,0Zm-3.1,22.452-4-2.015a9.6,9.6,0,0,1,7.665-.024Zm-.676,1.023V71.53l-13.976-7.383V62.694Zm-13.976-4.21,13.976,7.383v1.758l-13.976-7.383Zm15.194,7.37,20.632-11.858v1.73L153.247,74.628Zm20.632-13.258L153.247,71.494V69.806l4.655-2.587h.005l15.972-8.878Zm-5.4.307c-.825-3-.023-4.325.407-4.786l4.3,2.168Zm3.663-16.368c2.829,0,4.633,1.034,4.633,1.746s-1.8,1.745-4.633,1.745-4.632-1.034-4.632-1.745,1.8-1.746,4.633-1.746ZM161.657,32.929c2.829,0,4.634,1.034,4.634,1.745s-1.809,1.745-4.634,1.745-4.633-1.033-4.633-1.749S158.829,32.929,161.657,32.929Zm-10.485,9.576c2.829,0,4.633,1.033,4.633,1.745s-1.8,1.745-4.633,1.745-4.633-1.034-4.633-1.745S148.343,42.505,151.172,42.505ZM146.539,54.2a6.274,6.274,0,0,0,1.793.754l-1.793,1Zm-3.331,5a4.88,4.88,0,0,1-.02,4.719l-4.444-2.239Zm-5.155,10.946V68.668l13.976,7.383v1.913Zm15.194,7.788v-1.9l20.632-11.856v1.577ZM175.1,58.4V57.29a.119.119,0,0,0,0-.023v-.034h0a.61.61,0,0,0-.33-.475l-.978-.493a7.429,7.429,0,0,0,2.99-1v1.83c0,.381-.535.919-1.682,1.308Z" transform="translate(-16.521)" fill="#5028a0"/>
  </g>
</svg>
