<svg xmlns="http://www.w3.org/2000/svg" width="46.9" height="49.281" viewBox="0 0 46.9 49.281">
  <g id="icon-joinclass" transform="translate(-2.248 -1.1)">
    <path id="Path_2212" data-name="Path 2212" d="M3.056,30.383H7.5a6.813,6.813,0,0,0-.238,1.349,5.079,5.079,0,1,0,5.079-5.079,4.93,4.93,0,0,0-4.444,2.7H3.611V2.211H48.13V29.272H44.163a5.143,5.143,0,0,0-4.92-3.65A5.079,5.079,0,1,0,44.321,30.7v-.317h4.285a.542.542,0,0,0,.556-.556V1.656a.542.542,0,0,0-.556-.556H3.056a.542.542,0,0,0-.556.556V29.748c.079.317.238.635.556.635Zm9.285-2.7a4.047,4.047,0,1,1-4.047,4.047A4.064,4.064,0,0,1,12.34,27.685Zm26.981,7.063A4.047,4.047,0,1,1,43.369,30.7,4.064,4.064,0,0,1,39.322,34.747Z" transform="translate(-0.052)" fill="#5028a0"/>
    <path id="Path_2213" data-name="Path 2213" d="M30.29,41.38a6.19,6.19,0,1,0-6.19-6.19A6.2,6.2,0,0,0,30.29,41.38Zm0-11.269a5.158,5.158,0,1,1-5.158,5.158A5.148,5.148,0,0,1,30.29,30.111Z" transform="translate(-4.511 -5.759)" fill="#5028a0"/>
    <path id="Path_2214" data-name="Path 2214" d="M49.11,53.422c-.079-3.968-4.444-7.222-9.92-7.222A11.72,11.72,0,0,0,32.6,48.1a14.768,14.768,0,0,0-6.9-1.587A14.815,14.815,0,0,0,18,48.581a12.474,12.474,0,0,0-5.793-1.349c-5.4-.079-9.84,3.174-9.92,7.142a1.635,1.635,0,0,0,.317,1.349c1.032,1.508,4.285,2.222,9.523,2.222,1.032,0,1.984-.079,2.857-.079,1.9,1.19,5.476,1.825,10.634,1.825,6.428,0,10.316-.873,11.666-2.7.556,0,1.19.079,1.825.079,5.238,0,8.491-.794,9.523-2.222.556-.714.556-1.27.476-1.428ZM12.288,56.913c-6.269,0-8.094-1.111-8.65-1.825a1.029,1.029,0,0,1-.238-.556c0-.079.079-.079.079-.159,0-3.412,3.968-6.269,8.809-6.269a11.346,11.346,0,0,1,4.761,1.032,7.864,7.864,0,0,0-3.412,6.111,2.041,2.041,0,0,0,.4,1.587,11.736,11.736,0,0,1-1.746.079Zm24.283-.556c-.635.873-2.936,2.222-10.793,2.222s-10.158-1.349-10.793-2.222c-.4-.476-.238-.794-.238-.794,0-.079.079-.079.079-.159,0-4.285,4.92-7.856,11.031-7.856s11.031,3.492,11.031,7.856v.159s.079.317-.317.794ZM47.84,54.136c-.556.714-2.3,1.825-8.65,1.825H37.841a1.649,1.649,0,0,0,0-.635,8.239,8.239,0,0,0-4.206-6.666,11.313,11.313,0,0,1,5.555-1.428C44.11,47.232,48,50.009,48,53.5v.159c.079-.079.079.238-.159.476Z" transform="translate(0 -9.31)" fill="#5028a0"/>
    <path id="Path_2215" data-name="Path 2215" d="M22,9.4H7.956a.556.556,0,1,0,0,1.111H22a.542.542,0,0,0,.556-.556A.668.668,0,0,0,22,9.4Z" transform="translate(-1.064 -1.713)" fill="#5028a0"/>
    <path id="Path_2216" data-name="Path 2216" d="M22,15.5H7.956a.556.556,0,0,0,0,1.111H22a.542.542,0,0,0,.556-.556A.668.668,0,0,0,22,15.5Z" transform="translate(-1.064 -2.973)" fill="#5028a0"/>
    <path id="Path_2217" data-name="Path 2217" d="M15.971,21.6H7.956a.556.556,0,0,0,0,1.111h8.015a.542.542,0,0,0,.556-.556.6.6,0,0,0-.556-.556Z" transform="translate(-1.064 -4.232)" fill="#5028a0"/>
    <path id="Path_2218" data-name="Path 2218" d="M51.445,9.981c-.4-.952-1.984-1.19-4.682-.556a6.834,6.834,0,0,0-4.6-1.825,6.74,6.74,0,0,0-6.745,6.745v.079c-2.063,1.508-2.936,2.7-2.539,3.65.238.556.952.873,2.063.873a15.776,15.776,0,0,0,1.746-.159,3.437,3.437,0,0,1,.4-.079,6.667,6.667,0,0,0,5.079,2.3,6.74,6.74,0,0,0,6.745-6.745,2.2,2.2,0,0,0-.079-.714c1.9-1.19,3.095-2.539,2.619-3.571ZM33.828,17.758c-.079-.238.238-.873,1.666-2.063a6.415,6.415,0,0,0,.873,2.143c-1.9.4-2.46.079-2.539-.079Zm3.65,0a5.372,5.372,0,0,1-1.032-3.333,5.7,5.7,0,0,1,11.269-1.19,28.934,28.934,0,0,1-4.841,2.619,56.236,56.236,0,0,1-5.4,1.9Zm4.682,2.381a5.667,5.667,0,0,1-3.889-1.508,30.379,30.379,0,0,0,5.079-1.825,34.687,34.687,0,0,0,4.523-2.381,5.741,5.741,0,0,1-5.714,5.714Zm6.507-7.618A8.326,8.326,0,0,0,47.557,10.3c1.984-.4,2.857-.159,2.936.079.079.317-.476,1.111-1.825,2.143Z" transform="translate(-6.303 -1.342)" fill="#5028a0"/>
  </g>
</svg>
