<svg xmlns="http://www.w3.org/2000/svg" width="52.595" height="48.501" viewBox="0 0 52.595 48.501">
  <g id="noun_online_exam_3626921" data-name="noun_online exam_3626921" transform="translate(0.272 0.25)">
    <g id="Group_227" data-name="Group 227" transform="translate(0 0)">
      <path id="Path_352" data-name="Path 352" d="M730.144,559.463h-7.238a.607.607,0,0,1,0-1.213h6.631V546.207a.607.607,0,0,1,1.214,0v12.649A.6.6,0,0,1,730.144,559.463Z" transform="translate(-683.55 -519.561)" fill="#5028a0" stroke="#5028a0" stroke-width="0.5"/>
      <path id="Path_353" data-name="Path 353" d="M730.144,313.189a.609.609,0,0,1-.607-.607v-6.977a.691.691,0,0,0-.692-.692h-5.94a.607.607,0,0,1,0-1.213h5.94a1.908,1.908,0,0,1,1.9,1.9v6.983A.6.6,0,0,1,730.144,313.189Z" transform="translate(-683.55 -292.337)" fill="#5028a0" stroke="#5028a0" stroke-width="0.5"/>
      <path id="Path_354" data-name="Path 354" d="M192.771,332.238H163.007a.609.609,0,0,1-.607-.607V305.605a1.908,1.908,0,0,1,1.905-1.9h14.737a.607.607,0,1,1,0,1.213H164.3a.691.691,0,0,0-.692.692v25.426h29.158a.6.6,0,1,1,0,1.207Z" transform="translate(-157.619 -292.337)" fill="#5028a0" stroke="#5028a0" stroke-width="0.5"/>
      <path id="Path_355" data-name="Path 355" d="M133.892,763.442H85.271a1.679,1.679,0,0,1-1.365-2.657l4.574-6.4a.609.609,0,0,1,.989.71l-4.574,6.4a.459.459,0,0,0-.036.485.447.447,0,0,0,.413.255h48.614a.447.447,0,0,0,.413-.255.459.459,0,0,0-.036-.485l-4.568-6.4a.609.609,0,0,1,.989-.71l4.574,6.4a1.679,1.679,0,0,1-1.365,2.657Z" transform="translate(-83.59 -715.441)" fill="#5028a0" stroke="#5028a0" stroke-width="0.5"/>
      <path id="Path_356" data-name="Path 356" d="M382.522,840.626H365.936a.6.6,0,0,1-.546-.346.605.605,0,0,1,.079-.643l2.572-3.119a.6.6,0,0,1,.467-.218H379.95a.6.6,0,0,1,.467.218l2.572,3.119a.593.593,0,0,1,.079.643A.609.609,0,0,1,382.522,840.626Zm-15.3-1.213H381.23l-1.571-1.905H368.793Z" transform="translate(-348.238 -792.625)" fill="#5028a0" stroke="#5028a0" stroke-width="0.5"/>
      <path id="Path_357" data-name="Path 357" d="M436.976,178.953a9.476,9.476,0,0,1-6.71-16.168,9.4,9.4,0,0,1,6.68-2.785h.03a9.368,9.368,0,0,1,2.057.224,9.476,9.476,0,0,1-2.057,18.728Zm-.03-17.746a8.279,8.279,0,0,0-8.239,8.263,8.121,8.121,0,0,0,.225,1.917,8.027,8.027,0,0,0,1.08,2.536,8.389,8.389,0,0,0,1.583,1.82,8.272,8.272,0,0,0,13.426-4.356,8.45,8.45,0,0,0,.224-1.917,8.311,8.311,0,0,0-6.473-8.069,8.437,8.437,0,0,0-1.8-.194Z" transform="translate(-406.635 -157.355)" fill="#5028a0" stroke="#5028a0" stroke-width="0.5"/>
      <path id="Path_358" data-name="Path 358" d="M577.653,260.411a.622.622,0,0,1-.431-.176l-3.446-3.446a.6.6,0,0,1-.176-.431v-3.252a.607.607,0,1,1,1.213,0v3l3.264,3.264a.6.6,0,0,1,0,.855A.557.557,0,0,1,577.653,260.411Z" transform="translate(-543.872 -244.243)" fill="#5028a0" stroke="#5028a0" stroke-width="0.5"/>
      <path id="Path_359" data-name="Path 359" d="M574.307,120.252a.608.608,0,0,1-.607-.607v-2.639a.607.607,0,1,1,1.213,0v2.639A.6.6,0,0,1,574.307,120.252Z" transform="translate(-543.965 -116.4)" fill="#5028a0" stroke="#5028a0" stroke-width="0.5"/>
      <path id="Path_360" data-name="Path 360" d="M385.554,530.113H369.507a.607.607,0,1,1,0-1.213h16.047a.607.607,0,0,1,0,1.213Z" transform="translate(-351.59 -503.874)" fill="#5028a0" stroke="#5028a0" stroke-width="0.5"/>
      <path id="Path_361" data-name="Path 361" d="M252.635,631.042h-3.828a.608.608,0,0,1-.607-.607v-3.828a.608.608,0,0,1,.607-.607h3.828a.608.608,0,0,1,.607.607v3.828A.6.6,0,0,1,252.635,631.042Zm-3.228-1.214h2.615v-2.615h-2.615Z" transform="translate(-238.213 -595.083)" fill="#5028a0" stroke="#5028a0" stroke-width="0.5"/>
      <path id="Path_362" data-name="Path 362" d="M383.734,658.813H369.507a.607.607,0,1,1,0-1.213h14.227a.607.607,0,1,1,0,1.213Z" transform="translate(-351.59 -624.766)" fill="#5028a0" stroke="#5028a0" stroke-width="0.5"/>
      <path id="Path_363" data-name="Path 363" d="M833.286,420.822a.622.622,0,0,1-.431-.176l-2.469-2.469-.018-.018-.716-.716a.6.6,0,0,1,0-.855l2.075-2.075a1.392,1.392,0,0,1,1.978,0l2.081,2.081a1.4,1.4,0,0,1,0,1.978h0l-2.069,2.075A.587.587,0,0,1,833.286,420.822Zm-2.02-3.488,2.026,2.026,1.644-1.644a.183.183,0,0,0,0-.261l-2.081-2.081a.192.192,0,0,0-.133-.055.2.2,0,0,0-.133.055l-1.644,1.644.3.3C831.254,417.321,831.26,417.328,831.266,417.334Zm4.1.807Z" transform="translate(-784.223 -396.039)" fill="#5028a0" stroke="#5028a0" stroke-width="0.5"/>
      <path id="Path_364" data-name="Path 364" d="M675.8,466.272h-3.2a.608.608,0,0,1-.607-.607v-3.2a.627.627,0,0,1,.176-.431l9.561-9.561a.6.6,0,0,1,.431-.176.626.626,0,0,1,.431.176l.728.728.018.018,2.451,2.451a.6.6,0,0,1,.176.431.627.627,0,0,1-.176.431l-7.978,7.972-1.59,1.589A.612.612,0,0,1,675.8,466.272Zm-2.6-1.213h2.342l1.414-1.407,7.547-7.547-2.039-2.039-.018-.018-.285-.285-8.961,8.955Z" transform="translate(-636.302 -431.922)" fill="#5028a0" stroke="#5028a0" stroke-width="0.5"/>
      <path id="Path_365" data-name="Path 365" d="M548.383,118.013h-3.476a.607.607,0,1,1,0-1.213h3.476a.607.607,0,1,1,0,1.213Z" transform="translate(-516.349 -116.776)" fill="#5028a0" stroke="#5028a0" stroke-width="0.5"/>
      <path id="Path_366" data-name="Path 366" d="M480.437,232.816a.567.567,0,0,1-.261-.061,6.515,6.515,0,0,1-2.651-2.354,6.431,6.431,0,0,1-.849-2,6.671,6.671,0,0,1-.176-1.511,6.509,6.509,0,0,1,3.349-5.691.607.607,0,0,1,.588,1.062,5.3,5.3,0,0,0-.874,8.657,5.5,5.5,0,0,0,1.147.752.6.6,0,0,1,.279.813A.632.632,0,0,1,480.437,232.816Z" transform="translate(-452.663 -214.767)" fill="#5028a0" stroke="#5028a0" stroke-width="0.5"/>
      <path id="Path_367" data-name="Path 367" d="M571.671,404.712h-.188a.607.607,0,0,1,.036-1.213h.152a.607.607,0,1,1,0,1.213Z" transform="translate(-541.329 -386.08)" fill="#5028a0" stroke="#5028a0" stroke-width="0.5"/>
      <path id="Path_368" data-name="Path 368" d="M375,400.413h-5.491a.607.607,0,1,1,0-1.213H375a.607.607,0,1,1,0,1.213Z" transform="translate(-351.59 -382.043)" fill="#5028a0" stroke="#5028a0" stroke-width="0.5"/>
      <path id="Path_369" data-name="Path 369" d="M253.3,383.871a.621.621,0,0,1-.431-.176l-1.116-1.116a.6.6,0,0,1,.855-.855l.686.686,1.856-1.857a.6.6,0,1,1,.855.855l-2.281,2.281A.569.569,0,0,1,253.3,383.871Z" transform="translate(-241.384 -364.36)" fill="#5028a0" stroke="#5028a0" stroke-width="0.5"/>
      <path id="Path_370" data-name="Path 370" d="M256.283,508.9a.621.621,0,0,1-.431-.176.6.6,0,0,1,0-.855l2.912-2.912a.6.6,0,0,1,.855.855l-2.912,2.912A.607.607,0,0,1,256.283,508.9Z" transform="translate(-245.235 -481.213)" fill="#5028a0" stroke="#5028a0" stroke-width="0.5"/>
      <path id="Path_371" data-name="Path 371" d="M259.2,508.9a.621.621,0,0,1-.431-.176l-2.912-2.912a.6.6,0,1,1,.855-.855l2.912,2.912a.6.6,0,0,1-.425,1.031Z" transform="translate(-245.235 -481.213)" fill="#5028a0" stroke="#5028a0" stroke-width="0.5"/>
    </g>
  </g>
</svg>
