<svg xmlns="http://www.w3.org/2000/svg" width="51.498" height="50.525" viewBox="0 0 51.498 50.525">
  <g id="Group_179" data-name="Group 179" transform="translate(0.165 0.208)">
    <path id="Path_291" data-name="Path 291" d="M501.713,115.682a.29.29,0,0,1-.071-.006.588.588,0,0,1-.515-.657c.136-1.154.172-4.4-1.3-5.559a.59.59,0,1,1,.734-.924c2.291,1.812,1.758,6.435,1.735,6.631A.588.588,0,0,1,501.713,115.682Z" transform="translate(-474.753 -107.225)" fill="#5028a0" stroke="#5028a0" stroke-width="0.33"/>
    <path id="Path_295" data-name="Path 295" d="M193.335,747.44H148.443A1.143,1.143,0,0,1,147.3,746.3v-9.555a1.143,1.143,0,0,1,1.143-1.143h44.887a1.143,1.143,0,0,1,1.143,1.143V746.3A1.138,1.138,0,0,1,193.335,747.44Zm-44.851-1.184h44.81v-9.472h-44.81Z" transform="translate(-143.304 -697.289)" fill="#5028a0" stroke="#5028a0" stroke-width="0.33"/>
    <path id="Path_296" data-name="Path 296" d="M360.792,788.511a.594.594,0,0,1-.592-.592v-5.127a.592.592,0,1,1,1.184,0v5.127A.586.586,0,0,1,360.792,788.511Z" transform="translate(-343.6 -741.13)" fill="#5028a0" stroke="#5028a0" stroke-width="0.33"/>
    <path id="Path_297" data-name="Path 297" d="M423.492,788.511a.594.594,0,0,1-.592-.592v-5.127a.592.592,0,1,1,1.184,0v5.127A.59.59,0,0,1,423.492,788.511Z" transform="translate(-402.588 -741.13)" fill="#5028a0" stroke="#5028a0" stroke-width="0.33"/>
    <path id="Path_298" data-name="Path 298" d="M125.243,595.064h-44.3a1.143,1.143,0,0,1-1.143-1.143v-7.779A1.143,1.143,0,0,1,80.943,585h44.295a1.143,1.143,0,0,1,1.143,1.143v7.779A1.134,1.134,0,0,1,125.243,595.064ZM80.984,593.88H125.2v-7.7H80.984Z" transform="translate(-79.8 -555.604)" fill="#5028a0" stroke="#5028a0" stroke-width="0.33"/>
    <path id="Path_299" data-name="Path 299" d="M215.966,791.332a2.966,2.966,0,1,1,2.966-2.966A2.971,2.971,0,0,1,215.966,791.332Zm0-4.742a1.782,1.782,0,1,0,1.782,1.782A1.784,1.784,0,0,0,215.966,786.59Z" transform="translate(-205.114 -744.14)" fill="#5028a0" stroke="#5028a0" stroke-width="0.33"/>
    <path id="Path_300" data-name="Path 300" d="M725.081,747.44h-5.588a.594.594,0,0,1-.592-.592V736.192a.594.594,0,0,1,.592-.592h5.588a.594.594,0,0,1,.592.592v10.656A.594.594,0,0,1,725.081,747.44Zm-5-1.184h4.4v-9.472h-4.4Z" transform="translate(-681.064 -697.289)" fill="#5028a0" stroke="#5028a0" stroke-width="0.33"/>
    <path id="Path_301" data-name="Path 301" d="M184.891,595.064h-4.4a.594.594,0,0,1-.592-.592v-8.88a.594.594,0,0,1,.592-.592h4.4a.594.594,0,0,1,.592.592v8.88A.59.59,0,0,1,184.891,595.064Zm-3.813-1.184h3.215v-7.7h-3.215Z" transform="translate(-173.974 -555.604)" fill="#5028a0" stroke="#5028a0" stroke-width="0.33"/>
    <path id="Path_302" data-name="Path 302" d="M403.855,661.184h-8.063a.592.592,0,1,1,0-1.184h8.063a.592.592,0,1,1,0,1.184Z" transform="translate(-376.528 -626.164)" fill="#5028a0" stroke="#5028a0" stroke-width="0.33"/>
    <path id="Path_303" data-name="Path 303" d="M226.1,495.3H185.943a1.143,1.143,0,0,1-1.143-1.142v-4.618a1.143,1.143,0,0,1,1.143-1.143h40.15a1.143,1.143,0,0,1,1.143,1.143v4.618A1.134,1.134,0,0,1,226.1,495.3Zm-40.115-1.184h40.074v-4.541H185.984Z" transform="translate(-178.584 -464.723)" fill="#5028a0" stroke="#5028a0" stroke-width="0.33"/>
    <path id="Path_304" data-name="Path 304" d="M771.392,495.209a.594.594,0,0,1-.592-.592v-5.725a.592.592,0,1,1,1.184,0v5.725A.59.59,0,0,1,771.392,495.209Z" transform="translate(-729.892 -464.629)" fill="#5028a0" stroke="#5028a0" stroke-width="0.33"/>
    <path id="Path_305" data-name="Path 305" d="M296.292,495.209a.594.594,0,0,1-.592-.592v-5.725a.592.592,0,1,1,1.184,0v5.725A.59.59,0,0,1,296.292,495.209Z" transform="translate(-282.918 -464.629)" fill="#5028a0" stroke="#5028a0" stroke-width="0.33"/>
    <path id="Path_306" data-name="Path 306" d="M366.016,206.53c-1.4,0-3.067-.829-4.9-4.073a14.67,14.67,0,0,1-2.137-7.968,7.915,7.915,0,0,1,2.4-5.405,5.745,5.745,0,0,1,5.63-1.279,8.976,8.976,0,0,1,2.386,1.042,8.977,8.977,0,0,1,2.386-1.042,5.76,5.76,0,0,1,5.63,1.279,7.941,7.941,0,0,1,2.4,5.405,14.62,14.62,0,0,1-2.137,7.968h0c-2.954,5.228-5.47,4.191-7.14,3.5a3.609,3.609,0,0,0-1.137-.349,3.46,3.46,0,0,0-1.137.349A5.875,5.875,0,0,1,366.016,206.53Zm-.787-17.79a4.4,4.4,0,0,0-3.049,1.214c-2.054,1.883-3.292,6.139-.03,11.917,2.439,4.316,4.073,3.641,5.66,2.99a3.1,3.1,0,0,1,3.179,0c1.581.651,3.221,1.326,5.66-2.99h0c3.268-5.778,2.025-10.035-.03-11.917a4.564,4.564,0,0,0-4.487-1.018,7.732,7.732,0,0,0-2.374,1.1.6.6,0,0,1-.7,0,7.985,7.985,0,0,0-2.374-1.1A5.835,5.835,0,0,0,365.229,188.74Z" transform="translate(-342.437 -181.693)" fill="#5028a0" stroke="#5028a0" stroke-width="0.33"/>
    <path id="Path_307" data-name="Path 307" d="M526.724,93.929c-.379,0-.627-.03-.663-.03a.584.584,0,0,1-.521-.551,4.3,4.3,0,0,1,1.22-3.617c1.723-1.61,4.6-1.237,4.718-1.22a.594.594,0,0,1,.509.562,4.355,4.355,0,0,1-1.279,3.534A5.976,5.976,0,0,1,526.724,93.929Zm-.012-1.184a4.848,4.848,0,0,0,3.2-1.006,2.986,2.986,0,0,0,.894-2.09,4.753,4.753,0,0,0-3.238.953A2.928,2.928,0,0,0,526.712,92.745Z" transform="translate(-499.136 -88.462)" fill="#5028a0" stroke="#5028a0" stroke-width="0.33"/>
    <path id="Path_308" data-name="Path 308" d="M677.391,595.064h-4.4a.594.594,0,0,1-.592-.592v-8.88a.594.594,0,0,1,.592-.592h4.4a.594.594,0,0,1,.592.592v8.88A.59.59,0,0,1,677.391,595.064Zm-3.812-1.184h3.215v-7.7h-3.215Z" transform="translate(-637.317 -555.604)" fill="#5028a0" stroke="#5028a0" stroke-width="0.33"/>
  </g>
</svg>
