<svg xmlns="http://www.w3.org/2000/svg" width="47.784" height="48.253" viewBox="0 0 47.784 48.253">
  <g id="noun_Assignment_2400663" transform="translate(0.125 0.127)">
    <g id="Group_226" data-name="Group 226" transform="translate(0 0)">
      <g id="Group_225" data-name="Group 225" transform="translate(0 0)">
        <g id="Group_209" data-name="Group 209" transform="translate(3.034 6.535)">
          <path id="Path_336" data-name="Path 336" d="M107.5,137.443H67.049a1.011,1.011,0,0,1-1.011-1.011V96.989a1.011,1.011,0,0,1,1.011-1.011H107.5a1.011,1.011,0,0,1,1.011,1.011v39.443A1.011,1.011,0,0,1,107.5,137.443Zm-39.443-2.023h38.432V98H68.061Z" transform="translate(-66.038 -95.978)" fill="#5028a0" stroke="#fff" stroke-width="0.25"/>
        </g>
        <g id="Group_210" data-name="Group 210" transform="translate(6.415 0.158)">
          <path id="Path_337" data-name="Path 337" d="M133.952,45.95H98.024a1.011,1.011,0,1,1,0-2.023h35.928a2.16,2.16,0,0,0,2.157-2.157,2.183,2.183,0,0,0-2.157-2.2H100.3a4.836,4.836,0,0,1,.507,2.157,1.011,1.011,0,0,1-2.023,0,2.823,2.823,0,0,0-1.236-2.333,1.011,1.011,0,0,1,.57-1.847h35.835a4.2,4.2,0,0,1,0,8.407Z" transform="translate(-97.013 -37.543)" fill="#5028a0" stroke="#fff" stroke-width="0.25"/>
        </g>
        <g id="Group_211" data-name="Group 211">
          <path id="Path_338" data-name="Path 338" d="M42.284,63.871H39.25a1.011,1.011,0,0,1-1.011-1.011V41.621a5.641,5.641,0,0,1,1.775-4.169,5.2,5.2,0,0,1,4.01-1.334l1.812.139a1.012,1.012,0,0,1,.492.173,4.844,4.844,0,0,1,2.119,4,1.011,1.011,0,0,1-2.023,0,2.821,2.821,0,0,0-1.035-2.183l-1.526-.117h-.011a3.2,3.2,0,0,0-2.472.81,3.616,3.616,0,0,0-1.119,2.677V61.849h2.023a1.011,1.011,0,0,1,0,2.023Z" transform="translate(-38.239 -36.097)" fill="#5028a0" stroke="#fff" stroke-width="0.25"/>
        </g>
        <g id="Group_212" data-name="Group 212" transform="translate(6.415 3.326)">
          <path id="Path_339" data-name="Path 339" d="M98.024,71.813a1.011,1.011,0,0,1-.527-1.875,2.752,2.752,0,0,0,1.285-2.351,1.011,1.011,0,0,1,2.023,0,4.786,4.786,0,0,1-2.256,4.079A1.008,1.008,0,0,1,98.024,71.813Z" transform="translate(-97.012 -66.575)" fill="#5028a0" stroke="#fff" stroke-width="0.25"/>
        </g>
        <g id="Group_213" data-name="Group 213" transform="translate(6.415 3.326)">
          <path id="Path_340" data-name="Path 340" d="M98.024,71.813a1.011,1.011,0,0,1-.527-1.875,2.752,2.752,0,0,0,1.285-2.351,1.011,1.011,0,0,1,2.023,0,4.786,4.786,0,0,1-2.256,4.079A1.008,1.008,0,0,1,98.024,71.813Z" transform="translate(-97.012 -66.575)" fill="#5028a0" stroke="#fff" stroke-width="0.25"/>
        </g>
        <rect id="Rectangle_276" data-name="Rectangle 276" width="2.023" height="2.023" transform="translate(29.33 11.592)" fill="#5028a0" stroke="#fff" stroke-width="0.25"/>
        <rect id="Rectangle_277" data-name="Rectangle 277" width="2.023" height="2.023" transform="translate(25.284 11.592)" fill="#5028a0" stroke="#fff" stroke-width="0.25"/>
        <rect id="Rectangle_278" data-name="Rectangle 278" width="2.023" height="2.023" transform="translate(21.239 11.592)" fill="#5028a0" stroke="#fff" stroke-width="0.25"/>
        <rect id="Rectangle_279" data-name="Rectangle 279" width="2.023" height="2.023" transform="translate(17.193 11.592)" fill="#5028a0" stroke="#fff" stroke-width="0.25"/>
        <g id="Group_214" data-name="Group 214" transform="translate(7.08 16.649)">
          <path id="Path_341" data-name="Path 341" d="M126.366,190.666h-22.25a1.011,1.011,0,0,1,0-2.023h22.25a1.011,1.011,0,1,1,0,2.023Z" transform="translate(-103.105 -188.643)" fill="#5028a0" stroke="#fff" stroke-width="0.25"/>
        </g>
        <g id="Group_215" data-name="Group 215" transform="translate(7.08 20.694)">
          <path id="Path_342" data-name="Path 342" d="M126.366,227.731h-22.25a1.011,1.011,0,0,1,0-2.023h22.25a1.011,1.011,0,1,1,0,2.023Z" transform="translate(-103.105 -225.708)" fill="#5028a0" stroke="#fff" stroke-width="0.25"/>
        </g>
        <g id="Group_216" data-name="Group 216" transform="translate(7.08 24.74)">
          <path id="Path_343" data-name="Path 343" d="M126.366,264.8h-22.25a1.011,1.011,0,0,1,0-2.023h22.25a1.011,1.011,0,1,1,0,2.023Z" transform="translate(-103.105 -262.774)" fill="#5028a0" stroke="#fff" stroke-width="0.25"/>
        </g>
        <g id="Group_217" data-name="Group 217" transform="translate(7.08 28.785)">
          <path id="Path_344" data-name="Path 344" d="M126.366,301.862h-22.25a1.011,1.011,0,0,1,0-2.023h22.25a1.011,1.011,0,1,1,0,2.023Z" transform="translate(-103.105 -299.839)" fill="#5028a0" stroke="#fff" stroke-width="0.25"/>
        </g>
        <g id="Group_218" data-name="Group 218" transform="translate(7.08 32.831)">
          <path id="Path_345" data-name="Path 345" d="M126.366,338.927h-22.25a1.011,1.011,0,0,1,0-2.023h22.25a1.011,1.011,0,1,1,0,2.023Z" transform="translate(-103.105 -336.904)" fill="#5028a0" stroke="#fff" stroke-width="0.25"/>
        </g>
        <g id="Group_219" data-name="Group 219" transform="translate(7.08 36.876)">
          <path id="Path_346" data-name="Path 346" d="M126.366,375.993h-22.25a1.011,1.011,0,0,1,0-2.023h22.25a1.011,1.011,0,1,1,0,2.023Z" transform="translate(-103.105 -373.97)" fill="#5028a0" stroke="#fff" stroke-width="0.25"/>
        </g>
        <g id="Group_220" data-name="Group 220" transform="translate(22.737 40.921)">
          <path id="Path_347" data-name="Path 347" d="M254.166,413.059h-6.592a1.011,1.011,0,1,1,0-2.023h6.592a1.011,1.011,0,1,1,0,2.023Z" transform="translate(-246.562 -411.036)" fill="#5028a0" stroke="#fff" stroke-width="0.25"/>
        </g>
        <g id="Group_221" data-name="Group 221" transform="translate(33.375 21.706)">
          <path id="Path_348" data-name="Path 348" d="M349.088,253.179h-4.046a1.011,1.011,0,0,1-1.011-1.011V235.986a1.011,1.011,0,0,1,1.011-1.011h4.046a1.011,1.011,0,0,1,1.011,1.011v16.182A1.011,1.011,0,0,1,349.088,253.179Zm-3.034-2.023h2.023V237h-2.023Z" transform="translate(-344.031 -234.975)" fill="#5028a0" stroke="#fff" stroke-width="0.25"/>
        </g>
        <g id="Group_222" data-name="Group 222" transform="translate(33.375 37.887)">
          <path id="Path_349" data-name="Path 349" d="M349.088,388.293h-4.046a1.011,1.011,0,0,1-1.011-1.011v-3.034a1.011,1.011,0,0,1,1.011-1.011h4.046a1.011,1.011,0,0,1,1.011,1.011v3.034A1.011,1.011,0,0,1,349.088,388.293Zm-3.034-2.023h2.023v-1.011h-2.023Z" transform="translate(-344.031 -383.236)" fill="#5028a0" stroke="#fff" stroke-width="0.25"/>
        </g>
        <g id="Group_223" data-name="Group 223" transform="translate(33.375 15.638)">
          <path id="Path_350" data-name="Path 350" d="M349.087,187.468h-4.045a1.011,1.011,0,0,1-.959-1.331l2.023-6.068a1.011,1.011,0,0,1,1.919,0l2.023,6.068a1.011,1.011,0,0,1-.96,1.331Zm-2.642-2.023h1.239l-.62-1.859Z" transform="translate(-344.03 -179.377)" fill="#5028a0" stroke="#fff" stroke-width="0.25"/>
        </g>
        <g id="Group_224" data-name="Group 224" transform="translate(37.42 30.808)">
          <path id="Path_351" data-name="Path 351" d="M385.141,327.474h-3.034a1.011,1.011,0,0,1,0-2.023h2.023v-6.068a1.011,1.011,0,0,1,2.023,0v7.079A1.012,1.012,0,0,1,385.141,327.474Z" transform="translate(-381.096 -318.372)" fill="#5028a0" stroke="#fff" stroke-width="0.25"/>
        </g>
      </g>
    </g>
  </g>
</svg>
