<svg width="20" height="19" viewBox="0 0 20 19" fill="none" xmlns="http://www.w3.org/2000/svg">
<path d="M11 13H15V10L20 14.5L15 19V16H11V13ZM18 0H2C1.46957 0 0.960859 0.210714 0.585786 0.585786C0.210714 0.960859 0 1.46957 0 2V14C0 14.5304 0.210714 15.0391 0.585786 15.4142C0.960859 15.7893 1.46957 16 2 16H9.35C9.11664 15.3591 8.99816 14.6821 9 14C9.00142 12.7116 9.41751 11.4579 10.1867 10.4244C10.9559 9.39084 12.0374 8.63234 13.2711 8.2611C14.5048 7.88986 15.8253 7.9256 17.0371 8.36303C18.249 8.80047 19.2878 9.61636 20 10.69V2C20 1.46957 19.7893 0.960859 19.4142 0.585786C19.0391 0.210714 18.5304 0 18 0ZM18 4L10 9L2 4V2L10 7L18 2V4Z" fill="#201C70"/>
</svg>
