<?xml version="1.0" encoding="utf-8"?>
<!-- Generator: Adobe Illustrator 16.0.0, SVG Export Plug-In . SVG Version: 6.00 Build 0)  -->
<!DOCTYPE svg PUBLIC "-//W3C//DTD SVG 1.1//EN" "http://www.w3.org/Graphics/SVG/1.1/DTD/svg11.dtd">
<svg version="1.1" id="Layer_1" xmlns="http://www.w3.org/2000/svg" xmlns:xlink="http://www.w3.org/1999/xlink" x="0px" y="0px"
	 width="936.076px" height="176.33px" viewBox="0 0 936.076 176.33" enable-background="new 0 0 936.076 176.33"
	 xml:space="preserve">
<image display="none" overflow="visible" width="363" height="69" xlink:href="../homepage/logo-dark.png"  transform="matrix(1 0 0 1 -159.5103 205.1221)">
</image>
<g>
	<path fill="#565656" d="M4.267,170.626c-1.987-2.124-2.98-4.744-2.98-7.853V13.802c0-3.105,0.993-5.767,2.98-7.975
		C6.25,3.618,8.695,2.514,11.6,2.514h91.899c2.75,0,5.078,1.022,6.99,3.066c1.908,2.048,2.865,4.541,2.865,7.485
		s-0.957,5.4-2.865,7.362c-1.912,1.965-4.24,2.945-6.99,2.945H22.141v54.24v20.86v54.483h81.357c2.75,0,5.078,1.022,6.99,3.068
		c1.908,2.048,2.865,4.541,2.865,7.485s-0.957,5.4-2.865,7.362c-1.912,1.962-4.24,2.945-6.99,2.945H11.6
		C8.695,173.817,6.25,172.754,4.267,170.626z"/>
	<path fill="#565656" d="M103.499,175.104H11.6c-3.264,0-6.048-1.211-8.274-3.601C1.12,169.146,0,166.208,0,162.773V13.802
		c0-3.422,1.113-6.395,3.311-8.836c2.228-2.48,5.017-3.739,8.289-3.739h91.899c3.104,0,5.771,1.168,7.93,3.474
		c2.131,2.289,3.213,5.104,3.213,8.365c0,3.275-1.088,6.055-3.23,8.259c-2.154,2.213-4.816,3.334-7.912,3.334h-80.07v127.01h80.07
		c3.105,0,5.771,1.171,7.93,3.475c2.131,2.289,3.213,5.103,3.213,8.365c0,3.276-1.088,6.056-3.23,8.259
		C109.254,173.983,106.592,175.104,103.499,175.104z M11.6,3.8c-2.547,0-4.632,0.944-6.375,2.886
		c-1.784,1.982-2.651,4.311-2.651,7.116v148.971c0,2.799,0.86,5.081,2.633,6.973c1.746,1.875,3.836,2.784,6.393,2.784h91.899
		c2.406,0,4.393-0.837,6.07-2.558c1.68-1.729,2.498-3.845,2.498-6.463c0-2.628-0.824-4.789-2.52-6.608
		c-1.672-1.789-3.652-2.659-6.049-2.659H20.854V22.087h82.645c2.408,0,4.395-0.836,6.068-2.556c1.682-1.731,2.5-3.846,2.5-6.465
		c0-2.627-0.824-4.788-2.52-6.608c-1.672-1.788-3.652-2.657-6.049-2.657H11.6z"/>
</g>
<g>
	<path fill="#565656" d="M325.157,171.854c-1.988-2.126-2.98-4.744-2.98-7.855V17.483c0-4.417,1.451-8.222,4.354-11.412
		c2.9-3.19,6.418-4.785,10.545-4.785h-2.168c4.887,0,9.088,2.454,12.604,7.362l85.658,128.734V12.576
		c0-3.107,0.996-5.768,2.98-7.977c1.984-2.209,4.43-3.313,7.334-3.313c2.902,0,5.383,1.104,7.449,3.313
		c2.064,2.208,3.09,4.87,3.09,7.977v146.516c0,4.417-1.488,8.182-4.467,11.29c-2.979,3.108-6.531,4.661-10.656,4.661h2.396
		c-2.447,0-4.734-0.613-6.875-1.839c-2.141-1.229-3.895-2.822-5.271-4.787L343.03,38.947V164c0,3.111-1.029,5.729-3.092,7.855
		c-2.064,2.123-4.547,3.188-7.447,3.188C329.584,175.043,327.139,173.978,325.157,171.854z"/>
	<path fill="#565656" d="M441.295,176.33h-2.396v-0.206c-1.855-0.292-3.533-0.897-5.117-1.804c-2.297-1.316-4.211-3.055-5.686-5.166
		l-83.779-125.95V164c0,3.445-1.164,6.388-3.457,8.752c-2.307,2.375-5.123,3.578-8.369,3.578c-3.26,0-6.045-1.211-8.273-3.598
		c-2.209-2.359-3.328-5.297-3.328-8.732V17.483c0-4.728,1.578-8.858,4.691-12.277c2.619-2.882,5.752-4.583,9.326-5.064V0h2.168
		v0.175c4.48,0.671,8.287,3.265,11.482,7.725l83.326,125.228V12.576c0-3.42,1.113-6.393,3.309-8.836
		c2.229-2.482,5.02-3.74,8.291-3.74c3.258,0,6.078,1.251,8.389,3.721c2.279,2.439,3.438,5.417,3.438,8.855v146.516
		c0,4.744-1.623,8.84-4.828,12.182c-2.623,2.739-5.709,4.377-9.186,4.885V176.33z M335.872,2.608
		c-3.154,0.241-5.961,1.657-8.389,4.329c-2.705,2.971-4.02,6.421-4.02,10.546V164c0,2.799,0.861,5.081,2.633,6.978
		c1.748,1.87,3.84,2.779,6.395,2.779c2.561,0,4.693-0.915,6.525-2.799c1.834-1.892,2.729-4.168,2.729-6.958V34.69l88.477,133.016
		c1.238,1.769,2.873,3.254,4.84,4.382c1.621,0.93,3.365,1.478,5.174,1.626c3.105-0.259,5.918-1.641,8.393-4.221
		c2.764-2.885,4.107-6.287,4.107-10.4V12.576c0-2.802-0.896-5.124-2.744-7.099c-1.826-1.955-3.957-2.904-6.508-2.904
		c-2.545,0-4.631,0.944-6.377,2.887c-1.783,1.984-2.65,4.312-2.65,7.116v129.063L346.438,9.361
		C343.411,5.135,339.946,2.914,335.872,2.608z"/>
</g>
<g>
	<path fill="#565656" d="M652.817,170.626c-1.986-2.124-2.979-4.744-2.979-7.853V13.802c0-3.105,0.992-5.767,2.979-7.975
		c1.982-2.209,4.432-3.313,7.332-3.313h89.328c2.748,0,5.078,1.022,6.992,3.066c1.904,2.048,2.863,4.541,2.863,7.485
		s-0.959,5.4-2.863,7.362c-1.914,1.965-4.244,2.945-6.992,2.945h-78.783v54.24h70.531c2.752,0,5.08,1.022,6.99,3.068
		c1.91,2.048,2.865,4.541,2.865,7.485s-0.955,5.397-2.865,7.362c-1.91,1.962-4.238,2.945-6.99,2.945h-70.531v54.483h78.783
		c2.748,0,5.078,1.022,6.992,3.068c1.904,2.048,2.863,4.541,2.863,7.485s-0.959,5.4-2.863,7.362
		c-1.914,1.962-4.244,2.945-6.992,2.945h-89.328C657.249,173.817,654.799,172.754,652.817,170.626z"/>
	<path fill="#565656" d="M749.477,175.104h-89.328c-3.264,0-6.047-1.211-8.273-3.601c-2.203-2.357-3.324-5.294-3.324-8.729V13.802
		c0-3.422,1.113-6.395,3.309-8.836c2.229-2.48,5.018-3.739,8.289-3.739h89.328c3.104,0,5.771,1.168,7.932,3.474
		c2.131,2.291,3.209,5.104,3.209,8.365c0,3.274-1.086,6.053-3.227,8.258c-2.154,2.214-4.818,3.335-7.914,3.335h-77.498v51.667
		h69.246c3.107,0,5.777,1.169,7.93,3.477c2.131,2.285,3.211,5.098,3.211,8.363c0,3.276-1.084,6.054-3.229,8.259
		c-2.152,2.212-4.814,3.334-7.912,3.334h-69.246v51.91h77.498c3.105,0,5.773,1.171,7.932,3.475c2.131,2.289,3.209,5.103,3.209,8.365
		c0,3.274-1.086,6.053-3.227,8.257C755.233,173.983,752.571,175.104,749.477,175.104z M660.149,3.8
		c-2.545,0-4.631,0.944-6.373,2.886c-1.785,1.982-2.652,4.311-2.652,7.116v148.971c0,2.799,0.863,5.081,2.635,6.973
		c1.746,1.875,3.834,2.784,6.391,2.784h89.328c2.406,0,4.393-0.837,6.072-2.558c1.68-1.729,2.496-3.845,2.496-6.463
		c0-2.626-0.824-4.789-2.518-6.608c-1.674-1.789-3.654-2.659-6.051-2.659h-80.07V97.187h71.818c2.41,0,4.395-0.835,6.068-2.555
		c1.682-1.731,2.5-3.846,2.5-6.465c0-2.628-0.824-4.791-2.518-6.608c-1.672-1.789-3.65-2.658-6.051-2.658h-71.818V22.087h80.07
		c2.41,0,4.395-0.837,6.07-2.557c1.682-1.73,2.498-3.846,2.498-6.464c0-2.625-0.824-4.788-2.518-6.609
		c-1.674-1.787-3.654-2.656-6.051-2.656H660.149z"/>
</g>
<g>
	<path fill="#565656" d="M806.747,170.626c-1.988-2.124-2.98-4.744-2.98-7.853V13.802c0-3.105,0.992-5.767,2.98-7.975
		c1.982-2.209,4.43-3.313,7.332-3.313h35.771c17.418,0,32.199,4.133,44.346,12.394c12.145,8.262,21.273,18.938,27.389,32.027
		c6.105,13.091,9.164,26.835,9.164,41.231c0,14.398-3.059,28.143-9.164,41.229c-6.115,13.094-15.244,23.768-27.389,32.03
		c-12.146,8.262-26.928,12.393-44.346,12.393h-35.771C811.176,173.817,808.729,172.754,806.747,170.626z M847.333,152.957
		c12.523,0,23.525-2.739,32.998-8.222c9.471-5.48,16.809-13.089,22.002-22.826c5.191-9.731,7.793-20.981,7.793-33.743
		s-2.602-24.009-7.793-33.746c-5.193-9.732-12.531-17.34-22.002-22.826c-9.473-5.478-20.475-8.222-32.998-8.222H824.62v129.583
		H847.333z"/>
	<path fill="#565656" d="M849.85,175.104h-35.771c-3.264,0-6.049-1.211-8.273-3.601c-2.205-2.357-3.326-5.294-3.326-8.729V13.802
		c0-3.422,1.113-6.395,3.311-8.836c2.229-2.48,5.018-3.739,8.289-3.739h35.771c17.596,0,32.76,4.245,45.07,12.616
		c12.279,8.355,21.643,19.304,27.83,32.547c6.162,13.209,9.285,27.264,9.285,41.775c0,14.515-3.123,28.568-9.285,41.772
		c-6.186,13.243-15.549,24.194-27.83,32.551C882.614,170.859,867.448,175.104,849.85,175.104z M814.079,3.8
		c-2.545,0-4.631,0.944-6.375,2.886c-1.783,1.982-2.65,4.311-2.65,7.116v148.971c0,2.799,0.861,5.081,2.633,6.973
		c1.746,1.875,3.834,2.784,6.393,2.784h35.771c17.074,0,31.75-4.096,43.623-12.171c11.893-8.091,20.961-18.692,26.945-31.508
		c6.002-12.86,9.043-26.549,9.043-40.685c0-14.133-3.041-27.822-9.043-40.687c-5.986-12.816-15.053-23.417-26.945-31.507
		C881.598,7.895,866.92,3.8,849.85,3.8H814.079z M847.333,154.243h-24V22.087h24c12.691,0,24.012,2.824,33.643,8.395
		c9.643,5.585,17.209,13.435,22.494,23.333c5.268,9.886,7.941,21.443,7.941,34.351c0,12.912-2.674,24.468-7.941,34.349
		c-5.285,9.904-12.852,17.754-22.494,23.333C871.35,151.418,860.032,154.243,847.333,154.243z M825.907,151.67h21.426
		c12.242,0,23.127-2.709,32.355-8.048c9.219-5.335,16.455-12.845,21.51-22.318c5.07-9.504,7.641-20.653,7.641-33.138
		c0-12.48-2.57-23.631-7.641-33.14c-5.055-9.468-12.291-16.977-21.512-22.318c-9.234-5.341-20.119-8.048-32.354-8.048h-21.426
		V151.67z"/>
</g>
<g>
	<path fill="#565656" d="M158.346,170.626c-1.988-2.124-2.98-4.744-2.98-7.853V13.802c0-3.105,0.992-5.767,2.98-7.975
		c1.982-2.209,4.43-3.313,7.332-3.313h35.771c17.418,0,32.199,4.133,44.346,12.394c12.145,8.262,21.273,18.938,27.389,32.027
		c6.105,13.091,9.164,26.835,9.164,41.231c0,14.398-3.059,28.143-9.164,41.229c-6.115,13.094-15.244,23.768-27.389,32.03
		c-12.146,8.262-26.928,12.393-44.346,12.393h-35.771C162.776,173.817,160.329,172.754,158.346,170.626z M198.932,152.957
		c12.523,0,23.525-2.739,32.998-8.222c9.471-5.48,16.809-13.089,22.002-22.826c5.191-9.731,7.791-20.981,7.791-33.743
		s-2.6-24.009-7.791-33.746c-5.193-9.732-12.531-17.34-22.002-22.826c-9.473-5.478-20.475-8.222-32.998-8.222h-22.713v129.583
		H198.932z"/>
	<path fill="#565656" d="M201.45,175.104h-35.771c-3.264,0-6.049-1.211-8.273-3.601c-2.205-2.357-3.326-5.294-3.326-8.729V13.802
		c0-3.422,1.113-6.395,3.311-8.836c2.227-2.48,5.016-3.739,8.289-3.739h35.771c17.596,0,32.76,4.245,45.07,12.616
		c12.279,8.355,21.643,19.304,27.83,32.547c6.162,13.209,9.285,27.264,9.285,41.775c0,14.515-3.123,28.568-9.285,41.772
		c-6.186,13.243-15.549,24.194-27.83,32.551C234.213,170.859,219.047,175.104,201.45,175.104z M165.678,3.8
		c-2.547,0-4.633,0.944-6.375,2.886c-1.783,1.982-2.65,4.311-2.65,7.116v148.971c0,2.799,0.859,5.081,2.633,6.973
		c1.746,1.875,3.836,2.784,6.393,2.784h35.771c17.074,0,31.75-4.096,43.623-12.171c11.893-8.091,20.959-18.692,26.945-31.508
		c6.002-12.86,9.043-26.549,9.043-40.685c0-14.133-3.041-27.822-9.043-40.687c-5.988-12.816-15.055-23.417-26.945-31.507
		C233.198,7.895,218.52,3.8,201.45,3.8H165.678z M198.932,154.243h-24V22.087h24c12.691,0,24.01,2.824,33.643,8.395
		c9.643,5.585,17.211,13.435,22.492,23.333c5.271,9.886,7.943,21.443,7.943,34.351c0,12.912-2.672,24.468-7.941,34.349
		c-5.283,9.904-12.852,17.754-22.494,23.333C222.952,151.418,211.631,154.243,198.932,154.243z M177.506,151.67h21.426
		c12.242,0,23.127-2.709,32.354-8.048c9.221-5.335,16.457-12.845,21.512-22.318c5.07-9.504,7.641-20.653,7.641-33.138
		c0-12.48-2.57-23.631-7.641-33.14c-5.055-9.468-12.291-16.977-21.512-22.318c-9.234-5.341-20.121-8.048-32.354-8.048h-21.426
		V151.67z"/>
</g>
<g>
	<path fill="#565656" d="M503.583,170.626c-1.988-2.124-2.98-4.744-2.98-7.853V13.802c0-3.105,0.992-5.767,2.98-7.975
		c1.982-2.209,4.43-3.313,7.332-3.313h89.328c2.748,0,5.078,1.022,6.992,3.066c1.904,2.048,2.861,4.541,2.861,7.485
		s-0.957,5.4-2.861,7.362c-1.914,1.965-4.244,2.945-6.992,2.945h-78.785v54.24h70.533c2.75,0,5.08,1.022,6.99,3.068
		c1.908,2.048,2.863,4.541,2.863,7.485s-0.955,5.397-2.863,7.362c-1.91,1.962-4.24,2.945-6.99,2.945h-70.533v54.483h78.785
		c2.748,0,5.078,1.022,6.992,3.068c1.904,2.048,2.861,4.541,2.861,7.485s-0.957,5.4-2.861,7.362
		c-1.914,1.962-4.244,2.945-6.992,2.945h-89.328C508.012,173.817,505.565,172.754,503.583,170.626z"/>
	<path fill="#565656" d="M600.243,175.104h-89.328c-3.264,0-6.047-1.211-8.273-3.601c-2.205-2.357-3.324-5.294-3.324-8.729V13.802
		c0-3.422,1.113-6.395,3.309-8.836c2.229-2.48,5.018-3.739,8.289-3.739h89.328c3.102,0,5.771,1.168,7.932,3.474
		c2.131,2.291,3.209,5.104,3.209,8.365c0,3.274-1.086,6.053-3.227,8.258c-2.156,2.214-4.818,3.335-7.914,3.335h-77.498v51.667
		h69.246c3.107,0,5.775,1.169,7.93,3.477c2.131,2.285,3.211,5.098,3.211,8.363c0,3.276-1.086,6.054-3.229,8.259
		c-2.154,2.212-4.814,3.334-7.912,3.334h-69.246v51.91h77.498c3.105,0,5.773,1.171,7.932,3.475c2.131,2.289,3.209,5.103,3.209,8.365
		c0,3.274-1.086,6.053-3.227,8.257C605.999,173.983,603.334,175.104,600.243,175.104z M510.915,3.8
		c-2.545,0-4.631,0.944-6.375,2.886c-1.783,1.982-2.65,4.311-2.65,7.116v148.971c0,2.799,0.861,5.081,2.633,6.973
		c1.746,1.875,3.834,2.784,6.393,2.784h89.328c2.406,0,4.391-0.837,6.072-2.558c1.678-1.729,2.496-3.845,2.496-6.463
		c0-2.626-0.824-4.789-2.52-6.608c-1.672-1.789-3.652-2.659-6.049-2.659h-80.07V97.187h71.818c2.408,0,4.395-0.835,6.068-2.555
		c1.68-1.731,2.5-3.846,2.5-6.465c0-2.628-0.824-4.791-2.518-6.608c-1.672-1.789-3.652-2.658-6.051-2.658h-71.818V22.087h80.07
		c2.408,0,4.395-0.837,6.07-2.557c1.68-1.73,2.498-3.846,2.498-6.464c0-2.625-0.824-4.788-2.52-6.609
		C604.62,4.67,602.639,3.8,600.243,3.8H510.915z"/>
</g>
<g>
	<path fill="#306BFF" d="M100.42,66.408c0,4.619-3.744,8.362-8.361,8.362H54.428c-4.619,0-8.363-3.744-8.363-8.362l0,0
		c0-4.618,3.744-8.362,8.363-8.362h37.631C96.676,58.046,100.42,61.79,100.42,66.408L100.42,66.408z"/>
	<path fill="#306BFF" d="M92.059,76.057H54.428c-5.32,0-9.648-4.328-9.648-9.649c0-5.32,4.328-9.648,9.648-9.648h37.631
		c5.32,0,9.648,4.328,9.648,9.648C101.708,71.729,97.379,76.057,92.059,76.057z M54.428,59.333c-3.902,0-7.076,3.174-7.076,7.076
		c0,3.902,3.174,7.076,7.076,7.076h37.631c3.902,0,7.076-3.174,7.076-7.076c0-3.902-3.174-7.076-7.076-7.076H54.428z"/>
</g>
<g>
	<path fill="#09B14B" d="M102.35,108.059c0,4.529-3.672,8.202-8.201,8.202H56.518c-4.529,0-8.201-3.672-8.201-8.202l0,0
		c0-4.529,3.672-8.202,8.201-8.202h37.631C98.678,99.857,102.35,103.53,102.35,108.059L102.35,108.059z"/>
	<path fill="#09B14B" d="M94.149,117.547H56.518c-5.23,0-9.488-4.257-9.488-9.488s4.258-9.488,9.488-9.488h37.631
		c5.232,0,9.488,4.256,9.488,9.488S99.381,117.547,94.149,117.547z M56.518,101.144c-3.813,0-6.914,3.102-6.914,6.915
		s3.102,6.915,6.914,6.915h37.631c3.813,0,6.916-3.102,6.916-6.915s-3.104-6.915-6.916-6.915H56.518z"/>
</g>
</svg>
