<?xml version="1.0" encoding="utf-8"?>
<!-- Generator: Adobe Illustrator 16.0.0, SVG Export Plug-In . SVG Version: 6.00 Build 0)  -->
<!DOCTYPE svg PUBLIC "-//W3C//DTD SVG 1.1//EN" "http://www.w3.org/Graphics/SVG/1.1/DTD/svg11.dtd">
<svg version="1.1" xmlns="http://www.w3.org/2000/svg" xmlns:xlink="http://www.w3.org/1999/xlink" x="0px" y="0px"
	 width="203.419px" height="48.232px" viewBox="0 0 203.419 48.232" enable-background="new 0 0 203.419 48.232"
	 xml:space="preserve">
<g id="Layer_1">
	<path fill="#146EFA" d="M24.979,16.713v0.929c0.023,1.237-0.421,2.436-1.249,3.354c-0.765,0.899-1.888,1.411-3.065,1.4H10.038
		c0-3.138,2.546-5.683,5.685-5.683H24.979L24.979,16.713z"/>
	<path fill="#14A050" d="M24.979,25.615v0.933c0.023,1.234-0.421,2.433-1.249,3.352c-0.765,0.897-1.888,1.41-3.065,1.401H10.038
		c0-3.139,2.546-5.685,5.685-5.685l0,0L24.979,25.615L24.979,25.615z"/>
	<path fill="#141414" d="M29.778,48.25H4.149C1.857,48.25,0,46.393,0,44.102l0,0V4.125C0.012,1.843,1.867,0,4.149,0h25.44
		c0,3.5-2.835,6.338-6.335,6.342H6.647V41.92h16.818C26.95,41.94,29.769,44.764,29.778,48.25z"/>
	<path fill="#141414" d="M61.177,0.003c-0.67-0.005-1.333,0.124-1.954,0.377c-0.627,0.268-1.199,0.654-1.68,1.135
		c-0.995,0.962-1.542,2.295-1.513,3.68v15.516c-1.083-1.268-2.336-2.378-3.724-3.301c-2.173-1.377-4.704-2.075-7.275-2.005
		c-2.786-0.04-5.517,0.779-7.819,2.347c-2.267,1.543-4.094,3.65-5.298,6.117c-1.226,2.46-1.86,5.176-1.855,7.924
		c-0.02,2.811,0.62,5.584,1.87,8.1c1.185,2.447,2.997,4.537,5.252,6.055c2.328,1.531,5.064,2.323,7.849,2.27
		c4.297,0.1,8.386-1.835,11.038-5.214l0,0c-0.005,2.876,2.324,5.21,5.199,5.214c0.007,0,0.012,0,0.017,0h0.689V0h-0.793v0.003
		H61.177z M51.14,41.232c-1.533,1.004-3.329,1.531-5.162,1.515c-1.845,0.042-3.663-0.451-5.229-1.424
		c-1.481-0.954-2.663-2.309-3.408-3.904c-0.802-1.727-1.211-3.609-1.197-5.513c-0.019-1.934,0.39-3.85,1.197-5.609
		c0.743-1.606,1.924-2.972,3.408-3.935c1.567-0.975,3.383-1.472,5.229-1.431c1.812-0.014,3.585,0.512,5.094,1.514
		c1.542,1.006,2.799,2.394,3.65,4.026c0.871,1.632,1.333,3.451,1.338,5.298c0.012,1.899-0.438,3.772-1.309,5.459
		c-0.422,0.819-0.947,1.584-1.561,2.269C52.59,40.167,51.898,40.75,51.14,41.232z"/>
	<path fill="#141414" d="M95.082,28.705V48.25h-0.759c-1.384,0.029-2.72-0.519-3.684-1.514c-0.986-0.976-1.532-2.309-1.514-3.695
		V29.787c0.121-2.226-0.58-4.419-1.969-6.162c-1.297-1.513-3.142-2.209-5.641-2.209c-2.241-0.074-4.403,0.844-5.904,2.514
		c-1.57,1.717-2.406,3.979-2.331,6.306v12.748c0.012,1.254-0.431,2.473-1.249,3.429c-0.986,1.178-2.45,1.855-3.988,1.838h-0.757
		V16.345h2.097c2.112,0,3.826,1.709,3.83,3.821l0,0c2.342-2.9,5.913-4.529,9.637-4.397c3.859,0,6.903,1.21,9.039,3.603
		c1.068,1.188,1.885,2.581,2.399,4.096C94.838,25.158,95.105,26.928,95.082,28.705z"/>
	<path fill="#141414" d="M130.989,31.696c0.009,0.523-0.013,1.047-0.068,1.565l-0.099,0.682h-14.996
		c-1.617,0-2.784-0.491-3.444-1.454c-0.571-0.799-0.906-1.742-0.97-2.724v-1.15h13.429c-0.289-2.065-1.221-3.988-2.673-5.488
		c-1.678-1.617-3.953-2.469-6.283-2.347c-1.521,0-3.021,0.404-4.335,1.174c-1.347,0.783-2.497,1.865-3.359,3.165
		c-0.88,1.304-1.458,2.788-1.691,4.344v0.128l-0.045,0.083c-0.056,0.334-0.073,0.671-0.059,1.008v0.06c0,0.924,0,1.719,0.068,2.371
		c0.109,3.472,2.032,6.631,5.064,8.324c1.511,0.85,3.22,1.286,4.949,1.265c1.729,0.04,3.434-0.381,4.941-1.219
		c0.244-0.146,0.468-0.321,0.67-0.521c2.18-2.013,5.372-2.489,8.044-1.203l0,0l-0.355,0.755c-1.171,2.425-3.057,4.431-5.401,5.745
		c-7.741,4.345-17.537,1.591-21.88-6.147c-0.007-0.012-0.013-0.022-0.021-0.035c-2.777-5.107-2.807-11.271-0.076-16.401
		c1.313-2.462,3.233-4.547,5.578-6.057c2.365-1.509,5.12-2.297,7.926-2.271c2.883-0.081,5.73,0.658,8.212,2.128
		c2.266,1.413,4.061,3.464,5.164,5.895C130.447,25.988,131.032,28.83,130.989,31.696z"/>
	<path fill="#141414" d="M166.838,31.696c0.008,0.523-0.011,1.047-0.066,1.565l-0.101,0.682h-14.988
		c-1.625,0-2.784-0.491-3.45-1.454c-0.569-0.799-0.903-1.743-0.964-2.724v-1.15h13.429c-0.287-2.067-1.227-3.988-2.679-5.488
		c-1.675-1.617-3.948-2.469-6.274-2.347c-1.524-0.003-3.023,0.402-4.338,1.174c-1.354,0.782-2.503,1.864-3.369,3.165
		c-0.875,1.306-1.449,2.789-1.688,4.344v0.128l-0.042,0.083c-0.053,0.334-0.071,0.671-0.056,1.008v0.06c0,0.924,0,1.719,0.062,2.371
		c0.159,5.402,4.616,9.68,10.021,9.62c1.729,0.037,3.431-0.383,4.944-1.22c0.238-0.149,0.462-0.326,0.664-0.523
		c2.18-2.01,5.364-2.486,8.04-1.202l0,0l-0.349,0.755c-1.171,2.427-3.06,4.433-5.412,5.746c-7.747,4.343-17.542,1.585-21.887-6.161
		c-0.003-0.007-0.006-0.016-0.012-0.022c-2.78-5.107-2.808-11.271-0.068-16.403c1.309-2.464,3.229-4.549,5.58-6.055
		c2.363-1.51,5.118-2.299,7.925-2.27c2.883-0.078,5.73,0.658,8.212,2.126c2.263,1.415,4.058,3.467,5.154,5.897
		C166.295,26.006,166.881,28.839,166.838,31.696z"/>
	<path fill="#141414" d="M203.12,0.003c-0.673-0.005-1.339,0.124-1.963,0.377c-0.617,0.272-1.181,0.659-1.657,1.135
		c-0.994,0.962-1.544,2.294-1.513,3.68v15.516c-1.088-1.271-2.352-2.382-3.745-3.301c-2.172-1.375-4.703-2.073-7.271-2.005
		c-2.789-0.035-5.522,0.789-7.824,2.361c-2.266,1.547-4.087,3.654-5.299,6.117c-1.219,2.458-1.849,5.167-1.846,7.91
		c-0.016,2.801,0.62,5.566,1.861,8.078c1.187,2.444,2.999,4.531,5.252,6.055c2.33,1.532,5.069,2.324,7.858,2.271
		c4.279,0.113,8.364-1.8,11.013-5.164l0,0c0,2.88,2.335,5.217,5.215,5.217l0,0h0.691V0.003H203.12z M187.919,42.724
		c-1.844,0.042-3.659-0.453-5.231-1.423c-1.476-0.957-2.653-2.313-3.396-3.907c-0.808-1.724-1.217-3.606-1.198-5.51
		c-0.021-1.936,0.385-3.853,1.198-5.609c0.734-1.608,1.918-2.976,3.402-3.936c1.569-0.976,3.382-1.472,5.226-1.431
		c1.813-0.011,3.59,0.516,5.103,1.513c1.538,1.01,2.791,2.397,3.639,4.028c0.88,1.644,1.335,3.479,1.327,5.344
		c0.011,1.898-0.438,3.772-1.309,5.457c-0.423,0.822-0.944,1.586-1.563,2.271c-0.599,0.681-1.29,1.272-2.051,1.765
		C191.53,42.261,189.741,42.762,187.919,42.724z"/>
	<title>Asset 3</title>
</g>
<g id="Layer_2" display="none">
</g>
</svg>
