<svg id="Layer_2" data-name="Layer 2" xmlns="http://www.w3.org/2000/svg" viewBox="0 0 46.2 40.2"><defs><style>.cls-1,.cls-2,.cls-4{fill:none;}.cls-1,.cls-2,.cls-4,.cls-5{stroke:#447bbe;stroke-miterlimit:10;}.cls-1{stroke-width:1.5px;}.cls-2{stroke-width:0.75px;}.cls-3{fill:#447bbe;}.cls-5{fill:#fff;stroke-width:0.25px;}</style></defs><rect class="cls-1" x="0.75" y="0.75" width="44.7" height="31.42" rx="1.11"/><rect class="cls-2" x="4.38" y="3.71" width="37.84" height="21.04" rx="0.8"/><rect class="cls-2" x="6.39" y="5.77" width="13.34" height="16.07" rx="1.08"/><rect class="cls-2" x="21.57" y="5.38" width="18.47" height="16.07" rx="1.08"/><line class="cls-2" x1="6.39" y1="10.29" x2="19.72" y2="10.36"/><line class="cls-2" x1="21.57" y1="10.29" x2="39.7" y2="10.39"/><line class="cls-2" x1="8.62" y1="13.98" x2="17.32" y2="14.02"/><line class="cls-2" x1="8.6" y1="17.65" x2="17.3" y2="17.69"/><circle class="cls-3" cx="14" cy="7.98" r="0.48"/><circle class="cls-3" cx="15.75" cy="7.98" r="0.48"/><circle class="cls-3" cx="17.62" cy="7.98" r="0.48"/><circle class="cls-3" cx="34.09" cy="7.98" r="0.48"/><circle class="cls-3" cx="35.85" cy="7.98" r="0.48"/><circle class="cls-3" cx="37.71" cy="7.98" r="0.48"/><line class="cls-4" x1="0.75" y1="26.81" x2="45.45" y2="26.87"/><rect class="cls-4" x="19.28" y="32.73" width="7.98" height="4.19"/><rect class="cls-4" x="14.58" y="36.91" width="17.05" height="2.79" rx="0.56"/><circle class="cls-5" cx="11.44" cy="14" r="1.15"/><circle class="cls-5" cx="14.9" cy="17.81" r="1.15"/><rect class="cls-3" x="23.75" y="12.28" width="13.96" height="0.57"/><rect class="cls-3" x="23.82" y="13.98" width="13.96" height="0.57"/><rect class="cls-3" x="23.82" y="15.68" width="13.96" height="0.57"/><rect class="cls-3" x="23.82" y="17.38" width="13.96" height="0.57"/></svg>