<svg xmlns="http://www.w3.org/2000/svg" width="48" height="48" viewBox="0 0 48 48">
  <g id="Group_717" data-name="Group 717" transform="translate(-941 -499.917)">
    <g id="Ellipse_191" data-name="Ellipse 191" transform="translate(941 499.917)" fill="none" stroke="#146efa" stroke-width="1.5">
      <circle cx="24" cy="24" r="24" stroke="none"/>
      <circle cx="24" cy="24" r="23.25" fill="none"/>
    </g>
    <path id="Icon_open-question-mark" data-name="Icon open-question-mark" d="M8.78,0A9.186,9.186,0,0,0,2.1,2.346,7.756,7.756,0,0,0,0,6.9l3.554.462a4.308,4.308,0,0,1,1.1-2.453C5.332,4.23,6.4,3.554,8.78,3.554c2.346,0,3.626.569,4.336,1.209a2.971,2.971,0,0,1,1,2.346c0,2.95-1.209,3.768-2.986,5.332S7,16.28,7,20.438v.889h3.554v-.889c0-2.95,1.1-3.768,2.879-5.332s4.23-3.839,4.23-8a6.829,6.829,0,0,0-2.1-5.012C14.04.711,11.765,0,8.78,0ZM7,24.881v3.554h3.554V24.881Z" transform="translate(956 509.917)" fill="#146efa"/>
  </g>
</svg>
