<svg width="current" height="current" viewBox="0 0 26 28" fill="none" xmlns="http://www.w3.org/2000/svg">
<path d="M0 0V26H16V24H2V2H12V8H18V10H20V6.6L19.7 6.3L13.7 0.3L13.4 0H0ZM14 3.4L16.6 6H14V3.4ZM4 10V12H16V10H4ZM21 12V14C19.3 14.3 18 15.7 18 17.5C18 19.5 19.5 21 21.5 21H22.5C23.3 21 24 21.7 24 22.5C24 23.3 23.3 24 22.5 24H19V26H21V28H23V26C24.7 25.7 26 24.3 26 22.5C26 20.5 24.5 19 22.5 19H21.5C20.7 19 20 18.3 20 17.5C20 16.7 20.7 16 21.5 16H25V14H23V12H21ZM4 15V17H11V15H4ZM13 15V17H16V15H13ZM4 19V21H11V19H4ZM13 19V21H16V19H13Z" fill="#0184FF"/>
</svg>
