<svg xmlns="http://www.w3.org/2000/svg" viewBox="0 0 56 56"><defs><style>.cls-1{fill:none;stroke:#447bbe;stroke-miterlimit:10;stroke-width:1.5px;}.cls-2{fill:#447bbe;}</style></defs><g id="Layer_2" data-name="Layer 2"><path class="cls-1" d="M31.4,5.64a3.44,3.44,0,0,0,.16-1,3.65,3.65,0,0,0-7.23,1H19.06v6.68H36.47V5.64Z"/><path class="cls-1" d="M44,10.17H38.89v2.24a2,2,0,0,1-2,2H19a2,2,0,0,1-2-2V10.17H11.75a3.16,3.16,0,0,0-3.18,3.15v38a3.15,3.15,0,0,0,3.16,3.16H44a3.17,3.17,0,0,0,3.18-3.14V13.3A3.16,3.16,0,0,0,44,10.17Z"/><path class="cls-2" d="M25.32,20h0a.77.77,0,0,0-1.08,0L18,25.79a.76.76,0,0,1-1.08,0L14.31,23a.76.76,0,0,0-1.07,0h0a.77.77,0,0,0,0,1.08l4.15,4.42.31-.29h0L25.28,21A.75.75,0,0,0,25.32,20Z"/><path class="cls-2" d="M25.32,29.28h0a.76.76,0,0,0-1.08,0L18,35.12a.77.77,0,0,1-1.08,0l-2.6-2.77a.75.75,0,0,0-1.07,0h0a.76.76,0,0,0,0,1.07l4.15,4.42.31-.29h0l7.61-7.14A.76.76,0,0,0,25.32,29.28Z"/><path class="cls-2" d="M25.32,38.61h0a.77.77,0,0,0-1.08,0L18,44.45a.76.76,0,0,1-1.08,0l-2.6-2.77a.76.76,0,0,0-1.07,0h0a.77.77,0,0,0,0,1.08l4.15,4.41.31-.29v0l7.61-7.15A.76.76,0,0,0,25.32,38.61Z"/><rect class="cls-2" x="28.37" y="21.21" width="15.7" height="2.19" rx="1.1"/><rect class="cls-2" x="28.37" y="30.46" width="15.7" height="2.19" rx="1.1"/><rect class="cls-2" x="28.37" y="39.7" width="15.7" height="2.19" rx="1.1"/></g></svg>