<svg xmlns="http://www.w3.org/2000/svg" width="52.336" height="48.5" viewBox="0 0 52.336 48.5">
  <g id="Group_720" data-name="Group 720" transform="translate(-321.75 -705.75)">
    <path id="Path_2148" data-name="Path 2148" d="M45.455,56.25A11.47,11.47,0,0,1,34.467,48.1H24.777a10.115,10.115,0,0,1-16.7,3.806,10.125,10.125,0,0,1,7.159-17.285,10.01,10.01,0,0,1,3.968.817l5.064-8.773a10.242,10.242,0,0,1-1.354-1.135,10.128,10.128,0,1,1,12.96,1.138l4.484,7.768a11.515,11.515,0,0,1,13.232,2.18,11.5,11.5,0,0,1-8.131,19.63ZM24.3,47.446H34.964l.067.242A10.823,10.823,0,1,0,40.38,35.169l-.281.149-5.108-8.85.26-.171a9.629,9.629,0,0,0,1.513-1.228,9.466,9.466,0,1,0-13.386,0A9.6,9.6,0,0,0,24.886,26.3l.26.171L19.475,36.29l-.273-.127a9.48,9.48,0,1,0,5.026,11.512Zm10.344-2.088H24.673l.01-.339a9.376,9.376,0,0,0-2.755-6.962c-.144-.144-.3-.276-.451-.41l-.25-.218,5.818-10.076.251.076a9.6,9.6,0,0,0,5.545,0l.251-.076,5.3,9.185-.342.307c-.089.078-.177.155-.262.24a10.737,10.737,0,0,0-3.156,7.934Zm-9.3-.66h8.628a11.379,11.379,0,0,1,3.352-8.079c.074-.075.152-.145.231-.215l-4.776-8.27a10.266,10.266,0,0,1-5.425,0l-5.287,9.156c.111.1.22.2.325.3A10.016,10.016,0,0,1,25.345,44.7Z" transform="translate(316.886 697.75)" fill="#146efa" stroke="#146efa" stroke-width="0.5"/>
    <path id="Icon_zocial-facebook" data-name="Icon zocial-facebook" d="M13.257,7.211V4.647h2.068V3.357A3.375,3.375,0,0,1,16.232.98a2.882,2.882,0,0,1,2.2-.98h2.055V2.565H18.427a.452.452,0,0,0-.362.222.9.9,0,0,0-.161.544V4.646h2.578V7.211H17.9v6.218H15.325V7.211Z" transform="translate(329.101 709.077)" fill="#146efa"/>
    <path id="Icon_metro-twitter" data-name="Icon metro-twitter" d="M15.287,6.041a5.216,5.216,0,0,1-1.5.411,2.617,2.617,0,0,0,1.147-1.443,5.223,5.223,0,0,1-1.657.633,2.611,2.611,0,0,0-4.446,2.38A7.407,7.407,0,0,1,3.456,5.295a2.612,2.612,0,0,0,.807,3.483,2.6,2.6,0,0,1-1.182-.326c0,.011,0,.022,0,.033a2.611,2.611,0,0,0,2.093,2.558A2.613,2.613,0,0,1,4,11.087,2.612,2.612,0,0,0,6.433,12.9a5.234,5.234,0,0,1-3.24,1.117,5.291,5.291,0,0,1-.622-.037A7.42,7.42,0,0,0,13.993,7.729q0-.17-.008-.338a5.3,5.3,0,0,0,1.3-1.35Z" transform="translate(323.105 732.517)" fill="#146efa"/>
    <path id="Icon_awesome-linkedin-in" data-name="Icon awesome-linkedin-in" d="M2.836,12.67H.209V4.211H2.836ZM1.521,3.057A1.528,1.528,0,1,1,3.042,1.522,1.534,1.534,0,0,1,1.521,3.057ZM12.666,12.67H10.045V8.552c0-.981-.02-2.24-1.366-2.24C7.314,6.312,7.1,7.378,7.1,8.481V12.67H4.481V4.211H7V5.365h.037A2.76,2.76,0,0,1,9.522,4c2.658,0,3.147,1.75,3.147,4.024V12.67Z" transform="translate(356.914 736.166)" fill="#146efa"/>
  </g>
</svg>
