<svg xmlns="http://www.w3.org/2000/svg" width="95" height="50" viewBox="0 0 95 50">
  <g id="Group_785" data-name="Group 785" transform="translate(-525 -298)">
    <g id="Rectangle_1000" data-name="Rectangle 1000" transform="translate(525 298)" fill="#fff" stroke="#306bff" stroke-width="1.5">
      <rect width="47" height="16" rx="3" stroke="none"/>
      <rect x="0.75" y="0.75" width="45.5" height="14.5" rx="2.25" fill="none"/>
    </g>
    <rect id="Rectangle_1001" data-name="Rectangle 1001" width="28" height="2.5" transform="translate(530 305)" fill="#306bff"/>
    <g id="Rectangle_1002" data-name="Rectangle 1002" transform="translate(525 315)" fill="#fff" stroke="#306bff" stroke-width="1.5">
      <rect width="47" height="16" rx="3" stroke="none"/>
      <rect x="0.75" y="0.75" width="45.5" height="14.5" rx="2.25" fill="none"/>
    </g>
    <rect id="Rectangle_1003" data-name="Rectangle 1003" width="28" height="2.5" transform="translate(530 322)" fill="#306bff"/>
    <g id="Rectangle_1004" data-name="Rectangle 1004" transform="translate(573 315)" fill="#fff" stroke="#306bff" stroke-width="1.5">
      <rect width="47" height="16" rx="3" stroke="none"/>
      <rect x="0.75" y="0.75" width="45.5" height="14.5" rx="2.25" fill="none"/>
    </g>
    <rect id="Rectangle_1005" data-name="Rectangle 1005" width="37" height="2.5" transform="translate(578 322)" fill="#306bff"/>
    <g id="Rectangle_1006" data-name="Rectangle 1006" transform="translate(573 332)" fill="#fff" stroke="#306bff" stroke-width="1.5">
      <rect width="47" height="16" rx="3" stroke="none"/>
      <rect x="0.75" y="0.75" width="45.5" height="14.5" rx="2.25" fill="none"/>
    </g>
    <rect id="Rectangle_1007" data-name="Rectangle 1007" width="37" height="2.5" transform="translate(578 339)" fill="#306bff"/>
    <path id="Icon_ionic-ios-arrow-down" data-name="Icon ionic-ios-arrow-down" d="M9.43,13.836l2.451-2.453a.461.461,0,0,1,.654,0,.467.467,0,0,1,0,.656l-2.778,2.78a.462.462,0,0,1-.639.014l-2.8-2.791a.463.463,0,1,1,.654-.656Z" transform="translate(553.874 293.253)" fill="#306bff"/>
    <path id="Icon_ionic-ios-arrow-down-2" data-name="Icon ionic-ios-arrow-down" d="M3.243,1.117,5.694,3.571a.461.461,0,0,0,.654,0,.467.467,0,0,0,0-.656L3.571.135A.462.462,0,0,0,2.932.121L.135,2.913a.463.463,0,0,0,.654.656Z" transform="translate(565.156 320.111) rotate(90)" fill="#306bff"/>
    <g id="Rectangle_1008" data-name="Rectangle 1008" transform="translate(525 332)" fill="#fff" stroke="#306bff" stroke-width="1.5">
      <rect width="47" height="16" rx="3" stroke="none"/>
      <rect x="0.75" y="0.75" width="45.5" height="14.5" rx="2.25" fill="none"/>
    </g>
    <rect id="Rectangle_1009" data-name="Rectangle 1009" width="28" height="2.5" transform="translate(530 339)" fill="#306bff"/>
    <path id="Icon_ionic-ios-arrow-down-3" data-name="Icon ionic-ios-arrow-down" d="M3.243,1.117,5.694,3.571a.461.461,0,0,0,.654,0,.467.467,0,0,0,0-.656L3.571.135A.462.462,0,0,0,2.932.121L.135,2.913a.463.463,0,0,0,.654.656Z" transform="translate(565.156 337.111) rotate(90)" fill="#306bff"/>
  </g>
</svg>
