<svg xmlns="http://www.w3.org/2000/svg" width="58.453" height="50.378" viewBox="0 0 58.453 50.378">
  <g id="noun_Announcement_3655420" transform="translate(-3.537 -7.773)">
    <g id="Group_264" data-name="Group 264" transform="translate(3.72 26.687) rotate(-22.507)">
      <path id="Path_362" data-name="Path 362" d="M12.746,10.514v-2.9L35.051.568V16.887H32.926V3.466L14.87,9.168V24.606l18.056,5.7V23.26h2.124v9.946L14.87,26.833v7.048H8.5V23.26H4.249V21.136H0v-8.5H4.249V10.514ZM46.734,32.272,37.722,23.26l-1.5,1.5,9.012,9.012ZM10.621,23.26v8.5h2.124v-8.5ZM6.373,12.638v8.5h6.373v-8.5Zm28.678,6.373H32.926v2.124h2.124ZM2.124,14.763v4.249H4.249V14.763Zm46.734,1.062H36.113v2.124H48.859ZM36.22,9.012,45.232,0l1.5,1.5-9.012,9.012Z" transform="translate(0 0)" fill="#146efa" stroke="#fff" stroke-width="0.25" fill-rule="evenodd"/>
    </g>
  </g>
</svg>
