<svg xmlns="http://www.w3.org/2000/svg" width="37.272" height="48.25" viewBox="0 0 37.272 48.25">
  <g id="noun_professor_150908" transform="translate(-26.424 -22.247)">
    <g id="Group_16" data-name="Group 16" transform="translate(26.549 22.372)">
      <path id="Path_13" data-name="Path 13" d="M49.947,49.9a9.61,9.61,0,0,1-.654.85l-.392.392a10.409,10.409,0,0,1,5.166,2.877,10.717,10.717,0,0,1,3.139,7.651v6.8a1.057,1.057,0,0,1-.262.654A5.2,5.2,0,0,1,54.852,70.5,25.723,25.723,0,0,1,48.443,72a67.639,67.639,0,0,1-8.371.523,55.361,55.361,0,0,1-12.1-1.177,13.748,13.748,0,0,1-3.793-1.373,2.837,2.837,0,0,1-.916-.785A1.057,1.057,0,0,1,23,68.538V61.671a10.717,10.717,0,0,1,3.139-7.651,11.488,11.488,0,0,1,4.381-2.681l-.589-.589c-.131-.2-.327-.392-.458-.589A12.309,12.309,0,0,0,21.5,61.671v6.8a2.661,2.661,0,0,0,.523,1.569A5.923,5.923,0,0,0,24.7,71.873a27.657,27.657,0,0,0,6.736,1.57,71.765,71.765,0,0,0,8.567.523,54.314,54.314,0,0,0,12.425-1.243,15.23,15.23,0,0,0,4.251-1.569,4.558,4.558,0,0,0,1.308-1.177,2.661,2.661,0,0,0,.523-1.569V61.671A11.9,11.9,0,0,0,49.947,49.9Z" transform="translate(-21.5 -25.965)" fill="#146efa" stroke="#146efa" stroke-width="0.25"/>
      <path id="Path_14" data-name="Path 14" d="M37.766,39.85a8.369,8.369,0,0,0,1.439,4.708,7.956,7.956,0,0,0,.981,1.112,26.918,26.918,0,0,0-.2,3.335,26.186,26.186,0,0,0,.654,6.082,6.818,6.818,0,0,0,.785,1.962,1.89,1.89,0,0,0,1.5.981,1.562,1.562,0,0,0,.916-.327,3.9,3.9,0,0,0,.916-1.308,15.656,15.656,0,0,0,.785-3.139,28.518,28.518,0,0,0,.262-4.251,26.921,26.921,0,0,0-.2-3.335,6.961,6.961,0,0,0,1.635-2.158,8.155,8.155,0,0,0,.785-3.662A11.931,11.931,0,0,0,51.5,37.038a15.178,15.178,0,0,0,3.466-9.809A15.178,15.178,0,0,0,51.5,17.42a10.967,10.967,0,0,0-17.134,0A15.178,15.178,0,0,0,30.9,27.229a15.178,15.178,0,0,0,3.466,9.809A10.88,10.88,0,0,0,37.766,39.85Zm1.5.654a10.245,10.245,0,0,0,2.027.523c-.065.131-.131.327-.2.458a13.064,13.064,0,0,0-.654,2.223,4.169,4.169,0,0,1-.523-.916A7.272,7.272,0,0,1,39.271,40.5Zm2.812,2.681a6.642,6.642,0,0,1,.589-1.569.9.9,0,0,1,.2-.262.228.228,0,0,1,.065.131,3.457,3.457,0,0,1,.458.981,15.251,15.251,0,0,1,.523,2.42,2.311,2.311,0,0,1-1.112.262,3.081,3.081,0,0,1-1.112-.262C41.886,44.3,41.952,43.709,42.083,43.186ZM43.652,54.63a6.642,6.642,0,0,1-.589,1.569.9.9,0,0,1-.2.262.228.228,0,0,1-.065-.131,3.458,3.458,0,0,1-.458-.981,22.433,22.433,0,0,1-.85-6.474c0-.85.065-1.7.131-2.485a4.228,4.228,0,0,0,1.308.262,3.117,3.117,0,0,0,1.308-.262c.065.785.131,1.635.131,2.485A25.359,25.359,0,0,1,43.652,54.63Zm1.766-10.986-.065.065c-.065-.327-.131-.654-.2-.916a9.864,9.864,0,0,0-.654-1.831,10.245,10.245,0,0,0,2.027-.523A8.015,8.015,0,0,1,45.418,43.643Zm-9.94-25.308a9.525,9.525,0,0,1,14.91,0,13.673,13.673,0,0,1,3.139,8.828,13.326,13.326,0,0,1-3.139,8.828,9.525,9.525,0,0,1-14.91,0,13.984,13.984,0,0,1,0-17.657Z" transform="translate(-24.753 -13.3)" fill="#146efa" stroke="#146efa" stroke-width="0.25"/>
    </g>
  </g>
</svg>
