<svg id="Layer_2" data-name="Layer 2" xmlns="http://www.w3.org/2000/svg" viewBox="0 0 41.66 47.3"><defs><style>.cls-1{fill:none;stroke:#0184ff;stroke-miterlimit:10;stroke-width:1.5px;}.cls-2{fill:#0184ff;}</style></defs><rect class="cls-1" x="4.76" y="0.75" width="35" height="43" rx="2.03"/><path class="cls-2" d="M1.22,7.67H8.7A1.22,1.22,0,0,1,9.92,8.89h0A1.22,1.22,0,0,1,8.7,10.1H1.22A1.22,1.22,0,0,1,0,8.89H0A1.22,1.22,0,0,1,1.22,7.67Z"/><path class="cls-2" d="M1.22,17.39H8.7A1.22,1.22,0,0,1,9.92,18.6h0A1.22,1.22,0,0,1,8.7,19.82H1.22A1.22,1.22,0,0,1,0,18.6H0A1.22,1.22,0,0,1,1.22,17.39Z"/><path class="cls-2" d="M1.22,27.1H8.7a1.22,1.22,0,0,1,1.22,1.22h0A1.22,1.22,0,0,1,8.7,29.53H1.22A1.22,1.22,0,0,1,0,28.32H0A1.22,1.22,0,0,1,1.22,27.1Z"/><path class="cls-2" d="M1.22,36.82H8.7A1.22,1.22,0,0,1,9.92,38h0A1.22,1.22,0,0,1,8.7,39.25H1.22A1.22,1.22,0,0,1,0,38H0A1.22,1.22,0,0,1,1.22,36.82Z"/><circle class="cls-1" cx="23.06" cy="16.97" r="5.29"/><path class="cls-1" d="M14.11,34.89a8.94,8.94,0,0,1,17.88,0Z"/></svg>