<svg xmlns="http://www.w3.org/2000/svg" width="56.555" height="48.946" viewBox="0 0 56.555 48.946">
  <g id="noun_gallery_3066645" transform="translate(-5.625 -11.623)">
    <g id="Group_38" data-name="Group 38" transform="translate(6 11.998)">
      <path id="Path_225" data-name="Path 225" d="M7.149,12A1.268,1.268,0,0,0,6,13.267V48.522A1.268,1.268,0,0,0,7.268,49.79h3.845v3.825a1.268,1.268,0,0,0,1.268,1.268H16.3v4.043a1.268,1.268,0,0,0,1.268,1.268H60.536A1.268,1.268,0,0,0,61.8,58.926V23.652a1.268,1.268,0,0,0-1.268-1.268H17.573A1.268,1.268,0,0,0,16.3,23.651v28.7H13.649V19.629H55.344a1.268,1.268,0,1,0,0-2.537H12.381q-.059,0-.119,0a1.268,1.268,0,0,0-1.149,1.268V47.254H8.537V14.536H50.231a1.268,1.268,0,1,0,0-2.537H7.268Q7.209,12,7.149,12ZM18.841,24.92H59.268V57.658H18.841V45.45l.02-.02A11.261,11.261,0,0,1,26.174,42a21.827,21.827,0,0,1,8.184,1.427c5.917,1.955,12.709,5.319,20.669,5.351a1.268,1.268,0,1,0,.02-2.537c-7.24-.029-13.7-3.172-19.876-5.212A24.092,24.092,0,0,0,26,39.466a13.542,13.542,0,0,0-7.154,2.715Zm29.329,3.329a5.906,5.906,0,1,0,5.965,5.925A5.97,5.97,0,0,0,48.171,28.249Zm0,2.537a3.379,3.379,0,1,1-3.428,3.389A3.378,3.378,0,0,1,48.171,30.786Z" transform="translate(-6 -11.998)" fill="#146efa" stroke="#fff" stroke-width="0.75"/>
    </g>
  </g>
</svg>
