<svg xmlns="http://www.w3.org/2000/svg" width="11.577" height="13.236" viewBox="0 0 11.577 13.236">
  <path id="Icon_metro-attachment" data-name="Icon metro-attachment" d="M11.724,6.153l-.839-.839-4.2,4.2a1.78,1.78,0,0,0,2.518,2.517l5.036-5.035a2.968,2.968,0,0,0-4.2-4.2L4.759,8.084,4.747,8.1A4.139,4.139,0,1,0,10.6,13.949l.011-.011h0l3.609-3.608-.84-.839L9.771,13.1l-.011.011A2.951,2.951,0,0,1,5.586,8.937L5.6,8.926h0L10.885,3.64A1.78,1.78,0,0,1,13.4,6.157L8.367,11.192a.594.594,0,1,1-.84-.839l4.2-4.2Z" transform="translate(-3.535 -1.925)" fill="#146efa"/>
</svg>
