<svg width="current" height="current" viewBox="0 0 16 16" fill="none" xmlns="http://www.w3.org/2000/svg">
<path d="M3.51667 6.99167C4.71667 9.35 6.65 11.2833 9.00833 12.4833L10.8417 10.65C11.075 10.4167 11.4 10.35 11.6917 10.4417C12.625 10.75 13.625 10.9167 14.6667 10.9167C14.8877 10.9167 15.0996 11.0045 15.2559 11.1607C15.4122 11.317 15.5 11.529 15.5 11.75V14.6667C15.5 14.8877 15.4122 15.0996 15.2559 15.2559C15.0996 15.4122 14.8877 15.5 14.6667 15.5C10.9094 15.5 7.30609 14.0074 4.64932 11.3507C1.99256 8.69391 0.5 5.09057 0.5 1.33333C0.5 1.11232 0.587797 0.900358 0.744078 0.744078C0.900358 0.587797 1.11232 0.5 1.33333 0.5H4.25C4.47101 0.5 4.68298 0.587797 4.83926 0.744078C4.99554 0.900358 5.08333 1.11232 5.08333 1.33333C5.08333 2.375 5.25 3.375 5.55833 4.30833C5.65 4.6 5.58333 4.925 5.35 5.15833L3.51667 6.99167Z" fill="black"/>
</svg>
