<svg width="12" height="18" viewBox="0 0 12 18" fill="none" xmlns="http://www.w3.org/2000/svg">
<path d="M5.99984 8.58329C5.4473 8.58329 4.9174 8.3638 4.5267 7.9731C4.136 7.5824 3.9165 7.05249 3.9165 6.49996C3.9165 5.94742 4.136 5.41752 4.5267 5.02682C4.9174 4.63612 5.4473 4.41663 5.99984 4.41663C6.55237 4.41663 7.08228 4.63612 7.47298 5.02682C7.86368 5.41752 8.08317 5.94742 8.08317 6.49996C8.08317 6.77355 8.02928 7.04446 7.92459 7.29722C7.81989 7.54998 7.66643 7.77964 7.47298 7.9731C7.27952 8.16655 7.04986 8.32001 6.79709 8.42471C6.54433 8.52941 6.27342 8.58329 5.99984 8.58329ZM5.99984 0.666626C4.45274 0.666626 2.96901 1.28121 1.87505 2.37517C0.781085 3.46913 0.166504 4.95286 0.166504 6.49996C0.166504 10.875 5.99984 17.3333 5.99984 17.3333C5.99984 17.3333 11.8332 10.875 11.8332 6.49996C11.8332 4.95286 11.2186 3.46913 10.1246 2.37517C9.03066 1.28121 7.54693 0.666626 5.99984 0.666626Z" fill="black"/>
</svg>
