<svg width="18" height="17" viewBox="0 0 18 17" fill="none" xmlns="http://www.w3.org/2000/svg">
<path d="M9.83317 11.1667H13.1665V8.66671L17.3332 12.4167L13.1665 16.1667V13.6667H9.83317V11.1667ZM15.6665 0.333374H2.33317C1.89114 0.333374 1.46722 0.508969 1.15466 0.821529C0.842099 1.13409 0.666504 1.55801 0.666504 2.00004V12C0.666504 12.4421 0.842099 12.866 1.15466 13.1786C1.46722 13.4911 1.89114 13.6667 2.33317 13.6667H8.45817C8.26371 13.1326 8.16497 12.5684 8.1665 12C8.16769 10.9264 8.51443 9.88165 9.15544 9.02036C9.79644 8.15907 10.6977 7.52699 11.7258 7.21762C12.7539 6.90826 13.8543 6.93804 14.8641 7.30257C15.874 7.6671 16.7397 8.347 17.3332 9.24171V2.00004C17.3332 1.55801 17.1576 1.13409 16.845 0.821529C16.5325 0.508969 16.1085 0.333374 15.6665 0.333374ZM15.6665 3.66671L8.99984 7.83337L2.33317 3.66671V2.00004L8.99984 6.16671L15.6665 2.00004V3.66671Z" fill="black"/>
</svg>
