<svg width="current" height="current" viewBox="0 0 23 22" fill="none" xmlns="http://www.w3.org/2000/svg">
<path d="M22.4056 8.10522C22.298 7.77147 22.1002 7.47399 21.834 7.24572C21.5678 7.01744 21.2437 6.86728 20.8974 6.81185L15.4642 5.92886L12.9455 1.03446C12.7851 0.722871 12.5419 0.461498 12.2427 0.279017C11.9435 0.0965367 11.5998 0 11.2493 0C10.8989 0 10.5552 0.0965367 10.256 0.279017C9.95675 0.461498 9.71359 0.722871 9.55316 1.03446L7.03447 5.92886L1.60133 6.81185C1.25542 6.86815 0.931708 7.01864 0.665703 7.24681C0.399698 7.47498 0.201682 7.77201 0.093381 8.10532C-0.0149197 8.43862 -0.0293198 8.79532 0.0517607 9.13627C0.132841 9.47721 0.306269 9.78924 0.553015 10.0381L4.42958 13.946L3.59052 19.3861C3.53667 19.7326 3.57944 20.0872 3.7141 20.411C3.84876 20.7347 4.07011 21.0151 4.35379 21.2212C4.63747 21.4273 4.9725 21.5512 5.32203 21.5792C5.67156 21.6072 6.02205 21.5383 6.33495 21.38L11.2493 18.9008L16.1638 21.38C16.4768 21.538 16.8272 21.6066 17.1766 21.5785C17.526 21.5503 17.8608 21.4264 18.1444 21.2204C18.428 21.0143 18.6493 20.7341 18.7841 20.4105C18.9188 20.087 18.9618 19.7325 18.9083 19.3861L18.0692 13.946L21.9458 10.0381C22.1933 9.78973 22.3673 9.47769 22.4484 9.13655C22.5296 8.79541 22.5147 8.43846 22.4056 8.10522Z" fill="#202020" fill-opacity="0.7"/>
</svg>
