<svg width="27" height="26" viewBox="0 0 27 26" fill="none" xmlns="http://www.w3.org/2000/svg">
<path d="M7.5 17.0496H21C21.825 17.0496 22.5 17.7065 22.5 18.5094C22.5 19.3123 21.825 19.9691 21 19.9691H6C5.175 19.9691 4.5 19.3123 4.5 18.5094V3.91172H1.5C0.675 3.91172 0 3.25482 0 2.45195C0 1.64908 0.675 0.992188 1.5 0.992188H6C6.825 0.992188 7.5 1.64908 7.5 2.45195V5.37149H27L21 15.5898H7.5V17.0496ZM6.75 21.4289C7.995 21.4289 9 22.407 9 23.6186C9 24.8302 7.995 25.8082 6.75 25.8082C5.505 25.8082 4.5 24.8302 4.5 23.6186C4.5 22.407 5.505 21.4289 6.75 21.4289ZM20.25 21.4289C21.495 21.4289 22.5 22.407 22.5 23.6186C22.5 24.8302 21.495 25.8082 20.25 25.8082C19.005 25.8082 18 24.8302 18 23.6186C18 22.407 19.005 21.4289 20.25 21.4289Z" fill="#093351"/>
</svg>
