<svg width="117" height="20" viewBox="0 0 117 20" fill="none" xmlns="http://www.w3.org/2000/svg">
<path d="M71.0726 9.95588C71.0726 11.906 70.4945 13.8124 69.4112 15.434C68.328 17.0556 66.7883 18.3196 64.9868 19.0664C63.1853 19.8131 61.2029 20.009 59.2901 19.6292C57.3773 19.2495 55.62 18.3112 54.2404 16.9329C52.8607 15.5546 51.9207 13.7983 51.5391 11.8858C51.1574 9.97343 51.3513 7.99079 52.0963 6.18855C52.8412 4.38631 54.1038 2.84539 55.7243 1.76055C57.3448 0.675718 59.2506 0.095678 61.2008 0.09375H61.2105C66.6608 0.09375 71.0726 4.5105 71.0726 9.95588ZM45.7226 0.200997C40.2431 0.200997 35.8508 4.5105 35.8508 9.90225C35.8508 15.3525 40.131 19.5743 45.6349 19.5743C47.19 19.5743 48.5258 19.2671 50.1686 18.4969V14.241C48.7256 15.6889 47.4435 16.269 45.8055 16.269C42.1639 16.269 39.5801 13.6267 39.5801 9.873C39.5801 6.31425 42.2468 3.50625 45.6398 3.50625C47.3655 3.50625 48.672 4.1205 50.1735 5.59275V1.33688C48.8089 0.590142 47.2781 0.199475 45.7226 0.200997ZM29.3816 7.73287C27.2123 6.9285 26.5736 6.402 26.5736 5.39775C26.5736 4.23262 27.7095 3.3405 29.2695 3.3405C30.3518 3.3405 31.2439 3.78413 32.1848 4.842L34.0763 2.3655C32.5779 1.03009 30.6379 0.297168 28.6309 0.308248C25.35 0.308248 22.8491 2.58487 22.8491 5.61712C22.8491 8.17162 24.0143 9.47813 27.4121 10.7018C28.8308 11.2039 29.5474 11.5354 29.913 11.7596C30.2449 11.958 30.5192 12.2395 30.709 12.5764C30.8988 12.9132 30.9975 13.2937 30.9953 13.6804C30.9953 15.1819 29.8009 16.2934 28.1873 16.2934C26.4615 16.2934 25.0721 15.4305 24.2434 13.8218L21.9083 16.0691C23.5755 18.5164 25.5743 19.5986 28.3286 19.5986C32.0873 19.5986 34.7198 17.0978 34.7198 13.5098C34.71 10.5701 33.4913 9.23925 29.3816 7.73287ZM116.995 1.66838C116.996 2.04249 116.849 2.40186 116.586 2.66776C116.323 2.93367 115.965 3.08442 115.591 3.087C115.405 3.08764 115.22 3.05139 115.047 2.98033C114.875 2.90926 114.718 2.80479 114.587 2.67293C114.455 2.54107 114.35 2.38443 114.279 2.21202C114.208 2.03961 114.172 1.85485 114.173 1.66838V1.65375C114.162 1.4614 114.191 1.26899 114.258 1.08832C114.325 0.907643 114.428 0.74252 114.561 0.60308C114.694 0.46364 114.854 0.352823 115.031 0.277434C115.208 0.202045 115.399 0.163675 115.592 0.164673C115.784 0.165671 115.975 0.206019 116.151 0.283241C116.327 0.360462 116.486 0.472926 116.618 0.613736C116.749 0.754545 116.85 0.920727 116.915 1.10208C116.98 1.28344 117.007 1.47615 116.995 1.66838ZM116.708 1.67325C116.71 1.5228 116.683 1.37331 116.628 1.23333C116.573 1.09335 116.49 0.965609 116.386 0.857412C116.281 0.749216 116.156 0.662681 116.018 0.60275C115.88 0.542818 115.732 0.510664 115.581 0.508125C115.43 0.509382 115.281 0.540626 115.142 0.600049C115.003 0.659471 114.878 0.745887 114.772 0.854279C114.667 0.962671 114.584 1.09088 114.529 1.23147C114.474 1.37206 114.447 1.52222 114.45 1.67325C114.45 2.31675 114.957 2.83837 115.581 2.83837C115.732 2.83584 115.88 2.80368 116.018 2.74375C116.156 2.68382 116.281 2.59728 116.386 2.48909C116.49 2.38089 116.573 2.25315 116.628 2.11317C116.683 1.97319 116.71 1.8237 116.708 1.67325ZM16.9211 19.155H20.5384V0.615372H16.9211V19.155ZM78.8434 13.071L73.9001 0.620249H69.9514L77.8196 19.6328H79.7648L87.7744 0.620249H83.8549L78.8434 13.071ZM89.4026 19.155H99.6596V16.0155H93.0199V11.0089H99.4159V7.86937H93.0199V3.75487H99.6596V0.615372H89.4026V19.155ZM115.772 1.81462L116.308 2.48738H115.835L115.377 1.85363V2.48738H114.987V0.859123H115.508C115.903 0.859123 116.123 1.03463 116.123 1.36125C116.127 1.5855 116.001 1.75125 115.772 1.81462ZM115.742 1.36612C115.742 1.22475 115.64 1.1565 115.45 1.1565H115.382V1.58062H115.45C115.64 1.58062 115.742 1.51237 115.742 1.36612ZM109.756 11.3453L115.591 19.155H111.145L106.139 11.706H105.666V19.155H102.053V0.615372H107.416C111.584 0.615372 113.978 2.619 113.978 6.09C113.978 8.93212 112.476 10.7944 109.756 11.3453ZM110.258 6.285C110.258 4.48125 109.034 3.54037 106.782 3.54037H105.671V9.15638H106.728C109.034 9.1515 110.258 8.14725 110.258 6.285ZM15.2588 9.90225C15.2519 11.2623 14.9472 12.6043 14.3661 13.834C13.7849 15.0636 12.9415 16.151 11.895 17.0198C10.1156 18.4969 8.08763 19.1599 5.27963 19.1599H0V0.620249H5.30888C11.1686 0.620249 15.2588 4.42763 15.2588 9.90225ZM11.5343 9.873C11.5343 8.0985 10.7835 6.37275 9.53063 5.25638C8.33625 4.17413 6.91763 3.75487 4.5825 3.75487H3.61238V16.0155H4.5825C6.91763 16.0155 8.39475 15.567 9.53063 14.5433C10.7786 13.4318 11.5343 11.6524 11.5343 9.873Z" fill="white"/>
</svg>
