<svg width="24" height="25" viewBox="0 0 24 25" fill="none" xmlns="http://www.w3.org/2000/svg">
<path d="M4.38226 0.916016C1.95468 0.916016 0 2.8711 0 5.29917V20.5378C0 22.9659 1.95468 24.921 4.38226 24.921H12.6398V15.5365H10.1588V12.1578H12.6398V9.27124C12.6398 7.00338 14.1057 4.92109 17.4825 4.92109C18.8497 4.92109 19.8608 5.05238 19.8608 5.05238L19.7813 8.20753C19.7813 8.20753 18.7501 8.19779 17.625 8.19779C16.4073 8.19779 16.212 8.75898 16.212 9.69061V12.1579H19.878L19.7183 15.5365H16.212V24.921H19.6177C22.0453 24.921 24 22.9659 24 20.5378V5.29919C24 2.87112 22.0453 0.91604 19.6177 0.91604H4.38223L4.38226 0.916016Z" fill="white"/>
</svg>
