<svg width="77" height="55" viewBox="0 0 77 55" fill="none" xmlns="http://www.w3.org/2000/svg">
<path d="M9.14084 0.957031C4.67584 0.957031 0.997986 4.61553 0.997986 9.05703V46.857C0.997986 51.2985 4.67584 54.957 9.14084 54.957H68.8551C73.3201 54.957 76.998 51.2985 76.998 46.857V9.05703C76.998 4.61553 73.3201 0.957031 68.8551 0.957031H9.14084ZM9.14084 6.35703H68.8551C70.3914 6.35703 71.5694 7.52883 71.5694 9.05703V46.857C71.5694 48.3852 70.3914 49.557 68.8551 49.557H9.14084C7.60456 49.557 6.42656 48.3852 6.42656 46.857V9.05703C6.42656 7.52883 7.60456 6.35703 9.14084 6.35703ZM17.7071 14.457C14.3794 14.457 11.8551 16.5549 11.8551 20.1945V41.457H22.544C25.1497 41.457 28.1408 39.0405 28.1408 35.8869V14.457H17.7071ZM36.7071 14.457C33.3903 14.457 30.8551 16.5657 30.8551 20.1945V41.2896H41.544C44.1416 41.2896 47.1408 38.8623 47.1408 35.7195V14.457H36.7071ZM55.7071 14.457C52.3903 14.457 49.8551 16.5657 49.8551 20.1945V41.2896H60.4571C63.0438 41.2896 66.1408 38.8623 66.1408 35.7195V14.457H55.7071ZM37.3016 22.557H45.1051V24.2445C43.2377 23.8125 41.4137 23.5695 40.5234 23.5695C38.5746 23.5695 37.0491 25.2354 37.0491 27.282C37.0491 29.3286 38.5746 30.9108 40.5234 30.9108C41.4164 30.9108 43.2377 30.7515 45.1051 30.3195V31.9233H37.3016C34.8723 31.9233 32.8067 29.8335 32.8067 27.282C32.8067 24.7305 34.8723 22.557 37.3016 22.557ZM52.146 22.557H62.1536C63.375 22.557 64.3603 23.6235 64.3603 24.8358C64.3603 26.0373 63.5433 27.1983 62.3246 27.1983C63.7034 27.1983 64.7837 28.2729 64.7837 29.4771C64.7837 30.6894 63.7034 31.8396 62.3246 31.8396H52.146V22.557ZM21.271 22.6407H25.9368V27.8733C25.9368 30.7839 22.1721 32.3445 19.4036 32.3445C16.3907 32.3445 13.7008 30.5625 13.1281 28.2945H15.1638C15.4081 29.6769 16.7544 30.657 18.3016 30.657C20.0088 30.657 21.271 29.415 21.271 27.8733V22.6407ZM55.9623 23.4858V26.607H59.1868C59.5878 26.5942 59.9687 26.4298 60.2521 26.1474C60.5355 25.865 60.7001 25.4858 60.7123 25.0869C60.7123 24.2877 59.9903 23.4858 59.1841 23.4858H55.9623ZM55.9623 27.7896V30.9108H59.271C60.0853 30.9108 60.7964 30.1926 60.7964 29.3907C60.7964 28.5807 60.088 27.7896 59.271 27.7896H55.9623Z" fill="white"/>
</svg>
