<svg width="75" height="87" viewBox="0 0 75 87" fill="none" xmlns="http://www.w3.org/2000/svg">
<g clip-path="url(#clip0_3134_3683)">
<path d="M42.2419 26.3343C13.2403 30.644 5.32031 2.76525 5.32031 2.76525C6.14111 2.56505 6.94031 2.40125 7.72511 2.23745C28.6555 -1.85027 37.1551 11.3375 40.3951 19.7932C41.2303 21.904 41.8491 24.0958 42.2419 26.3343Z" fill="url(#paint0_linear_3134_3683)"/>
<path d="M63.0176 -0.453125C63.164 0.741186 63.2385 1.94339 63.2408 3.14683C63.2732 21.1248 45.7772 25.7694 45.7772 25.7694C40.6724 2.30599 63.0176 -0.453125 63.0176 -0.453125Z" fill="url(#paint1_linear_3134_3683)"/>
<path d="M73.7203 24.4084C73.4543 24.1704 73.1394 23.9951 72.7982 23.895C72.4571 23.7949 72.0982 23.7726 71.7475 23.8297L15.6667 32.8132L14.9071 30.207C14.7426 29.6367 14.3779 29.1467 13.8814 28.829C13.385 28.5113 12.7909 28.3878 12.2107 28.4816L1.49354 30.196C0.873816 30.3126 0.323551 30.669 -0.0401288 31.1896C-0.403809 31.7102 -0.552181 32.3537 -0.453654 32.9832C-0.355127 33.6127 -0.0174834 34.1785 0.487396 34.5601C0.992276 34.9417 1.62452 35.109 2.24954 35.0263L10.8715 33.6468L11.6131 36.1948L11.6419 36.2821L19.6699 63.9461L22.5031 73.5339C22.6698 74.1022 23.0354 74.5896 23.5316 74.9051C24.0279 75.2207 24.6208 75.3427 25.1995 75.2483L30.5203 74.4184C30.24 75.6564 30.2642 76.9451 30.591 78.1714C30.9178 79.3977 31.5371 80.5243 32.3947 81.4523C33.2523 82.3802 34.3219 83.0814 35.5099 83.4941C36.6978 83.9069 37.9677 84.0187 39.2083 83.8197C40.4489 83.6208 41.6223 83.1171 42.6256 82.353C43.6289 81.5888 44.4314 80.5874 44.9629 79.4367C45.4944 78.2859 45.7386 77.0209 45.6741 75.7525C45.6095 74.4841 45.2382 73.2511 44.5927 72.1616L55.1947 70.469C54.913 71.7077 54.9362 72.9975 55.2623 74.225C55.5884 75.4526 56.2075 76.5805 57.0652 77.5097C57.9229 78.439 58.993 79.1413 60.1817 79.5549C61.3704 79.9685 62.6413 80.0809 63.883 79.8821C65.1246 79.6834 66.299 79.1796 67.3032 78.4149C68.3074 77.6503 69.1107 76.6482 69.6426 75.4965C70.1745 74.3448 70.4187 73.0787 70.3539 71.8093C70.289 70.5399 69.9171 69.306 69.2707 68.2158L71.7223 67.8227C72.0358 67.7725 72.3364 67.6604 72.6069 67.4928C72.8775 67.3251 73.1128 67.1052 73.2993 66.8456C73.4859 66.586 73.62 66.2918 73.6941 65.9798C73.7682 65.6678 73.7808 65.3441 73.7311 65.0272C73.6815 64.7103 73.5706 64.4064 73.4048 64.1328C73.239 63.8592 73.0215 63.6213 72.7648 63.4327C72.508 63.2441 72.2171 63.1084 71.9085 63.0335C71.5999 62.9586 71.2798 62.9459 70.9663 62.9961L26.5351 70.105L25.0951 65.2383L71.7439 57.7654C72.3009 57.6762 72.8094 57.3925 73.181 56.9636C73.5526 56.5347 73.7638 55.9876 73.7779 55.4176L74.5447 26.2976C74.5516 25.941 74.4814 25.5872 74.339 25.2609C74.1966 24.9346 73.9855 24.6437 73.7203 24.4084ZM62.2327 69.337C62.7898 69.2461 63.361 69.3246 63.8739 69.5626C64.3867 69.8005 64.8181 70.1871 65.1133 70.6734C65.4084 71.1597 65.554 71.7236 65.5316 72.2937C65.5092 72.8638 65.3198 73.4143 64.9875 73.8754C64.6551 74.3365 64.1947 74.6873 63.6648 74.8833C63.1349 75.0794 62.5594 75.1119 62.0112 74.9766C61.463 74.8413 60.9669 74.5445 60.5859 74.1236C60.2049 73.7028 59.9561 73.177 59.8711 72.613C59.759 71.8625 59.9442 71.0977 60.3863 70.4844C60.8284 69.8711 61.4919 69.4588 62.2327 69.337ZM36.8887 73.4902C37.3828 73.2745 37.9273 73.2049 38.4589 73.2893C38.9906 73.3737 39.4877 73.6087 39.8927 73.967C40.2977 74.3254 40.5939 74.7925 40.7471 75.3142C40.9003 75.8358 40.9041 76.3907 40.7582 76.9144C40.6123 77.4382 40.3225 77.9094 39.9226 78.2735C39.5226 78.6376 39.0288 78.8796 38.4983 78.9715C37.9679 79.0634 37.4225 79.0015 36.9255 78.7929C36.4284 78.5842 36 78.2374 35.6899 77.7927C35.4337 77.4338 35.2658 77.0182 35.2003 76.5806C35.1013 75.9489 35.2136 75.3019 35.5194 74.7421C35.8253 74.1823 36.3072 73.7417 36.8887 73.4902ZM48.7471 50.5582C48.3305 50.8625 47.8379 51.0428 47.3251 51.0787C46.6886 51.1825 46.0431 51.2191 45.3991 51.1879C45.1147 51.1879 44.8267 51.1552 44.5351 51.1151C44.1247 51.0605 43.2103 50.8385 42.2635 50.5837C41.4852 50.3697 40.6551 50.4694 39.9481 50.8618C39.241 51.2543 38.7121 51.9088 38.4727 52.6876C38.3295 53.1462 38.2938 53.6322 38.3683 54.1072C38.467 54.7328 38.7499 55.3137 39.1802 55.7742C39.6105 56.2346 40.1682 56.5531 40.7803 56.688C41.5975 56.8736 42.3355 57.0156 42.6919 57.052H42.7603C43.3435 57.1138 43.9267 57.1466 44.5027 57.1612L23.7163 60.4918L17.0419 37.5161L41.1835 33.6468C41.0179 33.7232 40.8523 33.796 40.6939 33.8761C39.7308 34.3686 38.8646 35.0347 38.1379 35.8417C37.4236 36.6494 36.8993 37.6101 36.6043 38.6518C36.2805 39.8198 36.2227 41.0469 36.4351 42.2408C36.548 43.024 36.7915 43.7822 37.1551 44.483C37.489 45.113 37.9502 45.6649 38.5087 46.1028C39.1372 46.5754 39.8359 46.944 40.5787 47.1948C41.5081 47.5151 42.4616 47.7585 43.4299 47.9228C44.1751 48.0502 44.8699 48.1558 45.5251 48.2322C45.9715 48.2905 46.3891 48.3451 46.7671 48.407C46.9471 48.4361 47.1271 48.4688 47.2747 48.5016C47.7082 48.572 48.1261 48.7186 48.5095 48.9348C48.6551 49.0149 48.7805 49.1278 48.8761 49.2647C48.9716 49.4017 49.0346 49.5591 49.0603 49.7246C49.0897 49.8814 49.0761 50.0434 49.0209 50.1929C48.9656 50.3424 48.871 50.4738 48.7471 50.5728V50.5582ZM68.9971 53.2482L51.2383 56.0946L51.3031 56.0728C52.2908 55.6691 53.1981 55.0883 53.9815 54.3584C54.747 53.6281 55.3242 52.7196 55.6627 51.7121C56.0388 50.5105 56.1118 49.233 55.8751 47.9956C55.7492 47.0229 55.4309 46.0858 54.9391 45.2402C54.4963 44.5344 53.902 43.9385 53.2003 43.4966C52.4386 43.0236 51.6127 42.6655 50.7487 42.4337C50.5219 42.3718 50.2879 42.3136 50.0539 42.2554C49.3123 42.077 48.5131 41.9205 47.6527 41.8004C46.9327 41.6912 46.2991 41.5965 45.7375 41.5274C45.2523 41.4728 44.7712 41.3853 44.2975 41.2653C43.9592 41.1855 43.6383 41.0436 43.3507 40.8467C43.235 40.7612 43.1381 40.6524 43.0662 40.5271C42.9943 40.4018 42.949 40.2627 42.9331 40.1187C42.8907 39.9372 42.9023 39.7471 42.9663 39.5723C43.0304 39.3974 43.1441 39.2456 43.2931 39.1359C43.6918 38.8704 44.1471 38.7045 44.6215 38.6518C45.3564 38.537 46.1043 38.537 46.8391 38.6518C47.1523 38.7027 47.8003 38.852 48.5131 39.0376C48.8942 39.1332 49.2901 39.152 49.6783 39.0929C50.0666 39.0338 50.4395 38.8979 50.7758 38.6931C51.1121 38.4882 51.4052 38.2184 51.6383 37.8991C51.8715 37.5797 52.0402 37.217 52.1347 36.8318C52.2293 36.4465 52.2479 36.0462 52.1894 35.6536C52.1309 35.2611 51.9966 34.884 51.794 34.544C51.5914 34.204 51.3246 33.9076 51.0087 33.6718C50.6929 33.4361 50.3342 33.2655 49.9531 33.1699C49.5211 33.0644 49.1503 32.9843 48.9343 32.9479C48.2929 32.8412 47.6464 32.7683 46.9975 32.7295L69.6343 29.0895L68.9971 53.2482Z" fill="url(#paint2_linear_3134_3683)"/>
<path style="mix-blend-mode:overlay" d="M70.9666 62.9918L38.5666 68.1825C37.9834 69.9078 37.4326 71.6732 36.889 73.4896C37.3831 73.2739 37.9275 73.2043 38.4592 73.2887C38.9908 73.3731 39.488 73.6081 39.8929 73.9664C40.2979 74.3248 40.5942 74.7919 40.7474 75.3135C40.9005 75.8352 40.9044 76.3901 40.7584 76.9138C40.6125 77.4376 40.3228 77.9088 39.9228 78.2729C39.5228 78.637 39.029 78.879 38.4985 78.9709C37.9681 79.0628 37.4228 79.0009 36.9257 78.7923C36.4287 78.5836 36.0003 78.2368 35.6902 77.7921C35.2366 79.4907 34.807 81.221 34.4014 82.9827C35.8805 83.7846 37.5791 84.0737 39.2363 83.8055C40.8936 83.5374 42.4181 82.7269 43.576 81.4983C44.7338 80.2698 45.461 78.6911 45.646 77.0044C45.831 75.3177 45.4636 73.6162 44.6002 72.161L55.195 70.4684C54.9132 71.7071 54.9364 72.9969 55.2625 74.2244C55.5887 75.452 56.2077 76.5799 57.0654 77.5091C57.9231 78.4384 58.9933 79.1407 60.1819 79.5543C61.3706 79.9679 62.6415 80.0803 63.8832 79.8815C65.1248 79.6828 66.2993 79.179 67.3035 78.4143C68.3077 77.6497 69.1109 76.6476 69.6428 75.4959C70.1747 74.3442 70.4189 73.0781 70.3541 71.8087C70.2893 70.5393 69.9173 69.3054 69.271 68.2152L71.7226 67.8221C72.036 67.7719 72.3366 67.6598 72.6072 67.4922C72.8778 67.3245 73.113 67.1046 73.2996 66.845C73.4861 66.5854 73.6202 66.2912 73.6943 65.9792C73.7684 65.6672 73.781 65.3435 73.7314 65.0266C73.6817 64.7097 73.5708 64.4057 73.405 64.1322C73.2392 63.8586 73.0217 63.6207 72.765 63.4321C72.5082 63.2435 72.2173 63.1078 71.9087 63.0329C71.6001 62.958 71.28 62.9453 70.9666 62.9955V62.9918ZM63.1258 75.022C62.5695 75.1115 61.9995 75.0321 61.4878 74.794C60.9761 74.5559 60.5458 74.1697 60.2513 73.6842C59.9567 73.1988 59.8111 72.6359 59.833 72.0668C59.8549 71.4977 60.0432 70.9479 60.3741 70.487C60.705 70.0262 61.1636 69.6749 61.692 69.4776C62.2204 69.2803 62.7948 69.2459 63.3426 69.3787C63.8903 69.5115 64.3868 69.8056 64.7692 70.2237C65.1516 70.6419 65.4028 71.1653 65.491 71.7278C65.6091 72.4818 65.4264 73.2523 64.9828 73.87C64.5393 74.4878 63.8713 74.9021 63.1258 75.022ZM73.7206 24.426C73.4545 24.188 73.1396 24.0127 72.7985 23.9126C72.4573 23.8125 72.0984 23.7902 71.7477 23.8473L61.4158 25.5035C60.0766 27.156 58.6366 29.0343 57.1462 31.1345L69.6346 29.1325L68.9974 53.2803L51.2386 56.1268L51.3034 56.1049C52.291 55.7012 53.1984 55.1204 53.9818 54.3905C54.7473 53.6603 55.3244 52.7518 55.663 51.7442C56.039 50.5427 56.112 49.2651 55.8754 48.0278C55.7494 47.0551 55.4311 46.118 54.9394 45.2723C54.5003 44.5547 53.9058 43.9473 53.2006 43.496C52.4389 43.023 51.6129 42.6649 50.749 42.4331C50.5222 42.3712 50.2882 42.313 50.0542 42.2547C48.9454 44.2058 47.8366 46.2588 46.7458 48.4428C46.9258 48.4719 47.1058 48.5046 47.2534 48.5374C47.6868 48.6077 48.1047 48.7544 48.4882 48.9706C48.6338 49.0506 48.7592 49.1636 48.8547 49.3005C48.9502 49.4375 49.0133 49.5949 49.039 49.7604C49.0632 49.9103 49.0485 50.064 48.9961 50.2064C48.9437 50.3487 48.8555 50.4748 48.7402 50.5721C48.3235 50.8764 47.8309 51.0567 47.3182 51.0927C46.6816 51.1964 46.0362 51.233 45.3922 51.2019C44.4946 53.085 43.6138 55.0433 42.7498 57.0768L42.5734 57.4954C41.8534 59.1941 41.1526 60.9559 40.471 62.7807L71.7369 57.7721C72.294 57.6829 72.8025 57.3992 73.174 56.9703C73.5456 56.5413 73.7569 55.9943 73.771 55.4243L74.5378 26.3043C74.5466 25.947 74.478 25.5922 74.3368 25.2645C74.1957 24.9369 73.9853 24.6445 73.7206 24.4078V24.426Z" fill="url(#paint3_linear_3134_3683)"/>
<path style="mix-blend-mode:overlay" d="M40.4023 19.7779C18.2155 22.3077 10.1623 8.34462 7.7323 2.22214C28.6627 -1.86557 37.1623 11.3149 40.4023 19.7779Z" fill="url(#paint4_linear_3134_3683)"/>
<path style="mix-blend-mode:overlay" d="M63.2409 3.14648C63.2733 21.1244 45.7773 25.7691 45.7773 25.7691C45.7773 25.7691 46.1841 10.3682 63.2409 3.14648Z" fill="url(#paint5_linear_3134_3683)"/>
</g>
<defs>
<linearGradient id="paint0_linear_3134_3683" x1="11.5211" y1="-1.27559" x2="38.4914" y2="29.6067" gradientUnits="userSpaceOnUse">
<stop stop-color="#00945C"/>
<stop offset="1" stop-color="#6EFFA9"/>
</linearGradient>
<linearGradient id="paint1_linear_3134_3683" x1="45.85" y1="26.0961" x2="58.7143" y2="4.03377" gradientUnits="userSpaceOnUse">
<stop stop-color="#006994"/>
<stop offset="1" stop-color="#6EFFA9"/>
</linearGradient>
<linearGradient id="paint2_linear_3134_3683" x1="20.0172" y1="70.3671" x2="65.4296" y2="19.7411" gradientUnits="userSpaceOnUse">
<stop stop-color="#093351"/>
<stop offset="1" stop-color="#140F56"/>
</linearGradient>
<linearGradient id="paint3_linear_3134_3683" x1="34.7131" y1="42.3481" x2="70.4314" y2="62.8039" gradientUnits="userSpaceOnUse">
<stop stop-color="white"/>
<stop offset="1" stop-color="white" stop-opacity="0"/>
</linearGradient>
<linearGradient id="paint4_linear_3134_3683" x1="38.8951" y1="20.0675" x2="16.0751" y2="5.73988" gradientUnits="userSpaceOnUse">
<stop stop-color="white"/>
<stop offset="1" stop-color="white" stop-opacity="0"/>
</linearGradient>
<linearGradient id="paint5_linear_3134_3683" x1="62.9675" y1="2.39208" x2="46.5415" y2="26.7875" gradientUnits="userSpaceOnUse">
<stop stop-color="white"/>
<stop offset="1" stop-color="white" stop-opacity="0"/>
</linearGradient>
<clipPath id="clip0_3134_3683">
<rect width="75" height="87" fill="white"/>
</clipPath>
</defs>
</svg>
