<svg width="82" height="55" viewBox="0 0 82 55" fill="none" xmlns="http://www.w3.org/2000/svg">
<path d="M76.598 54.957H6.39805C4.96588 54.957 3.59237 54.3881 2.57967 53.3754C1.56697 52.3627 0.998047 50.9892 0.998047 49.557L0.998047 6.35703C0.998047 4.92486 1.56697 3.55135 2.57967 2.53865C3.59237 1.52596 4.96588 0.957031 6.39805 0.957031L76.598 0.957031C78.0302 0.957031 79.4037 1.52596 80.4164 2.53865C81.4291 3.55135 81.998 4.92486 81.998 6.35703V49.557C81.998 50.9892 81.4291 52.3627 80.4164 53.3754C79.4037 54.3881 78.0302 54.957 76.598 54.957ZM65.087 45.3248H65.0555C64.7477 45.3245 64.4432 45.3881 64.1612 45.5117C63.8792 45.6352 63.626 45.816 63.4175 46.0425L63.4153 46.0448C62.9719 46.5303 62.7263 47.1641 62.7267 47.8216C62.7272 48.4791 62.9736 49.1126 63.4175 49.5975L63.4153 49.5953C63.8248 50.0385 64.4075 50.3153 65.0555 50.3153H65.087H65.0848C65.3748 50.3352 65.6651 50.2817 65.929 50.1598C66.1928 50.0379 66.4217 49.8515 66.5945 49.6178L66.5968 49.6133V50.2118H67.616V43.5315H66.5968V46.029C66.4307 45.8097 66.2162 45.6317 65.9698 45.5091C65.7235 45.3866 65.4522 45.3227 65.177 45.3225L65.0826 45.3248H65.087ZM55.5245 45.3248H55.4728C54.8225 45.3248 54.2353 45.5948 53.819 46.029C53.3751 46.5214 53.1295 47.1609 53.1299 47.8238C53.1304 48.4868 53.3767 49.126 53.8213 49.6178L53.819 49.6155C54.2375 50.0498 54.8248 50.3198 55.475 50.3198H55.529H55.5268L55.628 50.322C55.8958 50.3223 56.1597 50.2587 56.398 50.1367C56.6363 50.0146 56.8421 49.8375 56.9983 49.62L57.0028 49.6155V50.214H58.0603V45.4665H57.005V46.029C56.8346 45.7996 56.6106 45.6154 56.3525 45.4926C56.0944 45.3698 55.8101 45.3122 55.5245 45.3248H55.529H55.5245ZM50.9165 45.3248L50.822 45.3225C50.1597 45.3225 49.5244 45.5857 49.056 46.054C48.5877 46.5224 48.3245 47.1576 48.3245 47.82C48.3245 48.4824 48.5877 49.1177 49.056 49.586C49.5244 50.0544 50.1597 50.3175 50.822 50.3175L50.921 50.3153H50.9165L51.0088 50.3175C51.6163 50.3175 52.172 50.106 52.6108 49.7505L52.6063 49.755L52.1135 48.9113C51.7881 49.1687 51.3896 49.3168 50.975 49.3343H50.9705C50.7638 49.3475 50.5565 49.3166 50.3626 49.2437C50.1686 49.1708 49.9924 49.0575 49.8455 48.9113C49.5841 48.6081 49.4405 48.221 49.4409 47.8207C49.4413 47.4204 49.5857 47.0336 49.8478 46.731L49.8455 46.7333C49.9738 46.5994 50.1278 46.4929 50.2984 46.4202C50.4689 46.3475 50.6524 46.3101 50.8378 46.3103H50.885H50.8828C51.3303 46.3113 51.7647 46.4609 52.118 46.7355L52.1135 46.731L52.6063 45.8873C52.1413 45.5198 51.5655 45.3207 50.9728 45.3225H50.9165H50.9188L50.9165 45.3248ZM41.7365 45.3248H41.6803C41.3747 45.3242 41.0722 45.3865 40.7916 45.5076C40.511 45.6287 40.2582 45.8062 40.049 46.029C39.8246 46.2712 39.65 46.5552 39.5354 46.8648C39.4207 47.1744 39.3682 47.5036 39.3808 47.8335V47.829L39.3785 47.9325C39.3785 48.5963 39.6418 49.1993 40.067 49.6403C40.4945 50.0655 41.084 50.3265 41.7343 50.3265L41.8108 50.3243H41.8063L41.8985 50.3265C42.6028 50.3265 43.2463 50.0723 43.7458 49.6515L43.7413 49.656L43.2485 48.8843C42.8709 49.219 42.3851 49.406 41.8805 49.4108H41.8783C41.5359 49.4404 41.1953 49.337 40.9271 49.1221C40.6589 48.9072 40.4839 48.5972 40.4383 48.2565V48.2498H43.9888V47.829C44.0203 47.1647 43.7919 46.5143 43.352 46.0155L43.3543 46.0178C43.1566 45.7986 42.915 45.6235 42.6452 45.5037C42.3754 45.3839 42.0835 45.3222 41.7883 45.3225H41.7388H41.741L41.7365 45.3248ZM34.8133 45.4665V46.416H35.7965V48.5625C35.7965 49.728 36.3523 50.3198 37.448 50.3198H37.4863C37.9408 50.3198 38.3615 50.1848 38.7148 49.9553L38.7058 49.9598L38.4223 49.08C38.1432 49.2375 37.8292 49.3226 37.5088 49.3275H37.5065C37.061 49.3275 36.836 49.0688 36.836 48.5558V46.4183H38.5235V45.4688H36.836V44.0288H35.7808V45.4688L34.8133 45.4665ZM30.3875 48.909L29.9308 49.719C30.4865 50.0948 31.1705 50.3175 31.9063 50.3175H31.9738H31.9693L32.1178 50.322C32.6555 50.322 33.1573 50.1623 33.578 49.8878L33.5668 49.8945C33.7454 49.7729 33.8917 49.6096 33.9929 49.4186C34.094 49.2276 34.147 49.0149 34.1473 48.7988V48.7673V48.7695C34.1473 47.9775 33.5915 47.5095 32.4958 47.3633L32.0053 47.2913C31.4653 47.199 31.1953 47.0348 31.1953 46.8008C31.1953 46.4498 31.49 46.2743 32.075 46.2743H32.0863C32.6375 46.2743 33.155 46.4183 33.6028 46.6703L33.587 46.6613L34.01 45.8175C33.4241 45.469 32.7496 45.2978 32.0683 45.3248H32.075L31.9535 45.3225C31.4774 45.3218 31.0134 45.4723 30.6283 45.7523L30.635 45.7478C30.4708 45.8757 30.3379 46.0396 30.2467 46.2268C30.1554 46.414 30.1082 46.6195 30.1085 46.8278V46.875V46.8728C30.1085 47.6423 30.6643 48.1035 31.76 48.243L32.2168 48.315C32.777 48.4095 33.0605 48.5738 33.0605 48.8078C33.0605 49.2038 32.7005 49.4063 31.9693 49.4063H31.949C31.3863 49.4075 30.8372 49.2329 30.3785 48.9068L30.3875 48.9135V48.909ZM26.378 45.3225H26.3218C26.0165 45.322 25.7144 45.3843 25.4341 45.5054C25.1539 45.6266 24.9016 45.804 24.6928 46.0268C24.2596 46.5248 24.0212 47.1627 24.0216 47.8227C24.022 48.4827 24.2612 49.1203 24.695 49.6178L24.6928 49.6155C24.902 49.8383 25.1547 50.0158 25.4353 50.137C25.7159 50.2581 26.0184 50.3203 26.324 50.3198H26.3825H26.3803C26.6703 50.3352 26.9596 50.2794 27.2231 50.1575C27.4866 50.0355 27.7164 49.851 27.8923 49.62L27.8945 49.6155V50.214H28.9138V45.4665H27.8945V46.029C27.7158 45.8088 27.4902 45.6312 27.234 45.5093C26.9778 45.3875 26.6977 45.3244 26.414 45.3248H26.378H26.3803L26.378 45.3225ZM59.426 45.4643V50.2118H60.4453V47.541C60.4453 46.7265 60.7873 46.3125 61.4645 46.3125H61.487C61.7098 46.3125 61.9213 46.3643 62.108 46.4565L62.099 46.452L62.414 45.4665C62.2032 45.3721 61.9746 45.3238 61.7435 45.3248L61.6715 45.327H61.676H61.6378C61.3956 45.3269 61.1577 45.3915 60.9489 45.5141C60.74 45.6367 60.5677 45.813 60.4498 46.0245L60.4453 46.0313V45.4688L59.426 45.4643ZM45.0485 45.4643V50.2118H46.1038V47.541C46.1038 46.7265 46.4458 46.3125 47.123 46.3125H47.1455C47.3683 46.3125 47.5798 46.3643 47.7665 46.4565L47.7575 46.452L48.0748 45.4665C47.8544 45.3721 47.617 45.3239 47.3773 45.3248H47.3345H47.3368H47.2963C47.0544 45.3246 46.8168 45.3891 46.6083 45.5118C46.3998 45.6344 46.2279 45.8107 46.1105 46.0223L46.106 46.029V45.4665L45.0485 45.4643ZM21.0005 46.308C21.7003 46.308 22.0558 46.7333 22.0558 47.568V50.205H23.111V47.217L23.1133 47.1428C23.1137 46.6679 22.9298 46.2113 22.6003 45.8693C22.2289 45.5216 21.7389 45.3285 21.23 45.3293H21.2098C20.8855 45.3084 20.5615 45.3751 20.2717 45.5223C19.982 45.6696 19.7371 45.892 19.5628 46.1663L19.5583 46.173C19.3992 45.8982 19.1662 45.6734 18.8858 45.5243C18.6055 45.3751 18.2889 45.3076 17.972 45.3293H17.9765H17.9563C17.692 45.3294 17.4316 45.393 17.1971 45.5148C16.9625 45.6366 16.7607 45.8129 16.6085 46.029L16.604 46.0335V45.471H15.5533V50.2185H16.6085V47.577C16.6085 46.7378 17 46.317 17.7695 46.317C18.4693 46.317 18.8248 46.7423 18.8248 47.577V50.214H19.844V47.577C19.844 46.7355 20.2355 46.317 21.0028 46.317L21.0005 46.308ZM52.5365 5.45703H52.4623C48.9438 5.45137 45.5054 6.50681 42.5961 8.48553L42.6568 8.44728C45.5943 10.8286 47.7549 14.0318 48.8623 17.6475L48.8983 17.7825C49.4293 19.4588 49.733 21.3848 49.733 23.385C49.733 25.3628 49.4338 27.2685 48.8803 29.064L48.9163 28.929C47.8362 32.5804 45.6644 35.8137 42.6928 38.1945L42.6568 38.2238C45.5742 40.1808 49.01 41.2214 52.523 41.2118C55.043 41.2118 57.4393 40.6875 59.6105 39.7425L59.4958 39.7875C63.7515 38.0048 67.1464 34.6358 68.9615 30.3938L69.0043 30.279C69.9043 28.2315 70.4285 25.8443 70.4285 23.3355C70.4285 20.8268 69.9043 18.4395 68.9593 16.2795L69.0043 16.392C67.2196 12.1325 63.8427 8.73781 59.5925 6.93078L59.4778 6.88803C57.2945 5.94094 54.9389 5.45602 52.559 5.46378H52.5343H52.5365V5.45703ZM30.4595 5.45703H30.4348C28.0148 5.45411 25.6205 5.95365 23.4035 6.92403L23.516 6.87903C19.25 8.65336 15.846 12.0243 14.03 16.2728L13.9873 16.3875C13.0873 18.435 12.563 20.8223 12.563 23.331C12.563 25.8398 13.0873 28.227 14.0323 30.387L13.9873 30.2745C15.77 34.5303 19.139 37.9251 23.381 39.7403L23.4958 39.783C25.5523 40.683 27.9508 41.2073 30.4685 41.2073C34.0067 41.2134 37.4653 40.1584 40.3978 38.1788L40.3348 38.2193C37.3815 35.8489 35.2124 32.6423 34.1113 29.019L34.0775 28.8863C33.533 27.0927 33.2593 25.2279 33.2653 23.3535C33.2625 20.5059 33.8925 17.6932 35.1096 15.1188C36.3268 12.5443 38.1008 10.2725 40.3033 8.46753L40.337 8.44053C37.4429 6.48392 34.0273 5.44285 30.5338 5.45253H30.4528H30.4573L30.4595 5.45703ZM41.498 9.28878C38.655 11.4861 36.5556 14.5037 35.4838 17.9333L35.45 18.057C34.9078 19.7739 34.6345 21.5643 34.64 23.3648C34.64 25.2413 34.9303 27.048 35.468 28.7468L35.4343 28.6208C36.4838 32.0865 38.5896 35.1378 41.4575 37.3485L41.498 37.3778C44.3543 35.1942 46.4621 32.1775 47.5303 28.7445L47.564 28.623C48.0963 26.9213 48.3642 25.1478 48.3583 23.3648C48.3583 21.468 48.0613 19.6433 47.5145 17.9288L47.5483 18.0548C46.4931 14.5928 44.3951 11.5409 41.5408 9.31578L41.5003 9.28653L41.498 9.28878ZM65.2265 49.332H65.1883C65.0008 49.3321 64.8153 49.2932 64.6437 49.2176C64.4721 49.1421 64.3181 49.0316 64.1915 48.8933C63.9293 48.5967 63.7847 48.2144 63.7852 47.8185C63.7856 47.4226 63.9309 47.0406 64.1938 46.7445L64.1915 46.7468C64.3257 46.607 64.4868 46.4958 64.665 46.4198C64.8433 46.3438 65.035 46.3046 65.2288 46.3046C65.4226 46.3046 65.6143 46.3438 65.7926 46.4198C65.9708 46.4958 66.1319 46.607 66.266 46.7468C66.5275 47.0464 66.6713 47.4307 66.6709 47.8283C66.6705 48.226 66.5258 48.61 66.2638 48.909L66.266 48.9068C66.137 49.0416 65.9819 49.1487 65.8102 49.2218C65.6384 49.2949 65.4537 49.3324 65.267 49.332H65.2265H65.2288H65.2265ZM55.6303 49.332H55.5808C55.399 49.3321 55.2191 49.2947 55.0522 49.2223C54.8854 49.15 54.7353 49.0441 54.611 48.9113C54.3587 48.6035 54.221 48.2177 54.2214 47.8196C54.2218 47.4216 54.3603 47.0361 54.6133 46.7288L54.611 46.731C54.7348 46.5975 54.8848 46.491 55.0517 46.4182C55.2186 46.3454 55.3987 46.3079 55.5808 46.308H55.6325H55.6303H55.6708C56.0645 46.308 56.42 46.4768 56.6653 46.7468C56.9173 47.019 57.0703 47.3835 57.0703 47.784V47.829V47.8268L57.0725 47.8875C57.0733 48.2678 56.9348 48.6351 56.6833 48.9203L56.6855 48.918C56.5582 49.0494 56.4058 49.1538 56.2372 49.2249C56.0687 49.2961 55.8875 49.3325 55.7045 49.332L55.628 49.3298H55.6325L55.6303 49.332ZM26.5198 49.332L26.4545 49.3343C26.2698 49.3347 26.0869 49.2975 25.917 49.2247C25.7472 49.152 25.594 49.0453 25.4668 48.9113C25.2144 48.6035 25.0767 48.2177 25.0771 47.8196C25.0775 47.4216 25.2161 47.0361 25.469 46.7288L25.4668 46.731C25.6027 46.5887 25.7678 46.4774 25.9507 46.4048C26.1336 46.3321 26.33 46.2999 26.5265 46.3103H26.5243H26.576C26.7593 46.31 26.9405 46.3491 27.1074 46.4248C27.2743 46.5005 27.423 46.611 27.5435 46.749L27.5458 46.7513C27.7958 47.0562 27.9322 47.4385 27.9318 47.8328C27.9314 48.2271 27.7942 48.6091 27.5435 48.9135L27.5458 48.9113C27.4213 49.0451 27.2705 49.1517 27.1028 49.2245C26.9352 49.2973 26.7543 49.3346 26.5715 49.3343H26.522H26.5243L26.5198 49.332ZM42.938 47.397H40.4788C40.5101 47.0928 40.653 46.8109 40.8799 46.6058C41.1068 46.4007 41.4017 46.2869 41.7075 46.2863C42.0134 46.2858 42.3086 46.3985 42.5363 46.6028C42.7639 46.8071 42.9078 47.0884 42.9403 47.3925V47.397H42.938Z" fill="white"/>
</svg>
