<svg width="28" height="28" viewBox="0 0 28 28" fill="none" xmlns="http://www.w3.org/2000/svg">
<path fill-rule="evenodd" clip-rule="evenodd" d="M14 26.4042C20.9587 26.4042 26.6 20.8044 26.6 13.8969C26.6 6.98946 20.9587 1.38969 14 1.38969C7.0413 1.38969 1.4 6.98946 1.4 13.8969C1.4 20.8044 7.0413 26.4042 14 26.4042ZM14 27.7939C21.7322 27.7939 28 21.5722 28 13.8969C28 6.22166 21.7322 0 14 0C6.2678 0 0 6.22166 0 13.8969C0 21.5722 6.2678 27.7939 14 27.7939Z" fill="#093351"/>
<path d="M5.59961 21.9777C5.59961 21.2599 6.14001 20.6533 6.85961 20.5741C12.2601 19.9807 15.7636 20.0342 21.1523 20.5873C21.4213 20.6153 21.6764 20.7206 21.8862 20.8901C22.096 21.0597 22.2516 21.2862 22.3338 21.5421C22.4161 21.798 22.4215 22.0721 22.3494 22.3309C22.2773 22.5898 22.1308 22.8222 21.9279 22.9998C15.5683 28.5023 11.9339 28.4265 6.04761 23.0054C5.76061 22.7413 5.59961 22.3661 5.59961 21.9784V21.9777Z" fill="#093351"/>
<path fill-rule="evenodd" clip-rule="evenodd" d="M21.0809 21.2778C15.735 20.7289 12.2819 20.6775 6.9367 21.2646C6.76075 21.285 6.59854 21.3691 6.48114 21.5007C6.36373 21.6324 6.29938 21.8024 6.3004 21.9783C6.3004 22.177 6.3837 22.3653 6.5244 22.4959C9.44201 25.1822 11.6526 26.3961 13.8135 26.4037C15.9821 26.4114 18.3117 25.2072 21.4687 22.4765C21.569 22.3878 21.6412 22.2722 21.6766 22.1436C21.7119 22.0151 21.7088 21.8791 21.6678 21.7522C21.6267 21.6253 21.5494 21.513 21.4452 21.4289C21.341 21.3448 21.2145 21.2926 21.0809 21.2785V21.2778ZM6.7834 19.8833C12.2406 19.2836 15.7952 19.3378 21.2258 19.8958C21.6307 19.9377 22.0144 20.0959 22.33 20.351C22.6456 20.6061 22.8795 20.947 23.0029 21.332C23.1264 21.7169 23.1341 22.1293 23.0251 22.5186C22.9161 22.9078 22.6951 23.2571 22.3892 23.5236C19.1867 26.2946 16.5197 27.8038 13.8093 27.7934C11.0912 27.7837 8.54181 26.2488 5.5731 23.5146C5.36054 23.318 5.1911 23.0801 5.07536 22.8157C4.95961 22.5512 4.90005 22.2659 4.90039 21.9776C4.89937 21.4595 5.09094 20.9593 5.43839 20.5727C5.78584 20.1862 6.26476 19.9404 6.7834 19.8826V19.8833Z" fill="#093351"/>
<path d="M19.6003 11.1174C19.6003 12.5916 19.0103 14.0055 17.9601 15.048C16.9099 16.0905 15.4856 16.6761 14.0004 16.6761C12.5152 16.6761 11.0908 16.0905 10.0406 15.048C8.99039 14.0055 8.40039 12.5916 8.40039 11.1174C8.40039 9.64309 8.99039 8.22919 10.0406 7.18672C11.0908 6.14425 12.5152 5.55859 14.0004 5.55859C15.4856 5.55859 16.9099 6.14425 17.9601 7.18672C19.0103 8.22919 19.6003 9.64309 19.6003 11.1174Z" fill="#093351"/>
<path fill-rule="evenodd" clip-rule="evenodd" d="M14.0004 15.2864C15.1143 15.2864 16.1826 14.8472 16.9702 14.0654C17.7579 13.2835 18.2003 12.2231 18.2003 11.1174C18.2003 10.0117 17.7579 8.95124 16.9702 8.16938C16.1826 7.38753 15.1143 6.94829 14.0004 6.94829C12.8865 6.94829 11.8182 7.38753 11.0305 8.16938C10.2429 8.95124 9.80038 10.0117 9.80038 11.1174C9.80038 12.2231 10.2429 13.2835 11.0305 14.0654C11.8182 14.8472 12.8865 15.2864 14.0004 15.2864ZM14.0004 16.6761C15.4856 16.6761 16.9099 16.0905 17.9601 15.048C19.0103 14.0055 19.6003 12.5916 19.6003 11.1174C19.6003 9.64309 19.0103 8.22919 17.9601 7.18672C16.9099 6.14425 15.4856 5.55859 14.0004 5.55859C12.5152 5.55859 11.0908 6.14425 10.0406 7.18672C8.99039 8.22919 8.40039 9.64309 8.40039 11.1174C8.40039 12.5916 8.99039 14.0055 10.0406 15.048C11.0908 16.0905 12.5152 16.6761 14.0004 16.6761Z" fill="#093351"/>
</svg>
