<svg width="70" height="55" viewBox="0 0 70 55" fill="none" xmlns="http://www.w3.org/2000/svg">
<path d="M29.1302 6.73069C17.3542 6.73069 7.76562 16.2048 7.76562 27.9209C7.76562 39.6008 17.3542 49.111 29.1302 49.111C40.9427 49.111 50.4948 39.6008 50.4948 27.9209C50.4948 16.2048 40.9427 6.73069 29.1302 6.73069ZM24.2812 40.4325C19.2135 38.516 15.6042 33.6343 15.6042 27.9209C15.6042 22.2075 19.2135 17.3258 24.2812 15.3731V40.4325ZM33.9792 40.4686V15.3731C39.0469 17.3258 42.6562 22.2075 42.6562 27.9209C42.6562 33.6343 39.0469 38.516 33.9792 40.4686ZM64.1667 0.957031H5.83333C2.61285 0.957031 0 3.54855 0 6.74275V49.1713C0 52.3655 2.61285 54.957 5.83333 54.957H64.1667C67.3872 54.957 70 52.3655 70 49.1713V6.74275C70 3.54855 67.3872 0.957031 64.1667 0.957031ZM40.0677 51.0999H29.0937C16.1875 51.0999 5.54167 40.7941 5.54167 28.174C5.54167 14.3606 16.1875 4.81417 29.0937 4.81417H40.0677C52.8281 4.81417 64.4583 14.3606 64.4583 28.174C64.4583 40.7941 52.8281 51.0999 40.0677 51.0999Z" fill="white"/>
</svg>
