<svg width="24" height="25" viewBox="0 0 24 25" fill="none" xmlns="http://www.w3.org/2000/svg">
<path d="M20 8.44881C19.4167 8.70928 18.7865 8.8864 18.1094 8.98017C18.8177 8.56342 19.3021 7.95392 19.5625 7.15167C18.8854 7.54758 18.1875 7.81326 17.4688 7.94871C16.8333 7.26107 16.0365 6.91725 15.0781 6.91725C14.1719 6.91725 13.3984 7.23762 12.7578 7.87838C12.1172 8.51914 11.7969 9.29273 11.7969 10.1992C11.7969 10.5013 11.8229 10.7514 11.875 10.9493C10.5312 10.8764 9.27083 10.5378 8.09375 9.93349C6.91667 9.3292 5.91667 8.52174 5.09375 7.51112C4.79167 8.03206 4.64062 8.58425 4.64062 9.16771C4.64062 10.3555 5.11458 11.2671 6.0625 11.9026C5.57292 11.8922 5.05208 11.7568 4.5 11.4963V11.5276C4.5 12.309 4.76042 13.0044 5.28125 13.6139C5.80208 14.2234 6.44271 14.6011 7.20312 14.747C6.90104 14.8303 6.63542 14.872 6.40625 14.872C6.27083 14.872 6.06771 14.8512 5.79688 14.8095C6.01562 15.4659 6.40365 16.0077 6.96094 16.4348C7.51823 16.862 8.15104 17.0808 8.85938 17.0912C7.65104 18.0289 6.29167 18.4977 4.78125 18.4977C4.51042 18.4977 4.25 18.4821 4 18.4509C5.54167 19.4302 7.21875 19.9199 9.03125 19.9199C10.1979 19.9199 11.2917 19.735 12.3125 19.3651C13.3333 18.9952 14.2083 18.5003 14.9375 17.8804C15.6667 17.2605 16.2943 16.5468 16.8203 15.7394C17.3464 14.9319 17.737 14.088 17.9922 13.2076C18.2474 12.3272 18.375 11.4494 18.375 10.5742C18.375 10.3867 18.3698 10.2461 18.3594 10.1523C19.0156 9.68344 19.5625 9.11561 20 8.44881ZM24 5.41694V20.42C24 21.6599 23.5599 22.72 22.6797 23.6004C21.7995 24.4807 20.7396 24.9209 19.5 24.9209H4.5C3.26042 24.9209 2.20052 24.4807 1.32031 23.6004C0.440104 22.72 0 21.6599 0 20.42V5.41694C0 4.1771 0.440104 3.11699 1.32031 2.2366C2.20052 1.35621 3.26042 0.916016 4.5 0.916016H19.5C20.7396 0.916016 21.7995 1.35621 22.6797 2.2366C23.5599 3.11699 24 4.1771 24 5.41694Z" fill="white"/>
</svg>
