<svg width="70" height="55" viewBox="0 0 70 55" fill="none" xmlns="http://www.w3.org/2000/svg">
<path d="M57.3132 24.9804C57.3132 24.9804 58.2231 29.4649 58.4279 30.4043H54.4282L56.345 25.1605C56.3213 25.1974 56.7396 24.0627 56.979 23.3641L57.3132 24.9804ZM69.998 6.74321V49.1709C69.9974 50.7053 69.3914 52.1767 68.3131 53.2617C67.2348 54.3467 65.7724 54.9565 64.2475 54.957H6.74852C5.22356 54.9565 3.76122 54.3467 2.68291 53.2617C1.6046 52.1767 0.998557 50.7053 0.997986 49.1709V6.74321C0.998557 5.2088 1.6046 3.73739 2.68291 2.6524C3.76122 1.5674 5.22356 0.957606 6.74852 0.957031H64.2475C65.7724 0.957606 67.2348 1.5674 68.3131 2.6524C69.3914 3.73739 69.9974 5.2088 69.998 6.74321ZM19.2673 37.0214L26.8377 18.3156H21.7469L17.04 31.092L16.5247 28.5016L14.8471 19.895C14.5712 18.7017 13.7216 18.3633 12.6672 18.3156H4.91793L4.83384 18.6887C6.60853 19.1268 8.31088 19.821 9.88793 20.7498L14.1766 37.0214H19.2673ZM30.5765 37.0453L33.5952 18.3156H28.7804L25.7747 37.0453H30.5765ZM47.3344 30.9228C47.3581 28.7901 46.0644 27.163 43.298 25.8244C41.6097 24.9674 40.579 24.3903 40.579 23.5095C40.6028 22.7132 41.4544 21.8932 43.3454 21.8932C44.5771 21.8582 45.8008 22.1014 46.9268 22.6048L47.3581 22.8087L48.0179 18.7582C46.6414 18.2279 45.1794 17.958 43.7055 17.9619C38.949 17.9619 35.6069 20.5177 35.5832 24.156C35.5465 26.8441 37.9787 28.3389 39.8007 29.2414C41.6571 30.1569 42.2932 30.7601 42.2932 31.5672C42.2695 32.8212 40.7839 33.3983 39.4061 33.3983C37.4892 33.3983 36.4586 33.0967 34.8889 32.3981L34.255 32.0965L33.5844 36.3033C34.7099 36.8218 36.7949 37.2796 38.9511 37.3034C44.0052 37.3143 47.2999 34.7954 47.3365 30.9163L47.3344 30.9228ZM64.2475 37.0453L60.3663 18.3156H56.6404C55.4912 18.3156 54.6158 18.654 54.1242 19.8711L46.9721 37.0474H52.0262C52.0262 37.0474 52.852 34.7325 53.0331 34.24H59.2149C59.3594 34.9039 59.7906 37.0474 59.7906 37.0474L64.2475 37.0453Z" fill="white"/>
</svg>
