<svg id="Layer_3" data-name="Layer 3" xmlns="http://www.w3.org/2000/svg" width="16.804" height="16" viewBox="0 0 16.804 16">
  <path id="Path_384" data-name="Path 384" d="M53.947,50.415a8.009,8.009,0,0,0-11.314,0,.585.585,0,1,0,.827.827,6.827,6.827,0,1,1-1.716,2.875l.214.468a.526.526,0,0,0,.957-.44l-.754-1.637a.524.524,0,0,0-.687-.262.585.585,0,0,0-.152.068l-1.527.7a.526.526,0,0,0,.44.957l.388-.179a8,8,0,1,0,13.324-3.378Z" transform="translate(-39.488 -48.075)" fill="#141414"/>
  <path id="Path_385" data-name="Path 385" d="M104.71,89.059a1.2,1.2,0,0,0,1.012-.13,1.273,1.273,0,0,0,.577-.955l3.182-1.7a.7.7,0,0,0,.347-.418.745.745,0,0,0-.477-.9.7.7,0,0,0-.541.056l-2.429,1.3,1.088-3.587a.8.8,0,0,0-1.519-.461L104.6,86.719a1.241,1.241,0,0,0-.7.786,1.227,1.227,0,0,0,.81,1.554Z" transform="translate(-97.11 -79.08)" fill="#141414"/>
</svg>
