<svg xmlns="http://www.w3.org/2000/svg" width="15.45" height="17" viewBox="0 0 15.45 17">
  <g id="Group_794" data-name="Group 794" transform="translate(-752.75 -513.949)">
    <path id="Path_439" data-name="Path 439" d="M4.5,9H18.45" transform="translate(749 508.799)" fill="none" stroke="#202020" stroke-linecap="round" stroke-linejoin="round" stroke-width="1.5"/>
    <g id="Group_791" data-name="Group 791" transform="translate(755.21 514.699)">
      <path id="Path_367" data-name="Path 367" d="M18.35,6.1V16.95A1.55,1.55,0,0,1,16.8,18.5H9.05A1.55,1.55,0,0,1,7.5,16.95V6.1m2.325,0V4.55A1.55,1.55,0,0,1,11.375,3h3.1a1.55,1.55,0,0,1,1.55,1.55V6.1" transform="translate(-7.5 -3)" fill="none" stroke="#202020" stroke-linecap="round" stroke-linejoin="round" stroke-width="1.5"/>
      <path id="Path_368" data-name="Path 368" d="M15,16.5v4.65" transform="translate(-11.125 -9.525)" fill="none" stroke="#202020" stroke-linecap="round" stroke-linejoin="round" stroke-width="1.5"/>
      <path id="Path_369" data-name="Path 369" d="M21,16.5v4.65" transform="translate(-14.025 -9.525)" fill="none" stroke="#202020" stroke-linecap="round" stroke-linejoin="round" stroke-width="1.5"/>
    </g>
  </g>
</svg>
