<svg xmlns="http://www.w3.org/2000/svg" width="21.206" height="21.206" viewBox="0 0 21.206 21.206">
  <g id="Icon_feather-image" data-name="Icon feather-image" transform="translate(-3.625 -3.625)">
    <path id="Path_441" data-name="Path 441" d="M6.622,4.5H21.472a2.122,2.122,0,0,1,2.122,2.122V21.472a2.122,2.122,0,0,1-2.122,2.122H6.622A2.122,2.122,0,0,1,4.5,21.472V6.622A2.122,2.122,0,0,1,6.622,4.5Z" fill="none" stroke="#fff" stroke-linecap="round" stroke-linejoin="round" stroke-width="1.75"/>
    <path id="Path_442" data-name="Path 442" d="M13.682,12.091A1.591,1.591,0,1,1,12.091,10.5,1.591,1.591,0,0,1,13.682,12.091Z" transform="translate(-1.757 -1.757)" fill="none" stroke="#fff" stroke-linecap="round" stroke-linejoin="round" stroke-width="1.75"/>
    <path id="Path_443" data-name="Path 443" d="M24.472,20.3l-5.3-5.3L7.5,26.668" transform="translate(-0.878 -3.075)" fill="none" stroke="#fff" stroke-linecap="round" stroke-linejoin="round" stroke-width="1.75"/>
  </g>
</svg>
