<svg xmlns="http://www.w3.org/2000/svg" width="16.366" height="19.093" viewBox="0 0 16.366 19.093">
  <path id="Icon_metro-file-pdf" data-name="Icon metro-file-pdf" d="M18.212,6.252a2.479,2.479,0,0,1,.511.81A2.459,2.459,0,0,1,18.936,8V20.274A1.019,1.019,0,0,1,17.914,21.3H3.594a1.019,1.019,0,0,1-1.023-1.023V3.226A1.019,1.019,0,0,1,3.594,2.2H13.14a2.46,2.46,0,0,1,.938.213,2.479,2.479,0,0,1,.81.511Zm-4.731-2.6V7.659h4.006a1.164,1.164,0,0,0-.234-.437L13.918,3.887a1.164,1.164,0,0,0-.437-.234Zm4.091,16.28V9.023H13.14A1.019,1.019,0,0,1,12.117,8V3.567H3.935V19.933H17.573ZM12.1,13.615a8.107,8.107,0,0,0,.895.6,10.573,10.573,0,0,1,1.247-.075q1.566,0,1.886.522a.515.515,0,0,1,.021.554.031.031,0,0,1-.011.021l-.021.021v.011q-.064.4-.756.4a4.4,4.4,0,0,1-1.225-.213,7.769,7.769,0,0,1-1.385-.565,19.186,19.186,0,0,0-4.177.884q-1.63,2.792-2.578,2.792a.62.62,0,0,1-.3-.075l-.256-.128q-.011-.011-.064-.053a.44.44,0,0,1-.064-.384,2.314,2.314,0,0,1,.6-.975,5.149,5.149,0,0,1,1.406-1.028.155.155,0,0,1,.245.064.061.061,0,0,1,.021.043q.554-.906,1.14-2.1a16.262,16.262,0,0,0,1.108-2.792,8.613,8.613,0,0,1-.325-1.7,4.143,4.143,0,0,1,.069-1.358q.117-.426.447-.426h.234a.449.449,0,0,1,.373.16.851.851,0,0,1,.1.725.231.231,0,0,1-.043.085.277.277,0,0,1,.011.085v.32a13.952,13.952,0,0,1-.149,2.046A5.39,5.39,0,0,0,12.1,13.615ZM5.959,17.994a4.7,4.7,0,0,0,1.46-1.683,6.074,6.074,0,0,0-.932.895A3.541,3.541,0,0,0,5.959,17.994Zm4.241-9.8A3.168,3.168,0,0,0,10.178,9.6q.011-.075.075-.469,0-.032.075-.458a.24.24,0,0,1,.043-.085.031.031,0,0,1-.011-.021.022.022,0,0,0-.005-.016.022.022,0,0,1-.005-.016.613.613,0,0,0-.139-.384.031.031,0,0,1-.011.021v.021ZM8.878,15.234a15.628,15.628,0,0,1,3.026-.863,1.607,1.607,0,0,1-.139-.1,1.908,1.908,0,0,1-.17-.144,5.644,5.644,0,0,1-1.353-1.875,14.238,14.238,0,0,1-.884,2.1q-.32.6-.479.884Zm6.883-.17a2.55,2.55,0,0,0-1.492-.256,4.03,4.03,0,0,0,1.321.3,1.033,1.033,0,0,0,.192-.011q0-.011-.021-.032Z" transform="translate(-2.571 -2.203)" fill="#fff"/>
</svg>
