<svg xmlns="http://www.w3.org/2000/svg" width="19.731" height="16.443" viewBox="0 0 19.731 16.443">
  <path id="Icon_awesome-volume-up" data-name="Icon awesome-volume-up" d="M7.366,3.011,4.318,6.058H.822A.822.822,0,0,0,0,6.88v4.933a.822.822,0,0,0,.822.822h3.5l3.048,3.047a.823.823,0,0,0,1.4-.581V3.592A.823.823,0,0,0,7.366,3.011Zm7.992-1.75a.829.829,0,0,0-.91,1.386,8,8,0,0,1,0,13.4.829.829,0,1,0,.91,1.386,9.662,9.662,0,0,0,0-16.171Zm1.084,8.085A6.325,6.325,0,0,0,13.5,3.994a.819.819,0,0,0-1.135.256.832.832,0,0,0,.254,1.143,4.682,4.682,0,0,1,0,7.908.832.832,0,0,0-.254,1.143A.82.82,0,0,0,13.5,14.7,6.324,6.324,0,0,0,16.443,9.346ZM11.586,6.713a.822.822,0,1,0-.793,1.441,1.35,1.35,0,0,1,0,2.385.822.822,0,0,0,.793,1.441,2.995,2.995,0,0,0,0-5.266Z" transform="translate(0 -1.125)" fill="#fff"/>
</svg>
