<svg width="33" height="32" viewBox="0 0 33 32" fill="none" xmlns="http://www.w3.org/2000/svg">
<ellipse rx="16" ry="15.8289" transform="matrix(0.999942 0.0107563 -0.0109902 0.99994 16.173 16)" fill="#3B5A9D"/>
<path d="M16.3474 8.00011C11.9477 7.95279 8.30871 11.4817 8.26042 15.8757C8.21675 19.8486 11.1083 23.1775 14.9256 23.8146L14.9867 18.2526L12.9548 18.2307L12.9801 15.9265L15.012 15.9483L15.0313 14.1923C15.0532 12.1979 16.2572 11.1142 18.0891 11.1339C18.961 11.1433 19.8713 11.3041 19.8713 11.3041L19.8498 13.2667L18.8418 13.2559C17.8499 13.2452 17.5312 13.8537 17.5243 14.4814L17.5079 15.9752L19.7317 15.9991L19.3464 18.2995L17.4825 18.2794L17.4214 23.8414C19.3097 23.566 21.0367 22.6291 22.2907 21.1999C23.5446 19.7707 24.2429 17.9434 24.2595 16.0478C24.3077 11.6538 20.7472 8.04744 16.3474 8.00011Z" fill="white"/>
</svg>
