<svg width="33" height="32" viewBox="0 0 33 32" fill="none" xmlns="http://www.w3.org/2000/svg">
<ellipse rx="16" ry="15.8289" transform="matrix(0.999942 0.0107563 -0.0109902 0.99994 16.173 16)" fill="#006699"/>
<path d="M22.5693 8.06704C23.0408 8.07211 23.4909 8.26226 23.8206 8.59566C24.1504 8.92906 24.3328 9.37839 24.3276 9.84482L24.1923 22.1554C24.1872 22.6218 23.995 23.0671 23.658 23.3934C23.321 23.7196 22.8668 23.9 22.3953 23.8949L9.95163 23.7611C9.48017 23.756 9.03004 23.5659 8.70029 23.2325C8.37054 22.8991 8.18816 22.4497 8.19329 21.9833L8.32859 9.67272C8.33372 9.20629 8.52593 8.76099 8.86293 8.43476C9.19993 8.10854 9.65413 7.92811 10.1256 7.93318L22.5693 8.06704ZM21.9751 21.6918L22.0263 17.0314C22.0347 16.2711 21.7374 15.5387 21.1999 14.9953C20.6624 14.4518 19.9287 14.1419 19.1602 14.1336C18.4047 14.1255 17.5197 14.5733 17.0855 15.2546L17.0963 14.2785L14.6164 14.2518L14.5355 21.6118L17.0154 21.6385L17.063 17.3034C17.0705 16.6263 17.6276 16.0783 18.312 16.0856C18.6421 16.0892 18.9572 16.2223 19.188 16.4557C19.4188 16.689 19.5465 17.0036 19.5429 17.3301L19.4952 21.6652L21.9751 21.6918ZM11.7429 12.8402C12.1389 12.8445 12.5204 12.6929 12.8035 12.4189C13.0866 12.1449 13.248 11.7708 13.2524 11.379C13.2613 10.5612 12.6021 9.88578 11.7754 9.87689C11.3771 9.8726 10.9933 10.0251 10.7085 10.3007C10.4237 10.5764 10.2613 10.9527 10.257 11.3468C10.248 12.1646 10.9163 12.8313 11.7429 12.8402ZM12.8823 21.594L12.9632 14.2341L10.5011 14.2076L10.4202 21.5675L12.8823 21.594Z" fill="white"/>
</svg>
