<svg width="33" height="32" viewBox="0 0 33 32" fill="none" xmlns="http://www.w3.org/2000/svg">
<ellipse rx="16" ry="15.8289" transform="matrix(0.999942 0.0107563 -0.0109902 0.99994 16.173 16)" fill="#6CCFF6"/>
<path d="M24.328 11.5796C23.7363 11.838 23.0997 12.0052 22.4412 12.0813C23.1185 11.6876 23.6455 11.0578 23.8985 10.2963C23.2597 10.6678 22.5533 10.925 21.8099 11.0683C21.213 10.4112 20.3684 10.0238 19.4049 10.0135C17.608 9.99414 16.1239 11.4308 16.1041 13.2236C16.1013 13.4809 16.1292 13.7308 16.1801 13.9659C13.4594 13.8005 11.0497 12.4808 9.45776 10.5042C9.1696 10.9777 9.00287 11.5358 8.99638 12.1258C8.98399 13.253 9.54651 14.2577 10.4273 14.8346C9.88437 14.8288 9.38136 14.672 8.94035 14.4403C8.94035 14.4403 8.94035 14.4403 8.9401 14.463C8.92281 16.0365 10.04 17.3649 11.5355 17.6761C11.2594 17.7488 10.9684 17.7835 10.6702 17.7803C10.4638 17.7781 10.2576 17.7531 10.0592 17.7132C10.458 18.9961 11.6481 19.9621 13.093 20.0004C11.967 20.8659 10.5467 21.3651 9.00208 21.3485C8.7421 21.3457 8.48228 21.3277 8.22263 21.2947C9.66534 22.2332 11.3876 22.7889 13.238 22.8088C19.2636 22.8736 22.6289 17.9619 22.6761 13.6726C22.6777 13.5289 22.6791 13.3927 22.6731 13.2489C23.3204 12.8019 23.8773 12.2329 24.328 11.5796Z" fill="white"/>
</svg>
