<svg xmlns="http://www.w3.org/2000/svg" width="48" height="48" viewBox="0 0 48 48">
  <g id="Group_607" data-name="Group 607" transform="translate(-941 -298)">
    <g id="Ellipse_198" data-name="Ellipse 198" transform="translate(941 298)" fill="#fff" stroke="#146efa" stroke-width="1.5">
      <circle cx="24" cy="24" r="24" stroke="none"/>
      <circle cx="24" cy="24" r="23.25" fill="none"/>
    </g>
    <path id="Icon_awesome-rupee-sign" data-name="Icon awesome-rupee-sign" d="M12.576,4.863a.49.49,0,0,0,.49-.49V2.74a.49.49,0,0,0-.49-.49H.49A.49.49,0,0,0,0,2.74V4.567a.49.49,0,0,0,.49.49H3.972A2.946,2.946,0,0,1,6.462,6.17H.49A.49.49,0,0,0,0,6.66V8.293a.49.49,0,0,0,.49.49H6.972A2.822,2.822,0,0,1,3.92,11.177H.49a.49.49,0,0,0-.49.49v2.165a.49.49,0,0,0,.158.36L6.9,20.413a.49.49,0,0,0,.332.13H10.6a.49.49,0,0,0,.332-.85L4.772,14.006A5.594,5.594,0,0,0,10.42,8.783h2.156a.49.49,0,0,0,.49-.49V6.66a.49.49,0,0,0-.49-.49h-2.4A5.593,5.593,0,0,0,9.6,4.863Z" transform="translate(958 310.75)" fill="#146efa"/>
  </g>
</svg>
