<svg xmlns="http://www.w3.org/2000/svg" width="12.496" height="17.295" viewBox="0 0 12.496 17.295">
  <path id="Icon_awesome-rupee-sign" data-name="Icon awesome-rupee-sign" d="M11.547,4.649A.45.45,0,0,0,12,4.2V2.7a.45.45,0,0,0-.45-.45H.45A.45.45,0,0,0,0,2.7V4.377a.45.45,0,0,0,.45.45h3.2A2.7,2.7,0,0,1,5.933,5.849H.45A.45.45,0,0,0,0,6.3V7.8a.45.45,0,0,0,.45.45H6.4a2.591,2.591,0,0,1-2.8,2.2H.45A.45.45,0,0,0,0,10.9v1.987a.45.45,0,0,0,.145.331l6.188,5.712a.45.45,0,0,0,.305.119h3.1a.45.45,0,0,0,.305-.78L4.381,13.043a5.136,5.136,0,0,0,5.185-4.8h1.98A.45.45,0,0,0,12,7.8V6.3a.45.45,0,0,0-.45-.45h-2.2a5.135,5.135,0,0,0-.534-1.2Z" transform="translate(0.25 -2)" stroke="#fff" stroke-width="0.5"/>
</svg>
