<svg xmlns="http://www.w3.org/2000/svg" width="8.701" height="8.701" viewBox="0 0 8.701 8.701">
  <g id="icon-expand" transform="translate(-4.5 -4.5)">
    <path id="Path_335" data-name="Path 335" d="M5.6,5.134H7.357a.314.314,0,0,0,.315-.315v0A.314.314,0,0,0,7.357,4.5H4.815a.314.314,0,0,0-.315.315V7.357a.314.314,0,0,0,.315.315h0a.314.314,0,0,0,.315-.315V5.6L7.788,8.232a.312.312,0,0,0,.222.091.3.3,0,0,0,.222-.093.315.315,0,0,0,0-.444Z" transform="translate(0 0)" fill="#306bff"/>
    <path id="Path_336" data-name="Path 336" d="M23.144,4.5H20.6a.314.314,0,0,0-.315.315v0a.314.314,0,0,0,.315.315h1.761L19.727,7.788a.315.315,0,0,0,.444.446L22.824,5.6V7.357a.314.314,0,0,0,.315.315h0a.314.314,0,0,0,.315-.315V4.815A.314.314,0,0,0,23.144,4.5Z" transform="translate(-10.257 0)" fill="#306bff"/>
    <path id="Path_337" data-name="Path 337" d="M8.01,19.631a.312.312,0,0,0-.222.091L5.134,22.359V20.6a.314.314,0,0,0-.315-.315h0A.314.314,0,0,0,4.5,20.6v2.542a.314.314,0,0,0,.315.315H7.357a.314.314,0,0,0,.315-.315v0a.314.314,0,0,0-.315-.315H5.6l2.635-2.653a.315.315,0,0,0-.222-.537Z" transform="translate(0 -10.255)" fill="#306bff"/>
    <path id="Path_338" data-name="Path 338" d="M23.144,20.289h0a.314.314,0,0,0-.315.315v1.761l-2.653-2.635a.312.312,0,0,0-.222-.091.3.3,0,0,0-.222.093.315.315,0,0,0,0,.444l2.635,2.651H20.6a.314.314,0,0,0-.315.315v0a.314.314,0,0,0,.315.315h2.542a.314.314,0,0,0,.315-.315V20.6A.314.314,0,0,0,23.144,20.289Z" transform="translate(-10.257 -10.26)" fill="#306bff"/>
  </g>
</svg>
