<?xml version="1.0" encoding="utf-8"?>
<!-- Generator: Adobe Illustrator 16.0.0, SVG Export Plug-In . SVG Version: 6.00 Build 0)  -->
<!DOCTYPE svg PUBLIC "-//W3C//DTD SVG 1.1//EN" "http://www.w3.org/Graphics/SVG/1.1/DTD/svg11.dtd">
<svg version="1.1" id="Layer_1" xmlns="http://www.w3.org/2000/svg" xmlns:xlink="http://www.w3.org/1999/xlink" x="0px" y="0px"
	 width="48px" height="48px" viewBox="0 0 48 48" enable-background="new 0 0 48 48" xml:space="preserve">
<g>
	<g>
		<path d="M30.253,37.296c-0.295-0.294-0.736-0.294-1.03,0l-1.914,1.914c-0.295,0.295-0.295,0.735,0,1.029
			c0.294,0.295,0.736,0.295,1.03,0l0.663-0.662v6.846c0,0.441,0.295,0.736,0.735,0.736c0.442,0,0.736-0.295,0.736-0.736v-6.846
			l0.662,0.662c0.148,0.148,0.369,0.223,0.516,0.223c0.221,0,0.368-0.074,0.516-0.223c0.294-0.294,0.294-0.734,0-1.029
			L30.253,37.296z"/>
	</g>
	<g>
		<path d="M43.208,13.079c-0.295-0.147-0.663-0.074-0.883,0.147l-3.902,3.901l-3.9-3.901c-0.222-0.221-0.59-0.294-0.883-0.147
			c-2.871,1.473-4.638,4.417-4.638,7.655v12.439c0,0.442,0.295,0.737,0.735,0.737h3.755v12.219c0,0.44,0.293,0.735,0.735,0.735
			h8.465c0.442,0,0.736-0.295,0.736-0.735V33.91h3.754c0.441,0,0.736-0.295,0.736-0.737V20.734
			C47.845,17.495,46.079,14.551,43.208,13.079z M46.373,32.438h-3.754c-0.44,0-0.735,0.296-0.735,0.735v12.22h-2.725V33.615
			c0-0.442-0.294-0.735-0.736-0.735c-0.44,0-0.735,0.293-0.735,0.735v11.777h-2.724v-12.22c0-0.439-0.294-0.735-0.736-0.735h-3.754
			V20.734c0-2.502,1.251-4.784,3.386-6.036l4.049,4.048c0.148,0.148,0.294,0.221,0.515,0.221s0.369-0.073,0.516-0.221l4.048-4.048
			c2.135,1.325,3.387,3.606,3.387,6.036V32.438z"/>
	</g>
	<g>
		<path d="M38.423,12.416c3.387,0,6.185-2.797,6.185-6.183c0-3.386-2.798-6.184-6.185-6.184c-3.386,0-6.183,2.797-6.183,6.184
			C32.24,9.619,34.964,12.416,38.423,12.416z M38.423,1.522c2.576,0,4.712,2.134,4.712,4.711c0,2.576-2.136,4.71-4.712,4.71
			c-2.575,0-4.71-2.135-4.71-4.71C33.713,3.657,35.773,1.522,38.423,1.522z"/>
	</g>
	<g>
		<path d="M38.423,20.292c-0.44,0-0.735,0.294-0.735,0.736v0.663c0,0.441,0.295,0.736,0.735,0.736c0.442,0,0.736-0.295,0.736-0.736
			v-0.663C39.159,20.66,38.792,20.292,38.423,20.292z"/>
	</g>
	<g>
		<path d="M38.423,23.384c-0.44,0-0.735,0.295-0.735,0.737v0.662c0,0.441,0.295,0.736,0.735,0.736c0.442,0,0.736-0.295,0.736-0.736
			v-0.662C39.159,23.679,38.792,23.384,38.423,23.384z"/>
	</g>
	<g>
		<path d="M38.423,26.475c-0.44,0-0.735,0.295-0.735,0.736v0.663c0,0.441,0.295,0.736,0.735,0.736c0.442,0,0.736-0.295,0.736-0.736
			v-0.663C39.159,26.77,38.792,26.475,38.423,26.475z"/>
	</g>
	<g>
		<path d="M38.423,29.566c-0.44,0-0.735,0.295-0.735,0.737v0.661c0,0.442,0.295,0.736,0.735,0.736c0.442,0,0.736-0.294,0.736-0.736
			v-0.661C39.159,29.861,38.792,29.566,38.423,29.566z"/>
	</g>
	<g>
		<path d="M30.399,13.741c0-0.441-0.294-0.736-0.735-0.736h-9.643c-0.442,0-0.736,0.295-0.736,0.736v32.682
			c0,0.441,0.294,0.736,0.736,0.736c0.441,0,0.736-0.295,0.736-0.736V14.477h8.906C30.105,14.477,30.399,14.109,30.399,13.741z"/>
	</g>
	<g>
		<path d="M17.298,20.66h-6.919c-0.441,0-0.736,0.294-0.736,0.736v25.026c0,0.441,0.295,0.736,0.736,0.736s0.736-0.295,0.736-0.736
			V22.132h6.183c0.442,0,0.736-0.294,0.736-0.736C18.034,20.955,17.667,20.66,17.298,20.66z"/>
	</g>
	<g>
		<path d="M7.655,27.358H0.736C0.294,27.358,0,27.653,0,28.096v18.327c0,0.441,0.294,0.736,0.736,0.736
			c0.442,0,0.737-0.295,0.737-0.736V28.83h6.183c0.442,0,0.736-0.293,0.736-0.734C8.392,27.727,8.023,27.358,7.655,27.358z"/>
	</g>
</g>
</svg>
