<svg xmlns="http://www.w3.org/2000/svg" width="41.905" height="36.439" viewBox="0 0 41.905 36.439">
  <g id="noun_Community_1150655" transform="translate(-4.875 -9.781)">
    <path id="Path_278" data-name="Path 278" d="M15.511,53.959a4.6,4.6,0,1,0-4.6-4.6A4.607,4.607,0,0,0,15.511,53.959Zm0-7.815A3.213,3.213,0,1,1,12.3,49.357,3.216,3.216,0,0,1,15.511,46.144Z" transform="translate(-3.174 -18.72)" fill="#565656" stroke="#fff" stroke-width="0.25"/>
    <path id="Path_279" data-name="Path 279" d="M12.336,67.367A7.345,7.345,0,0,0,5,74.7a2.26,2.26,0,0,0,2.257,2.257H17.416A2.26,2.26,0,0,0,19.673,74.7,7.345,7.345,0,0,0,12.336,67.367Zm5.08,8.205H7.257a.87.87,0,0,1-.869-.869,5.948,5.948,0,1,1,11.9,0A.87.87,0,0,1,17.416,75.572Z" transform="translate(0 -30.866)" fill="#565656" stroke="#fff" stroke-width="0.25"/>
    <path id="Path_280" data-name="Path 280" d="M44.66,35.412a4.6,4.6,0,1,0-4.6-4.6A4.607,4.607,0,0,0,44.66,35.412Zm0-7.815a3.213,3.213,0,1,1-3.213,3.213A3.217,3.217,0,0,1,44.66,27.6Z" transform="translate(-18.832 -8.757)" fill="#565656" stroke="#fff" stroke-width="0.25"/>
    <path id="Path_281" data-name="Path 281" d="M48.822,56.157a7.336,7.336,0,1,0-14.673,0,2.26,2.26,0,0,0,2.257,2.257H46.565A2.26,2.26,0,0,0,48.822,56.157Zm-2.257.869H36.406a.869.869,0,0,1-.868-.869,5.948,5.948,0,1,1,11.9,0A.87.87,0,0,1,46.565,57.026Z" transform="translate(-15.658 -20.903)" fill="#565656" stroke="#fff" stroke-width="0.25"/>
    <path id="Path_282" data-name="Path 282" d="M73.809,53.959a4.6,4.6,0,1,0-4.6-4.6A4.607,4.607,0,0,0,73.809,53.959Zm0-7.815A3.213,3.213,0,1,1,70.6,49.357,3.216,3.216,0,0,1,73.809,46.144Z" transform="translate(-34.49 -18.72)" fill="#565656" stroke="#fff" stroke-width="0.25"/>
    <path id="Path_283" data-name="Path 283" d="M70.634,67.367A7.345,7.345,0,0,0,63.3,74.7a2.26,2.26,0,0,0,2.257,2.257H75.714A2.26,2.26,0,0,0,77.971,74.7,7.345,7.345,0,0,0,70.634,67.367Zm5.079,8.205H65.555a.869.869,0,0,1-.868-.869,5.948,5.948,0,1,1,11.9,0A.87.87,0,0,1,75.714,75.572Z" transform="translate(-31.316 -30.866)" fill="#565656" stroke="#fff" stroke-width="0.25"/>
    <path id="Path_284" data-name="Path 284" d="M49.194,14.891a.694.694,0,0,0,.694-.694V10.6a.694.694,0,1,0-1.389,0v3.6A.694.694,0,0,0,49.194,14.891Z" transform="translate(-23.367)" fill="#565656" stroke="#fff" stroke-width="0.25"/>
    <path id="Path_285" data-name="Path 285" d="M72.324,25.694a.692.692,0,0,0,.491-.2l2.543-2.543a.694.694,0,0,0-.982-.982l-2.543,2.543a.694.694,0,0,0,.491,1.185Z" transform="translate(-35.791 -6.369)" fill="#565656" stroke="#fff" stroke-width="0.25"/>
    <path id="Path_286" data-name="Path 286" d="M22.624,25.49a.694.694,0,1,0,.982-.982l-2.543-2.543a.694.694,0,1,0-.982.982Z" transform="translate(-7.992 -6.368)" fill="#565656" stroke="#fff" stroke-width="0.25"/>
    <path id="Path_287" data-name="Path 287" d="M34.438,17.269a.694.694,0,0,0,1.283-.531l-1.376-3.323a.694.694,0,0,0-1.283.531Z" transform="translate(-15.045 -1.654)" fill="#565656" stroke="#fff" stroke-width="0.25"/>
    <path id="Path_288" data-name="Path 288" d="M61.445,17.644a.695.695,0,0,0,.907-.376l1.376-3.323a.694.694,0,0,0-1.283-.531L61.07,16.737A.7.7,0,0,0,61.445,17.644Z" transform="translate(-30.09 -1.654)" fill="#565656" stroke="#fff" stroke-width="0.25"/>
  </g>
</svg>
