<svg xmlns="http://www.w3.org/2000/svg" width="12" height="12" viewBox="0 0 12 12">
  <path id="Icon_simple-whatsapp" data-name="Icon simple-whatsapp" d="M8.749,7.191c-.151-.075-.884-.434-1.02-.483s-.236-.075-.337.075-.385.482-.472.581-.175.105-.323.037a4.058,4.058,0,0,1-1.2-.742,4.536,4.536,0,0,1-.83-1.035c-.087-.15-.009-.233.065-.307s.151-.172.226-.261a1.267,1.267,0,0,0,.149-.248.275.275,0,0,0-.012-.262c-.038-.075-.336-.81-.461-1.1s-.243-.255-.336-.255-.186-.008-.286-.008a.564.564,0,0,0-.4.179A1.669,1.669,0,0,0,2.989,4.6,2.925,2.925,0,0,0,3.6,6.134a6.667,6.667,0,0,0,2.55,2.243c.357.15.635.24.852.314a2.069,2.069,0,0,0,.94.061,1.539,1.539,0,0,0,1.008-.713,1.238,1.238,0,0,0,.09-.713C9,7.258,8.9,7.221,8.753,7.153M6.03,10.875H6.023a5,5,0,0,1-2.528-.69l-.18-.107-1.875.487.5-1.823-.119-.187A4.959,4.959,0,0,1,9.546,2.438,4.894,4.894,0,0,1,11,5.933a4.965,4.965,0,0,1-4.967,4.943M10.26,1.724A6.071,6.071,0,0,0,6.023,0,5.945,5.945,0,0,0,.848,8.919L0,12l3.168-.826a6.031,6.031,0,0,0,2.855.724h0A5.97,5.97,0,0,0,12,5.95a5.9,5.9,0,0,0-1.747-4.206" fill="#565656"/>
</svg>
