<svg xmlns="http://www.w3.org/2000/svg" width="33.627" height="37.283" viewBox="0 0 33.627 37.283">
  <g id="noun_event_1756066" transform="translate(-12.917 -8.861)">
    <g id="Group_59" data-name="Group 59" transform="translate(13.042 8.987)">
      <path id="Path_277" data-name="Path 277" d="M23.975,961.35a.365.365,0,0,0-.085.014.373.373,0,0,0-.282.367v1.763a.379.379,0,0,0-.056,0h-4.9a.368.368,0,0,0-.071,0,.372.372,0,0,0-.282.353v21.387a6.645,6.645,0,1,0,7.985,7.124H46.1a.7.7,0,0,0,.071-.014.363.363,0,0,0,.1-.056.371.371,0,0,0,.127-.409V963.847a.375.375,0,0,0-.367-.353H41.144a.368.368,0,0,0-.071,0v-1.763a.378.378,0,0,0-.437-.367.373.373,0,0,0-.282.367v1.763H24.427c-.033,0-.066,0-.1,0v-1.763a.376.376,0,0,0-.353-.381Zm-4.952,2.864h4.528a.4.4,0,0,0,.056,0V965.5a.372.372,0,0,0,.353.4.384.384,0,0,0,.367-.4v-1.27c.033,0,.067-.008.1-.014h6.066a.368.368,0,0,0,.071,0h4.119a.368.368,0,0,0,.071,0h5.6V965.5a.372.372,0,0,0,.353.4.384.384,0,0,0,.367-.4v-1.284a.368.368,0,0,0,.071,0h4.514v27.424H26.3a.359.359,0,0,0-.014-.056s0-.009,0-.014a.361.361,0,0,0,.028-.141,6.614,6.614,0,0,0-.24-1.481H43.4a.375.375,0,0,0,.353-.353l.028-4.6.028-4.585.028-4.585.028-4.6a.375.375,0,0,0-.353-.367H21.323a.373.373,0,0,0-.282.367l-.028,4.585-.028,4.6-.028,4.585v.226a6.658,6.658,0,0,0-1.284-.127c-.22,0-.435.007-.649.028V964.213Zm8.478,4.035-.3.141-.042.324.226.24.113.014h2.892l.3-.155.042-.324-.24-.226-.1-.014Zm4.331,0-.3.141-.042.324.24.24.1.014h.719l.3-.155.056-.324-.24-.226-.113-.014Zm2.173,0-.3.141-.056.324.24.24.113.014H36.9l.282-.155.056-.324-.24-.226-.1-.014Zm-12.231,3.343h4.867l-.014,3.809H21.746l.028-3.809Zm5.586,0H32.2l-.014,3.809H27.347Zm5.558,0h4.839l-.014,3.809H32.9Zm5.558,0h4.67l-.028,3.809H38.463ZM21.746,976.12h4.881l-.014,3.908H21.7l.042-3.908Zm5.6,0h4.839l-.014,3.908H27.332Zm5.558,0h4.839l-.014,3.908H32.89l.014-3.908Zm5.558,0h4.613a.348.348,0,0,0,.042.014l-.028,3.894H38.448l.014-3.908ZM21.7,980.747h4.9l-.014,3.922H21.675l.028-3.922Zm5.615,0h4.839l-.014,3.922H27.3l.014-3.922Zm5.558,0h4.839l-.014,3.922H32.862Zm5.558,0h4.655l-.028,3.922H38.42Zm-16.759,4.641h4.909l-.014,3.837h-.748a6.677,6.677,0,0,0-4.148-3.823v-.014Zm5.629,0h4.839l-.014,3.837H27.289Zm5.558,0H37.7l-.014,3.837H32.847Zm5.558,0h4.641l-.028,3.837H38.405l.014-3.837Zm-18.748.423a5.919,5.919,0,0,1,5.911,5.643.3.3,0,0,1,.014.282,5.918,5.918,0,1,1-5.925-5.925Zm3.216,3.231-.042.014-.014.014a.361.361,0,0,0-.183.1l-4.585,4.373-1.34-1.566a.361.361,0,1,0-.55.466l1.58,1.862a.361.361,0,0,0,.522.028l4.881-4.641a.361.361,0,0,0-.268-.649Z" transform="translate(-13.042 -961.35)" fill="#565656" stroke="#565656" stroke-width="0.25"/>
    </g>
  </g>
</svg>
