<svg xmlns="http://www.w3.org/2000/svg" width="17.715" height="17.711" viewBox="0 0 17.715 17.711">
  <path id="Icon_ionic-ios-globe" data-name="Icon ionic-ios-globe" d="M12.23,3.375H12.2a8.855,8.855,0,0,0,0,17.711h.03a8.855,8.855,0,1,0,0-17.711ZM19.9,11.634H16.6a16.766,16.766,0,0,0-.417-3.244A12.97,12.97,0,0,0,18.3,7.5,7.627,7.627,0,0,1,19.9,11.634Zm-8.268,0H9a15.132,15.132,0,0,1,.375-2.942,12.953,12.953,0,0,0,2.256.3Zm0,1.192v2.635a13.007,13.007,0,0,0-2.256.3A15.131,15.131,0,0,1,9,12.826Zm1.192,0h2.61a15.043,15.043,0,0,1-.375,2.933,12.708,12.708,0,0,0-2.235-.3Zm0-1.192V8.995a13.008,13.008,0,0,0,2.235-.3,15.088,15.088,0,0,1,.375,2.938Zm4.658-5.019a11.827,11.827,0,0,1-1.618.66,8.79,8.79,0,0,0-1.128-2.32A7.7,7.7,0,0,1,17.484,6.615Zm-2.742.966a11.982,11.982,0,0,1-1.916.255V4.712A5.159,5.159,0,0,1,14.742,7.581ZM11.634,4.695V7.832A11.775,11.775,0,0,1,9.7,7.573,5.156,5.156,0,0,1,11.634,4.695Zm-1.941.272a8.86,8.86,0,0,0-1.12,2.3,12.093,12.093,0,0,1-1.6-.656A7.589,7.589,0,0,1,9.693,4.967ZM6.164,7.5a12.713,12.713,0,0,0,2.095.886,16.09,16.09,0,0,0-.417,3.244H4.563A7.588,7.588,0,0,1,6.164,7.5ZM4.559,12.826H7.837a16.722,16.722,0,0,0,.417,3.244,13.488,13.488,0,0,0-2.095.886A7.628,7.628,0,0,1,4.559,12.826Zm2.414,5.019a11.915,11.915,0,0,1,1.6-.656A8.891,8.891,0,0,0,9.693,19.5,7.778,7.778,0,0,1,6.972,17.846ZM9.7,16.884a11.836,11.836,0,0,1,1.937-.26v3.142A5.148,5.148,0,0,1,9.7,16.884Zm3.129,2.865V16.62a11.982,11.982,0,0,1,1.916.255A5.156,5.156,0,0,1,12.826,19.749Zm1.916-.243a8.79,8.79,0,0,0,1.128-2.32,11.632,11.632,0,0,1,1.618.664A7.792,7.792,0,0,1,14.742,19.506ZM18.3,16.96a12.97,12.97,0,0,0-2.116-.894,16.678,16.678,0,0,0,.417-3.24h3.3A7.594,7.594,0,0,1,18.3,16.96Z" transform="translate(-3.375 -3.375)" fill="#b4b4b4"/>
</svg>
