<svg xmlns="http://www.w3.org/2000/svg" width="30.759" height="36.28" viewBox="0 0 30.759 36.28">
  <g id="noun_content_986487" transform="translate(-4.4 0.68)">
    <g id="Group_265" data-name="Group 265" transform="translate(4.6 -0.4)">
      <path id="Path_364" data-name="Path 364" d="M28.3,22.355H43.208V11.8H28.3Zm.816-.816v-1.36l1.36-1.36L32,20.342l3.7-3.7,2.122,2.448,1.523-1.523,3.1,3.1v.871Zm13.33-8.923v6.91l-3.1-3.1-1.523,1.469-2.067-2.448L32,19.2l-1.523-1.523-1.36,1.36v-6.42Z" transform="translate(-15.406 -5.162)" fill="#565656" stroke="#565656" stroke-width="0.4"/>
      <path id="Path_365" data-name="Path 365" d="M32.076-.4,29.627,1.994,27.179-.4l-2.5,2.394L22.228-.4,19.78,1.994,17.331-.4l-2.5,2.394L12.38-.4,9.932,1.994,7.484-.4,4.6,2.266V35.4H34.959V2.266Zm2.067,34.984H5.416V2.647L7.484.743,9.932,3.136,12.38.743l2.448,2.394,2.5-2.394L19.78,3.136,22.228.743l2.448,2.394L27.125.743l2.448,2.394L32.021.743l2.067,1.9V34.584Z" transform="translate(-4.6 0.4)" fill="#565656" stroke="#565656" stroke-width="0.4"/>
      <path id="Path_366" data-name="Path 366" d="M16.5,53.644l4.135-2.122L16.5,49.4Zm.816-2.829,1.523.762-1.523.762Z" transform="translate(-10.026 -22.305)" fill="#565656" stroke="#565656" stroke-width="0.4"/>
      <path id="Path_367" data-name="Path 367" d="M8.9,53.954H20.815V46.5H8.9Zm.816-6.638H20v5.822H9.716Z" transform="translate(-6.56 -20.983)" fill="#565656" stroke="#565656" stroke-width="0.4"/>
      <rect id="Rectangle_310" data-name="Rectangle 310" width="5.55" height="0.816" transform="translate(2.72 8.052)" fill="#565656" stroke="#565656" stroke-width="0.4"/>
      <rect id="Rectangle_311" data-name="Rectangle 311" width="7.835" height="0.816" transform="translate(2.72 10.718)" fill="#565656" stroke="#565656" stroke-width="0.4"/>
      <rect id="Rectangle_312" data-name="Rectangle 312" width="6.964" height="0.816" transform="translate(2.72 13.33)" fill="#565656" stroke="#565656" stroke-width="0.4"/>
      <rect id="Rectangle_313" data-name="Rectangle 313" width="8.76" height="0.816" transform="translate(2.72 15.941)" fill="#565656" stroke="#565656" stroke-width="0.4"/>
      <rect id="Rectangle_314" data-name="Rectangle 314" width="6.855" height="0.816" transform="translate(20.947 26.442)" fill="#565656" stroke="#565656" stroke-width="0.4"/>
      <rect id="Rectangle_315" data-name="Rectangle 315" width="10.174" height="0.816" transform="translate(17.682 28.836)" fill="#565656" stroke="#565656" stroke-width="0.4"/>
      <rect id="Rectangle_316" data-name="Rectangle 316" width="12.078" height="0.816" transform="translate(15.724 31.284)" fill="#565656" stroke="#565656" stroke-width="0.4"/>
      <rect id="Rectangle_317" data-name="Rectangle 317" width="25.082" height="0.816" transform="translate(2.72 19.641)" fill="#565656" stroke="#565656" stroke-width="0.4"/>
      <rect id="Rectangle_318" data-name="Rectangle 318" width="25.082" height="0.816" transform="translate(2.72 21.98)" fill="#565656" stroke="#565656" stroke-width="0.4"/>
    </g>
  </g>
</svg>
