<svg xmlns="http://www.w3.org/2000/svg" width="56" height="56" viewBox="0 0 56 56">
  <g id="noun_Website_Security_1469597" data-name="noun_Website Security_1469597" transform="translate(-2 -2)">
    <rect id="Rectangle_368" data-name="Rectangle 368" width="1" height="1" transform="translate(6 6)" fill="#14a050"/>
    <rect id="Rectangle_369" data-name="Rectangle 369" width="1" height="1" transform="translate(10 6)" fill="#14a050"/>
    <rect id="Rectangle_370" data-name="Rectangle 370" width="2" height="1" transform="translate(13 6)" fill="#14a050"/>
    <g id="Group_411" data-name="Group 411">
      <path id="Path_518" data-name="Path 518" d="M57.067,16h-5.6V2.933A.933.933,0,0,0,50.533,2H2.933A.933.933,0,0,0,2,2.933V44a.933.933,0,0,0,.933.933h8.4V57.067a.933.933,0,0,0,.933.933H53.333A4.672,4.672,0,0,0,58,53.333v-36.4A.933.933,0,0,0,57.067,16ZM3.867,3.867H49.6v5.6H3.867Zm7.467,13.067V43.067H3.867V11.333H49.6V16H12.267A.933.933,0,0,0,11.333,16.933Zm44.8,36.4a2.8,2.8,0,0,1-2.8,2.8H13.2V23.467H56.133Zm0-31.733H13.2V17.867H56.133Z" fill="#14a050"/>
      <path id="Path_519" data-name="Path 519" d="M30.667,55.933H43.733A4.672,4.672,0,0,0,48.4,51.267v-14a.933.933,0,0,0-.933-.933H45.6V35.4a8.4,8.4,0,1,0-16.8,0v.933H26.933a.933.933,0,0,0-.933.933v14A4.672,4.672,0,0,0,30.667,55.933Zm0-20.533a6.533,6.533,0,1,1,13.067,0v.933H30.667Zm-2.8,2.8H46.533V51.267a2.8,2.8,0,0,1-2.8,2.8H30.667a2.8,2.8,0,0,1-2.8-2.8Z" transform="translate(-1.6 -1.666)" fill="#14a050"/>
    </g>
    <path id="Path_520" data-name="Path 520" d="M36.8,49.334v2.933h1.867V49.334a3.733,3.733,0,1,0-1.867,0Zm.933-5.467a1.867,1.867,0,1,1-1.867,1.867A1.869,1.869,0,0,1,37.733,43.867Z" transform="translate(-2.133 -2.667)" fill="#14a050"/>
    <rect id="Rectangle_371" data-name="Rectangle 371" width="2" height="1" transform="translate(15 53)" fill="#14a050"/>
    <rect id="Rectangle_372" data-name="Rectangle 372" width="2" height="1" transform="translate(15 49)" fill="#14a050"/>
    <rect id="Rectangle_373" data-name="Rectangle 373" width="2" height="2" transform="translate(15 45)" fill="#14a050"/>
  </g>
</svg>
