<svg xmlns="http://www.w3.org/2000/svg" width="16.8" height="12" viewBox="0 0 16.8 12">
  <path id="icon-youtube" d="M14.571,12.61a.54.54,0,0,0-.281-.506l-4.8-3a.565.565,0,0,0-.609-.019.558.558,0,0,0-.309.525v6a.558.558,0,0,0,.309.525.648.648,0,0,0,.291.075.534.534,0,0,0,.319-.094l4.8-3a.54.54,0,0,0,.281-.506Zm4.8,0q0,.9-.009,1.406t-.08,1.28a10.37,10.37,0,0,1-.211,1.383,2.193,2.193,0,0,1-.647,1.153,1.977,1.977,0,0,1-1.162.544,61.462,61.462,0,0,1-6.291.234,61.462,61.462,0,0,1-6.291-.234,2,2,0,0,1-1.167-.544,2.179,2.179,0,0,1-.652-1.153,11.6,11.6,0,0,1-.2-1.383q-.07-.773-.08-1.28T2.571,12.61q0-.9.009-1.406t.08-1.28a10.37,10.37,0,0,1,.211-1.383,2.193,2.193,0,0,1,.647-1.153A1.977,1.977,0,0,1,4.68,6.845a61.463,61.463,0,0,1,6.291-.234,61.462,61.462,0,0,1,6.291.234,2,2,0,0,1,1.167.544,2.18,2.18,0,0,1,.652,1.153,11.6,11.6,0,0,1,.2,1.383q.07.773.08,1.28T19.371,12.61Z" transform="translate(-2.571 -6.61)" fill="#565656"/>
</svg>
