<svg xmlns="http://www.w3.org/2000/svg" width="44.279" height="38.18" viewBox="0 0 44.279 38.18">
  <g id="noun_Announcement_3655420" transform="translate(-3.537 -7.773)">
    <g id="Group_264" data-name="Group 264" transform="translate(3.72 22.125) rotate(-22.507)">
      <path id="Path_362" data-name="Path 362" d="M9.636,7.949V5.755L26.5.43V12.768H24.894V2.62L11.243,6.932V18.6l13.652,4.312V17.586H26.5v7.52L11.243,20.287v5.329H6.424v-8.03H3.212V15.98H0V9.555H3.212V7.949Zm25.7,16.45L28.52,17.586l-1.135,1.135L34.2,25.535ZM8.03,17.586V24.01H9.636V17.586ZM4.818,9.555V15.98H9.636V9.555ZM26.5,14.374H24.894V15.98H26.5ZM1.606,11.161v3.212H3.212V11.161Zm35.334.8H27.3v1.606H36.94ZM27.384,6.814,34.2,0l1.135,1.135L28.52,7.949Z" transform="translate(0 0)" fill="#565656" stroke="#fff" stroke-width="0.25" fill-rule="evenodd"/>
    </g>
  </g>
</svg>
