<svg xmlns="http://www.w3.org/2000/svg" width="40.509" height="36.5" viewBox="0 0 40.509 36.5">
  <g id="noun_job_3666816" transform="translate(-4.75 -7.26)">
    <path id="Path_226" data-name="Path 226" d="M38.039,28.01V17.16a3.432,3.432,0,0,0-3.433-3.433H29.189V10.295A2.787,2.787,0,0,0,26.4,7.51h-9.77a2.787,2.787,0,0,0-2.785,2.785v3.433H8.433A3.432,3.432,0,0,0,5,17.16V33.108A3.432,3.432,0,0,0,8.433,36.54H29.509a7.77,7.77,0,1,0,8.53-8.53Zm5.313,6.929H38.039V29.627A6.172,6.172,0,0,1,43.352,34.94ZM15.45,10.287A1.182,1.182,0,0,1,16.635,9.1H26.4a1.182,1.182,0,0,1,1.184,1.184v3.433H15.45ZM8.433,15.328H34.606a1.837,1.837,0,0,1,1.832,1.832v2.272L24.876,24.426a8.508,8.508,0,0,1-6.713,0l-11.562-5V17.152A1.83,1.83,0,0,1,8.433,15.328ZM6.6,33.108V21.169l10.93,4.721a10.084,10.084,0,0,0,7.986,0l10.922-4.721V28a7.784,7.784,0,0,0-6.929,6.929H8.433A1.825,1.825,0,0,1,6.6,33.108Zm30.639,8.8a6.167,6.167,0,0,1-.8-12.283V35.74a.8.8,0,0,0,.8.8h6.113A6.181,6.181,0,0,1,37.239,41.909Z" fill="#565656" stroke="#fff" stroke-width="0.5"/>
  </g>
</svg>
