<svg xmlns="http://www.w3.org/2000/svg" width="42.433" height="36.75" viewBox="0 0 42.433 36.75">
  <g id="noun_gallery_3066645" transform="translate(-5.625 -11.623)">
    <g id="Group_38" data-name="Group 38" transform="translate(6 11.998)">
      <path id="Path_225" data-name="Path 225" d="M6.859,12A.947.947,0,0,0,6,12.946V39.28a.947.947,0,0,0,.947.947H9.819v2.857a.947.947,0,0,0,.947.947H13.7v3.02a.947.947,0,0,0,.947.947H46.736a.947.947,0,0,0,.947-.947V20.7a.947.947,0,0,0-.947-.947H14.645a.947.947,0,0,0-.947.947V42.136H11.714V17.7H42.858a.947.947,0,1,0,0-1.895H10.766q-.044,0-.089,0a.947.947,0,0,0-.859.947V38.332H7.895V13.894H39.039a.947.947,0,1,0,0-1.895H6.947Q6.9,12,6.859,12Zm8.733,9.651h30.2V46.1h-30.2V36.985l.015-.015a8.411,8.411,0,0,1,5.462-2.561,16.3,16.3,0,0,1,6.113,1.066c4.42,1.46,9.493,3.973,15.439,4a.947.947,0,1,0,.015-1.895c-5.408-.022-10.235-2.37-14.847-3.893a18,18,0,0,0-6.853-1.169,10.115,10.115,0,0,0-5.344,2.028ZM37.5,24.137a4.411,4.411,0,1,0,4.456,4.426A4.459,4.459,0,0,0,37.5,24.137Zm0,1.895a2.524,2.524,0,1,1-2.561,2.531A2.523,2.523,0,0,1,37.5,26.031Z" transform="translate(-6 -11.998)" fill="#565656" stroke="#fff" stroke-width="0.75"/>
    </g>
  </g>
</svg>
