<svg xmlns="http://www.w3.org/2000/svg" width="27.364" height="36.801" viewBox="0 0 27.364 36.801">
  <g id="icon-add-faculty" transform="translate(-694 -302)">
    <g id="Group_297" data-name="Group 297" transform="translate(458 -1227)">
      <g id="noun_Teacher_2003836" transform="translate(236 1530)">
        <g id="Group_296" data-name="Group 296" transform="translate(0 0)">
          <path id="Path_692" data-name="Path 692" d="M189.032,363.834l-10.014-1.666-7.777,3.544-.1.216c-.542,1.119-1.026,3.532,1.019,4.657l.093.051,8.39,1.587,7.384-4.253V365.52l-.522.293,0-1.016Zm-9.832-.288,5.966.993-4.885,2.8-6.866-1.159Z" transform="translate(-163.289 -336.421)" fill="#565656"/>
          <path id="Path_693" data-name="Path 693" d="M87.382,29.25a8.041,8.041,0,0,0,3.737-11.989l0-.011a.664.664,0,0,0-.1-.146,7.959,7.959,0,0,0-14.436,4.627,8.1,8.1,0,0,0,5.114,7.519A13.705,13.705,0,0,0,70.852,42.634a.665.665,0,0,0,.665.665h5.848a.665.665,0,1,0,0-1.33H72.2A12.374,12.374,0,0,1,82.787,30.405l1.071,7.432a.675.675,0,0,0,1.333.016l1.148-7.439a12.371,12.371,0,0,1,10.547,12.22.665.665,0,1,0,1.33,0A13.705,13.705,0,0,0,87.382,29.25ZM84.534,15.1ZM77.9,21.732a6.642,6.642,0,0,1,.111-1.209c1.084-.029,8.411-1.946,6.52-5.422,1.334,3.715,4.075,4.069,5.742,3.318a6.59,6.59,0,0,1,.889,3.313,6.724,6.724,0,0,1-1.946,4.739,6.524,6.524,0,0,1-9.37,0A6.724,6.724,0,0,1,77.9,21.732ZM84.548,33.3l-.434-3.011c.139,0,.279-.008.42-.008.16,0,.32,0,.478.01Z" transform="translate(-70.852 -13.77)" fill="#565656"/>
          <path id="Path_696" data-name="Path 696" d="M298.859,311.5a.665.665,0,1,0,0-1.33h-4.491a.665.665,0,1,0,0,1.33Z" transform="translate(-277.235 -288.262)" fill="#565656"/>
        </g>
      </g>
      <g id="Ellipse_127" data-name="Ellipse 127" transform="translate(242 1530)" fill="#565656" stroke="#565656" stroke-width="1.75">
        <circle cx="8" cy="8" r="8" stroke="none"/>
        <circle cx="8" cy="8" r="7.125" fill="none"/>
      </g>
    </g>
    <g id="Ellipse_128" data-name="Ellipse 128" transform="translate(699 302)" fill="#fff" stroke="#565656" stroke-width="1">
      <circle cx="9" cy="9" r="9" stroke="none"/>
      <circle cx="9" cy="9" r="8.5" fill="none"/>
    </g>
    <g id="Ellipse_176" data-name="Ellipse 176" transform="translate(699 302)" fill="#fff" stroke="#565656" stroke-width="1">
      <circle cx="9" cy="9" r="9" stroke="none"/>
      <circle cx="9" cy="9" r="8.5" fill="none"/>
    </g>
  </g>
</svg>
