<svg xmlns="http://www.w3.org/2000/svg" width="14.775" height="12" viewBox="0 0 14.775 12">
  <path id="Icon_awesome-twitter" data-name="Icon awesome-twitter" d="M13.256,6.371c.009.131.009.263.009.394A8.557,8.557,0,0,1,4.65,15.381,8.557,8.557,0,0,1,0,14.021a6.264,6.264,0,0,0,.731.037,6.064,6.064,0,0,0,3.759-1.294,3.033,3.033,0,0,1-2.831-2.1,3.819,3.819,0,0,0,.572.047,3.2,3.2,0,0,0,.8-.1A3.029,3.029,0,0,1,.6,7.637V7.6a3.05,3.05,0,0,0,1.369.384,3.033,3.033,0,0,1-.937-4.05A8.607,8.607,0,0,0,7.275,7.1,3.418,3.418,0,0,1,7.2,6.409a3.031,3.031,0,0,1,5.241-2.072,5.962,5.962,0,0,0,1.922-.731,3.02,3.02,0,0,1-1.331,1.669,6.071,6.071,0,0,0,1.744-.469,6.509,6.509,0,0,1-1.519,1.566Z" transform="translate(0 -3.381)" fill="#565656"/>
</svg>
