<svg xmlns="http://www.w3.org/2000/svg" width="35.206" height="35.206" viewBox="0 0 35.206 35.206">
  <g id="Group_181" data-name="Group 181" transform="translate(0.2 0.2)">
    <path id="Path_330" data-name="Path 330" d="M18.4,1A17.34,17.34,0,0,0,12.35,2.082l.5,1.36a16.015,16.015,0,1,1-4.6,2.665v5.045H9.7V3.9H2.45v1.45H6.892A17.4,17.4,0,1,0,18.4,1Z" transform="translate(-1 -1)" fill="#565656" stroke="#fff" stroke-width="0.4"/>
    <path id="Path_331" data-name="Path 331" d="M18.45,28.052H17V29.5H28.6v-1.45h-1.45V25.577l-3.325-3.325,3.325-3.325V16.45H28.6V15H17v1.45h1.45v2.476l3.325,3.325L18.45,25.577Zm1.45-9.727V16.45h5.8v1.875l-2.9,2.9Zm2.9,4.951,2.9,2.9v1.875H19.9V26.177Z" transform="translate(-5.398 -4.848)" fill="#565656" stroke="#fff" stroke-width="0.4"/>
    <rect id="Rectangle_244" data-name="Rectangle 244" width="1" height="2" transform="translate(13 26.774)" fill="#565656" stroke="#fff" stroke-width="0.4"/>
    <rect id="Rectangle_245" data-name="Rectangle 245" width="2" height="2" transform="translate(16 26.774)" fill="#565656" stroke="#fff" stroke-width="0.4"/>
    <rect id="Rectangle_246" data-name="Rectangle 246" width="2" height="2" transform="translate(20 26.774)" fill="#565656" stroke="#fff" stroke-width="0.4"/>
  </g>
</svg>
