<svg xmlns="http://www.w3.org/2000/svg" width="47.536" height="48.526" viewBox="0 0 47.536 48.526">
  <g id="noun_experience_2036014" transform="translate(-15.75 -29.757)">
    <path id="Path_2220" data-name="Path 2220" d="M16,65.161V76.073a1.96,1.96,0,0,0,1.96,1.96H61.076a1.96,1.96,0,0,0,1.96-1.96V65.161a1.96,1.96,0,0,0-1.96-1.96H54.707a20.312,20.312,0,1,0-31.357-.02H17.96A1.96,1.96,0,0,0,16,65.161Zm4.7-14.851A18.32,18.32,0,1,1,52.644,62.56a14.1,14.1,0,0,0-6.08-2.719c-2.151-.387-2.45-3.067-2.45-3.18v-.235a16.463,16.463,0,0,0,3.43-6.516,10.652,10.652,0,0,0,.387-2.812,9.26,9.26,0,0,0-.083-1.249,7.119,7.119,0,0,0,.392-4.9,1.612,1.612,0,0,0-1.8-1.132,13.765,13.765,0,0,1-4.611-1.1C36.808,36.558,33.2,39,31.806,40.791c-2.151.946-2.5,3.645-2.371,5.919v.372a15.292,15.292,0,0,0,3.572,9.54c.127.147.265.279.4.416-.162.779-.706,2.489-2.366,2.788a14.356,14.356,0,0,0-5.835,2.528,18.182,18.182,0,0,1-4.5-12.043Zm13.719.524a.98.98,0,0,0,.348-.034c.426-.122.73-.206,1.852-3.18a9.427,9.427,0,0,0,7.447,1.362l.1-.034a8.476,8.476,0,0,0,1.715-.9,8.864,8.864,0,0,1-.255,1.333,13.469,13.469,0,0,1-4.086,6.781,5.085,5.085,0,0,1-7.051-.838,12.906,12.906,0,0,1-2.45-4.439Zm-2.7-1.926c-.446-2.224-.652-5.791,1.034-6.369a1,1,0,0,0,.49-.377,5.963,5.963,0,0,1,4.723-2.327,7.79,7.79,0,0,1,3.092.691h0a16.727,16.727,0,0,0,5.3,1.259,4.329,4.329,0,0,1-2.9,5.277,7.349,7.349,0,0,1-6.629-1.828.98.98,0,0,0-1.617.382c-.426,1.186-.98,2.582-1.279,3.224Zm3.351,9.476a6.668,6.668,0,0,0,1.558.6,9.216,9.216,0,0,0,4.307,0,6.678,6.678,0,0,0,1.568-.6A4.848,4.848,0,0,0,46.23,61.79a13.057,13.057,0,0,1,3.861,1.4h-22.6a13.268,13.268,0,0,1,3.876-1.4A4.853,4.853,0,0,0,35.069,58.385Zm25.968,6.776V76.073H17.96V65.161Z" transform="translate(0 0)" fill="#146efa" stroke="#fff" stroke-width="0.5"/>
    <path id="Path_2221" data-name="Path 2221" d="M58.029,112.871l2.038-1.073,2.038,1.073-.392-2.269L63.365,109l-2.278-.333L60.067,106.6l-1.019,2.063L56.77,109l1.651,1.607Z" transform="translate(-20.794 -39.053)" fill="#146efa" stroke="#fff" stroke-width="0.5"/>
    <path id="Path_2222" data-name="Path 2222" d="M41.029,112.871l2.038-1.073,2.038,1.073-.392-2.269L46.365,109l-2.278-.333L43.067,106.6l-1.019,2.063L39.77,109l1.651,1.607Z" transform="translate(-12.124 -39.053)" fill="#146efa" stroke="#fff" stroke-width="0.5"/>
    <path id="Path_2223" data-name="Path 2223" d="M24.029,112.871l2.038-1.073,2.038,1.073-.392-2.269L29.365,109l-2.278-.333L26.067,106.6l-1.019,2.063L22.77,109l1.651,1.607Z" transform="translate(-3.453 -39.053)" fill="#146efa" stroke="#fff" stroke-width="0.5"/>
    <path id="Path_2224" data-name="Path 2224" d="M93.029,112.871l2.038-1.073,2.038,1.073-.392-2.269L98.365,109l-2.278-.333L95.067,106.6l-1.019,2.063L91.77,109l1.651,1.607Z" transform="translate(-38.646 -39.053)" fill="#146efa" stroke="#fff" stroke-width="0.5"/>
    <path id="Path_2225" data-name="Path 2225" d="M76.029,112.871l2.038-1.073,2.038,1.073-.392-2.269L81.365,109l-2.278-.333L78.067,106.6l-1.019,2.063L74.77,109l1.651,1.607Z" transform="translate(-29.975 -39.053)" fill="#146efa" stroke="#fff" stroke-width="0.5"/>
  </g>
</svg>
