<svg xmlns="http://www.w3.org/2000/svg" width="31.355" height="36" viewBox="0 0 31.355 36">
  <g id="noun_news_2227107" transform="translate(-3 2)">
    <g id="Group_58" data-name="Group 58" transform="translate(3 -2)">
      <path id="Path_272" data-name="Path 272" d="M8.484,1V8.548H5V34.677A2.325,2.325,0,0,0,7.323,37h26.71a2.325,2.325,0,0,0,2.323-2.323V1Zm0,33.677a1.161,1.161,0,0,1-2.323,0V9.71H8.484Zm26.71,0a1.162,1.162,0,0,1-1.161,1.161H9.333a2.3,2.3,0,0,0,.312-1.161V2.161H35.194Z" transform="translate(-5 -1)" fill="#565656"/>
      <path id="Path_273" data-name="Path 273" d="M45.065,45a4.065,4.065,0,1,0,4.065,4.065A4.069,4.069,0,0,0,45.065,45Zm0,6.968a2.9,2.9,0,1,1,2.9-2.9A2.907,2.907,0,0,1,45.065,51.968Z" transform="translate(-20.097 -19.452)" fill="#565656"/>
      <rect id="Rectangle_220" data-name="Rectangle 220" width="2" height="2" transform="translate(13 17)" fill="#565656"/>
      <rect id="Rectangle_221" data-name="Rectangle 221" width="1" height="2" transform="translate(17 17)" fill="#565656"/>
      <rect id="Rectangle_222" data-name="Rectangle 222" width="1" height="2" transform="translate(20 17)" fill="#565656"/>
      <path id="Path_274" data-name="Path 274" d="M38.226,25H15v8.129H38.226Zm-1.161,6.968h-20.9V26.161h20.9Z" transform="translate(-9.194 -11.065)" fill="#565656"/>
      <rect id="Rectangle_223" data-name="Rectangle 223" width="6" height="1" transform="translate(6 2)" fill="#565656"/>
      <rect id="Rectangle_224" data-name="Rectangle 224" width="6" height="1" transform="translate(6 5)" fill="#565656"/>
      <rect id="Rectangle_225" data-name="Rectangle 225" width="7" height="1" transform="translate(13 2)" fill="#565656"/>
      <rect id="Rectangle_226" data-name="Rectangle 226" width="7" height="1" transform="translate(13 5)" fill="#565656"/>
      <rect id="Rectangle_227" data-name="Rectangle 227" width="23" height="1" transform="translate(6 7)" fill="#565656"/>
      <rect id="Rectangle_228" data-name="Rectangle 228" width="23" height="1" transform="translate(6 12)" fill="#565656"/>
      <rect id="Rectangle_229" data-name="Rectangle 229" width="1" height="1" transform="translate(6 9)" fill="#565656"/>
      <rect id="Rectangle_230" data-name="Rectangle 230" width="19" height="1" transform="translate(8 9)" fill="#565656"/>
      <rect id="Rectangle_231" data-name="Rectangle 231" width="1" height="1" transform="translate(28 9)" fill="#565656"/>
      <rect id="Rectangle_232" data-name="Rectangle 232" width="6" height="1" transform="translate(6 23)" fill="#565656"/>
      <rect id="Rectangle_233" data-name="Rectangle 233" width="7" height="1" transform="translate(13 23)" fill="#565656"/>
      <rect id="Rectangle_234" data-name="Rectangle 234" width="4" height="1" transform="translate(8 26)" fill="#565656"/>
      <rect id="Rectangle_235" data-name="Rectangle 235" width="1" height="1" transform="translate(6 26)" fill="#565656"/>
      <rect id="Rectangle_236" data-name="Rectangle 236" width="7" height="1" transform="translate(13 26)" fill="#565656"/>
      <rect id="Rectangle_237" data-name="Rectangle 237" width="6" height="1" transform="translate(6 28)" fill="#565656"/>
      <rect id="Rectangle_238" data-name="Rectangle 238" width="7" height="1" transform="translate(13 28)" fill="#565656"/>
      <rect id="Rectangle_239" data-name="Rectangle 239" width="6" height="1" transform="translate(6 30)" fill="#565656"/>
      <rect id="Rectangle_240" data-name="Rectangle 240" width="7" height="1" transform="translate(13 30)" fill="#565656"/>
      <rect id="Rectangle_241" data-name="Rectangle 241" width="6" height="1" transform="translate(6 33)" fill="#565656"/>
      <rect id="Rectangle_242" data-name="Rectangle 242" width="1" height="1" transform="translate(19 33)" fill="#565656"/>
      <rect id="Rectangle_243" data-name="Rectangle 243" width="4" height="1" transform="translate(13 33)" fill="#565656"/>
      <path id="Path_275" data-name="Path 275" d="M44.484,5H41V8.484h3.484ZM43.323,7.323H42.161V6.161h1.161Z" transform="translate(-20.097 -2.677)" fill="#565656"/>
      <path id="Path_276" data-name="Path 276" d="M52.484,5H49V8.484h3.484ZM51.323,7.323H50.161V6.161h1.161Z" transform="translate(-23.452 -2.677)" fill="#565656"/>
    </g>
  </g>
</svg>
