<svg xmlns="http://www.w3.org/2000/svg" width="42.617" height="39.5" viewBox="0 0 42.617 39.5">
  <g id="icon-add-social-link" transform="translate(-141.133 -411.75)">
    <g id="Group_542" data-name="Group 542">
      <g id="noun_Social_Media_2915380" data-name="noun_Social Media_2915380" transform="translate(136.269 403.75)">
        <g id="Group_541" data-name="Group 541" transform="translate(5.114 8.25)">
          <g id="Group_539" data-name="Group 539">
            <path id="Path_2148" data-name="Path 2148" d="M37.891,47.25a9.319,9.319,0,0,1-8.928-6.618H21.09A8.218,8.218,0,0,1,7.52,43.724,8.227,8.227,0,0,1,13.337,29.68a8.133,8.133,0,0,1,3.224.664l4.115-7.128a8.321,8.321,0,0,1-1.1-.922,8.229,8.229,0,1,1,10.53.925l3.643,6.311A9.356,9.356,0,0,1,44.5,31.3,9.343,9.343,0,0,1,37.891,47.25ZM20.7,40.1h8.665l.054.2a8.793,8.793,0,1,0,4.346-10.171l-.229.121-4.15-7.191.212-.139a7.823,7.823,0,0,0,1.229-1,7.691,7.691,0,1,0-10.876,0,7.8,7.8,0,0,0,1.226,1l.211.139-4.608,7.982-.222-.1a7.7,7.7,0,1,0,4.083,9.353Zm17.189,4.921a7.1,7.1,0,1,1,5.029-2.083A7.064,7.064,0,0,1,37.891,45.018Zm0-13.685a6.568,6.568,0,1,0,4.65,1.926A6.531,6.531,0,0,0,37.891,31.332ZM9.015,42.048l.136-.362a4.377,4.377,0,0,1,2.327-2.441,3.054,3.054,0,1,1,3.72,0,4.378,4.378,0,0,1,2.327,2.441l.135.362ZM13.337,34.3A2.518,2.518,0,0,0,12.2,39.067l.594.3-.638.194a3.894,3.894,0,0,0-2.344,1.95h7.054a3.892,3.892,0,0,0-2.344-1.949l-.638-.194.594-.3A2.518,2.518,0,0,0,13.337,34.3Zm15.771,4.1h-8.1l.008-.276a7.618,7.618,0,0,0-2.238-5.656c-.117-.117-.242-.225-.366-.333l-.2-.177,4.727-8.187.2.062a7.8,7.8,0,0,0,4.505,0l.2-.062,4.309,7.463-.278.249c-.072.063-.144.126-.213.195A8.724,8.724,0,0,0,29.1,38.126Zm-7.556-.536h7.01A9.246,9.246,0,0,1,31.285,31.3c.06-.061.124-.118.188-.174l-3.88-6.72a8.341,8.341,0,0,1-4.408,0l-4.3,7.439c.09.079.179.16.264.245A8.138,8.138,0,0,1,21.551,37.865ZM21.07,20.618l.135-.362a4.378,4.378,0,0,1,2.327-2.442,3.054,3.054,0,1,1,3.72,0,4.379,4.379,0,0,1,2.327,2.441l.135.362Zm4.322-7.746a2.519,2.519,0,0,0-1.139,4.766l.594.3-.637.194a3.894,3.894,0,0,0-2.344,1.949h7.053a3.894,3.894,0,0,0-2.345-1.949l-.638-.194.594-.3a2.519,2.519,0,0,0-1.138-4.766Z" transform="translate(-5.114 -8.25)" fill="#141414" stroke="#141414" stroke-width="0.5"/>
          </g>
          <g id="Group_540" data-name="Group 540" transform="translate(28.456 25.516)">
            <path id="Path_2149" data-name="Path 2149" d="M62.391,67.891l.135-.362a4.379,4.379,0,0,1,2.327-2.441,3.055,3.055,0,1,1,3.72,0A4.379,4.379,0,0,1,70.9,67.528l.135.362Zm4.322-7.746a2.518,2.518,0,0,0-1.139,4.765l.594.3-.637.194a3.892,3.892,0,0,0-2.344,1.95h7.053a3.894,3.894,0,0,0-2.345-1.949l-.638-.194.594-.3a2.518,2.518,0,0,0-1.138-4.765Z" transform="translate(-62.391 -59.608)" fill="#141414" stroke="#141414" stroke-width="0.5"/>
          </g>
        </g>
      </g>
      <circle id="Ellipse_177" data-name="Ellipse 177" cx="6.5" cy="6.5" r="6.5" transform="translate(155 414)" fill="#fff"/>
      <circle id="Ellipse_178" data-name="Ellipse 178" cx="6.5" cy="6.5" r="6.5" transform="translate(143 436)" fill="#fff"/>
      <circle id="Ellipse_179" data-name="Ellipse 179" cx="8" cy="8" r="8" transform="translate(166 434)" fill="#fff"/>
    </g>
    <path id="Icon_zocial-facebook" data-name="Icon zocial-facebook" d="M13.257,5.859V3.776h1.681V2.728A2.742,2.742,0,0,1,15.674.8,2.342,2.342,0,0,1,17.458,0h1.669V2.084H17.458a.368.368,0,0,0-.294.18.731.731,0,0,0-.131.442V3.775h2.095V5.859H17.032v5.052H14.937V5.859Z" transform="translate(144.611 414.5)"/>
    <path id="Icon_metro-twitter" data-name="Icon metro-twitter" d="M12.9,5.811a4.238,4.238,0,0,1-1.217.334,2.126,2.126,0,0,0,.932-1.173,4.244,4.244,0,0,1-1.346.514A2.122,2.122,0,0,0,7.659,7.42,6.018,6.018,0,0,1,3.29,5.205a2.122,2.122,0,0,0,.656,2.83,2.111,2.111,0,0,1-.96-.265c0,.009,0,.018,0,.027a2.121,2.121,0,0,0,1.7,2.079,2.123,2.123,0,0,1-.957.036,2.122,2.122,0,0,0,1.98,1.472,4.253,4.253,0,0,1-2.633.907,4.3,4.3,0,0,1-.506-.03,6.028,6.028,0,0,0,9.281-5.079q0-.138-.006-.274a4.306,4.306,0,0,0,1.058-1.1Z" transform="translate(141.839 433.253)"/>
    <path id="Icon_awesome-linkedin-in" data-name="Icon awesome-linkedin-in" d="M2.3,10.294H.17V3.422H2.3ZM1.236,2.484A1.242,1.242,0,1,1,2.472,1.237,1.246,1.246,0,0,1,1.236,2.484Zm9.055,7.81H8.162V6.949c0-.8-.016-1.82-1.11-1.82-1.11,0-1.28.866-1.28,1.762v3.4H3.641V3.422H5.688v.937h.03a2.242,2.242,0,0,1,2.019-1.11c2.16,0,2.557,1.422,2.557,3.27v3.775Z" transform="translate(169.161 436.173)"/>
  </g>
</svg>
