<svg xmlns="http://www.w3.org/2000/svg" width="36" height="36" viewBox="0 0 36 36">
  <g id="noun_School_2861677" transform="translate(-16 -16)">
    <path id="Path_48" data-name="Path 48" d="M275.107,248h-2.486a.621.621,0,0,0-.621.621v6.214a.621.621,0,0,0,.621.621h2.486a.621.621,0,0,0,.621-.621v-6.214A.621.621,0,0,0,275.107,248Zm-.621,6.214h-1.243v-4.971h1.243Z" transform="translate(-236.876 -214.755)" fill="#565656"/>
    <path id="Path_49" data-name="Path 49" d="M339.107,248h-2.486a.621.621,0,0,0-.621.621v6.214a.621.621,0,0,0,.621.621h2.486a.621.621,0,0,0,.621-.621v-6.214A.621.621,0,0,0,339.107,248Zm-.621,6.214h-1.243v-4.971h1.243Z" transform="translate(-296.095 -214.755)" fill="#565656"/>
    <path id="Path_50" data-name="Path 50" d="M403.107,248h-2.486a.621.621,0,0,0-.621.621v6.214a.621.621,0,0,0,.621.621h2.486a.621.621,0,0,0,.621-.621v-6.214A.621.621,0,0,0,403.107,248Zm-.621,6.214h-1.243v-4.971h1.243Z" transform="translate(-355.457 -214.755)" fill="#565656"/>
    <path id="Path_51" data-name="Path 51" d="M275.107,368h-2.486a.621.621,0,0,0-.621.621v6.214a.621.621,0,0,0,.621.621h2.486a.621.621,0,0,0,.621-.621v-6.214A.621.621,0,0,0,275.107,368Zm-.621,6.214h-1.243v-4.971h1.243Z" transform="translate(-236.876 -325.943)" fill="#565656"/>
    <path id="Path_52" data-name="Path 52" d="M339.107,368h-2.486a.621.621,0,0,0-.621.621v6.214a.621.621,0,0,0,.621.621h2.486a.621.621,0,0,0,.621-.621v-6.214A.621.621,0,0,0,339.107,368Zm-.621,6.214h-1.243v-4.971h1.243Z" transform="translate(-296.095 -325.943)" fill="#565656"/>
    <path id="Path_53" data-name="Path 53" d="M403.107,368h-2.486a.621.621,0,0,0-.621.621v6.214a.621.621,0,0,0,.621.621h2.486a.621.621,0,0,0,.621-.621v-6.214A.621.621,0,0,0,403.107,368Zm-.621,6.214h-1.243v-4.971h1.243Z" transform="translate(-355.457 -325.943)" fill="#565656"/>
    <path id="Path_54" data-name="Path 54" d="M112,121.864A1.864,1.864,0,1,0,113.864,120,1.864,1.864,0,0,0,112,121.864Zm2.486,0a.621.621,0,1,1-.621-.621A.621.621,0,0,1,114.486,121.864Z" transform="translate(-88.829 -96.231)" fill="#565656"/>
    <path id="Path_55" data-name="Path 55" d="M51.107,255.457a.621.621,0,0,0,.621-.621v-6.214a.621.621,0,0,0-.621-.621H48.621a.621.621,0,0,0-.621.621v6.214a.621.621,0,0,0,.621.621Zm-1.864-6.214h1.243v4.971H49.243Z" transform="translate(-29.514 -214.755)" fill="#565656"/>
    <path id="Path_56" data-name="Path 56" d="M112.621,255.457h2.486a.621.621,0,0,0,.621-.621v-6.214a.621.621,0,0,0-.621-.621h-2.486a.621.621,0,0,0-.621.621v6.214A.621.621,0,0,0,112.621,255.457Zm.621-6.214h1.243v4.971h-1.243Z" transform="translate(-88.829 -214.755)" fill="#565656"/>
    <path id="Path_57" data-name="Path 57" d="M176.621,255.457h2.486a.621.621,0,0,0,.621-.621v-6.214a.621.621,0,0,0-.621-.621h-2.486a.621.621,0,0,0-.621.621v6.214A.621.621,0,0,0,176.621,255.457Zm.621-6.214h1.243v4.971h-1.243Z" transform="translate(-148.048 -214.755)" fill="#565656"/>
    <path id="Path_58" data-name="Path 58" d="M47.068,22.825A.6.6,0,0,0,46.6,22.6H27.648L25.6,20.552V19.6h3a.6.6,0,0,0,.6-.6V16.6a.6.6,0,0,0-.6-.6H25a.6.6,0,0,0-.6.6v3.952l-8.224,8.224A.6.6,0,0,0,16,29.2V51.4a.6.6,0,0,0,.6.6H50.2a.6.6,0,0,0,.6-.6V29.8h.6a.6.6,0,0,0,.469-.975ZM25.6,17.2H28v1.2H25.6Zm20.712,6.6,3.84,4.8h-16.5l-4.8-4.8ZM49.6,31H34V29.8H49.6ZM17.2,29.8H32.8V31H17.2Zm.848-1.2L25,21.648,31.951,28.6ZM17.2,32.2H32.8V50.8H28.6V45.4h1.8a.6.6,0,0,0,.6-.6V42.4a.6.6,0,0,0-.6-.6H19.6a.6.6,0,0,0-.6.6v2.4a.6.6,0,0,0,.6.6h1.8v5.4H17.2Zm3,12V43h9.6v1.2Zm4.2,1.2v5.4H22.6V45.4Zm1.2,0h1.8v5.4H25.6ZM34,50.8V32.2H49.6V50.8Z" transform="translate(0)" fill="#565656"/>
  </g>
</svg>
