<svg xmlns="http://www.w3.org/2000/svg" width="47.397" height="48.505" viewBox="0 0 47.397 48.505">
  <g id="icon-services-hand" transform="translate(-740.702 -297.55)">
    <g id="noun_service_2573768" transform="translate(733 290.805)">
      <g id="Group_637" data-name="Group 637" transform="translate(7.999 6.996)">
        <path id="Path_2232" data-name="Path 2232" d="M29.472,7a.558.558,0,0,0-.436.436l-.61,3.015a10.2,10.2,0,0,0-1.83.784L24,9.525a.558.558,0,0,0-.7.07c-.854.856-1.758,1.721-2.632,2.6a.558.558,0,0,0-.07.7l1.76,2.6a10.588,10.588,0,0,0-.767,1.83l-3.085.662a.558.558,0,0,0-.453.558c0,1.224,0,2.418,0,3.643a.558.558,0,0,0,.453.54l3.085.68a10.465,10.465,0,0,0,.767,1.813l-1.76,2.6a.558.558,0,0,0,.07.715c.874.876,1.778,1.724,2.632,2.579a.558.558,0,0,0,.7.07l2.6-1.691a10.164,10.164,0,0,0,1.83.767l.61,3.015a.558.558,0,0,0,.54.453h3.695a.558.558,0,0,0,.54-.453l.61-3.015a10.166,10.166,0,0,0,1.83-.767l2.6,1.691a.558.558,0,0,0,.7-.07c.854-.856,1.758-1.7,2.632-2.579a.558.558,0,0,0,.07-.715l-1.76-2.6a10.465,10.465,0,0,0,.767-1.813l3.085-.68a.558.558,0,0,0,.453-.54c0-1.225,0-2.418,0-3.643a.558.558,0,0,0-.453-.558l-3.085-.662a10.588,10.588,0,0,0-.767-1.83l1.76-2.6a.558.558,0,0,0-.07-.7c-.874-.876-1.778-1.741-2.632-2.6a.558.558,0,0,0-.7-.07l-2.6,1.708a10.2,10.2,0,0,0-1.83-.784l-.61-3.015A.558.558,0,0,0,33.272,7H29.577a.558.558,0,0,0-.1,0Zm.558,1.115h2.789l.575,2.858a.558.558,0,0,0,.4.418,9.04,9.04,0,0,1,2.231.941.558.558,0,0,0,.593-.017l2.457-1.6c.661.652,1.337,1.294,1.987,1.935L39.406,15.1a.558.558,0,0,0-.017.593,9.481,9.481,0,0,1,.941,2.248.558.558,0,0,0,.418.4l2.928.645c0,.908,0,1.811,0,2.719l-2.928.645a.558.558,0,0,0-.418.4A9.482,9.482,0,0,1,39.389,25a.558.558,0,0,0,.017.593l1.656,2.457c-.65.641-1.325,1.282-1.987,1.935l-2.457-1.6a.558.558,0,0,0-.593-.017,9.04,9.04,0,0,1-2.231.941.558.558,0,0,0-.4.436L32.818,32.6H30.03l-.575-2.858a.558.558,0,0,0-.4-.436,9.039,9.039,0,0,1-2.231-.941.558.558,0,0,0-.593.017l-2.457,1.6c-.661-.652-1.337-1.294-1.987-1.935l1.656-2.457A.558.558,0,0,0,23.459,25a9.477,9.477,0,0,1-.941-2.248.558.558,0,0,0-.418-.4l-2.928-.645V18.989l2.928-.645a.558.558,0,0,0,.418-.4,9.476,9.476,0,0,1,.941-2.248.558.558,0,0,0-.017-.593l-1.656-2.457c.65-.641,1.326-1.282,1.987-1.935l2.457,1.6a.558.558,0,0,0,.593.017,9.039,9.039,0,0,1,2.231-.941.558.558,0,0,0,.4-.418Zm1.394,8.314a3.921,3.921,0,1,0,3.922,3.921A3.932,3.932,0,0,0,31.424,16.427Zm0,1.115a2.806,2.806,0,1,1-2.806,2.806A2.806,2.806,0,0,1,31.424,17.543Zm20.74,11.921a2.578,2.578,0,0,0-1.847.8l-.017.017c-.017.017-1.543,1.528-3.19,3.172s-3.393,3.4-3.869,3.922a.558.558,0,1,0,.819.749c.394-.431,2.181-2.235,3.834-3.887S51.1,31.05,51.1,31.05h.017a1.419,1.419,0,0,1,1.046-.471,1.7,1.7,0,0,1,1.569,1.813,1.991,1.991,0,0,1-.383,1.185c-.019.023-6.723,8.082-11.05,13.141a7.339,7.339,0,0,1-5.56,2.963H23.511a4.922,4.922,0,0,0-3.677,1.237L16.679,54a.558.558,0,1,0,.784.784L20.6,51.7a3.743,3.743,0,0,1,2.911-.906H36.74a8.5,8.5,0,0,0,6.414-3.364C47.5,42.355,54.238,34.274,54.238,34.274s.012-.023.017-.035a3.09,3.09,0,0,0,.593-1.847A2.816,2.816,0,0,0,52.164,29.464Zm-29.42,8.314c-2.315,0-4.607.316-6.414,1.8L8.209,46.23a.558.558,0,1,0,.7.871l8.139-6.658c1.507-1.234,3.487-1.551,5.7-1.551h16.8a2.744,2.744,0,0,1-.07,2.7,2.605,2.605,0,0,1-2.144,1.551l-.052-.017H26.631a.558.558,0,1,0,0,1.115H37.28a3.58,3.58,0,0,0,3.172-2.126A3.786,3.786,0,0,0,40.365,38a.558.558,0,0,0-.436-.227Z" transform="translate(-7.999 -6.996)" fill="#146eff" stroke="#146eff" stroke-width="0.5"/>
      </g>
    </g>
  </g>
</svg>
