<svg xmlns="http://www.w3.org/2000/svg" width="56" height="56.001" viewBox="0 0 56 56.001">
  <g id="noun_Website_template_1678727" data-name="noun_Website template_1678727" transform="translate(-2 -2)">
    <path id="Path_522" data-name="Path 522" d="M57.067,2H2.933A.934.934,0,0,0,2,2.933V57.067a.934.934,0,0,0,1.136.911l8.208-1.824,9.14,1.827a.933.933,0,0,0,.367,0L30,56.152l9.15,1.829a.933.933,0,0,0,.367,0l9.14-1.827,8.208,1.824a.905.905,0,0,0,.2.022A.934.934,0,0,0,58,57.067V2.933A.934.934,0,0,0,57.067,2Zm-.933,1.867v5.6H3.867v-5.6ZM48.869,54.289a.91.91,0,0,0-.385,0l-9.15,1.829-9.15-1.829A.929.929,0,0,0,30,54.267a.864.864,0,0,0-.183.019l-9.15,1.829-9.15-1.829a.91.91,0,0,0-.385,0L3.867,55.9V11.333H56.134V55.9Z" fill="#14a050"/>
    <rect id="Rectangle_379" data-name="Rectangle 379" width="1" height="1" transform="translate(6 6)" fill="#14a050"/>
    <rect id="Rectangle_380" data-name="Rectangle 380" width="1" height="1" transform="translate(10 6)" fill="#14a050"/>
    <rect id="Rectangle_381" data-name="Rectangle 381" width="2" height="1" transform="translate(13 6)" fill="#14a050"/>
    <rect id="Rectangle_382" data-name="Rectangle 382" width="21" height="1" transform="translate(20 6)" fill="#14a050"/>
    <rect id="Rectangle_383" data-name="Rectangle 383" width="1" height="1" transform="translate(53 6)" fill="#14a050"/>
    <path id="Path_523" data-name="Path 523" d="M44.133,30.867V15.933A.934.934,0,0,0,43.2,15H18.933a.934.934,0,0,0-.933.933V30.867a.934.934,0,0,0,.933.933H43.2A.934.934,0,0,0,44.133,30.867ZM29.286,23.4l-9.419,5.8V17.6Zm-7.055-6.533H39.9L31.068,22.3ZM31.067,24.5,39.9,29.933H22.23Zm1.781-1.1,9.419-5.8V29.2Z" transform="translate(-1.067 -0.867)" fill="#14a050"/>
    <path id="Path_524" data-name="Path 524" d="M52.613,27.213l2.8-2.8a.932.932,0,0,0,0-1.32l-2.8-2.8-1.32,1.32,2.14,2.14-2.14,2.14Z" transform="translate(-3.286 -1.219)" fill="#14a050"/>
    <path id="Path_525" data-name="Path 525" d="M11.073,27.213l1.32-1.32-2.14-2.14,2.14-2.14-1.32-1.32-2.8,2.8a.932.932,0,0,0,0,1.32Z" transform="translate(-0.4 -1.219)" fill="#14a050"/>
    <rect id="Rectangle_384" data-name="Rectangle 384" width="3" height="2" transform="translate(21 33)" fill="#14a050"/>
    <rect id="Rectangle_385" data-name="Rectangle 385" width="2" height="2" transform="translate(25 33)" fill="#14a050"/>
    <rect id="Rectangle_386" data-name="Rectangle 386" width="2" height="2" transform="translate(29 33)" fill="#14a050"/>
    <rect id="Rectangle_387" data-name="Rectangle 387" width="2" height="2" transform="translate(33 33)" fill="#14a050"/>
    <rect id="Rectangle_388" data-name="Rectangle 388" width="3" height="2" transform="translate(36 33)" fill="#14a050"/>
    <path id="Path_526" data-name="Path 526" d="M19.133,39H7.933A.934.934,0,0,0,7,39.933V47.4a.934.934,0,0,0,.933.933h11.2a.934.934,0,0,0,.933-.933V39.933A.934.934,0,0,0,19.133,39Zm-7.283,4.667-2.984,1.99V41.678Zm-.834-2.8h5.035l-2.517,1.678Zm2.517,3.922,2.517,1.678H11.015Zm1.683-1.122,2.984-1.99v3.979Z" transform="translate(-0.333 -2.466)" fill="#14a050"/>
    <path id="Path_527" data-name="Path 527" d="M37.133,39h-11.2a.934.934,0,0,0-.933.933V47.4a.934.934,0,0,0,.933.933h11.2a.934.934,0,0,0,.933-.933V39.933A.934.934,0,0,0,37.133,39Zm-7.283,4.667-2.984,1.99V41.678Zm-.834-2.8h5.035l-2.517,1.678Zm2.517,3.922,2.517,1.678H29.015Zm1.683-1.122,2.984-1.99v3.979Z" transform="translate(-1.533 -2.466)" fill="#14a050"/>
    <path id="Path_528" data-name="Path 528" d="M55.133,39h-11.2a.934.934,0,0,0-.933.933V47.4a.934.934,0,0,0,.933.933h11.2a.934.934,0,0,0,.933-.933V39.933A.934.934,0,0,0,55.133,39Zm-7.283,4.667-2.984,1.99V41.678Zm-.834-2.8h5.035l-2.518,1.678Zm2.517,3.922,2.517,1.678H47.015Zm1.683-1.122,2.984-1.99v3.979Z" transform="translate(-2.733 -2.466)" fill="#14a050"/>
    <rect id="Rectangle_389" data-name="Rectangle 389" width="9" height="1" transform="translate(8 48)" fill="#14a050"/>
    <rect id="Rectangle_390" data-name="Rectangle 390" width="10" height="1" transform="translate(25 48)" fill="#14a050"/>
    <rect id="Rectangle_391" data-name="Rectangle 391" width="9" height="1" transform="translate(43 48)" fill="#14a050"/>
  </g>
</svg>
