<svg xmlns="http://www.w3.org/2000/svg" width="70" height="70" viewBox="0 0 70 70">
  <g id="Group_582" data-name="Group 582" transform="translate(-818 -979)">
    <g id="Ellipse_190" data-name="Ellipse 190" transform="translate(818 979)" fill="#fff" stroke="#141414" stroke-width="2">
      <circle cx="35" cy="35" r="35" stroke="none"/>
      <circle cx="35" cy="35" r="34" fill="none"/>
    </g>
    <g id="noun_bulb_3883349" transform="translate(823.896 988.5)">
      <g id="Group_557" data-name="Group 557" transform="translate(9.103 2.5)">
        <g id="Group_548" data-name="Group 548" transform="translate(21.045 41.331)">
          <path id="Path_2163" data-name="Path 2163" d="M53.2,92.441a.652.652,0,0,0,.668.668h6.157a.652.652,0,0,0,.668-.668V89.1H53.2Z" transform="translate(-53.2 -89.1)" fill="#141414"/>
        </g>
        <g id="Group_549" data-name="Group 549" transform="translate(21.427 21.456)">
          <path id="Path_2164" data-name="Path 2164" d="M71.372,48.1h0a1.419,1.419,0,0,0-2.339-.048l-2.72,3.818c.048.1.143.143.191.239a2.864,2.864,0,0,1-.191,3.484l-.191.239A31.7,31.7,0,0,1,62.5,59.361l-1.05.859a.813.813,0,0,1-1.05-1.241l1.05-.859a25.228,25.228,0,0,0,3.436-3.341l.191-.239a1.223,1.223,0,0,0,.1-1.479,1.242,1.242,0,0,0-1.718-.334l-5.918,4.152a3.575,3.575,0,0,0-1.384,1.861L54,65.756h7.636l5.2-3.2a4.213,4.213,0,0,0,1.814-2.434l2.911-10.881A1.366,1.366,0,0,0,71.372,48.1Z" transform="translate(-54 -47.456)" fill="#141414"/>
        </g>
        <g id="Group_550" data-name="Group 550" transform="translate(0 21.456)">
          <path id="Path_2165" data-name="Path 2165" d="M24.613,58.693a3.4,3.4,0,0,0-1.384-1.861l-5.918-4.152a1.222,1.222,0,0,0-.907-.191,1.171,1.171,0,0,0-.811.525,1.151,1.151,0,0,0,.1,1.479l.191.239a32.522,32.522,0,0,0,3.436,3.341l1.05.859a.68.68,0,0,1,.286.573.959.959,0,0,1-.191.62.68.68,0,0,1-.573.286.959.959,0,0,1-.62-.191l-1.05-.859a28.145,28.145,0,0,1-3.627-3.532L14.4,55.59a2.8,2.8,0,0,1-.191-3.484.838.838,0,0,1,.191-.239l-2.72-3.818a1.445,1.445,0,0,0-1.384-.573,1.32,1.32,0,0,0-.955.62,1.4,1.4,0,0,0-.191,1.145l2.911,10.881a4.071,4.071,0,0,0,1.814,2.434l5.2,3.15H26.76Z" transform="translate(-9.103 -47.456)" fill="#141414"/>
        </g>
        <g id="Group_551" data-name="Group 551" transform="translate(10.45 41.331)">
          <path id="Path_2166" data-name="Path 2166" d="M31,92.441a.652.652,0,0,0,.668.668h6.157a.652.652,0,0,0,.668-.668V89.1H31Z" transform="translate(-31 -89.1)" fill="#141414"/>
        </g>
        <g id="Group_552" data-name="Group 552" transform="translate(12.121 8.63)">
          <path id="Path_2167" data-name="Path 2167" d="M36.123,32.474a11.533,11.533,0,0,1,1.861,3.293h7.827a10.5,10.5,0,0,1,1.861-3.293,7.2,7.2,0,0,0,1.575-4.868A7.394,7.394,0,0,0,36.791,22.6a7.223,7.223,0,0,0-2.291,5.3A7.743,7.743,0,0,0,36.123,32.474Z" transform="translate(-34.5 -20.582)" fill="#141414"/>
        </g>
        <g id="Group_553" data-name="Group 553" transform="translate(15.652 26.058)">
          <path id="Path_2168" data-name="Path 2168" d="M48.343,59.82h.764a.58.58,0,0,0,.573-.573V57.1H41.9v2.148a.58.58,0,0,0,.573.573h.764a2.592,2.592,0,0,0,5.107,0Z" transform="translate(-41.9 -57.1)" fill="#141414"/>
        </g>
        <g id="Group_554" data-name="Group 554" transform="translate(17.943)">
          <path id="Path_2169" data-name="Path 2169" d="M48.275,8.513A1.589,1.589,0,0,0,49.85,6.938V4.075a1.575,1.575,0,1,0-3.15,0V6.938A1.589,1.589,0,0,0,48.275,8.513Z" transform="translate(-46.7 -2.5)" fill="#141414"/>
        </g>
        <g id="Group_555" data-name="Group 555" transform="translate(8.076 4.069)">
          <path id="Path_2170" data-name="Path 2170" d="M28.495,15.738a1.644,1.644,0,0,0,1.1.477,1.45,1.45,0,0,0,1.1-.477,1.527,1.527,0,0,0,0-2.2l-2-2.052a1.552,1.552,0,0,0-2.2,2.2Z" transform="translate(-26.025 -11.025)" fill="#141414"/>
        </g>
        <g id="Group_556" data-name="Group 556" transform="translate(25.83 4.069)">
          <path id="Path_2171" data-name="Path 2171" d="M64.788,16.215a1.45,1.45,0,0,0,1.1-.477l2-2.052a1.552,1.552,0,0,0-2.2-2.2l-2,2a1.527,1.527,0,0,0,0,2.2A1.349,1.349,0,0,0,64.788,16.215Z" transform="translate(-63.225 -11.025)" fill="#141414"/>
        </g>
      </g>
    </g>
  </g>
</svg>
