<?xml version="1.0" encoding="utf-8"?>
<!-- Generator: Adobe Illustrator 16.0.0, SVG Export Plug-In . SVG Version: 6.00 Build 0)  -->
<!DOCTYPE svg PUBLIC "-//W3C//DTD SVG 1.1//EN" "http://www.w3.org/Graphics/SVG/1.1/DTD/svg11.dtd">
<svg version="1.1" id="Layer_1" xmlns="http://www.w3.org/2000/svg" xmlns:xlink="http://www.w3.org/1999/xlink" x="0px" y="0px"
	 width="48px" height="48px" viewBox="0 0 48 48" enable-background="new 0 0 48 48" xml:space="preserve">
<path d="M16.338,27.975c-7.123,0-12.917-5.795-12.917-12.918S9.215,2.139,16.338,2.139c7.123,0,12.918,5.795,12.918,12.918
	c0,0.548,0.444,0.994,0.994,0.994s0.993-0.445,0.993-0.994c0-8.218-6.686-14.905-14.905-14.905c-8.218,0-14.905,6.687-14.905,14.905
	c0,8.219,6.687,14.905,14.905,14.905c0.549,0,0.994-0.445,0.994-0.993C17.332,28.419,16.887,27.975,16.338,27.975z M16.334,7.107
	c-2.25,0-4.662,1.508-4.968,4.878l1.972,0.18c0.266-2.923,2.517-3.071,2.97-3.071c0.699,0,2.95,0.183,2.95,2.546
	c0,1.247-0.727,1.853-1.813,2.738c-0.991,0.807-2.349,1.813-2.349,3.658v0.994h1.987v-0.994c0-0.859,0.663-1.341,1.615-2.119
	c1.107-0.901,2.606-2.023,2.606-4.277C21.305,8.929,19.306,7.107,16.334,7.107z M17.083,21.019h-1.987v1.987h1.987V21.019z
	 M42.173,19.031H24.288c-2.192,0-4.224,1.783-4.224,3.975v16.893c0,2.191,2.032,3.975,4.224,3.975h5.465l2.683,3.577
	c0.188,0.25,0.482,0.397,0.795,0.397c0.312,0,0.607-0.147,0.795-0.397l2.684-3.577h5.464c2.192,0,3.728-1.783,3.728-3.975V23.006
	C45.9,20.814,44.365,19.031,42.173,19.031z M43.912,39.898c0,1.095-0.644,1.987-1.739,1.987h-5.961
	c-0.313,0-0.607,0.147-0.796,0.397l-2.186,2.914l-2.186-2.914c-0.188-0.25-0.482-0.397-0.795-0.397h-5.962
	c-1.097,0-2.236-0.893-2.236-1.987V23.006c0-1.096,1.14-1.987,2.236-1.987h17.885c1.096,0,1.739,0.892,1.739,1.987V39.898z
	 M32.154,34.436l-4.184-4.183l-1.404,1.405l4.968,4.968c0.187,0.188,0.44,0.291,0.703,0.291c0.018,0,0.036,0,0.055-0.001
	c0.281-0.016,0.545-0.151,0.721-0.371l7.949-9.937l-1.553-1.243L32.154,34.436z"/>
</svg>
