<svg xmlns="http://www.w3.org/2000/svg" width="17.988" height="20.558" viewBox="0 0 17.988 20.558">
  <path id="Icon_awesome-bell" data-name="Icon awesome-bell" d="M8.994,20.558a2.569,2.569,0,0,0,2.569-2.57H6.426A2.569,2.569,0,0,0,8.994,20.558Zm8.648-6.011c-.776-.834-2.227-2.088-2.227-6.2a6.341,6.341,0,0,0-5.137-6.23V1.285a1.284,1.284,0,1,0-2.568,0v.837a6.341,6.341,0,0,0-5.137,6.23c0,4.108-1.452,5.362-2.227,6.2A1.255,1.255,0,0,0,0,15.418,1.286,1.286,0,0,0,1.289,16.7H16.7a1.286,1.286,0,0,0,1.289-1.285,1.254,1.254,0,0,0-.346-.872Z" fill="#505050"/>
</svg>
