<svg xmlns="http://www.w3.org/2000/svg" width="34.108" height="35.647" viewBox="0 0 34.108 35.647">
  <g id="noun_Class_1351410" transform="translate(-16.65 -15.13)">
    <path id="Path_309" data-name="Path 309" d="M23.2,60.27A3.206,3.206,0,1,0,26.4,63.476,3.206,3.206,0,0,0,23.2,60.27Zm0,5.395a2.184,2.184,0,1,1,2.184-2.184A2.184,2.184,0,0,1,23.2,65.665Z" transform="translate(-1.632 -22.057)" fill="#565656"/>
    <path id="Path_310" data-name="Path 310" d="M22.551,73.23a3.9,3.9,0,0,0-3.891,3.891v1.534a.511.511,0,1,0,1.023,0V77.121a2.871,2.871,0,0,1,5.743,0v1.534a.511.511,0,1,0,1.023,0V77.121A3.9,3.9,0,0,0,22.551,73.23Z" transform="translate(-0.982 -28.39)" fill="#565656"/>
    <path id="Path_311" data-name="Path 311" d="M36.47,63.476a3.206,3.206,0,1,0,3.206-3.206,3.206,3.206,0,0,0-3.206,3.206Zm5.395,0a2.178,2.178,0,1,0-.01,0Z" transform="translate(-9.685 -22.057)" fill="#565656"/>
    <path id="Path_312" data-name="Path 312" d="M39.041,73.23a3.9,3.9,0,0,0-3.891,3.891v1.534a.511.511,0,1,0,1.023,0V77.121a2.871,2.871,0,0,1,5.743,0v1.534a.511.511,0,1,0,1.023,0V77.121A3.9,3.9,0,0,0,39.041,73.23Z" transform="translate(-9.04 -28.39)" fill="#565656"/>
    <path id="Path_313" data-name="Path 313" d="M53,63.476a3.206,3.206,0,1,0,3.206-3.206A3.206,3.206,0,0,0,53,63.476Zm5.395,0a2.173,2.173,0,1,0-.02,0Z" transform="translate(-17.762 -22.057)" fill="#565656"/>
    <path id="Path_314" data-name="Path 314" d="M55.521,73.23a3.9,3.9,0,0,0-3.891,3.891v1.534a.511.511,0,1,0,1.023,0V77.121a2.871,2.871,0,0,1,5.743,0v1.534a.511.511,0,1,0,1.023,0V77.121A3.9,3.9,0,0,0,55.521,73.23Z" transform="translate(-17.093 -28.39)" fill="#565656"/>
    <path id="Path_315" data-name="Path 315" d="M69.45,63.476a3.206,3.206,0,1,0,3.206-3.206A3.206,3.206,0,0,0,69.45,63.476Zm5.395,0a2.184,2.184,0,1,1-2.184-2.184A2.184,2.184,0,0,1,74.845,63.476Z" transform="translate(-25.8 -22.057)" fill="#565656"/>
    <path id="Path_316" data-name="Path 316" d="M72.011,73.23a3.9,3.9,0,0,0-3.891,3.891v1.534a.511.511,0,1,0,1.023,0V77.121a2.871,2.871,0,0,1,5.743,0v1.534a.511.511,0,0,0,1.023,0V77.121A3.9,3.9,0,0,0,72.011,73.23Z" transform="translate(-25.15 -28.39)" fill="#565656"/>
    <path id="Path_317" data-name="Path 317" d="M17.673,35.518a2.869,2.869,0,0,1,4.858-2.045h0a2.859,2.859,0,0,1,.864,2.045v1.534a.511.511,0,0,0,1.023,0V35.518a3.866,3.866,0,0,0-.511-1.907H47.889A.511.511,0,0,0,48.4,33.1V15.641a.511.511,0,0,0-.511-.511H20.516a.511.511,0,0,0-.511.511v9.429a3.211,3.211,0,1,0,1.023,0V16.153H47.4V32.613H23.1a3.886,3.886,0,0,0-6.448,2.9v1.534a.511.511,0,0,0,1.023,0Zm5.052-7.312a2.208,2.208,0,1,0,0,.026Z" transform="translate(0 0)" fill="#565656"/>
  </g>
</svg>
