<svg xmlns="http://www.w3.org/2000/svg" width="29.087" height="37.85" viewBox="0 0 29.087 37.85">
  <g id="Group_177" data-name="Group 177" transform="translate(-535.175 -705.775)">
    <path id="Path_219" data-name="Path 219" d="M52.474,41.576V40.553a6.825,6.825,0,0,0-5.511-6.687,5.842,5.842,0,1,0-8.452,0A6.825,6.825,0,0,0,33,40.553v3.895a.973.973,0,0,0,.974.974h9.755a9.725,9.725,0,1,0,8.745-3.845ZM42.737,25.947a3.895,3.895,0,1,1-3.895,3.895A3.9,3.9,0,0,1,42.737,25.947ZM34.947,40.553a4.874,4.874,0,0,1,4.868-4.868h5.842a4.874,4.874,0,0,1,4.868,4.868v1.023a9.623,9.623,0,0,0-1.215.207c-.074.018-.146.038-.219.056a9.8,9.8,0,0,0-1.006.315c-.059.022-.12.042-.179.066a9.617,9.617,0,0,0-1.11.522c-.035.019-.067.042-.1.062a9.528,9.528,0,0,0-.887.575c-.047.034-.1.059-.144.093H34.947ZM51.5,59.053a7.786,7.786,0,0,1-4.391-14.218l.057-.041c.195-.131.4-.253.6-.366.037-.02.075-.037.112-.056.178-.094.36-.183.546-.264l.139-.056q.269-.11.546-.2l.165-.051c.178-.054.36-.1.544-.14.063-.014.126-.028.189-.041.182-.035.367-.062.554-.085.063-.008.126-.018.19-.024.245-.021.494-.036.746-.036a7.789,7.789,0,1,1,0,15.579Z" transform="translate(502.6 682.2)" fill="#565656" stroke="#fff" stroke-width="0.85"/>
    <path id="Path_220" data-name="Path 220" d="M52.842,47H50.895v3.895H47v1.947h3.895v3.895h1.947V52.842h3.895V50.895H52.842Z" transform="translate(502.232 681.595)" fill="#565656" stroke="#fff" stroke-width="0.85"/>
  </g>
</svg>
