<svg xmlns="http://www.w3.org/2000/svg" width="60.72" height="56.1" viewBox="0 0 60.72 56.1">
  <g id="noun_customer_support_3581417" data-name="noun_customer support_3581417" transform="translate(-0.8 -4.4)">
    <path id="Path_722" data-name="Path 722" d="M53.759,63a1.078,1.078,0,0,0-1.54,0,12.786,12.786,0,0,1-17.982,0,1.089,1.089,0,0,0-1.54,1.54,14.867,14.867,0,0,0,21.061,0A1.077,1.077,0,0,0,53.759,63Z" transform="translate(-12.131 -22.389)" fill="#14a050"/>
    <path id="Path_723" data-name="Path 723" d="M33.334,45.555a2.339,2.339,0,0,1,2.34,2.34,1.108,1.108,0,0,0,2.217,0,4.5,4.5,0,1,0-8.991,0,1.108,1.108,0,0,0,2.217,0A2.166,2.166,0,0,1,33.334,45.555Z" transform="translate(-10.796 -14.984)" fill="#14a050"/>
    <path id="Path_724" data-name="Path 724" d="M59.594,47.9a2.34,2.34,0,1,1,4.68,0,1.108,1.108,0,0,0,2.217,0,4.5,4.5,0,1,0-8.991,0A1.1,1.1,0,0,0,58.608,49,1.006,1.006,0,0,0,59.594,47.9Z" transform="translate(-21.784 -14.984)" fill="#14a050"/>
    <path id="Path_725" data-name="Path 725" d="M57.7,30.633H54.252l1.478-1.108a1,1,0,0,0,.431-.862C56.161,15.3,45.015,4.4,31.344,4.4h-.123C17.488,4.4,6.342,15.3,6.342,28.663a1.176,1.176,0,0,0,.431.862L8.19,30.633H4.68A3.863,3.863,0,0,0,.8,34.513v7.944a3.863,3.863,0,0,0,3.88,3.88l6.589-.062a1.053,1.053,0,0,0,1.047-1.108V30.757a18.844,18.844,0,1,1,37.687,0V45.1a1.136,1.136,0,0,0,1.047,1.108h1.6a11.115,11.115,0,0,1-10.222,9.914,3.286,3.286,0,0,0-3.079-2.155H36.209a3.264,3.264,0,0,0,0,6.528h3.141a3.257,3.257,0,0,0,3.079-2.217,13.113,13.113,0,0,0,12.316-12.07h2.894a3.863,3.863,0,0,0,3.88-3.88V34.451A3.759,3.759,0,0,0,57.7,30.633ZM39.411,58.345H36.27a1.108,1.108,0,0,1,0-2.217h3.141a1.108,1.108,0,1,1,0,2.217ZM10.16,44.058l-5.542.062a1.656,1.656,0,0,1-1.663-1.663V34.451a1.656,1.656,0,0,1,1.663-1.663H10.16ZM31.344,9.7H31.1A21.089,21.089,0,0,0,10.283,29.4L8.559,28.109c.246-11.885,10.284-21.492,22.6-21.492h.123c12.316,0,22.354,9.607,22.662,21.492L52.1,29.463A21,21,0,0,0,31.344,9.7ZM59.425,42.4a1.656,1.656,0,0,1-1.663,1.663L52.22,44V32.789h5.542a1.656,1.656,0,0,1,1.663,1.663Z" fill="#14a050"/>
  </g>
</svg>
