<svg xmlns="http://www.w3.org/2000/svg" width="27.766" height="36" viewBox="0 0 27.766 36">
  <g id="noun_professor_150908" transform="translate(-26.549 -22.372)">
    <g id="Group_16" data-name="Group 16" transform="translate(26.549 22.372)">
      <path id="Path_13" data-name="Path 13" d="M42.835,49.9a7.208,7.208,0,0,1-.49.638l-.294.294a7.807,7.807,0,0,1,3.875,2.158,8.037,8.037,0,0,1,2.354,5.738v5.1a.793.793,0,0,1-.2.49,3.9,3.9,0,0,1-1.569,1.03,19.292,19.292,0,0,1-4.807,1.128,50.728,50.728,0,0,1-6.278.392,41.52,41.52,0,0,1-9.074-.883,10.311,10.311,0,0,1-2.845-1.03,2.128,2.128,0,0,1-.687-.589.793.793,0,0,1-.2-.49v-5.15a8.037,8.037,0,0,1,2.354-5.738,8.616,8.616,0,0,1,3.286-2.011l-.441-.441c-.1-.147-.245-.294-.343-.441A9.232,9.232,0,0,0,21.5,58.728v5.1a2,2,0,0,0,.392,1.177A4.442,4.442,0,0,0,23.9,66.38a20.743,20.743,0,0,0,5.052,1.177,53.824,53.824,0,0,0,6.425.392,40.735,40.735,0,0,0,9.319-.932,11.422,11.422,0,0,0,3.188-1.177,3.418,3.418,0,0,0,.981-.883,2,2,0,0,0,.392-1.177V58.728A8.924,8.924,0,0,0,42.835,49.9Z" transform="translate(-21.5 -31.949)" fill="#565656"/>
      <path id="Path_14" data-name="Path 14" d="M36.05,33.213a6.277,6.277,0,0,0,1.079,3.531,5.967,5.967,0,0,0,.736.834,20.188,20.188,0,0,0-.147,2.5,19.639,19.639,0,0,0,.49,4.561,5.113,5.113,0,0,0,.589,1.471,1.418,1.418,0,0,0,1.128.736,1.172,1.172,0,0,0,.687-.245,2.927,2.927,0,0,0,.687-.981,11.741,11.741,0,0,0,.589-2.354,21.389,21.389,0,0,0,.2-3.188,20.191,20.191,0,0,0-.147-2.5,5.221,5.221,0,0,0,1.226-1.619,6.117,6.117,0,0,0,.589-2.747,8.948,8.948,0,0,0,2.6-2.109,11.71,11.71,0,0,0,0-14.714,8.225,8.225,0,0,0-12.85,0,11.71,11.71,0,0,0,0,14.714A8.16,8.16,0,0,0,36.05,33.213Zm1.128.49a7.684,7.684,0,0,0,1.52.392c-.049.1-.1.245-.147.343a9.8,9.8,0,0,0-.49,1.668,3.127,3.127,0,0,1-.392-.687A5.454,5.454,0,0,1,37.178,33.7Zm2.109,2.011a4.981,4.981,0,0,1,.441-1.177.677.677,0,0,1,.147-.2.171.171,0,0,1,.049.1,2.593,2.593,0,0,1,.343.736,11.438,11.438,0,0,1,.392,1.815,1.733,1.733,0,0,1-.834.2,2.311,2.311,0,0,1-.834-.2C39.14,36.548,39.189,36.107,39.287,35.714ZM40.464,44.3a4.981,4.981,0,0,1-.441,1.177.677.677,0,0,1-.147.2.171.171,0,0,1-.049-.1,2.593,2.593,0,0,1-.343-.736,16.824,16.824,0,0,1-.638-4.856c0-.638.049-1.275.1-1.864a3.171,3.171,0,0,0,.981.2,2.338,2.338,0,0,0,.981-.2c.049.589.1,1.226.1,1.864A19.019,19.019,0,0,1,40.464,44.3Zm1.324-8.24-.049.049c-.049-.245-.1-.49-.147-.687a7.4,7.4,0,0,0-.49-1.373,7.684,7.684,0,0,0,1.52-.392A6.011,6.011,0,0,1,41.788,36.057ZM34.333,17.077a7.143,7.143,0,0,1,11.183,0A10.255,10.255,0,0,1,47.87,23.7a9.994,9.994,0,0,1-2.354,6.621,7.143,7.143,0,0,1-11.183,0,10.488,10.488,0,0,1,0-13.242Z" transform="translate(-26.29 -13.3)" fill="#565656"/>
    </g>
  </g>
</svg>
