<svg xmlns="http://www.w3.org/2000/svg" width="12.382" height="11.432" viewBox="0 0 12.382 11.432">
  <g id="Icon_ionic-md-thumbs-up" data-name="Icon ionic-md-thumbs-up" transform="translate(-3.375 -4.5)">
    <path id="Path_223" data-name="Path 223" d="M12.381,15.932H17.5a1.092,1.092,0,0,0,1.018-.7l1.7-4.031a1.139,1.139,0,0,0,.077-.417V9.638a1.313,1.313,0,0,0-1.125-1.328H15.623l.536-2.426.018-.179a.863.863,0,0,0-.247-.6l-.6-.6L11.577,8.29a1.146,1.146,0,0,0-.327.807v5.716A1.123,1.123,0,0,0,12.381,15.932Z" transform="translate(-4.541)" fill="#be643c"/>
    <path id="Path_224" data-name="Path 224" d="M3.375,15.75H5.28v6.669H3.375Z" transform="translate(0 -6.487)" fill="#be643c"/>
  </g>
</svg>
