<svg xmlns="http://www.w3.org/2000/svg" width="60.302" height="56.599" viewBox="0 0 60.302 56.599">
  <g id="noun_device_3558722" transform="translate(-0.1 -2.06)">
    <path id="Path_535" data-name="Path 535" d="M58.876,23.32H41.286a3.306,3.306,0,0,0-3.306,3.306V56.213a3.306,3.306,0,0,0,3.306,3.306H58.876a3.306,3.306,0,0,0,3.306-3.306V26.626a3.306,3.306,0,0,0-3.306-3.306Zm.472,32.893a.472.472,0,0,1-.472.472H41.286a.482.482,0,0,1-.472-.472V52.1H59.348Zm0-6.943H40.833V26.6a.472.472,0,0,1,.472-.472h17.57a.472.472,0,0,1,.472.472Z" transform="translate(-2.08 -1.16)" fill="#14a050" stroke="#fff" stroke-width="0.6"/>
    <path id="Path_536" data-name="Path 536" d="M3.234,35.29V5.8a.614.614,0,0,1,.614-.614H43.476a.614.614,0,0,1,.614.614v14h2.834V5.8A3.457,3.457,0,0,0,43.476,2.36H3.848A3.457,3.457,0,0,0,.4,5.8V35.29a3.457,3.457,0,0,0,3.448,3.448h18.4v3.694l-6.943,2.645a1.417,1.417,0,0,0,.51,2.739,1.379,1.379,0,0,0,.5-.094l7.349-2.834,7.34,2.834a1.379,1.379,0,0,0,.5.094,1.417,1.417,0,0,0,.51-2.739l-6.934-2.645V38.738h8.455V35.9H3.848a.6.6,0,0,1-.614-.614Z" transform="translate(0)" fill="#14a050" stroke="#fff" stroke-width="0.6"/>
    <path id="Path_537" data-name="Path 537" d="M53.795,28.34H47.787a1.417,1.417,0,0,0-1.417,1.417V35.3a1.417,1.417,0,0,0,1.417,1.417h6.008A1.417,1.417,0,0,0,55.212,35.3V29.757A1.417,1.417,0,0,0,53.795,28.34Zm-1.417,5.545H49.2V31.174h3.174Z" transform="translate(-2.545 -1.438)" fill="#14a050" stroke="#fff" stroke-width="0.6"/>
    <path id="Path_538" data-name="Path 538" d="M53.795,39.89H47.787a1.417,1.417,0,0,0-1.417,1.417v5.555a1.417,1.417,0,0,0,1.417,1.417h6.008a1.426,1.426,0,0,0,1.417-1.417V41.307A1.426,1.426,0,0,0,53.795,39.89Zm-1.417,5.555H49.2V42.724h3.174Z" transform="translate(-2.545 -2.077)" fill="#14a050" stroke="#fff" stroke-width="0.6"/>
    <path id="Path_539" data-name="Path 539" d="M8.137,13.24A1.417,1.417,0,0,0,6.72,14.657V27.126a1.417,1.417,0,0,0,1.417,1.417H21.362a1.417,1.417,0,0,0,1.417-1.417V14.657a1.417,1.417,0,0,0-1.417-1.417ZM19.9,25.709H9.507V16.074H19.9Z" transform="translate(-0.35 -0.602)" fill="#14a050" stroke="#fff" stroke-width="0.6"/>
    <path id="Path_540" data-name="Path 540" d="M28.834,16.074H39.225v4.5a5.668,5.668,0,0,1,1.464-.2h1.37V14.657a1.426,1.426,0,0,0-1.417-1.417H27.417A1.417,1.417,0,0,0,26,14.657V27.126a1.417,1.417,0,0,0,1.417,1.417h7.557V25.709h-6.14Z" transform="translate(-1.417 -0.602)" fill="#14a050" stroke="#fff" stroke-width="0.6"/>
    <path id="Path_541" data-name="Path 541" d="M50.047,57.544h1.766a1.417,1.417,0,0,0,0-2.834H50.047a1.417,1.417,0,0,0,0,2.834Z" transform="translate(-2.67 -2.898)" fill="#14a050" stroke="#fff" stroke-width="0.6"/>
  </g>
</svg>
