<svg xmlns="http://www.w3.org/2000/svg" width="53.651" height="48.508" viewBox="0 0 53.651 48.508">
  <g id="Group_718" data-name="Group 718" transform="translate(-527.741 -705.742)">
    <path id="Path_2235" data-name="Path 2235" d="M58.689,58.287H50.17A2.173,2.173,0,0,1,48,56.118V48.454A.472.472,0,0,1,48.453,48H60.4a.472.472,0,0,1,.454.453v7.664A2.173,2.173,0,0,1,58.689,58.287Zm-9.832-9.43v7.26A1.314,1.314,0,0,0,50.17,57.43h8.52A1.314,1.314,0,0,0,60,56.118v-7.26Z" transform="translate(520.282 695.713)" fill="#146eff" stroke="#146eff" stroke-width="0.5"/>
    <path id="Path_2236" data-name="Path 2236" d="M55.286,53.572a1.286,1.286,0,1,1,1.286-1.286A1.287,1.287,0,0,1,55.286,53.572Zm0-1.715a.429.429,0,1,0,.429.429A.429.429,0,0,0,55.286,51.857Z" transform="translate(519.426 695.285)" fill="#146eff" stroke="#146eff" stroke-width="0.5"/>
    <path id="Path_2237" data-name="Path 2237" d="M55.429,56.429A.429.429,0,0,1,55,56V53.429a.429.429,0,1,1,.857,0V56A.429.429,0,0,1,55.429,56.429Z" transform="translate(519.283 694.999)" fill="#146eff" stroke="#146eff" stroke-width="0.5"/>
    <path id="Path_2238" data-name="Path 2238" d="M58.977,47.716H57.313a.472.472,0,0,1-.454-.453V44.715a2.129,2.129,0,0,0-.661-1.549,2.151,2.151,0,0,0-1.579-.592,2.259,2.259,0,0,0-2.046,2.309v2.379a.472.472,0,0,1-.453.453H50.454A.472.472,0,0,1,50,47.262V44.9a4.817,4.817,0,0,1,3.765-4.8h0a4.719,4.719,0,0,1,5.664,4.622v2.547A.472.472,0,0,1,58.977,47.716Zm-1.261-.857h.857V44.715a3.849,3.849,0,0,0-1.409-2.981,3.9,3.9,0,0,0-3.234-.8h0A3.959,3.959,0,0,0,50.857,44.9v1.962h.857V44.883a3.121,3.121,0,0,1,2.865-3.165,3,3,0,0,1,3.136,3Z" transform="translate(519.997 696.854)" fill="#146eff" stroke="#146eff" stroke-width="0.5"/>
    <path id="Path_2239" data-name="Path 2239" d="M55.429,48A.429.429,0,0,1,55,47.572V42.429a.429.429,0,0,1,.857,0v5.144A.429.429,0,0,1,55.429,48Z" transform="translate(519.283 696.569)" fill="#146eff" stroke="#146eff" stroke-width="0.5"/>
    <path id="Path_2240" data-name="Path 2240" d="M41.72,48.29H4.029A3.032,3.032,0,0,1,1,45.261V23.029A3.032,3.032,0,0,1,4.029,20H45.121a3.032,3.032,0,0,1,3.029,3.029V37.574a.429.429,0,1,1-.857,0V23.029a2.174,2.174,0,0,0-2.171-2.171H4.029a2.174,2.174,0,0,0-2.171,2.171V45.261a2.174,2.174,0,0,0,2.171,2.171H41.72a.429.429,0,0,1,0,.857Z" transform="translate(526.991 699.709)" fill="#146eff" stroke="#146eff" stroke-width="0.5"/>
    <path id="Path_2241" data-name="Path 2241" d="M48.29,32.49a.421.421,0,0,1-.117-.016.428.428,0,0,1-.3-.529l3.811-13.464a2.172,2.172,0,0,0-1.5-2.68L11.853,4.949a2.173,2.173,0,0,0-2.68,1.5L5.829,18.263A.429.429,0,0,1,5,18.03L8.348,6.213a3.029,3.029,0,0,1,3.738-2.089l38.34,10.852a3.031,3.031,0,0,1,2.089,3.738L48.7,32.178A.43.43,0,0,1,48.29,32.49Z" transform="translate(526.421 701.991)" fill="#146eff" stroke="#146eff" stroke-width="0.5"/>
    <path id="Path_2242" data-name="Path 2242" d="M47.721,30.144h-6a.429.429,0,1,1,0-.857h5.572V25.857H1.857v3.429H29.719a.429.429,0,0,1,0,.857H1.429A.429.429,0,0,1,1,29.715V25.429A.429.429,0,0,1,1.429,25H47.721a.429.429,0,0,1,.429.429v4.286A.429.429,0,0,1,47.721,30.144Z" transform="translate(526.991 698.995)" fill="#146eff" stroke="#146eff" stroke-width="0.5"/>
    <path id="Path_2243" data-name="Path 2243" d="M17.573,42.286H8.143a2.143,2.143,0,0,1,0-4.286h9.43a2.143,2.143,0,1,1,0,4.286Zm-9.43-3.429a1.286,1.286,0,0,0,0,2.572h9.43a1.286,1.286,0,0,0,0-2.572Z" transform="translate(526.277 697.14)" fill="#146eff" stroke="#146eff" stroke-width="0.5"/>
    <path id="Path_2244" data-name="Path 2244" d="M6.429,47.572A.429.429,0,0,1,6,47.143V45.429a.429.429,0,0,1,.857,0v1.715A.429.429,0,0,1,6.429,47.572Z" transform="translate(526.277 696.141)" fill="#146eff" stroke="#146eff" stroke-width="0.5"/>
    <path id="Path_2245" data-name="Path 2245" d="M15.429,47.572A.429.429,0,0,1,15,47.143V45.429a.429.429,0,0,1,.857,0v1.715A.429.429,0,0,1,15.429,47.572Z" transform="translate(524.992 696.141)" fill="#146eff" stroke="#146eff" stroke-width="0.5"/>
    <path id="Path_2246" data-name="Path 2246" d="M12.429,47.572A.429.429,0,0,1,12,47.143V45.429a.429.429,0,0,1,.857,0v1.715A.429.429,0,0,1,12.429,47.572Z" transform="translate(525.42 696.141)" fill="#146eff" stroke="#146eff" stroke-width="0.5"/>
    <path id="Path_2247" data-name="Path 2247" d="M21.429,47.572A.429.429,0,0,1,21,47.143V45.429a.429.429,0,0,1,.857,0v1.715A.429.429,0,0,1,21.429,47.572Z" transform="translate(524.136 696.141)" fill="#146eff" stroke="#146eff" stroke-width="0.5"/>
    <path id="Path_2248" data-name="Path 2248" d="M9.429,47.572A.429.429,0,0,1,9,47.143V45.429a.429.429,0,0,1,.857,0v1.715A.429.429,0,0,1,9.429,47.572Z" transform="translate(525.849 696.141)" fill="#146eff" stroke="#146eff" stroke-width="0.5"/>
    <path id="Path_2249" data-name="Path 2249" d="M18.429,47.572A.429.429,0,0,1,18,47.143V45.429a.429.429,0,0,1,.857,0v1.715A.429.429,0,0,1,18.429,47.572Z" transform="translate(524.564 696.141)" fill="#146eff" stroke="#146eff" stroke-width="0.5"/>
    <path id="Path_2250" data-name="Path 2250" d="M42.145,47.857H28.429a.429.429,0,0,1,0-.857H42.145a.429.429,0,1,1,0,.857Z" transform="translate(523.137 695.855)" fill="#146eff" stroke="#146eff" stroke-width="0.5"/>
    <path id="Path_2251" data-name="Path 2251" d="M42.572,30.857H37.429a.429.429,0,0,1,0-.857h5.144a.429.429,0,0,1,0,.857Z" transform="translate(521.853 698.282)" fill="#146eff" stroke="#146eff" stroke-width="0.5"/>
  </g>
</svg>
