<svg xmlns="http://www.w3.org/2000/svg" width="47.525" height="47.5" viewBox="0 0 47.525 47.5">
  <g id="noun_Question_3775850" transform="translate(-0.25 -0.25)">
    <path id="Path_709" data-name="Path 709" d="M31.667,1A15.36,15.36,0,0,0,17.04,11.734H5.6a4.6,4.6,0,0,0-4.6,4.6v18.4a4.6,4.6,0,0,0,4.6,4.6h6.8l4.154,6.923a1.533,1.533,0,0,0,2.628,0l4.154-6.923h6.8a4.6,4.6,0,0,0,4.6-4.6V31.361A15.334,15.334,0,0,0,31.667,1Zm0,33.734a1.533,1.533,0,0,1-1.533,1.533H22.467a1.533,1.533,0,0,0-1.314.743l-3.286,5.477-3.286-5.477a1.533,1.533,0,0,0-1.314-.744H5.6a1.533,1.533,0,0,1-1.533-1.533v-18.4A1.533,1.533,0,0,1,5.6,14.8H16.412A15.321,15.321,0,0,0,31.667,31.667Zm0-6.133A12.267,12.267,0,1,1,43.934,16.334,12.267,12.267,0,0,1,31.667,28.6Z" transform="translate(0 0)" fill="#be643c" stroke="#fff" stroke-width="1.5"/>
    <path id="Path_710" data-name="Path 710" d="M22.6,5A4.6,4.6,0,0,0,18,9.6a1.533,1.533,0,0,0,3.067,0,1.533,1.533,0,1,1,3.067,0c0,.862-.333,1.227-1.084,1.983a5.463,5.463,0,0,0-1.983,4.151,1.533,1.533,0,1,0,3.067,0c0-.862.333-1.227,1.084-1.983A5.463,5.463,0,0,0,27.2,9.6,4.6,4.6,0,0,0,22.6,5Z" transform="translate(9.067 2.133)" fill="#be643c" stroke="#fff" stroke-width="1.5"/>
    <circle id="Ellipse_153" data-name="Ellipse 153" cx="1.533" cy="1.533" r="1.533" transform="translate(30.134 22.467)" fill="#be643c" stroke="#fff" stroke-width="1.5"/>
    <path id="Path_711" data-name="Path 711" d="M6.533,15.067H9.6A1.533,1.533,0,1,0,9.6,12H6.533a1.533,1.533,0,1,0,0,3.067Z" transform="translate(2.133 5.867)" fill="#be643c" stroke="#fff" stroke-width="1.5"/>
    <path id="Path_712" data-name="Path 712" d="M6.533,19.067h4.6a1.533,1.533,0,0,0,0-3.067h-4.6a1.533,1.533,0,0,0,0,3.067Z" transform="translate(2.133 8)" fill="#be643c" stroke="#fff" stroke-width="1.5"/>
    <path id="Path_713" data-name="Path 713" d="M15.734,20h-9.2a1.533,1.533,0,1,0,0,3.067h9.2a1.533,1.533,0,1,0,0-3.067Z" transform="translate(2.133 10.134)" fill="#be643c" stroke="#fff" stroke-width="1.5"/>
  </g>
</svg>
