<svg xmlns="http://www.w3.org/2000/svg" width="49.041" height="52.291" viewBox="0 0 49.041 52.291">
  <g id="Group_747" data-name="Group 747" transform="translate(-745 -248)">
    <g id="Group_739" data-name="Group 739" transform="translate(-196 -50)">
      <g id="Ellipse_198" data-name="Ellipse 198" transform="translate(941 298)" fill="none" stroke="#146efa" stroke-width="1.5">
        <circle cx="24" cy="24" r="24" stroke="none"/>
        <circle cx="24" cy="24" r="23.25" fill="none"/>
      </g>
    </g>
    <rect id="Rectangle_926" data-name="Rectangle 926" width="14" height="1.5" rx="0.75" transform="translate(784.141 289.331) rotate(45)" fill="#146efa"/>
    <g id="Group_740" data-name="Group 740" transform="translate(754.874 259.125)">
      <path id="Path_2329" data-name="Path 2329" d="M10.493,114.531a5.822,5.822,0,0,1,1.42.617l1.913-1.42c.123-.062.309-.062.37.062l1.543,1.481c.062.123.123.309,0,.432l-1.358,1.913A9.086,9.086,0,0,1,15,118.974l2.284.37a.41.41,0,0,1,.247.309v2.1a.282.282,0,0,1-.247.309L15,122.493a9.848,9.848,0,0,1-.617,1.42l1.358,1.852a.3.3,0,0,1,0,.432l-1.481,1.481a.38.38,0,0,1-.432.062l-1.913-1.358a5.239,5.239,0,0,1-1.358.555l-.432,2.345a.41.41,0,0,1-.309.247h-2.1a.292.292,0,0,1-.309-.309l-.432-2.284a6.3,6.3,0,0,1-1.358-.555L3.7,127.739a.38.38,0,0,1-.432-.062L1.79,126.2a.3.3,0,0,1,0-.432l1.358-1.852a7.073,7.073,0,0,1-.617-1.42l-2.284-.432A.282.282,0,0,1,0,121.752v-2.1a.41.41,0,0,1,.247-.309l2.284-.37a7.073,7.073,0,0,1,.617-1.42L1.79,115.7a.38.38,0,0,1,.062-.432l1.481-1.481a.291.291,0,0,1,.37-.062l1.913,1.358a5.661,5.661,0,0,1,1.42-.555l.37-2.284c0-.185.123-.247.309-.247h2.1a.315.315,0,0,1,.309.247Zm-1.728,1.913a4.321,4.321,0,0,0-4.259,4.32,4.259,4.259,0,1,0,4.259-4.32Z" transform="translate(0 -105.087)" fill="#146efa" fill-rule="evenodd"/>
      <path id="Path_2330" data-name="Path 2330" d="M108.222,218A2.222,2.222,0,1,1,106,220.222,2.213,2.213,0,0,1,108.222,218Z" transform="translate(-99.458 -204.545)" fill="#146efa" fill-rule="evenodd"/>
      <path id="Path_2331" data-name="Path 2331" d="M254.781,1.728a4.678,4.678,0,0,1,.988.37L257,.988a.276.276,0,0,1,.309,0l1.111.988c.123.062.123.185.062.309L257.62,3.7a2.226,2.226,0,0,1,.494.926l1.666.123a.2.2,0,0,1,.185.185l.123,1.481c0,.123-.062.185-.185.247l-1.6.432a8.788,8.788,0,0,1-.309.988l1.049,1.234a.276.276,0,0,1,0,.309l-.926,1.111a.276.276,0,0,1-.309,0l-1.42-.8a3.272,3.272,0,0,1-.926.494l-.123,1.6c-.062.123-.123.185-.247.185l-1.481.123c-.062,0-.185-.062-.185-.123l-.432-1.6a6.066,6.066,0,0,1-.988-.309l-1.234,1.049a.275.275,0,0,1-.309,0l-1.111-.988c-.123-.062-.123-.185-.062-.309l.864-1.358a2.971,2.971,0,0,1-.494-.988l-1.6-.123c-.123,0-.185-.123-.247-.185l-.062-1.481a.182.182,0,0,1,.123-.247l1.6-.37a6.742,6.742,0,0,1,.309-1.049l-1.049-1.234a.275.275,0,0,1,0-.309l.988-1.111a.371.371,0,0,1,.247-.062l1.42.864a3.127,3.127,0,0,1,.926-.432l.123-1.666c.062-.123.123-.185.247-.185L254.163,0a.2.2,0,0,1,.185.185Zm-1.111,1.481a2.973,2.973,0,1,0,3.21,2.716A2.984,2.984,0,0,0,253.669,3.209Z" transform="translate(-232.437)" fill="#146efa" fill-rule="evenodd"/>
      <path id="Path_2332" data-name="Path 2332" d="M317.739,68.809a1.92,1.92,0,1,1,.309,3.827,1.92,1.92,0,1,1-.309-3.827Z" transform="translate(-296.445 -64.551)" fill="#146efa" fill-rule="evenodd"/>
      <path id="Path_2333" data-name="Path 2333" d="M288.172,229.543a3.569,3.569,0,0,1,.864.309l1.111-.926a.188.188,0,0,1,.247,0l.988.8a.188.188,0,0,1,0,.247l-.679,1.234a4.652,4.652,0,0,1,.37.8l1.42.123q.185.093.185.185l.123,1.3c0,.123-.062.185-.123.185l-1.42.37a2.074,2.074,0,0,1-.309.864l.926,1.111a.188.188,0,0,1,0,.247l-.8.987c-.062.062-.185.123-.247.062l-1.234-.741a5.1,5.1,0,0,1-.8.432l-.185,1.42q0,.093-.185.185l-1.234.062a.321.321,0,0,1-.247-.123l-.309-1.42a3.537,3.537,0,0,1-.864-.247l-1.111.926a.188.188,0,0,1-.247,0l-.988-.864c-.062-.062-.123-.185-.062-.247l.741-1.234a3.324,3.324,0,0,1-.432-.8l-1.42-.123c-.062,0-.123-.123-.123-.185l-.123-1.3c0-.123.062-.185.123-.185l1.42-.37a3.541,3.541,0,0,1,.247-.864l-.864-1.111a.188.188,0,0,1,0-.247l.8-.988a.188.188,0,0,1,.247,0l1.234.741a5.1,5.1,0,0,1,.8-.432l.123-1.42a.164.164,0,0,1,.185-.185l1.3-.123a.2.2,0,0,1,.185.185Zm-.988,1.3a2.576,2.576,0,0,0-2.407,2.777,2.632,2.632,0,0,0,5.246-.432A2.621,2.621,0,0,0,287.185,230.839Z" transform="translate(-264.595 -213.928)" fill="#146efa" fill-rule="evenodd"/>
      <path id="Path_2334" data-name="Path 2334" d="M343.484,287.945a1.771,1.771,0,0,1,1.852,1.6,1.665,1.665,0,0,1-1.543,1.79,1.722,1.722,0,0,1-1.852-1.543A1.76,1.76,0,0,1,343.484,287.945Z" transform="translate(-320.832 -270.17)" fill="#146efa" fill-rule="evenodd"/>
    </g>
  </g>
</svg>
