<svg xmlns="http://www.w3.org/2000/svg" width="24.284" height="17.002" viewBox="0 0 24.284 17.002">
  <path id="Icon_awesome-cloud-upload-alt" data-name="Icon awesome-cloud-upload-alt" d="M20.4,9.633a3.642,3.642,0,0,0-5.422-4.34A6.071,6.071,0,0,0,3.642,8.32c0,.1,0,.2.008.307A5.464,5.464,0,0,0,5.463,19.246H19.424A4.856,4.856,0,0,0,20.4,9.633Zm-5.471,2.329H12.444v4.249a.609.609,0,0,1-.607.607H10.016a.609.609,0,0,1-.607-.607V11.962H6.927A.606.606,0,0,1,6.5,10.926l4-4a.609.609,0,0,1,.857,0l4,4a.607.607,0,0,1-.429,1.036Z" transform="translate(0.003 -2.244)" fill="#fff"/>
</svg>
