<svg xmlns="http://www.w3.org/2000/svg" width="16.25" height="16.25" viewBox="0 0 16.25 16.25">
  <path id="Icon_awesome-save" data-name="Icon awesome-save" d="M15.74,5.8,12.7,2.76a1.741,1.741,0,0,0-1.231-.51H1.741A1.741,1.741,0,0,0,0,3.991V16.759A1.741,1.741,0,0,0,1.741,18.5H14.509a1.741,1.741,0,0,0,1.741-1.741V7.034A1.741,1.741,0,0,0,15.74,5.8ZM8.125,16.179a2.321,2.321,0,1,1,2.321-2.321A2.321,2.321,0,0,1,8.125,16.179ZM11.607,5.133V8.779a.435.435,0,0,1-.435.435H2.757a.435.435,0,0,1-.435-.435V5.007a.435.435,0,0,1,.435-.435h8.289a.435.435,0,0,1,.308.127l.126.126a.435.435,0,0,1,.127.308Z" transform="translate(0 -2.25)" fill="#565656"/>
</svg>
