<svg xmlns="http://www.w3.org/2000/svg" width="19" height="19" viewBox="0 0 19 19">
  <g id="Group_802" data-name="Group 802" transform="translate(-217 -84.619)">
    <circle id="Ellipse_82" data-name="Ellipse 82" cx="9.5" cy="9.5" r="9.5" transform="translate(217 84.619)" fill="#146eff"/>
    <path id="Icon_awesome-save" data-name="Icon awesome-save" d="M10.822,4.693,8.73,2.6a1.2,1.2,0,0,0-.846-.351H1.2A1.2,1.2,0,0,0,0,3.447v8.779a1.2,1.2,0,0,0,1.2,1.2H9.975a1.2,1.2,0,0,0,1.2-1.2V5.539a1.2,1.2,0,0,0-.351-.846ZM5.586,11.827a1.6,1.6,0,1,1,1.6-1.6A1.6,1.6,0,0,1,5.586,11.827ZM7.98,4.232V6.739a.3.3,0,0,1-.3.3H1.9a.3.3,0,0,1-.3-.3V4.145a.3.3,0,0,1,.3-.3h5.7a.3.3,0,0,1,.212.088l.087.087a.3.3,0,0,1,.088.212Z" transform="translate(220.914 86.284)" fill="#fff"/>
  </g>
</svg>
