<svg xmlns="http://www.w3.org/2000/svg" width="25" height="17.5" viewBox="0 0 25 17.5">
  <path id="Icon_awesome-cloud-download-alt" data-name="Icon awesome-cloud-download-alt" d="M21,9.852a3.754,3.754,0,0,0-3.5-5.1,3.731,3.731,0,0,0-2.082.633A6.251,6.251,0,0,0,3.75,8.5c0,.105,0,.211.008.316A5.626,5.626,0,0,0,5.625,19.75H20a5,5,0,0,0,1-9.9Zm-5.191,3.465-4.117,4.117a.627.627,0,0,1-.883,0L6.691,13.316a.625.625,0,0,1,.441-1.066H9.688V7.875a.627.627,0,0,1,.625-.625h1.875a.627.627,0,0,1,.625.625V12.25h2.555a.625.625,0,0,1,.441,1.066Z" transform="translate(0 -2.25)" fill="#146eff"/>
</svg>
