<svg xmlns="http://www.w3.org/2000/svg" xmlns:xlink="http://www.w3.org/1999/xlink" width="88" height="88" viewBox="0 0 88 88">
  <defs>
    <linearGradient id="linear-gradient" x1="0.092" x2="0.821" y2="0.886" gradientUnits="objectBoundingBox">
      <stop offset="0" stop-color="#146efa"/>
      <stop offset="1" stop-color="#14a050"/>
    </linearGradient>
  </defs>
  <g id="Group_244" data-name="Group 244" transform="translate(-720 -264)">
    <circle id="Ellipse_55" data-name="Ellipse 55" cx="44" cy="44" r="44" transform="translate(720 264)" fill="url(#linear-gradient)"/>
    <path id="Icon_awesome-sad-cry" data-name="Icon awesome-sad-cry" d="M29.333.562a29.31,29.31,0,0,0-15.14,54.42v-21.3a1.892,1.892,0,1,1,3.785,0V56.946a29.381,29.381,0,0,0,22.71,0V33.681a1.892,1.892,0,0,1,3.785,0v21.3A29.31,29.31,0,0,0,29.333.562ZM21.586,26.17a6.143,6.143,0,0,0-7.215,0l-1.124,1.005A1.415,1.415,0,0,1,10.905,25.9c.473-2.981,4.045-4.98,7.085-4.98s6.612,2,7.085,4.98a1.415,1.415,0,0,1-2.342,1.277L21.586,26.17Zm7.747,22.651c-3.134,0-5.677-3.395-5.677-7.57s2.543-7.57,5.677-7.57,5.677,3.395,5.677,7.57S32.468,48.821,29.333,48.821ZM47.052,27.353a1.411,1.411,0,0,1-1.62-.189l-1.124-1.005a6.143,6.143,0,0,0-7.215,0l-1.135,1.017A1.415,1.415,0,0,1,33.615,25.9c.473-2.981,4.045-4.98,7.085-4.98s6.612,2,7.085,4.98A1.462,1.462,0,0,1,47.052,27.353Z" transform="translate(734.667 278.104)" fill="#fff"/>
  </g>
</svg>
