<svg width="16" height="16" viewBox="0 0 16 16" fill="none" xmlns="http://www.w3.org/2000/svg">
<path d="M1.59961 3.3998C1.59961 3.24067 1.66282 3.08806 1.77535 2.97554C1.88787 2.86302 2.04048 2.7998 2.19961 2.7998H10.5996C10.7587 2.7998 10.9114 2.86302 11.0239 2.97554C11.1364 3.08806 11.1996 3.24067 11.1996 3.3998C11.1996 3.55893 11.1364 3.71155 11.0239 3.82407C10.9114 3.93659 10.7587 3.9998 10.5996 3.9998H2.19961C2.04048 3.9998 1.88787 3.93659 1.77535 3.82407C1.66282 3.71155 1.59961 3.55893 1.59961 3.3998ZM1.59961 7.3998C1.59961 7.24067 1.66282 7.08806 1.77535 6.97554C1.88787 6.86302 2.04048 6.7998 2.19961 6.7998H13.7996C13.9587 6.7998 14.1114 6.86302 14.2239 6.97554C14.3364 7.08806 14.3996 7.24067 14.3996 7.3998C14.3996 7.55893 14.3364 7.71155 14.2239 7.82407C14.1114 7.93659 13.9587 7.9998 13.7996 7.9998H2.19961C2.04048 7.9998 1.88787 7.93659 1.77535 7.82407C1.66282 7.71155 1.59961 7.55893 1.59961 7.3998ZM2.19961 10.7998C2.04048 10.7998 1.88787 10.863 1.77535 10.9755C1.66282 11.0881 1.59961 11.2407 1.59961 11.3998C1.59961 11.5589 1.66282 11.7115 1.77535 11.8241C1.88787 11.9366 2.04048 11.9998 2.19961 11.9998H8.99961C9.15874 11.9998 9.31135 11.9366 9.42387 11.8241C9.5364 11.7115 9.59961 11.5589 9.59961 11.3998C9.59961 11.2407 9.5364 11.0881 9.42387 10.9755C9.31135 10.863 9.15874 10.7998 8.99961 10.7998H2.19961Z" fill="#202020" fill-opacity="0.4"/>
</svg>
