<svg width="16" height="16" viewBox="0 0 16 16" fill="none" xmlns="http://www.w3.org/2000/svg">
<path d="M4.79961 3.3998C4.79961 3.24067 4.86282 3.08806 4.97535 2.97554C5.08787 2.86302 5.24048 2.7998 5.39961 2.7998H13.7996C13.9587 2.7998 14.1114 2.86302 14.2239 2.97554C14.3364 3.08806 14.3996 3.24067 14.3996 3.3998C14.3996 3.55893 14.3364 3.71155 14.2239 3.82407C14.1114 3.93659 13.9587 3.9998 13.7996 3.9998H5.39961C5.24048 3.9998 5.08787 3.93659 4.97535 3.82407C4.86282 3.71155 4.79961 3.55893 4.79961 3.3998ZM1.59961 7.3998C1.59961 7.24067 1.66282 7.08806 1.77535 6.97554C1.88787 6.86302 2.04048 6.7998 2.19961 6.7998H13.7996C13.9587 6.7998 14.1114 6.86302 14.2239 6.97554C14.3364 7.08806 14.3996 7.24067 14.3996 7.3998C14.3996 7.55893 14.3364 7.71155 14.2239 7.82407C14.1114 7.93659 13.9587 7.9998 13.7996 7.9998H2.19961C2.04048 7.9998 1.88787 7.93659 1.77535 7.82407C1.66282 7.71155 1.59961 7.55893 1.59961 7.3998ZM7.79961 10.7998C7.64048 10.7998 7.48787 10.863 7.37535 10.9755C7.26282 11.0881 7.19961 11.2407 7.19961 11.3998C7.19961 11.5589 7.26282 11.7115 7.37535 11.8241C7.48787 11.9366 7.64048 11.9998 7.79961 11.9998H13.7996C13.9587 11.9998 14.1114 11.9366 14.2239 11.8241C14.3364 11.7115 14.3996 11.5589 14.3996 11.3998C14.3996 11.2407 14.3364 11.0881 14.2239 10.9755C14.1114 10.863 13.9587 10.7998 13.7996 10.7998H7.79961Z" fill="#202020" fill-opacity="0.4"/>
</svg>
