<svg width="12" height="17" viewBox="0 0 12 17" fill="none" xmlns="http://www.w3.org/2000/svg">
<path d="M0.575 0C0.422501 0 0.276247 0.0526784 0.168414 0.146447C0.0605803 0.240215 0 0.367392 0 0.5V9.004C0 9.53443 0.242321 10.0431 0.673654 10.4182C1.10499 10.7933 1.69 11.004 2.3 11.004H3.4546V14.002C3.4546 14.5324 3.69692 15.0411 4.12825 15.4162C4.55959 15.7913 5.1446 16.002 5.7546 16.002C6.3646 16.002 6.94961 15.7913 7.38095 15.4162C7.81228 15.0411 8.0546 14.5324 8.0546 14.002V11.004H9.2C9.81 11.004 10.395 10.7933 10.8263 10.4182C11.2577 10.0431 11.5 9.53443 11.5 9.004V0.501C11.5 0.368392 11.4394 0.241215 11.3316 0.147447C11.2238 0.0536786 11.0775 0.00100005 10.925 0.00100005H0.575V0ZM1.15 8.004H10.35V9.004C10.35 9.26922 10.2288 9.52357 10.0132 9.71111C9.79751 9.89864 9.505 10.004 9.2 10.004H7.4796C7.3271 10.004 7.18085 10.0567 7.07301 10.1504C6.96518 10.2442 6.9046 10.3714 6.9046 10.504V14.002C6.9046 14.2672 6.78344 14.5216 6.56777 14.7091C6.35211 14.8966 6.0596 15.002 5.7546 15.002C5.4496 15.002 5.15709 14.8966 4.94143 14.7091C4.72576 14.5216 4.6046 14.2672 4.6046 14.002V10.504C4.6046 10.3714 4.54402 10.2442 4.43619 10.1504C4.32835 10.0567 4.1821 10.004 4.0296 10.004H2.3C1.995 10.004 1.70249 9.89864 1.48683 9.71111C1.27116 9.52357 1.15 9.26922 1.15 9.004V8.004ZM10.35 7.004H1.15V1.001H5.75V2.501C5.75 2.63361 5.81058 2.76079 5.91841 2.85455C6.02625 2.94832 6.1725 3.001 6.325 3.001C6.4775 3.001 6.62375 2.94832 6.73159 2.85455C6.83942 2.76079 6.9 2.63361 6.9 2.501V1.001H8.05V3.503C8.05 3.63561 8.11058 3.76279 8.21841 3.85655C8.32625 3.95032 8.4725 4.003 8.625 4.003C8.7775 4.003 8.92375 3.95032 9.03159 3.85655C9.13942 3.76279 9.2 3.63561 9.2 3.503V1.001H10.35V7.005V7.004Z" fill="#202020" fill-opacity="0.6"/>
</svg>
