<svg width="16" height="16" viewBox="0 0 16 16" fill="none" xmlns="http://www.w3.org/2000/svg">
<path d="M11.5 13C12.0523 13 12.5 12.5523 12.5 12C12.5 11.4477 12.0523 11 11.5 11C10.9477 11 10.5 11.4477 10.5 12C10.5 12.5523 10.9477 13 11.5 13Z" fill="#A6A6A6"/>
<path d="M15.3885 11.7391C15.0796 10.9521 14.5465 10.273 13.8552 9.78601C13.164 9.29904 12.3451 9.02562 11.5 8.99963C10.6549 9.02562 9.83597 9.29904 9.14476 9.78601C8.45355 10.273 7.92044 10.9521 7.6115 11.7391L7.5 11.9996L7.6115 12.2601C7.92044 13.0472 8.45355 13.7263 9.14476 14.2132C9.83597 14.7002 10.6549 14.9736 11.5 14.9996C12.3451 14.9736 13.164 14.7002 13.8552 14.2132C14.5465 13.7263 15.0796 13.0472 15.3885 12.2601L15.5 11.9996L15.3885 11.7391ZM11.5 13.9996C11.1044 13.9996 10.7178 13.8823 10.3889 13.6626C10.06 13.4428 9.80362 13.1304 9.65224 12.765C9.50087 12.3995 9.46126 11.9974 9.53843 11.6094C9.6156 11.2215 9.80608 10.8651 10.0858 10.5854C10.3655 10.3057 10.7219 10.1152 11.1098 10.0381C11.4978 9.96088 11.8999 10.0005 12.2654 10.1519C12.6308 10.3032 12.9432 10.5596 13.1629 10.8885C13.3827 11.2174 13.5 11.6041 13.5 11.9996C13.4993 12.5299 13.2884 13.0382 12.9135 13.4131C12.5386 13.788 12.0302 13.999 11.5 13.9996ZM6.1995 10.3996C5.7905 10.0927 5.46673 9.68642 5.25892 9.21922C5.05112 8.75202 4.96617 8.23947 5.01216 7.73021C5.05814 7.22095 5.23353 6.7319 5.52166 6.30949C5.8098 5.88707 6.20112 5.54532 6.65847 5.31666C7.11583 5.08801 7.62403 4.98005 8.13485 5.00303C8.64566 5.02602 9.14212 5.17918 9.57709 5.44798C10.0121 5.71679 10.3711 6.0923 10.6201 6.53889C10.8692 6.98547 10.9999 7.4883 11 7.99963H10C10 7.65871 9.91286 7.32346 9.74684 7.0257C9.58083 6.72794 9.34146 6.47755 9.05146 6.29832C8.76146 6.1191 8.43047 6.01697 8.0899 6.00165C7.74933 5.98632 7.4105 6.05831 7.10557 6.21077C6.80065 6.36323 6.53976 6.59111 6.34768 6.87276C6.1556 7.1544 6.0387 7.48048 6.00808 7.82001C5.97747 8.15955 6.03415 8.50128 6.17275 8.81274C6.31135 9.12421 6.52727 9.39508 6.8 9.59963L6.1995 10.3996Z" fill="#A6A6A6"/>
<path d="M14.6526 5.522L13.4726 3.478C13.3571 3.2775 13.1757 3.12328 12.9592 3.04167C12.7427 2.96005 12.5046 2.95611 12.2856 3.0305L11.0686 3.4425C10.8589 3.3013 10.6397 3.17466 10.4126 3.0635L10.1606 1.8035C10.1152 1.5769 9.99267 1.37302 9.81392 1.22653C9.63516 1.08005 9.41119 1 9.18008 1H6.82008C6.5889 1.00002 6.36487 1.08014 6.18611 1.22673C6.00735 1.37331 5.88489 1.57731 5.83958 1.804L5.58758 3.063C5.35793 3.17311 5.13623 3.29908 4.92408 3.44L3.71408 3.0305C3.49515 2.95637 3.25728 2.96045 3.04102 3.04205C2.82475 3.12365 2.64348 3.27772 2.52808 3.478L1.34808 5.522C1.23249 5.72215 1.18979 5.95615 1.22726 6.18423C1.26472 6.4123 1.38003 6.62035 1.55358 6.773L2.51908 7.6215C2.51058 7.7475 2.50008 7.8725 2.50008 8C2.50008 8.129 2.50508 8.2565 2.51408 8.383L1.55408 9.227C1.38037 9.37952 1.26487 9.58751 1.22722 9.81559C1.18957 10.0437 1.2321 10.2777 1.34758 10.478L2.52758 12.522C2.64301 12.7225 2.82446 12.8767 3.04094 12.9583C3.25742 13.0399 3.49552 13.0439 3.71458 12.9695L4.93158 12.5575C5.14124 12.699 5.36043 12.8258 5.58758 12.937L5.83908 14.196C5.88441 14.4228 6.00694 14.6268 6.1858 14.7734C6.36467 14.92 6.58882 15.0001 6.82008 15H7.50008V14H6.82008L6.46508 12.225C5.974 12.0426 5.51812 11.7767 5.11758 11.439L3.39408 12.022L2.21408 9.978L3.57658 8.7805C3.48337 8.26344 3.48218 7.73397 3.57308 7.2165L2.21408 6.0215L3.39408 3.978L5.10758 4.558C5.51098 4.21987 5.9704 3.95487 6.46508 3.775L6.82008 2H9.18008L9.53508 3.775C10.0262 3.95745 10.482 4.22336 10.8826 4.561L12.6061 3.978L13.7861 6.022L12.3871 7.248L13.0461 8L14.4461 6.773C14.6198 6.62048 14.7353 6.41249 14.7729 6.18441C14.8106 5.95633 14.7681 5.72225 14.6526 5.522Z" fill="#A6A6A6"/>
</svg>
