<svg width="16" height="16" viewBox="0 0 16 16" fill="none" xmlns="http://www.w3.org/2000/svg">
<path d="M3.19961 3.3998C3.19961 3.24067 3.26282 3.08806 3.37535 2.97554C3.48787 2.86302 3.64048 2.7998 3.79961 2.7998H12.1996C12.3587 2.7998 12.5114 2.86302 12.6239 2.97554C12.7364 3.08806 12.7996 3.24067 12.7996 3.3998C12.7996 3.55893 12.7364 3.71155 12.6239 3.82407C12.5114 3.93659 12.3587 3.9998 12.1996 3.9998H3.79961C3.64048 3.9998 3.48787 3.93659 3.37535 3.82407C3.26282 3.71155 3.19961 3.55893 3.19961 3.3998ZM1.59961 7.3998C1.59961 7.24067 1.66282 7.08806 1.77535 6.97554C1.88787 6.86302 2.04048 6.7998 2.19961 6.7998H13.7996C13.9587 6.7998 14.1114 6.86302 14.2239 6.97554C14.3364 7.08806 14.3996 7.24067 14.3996 7.3998C14.3996 7.55893 14.3364 7.71155 14.2239 7.82407C14.1114 7.93659 13.9587 7.9998 13.7996 7.9998H2.19961C2.04048 7.9998 1.88787 7.93659 1.77535 7.82407C1.66282 7.71155 1.59961 7.55893 1.59961 7.3998ZM5.39961 10.7998C5.24048 10.7998 5.08787 10.863 4.97535 10.9755C4.86282 11.0881 4.79961 11.2407 4.79961 11.3998C4.79961 11.5589 4.86282 11.7115 4.97535 11.8241C5.08787 11.9366 5.24048 11.9998 5.39961 11.9998H10.5996C10.7587 11.9998 10.9114 11.9366 11.0239 11.8241C11.1364 11.7115 11.1996 11.5589 11.1996 11.3998C11.1996 11.2407 11.1364 11.0881 11.0239 10.9755C10.9114 10.863 10.7587 10.7998 10.5996 10.7998H5.39961Z" fill="#202020"/>
</svg>
