<svg width="18" height="18" viewBox="0 0 18 18" fill="none" xmlns="http://www.w3.org/2000/svg">
<path d="M15.0723 12.4538V5.5463C15.4577 5.44864 15.8103 5.25062 16.0943 4.97239C16.3783 4.69417 16.5835 4.34567 16.689 3.96237C16.7945 3.57907 16.7965 3.17465 16.6949 2.7903C16.5934 2.40594 16.3917 2.05536 16.1106 1.77424C15.8295 1.49313 15.4789 1.29152 15.0946 1.18993C14.7102 1.08834 14.3058 1.09041 13.9225 1.19592C13.5392 1.30143 13.1907 1.50661 12.9125 1.79058C12.6343 2.07455 12.4362 2.42717 12.3386 2.81255H5.43108C5.33342 2.42717 5.1354 2.07455 4.85718 1.79058C4.57895 1.50661 4.23045 1.30143 3.84715 1.19592C3.46385 1.09041 3.05943 1.08834 2.67508 1.18993C2.29072 1.29152 1.94014 1.49313 1.65903 1.77424C1.37791 2.05536 1.1763 2.40594 1.07471 2.7903C0.973125 3.17465 0.975191 3.57907 1.0807 3.96237C1.18621 4.34567 1.39139 4.69417 1.67536 4.97239C1.95933 5.25062 2.31195 5.44864 2.69733 5.5463V12.4538C2.31195 12.5515 1.95933 12.7495 1.67536 13.0277C1.39139 13.3059 1.18621 13.6544 1.0807 14.0377C0.975191 14.421 0.973125 14.8254 1.07471 15.2098C1.1763 15.5942 1.37791 15.9447 1.65903 16.2259C1.94014 16.507 2.29072 16.7086 2.67508 16.8102C3.05943 16.9118 3.46385 16.9097 3.84715 16.8042C4.23045 16.6987 4.57895 16.4935 4.85718 16.2095C5.1354 15.9255 5.33342 15.5729 5.43108 15.1875H12.3386C12.4362 15.5729 12.6343 15.9255 12.9125 16.2095C13.1907 16.4935 13.5392 16.6987 13.9225 16.8042C14.3058 16.9097 14.7102 16.9118 15.0946 16.8102C15.4789 16.7086 15.8295 16.507 16.1106 16.2259C16.3917 15.9447 16.5934 15.5942 16.6949 15.2098C16.7965 14.8254 16.7945 14.421 16.689 14.0377C16.5835 13.6544 16.3783 13.3059 16.0943 13.0277C15.8103 12.7495 15.4577 12.5515 15.0723 12.4538ZM14.5098 2.25005C14.7323 2.25005 14.9498 2.31603 15.1348 2.43964C15.3199 2.56326 15.464 2.73896 15.5492 2.94453C15.6343 3.1501 15.6566 3.3763 15.6132 3.59452C15.5698 3.81275 15.4627 4.01321 15.3053 4.17054C15.148 4.32788 14.9475 4.43502 14.7293 4.47843C14.5111 4.52184 14.2849 4.49956 14.0793 4.41441C13.8737 4.32926 13.698 4.18507 13.5744 4.00006C13.4508 3.81506 13.3848 3.59755 13.3848 3.37505C13.3848 3.07668 13.5034 2.79053 13.7143 2.57955C13.9253 2.36857 14.2115 2.25005 14.5098 2.25005ZM2.13483 3.37505C2.13483 3.15254 2.20081 2.93504 2.32443 2.75003C2.44804 2.56503 2.62374 2.42083 2.82931 2.33568C3.03488 2.25053 3.26108 2.22826 3.47931 2.27166C3.69753 2.31507 3.89799 2.42222 4.05532 2.57955C4.21266 2.73689 4.3198 2.93734 4.36321 3.15557C4.40662 3.3738 4.38434 3.6 4.29919 3.80557C4.21404 4.01113 4.06985 4.18683 3.88485 4.31045C3.69984 4.43407 3.48233 4.50005 3.25983 4.50005C2.96146 4.50005 2.67531 4.38152 2.46433 4.17054C2.25336 3.95956 2.13483 3.67342 2.13483 3.37505ZM3.25983 15.75C3.03732 15.75 2.81982 15.6841 2.63481 15.5605C2.44981 15.4368 2.30561 15.2611 2.22046 15.0556C2.13532 14.85 2.11304 14.6238 2.15645 14.4056C2.19985 14.1873 2.307 13.9869 2.46433 13.8296C2.62167 13.6722 2.82212 13.5651 3.04035 13.5217C3.25858 13.4783 3.48478 13.5005 3.69035 13.5857C3.89591 13.6708 4.07162 13.815 4.19523 14C4.31885 14.185 4.38483 14.4025 4.38483 14.625C4.38483 14.9234 4.2663 15.2096 4.05532 15.4205C3.84435 15.6315 3.5582 15.75 3.25983 15.75ZM12.3386 14.0625H5.43108C5.33008 13.6756 5.12778 13.3226 4.84502 13.0399C4.56226 12.7571 4.20925 12.5548 3.82233 12.4538V5.5463C4.20925 5.4453 4.56226 5.243 4.84502 4.96024C5.12778 4.67748 5.33008 4.32447 5.43108 3.93755H12.3386C12.4396 4.32447 12.6419 4.67748 12.9246 4.96024C13.2074 5.243 13.5604 5.4453 13.9473 5.5463V12.4538C13.5604 12.5548 13.2074 12.7571 12.9246 13.0399C12.6419 13.3226 12.4396 13.6756 12.3386 14.0625ZM14.5098 15.75C14.2873 15.75 14.0698 15.6841 13.8848 15.5605C13.6998 15.4368 13.5556 15.2611 13.4705 15.0556C13.3853 14.85 13.363 14.6238 13.4064 14.4056C13.4499 14.1873 13.557 13.9869 13.7143 13.8296C13.8717 13.6722 14.0721 13.5651 14.2904 13.5217C14.5086 13.4783 14.7348 13.5005 14.9403 13.5857C15.1459 13.6708 15.3216 13.815 15.4452 14C15.5688 14.185 15.6348 14.4025 15.6348 14.625C15.6348 14.9234 15.5163 15.2096 15.3053 15.4205C15.0943 15.6315 14.8082 15.75 14.5098 15.75Z" fill="#797979"/>
<path d="M11.8125 6.1875H6.1875V7.3125H8.4375V12.375H9.5625V7.3125H11.8125V6.1875Z" fill="#797979"/>
</svg>
