<svg width="20" height="20" viewBox="0 0 20 20" fill="none" xmlns="http://www.w3.org/2000/svg">
<path d="M14.765 15.8607H14.7651C14.7908 15.8607 14.8162 15.8657 14.84 15.8756C14.8637 15.8854 14.8853 15.8998 14.9035 15.9179C14.9217 15.9361 14.9361 15.9577 14.9459 15.9814C14.9558 16.0052 14.9608 16.0306 14.9608 16.0563V17.6643H14.9598V17.8143V18.3039C14.9598 18.3559 14.9392 18.4057 14.9024 18.4425C14.8657 18.4792 14.8158 18.4999 14.7638 18.4999H3.34602C3.23766 18.4999 3.15002 18.4123 3.15002 18.3039V6.60223L8.25195 1.5001H14.764C14.816 1.5001 14.8659 1.52075 14.9026 1.5575L15.0084 1.45168L14.9026 1.55751C14.9394 1.59426 14.96 1.64411 14.96 1.6961V2.4999V2.6499H14.961V5.77066L14.9594 5.80179C14.9541 5.90598 14.8688 5.9877 14.765 5.9877L13.4673 5.9877C13.4672 5.9877 13.4671 5.9877 13.4671 5.9877C13.4171 5.98756 13.3691 5.96826 13.3329 5.93377C13.2967 5.89923 13.2751 5.8521 13.2726 5.80211L13.2696 5.74087V3.3415V3.1915H13.1196H8.88202H8.73202V3.3415V6.8861C8.73202 6.93808 8.71137 6.98793 8.67461 7.02469C8.63785 7.06145 8.588 7.0821 8.53602 7.0821H4.99142H4.84142V7.2321V16.6587V16.8087H4.99142H13.1196H13.2696V16.6587V16.2067H13.271V16.0567C13.271 16.0047 13.2917 15.9549 13.3284 15.9181L13.2224 15.812L13.3284 15.9181C13.3652 15.8813 13.415 15.8607 13.467 15.8607H14.765ZM15.11 1.6961C15.11 1.60433 15.0736 1.51633 15.0087 1.45144L15.11 2.4999V2.3499V1.6961Z" fill="#797979" stroke="white" stroke-width="0.3"/>
<path d="M18.22 7.84326L18.2201 7.84327C18.2475 7.87074 18.2693 7.90336 18.2842 7.93926C18.2991 7.97516 18.3068 8.01364 18.3068 8.05251C18.3068 8.09137 18.2991 8.12985 18.2842 8.16575C18.2693 8.20165 18.2475 8.23427 18.2201 8.26174L18.22 8.26175L11.8657 14.6161L8.66265 15.4744L8.5364 15.5082L8.53738 15.5087C8.51583 15.5059 8.49556 15.5026 8.47826 15.4996L8.46964 15.5489L8.47826 15.4996C8.41867 15.4892 8.36373 15.4607 8.32092 15.4179C8.28234 15.3792 8.25532 15.3304 8.24289 15.2772C8.23037 15.2235 8.23261 15.1676 8.24998 15.1161L8.25007 15.1161L8.25089 15.113L9.10379 11.9302L9.1242 11.872L15.4772 5.51906L15.4772 5.51906C15.5046 5.49156 15.5373 5.46975 15.5732 5.45487C15.6091 5.43998 15.6476 5.43232 15.6865 5.43232C15.7254 5.43232 15.7639 5.43998 15.7998 5.45487C15.8357 5.46975 15.8683 5.49156 15.8958 5.51906L15.8958 5.51906L18.22 7.84326ZM9.2127 14.4576L9.19028 14.5412L9.27394 14.5188L11.2025 14.002L11.2862 13.9796L11.2249 13.9183L9.81315 12.5066L9.75191 12.4453L9.7295 12.529L9.2127 14.4576Z" fill="#797979" stroke="white" stroke-width="0.1"/>
</svg>
