<svg width="current" height="current" viewBox="0 0 18 18" fill="none" xmlns="http://www.w3.org/2000/svg">
<path d="M7.21401 3.28573H10.7854C10.7854 2.81213 10.5973 2.35793 10.2624 2.02304C9.92753 1.68815 9.47332 1.50002 8.99972 1.50002C8.52612 1.50002 8.07192 1.68815 7.73703 2.02304C7.40214 2.35793 7.21401 2.81213 7.21401 3.28573ZM6.14258 3.28573C6.14258 2.52797 6.4436 1.80124 6.97942 1.26543C7.51523 0.729608 8.24196 0.428589 8.99972 0.428589C9.75748 0.428589 10.4842 0.729608 11.02 1.26543C11.5558 1.80124 11.8569 2.52797 11.8569 3.28573H16.3211C16.4632 3.28573 16.5995 3.34217 16.7 3.44264C16.8004 3.5431 16.8569 3.67937 16.8569 3.82145C16.8569 3.96353 16.8004 4.09979 16.7 4.20025C16.5995 4.30072 16.4632 4.35716 16.3211 4.35716H15.3854L14.5161 14.7879C14.4529 15.5467 14.1068 16.254 13.5465 16.7696C12.9862 17.2852 12.2526 17.5714 11.4912 17.5714H6.50829C5.74686 17.5714 5.01325 17.2852 4.45294 16.7696C3.89263 16.254 3.54654 15.5467 3.48329 14.7879L2.61401 4.35716H1.67829C1.53621 4.35716 1.39995 4.30072 1.29949 4.20025C1.19902 4.09979 1.14258 3.96353 1.14258 3.82145C1.14258 3.67937 1.19902 3.5431 1.29949 3.44264C1.39995 3.34217 1.53621 3.28573 1.67829 3.28573H6.14258ZM4.55115 14.6986C4.592 15.1896 4.81588 15.6473 5.1784 15.981C5.54091 16.3147 6.01559 16.4999 6.50829 16.5H11.4912C11.9839 16.4999 12.4585 16.3147 12.821 15.981C13.1836 15.6473 13.4074 15.1896 13.4483 14.6986L14.3112 4.35716H3.68901L4.55115 14.6986ZM7.39258 6.85716C7.53466 6.85716 7.67092 6.9136 7.77139 7.01407C7.87185 7.11453 7.92829 7.25079 7.92829 7.39287V13.4643C7.92829 13.6064 7.87185 13.7426 7.77139 13.8431C7.67092 13.9436 7.53466 14 7.39258 14C7.2505 14 7.11424 13.9436 7.01377 13.8431C6.91331 13.7426 6.85686 13.6064 6.85686 13.4643V7.39287C6.85686 7.25079 6.91331 7.11453 7.01377 7.01407C7.11424 6.9136 7.2505 6.85716 7.39258 6.85716ZM11.1426 7.39287C11.1426 7.25079 11.0861 7.11453 10.9857 7.01407C10.8852 6.9136 10.7489 6.85716 10.6069 6.85716C10.4648 6.85716 10.3285 6.9136 10.2281 7.01407C10.1276 7.11453 10.0711 7.25079 10.0711 7.39287V13.4643C10.0711 13.6064 10.1276 13.7426 10.2281 13.8431C10.3285 13.9436 10.4648 14 10.6069 14C10.7489 14 10.8852 13.9436 10.9857 13.8431C11.0861 13.7426 11.1426 13.6064 11.1426 13.4643V7.39287Z" fill="#797979" stroke="#797979" stroke-width="0.5"/>
</svg>
