<svg width="13" height="14" viewBox="0 0 13 14" fill="none" xmlns="http://www.w3.org/2000/svg">
<path d="M6.56524 13.5668H1.33333C1.00623 13.5668 0.69253 13.4369 0.461235 13.2056C0.229949 12.9743 0.10001 12.6606 0.1 12.3335C0.1 12.3335 0.1 12.3335 0.1 12.3335L0.106667 3.00023V3.00016C0.106667 2.32108 0.64954 1.76683 1.33333 1.76683H2H2.1V1.66683V0.433496H3.23333V1.66683V1.76683H3.33333H8.66667H8.76667V1.66683V0.433496H9.9V1.66683V1.76683H10H10.6667C11.3448 1.76683 11.9 2.32206 11.9 3.00016V7.21207L10.7667 8.34541V5.66683V5.56683H10.6667H1.33333H1.23333V5.66683V12.3335V12.4335H1.33333H5.43191L6.56524 13.5668ZM1.33333 2.90016H1.23333V3.00016V4.3335V4.4335H1.33333H10.6667H10.7667V4.3335V3.00016V2.90016H10.6667H1.33333ZM9.09071 12.1842L11.8467 9.42825L12.6454 10.227L9.02654 13.8586L6.80809 11.6402L7.60667 10.8416L8.94929 12.1842L9.02 12.2549L9.09071 12.1842ZM4.86929 8.26279L4.79858 8.3335L4.86929 8.40421L5.85858 9.3935L5.06 10.1921L4.07071 9.20279L4 9.13208L3.92929 9.20279L2.94 10.1921L2.14142 9.3935L3.13071 8.40421L3.20142 8.3335L3.13071 8.26279L2.14142 7.2735L2.94 6.47492L3.92929 7.46421L4 7.53492L4.07071 7.46421L5.06 6.47492L5.85858 7.2735L4.86929 8.26279Z" fill="#202020" stroke="white" stroke-width="0.2"/>
</svg>
