<svg width="13" height="14" viewBox="0 0 13 14" fill="none" xmlns="http://www.w3.org/2000/svg">
<path d="M0.85332 7.8877L7.41582 0.912654C8.50957 -0.296354 10.3033 -0.296354 11.4408 0.866153C12.5783 2.02866 12.5783 3.98167 11.4408 5.14418L11.3971 5.19068L10.1721 6.53919L9.55957 5.88819L10.8283 4.53968C11.5721 3.74917 11.5721 2.40066 10.8283 1.61016C10.0846 0.819653 8.81582 0.773153 8.07207 1.56366L8.02832 1.61016L1.50957 8.5387C0.722071 9.32921 0.722071 10.6777 1.46582 11.4682C2.20957 12.3052 3.47832 12.3052 4.22207 11.5147L4.26582 11.4682L7.50332 8.0272C7.94082 7.5622 7.89707 6.81819 7.50332 6.39969C7.06582 5.98119 6.40957 5.98119 5.97207 6.39969L4.17832 8.3062L3.56582 7.6552L5.40332 5.70218C6.19082 4.91168 7.41582 4.95818 8.15957 5.79518C8.85957 6.58569 8.85957 7.8412 8.15957 8.6782L4.87832 12.1657C3.78457 13.3747 1.99082 13.3747 0.85332 12.2122C-0.28418 11.0497 -0.28418 9.0967 0.85332 7.8877C0.85332 7.8877 0.85332 7.9342 0.85332 7.8877Z" fill="#0184FF"/>
</svg>
