<svg xmlns="http://www.w3.org/2000/svg" width="20.33" height="17.106" viewBox="0 0 20.33 17.106">
  <g id="Icon_feather-users" data-name="Icon feather-users" transform="translate(-0.5 -3.392)">
    <path id="Path_435" data-name="Path 435" d="M14.831,27.5V25.833A3.333,3.333,0,0,0,11.5,22.5H4.833A3.333,3.333,0,0,0,1.5,25.833V27.5" transform="translate(0 -8.002)" fill="none" stroke="#565656" stroke-linecap="round" stroke-linejoin="round" stroke-width="2"/>
    <path id="Path_436" data-name="Path 436" d="M14.165,7.833A3.333,3.333,0,1,1,10.833,4.5,3.333,3.333,0,0,1,14.165,7.833Z" transform="translate(-2.667)" fill="none" stroke="#565656" stroke-linecap="round" stroke-linejoin="round" stroke-width="2"/>
    <path id="Path_437" data-name="Path 437" d="M32.5,27.586V25.919A3.333,3.333,0,0,0,30,22.7" transform="translate(-12.669 -8.088)" fill="none" stroke="#565656" stroke-linecap="round" stroke-linejoin="round" stroke-width="2"/>
    <path id="Path_438" data-name="Path 438" d="M24,4.7a3.333,3.333,0,0,1,0,6.457" transform="translate(-10.002 -0.087)" fill="none" stroke="#565656" stroke-linecap="round" stroke-linejoin="round" stroke-width="2"/>
  </g>
</svg>
