<svg width="14" height="14" viewBox="0 0 14 14" fill="none" xmlns="http://www.w3.org/2000/svg">
<path d="M6.99993 13.6667C5.68082 13.6674 4.39113 13.2769 3.29408 12.5444C2.19703 11.8119 1.34194 10.7704 0.837038 9.55175C0.332131 8.33309 0.200102 6.99204 0.457661 5.69832C0.71522 4.4046 1.35079 3.21636 2.28393 2.284C3.53469 1.03324 5.23108 0.330566 6.99993 0.330566C8.76877 0.330566 10.4652 1.03324 11.7159 2.284C12.9667 3.53476 13.6694 5.23115 13.6694 7C13.6694 8.76884 12.9667 10.4652 11.7159 11.716C11.0979 12.3368 10.3628 12.8289 9.55333 13.1637C8.74382 13.4986 7.87594 13.6695 6.99993 13.6667ZM1.66659 7.11466C1.68175 8.5241 2.25423 9.87024 3.25891 10.8588C4.2636 11.8475 5.61878 12.3982 7.02829 12.3906C8.43779 12.383 9.78698 11.8178 10.781 10.8184C11.775 9.81906 12.333 8.46685 12.333 7.05733C12.333 5.64781 11.775 4.2956 10.781 3.29624C9.78698 2.29689 8.43779 1.73165 7.02829 1.72407C5.61878 1.7165 4.2636 2.2672 3.25891 3.25581C2.25423 4.24443 1.68175 5.59056 1.66659 7V7.11466ZM5.27259 9.66666L4.33259 8.72666L6.05993 7L4.33326 5.27333L5.27326 4.33333L6.99993 6.06L8.72659 4.33333L9.66659 5.27333L7.93993 7L9.66659 8.72666L8.72793 9.66666L6.99993 7.94L5.27326 9.66666H5.27259Z" fill="#7C849F"/>
</svg>
