<svg width="69" height="55" viewBox="0 0 69 55" fill="none" xmlns="http://www.w3.org/2000/svg">
<path d="M38.9479 17.3258C38.9479 15.349 37.2598 15.1079 35.6674 15.1079L30.9859 15.0718V23.4249H32.9495V20.3994H35.1046C37.3077 20.3994 36.8407 21.641 36.8766 23.4249H38.8641V21.7977C38.8641 20.6887 38.6845 19.9776 37.5471 19.5798C38.4331 19.2182 38.9599 18.2901 38.9479 17.3258V17.3258ZM35.4279 18.6878H32.9495V16.8436H35.4638C36.0744 16.8436 36.7449 16.9642 36.7449 17.7356C36.7449 18.5311 36.1104 18.6878 35.4279 18.6878V18.6878ZM33.4284 29.4758H27.1187L24.6044 32.224L22.1499 29.4758H14.1879L14.1759 37.8289H22.0062L24.5565 35.0566L26.999 37.8289H30.8542L30.8662 35.0204C33.1291 35.0204 36.7689 35.5749 36.7689 32.2119C36.7689 30.1267 35.2962 29.4758 33.4284 29.4758V29.4758ZM21.0005 36.0691H16.1395V34.4057H20.4857V32.7061H16.1395V31.1994H21.1322L23.2754 33.6343L21.0005 36.0691ZM28.8787 37.0575L25.8496 33.6704L28.8787 30.3677V37.0575ZM33.4045 33.3209H30.8662V31.1994H33.4404C34.1109 31.1994 34.6616 31.4767 34.6616 32.2119C34.6616 32.9834 34.1109 33.3209 33.4045 33.3209V33.3209ZM29.621 16.8436V15.0838H22.9761V23.4369H29.621V21.7133H24.9636V20.0499H29.4893V18.3503H24.9636V16.8436H29.621ZM68.988 27.8847H68.9641H68.988ZM45.6887 31.7298C45.6887 29.753 44.0005 29.4758 42.444 29.4758H37.7267L37.7147 37.8289H39.7022L39.7142 34.7794H41.8215C43.1385 34.7794 43.5934 35.0204 43.5934 36.4427L43.5815 37.8289H45.569L45.5809 36.1655C45.5809 35.0927 45.3654 34.3454 44.2639 33.9477C45.1858 33.574 45.6767 32.6459 45.6887 31.7298V31.7298ZM42.1926 33.0798H39.7142V31.1994H42.2285C42.8391 31.1994 43.5096 31.32 43.5096 32.0914C43.5096 32.9231 42.8631 33.0798 42.1926 33.0798V33.0798ZM21.5034 23.4369V15.0838H18.1989L15.8402 20.749L13.2421 15.0838H9.9974V23.003L6.633 15.0838H3.69964L0.143675 23.4369H2.28683L3.0531 21.5927H7.18376L7.95003 23.4369H11.9969V16.9039L14.8704 23.4369H16.6184L19.4919 16.9039V23.4369H21.5034ZM3.7595 19.857L5.10047 16.5302L6.47736 19.857H3.7595ZM60.9183 39.0102V38.4677C59.6252 39.1427 60.4513 39.0102 42.1567 39.0102C42.1567 35.9727 42.1687 36.1294 42.1567 35.9727C41.9532 35.9606 41.7736 35.9606 41.0312 35.9606C41.0312 38.1182 41.0193 36.7802 41.0193 39.0102H36.278C36.278 37.5517 36.29 37.166 36.29 35.4905C35.0927 36.2137 33.5601 36.2619 32.1832 36.2378C32.1832 38.0097 32.1713 37.2383 32.1713 39.0102H26.3165C25.7059 38.3231 25.9932 38.6365 24.4727 36.9128C24.0895 37.3347 22.9401 38.5883 22.545 39.0102H12.7272V27.8847H22.6767C23.2754 28.5597 23.012 28.2584 24.5325 29.9579C24.9157 29.5361 25.9932 28.3427 26.4123 27.8847H33.3566C34.5299 27.8847 35.5117 28.1137 36.266 28.5597V27.8847C42.7673 27.8847 43.9646 27.716 45.3295 28.4994V27.8847H54.6924V28.5115C56.0573 27.6798 57.039 27.8847 62.4628 27.8847V28.4874C63.696 27.7762 64.4503 27.8606 68.9641 27.8847V6.74275C68.9641 3.54855 66.3899 0.957031 63.2171 0.957031H5.74701C2.57418 0.957031 0 3.54855 0 6.74275V19.9776C1.12546 17.3378 2.35867 14.4329 2.76575 13.4807H7.519C8.03384 14.6981 7.71057 13.9267 8.59656 16.024V13.4807H14.1041C14.4513 14.228 15.4331 16.3735 15.7683 17.0968C16.4628 15.4575 16.9776 14.216 17.2769 13.4807H29.6091C29.6091 13.4686 30.9859 13.4807 30.9979 13.4807C36.2301 13.5048 37.4154 13.3843 38.7085 14.1195V13.4807H43.4857V14.6017C44.3956 13.8664 45.6288 13.4807 47.1614 13.4807H50.4659C50.4659 13.541 50.6934 13.5169 50.7413 13.5169H54.6205C55.1234 14.6981 54.9318 14.2401 55.6741 15.9999V13.5169H60.8584C61.4451 14.4811 60.7387 13.2999 62.1994 15.7347V13.5169H66.9766V24.6061H61.9958C61.3493 23.5213 61.8282 24.341 60.4154 21.9664V24.6061H54.0937C53.3274 22.8222 54.0817 24.57 53.3035 22.7619H51.0286C50.5258 23.9673 50.7652 23.3887 50.2624 24.6061H47.0536C45.5809 24.6061 44.3837 24.2445 43.4977 23.5334V24.6061H35.5357C35.4997 22.9307 35.5237 21.6169 35.5237 21.6169C35.3082 21.5807 35.1166 21.5927 34.3503 21.5927V24.6182H18.127V23.2441C17.8277 23.9191 17.8037 23.9552 17.5164 24.6182H13.9844C13.5055 23.5454 13.6372 23.8468 13.3738 23.2441V24.6182H7.04008C6.53722 23.4008 6.77668 23.9794 6.27382 22.774H3.97501C3.47215 23.9794 3.71161 23.4008 3.20875 24.6182H0.0239459V49.1713C0.0239459 52.3655 2.59813 54.957 5.77095 54.957H63.253C66.4258 54.957 69 52.3655 69 49.1713V38.2749C67.4794 39.2753 65.0849 39.0102 60.9183 39.0102V39.0102ZM65.2645 31.2356H68.8683V29.4758H64.9292C63.3967 29.4758 62.0796 30.2713 62.0796 31.9709C62.0796 35.9485 67.1921 33.5137 67.1921 35.2736C67.1921 35.8883 66.6773 36.045 66.1864 36.045H62.355L62.3431 37.8289H66.1744C67.1801 37.8289 68.2816 37.6119 68.8683 36.7561V33.6463C67.6111 31.9829 64.1629 33.4896 64.1629 32.0191C64.1629 31.32 64.7137 31.2356 65.2645 31.2356V31.2356ZM58.4399 36.0329H54.5846L54.5726 37.8169H58.4279C60.1999 37.8169 61.5648 37.1419 61.5648 35.1651C61.5648 31.1633 56.4284 33.8151 56.4284 31.995C56.4284 31.32 57.0151 31.2236 57.5299 31.2236H61.1697V29.4637H57.1947C55.6622 29.4637 54.3811 30.2593 54.3811 31.9588C54.3811 35.9365 59.4935 33.4655 59.4935 35.2615C59.4815 35.9124 58.9308 36.0329 58.4399 36.0329V36.0329ZM53.3873 31.1994V29.4758H46.7782L46.7663 37.8289H53.3753L53.3873 36.1052L48.7658 36.0691V34.4057H53.3035V32.7061H48.7777V31.1994H53.3873ZM46.6465 18.1695C46.6106 18.1936 46.4789 18.4347 46.4789 19.0856C46.4789 19.8088 46.5867 20.0137 46.6106 20.0378C46.6346 20.0499 46.7423 20.0981 47.0177 20.0981L47.8917 18.061C47.76 18.061 47.6403 18.049 47.5206 18.049C46.8501 18.049 46.6825 18.1334 46.6465 18.1695ZM49.089 16.9039H49.077H49.089ZM47.1494 15.0718C44.3358 15.0718 43.0786 16.5182 43.0786 19.3267C43.0786 22.0026 44.2998 23.4249 47.0297 23.4249H49.3285L50.0947 21.5807H54.2015L54.9917 23.4249H59.0265V17.1691L62.7621 23.4249H65.5877V15.1079H63.5643V20.9057L60.0802 15.1079H57.051V22.991L53.7106 15.1079H50.7413L47.9276 21.6771H47.0416C45.4492 21.6771 45.114 20.7008 45.114 19.2785C45.114 16.4097 46.9938 16.8677 49.077 16.9039V15.0718H47.1494ZM52.19 16.5302L53.531 19.857H50.8011L52.19 16.5302ZM40.0854 15.0838V23.4369H42.1088V15.0838H40.0854Z" fill="white"/>
</svg>
