<svg width="17" height="14" viewBox="0 0 17 14" fill="none" xmlns="http://www.w3.org/2000/svg">
<g clip-path="url(#clip0_18874_5583)">
<path d="M4.40994 12.9409V6.79109L2.61291 5.04624L1.00146 4.07797V11.8557C1.00146 12.4561 1.45988 12.9409 2.02403 12.9409H4.40994Z" fill="#4285F4"/>
<path d="M12.5901 12.9409H14.9761C15.5419 12.9409 15.9986 12.4543 15.9986 11.8557V4.07803L14.1734 5.18707L12.5901 6.79109V12.9409Z" fill="#34A853"/>
<path d="M4.40987 6.79109L4.16534 4.38817L4.40987 2.08833L8.50002 5.34413L12.5902 2.08833L12.8637 4.264L12.5902 6.79109L8.50002 10.0469L4.40987 6.79109Z" fill="#EA4335"/>
<path d="M12.5901 2.08833V6.79108L15.9986 4.07797V2.63094C15.9986 1.28887 14.5551 0.523789 13.5446 1.32866L12.5901 2.08833Z" fill="#FBBC04"/>
<path d="M1.00098 4.07798L2.5686 5.32585L4.40946 6.7911V2.08834L3.45502 1.32867C2.44271 0.52374 1.00098 1.28888 1.00098 2.63089V4.07792V4.07798Z" fill="#C5221F"/>
</g>
<defs>
<clipPath id="clip0_18874_5583">
<rect width="15" height="12" fill="white" transform="translate(1 1)"/>
</clipPath>
</defs>
</svg>
