<svg width="16" height="14" viewBox="0 0 16 14" fill="none" xmlns="http://www.w3.org/2000/svg">
<path d="M6.09434 13.3903C4.99169 13.0611 3.99307 12.452 3.19568 11.6223C3.45223 11.318 3.61216 10.9441 3.655 10.5484C3.69785 10.1527 3.62165 9.75323 3.43616 9.40108C3.25067 9.04893 2.96432 8.76014 2.61377 8.57165C2.26322 8.38316 1.8644 8.30355 1.46834 8.34301C1.37811 7.90104 1.33277 7.45109 1.33301 7.00001C1.33301 6.30334 1.43968 5.63134 1.63834 5.00001H1.66634C2.00626 5.00012 2.3406 4.91359 2.63779 4.74859C2.93497 4.58359 3.18521 4.34557 3.36485 4.057C3.5445 3.76844 3.64763 3.43884 3.66452 3.09934C3.6814 2.75984 3.61147 2.42164 3.46134 2.11667C4.24287 1.38895 5.18803 0.85995 6.21701 0.574341C6.38447 0.903141 6.63962 1.17921 6.95424 1.37199C7.26887 1.56478 7.63069 1.66677 7.99967 1.66667C8.36866 1.66677 8.73048 1.56478 9.04511 1.37199C9.35973 1.17921 9.61488 0.903141 9.78234 0.574341C10.8113 0.85995 11.7565 1.38895 12.538 2.11667C12.3868 2.42378 12.3169 2.76456 12.3351 3.10639C12.3533 3.44823 12.4589 3.77968 12.6418 4.06902C12.8247 4.35835 13.0789 4.5959 13.3799 4.7589C13.6809 4.92191 14.0187 5.00493 14.361 5.00001C14.564 5.64725 14.667 6.32169 14.6663 7.00001C14.6663 7.46001 14.6197 7.90934 14.531 8.34334C14.135 8.30388 13.7361 8.38349 13.3856 8.57198C13.035 8.76047 12.7487 9.04927 12.5632 9.40142C12.3777 9.75357 12.3015 10.1531 12.3443 10.5488C12.3872 10.9445 12.5471 11.3184 12.8037 11.6227C12.0062 12.4522 11.0076 13.0612 9.90501 13.3903C9.77553 12.9868 9.52125 12.6347 9.17882 12.385C8.83639 12.1352 8.42351 12.0007 7.99967 12.0007C7.57584 12.0007 7.16296 12.1352 6.82053 12.385C6.4781 12.6347 6.22382 12.9868 6.09434 13.3903Z" stroke="#0184FF" stroke-linejoin="round"/>
<path d="M7.99935 9.33329C8.30577 9.33329 8.60918 9.27294 8.89228 9.15568C9.17537 9.03842 9.43259 8.86654 9.64926 8.64987C9.86593 8.4332 10.0378 8.17598 10.1551 7.89289C10.2723 7.60979 10.3327 7.30638 10.3327 6.99996C10.3327 6.69354 10.2723 6.39012 10.1551 6.10703C10.0378 5.82394 9.86593 5.56671 9.64926 5.35004C9.43259 5.13337 9.17537 4.9615 8.89228 4.84424C8.60918 4.72698 8.30577 4.66663 7.99935 4.66663C7.38051 4.66663 6.78702 4.91246 6.34943 5.35004C5.91185 5.78763 5.66602 6.38112 5.66602 6.99996C5.66602 7.6188 5.91185 8.21229 6.34943 8.64987C6.78702 9.08746 7.38051 9.33329 7.99935 9.33329V9.33329Z" stroke="#0184FF" stroke-linejoin="round"/>
</svg>
