<svg width="12" height="12" viewBox="0 0 12 12" fill="none" xmlns="http://www.w3.org/2000/svg">
<path d="M10.6667 1.91667H5.34675L4.83342 0.166672H1.33341C1.024 0.166672 0.727249 0.289588 0.508457 0.50838C0.289664 0.727173 0.166748 1.02392 0.166748 1.33334V8.91667C0.166748 9.22609 0.289664 9.52284 0.508457 9.74163C0.727249 9.96042 1.024 10.0833 1.33341 10.0833H5.41675L6.00008 11.8333H10.6667C10.9762 11.8333 11.2729 11.7104 11.4917 11.4916C11.7105 11.2728 11.8334 10.9761 11.8334 10.6667V3.08334C11.8334 2.77392 11.7105 2.47717 11.4917 2.25838C11.2729 2.03959 10.9762 1.91667 10.6667 1.91667ZM3.18258 7.51084C2.54982 7.51084 1.94297 7.25948 1.49554 6.81204C1.04811 6.36461 0.796748 5.75777 0.796748 5.12501C0.796748 4.49224 1.04811 3.8854 1.49554 3.43797C1.94297 2.99054 2.54982 2.73917 3.18258 2.73917C3.78925 2.73917 4.34341 2.95501 4.78091 3.37501L4.83342 3.39834L4.10425 4.08667L4.06925 4.05751C3.90008 3.90001 3.61425 3.71334 3.18258 3.71334C2.41841 3.71334 1.79425 4.34917 1.79425 5.12501C1.79425 5.90084 2.41841 6.53667 3.18258 6.53667C3.98175 6.53667 4.32591 6.02917 4.41925 5.68501H3.13008V4.78084H5.43425L5.44008 4.83334C5.46342 4.94417 5.46925 5.05501 5.46925 5.17751C5.46925 6.54834 4.54175 7.51084 3.18258 7.51084ZM6.70008 6.51334C6.89258 6.87501 7.13175 7.20167 7.39425 7.50501L7.07925 7.81417L6.70008 6.51334ZM7.14925 6.07001H6.58342L6.39092 5.46334H8.71842C8.71842 5.46334 8.52008 6.22751 7.80842 7.06167C7.50508 6.70001 7.28925 6.34417 7.14925 6.07001ZM11.2501 10.6667C11.2501 10.8214 11.1886 10.9698 11.0792 11.0792C10.9698 11.1885 10.8215 11.25 10.6667 11.25H6.58342L7.75008 10.0833L7.27758 8.46751L7.81425 7.93084L9.37758 9.50001L9.79175 9.07417L8.22258 7.51084C8.74758 6.91001 9.15592 6.19834 9.34258 5.46334H10.0834V4.85667H7.96008V4.25001H7.35342V4.85667H6.21008L5.52175 2.50001H10.6667C10.8215 2.50001 10.9698 2.56146 11.0792 2.67086C11.1886 2.78026 11.2501 2.92863 11.2501 3.08334V10.6667Z" fill="#202020" fill-opacity="0.8"/>
</svg>
