<svg width="current" height="current" viewBox="0 0 24 25" fill="none" xmlns="http://www.w3.org/2000/svg">
<path d="M11.9968 8.91595C9.79333 8.91595 7.99515 10.7145 7.99515 12.9185C7.99515 15.1224 9.79333 16.921 11.9968 16.921C14.2002 16.921 15.9984 15.1224 15.9984 12.9185C15.9984 10.7145 14.2002 8.91595 11.9968 8.91595ZM23.9987 12.9185C23.9987 11.261 24.0137 9.61857 23.9206 7.96411C23.8275 6.04242 23.3893 4.33692 21.9843 2.93168C20.5764 1.52344 18.8743 1.08806 16.953 0.994977C15.2959 0.901895 13.6539 0.916909 11.9998 0.916909C10.3427 0.916909 8.70061 0.901895 7.04652 0.994977C5.12526 1.08806 3.42014 1.52645 2.01522 2.93168C0.607291 4.33992 0.172005 6.04242 0.0789442 7.96411C-0.014117 9.62157 0.000892919 11.264 0.000892919 12.9185C0.000892919 14.5729 -0.014117 16.2184 0.0789442 17.8728C0.172005 19.7945 0.610293 21.5 2.01522 22.9053C3.42314 24.3135 5.12526 24.7489 7.04652 24.842C8.70361 24.9351 10.3457 24.92 11.9998 24.92C13.6569 24.92 15.2989 24.9351 16.953 24.842C18.8743 24.7489 20.5794 24.3105 21.9843 22.9053C23.3923 21.497 23.8275 19.7945 23.9206 17.8728C24.0167 16.2184 23.9987 14.5759 23.9987 12.9185V12.9185ZM11.9968 19.0769C8.58954 19.0769 5.83973 16.3265 5.83973 12.9185C5.83973 9.51048 8.58954 6.76005 11.9968 6.76005C15.404 6.76005 18.1538 9.51048 18.1538 12.9185C18.1538 16.3265 15.404 19.0769 11.9968 19.0769ZM18.406 7.9461C17.6105 7.9461 16.968 7.30353 16.968 6.50783C16.968 5.71213 17.6105 5.06957 18.406 5.06957C19.2015 5.06957 19.8439 5.71213 19.8439 6.50783C19.8442 6.69677 19.8071 6.88391 19.735 7.05851C19.6628 7.23312 19.5569 7.39177 19.4233 7.52537C19.2897 7.65897 19.1311 7.7649 18.9565 7.8371C18.782 7.9093 18.5949 7.94633 18.406 7.9461V7.9461Z" fill="white"/>
</svg>
