<svg width="143" height="49" viewBox="0 0 143 49" fill="none" xmlns="http://www.w3.org/2000/svg">
<path d="M4.584 47.608C4.328 47.608 3.784 47.304 2.952 46.696C2.76 46.536 2.6 46.344 2.472 46.12C2.312 45.896 2.184 45.784 2.088 45.784C1.896 45.112 1.656 44.776 1.368 44.776C1.432 44.712 1.464 44.648 1.464 44.584C1.464 44.52 1.32 44.136 1.032 43.432V43.24C1 43.176 0.968 43.08 0.936 42.952C0.904 42.824 0.856 42.68 0.792 42.52C0.824 42.488 0.84 42.392 0.84 42.232C0.808 42.264 0.792 42.216 0.792 42.088C0.856 42.024 0.888 41.944 0.888 41.848L0.792 41.704C0.792 41.704 0.824 41.64 0.888 41.512C0.92 41.128 0.968 40.648 1.032 40.072C1.096 39.528 1.128 39.144 1.128 38.92V38.536C1.128 38.376 1.144 38.216 1.176 38.056C1.176 37.928 1.192 37.8 1.224 37.672L1.608 37.096C1.64 36.936 1.688 36.76 1.752 36.568C1.816 36.376 1.88 36.152 1.944 35.896C2.104 35.544 2.424 35.128 2.904 34.648C2.904 34.584 2.92 34.504 2.952 34.408C2.952 34.344 2.968 34.264 3 34.168C3.064 34.072 3.144 33.912 3.24 33.688C3.368 33.496 3.528 33.16 3.72 32.68C3.784 32.648 3.88 32.376 4.008 31.864C4.04 31.896 4.104 31.912 4.2 31.912C4.36 31.912 4.488 31.768 4.584 31.48L4.776 31.384C4.968 31.032 5.16 30.6 5.352 30.088C5.416 30.088 5.496 29.912 5.592 29.56C5.816 29.4 6.12 29.064 6.504 28.552L6.6 28.216C6.76 28.088 6.952 27.944 7.176 27.784C7.4 27.592 7.64 27.384 7.896 27.16L8.04 26.872C8.04 26.84 8.104 26.776 8.232 26.68C8.36 26.584 8.408 26.488 8.376 26.392C8.536 26.296 8.68 26.152 8.808 25.96H9L10.584 24.28C10.648 24.152 10.76 23.96 10.92 23.704C11.112 23.448 11.32 23.24 11.544 23.08C11.704 23.016 11.928 22.872 12.216 22.648C12.28 22.584 12.312 22.552 12.312 22.552H12.36C12.36 22.584 12.376 22.6 12.408 22.6C12.44 22.6 12.52 22.52 12.648 22.36C12.776 22.168 12.92 22.04 13.08 21.976L13.368 21.64C13.592 21.576 13.8 21.48 13.992 21.352L14.568 20.776L15.432 20.296C15.656 20.168 16.04 19.864 16.584 19.384C16.616 19.352 16.68 19.336 16.776 19.336C16.872 19.208 17.016 19.096 17.208 19C17.4 18.904 17.592 18.776 17.784 18.616C18.424 18.36 19.064 17.944 19.704 17.368C19.928 17.336 20.248 17.208 20.664 16.984L21.432 16.312L21.912 16.168L22.056 15.976C22.216 15.912 22.44 15.832 22.728 15.736C23.016 15.608 23.336 15.48 23.688 15.352C23.848 15.256 23.896 15.208 23.832 15.208C23.896 15.208 23.928 15.224 23.928 15.256H23.976C24.04 15.256 24.104 15.176 24.168 15.016C24.488 14.984 24.904 14.824 25.416 14.536C25.512 14.536 25.656 14.504 25.848 14.44C26.072 14.376 26.2 14.344 26.232 14.344C26.296 14.344 26.328 14.36 26.328 14.392H26.376C26.408 14.392 26.568 14.296 26.856 14.104C27.144 13.912 27.32 13.816 27.384 13.816L28.344 13.912C28.408 13.912 28.488 13.88 28.584 13.816C28.68 13.72 28.92 13.608 29.304 13.48L32.376 13.144L32.52 13.24H33L33.576 13.144C33.608 13.144 33.656 13.176 33.72 13.24C33.784 13.304 33.848 13.336 33.912 13.336C33.976 13.336 34.008 13.288 34.008 13.192C34.2 13.224 34.472 13.288 34.824 13.384C35.208 13.448 35.304 13.48 35.112 13.48C35.176 13.48 35.208 13.464 35.208 13.432H35.256C35.224 13.432 35.336 13.496 35.592 13.624C35.72 13.688 35.896 13.72 36.12 13.72C36.184 13.72 36.248 13.688 36.312 13.624L36.6 12.856L36.744 12.664C36.84 12.536 36.904 12.392 36.936 12.232C37 12.04 37.048 11.864 37.08 11.704L37.464 11.224C37.464 11.16 37.464 11.064 37.464 10.936C37.464 10.808 37.48 10.68 37.512 10.552L37.944 9.592C37.912 9.528 37.896 9.4 37.896 9.208C37.96 9.144 37.992 9.016 37.992 8.824C38.088 8.728 38.296 8.136 38.616 7.048L39 6.472C39 6.408 39 6.328 39 6.232C39 6.136 39.016 6.024 39.048 5.896C39.176 5.512 39.24 5.336 39.24 5.368V5.128C39.208 5.032 39.192 4.936 39.192 4.84C39.064 4.808 38.936 4.792 38.808 4.792C38.712 4.76 38.632 4.744 38.568 4.744C38.536 4.744 38.408 4.792 38.184 4.888C37.992 4.984 37.88 5.032 37.848 5.032C37.784 5.032 37.736 5.016 37.704 4.984H37.56C37.496 4.984 37.416 5.016 37.32 5.08C37.224 5.112 37.144 5.128 37.08 5.128C37.048 5.128 36.968 5.096 36.84 5.032C36.744 4.968 36.648 4.936 36.552 4.936C36.424 4.904 36.248 4.888 36.024 4.888C35.8 4.856 35.56 4.84 35.304 4.84C35.272 4.84 35.24 4.872 35.208 4.936C35.176 5 35.128 5.032 35.064 5.032L34.44 4.888C34.376 4.888 34.312 4.92 34.248 4.984C34.184 5.016 34.136 5.032 34.104 5.032C34.04 5.032 33.992 5.016 33.96 4.984H33.816C33.784 4.984 33.736 5.016 33.672 5.08C33.608 5.112 33.56 5.128 33.528 5.128C33.56 5.128 33.56 5.128 33.528 5.128C33.496 5.128 33.448 5.128 33.384 5.128C33.352 5.096 33.288 5.08 33.192 5.08C33.16 5.048 33.144 5.016 33.144 4.984C33.144 4.92 33.128 4.872 33.096 4.84C33.032 4.904 32.968 4.952 32.904 4.984C32.872 5.016 32.856 5.032 32.856 5.032H32.04C31.784 5.032 31.592 5.048 31.464 5.08C31.336 5.08 31.256 5.08 31.224 5.08L30.264 4.84C30.232 4.84 30.2 4.872 30.168 4.936C30.168 4.968 30.136 4.984 30.072 4.984L28.968 4.744C28.936 4.744 28.904 4.76 28.872 4.792H28.776C28.712 4.792 28.472 4.76 28.056 4.696C27.64 4.6 27.4 4.552 27.336 4.552C27.304 4.552 27.256 4.568 27.192 4.6C27.16 4.632 27.112 4.648 27.048 4.648C27.016 4.648 26.968 4.6 26.904 4.504C26.84 4.408 26.744 4.36 26.616 4.36C26.456 4.36 26.376 4.392 26.376 4.456L26.184 4.168C26.12 4.168 26.04 4.168 25.944 4.168C25.848 4.168 25.736 4.152 25.608 4.12C25.576 4.056 25.512 4.008 25.416 3.976C25.32 3.944 25.096 3.928 24.744 3.928C24.648 3.928 24.616 3.944 24.648 3.976C24.616 3.944 24.584 3.912 24.552 3.88C24.52 3.848 24.472 3.8 24.408 3.736C23.512 3.448 23.112 3.304 23.208 3.304H23.112C23.112 3.336 23.08 3.352 23.016 3.352C22.984 3.352 22.632 3.064 21.96 2.488V2.344C21.96 2.312 21.976 2.232 22.008 2.104C22.04 1.944 22.056 1.816 22.056 1.72C22.312 1.496 22.424 1.336 22.392 1.24C22.424 1.24 22.472 1.256 22.536 1.288C22.632 1.32 22.712 1.336 22.776 1.336C22.808 1.336 22.856 1.32 22.92 1.288C23.016 1.224 23.096 1.192 23.16 1.192L26.808 2.2C26.904 2.2 26.968 2.184 27 2.152C27.16 2.344 27.304 2.44 27.432 2.44C27.464 2.44 27.48 2.424 27.48 2.392C27.48 2.36 27.512 2.344 27.576 2.344C27.608 2.344 27.72 2.392 27.912 2.488C28.104 2.552 28.216 2.6 28.248 2.632L30.216 2.968C30.216 3.064 30.232 3.128 30.264 3.16L29.976 3.304V3.064C29.784 3 29.672 2.968 29.64 2.968C29.704 2.968 29.56 3.016 29.208 3.112C29.176 3.08 29.08 3.064 28.92 3.064C28.856 3.128 28.824 3.176 28.824 3.208C28.824 3.24 28.888 3.32 29.016 3.448C29.176 3.544 29.304 3.576 29.4 3.544L30.072 3.448C30.104 3.448 30.152 3.48 30.216 3.544C30.312 3.576 30.392 3.592 30.456 3.592H30.504C30.504 3.56 30.52 3.544 30.552 3.544C30.712 3.544 30.952 3.688 31.272 3.976L31.512 4.264C31.704 4.264 31.864 4.28 31.992 4.312C32.056 4.184 32.104 4.056 32.136 3.928C32.2 3.8 32.312 3.736 32.472 3.736C32.536 3.736 32.68 3.784 32.904 3.88C33.16 3.976 33.304 4.024 33.336 4.024H33.576C33.672 3.992 33.768 3.976 33.864 3.976C34.088 3.976 34.216 3.992 34.248 4.024C34.504 4.184 34.664 4.264 34.728 4.264C34.76 4.264 34.824 4.248 34.92 4.216C35.016 4.184 35.096 4.168 35.16 4.168C35.352 4.168 35.464 4.216 35.496 4.312H35.64C35.672 4.184 35.768 4.12 35.928 4.12C35.992 4.12 36.056 4.152 36.12 4.216C36.216 4.248 36.296 4.264 36.36 4.264L39.528 3.928C39.752 3.416 39.816 2.888 39.72 2.344C39.848 2.056 39.912 1.832 39.912 1.672C39.912 1.736 39.864 1.656 39.768 1.432C39.736 1.368 39.704 1.304 39.672 1.24C39.672 1.144 39.672 1.032 39.672 0.903998C39.672 0.775998 39.72 0.647998 39.816 0.519998H40.056C40.216 0.903998 40.344 1.128 40.44 1.192L40.344 1.384L40.44 2.392C40.472 2.616 40.488 2.824 40.488 3.016C40.52 3.176 40.536 3.336 40.536 3.496L40.44 3.736C41.176 3.64 41.592 3.592 41.688 3.592C42.264 3.592 42.712 3.448 43.032 3.16C43.064 3.288 43.128 3.352 43.224 3.352C43.128 3.352 43.72 3.16 45 2.776C45.096 2.744 45.272 2.728 45.528 2.728C45.432 2.76 45.24 2.92 44.952 3.208C44.696 3.24 44.536 3.32 44.472 3.448C44.44 3.416 44.392 3.4 44.328 3.4C44.296 3.4 44.152 3.464 43.896 3.592C43.64 3.688 43.48 3.736 43.416 3.736C43.384 3.736 43.352 3.72 43.32 3.688H43.224C43.192 3.688 43.096 3.72 42.936 3.784C42.808 3.816 42.728 3.864 42.696 3.928C42.568 3.928 42.28 4.024 41.832 4.216C41.768 4.216 41.736 4.2 41.736 4.168H41.64C41.608 4.168 41.512 4.216 41.352 4.312C41.224 4.376 41.144 4.408 41.112 4.408H41.016C41.016 4.376 40.984 4.36 40.92 4.36C40.824 4.36 40.664 4.424 40.44 4.552C40.408 4.584 40.392 4.616 40.392 4.648C40.52 4.68 40.568 4.744 40.536 4.84V5.224C40.536 5.256 40.504 5.32 40.44 5.416C40.376 5.48 40.344 5.544 40.344 5.608C40.344 5.672 40.328 5.768 40.296 5.896C40.296 5.992 40.28 6.12 40.248 6.28C40.344 6.408 40.392 6.632 40.392 6.952C40.328 7.048 40.248 7.16 40.152 7.288C40.056 7.416 39.976 7.56 39.912 7.72C39.976 7.944 39.976 8.376 39.912 9.016C39.656 9.848 39.448 10.456 39.288 10.84C39.16 11.192 39.096 11.336 39.096 11.272C38.936 11.528 38.92 11.672 39.048 11.704C39.048 11.736 39 11.832 38.904 11.992C38.808 12.12 38.744 12.264 38.712 12.424C38.808 12.424 38.904 12.472 39 12.568C38.904 13.176 38.84 13.464 38.808 13.432C38.744 13.656 38.616 13.848 38.424 14.008C38.264 14.168 38.184 14.328 38.184 14.488C38.344 14.52 38.584 14.664 38.904 14.92L39.24 15.4C39.528 16.072 39.672 16.424 39.672 16.456C39.672 16.488 39.656 16.552 39.624 16.648L39.384 16.744C39.32 16.744 38.872 16.136 38.04 14.92L37.992 14.968C37.96 15.096 37.896 15.272 37.8 15.496C37.736 15.72 37.672 15.976 37.608 16.264C37.48 16.968 37.288 17.448 37.032 17.704C36.808 17.928 36.664 18.456 36.6 19.288C36.536 19.416 36.472 19.56 36.408 19.72C36.344 19.848 36.28 19.992 36.216 20.152C36.152 20.216 36.056 20.44 35.928 20.824C35.416 21.432 35.176 21.8 35.208 21.928C34.92 22.12 34.776 22.392 34.776 22.744C34.744 22.744 34.712 22.76 34.68 22.792L34.344 23.416C34.344 23.416 34.344 23.448 34.344 23.512C34.344 23.576 34.36 23.672 34.392 23.8V23.848C34.392 23.88 34.392 23.944 34.392 24.04C34.392 24.104 34.376 24.2 34.344 24.328C34.216 24.392 34.136 24.472 34.104 24.568C34.072 24.632 34.024 24.744 33.96 24.904C33.832 25.128 33.608 25.384 33.288 25.672C33.288 25.864 33.352 26.072 33.48 26.296C33.448 26.296 33.352 26.424 33.192 26.68C32.712 26.712 32.472 26.936 32.472 27.352C32.472 27.48 32.488 27.576 32.52 27.64H32.424C32.296 27.64 32.168 27.736 32.04 27.928C31.944 28.12 31.768 28.344 31.512 28.6C31.48 28.76 31.32 29.064 31.032 29.512C30.968 29.512 30.856 29.576 30.696 29.704C30.696 29.768 30.632 29.944 30.504 30.232C30.376 30.488 30.344 30.696 30.408 30.856C30.376 30.888 30.328 30.936 30.264 31C30.232 31.032 30.152 31.08 30.024 31.144C30.024 31.176 29.992 31.288 29.928 31.48L29.544 31.912C29.384 31.976 29.208 32.056 29.016 32.152C28.824 32.248 28.648 32.376 28.488 32.536L28.824 32.68C28.76 32.808 28.664 32.984 28.536 33.208C28.408 33.464 28.136 33.752 27.72 34.072C27.688 34.2 27.624 34.312 27.528 34.408C27.464 34.536 27.384 34.696 27.288 34.888C27.128 34.984 26.92 35.224 26.664 35.608C26.344 35.704 26.072 35.896 25.848 36.184C25.528 36.536 25.336 36.76 25.272 36.856C25.208 36.984 25.176 37.048 25.176 37.048C25.176 37.08 25.144 37.112 25.08 37.144C25.048 37.208 24.728 37.544 24.12 38.152C24.056 38.152 23.992 38.168 23.928 38.2C23.864 38.232 23.752 38.344 23.592 38.536C23.464 38.76 23.368 38.872 23.304 38.872C23.24 38.872 23.176 38.904 23.112 38.968C23.016 39.096 22.872 39.24 22.68 39.4C22.52 39.56 22.312 39.688 22.056 39.784C22.024 39.848 21.96 39.912 21.864 39.976C21.768 40.072 21.672 40.152 21.576 40.216C21.288 40.44 20.856 40.872 20.28 41.512C20.12 41.512 20.024 41.528 19.992 41.56L17.88 43C17.272 43.544 16.952 43.816 16.92 43.816C16.888 43.816 16.856 43.8 16.824 43.768C16.824 43.736 16.808 43.72 16.776 43.72C16.648 43.72 16.552 43.752 16.488 43.816C16.424 43.912 16.36 43.992 16.296 44.056C15.784 44.312 15.512 44.488 15.48 44.584C15.48 44.52 15.432 44.488 15.336 44.488C15.336 44.488 15.16 44.6 14.808 44.824C14.488 44.888 14.072 45.032 13.56 45.256C13.24 45.448 13.096 45.544 13.128 45.544C13.096 45.544 13.08 45.528 13.08 45.496H12.984C12.984 45.496 12.888 45.544 12.696 45.64C12.536 45.736 12.28 45.816 11.928 45.88L11.304 46.024C11.272 45.992 11.144 45.976 10.92 45.976C10.92 46.008 10.904 46.04 10.872 46.072H10.776C10.744 46.072 10.616 46.072 10.392 46.072C10.2 46.104 9.88 46.12 9.432 46.12H8.04C8.008 46.12 7.944 46.088 7.848 46.024C7.752 45.96 7.688 45.928 7.656 45.928C7.624 45.928 7.544 45.96 7.416 46.024C6.84 45.48 6.408 45.144 6.12 45.016C5.96 44.856 5.864 44.728 5.832 44.632L6.504 44.776C7.368 45.096 7.768 45.256 7.704 45.256C7.736 45.256 7.768 45.24 7.8 45.208H7.896C7.928 45.208 7.96 45.224 7.992 45.256C8.056 45.32 8.104 45.352 8.136 45.352H8.76C8.76 45.352 8.776 45.352 8.808 45.352C8.872 45.384 8.952 45.416 9.048 45.448C9.048 45.48 9.192 45.496 9.48 45.496C9.768 45.496 9.912 45.48 9.912 45.448C10.168 45.32 10.28 45.256 10.248 45.256C10.312 45.256 10.344 45.272 10.344 45.304H10.44C10.568 45.304 10.696 45.288 10.824 45.256C10.984 45.256 11.144 45.24 11.304 45.208C11.336 45.176 11.4 45.128 11.496 45.064C11.624 45 11.704 44.968 11.736 44.968C11.8 44.968 11.832 44.984 11.832 45.016C11.832 45.048 11.864 45.064 11.928 45.064C12.248 45.064 12.408 44.936 12.408 44.68L12.6 44.728C12.568 44.728 12.648 44.68 12.84 44.584C13.064 44.52 13.352 44.392 13.704 44.2C13.768 44.136 13.848 44.056 13.944 43.96C14.072 43.864 14.408 43.704 14.952 43.48L15.24 43.048H15.384C15.736 43.048 15.992 42.872 16.152 42.52L16.728 42.232C16.728 42.168 16.76 42.088 16.824 41.992C16.92 41.896 17.064 41.848 17.256 41.848C17.32 41.688 17.512 41.56 17.832 41.464C17.864 41.432 17.896 41.368 17.928 41.272C17.96 41.176 18.04 41.08 18.168 40.984C18.2 40.952 18.216 40.856 18.216 40.696L18.408 40.744C18.472 40.744 18.568 40.648 18.696 40.456C18.696 40.392 18.696 40.328 18.696 40.264C18.696 40.2 18.712 40.12 18.744 40.024C18.968 39.8 19.16 39.704 19.32 39.736L19.512 39.784L19.704 39.4C19.8 39.176 19.784 39 19.656 38.872L20.184 38.44C20.248 38.44 20.312 38.424 20.376 38.392C20.44 38.392 20.52 38.376 20.616 38.344C20.616 38.344 20.616 38.328 20.616 38.296C20.616 38.296 20.632 38.28 20.664 38.248C21.016 38.056 21.208 37.976 21.24 38.008C21.304 37.88 21.32 37.736 21.288 37.576C21.448 37.288 21.576 37.144 21.672 37.144H21.72C21.688 37.176 21.704 37.192 21.768 37.192C21.704 37.192 21.816 37.096 22.104 36.904C22.168 36.84 22.168 36.776 22.104 36.712C22.424 36.552 22.616 36.392 22.68 36.232C22.776 36.104 22.952 35.864 23.208 35.512C23.272 35.512 23.32 35.496 23.352 35.464L23.736 34.696C23.896 34.6 24.072 34.424 24.264 34.168C24.456 34.072 24.568 33.912 24.6 33.688C24.664 33.464 24.712 33.256 24.744 33.064C24.808 33.032 24.872 33 24.936 32.968C25.032 32.936 25.144 32.888 25.272 32.824C25.336 32.76 25.432 32.552 25.56 32.2H25.608C25.736 32.2 25.96 32.056 26.28 31.768V31.576C26.28 31.608 26.328 31.624 26.424 31.624C26.328 31.624 26.584 31.24 27.192 30.472L27.432 30.184H27.528C27.72 30.184 27.864 30.088 27.96 29.896C28.088 29.736 28.168 29.56 28.2 29.368C28.264 29.368 28.312 29.384 28.344 29.416C28.376 29.416 28.408 29.416 28.44 29.416C28.696 29.416 28.856 29.256 28.92 28.936C28.92 28.872 28.92 28.776 28.92 28.648C28.952 28.52 28.984 28.376 29.016 28.216C29.016 28.152 29.272 27.816 29.784 27.208C29.784 27.112 29.96 26.808 30.312 26.296L30.696 25.384C30.856 25.32 31 25.224 31.128 25.096C31.192 25.032 31.192 24.952 31.128 24.856C31.192 24.696 31.272 24.568 31.368 24.472C31.464 24.376 31.608 24.2 31.8 23.944V23.704L32.04 23.128L32.376 22.936C32.408 22.712 32.408 22.504 32.376 22.312C32.632 22.28 32.936 21.72 33.288 20.632H33.384C33.608 20.632 33.752 20.424 33.816 20.008C33.784 19.976 33.768 19.864 33.768 19.672C33.896 19.544 34.088 19.272 34.344 18.856C34.344 18.792 34.36 18.696 34.392 18.568C34.456 18.44 34.568 18.248 34.728 17.992C34.792 17.928 34.856 17.864 34.92 17.8C34.984 17.704 35.048 17.592 35.112 17.464C35.144 17.304 35.176 17.128 35.208 16.936C35.24 16.712 35.288 16.472 35.352 16.216C35.416 16.152 35.496 16.072 35.592 15.976C35.688 15.848 35.784 15.704 35.88 15.544V14.92C35.912 14.888 35.976 14.712 36.072 14.392C35.016 14.04 34.328 13.864 34.008 13.864H33.864C33.832 13.896 33.768 13.912 33.672 13.912C33.64 13.912 33.496 13.896 33.24 13.864C32.984 13.8 32.824 13.768 32.76 13.768C32.728 13.768 32.696 13.784 32.664 13.816C32.664 13.848 32.648 13.864 32.616 13.864C32.584 13.864 32.536 13.864 32.472 13.864C32.408 13.864 32.344 13.848 32.28 13.816H31.944C31.912 13.816 31.832 13.848 31.704 13.912C31.608 13.944 31.544 13.96 31.512 13.96C30.776 13.96 30.344 13.976 30.216 14.008C30.088 14.008 29.912 14.024 29.688 14.056C29.624 14.056 29.448 14.2 29.16 14.488C28.008 14.52 26.936 14.84 25.944 15.448C25.752 15.544 25.512 15.64 25.224 15.736C24.936 15.832 24.792 15.912 24.792 15.976C24.792 15.976 24.776 15.976 24.744 15.976C24.744 15.976 24.744 15.96 24.744 15.928H24.696C24.664 15.928 24.6 15.96 24.504 16.024C24.44 16.088 24.264 16.2 23.976 16.36H23.592C23.528 16.52 23.384 16.616 23.16 16.648C22.936 16.648 22.456 16.92 21.72 17.464C21.624 17.464 21.528 17.48 21.432 17.512C21.368 17.64 21.144 17.784 20.76 17.944C20.408 18.104 20.136 18.28 19.944 18.472H19.704L19.56 18.76L18.984 19.096L18.456 19.336C18.392 19.432 18.312 19.512 18.216 19.576C18.12 19.608 18.024 19.656 17.928 19.72L17.256 20.392L16.824 21.016L16.44 21.256L16.296 21.448C15.752 21.544 15.208 22.008 14.664 22.84C14.536 22.904 14.36 22.984 14.136 23.08C13.944 23.176 13.72 23.288 13.464 23.416L12.696 24.472C12.696 24.568 12.68 24.632 12.648 24.664C12.52 24.792 12.424 24.856 12.36 24.856C12.296 24.856 12.248 24.84 12.216 24.808C12.216 24.776 12.184 24.76 12.12 24.76C11.96 24.76 11.88 24.824 11.88 24.952V25.24L11.208 25.912C11.144 26.008 11.048 26.12 10.92 26.248C10.824 26.344 10.696 26.472 10.536 26.632C10.472 26.696 10.472 26.76 10.536 26.824C10.44 26.792 10.392 26.76 10.392 26.728C10.328 26.792 10.184 26.904 9.96 27.064C9.736 27.224 9.496 27.432 9.24 27.688C9.208 27.784 9.144 27.896 9.048 28.024C8.952 28.152 8.84 28.296 8.712 28.456C8.712 28.488 8.712 28.52 8.712 28.552C8.744 28.552 8.76 28.584 8.76 28.648C8.76 28.744 8.712 28.888 8.616 29.08C8.456 29.08 8.216 29.224 7.896 29.512C7.896 29.608 7.928 29.72 7.992 29.848C7.8 29.976 7.608 30.12 7.416 30.28C7.224 30.408 7.144 30.616 7.176 30.904C7.112 30.968 7 31.032 6.84 31.096C6.712 31.192 6.568 31.288 6.408 31.384C6.44 31.416 6.456 31.56 6.456 31.816C6.008 32.264 5.8 32.568 5.832 32.728C5.704 32.696 5.608 32.776 5.544 32.968C5.512 33.16 5.384 33.4 5.16 33.688V33.976C4.968 34.104 4.76 34.28 4.536 34.504C4.536 34.568 4.52 34.648 4.488 34.744C4.488 34.84 4.472 34.968 4.44 35.128C4.152 35.256 4.024 35.432 4.056 35.656C4.088 35.912 3.912 36.312 3.528 36.856C3.4 36.952 3.256 37.096 3.096 37.288C3.032 37.352 2.984 37.576 2.952 37.96C2.952 37.992 2.888 38.12 2.76 38.344C2.76 38.472 2.664 38.728 2.472 39.112C2.44 39.24 2.44 39.624 2.472 40.264C2.472 40.616 2.328 40.888 2.04 41.08L1.896 42.328C1.896 42.488 1.976 42.696 2.136 42.952C2.072 43.144 2.04 43.352 2.04 43.576L2.184 43.816C2.216 43.88 2.232 43.976 2.232 44.104C2.232 44.232 2.248 44.376 2.28 44.536C2.312 44.568 2.344 44.616 2.376 44.68C2.408 44.776 2.504 44.968 2.664 45.256C2.696 45.288 2.728 45.336 2.76 45.4C2.792 45.496 2.84 45.576 2.904 45.64C3.288 46.408 3.592 46.792 3.816 46.792C3.88 46.792 3.928 46.776 3.96 46.744C3.96 46.936 4.088 47.064 4.344 47.128C4.6 47.224 4.744 47.352 4.776 47.512C4.712 47.576 4.648 47.608 4.584 47.608ZM39.72 16.456C39.72 16.456 39.704 16.456 39.672 16.456C39.704 16.424 39.72 16.424 39.72 16.456ZM48.2974 34.408C48.1374 34.376 48.0414 34.184 48.0094 33.832C47.9774 33.512 47.9454 33.32 47.9134 33.256V32.824C47.9134 32.28 47.9134 31.8 47.9134 31.384C47.9454 30.968 47.9934 30.648 48.0574 30.424L48.2014 29.896L48.5854 28.36C48.5534 28.328 48.5374 28.264 48.5374 28.168L48.6334 27.448C48.6654 27.416 48.7614 27.144 48.9214 26.632L48.8734 26.584V26.536C48.7134 26.6 48.5054 26.824 48.2494 27.208C48.1854 27.24 48.1054 27.288 48.0094 27.352C47.9454 27.416 47.8654 27.56 47.7694 27.784L47.0494 28.648C47.0174 28.68 46.9534 28.728 46.8574 28.792C46.7614 28.856 46.6174 28.984 46.4254 29.176C46.3614 29.176 46.2814 29.192 46.1854 29.224C45.9294 29.48 45.7214 29.64 45.5614 29.704C45.4974 29.832 45.4014 29.976 45.2734 30.136C45.1454 30.296 45.0014 30.456 44.8414 30.616V30.328C44.8734 30.296 44.8414 30.28 44.7454 30.28C44.7134 30.28 44.5694 30.424 44.3134 30.712L44.4094 30.808L44.7454 30.52C44.5854 30.84 44.4574 31.032 44.3614 31.096C43.3374 31.832 42.6654 32.2 42.3454 32.2C42.3134 32.2 42.2814 32.184 42.2494 32.152C42.2174 32.12 42.1854 32.104 42.1534 32.104C42.1214 32.104 42.0894 32.12 42.0574 32.152C42.0574 32.216 42.0414 32.248 42.0094 32.248C42.0094 32.248 41.9934 32.248 41.9614 32.248H42.0094C42.0094 32.248 42.0094 32.232 42.0094 32.2C42.0094 32.168 41.8494 32.04 41.5294 31.816C41.4654 31.816 41.3534 31.784 41.1934 31.72C41.0654 31.656 40.8574 31.496 40.5694 31.24L40.2334 30.136V29.992C40.3614 29.768 40.4094 29.544 40.3774 29.32C40.3774 29.288 40.3614 29.256 40.3294 29.224C40.3294 29.064 40.3294 28.856 40.3294 28.6C40.3614 28.344 40.3934 28.056 40.4254 27.736C40.5214 27.256 40.6334 27.032 40.7614 27.064C40.6654 26.904 40.6814 26.712 40.8094 26.488C40.8094 26.456 40.8254 26.44 40.8574 26.44C40.9214 26.44 40.9694 26.424 41.0014 26.392C40.9374 26.264 40.9054 26.184 40.9054 26.152C40.9054 26.024 40.9694 25.896 41.0974 25.768C41.1294 25.48 41.1454 25.288 41.1454 25.192C41.1774 25.096 41.1934 25.08 41.1934 25.144C41.1934 25.144 41.2094 25.112 41.2414 25.048C41.2734 24.984 41.3054 24.936 41.3374 24.904C41.2414 24.808 41.1934 24.728 41.1934 24.664C41.1934 24.632 41.2094 24.6 41.2414 24.568C41.3054 24.504 41.3374 24.456 41.3374 24.424C41.4974 24.424 41.6414 24.36 41.7694 24.232C41.7694 24.2 41.7534 24.184 41.7214 24.184C41.6894 24.056 41.7534 23.928 41.9134 23.8C42.0734 23.64 42.1694 23.528 42.2014 23.464C42.2014 23.432 42.1374 23.416 42.0094 23.416V23.224C41.9774 23.16 41.9614 23.096 41.9614 23.032L42.1054 22.888C42.1694 22.92 42.2174 22.92 42.2494 22.888C42.2174 22.824 42.2014 22.712 42.2014 22.552C42.2014 22.232 42.1534 22.072 42.0574 22.072C41.9294 22.072 41.2254 22.424 39.9454 23.128C39.9454 23.032 39.9774 22.936 40.0414 22.84C40.1054 22.712 40.1214 22.632 40.0894 22.6C40.3454 22.472 40.4894 22.376 40.5214 22.312C40.5854 22.248 40.6654 22.216 40.7614 22.216C40.7934 22.216 40.8414 22.184 40.9054 22.12C40.9374 22.088 40.9534 22.072 40.9534 22.072C40.9534 22.04 40.9854 22.024 41.0494 22.024C41.0814 22.024 41.1134 22.04 41.1454 22.072L41.5774 21.928C41.6734 21.832 41.7054 21.784 41.6734 21.784C41.7694 21.784 41.8174 21.768 41.8174 21.736H41.8654C41.9934 21.736 42.1054 21.656 42.2014 21.496H42.2974C42.3294 21.464 42.3454 21.464 42.3454 21.496C42.3454 21.528 42.3614 21.528 42.3934 21.496C42.4254 21.464 42.4574 21.448 42.4894 21.448C42.7134 21.448 42.9374 21.352 43.1614 21.16C43.3534 21.224 43.4494 21.256 43.4494 21.256C43.4814 21.256 43.5294 21.224 43.5934 21.16C43.6574 21.16 43.7534 21.224 43.8814 21.352C44.0094 21.352 44.0734 21.304 44.0734 21.208C44.0734 21.208 44.1694 21.24 44.3614 21.304C44.3934 21.432 44.4894 21.544 44.6494 21.64C44.6494 21.8 44.7774 22.088 45.0334 22.504C45.0014 22.536 44.9374 22.6 44.8414 22.696C44.7454 22.792 44.6174 22.952 44.4574 23.176C44.4574 23.272 44.4414 23.352 44.4094 23.416L43.7854 24.088C43.7534 24.376 43.5134 24.808 43.0654 25.384C43.0654 25.608 42.9694 25.896 42.7774 26.248C42.6174 26.568 42.5374 26.76 42.5374 26.824C42.2494 26.952 42.1054 27.256 42.1054 27.736C42.1054 27.8 42.1374 27.912 42.2014 28.072C42.2654 28.2 42.2974 28.28 42.2974 28.312C42.2974 28.344 42.2654 28.408 42.2014 28.504C42.1694 28.6 42.1534 28.68 42.1534 28.744V28.984H42.1054L42.1534 29.032C42.1534 29.064 42.1534 29.144 42.1534 29.272C42.1534 29.368 42.1694 29.496 42.2014 29.656C42.2014 29.656 42.2334 29.688 42.2974 29.752C42.3934 30.008 42.4734 30.136 42.5374 30.136C42.6014 30.232 42.6014 30.328 42.5374 30.424C42.6654 30.488 42.6974 30.584 42.6334 30.712L42.7774 30.856C42.9054 30.792 43.0654 30.696 43.2574 30.568C43.4814 30.44 43.7214 30.28 43.9774 30.088C44.1374 30.248 44.2334 30.328 44.2654 30.328C44.2974 30.328 44.3294 30.28 44.3614 30.184C44.7134 29.992 44.9374 29.816 45.0334 29.656C45.3214 29.496 45.6254 29.224 45.9454 28.84C45.9454 28.872 45.9614 28.904 45.9934 28.936H46.0894L46.2334 28.648C46.3614 28.584 46.6014 28.376 46.9534 28.024L47.2894 27.688C47.2894 27.528 47.3854 27.4 47.5774 27.304C47.8014 27.176 48.2014 26.76 48.7774 26.056C48.7774 26.088 48.7934 26.12 48.8254 26.152C49.0174 25.864 49.1454 25.608 49.2094 25.384C49.2094 25.32 49.1934 25.256 49.1614 25.192C49.1614 25.064 49.2094 24.888 49.3054 24.664C49.4014 24.408 49.4814 24.152 49.5454 23.896L49.7374 23.752C50.1214 23.592 50.2654 23.208 50.1694 22.6H50.3134C50.3454 22.6 50.4094 22.536 50.5054 22.408C50.6334 22.248 50.7614 22.168 50.8894 22.168C50.9214 22.168 50.9534 22.184 50.9854 22.216C51.0494 22.248 51.0974 22.264 51.1294 22.264C51.1614 22.264 51.2094 22.184 51.2734 22.024C51.4334 22.056 51.5294 22.152 51.5614 22.312C51.5614 22.312 51.5934 22.232 51.6574 22.072C51.7534 22.008 51.8494 21.896 51.9454 21.736L52.0414 21.352L52.3774 20.824C52.5054 20.76 52.6014 20.68 52.6654 20.584C52.7294 20.52 52.7934 20.488 52.8574 20.488C53.0174 20.488 53.0654 20.632 53.0014 20.92L52.8094 21.112C52.6494 21.272 52.4894 21.56 52.3294 21.976C52.3294 21.976 52.3134 21.992 52.2814 22.024C52.2494 22.024 52.2014 22.04 52.1374 22.072C52.1374 22.168 52.0574 22.296 51.8974 22.456L52.4734 22.984C52.3774 23.08 52.3134 23.224 52.2814 23.416C52.1534 23.512 51.9454 23.784 51.6574 24.232C51.6254 24.296 51.5934 24.376 51.5614 24.472C51.5294 24.568 51.4814 24.696 51.4174 24.856L50.9374 25.48L50.9854 25.672L50.8414 25.576C50.7774 25.704 50.7134 25.848 50.6494 26.008C50.5854 26.136 50.5214 26.28 50.4574 26.44C50.3934 26.568 50.2654 26.728 50.0734 26.92V27.016C50.0094 27.08 49.9294 27.304 49.8334 27.688C49.8014 27.72 49.7534 27.816 49.6894 27.976C49.6254 28.104 49.5134 28.28 49.3534 28.504C49.3854 28.536 49.4014 28.616 49.4014 28.744L49.1614 29.032C49.0654 29.384 48.9534 29.832 48.8254 30.376C48.7294 30.888 48.6174 31.496 48.4894 32.2C48.4574 32.36 48.4254 32.504 48.3934 32.632C48.3934 32.792 48.3614 32.936 48.2974 33.064L48.3454 33.256V33.88C48.2814 34.136 48.2654 34.312 48.2974 34.408ZM71.613 37.288C71.581 37.288 71.469 37.24 71.277 37.144C71.117 37.08 71.021 37.048 70.989 37.048C70.957 37.048 70.941 37.064 70.941 37.096C70.941 37.16 70.925 37.192 70.893 37.192L70.797 37.096L70.701 37.24C70.477 37.112 70.365 37.032 70.365 37C70.301 37.032 70.253 37.048 70.221 37.048C70.189 37.016 70.173 36.936 70.173 36.808L69.789 36.712C69.757 36.712 69.725 36.728 69.693 36.76C69.661 36.824 69.629 36.856 69.597 36.856C69.501 36.856 69.405 36.808 69.309 36.712C69.213 36.712 69.165 36.776 69.165 36.904H68.925C68.893 36.904 68.781 36.84 68.589 36.712C68.397 36.616 68.269 36.568 68.205 36.568C68.173 36.568 68.093 36.584 67.965 36.616C67.869 36.68 67.805 36.712 67.773 36.712H67.245C66.989 36.456 66.813 36.328 66.717 36.328L66.573 36.472C66.509 36.408 66.429 36.376 66.333 36.376H65.997C65.901 36.312 65.693 36.2 65.373 36.04C65.053 35.88 64.797 35.768 64.605 35.704C64.541 35.704 64.509 35.736 64.509 35.8C64.029 35.288 63.693 35.032 63.501 35.032H63.453C63.453 35.064 63.437 35.08 63.405 35.08C63.373 35.08 63.325 35.048 63.261 34.984L63.117 35.08C63.085 34.92 63.005 34.824 62.877 34.792C62.781 34.76 62.621 34.696 62.397 34.6C62.365 34.6 62.317 34.552 62.253 34.456C62.221 34.392 62.189 34.36 62.157 34.36C62.125 34.36 62.093 34.376 62.061 34.408C62.061 34.44 62.045 34.456 62.013 34.456L61.629 34.168V34.024C61.309 33.928 61.133 33.848 61.101 33.784C61.069 33.816 61.037 33.832 61.005 33.832C60.973 33.64 60.893 33.544 60.765 33.544C60.701 33.544 60.653 33.56 60.621 33.592C60.493 33.368 60.381 33.256 60.285 33.256V33.112L59.709 32.872C59.517 32.52 59.357 32.344 59.229 32.344H59.133C59.101 32.376 59.053 32.392 58.989 32.392L58.557 31.96C58.493 31.928 58.365 31.816 58.173 31.624V31.432C58.109 31.368 58.029 31.336 57.933 31.336C57.997 31.272 57.757 31 57.213 30.52C57.181 30.424 57.133 30.296 57.069 30.136C57.005 29.944 56.941 29.736 56.877 29.512C56.845 29.512 56.813 29.528 56.781 29.56C56.621 29.4 56.269 29.304 55.725 29.272C55.725 29.176 55.709 29.112 55.677 29.08C55.581 29.144 55.533 29.192 55.533 29.224C55.501 29.192 55.453 29.16 55.389 29.128C55.325 29.096 55.229 29.064 55.101 29.032L54.525 28.84C54.493 28.808 54.397 28.76 54.237 28.696C54.109 28.6 53.917 28.472 53.661 28.312L53.277 27.832L53.181 27.928L52.893 27.736V27.592C52.445 27.208 52.157 26.808 52.029 26.392C52.093 26.232 52.093 25.832 52.029 25.192L52.653 24.28C52.909 24.28 53.037 24.344 53.037 24.472C53.037 24.632 52.941 24.776 52.749 24.904C52.589 25.032 52.493 25.144 52.461 25.24C52.557 25.336 52.653 25.384 52.749 25.384C52.717 25.448 52.701 25.528 52.701 25.624C52.701 25.816 52.797 26.008 52.989 26.2C53.021 26.232 53.085 26.248 53.181 26.248C53.181 26.248 53.197 26.248 53.229 26.248C53.293 26.248 53.357 26.232 53.421 26.2H53.805V26.536C53.997 26.856 54.141 27.016 54.237 27.016C54.269 27.016 54.285 27 54.285 26.968C54.253 26.936 54.253 26.92 54.285 26.92C54.413 26.92 54.541 26.952 54.669 27.016C54.829 27.304 54.989 27.448 55.149 27.448C55.053 27.448 55.133 27.416 55.389 27.352L55.629 27.64C55.821 27.544 55.917 27.448 55.917 27.352C55.917 27.32 55.885 27.24 55.821 27.112C55.789 26.984 55.757 26.904 55.725 26.872V26.68C55.725 26.488 55.645 26.2 55.485 25.816V24.856L55.629 24.52C55.597 24.488 55.581 24.44 55.581 24.376L55.725 23.752C55.981 23.496 56.029 23.256 55.869 23.032C55.901 23 56.061 22.888 56.349 22.696C56.381 22.696 56.445 22.744 56.541 22.84L56.253 23.704C56.221 23.704 56.173 23.736 56.109 23.8C56.173 23.992 56.189 24.184 56.157 24.376L56.061 24.952L56.157 26.008C56.157 26.04 56.189 26.056 56.253 26.056C56.221 26.12 56.205 26.184 56.205 26.248C56.205 26.28 56.205 26.296 56.205 26.296L56.445 27.448L56.541 27.544C56.605 27.8 56.733 28.056 56.925 28.312C56.989 28.28 57.037 28.264 57.069 28.264C57.101 28.232 57.117 28.216 57.117 28.216L57.357 28.264C57.357 28.296 57.373 28.328 57.405 28.36H57.597L57.693 28.456C57.757 28.424 57.821 28.344 57.885 28.216C58.205 28.312 58.413 28.488 58.509 28.744C58.861 28.744 59.085 28.728 59.181 28.696C59.277 28.76 59.341 28.872 59.373 29.032C59.501 28.968 59.565 28.936 59.565 28.936C59.629 28.936 59.693 28.952 59.757 28.984C59.853 29.016 59.917 29.032 59.949 29.032C59.917 29.032 59.965 28.984 60.093 28.888H60.429C60.493 29.048 60.589 29.128 60.717 29.128C60.781 29.128 60.861 29.112 60.957 29.08C61.053 29.016 61.117 28.984 61.149 28.984C61.213 28.984 61.293 29.032 61.389 29.128C61.485 29.224 61.549 29.272 61.581 29.272L61.773 29.224C61.773 29.288 61.805 29.352 61.869 29.416C61.869 29.416 62.045 29.384 62.397 29.32C62.429 29.288 62.477 29.256 62.541 29.224C62.605 29.16 62.669 29.128 62.733 29.128C63.149 29.352 63.437 29.464 63.597 29.464C63.661 29.464 63.725 29.432 63.789 29.368V29.512C64.013 29.384 64.125 29.32 64.125 29.32L64.749 29.512C64.877 29.512 65.053 29.4 65.277 29.176C65.373 29.272 65.469 29.32 65.565 29.32C65.597 29.32 65.613 29.304 65.613 29.272H65.661C65.693 29.272 65.725 29.304 65.757 29.368C65.821 29.4 65.869 29.416 65.901 29.416C65.933 29.416 65.981 29.416 66.045 29.416C66.109 29.416 66.205 29.4 66.333 29.368H66.717C66.909 29.368 67.085 29.288 67.245 29.128C67.341 29.352 67.437 29.464 67.533 29.464H68.685C68.653 29.496 68.701 29.512 68.829 29.512C68.861 29.512 68.909 29.496 68.973 29.464C69.037 29.432 69.085 29.416 69.117 29.416C69.181 29.416 69.213 29.432 69.213 29.464C69.245 29.496 69.277 29.512 69.309 29.512C69.341 29.512 69.437 29.496 69.597 29.464C69.757 29.4 69.885 29.368 69.981 29.368C70.013 29.368 70.029 29.384 70.029 29.416C70.061 29.448 70.093 29.464 70.125 29.464C70.157 29.464 70.205 29.448 70.269 29.416C70.365 29.352 70.429 29.32 70.461 29.32C70.493 29.32 70.605 29.352 70.797 29.416L70.893 29.32C70.925 29.352 71.053 29.368 71.277 29.368C71.309 29.368 71.325 29.352 71.325 29.32C71.357 29.288 71.405 29.272 71.469 29.272C71.501 29.272 71.549 29.288 71.613 29.32C71.709 29.352 71.789 29.368 71.853 29.368L72.285 29.272C72.445 29.272 72.541 29.256 72.573 29.224L72.669 29.32C72.733 29.224 72.813 29.176 72.909 29.176C72.941 29.176 72.957 29.192 72.957 29.224C72.957 29.256 72.989 29.272 73.053 29.272C73.085 29.272 73.085 29.256 73.053 29.224C73.053 29.192 73.117 29.16 73.245 29.128H73.389C73.421 29.128 73.485 29.128 73.581 29.128C73.677 29.096 73.805 29.08 73.965 29.08H74.493C74.525 29.08 74.541 29.064 74.541 29.032C74.573 28.968 74.605 28.936 74.637 28.936H74.829C74.893 28.968 74.957 28.984 75.021 28.984L75.213 28.84C75.469 28.808 75.645 28.792 75.741 28.792C75.869 28.76 75.917 28.744 75.885 28.744C76.333 28.616 76.653 28.52 76.845 28.456C77.069 28.392 77.165 28.36 77.133 28.36C77.133 28.392 77.197 28.424 77.325 28.456C77.357 28.424 77.373 28.344 77.373 28.216C77.373 28.088 77.501 28.024 77.757 28.024C77.821 28.024 77.917 28.056 78.045 28.12C78.045 28.152 78.077 28.264 78.141 28.456C78.013 28.68 77.789 28.792 77.469 28.792C77.437 28.792 77.405 28.776 77.373 28.744H77.325C77.261 28.744 77.117 28.808 76.893 28.936C76.701 29.064 76.589 29.128 76.557 29.128C76.461 29.128 76.381 29.176 76.317 29.272L76.173 29.176C75.789 29.176 75.309 29.256 74.733 29.416C74.445 29.512 74.349 29.56 74.445 29.56C74.349 29.56 74.253 29.544 74.157 29.512H73.917C73.885 29.512 73.853 29.528 73.821 29.56C73.821 29.592 73.789 29.608 73.725 29.608C73.693 29.608 73.677 29.592 73.677 29.56H73.629C73.533 29.56 73.485 29.608 73.485 29.704C73.421 29.64 73.357 29.608 73.293 29.608L72.717 29.752C72.653 29.752 72.621 29.736 72.621 29.704L72.573 29.656C72.541 29.656 72.477 29.688 72.381 29.752C72.317 29.784 72.269 29.8 72.237 29.8H72.141C72.141 29.768 72.125 29.752 72.093 29.752C71.997 29.752 71.885 29.768 71.757 29.8C71.629 29.832 71.453 29.928 71.229 30.088C71.133 29.992 71.069 29.944 71.037 29.944C70.941 29.944 70.829 29.976 70.701 30.04C70.605 30.104 70.541 30.136 70.509 30.136H70.317C70.253 30.104 70.189 30.088 70.125 30.088C70.093 30.088 70.045 30.104 69.981 30.136C69.917 30.168 69.869 30.184 69.837 30.184C69.805 30.184 69.773 30.168 69.741 30.136C69.709 30.104 69.661 30.088 69.597 30.088C69.565 30.088 69.533 30.104 69.501 30.136C69.469 30.168 69.437 30.184 69.405 30.184C69.373 30.184 69.341 30.168 69.309 30.136C69.277 30.104 69.229 30.088 69.165 30.088C69.069 30.088 68.973 30.12 68.877 30.184C68.813 30.216 68.781 30.232 68.781 30.232H68.733C68.605 30.232 68.509 30.152 68.445 29.992C68.189 30.056 68.013 30.12 67.917 30.184C67.949 30.216 67.949 30.232 67.917 30.232C67.853 30.232 67.853 30.216 67.917 30.184C67.885 30.152 67.853 30.12 67.821 30.088C67.789 30.184 67.725 30.232 67.629 30.232C67.597 30.232 67.565 30.232 67.533 30.232C67.501 30.2 67.453 30.168 67.389 30.136C67.357 30.168 67.341 30.28 67.341 30.472C67.181 30.312 67.037 30.232 66.909 30.232C66.973 30.232 66.925 30.264 66.765 30.328C66.669 30.2 66.589 30.136 66.525 30.136H66.237L66.093 30.232L65.613 30.136C65.517 30.136 65.469 30.168 65.469 30.232L65.325 30.136C65.261 30.2 65.197 30.232 65.133 30.232C65.133 30.232 65.021 30.168 64.797 30.04C64.701 30.136 64.653 30.232 64.653 30.328H64.509L64.413 30.232C64.381 30.264 64.365 30.312 64.365 30.376L64.269 30.232C64.237 30.232 64.221 30.248 64.221 30.28C64.221 30.216 64.157 30.184 64.029 30.184C63.965 30.184 63.917 30.2 63.885 30.232C63.885 30.2 63.821 30.136 63.693 30.04L63.549 30.136C63.485 30.136 63.453 30.168 63.453 30.232C63.197 30.072 63.037 29.992 62.973 29.992C63.005 29.992 62.941 30.024 62.781 30.088C62.685 29.992 62.573 29.944 62.445 29.944C62.413 29.944 62.333 29.992 62.205 30.088C62.109 30.152 62.029 30.184 61.965 30.184C61.805 30.184 61.661 30.152 61.533 30.088C61.437 30.024 61.373 29.992 61.341 29.992C61.405 29.992 61.325 30.024 61.101 30.088C61.165 30.024 61.165 29.976 61.101 29.944C61.069 29.944 61.053 29.976 61.053 30.04H60.861L60.717 29.848L60.285 29.992L59.517 29.752C58.557 29.752 58.045 29.768 57.981 29.8C58.077 29.928 58.221 30.072 58.413 30.232V30.376C58.541 30.44 58.669 30.536 58.797 30.664C58.925 30.792 59.069 30.936 59.229 31.096C59.325 31.288 59.549 31.464 59.901 31.624C59.965 31.656 60.061 31.672 60.189 31.672C60.253 31.672 60.301 31.656 60.333 31.624H60.573V31.72C60.573 31.816 60.637 31.912 60.765 32.008C60.925 32.136 61.005 32.232 61.005 32.296C61.005 32.36 60.989 32.408 60.957 32.44C61.405 32.632 61.613 32.728 61.581 32.728C61.613 32.728 61.661 32.696 61.725 32.632C61.821 32.6 61.885 32.584 61.917 32.584C62.013 32.584 62.109 32.712 62.205 32.968L62.349 32.824H62.493C62.493 32.888 62.477 32.936 62.445 32.968C62.541 33 62.621 33.016 62.685 33.016C62.749 33.016 62.973 33.096 63.357 33.256C63.389 33.256 63.437 33.224 63.501 33.16C63.565 33.288 63.629 33.4 63.693 33.496C63.757 33.624 63.853 33.688 63.981 33.688H64.077C64.077 33.656 64.109 33.64 64.173 33.64C64.205 33.64 64.205 33.656 64.173 33.688C64.173 33.72 64.189 33.736 64.221 33.736C64.253 33.736 64.285 33.704 64.317 33.64C64.349 33.608 64.381 33.592 64.413 33.592C64.477 33.592 64.557 33.624 64.653 33.688C64.749 33.784 64.813 33.864 64.845 33.928C64.909 33.832 64.957 33.784 64.989 33.784C65.021 33.784 65.101 33.816 65.229 33.88C65.389 33.944 65.501 33.976 65.565 33.976C65.693 33.976 65.821 33.928 65.949 33.832C66.077 34.024 66.253 34.184 66.477 34.312L66.573 34.408C66.541 34.44 66.525 34.552 66.525 34.744L66.765 34.648L66.813 34.84C66.813 35 66.749 35.08 66.621 35.08H66.525C66.525 35.144 66.557 35.176 66.621 35.176C66.653 35.176 66.701 35.176 66.765 35.176C66.829 35.176 66.893 35.16 66.957 35.128H67.293C67.357 35.128 67.389 35.048 67.389 34.888H67.821C67.853 34.888 67.885 34.856 67.917 34.792C67.981 34.76 68.029 34.744 68.061 34.744L68.493 34.888L68.685 34.504C68.813 34.568 68.941 34.6 69.069 34.6C69.229 34.6 69.485 34.648 69.837 34.744L69.933 34.888V34.744C70.029 34.712 70.253 34.696 70.605 34.696C70.541 34.696 70.701 34.792 71.085 34.984C71.277 34.888 71.357 34.824 71.325 34.792H71.277C71.309 34.792 71.325 34.792 71.325 34.792C71.357 34.824 71.389 34.84 71.421 34.84C71.453 34.872 71.485 34.888 71.517 34.888C71.645 34.76 71.693 34.696 71.661 34.696C71.693 34.696 71.725 34.696 71.757 34.696C71.789 34.728 71.837 34.76 71.901 34.792C71.901 34.824 71.917 34.872 71.949 34.936C72.013 34.872 72.093 34.84 72.189 34.84C72.221 34.84 72.221 34.776 72.189 34.648C72.253 34.648 72.333 34.616 72.429 34.552C72.525 34.52 72.589 34.504 72.621 34.504C72.653 34.504 72.797 34.568 73.053 34.696C73.309 34.824 73.453 34.888 73.485 34.888H73.533C73.661 34.76 73.725 34.664 73.725 34.6C73.789 34.6 73.869 34.648 73.965 34.744C74.125 34.584 74.253 34.504 74.349 34.504C74.381 34.504 74.413 34.52 74.445 34.552C74.477 34.584 74.509 34.6 74.541 34.6C74.637 34.6 74.797 34.488 75.021 34.264H75.165C75.197 34.296 75.229 34.312 75.261 34.312H75.357C75.389 34.44 75.389 34.616 75.357 34.84L75.501 35.032C75.565 34.968 75.613 34.968 75.645 35.032L75.741 34.888V34.648C75.741 34.648 75.757 34.616 75.789 34.552C75.821 34.52 75.869 34.504 75.933 34.504C75.965 34.504 75.997 34.52 76.029 34.552C76.061 34.488 76.109 34.408 76.173 34.312C76.237 34.216 76.301 34.104 76.365 33.976C76.365 34.008 76.397 34.024 76.461 34.024C76.621 34.056 76.733 34.104 76.797 34.168C76.861 34.072 76.989 34.024 77.181 34.024L77.325 34.168L77.661 33.976V33.784L77.949 33.544C78.525 33.288 78.893 33.16 79.053 33.16L79.149 33.256C79.181 33.256 79.197 33.208 79.197 33.112C79.229 33.144 79.325 33.112 79.485 33.016C79.613 33.08 79.661 33.128 79.629 33.16C79.597 33.192 79.613 33.208 79.677 33.208H80.013C80.173 33.208 80.269 33.208 80.301 33.208C80.365 33.24 80.413 33.256 80.445 33.256C80.509 33.256 80.573 33.208 80.637 33.112C80.701 33.048 80.941 32.872 81.357 32.584C81.773 32.328 82.045 32.2 82.173 32.2C82.141 32.168 82.141 32.104 82.173 32.008C82.173 31.976 82.173 31.96 82.173 31.96V32.008C82.173 32.008 82.253 32.008 82.413 32.008C82.509 32.008 82.573 31.96 82.605 31.864L82.701 31.96L82.989 31.816C83.053 31.752 83.021 31.64 82.893 31.48V31.144L83.085 31.096C83.149 31.096 83.213 31.112 83.277 31.144C83.373 31.208 83.437 31.24 83.469 31.24C83.597 31.176 83.805 31.08 84.093 30.952C84.381 30.824 84.541 30.696 84.573 30.568V30.52C84.573 30.424 84.605 30.296 84.669 30.136C84.765 29.976 84.845 29.896 84.909 29.896C84.973 29.896 85.021 29.912 85.053 29.944H85.149C85.213 29.944 85.357 29.848 85.581 29.656C85.613 29.624 85.629 29.576 85.629 29.512C85.629 29.448 85.645 29.368 85.677 29.272C85.677 29.272 85.789 29.352 86.013 29.512C86.045 29.512 86.077 29.496 86.109 29.464C86.173 29.4 86.237 29.368 86.301 29.368V28.696C86.365 28.664 86.429 28.632 86.493 28.6C86.589 28.568 86.701 28.52 86.829 28.456C86.925 28.392 87.021 28.248 87.117 28.024H87.405C87.405 27.96 87.437 27.848 87.501 27.688C87.469 27.688 87.469 27.672 87.501 27.64V27.688C87.501 27.688 87.533 27.688 87.597 27.688C87.501 27.688 87.549 27.656 87.741 27.592C87.677 27.368 87.597 27.24 87.501 27.208C87.533 27.176 87.549 27.128 87.549 27.064H87.837C87.837 26.968 87.805 26.888 87.741 26.824C87.805 26.728 87.917 26.632 88.077 26.536C88.269 26.44 88.365 26.328 88.365 26.2C88.365 26.136 88.365 26.072 88.365 26.008C88.365 25.912 88.333 25.816 88.269 25.72C88.269 25.656 88.285 25.592 88.317 25.528H88.365C88.589 25.528 88.701 25.256 88.701 24.712C88.701 24.328 88.637 24.024 88.509 23.8C88.509 23.768 88.525 23.736 88.557 23.704C88.525 23.64 88.445 23.496 88.317 23.272C88.221 23.048 88.045 22.776 87.789 22.456L87.357 21.88C86.909 21.432 86.653 21.208 86.589 21.208C86.525 21.208 86.509 21.224 86.541 21.256C86.541 21.288 86.541 21.304 86.541 21.304C86.541 21.304 86.541 21.288 86.541 21.256C86.445 21.096 86.333 21.016 86.205 21.016C86.173 21.016 86.141 21.032 86.109 21.064C86.077 20.84 85.997 20.728 85.869 20.728H85.821C85.821 20.76 85.805 20.776 85.773 20.776C85.741 20.776 85.677 20.728 85.581 20.632C85.485 20.536 85.421 20.488 85.389 20.488H85.341C85.341 20.52 85.325 20.536 85.293 20.536C85.389 20.536 85.357 20.488 85.197 20.392C85.101 20.392 84.813 20.296 84.333 20.104C83.885 19.912 83.549 19.816 83.325 19.816C83.325 19.72 83.293 19.672 83.229 19.672C83.197 19.672 83.181 19.688 83.181 19.72C83.181 19.752 83.165 19.768 83.133 19.768C83.101 19.768 82.893 19.688 82.509 19.528H82.269C82.237 19.528 82.205 19.528 82.173 19.528C82.141 19.496 82.045 19.464 81.885 19.432C81.853 19.432 81.821 19.448 81.789 19.48L81.693 19.336C81.693 19.336 81.661 19.304 81.597 19.24C81.533 19.304 81.469 19.336 81.405 19.336C81.341 19.336 81.197 19.288 80.973 19.192C80.781 19.096 80.669 19.048 80.637 19.048C80.573 19.048 80.493 19.064 80.397 19.096H80.109C80.077 19.096 80.045 19.08 80.013 19.048C79.981 19.016 79.949 19 79.917 19C79.853 19 79.741 19 79.581 19C79.453 19 79.293 18.984 79.101 18.952L78.957 18.808H78.861L78.765 18.712L78.573 18.856C78.413 18.696 78.237 18.616 78.045 18.616H77.853C77.789 18.648 77.725 18.664 77.661 18.664C77.629 18.664 77.613 18.648 77.613 18.616C77.645 18.584 77.645 18.568 77.613 18.568C77.581 18.568 77.549 18.552 77.517 18.52C77.517 18.488 77.501 18.472 77.469 18.472L77.133 18.568C77.101 18.568 77.021 18.536 76.893 18.472C76.765 18.376 76.669 18.328 76.605 18.328H76.509C76.477 18.328 76.365 18.312 76.173 18.28C76.013 18.248 75.773 18.2 75.453 18.136L74.397 17.896L74.253 17.944C74.157 17.944 73.869 17.832 73.389 17.608C72.941 17.384 72.685 17.272 72.621 17.272H72.525C72.493 17.304 72.461 17.32 72.429 17.32C72.301 17.32 72.109 17.24 71.853 17.08V17.176C71.693 17.112 71.133 16.936 70.173 16.648C69.661 16.392 68.941 16.008 68.013 15.496C67.853 15.304 67.741 15.096 67.677 14.872V14.488C67.549 14.2 67.405 14.008 67.245 13.912C67.309 13.72 67.277 13.592 67.149 13.528C67.213 13.368 67.197 13.208 67.101 13.048L67.245 12.04C67.309 11.976 67.357 11.864 67.389 11.704C67.421 11.512 67.533 11.144 67.725 10.6C67.757 10.536 67.773 10.472 67.773 10.408C67.773 10.344 67.789 10.264 67.821 10.168C67.821 10.2 67.837 10.232 67.869 10.264C67.901 10.232 67.949 10.152 68.013 10.024C68.077 9.864 68.205 9.736 68.397 9.64C68.397 9.576 68.429 9.48 68.493 9.352C68.589 9.224 68.765 8.984 69.021 8.632C69.245 8.536 69.501 8.28 69.789 7.864C70.077 7.448 70.333 7.16 70.557 7L70.989 6.856L71.181 6.616L72.189 6.04C72.253 5.976 72.397 5.928 72.621 5.896L72.717 5.8C72.845 5.8 72.909 5.752 72.909 5.656L73.005 5.752C73.005 5.72 73.181 5.624 73.533 5.464L73.917 5.272C74.013 5.176 74.141 5.112 74.301 5.08C74.365 5.048 74.429 5.032 74.493 5.032C74.557 5.032 74.637 5.016 74.733 4.984C74.765 4.984 74.797 4.952 74.829 4.888C74.893 4.824 74.941 4.792 74.973 4.792C75.005 4.792 75.021 4.808 75.021 4.84H75.069C75.037 4.84 75.133 4.776 75.357 4.648C75.805 4.328 76.365 4.152 77.037 4.12C77.069 4.12 77.117 4.088 77.181 4.024C77.245 3.96 77.293 3.928 77.325 3.928H77.421C77.453 3.96 77.485 3.976 77.517 3.976C77.581 3.976 77.645 3.96 77.709 3.928C77.773 3.864 77.837 3.832 77.901 3.832C77.773 3.832 77.917 3.768 78.333 3.64C78.781 3.48 79.325 3.4 79.965 3.4C80.061 3.4 80.157 3.384 80.253 3.352H80.589C80.621 3.352 80.637 3.336 80.637 3.304H80.685C80.845 3.304 81.005 3.288 81.165 3.256C81.325 3.224 81.421 3.144 81.453 3.016L81.549 3.112C81.645 2.952 81.725 2.952 81.789 3.112V3.016H82.029C82.061 3.016 82.077 3.032 82.077 3.064C82.109 3.096 82.141 3.112 82.173 3.112C82.269 3.112 82.317 3.08 82.317 3.016L82.509 3.16C82.765 2.872 82.957 2.728 83.085 2.728L83.421 2.824C83.485 2.824 83.517 2.808 83.517 2.776C83.517 2.744 83.533 2.728 83.565 2.728C83.597 2.728 83.693 2.76 83.853 2.824C84.045 2.888 84.173 2.92 84.237 2.92C84.269 2.92 84.333 2.888 84.429 2.824C84.525 2.728 84.589 2.68 84.621 2.68C84.845 2.712 85.005 2.76 85.101 2.824C85.229 2.856 85.421 2.92 85.677 3.016C85.837 2.824 85.933 2.728 85.965 2.728C86.029 2.728 86.189 2.792 86.445 2.92L86.637 2.776C86.605 2.808 86.589 2.856 86.589 2.92C86.621 2.952 86.653 2.968 86.685 2.968H86.973C87.037 2.968 87.037 2.92 86.973 2.824C87.101 2.952 87.213 3.016 87.309 3.016C87.341 3.016 87.357 3 87.357 2.968H87.405C87.373 2.968 87.421 3.016 87.549 3.112C87.517 3.112 87.533 3.128 87.597 3.16C87.661 3.16 87.757 3.176 87.885 3.208C87.949 3.272 87.997 3.4 88.029 3.592C88.061 3.56 88.077 3.512 88.077 3.448C88.077 3.512 88.093 3.56 88.125 3.592L89.133 4.024C89.133 4.216 89.277 4.408 89.565 4.6C89.533 4.728 89.613 4.968 89.805 5.32C90.029 5.672 90.109 5.912 90.045 6.04C90.173 6.264 90.237 6.456 90.237 6.616C90.237 6.936 90.189 7.24 90.093 7.528C89.997 7.656 89.885 7.864 89.757 8.152C89.661 8.44 89.405 8.76 88.989 9.112C88.509 9.528 88.221 9.848 88.125 10.072L86.829 11.08C86.765 11.144 86.717 11.208 86.685 11.272C86.653 11.304 86.637 11.32 86.637 11.32C86.573 11.32 86.541 11.304 86.541 11.272C86.573 11.24 86.557 11.224 86.493 11.224C86.525 11.224 86.333 11.336 85.917 11.56L85.581 11.656C85.485 11.72 85.357 11.816 85.197 11.944C85.069 12.04 84.893 12.168 84.669 12.328C84.541 12.36 84.397 12.424 84.237 12.52C84.077 12.584 83.885 12.68 83.661 12.808C83.661 12.712 83.613 12.664 83.517 12.664L84.429 11.896C84.493 11.896 84.573 11.88 84.669 11.848L85.533 11.08L85.917 10.888C86.045 10.856 86.109 10.76 86.109 10.6H86.205C86.557 10.6 86.829 10.296 87.021 9.688C87.117 9.688 87.181 9.704 87.213 9.736C87.245 9.64 87.309 9.544 87.405 9.448C87.501 9.352 87.629 9.224 87.789 9.064C87.981 8.808 88.189 8.504 88.413 8.152C88.637 7.768 88.861 7.368 89.085 6.952C89.085 6.952 89.053 6.888 88.989 6.76C89.021 6.696 89.085 6.616 89.181 6.52C89.277 6.392 89.325 6.312 89.325 6.28C89.325 6.28 89.293 6.216 89.229 6.088V5.416C89.229 5.192 89.117 4.968 88.893 4.744C88.829 4.776 88.781 4.792 88.749 4.792L88.797 4.6C88.797 4.504 88.589 4.344 88.173 4.12C87.661 3.8 87.341 3.64 87.213 3.64H87.069C87.037 3.672 86.989 3.688 86.925 3.688C86.861 3.688 86.749 3.656 86.589 3.592C86.461 3.528 86.381 3.496 86.349 3.496C86.317 3.496 86.301 3.512 86.301 3.544C86.301 3.576 86.285 3.592 86.253 3.592L85.197 3.352C85.165 3.352 85.149 3.368 85.149 3.4C85.149 3.432 85.133 3.448 85.101 3.448C85.069 3.448 85.021 3.432 84.957 3.4C84.893 3.368 84.829 3.352 84.765 3.352C84.733 3.352 84.701 3.368 84.669 3.4C84.669 3.432 84.653 3.448 84.621 3.448C84.589 3.448 84.573 3.432 84.573 3.4H84.477C84.445 3.4 84.429 3.416 84.429 3.448C84.429 3.48 84.413 3.496 84.381 3.496C84.349 3.496 84.317 3.48 84.285 3.448C84.285 3.416 84.269 3.4 84.237 3.4C84.205 3.4 84.189 3.416 84.189 3.448H84.237L83.469 3.592C83.405 3.592 83.325 3.592 83.229 3.592C83.133 3.592 83.021 3.608 82.893 3.64L82.749 3.544C82.237 3.736 81.853 3.832 81.597 3.832C81.533 3.832 81.501 3.816 81.501 3.784H81.453C81.389 3.784 81.165 3.848 80.781 3.976C80.429 4.104 80.237 4.168 80.205 4.168C80.173 4.168 80.173 4.152 80.205 4.12C80.205 4.088 80.189 4.072 80.157 4.072C80.189 4.072 80.205 4.072 80.205 4.072C80.205 4.04 80.205 4.024 80.205 4.024C80.205 3.992 80.093 4.008 79.869 4.072C79.645 4.136 79.421 4.216 79.197 4.312C79.005 4.376 78.893 4.44 78.861 4.504H78.813C78.813 4.472 78.797 4.456 78.765 4.456C78.573 4.456 78.397 4.584 78.237 4.84C78.237 4.808 78.253 4.776 78.285 4.744L78.093 4.648L77.853 4.984L77.757 4.888C77.885 4.888 77.613 5.016 76.941 5.272C76.909 5.304 76.893 5.32 76.893 5.32C76.893 5.32 76.893 5.336 76.893 5.368C76.861 5.336 76.861 5.32 76.893 5.32C76.861 5.32 76.845 5.32 76.845 5.32C76.845 5.352 76.605 5.464 76.125 5.656L75.597 5.848L75.261 6.088L72.525 8.104C72.205 8.328 71.965 8.584 71.805 8.872C71.677 9.128 71.517 9.416 71.325 9.736L71.181 9.64C71.149 9.8 70.989 9.96 70.701 10.12C70.733 10.088 70.749 10.168 70.749 10.36C70.749 10.424 70.653 10.536 70.461 10.696V10.84C70.461 11.032 70.477 11.192 70.509 11.32C70.477 11.416 70.445 11.544 70.413 11.704C70.413 11.832 70.349 12.072 70.221 12.424C70.221 12.456 70.221 12.504 70.221 12.568C70.221 12.632 70.237 12.696 70.269 12.76C70.237 12.888 70.205 12.984 70.173 13.048C70.173 13.08 70.173 13.08 70.173 13.048C70.173 13.336 70.189 13.448 70.221 13.384C70.573 13.512 70.717 13.8 70.653 14.248C70.813 14.408 70.893 14.488 70.893 14.488C70.925 14.488 70.941 14.472 70.941 14.44H70.989C71.053 14.44 71.133 14.488 71.229 14.584C71.325 14.68 71.453 14.728 71.613 14.728C71.581 14.76 71.597 14.872 71.661 15.064C71.757 15.256 71.837 15.352 71.901 15.352C71.933 15.352 71.949 15.336 71.949 15.304H71.997C72.029 15.304 72.173 15.4 72.429 15.592C72.685 15.784 72.829 15.88 72.861 15.88H72.909C72.909 15.848 72.925 15.832 72.957 15.832C72.989 15.832 73.165 15.96 73.485 16.216C73.837 16.44 74.045 16.552 74.109 16.552C74.141 16.552 74.349 16.472 74.733 16.312L75.309 16.936C75.341 16.904 75.357 16.856 75.357 16.792C75.613 17.08 75.853 17.224 76.077 17.224C76.141 17.224 76.205 17.256 76.269 17.32L76.365 17.176C76.365 17.24 76.397 17.272 76.461 17.272C76.493 17.272 76.509 17.256 76.509 17.224H76.557C76.973 17.48 77.197 17.608 77.229 17.608C77.261 17.608 77.309 17.592 77.373 17.56C77.437 17.528 77.485 17.512 77.517 17.512C77.581 17.512 77.693 17.592 77.853 17.752C77.885 17.72 77.901 17.688 77.901 17.656C78.061 17.816 78.333 17.896 78.717 17.896C79.005 18.088 79.245 18.184 79.437 18.184C79.629 18.184 79.741 18.2 79.773 18.232L80.109 18.376C80.141 18.376 80.221 18.36 80.349 18.328C80.477 18.296 80.573 18.28 80.637 18.28C80.989 18.344 81.229 18.408 81.357 18.472C81.485 18.504 81.501 18.52 81.405 18.52C81.437 18.52 81.469 18.504 81.501 18.472L81.597 18.568L82.029 18.856C82.093 18.856 82.141 18.904 82.173 19L82.413 18.808C82.509 18.904 82.525 18.952 82.461 18.952L82.365 19.048L82.557 19.192C82.717 19.064 82.877 19 83.037 19C83.005 19 82.989 19 82.989 19C83.021 19 83.053 19 83.085 19H83.037C82.909 19 83.005 19.048 83.325 19.144C83.517 19.208 83.629 19.272 83.661 19.336H84.189C84.253 19.528 84.349 19.624 84.477 19.624C84.541 19.624 84.557 19.608 84.525 19.576C84.525 19.544 84.541 19.528 84.573 19.528C84.637 19.528 84.765 19.576 84.957 19.672C84.989 19.672 85.037 19.72 85.101 19.816C85.165 19.912 85.229 19.96 85.293 19.96C85.325 19.96 85.341 19.944 85.341 19.912H85.389C85.453 19.912 85.549 20.024 85.677 20.248C85.709 20.216 85.725 20.184 85.725 20.152L86.157 20.44C86.189 20.44 86.237 20.44 86.301 20.44C86.365 20.44 86.445 20.456 86.541 20.488C86.573 20.52 86.621 20.6 86.685 20.728C86.781 20.824 86.861 20.872 86.925 20.872C86.957 20.872 86.973 20.856 86.973 20.824H87.021C87.053 20.824 87.085 20.872 87.117 20.968C87.149 21.032 87.197 21.064 87.261 21.064C87.325 21.032 87.373 21.016 87.405 21.016C87.405 21.048 87.533 21.192 87.789 21.448C87.757 21.448 87.885 21.64 88.173 22.024C88.333 22.184 88.461 22.296 88.557 22.36C88.685 22.392 88.861 22.552 89.085 22.84C89.053 22.872 89.037 22.968 89.037 23.128L89.469 23.512C89.469 23.544 89.549 23.768 89.709 24.184C89.869 24.568 89.949 24.952 89.949 25.336C89.949 25.56 89.917 25.784 89.853 26.008C89.821 26.232 89.773 26.472 89.709 26.728C89.645 27.016 89.629 27.176 89.661 27.208C89.565 27.24 89.453 27.432 89.325 27.784C89.197 28.168 88.973 28.6 88.653 29.08C88.621 29.112 88.525 29.224 88.365 29.416C88.237 29.576 88.029 29.816 87.741 30.136L87.597 30.52C87.533 30.616 87.437 30.728 87.309 30.856C87.181 30.984 87.037 31.128 86.877 31.288L86.301 31.624C85.757 32.008 85.485 32.248 85.485 32.344V32.296H85.437C85.501 32.296 85.421 32.36 85.197 32.488C85.197 32.52 85.165 32.568 85.101 32.632C85.069 32.728 84.973 32.84 84.813 32.968C84.749 32.968 84.621 33 84.429 33.064C84.365 33.128 84.269 33.208 84.141 33.304C84.013 33.432 83.869 33.56 83.709 33.688L83.229 33.832C83.229 33.832 83.149 33.912 82.989 34.072C82.861 34.232 82.733 34.312 82.605 34.312C82.637 34.312 82.621 34.28 82.557 34.216H82.509C82.477 34.216 82.461 34.28 82.461 34.408H82.365C82.397 34.408 82.301 34.472 82.077 34.6C81.949 34.696 81.757 34.792 81.501 34.888C81.245 34.984 80.973 35.144 80.685 35.368C80.525 35.368 80.429 35.384 80.397 35.416L80.301 35.32C80.269 35.448 80.173 35.512 80.013 35.512C79.981 35.512 79.965 35.496 79.965 35.464H79.917C79.885 35.464 79.805 35.512 79.677 35.608C79.581 35.736 79.517 35.8 79.485 35.8L79.005 35.704C79.005 35.704 78.925 35.8 78.765 35.992C78.605 36.184 78.413 36.28 78.189 36.28C78.157 36.28 78.141 36.264 78.141 36.232L78.093 36.184C78.029 36.184 77.981 36.2 77.949 36.232C77.917 36.296 77.885 36.328 77.853 36.328H77.805C77.805 36.296 77.789 36.28 77.757 36.28C77.725 36.28 77.661 36.312 77.565 36.376C77.469 36.44 77.389 36.472 77.325 36.472H77.229C77.197 36.44 77.165 36.424 77.133 36.424C77.005 36.424 76.717 36.552 76.269 36.808L76.077 36.52C75.981 36.744 75.853 36.856 75.693 36.856C75.629 36.856 75.549 36.808 75.453 36.712H75.357C75.293 36.712 75.261 36.728 75.261 36.76C75.293 36.792 75.293 36.808 75.261 36.808H75.213C75.213 36.776 75.197 36.76 75.165 36.76C75.133 36.76 75.005 36.824 74.781 36.952C74.557 37.08 74.397 37.144 74.301 37.144C74.301 37.08 74.237 37.032 74.109 37C74.013 36.968 73.885 36.904 73.725 36.808L73.533 37.048H73.485L73.389 37.144C73.165 37.112 72.941 37 72.717 36.808V36.904H72.429C72.333 36.872 72.253 36.856 72.189 36.856C72.157 36.856 72.061 36.92 71.901 37.048C71.773 37.208 71.677 37.288 71.613 37.288ZM78.813 28.168C78.717 28.232 78.637 28.184 78.573 28.024L78.621 27.64H78.909C78.909 27.704 78.893 27.784 78.861 27.88C78.861 27.944 78.845 28.04 78.813 28.168ZM60.333 32.2H60.429V32.008H60.333V32.2ZM93.5374 30.952C93.5374 30.952 93.5534 30.952 93.5854 30.952C93.5534 30.856 93.3774 30.728 93.0574 30.568C93.0894 30.504 93.1054 30.456 93.1054 30.424C93.1054 30.36 93.1054 30.328 93.1054 30.328C93.1054 30.296 93.0894 30.264 93.0574 30.232V30.136C93.0574 30.008 93.0094 29.848 92.9134 29.656V29.032C93.0414 28.968 93.1214 28.824 93.1534 28.6C93.1534 28.536 93.1694 28.488 93.2014 28.456C93.1694 28.328 93.1534 28.232 93.1534 28.168C93.1534 28.104 93.1534 28.056 93.1534 28.024L93.2974 27.832C93.3934 27.448 93.4414 27.064 93.4414 26.68L93.5854 26.488L93.8254 25.432L94.1134 24.712L94.3054 24.568C94.3054 24.312 94.3694 24.04 94.4974 23.752V23.656C94.4654 23.624 94.4334 23.608 94.4014 23.608C94.3374 23.608 93.8574 23.912 92.9614 24.52C92.8014 24.648 92.6414 24.712 92.4814 24.712H92.4334C92.4334 24.68 92.4174 24.664 92.3854 24.664C92.3534 24.664 92.2574 24.728 92.0974 24.856C91.9694 24.984 91.8734 25.048 91.8094 25.048C91.8414 25.016 91.7934 24.984 91.6654 24.952C91.7934 24.856 91.8574 24.776 91.8574 24.712C92.4654 24.584 92.9614 24.248 93.3454 23.704C93.4414 23.672 93.6334 23.544 93.9214 23.32C93.9854 23.288 94.0654 23.256 94.1614 23.224C94.2574 23.192 94.3374 23.096 94.4014 22.936L94.6414 22.744C94.6414 22.744 94.6894 22.728 94.7854 22.696C94.8814 22.632 95.0094 22.536 95.1694 22.408C95.1694 22.28 95.2654 22.072 95.4574 21.784C95.5854 21.624 95.6654 21.384 95.6974 21.064C95.8254 21 95.8894 20.92 95.8894 20.824C95.9214 20.728 95.9534 20.616 95.9854 20.488C96.1774 20.136 96.2734 19.832 96.2734 19.576H96.4654C96.4974 19.576 96.5134 19.56 96.5134 19.528C96.5134 19.528 96.4974 19.496 96.4654 19.432C96.4654 19.368 96.4654 19.272 96.4654 19.144C96.4654 19.016 96.5454 18.76 96.7054 18.376C96.8654 17.992 96.9454 17.816 96.9454 17.848C97.0094 17.752 97.0734 17.704 97.1374 17.704C97.2334 17.704 97.2974 17.784 97.3294 17.944C97.3614 18.104 97.3774 18.2 97.3774 18.232C97.5054 18.2 97.5694 18.072 97.5694 17.848V17.32C97.6014 17.288 97.6654 17.224 97.7614 17.128C97.8574 17 97.9214 16.712 97.9534 16.264C98.2734 15.944 98.5934 15.288 98.9134 14.296C99.0094 14.296 99.0734 14.312 99.1054 14.344V14.152C99.2654 13.864 99.4574 13.528 99.6814 13.144C99.9374 12.728 100.225 12.28 100.545 11.8L100.833 11.176C100.993 10.824 101.217 10.424 101.505 9.976C101.793 9.528 102.129 9.048 102.513 8.536C102.673 8.376 102.865 8.232 103.089 8.104C103.153 8.04 103.217 7.944 103.281 7.816C103.377 7.688 103.489 7.544 103.617 7.384C103.713 7.416 103.777 7.448 103.809 7.48C103.777 7.48 103.905 7.368 104.193 7.144C104.353 7.08 104.497 6.968 104.625 6.808L104.577 6.568L104.769 5.944C104.801 5.944 104.865 5.912 104.961 5.848C105.057 5.752 105.121 5.704 105.153 5.704C105.217 5.704 105.281 5.704 105.345 5.704C105.441 5.672 105.521 5.656 105.585 5.656C106.321 5.656 106.785 6.008 106.977 6.712L107.217 7.528L106.833 7.72L106.161 8.392C106.065 8.424 105.953 8.504 105.825 8.632C105.697 8.728 105.553 8.824 105.393 8.92L104.433 9.784C104.433 9.816 104.401 9.896 104.337 10.024C104.241 10.056 104.049 10.184 103.761 10.408C103.665 10.632 103.457 10.888 103.137 11.176C103.073 11.4 102.977 11.576 102.849 11.704C102.241 12.504 101.665 13.176 101.121 13.72C101.089 13.72 101.041 13.784 100.977 13.912C100.913 14.008 100.785 14.152 100.593 14.344C100.561 14.376 100.545 14.488 100.545 14.68C100.481 14.648 100.385 14.728 100.257 14.92C100.129 15.112 100.065 15.208 100.065 15.208V15.4C99.9374 15.528 99.8254 15.688 99.7294 15.88C99.7614 15.976 99.7774 16.056 99.7774 16.12C99.5854 16.248 99.3934 16.408 99.2014 16.6L98.7214 17.656C98.7214 17.784 98.7054 17.896 98.6734 17.992C98.5774 17.992 98.4014 18.088 98.1454 18.28C97.9854 18.664 97.9214 18.92 97.9534 19.048C97.7614 19.112 97.6334 19.224 97.5694 19.384L97.0894 20.44C97.0894 20.504 97.1374 20.584 97.2334 20.68C97.3934 20.552 97.5694 20.392 97.7614 20.2C97.9854 19.976 98.2254 19.736 98.4814 19.48C98.5454 19.416 98.5454 19.368 98.4814 19.336C98.7374 19.176 98.9774 19 99.2014 18.808C99.4574 18.616 99.6014 18.376 99.6334 18.088C99.8254 17.896 99.9374 17.752 99.9694 17.656C100.001 17.688 100.033 17.704 100.065 17.704C100.257 17.672 100.369 17.592 100.401 17.464C100.433 17.304 100.609 17.176 100.929 17.08C101.281 16.664 101.505 16.344 101.601 16.12L101.889 15.496C101.889 15.4 101.905 15.336 101.937 15.304C102.129 15.208 102.209 15.16 102.177 15.16C102.209 15.16 102.241 15.176 102.273 15.208H102.369C102.529 15.208 102.657 15.08 102.753 14.824L102.945 14.728C102.945 14.6 103.057 14.456 103.281 14.296C103.537 14.104 103.713 13.944 103.809 13.816V13.672L104.625 12.424C104.593 12.392 104.577 12.264 104.577 12.04L105.297 11.608C105.393 11.224 105.633 10.824 106.017 10.408C105.985 10.376 105.969 10.328 105.969 10.264C105.969 10.2 106.017 10.12 106.113 10.024C106.209 9.928 106.353 9.88 106.545 9.88C106.545 9.848 106.561 9.816 106.593 9.784L106.737 9.304C107.249 8.568 107.505 8.024 107.505 7.672C107.569 7.64 107.665 7.528 107.793 7.336C108.017 7.336 108.145 7.112 108.177 6.664C108.305 6.44 108.417 6.184 108.513 5.896C108.609 5.608 108.721 5.288 108.849 4.936C109.009 4.68 109.089 4.344 109.089 3.928C109.153 3.928 109.185 3.896 109.185 3.832C109.185 3.768 109.137 3.688 109.041 3.592C108.977 3.464 108.945 3.4 108.945 3.4C108.913 3.336 108.897 3.272 108.897 3.208C108.897 3.016 109.009 2.872 109.233 2.776C109.233 2.744 109.249 2.728 109.281 2.728L109.425 3.208C109.457 3.24 109.473 3.4 109.473 3.688C109.441 4.04 109.409 4.312 109.377 4.504C109.377 4.664 109.345 4.824 109.281 4.984C109.249 5.144 109.153 5.432 108.993 5.848C108.961 5.944 108.993 6.024 109.089 6.088L108.945 6.52C108.913 6.648 108.849 6.824 108.753 7.048C108.657 7.272 108.561 7.528 108.465 7.816C108.305 7.912 108.113 8.264 107.889 8.872C107.857 8.872 107.825 8.856 107.793 8.824C107.633 8.984 107.601 9.144 107.697 9.304V9.448C107.537 9.608 107.393 9.816 107.265 10.072C107.137 10.296 107.009 10.552 106.881 10.84C106.753 10.968 106.593 11.256 106.401 11.704C106.401 11.704 106.369 11.736 106.305 11.8C106.145 11.864 105.857 12.184 105.441 12.76C105.313 12.984 105.185 13.192 105.057 13.384C104.929 13.576 104.801 13.768 104.673 13.96C104.641 13.96 104.593 13.992 104.529 14.056C104.465 14.088 104.401 14.104 104.337 14.104C104.305 14.104 104.289 14.088 104.289 14.056H104.241C104.145 14.056 104.001 14.2 103.809 14.488V14.776L103.473 15.256C103.377 15.256 103.297 15.304 103.233 15.4L102.225 16.408C102.225 16.408 102.193 16.504 102.129 16.696C101.969 16.92 101.601 17.208 101.025 17.56L100.737 17.896L99.5854 19.096H99.4414L98.5774 20.104C98.1934 20.36 97.9694 20.568 97.9054 20.728C97.6814 20.824 97.4894 20.952 97.3294 21.112C97.1694 21.272 97.0254 21.416 96.8974 21.544H96.8014C95.9694 22.376 95.4574 23.352 95.2654 24.472C95.2014 24.536 95.0734 24.824 94.8814 25.336C94.8174 25.496 94.7374 25.704 94.6414 25.96C94.5774 26.184 94.4974 26.456 94.4014 26.776C94.3694 26.84 94.3214 26.952 94.2574 27.112C94.1934 27.24 94.1294 27.384 94.0654 27.544C94.0654 27.608 94.0654 27.688 94.0654 27.784C94.0654 27.848 94.0494 27.944 94.0174 28.072L93.8254 28.456C93.6974 28.68 93.6174 28.92 93.5854 29.176C93.5534 29.432 93.5374 29.64 93.5374 29.8C93.5374 30.056 93.6494 30.184 93.8734 30.184C94.0334 30.184 94.1774 30.136 94.3054 30.04C94.3054 29.944 94.2734 29.864 94.2094 29.8C94.2414 29.8 94.2894 29.784 94.3534 29.752C94.4494 29.688 94.5774 29.576 94.7374 29.416C94.7374 29.416 94.7534 29.4 94.7854 29.368C94.8494 29.336 94.8974 29.288 94.9294 29.224C95.0894 29.16 95.3774 28.904 95.7934 28.456C96.1134 28.104 96.2734 27.896 96.2734 27.832C96.2734 27.832 96.3054 27.864 96.3694 27.928L96.6574 27.64C96.7214 27.64 96.8974 27.48 97.1854 27.16L97.8574 26.584C97.8574 26.584 97.8734 26.584 97.9054 26.584C97.9374 26.584 97.9694 26.568 98.0014 26.536C98.0334 26.44 98.2414 26.2 98.6254 25.816C98.6894 25.784 98.7694 25.736 98.8654 25.672C98.9934 25.608 99.1374 25.528 99.2974 25.432C99.3294 25.24 99.3934 25.128 99.4894 25.096C99.5854 25.064 99.7774 24.968 100.065 24.808C100.385 24.648 100.561 24.568 100.593 24.568C100.625 24.568 100.641 24.584 100.641 24.616H100.737C100.801 24.616 100.865 24.568 100.929 24.472C101.025 24.376 101.185 24.312 101.409 24.28C101.441 24.152 101.537 24.088 101.697 24.088C101.857 24.088 101.953 24.152 101.985 24.28C102.017 24.28 102.049 24.264 102.081 24.232C102.145 24.2 102.193 24.184 102.225 24.184C102.289 24.184 102.337 24.2 102.369 24.232C102.401 24.264 102.433 24.28 102.465 24.28C102.497 24.28 102.513 24.264 102.513 24.232C102.545 24.2 102.593 24.184 102.657 24.184C102.561 24.184 102.705 24.264 103.089 24.424C103.121 24.52 103.217 24.696 103.377 24.952C103.569 25.208 103.777 25.384 104.001 25.48C104.001 25.576 104.193 25.816 104.577 26.2C104.641 26.264 104.705 26.36 104.769 26.488C104.865 26.616 104.977 26.76 105.105 26.92C105.265 27.016 105.393 27.144 105.489 27.304L105.681 27.64C105.681 27.672 105.761 27.736 105.921 27.832C106.177 28.056 106.513 28.296 106.929 28.552C106.961 28.584 106.993 28.632 107.025 28.696C107.089 28.728 107.137 28.744 107.169 28.744C107.201 28.744 107.249 28.728 107.313 28.696C107.345 28.824 107.473 28.936 107.697 29.032H107.745C107.745 29 107.761 28.984 107.793 28.984C107.825 28.984 107.873 29.016 107.937 29.08C108.001 29.144 108.081 29.176 108.177 29.176H108.369C108.465 29.176 108.481 29.128 108.417 29.032L108.657 29.08L108.753 29.176C108.977 29.016 109.057 28.888 108.993 28.792C109.217 28.824 109.345 28.824 109.377 28.792C109.473 28.824 109.521 28.92 109.521 29.08C109.521 29.144 109.409 29.336 109.185 29.656C109.089 29.688 108.945 29.752 108.753 29.848C108.561 29.944 108.449 29.992 108.417 29.992C108.385 29.992 108.321 29.976 108.225 29.944C108.129 29.88 108.049 29.864 107.985 29.896L107.457 29.992C107.425 29.992 107.313 29.976 107.121 29.944C106.961 29.912 106.849 29.896 106.785 29.896C106.625 29.896 106.161 29.656 105.393 29.176L104.865 28.696C104.705 28.632 104.385 28.408 103.905 28.024C103.361 27.576 103.121 27.352 103.185 27.352C103.121 27.384 103.073 27.4 103.041 27.4C103.041 27.304 103.025 27.224 102.993 27.16C102.481 26.84 102.225 26.584 102.225 26.392C102.225 26.36 102.177 26.344 102.081 26.344C101.985 26.216 101.889 26.152 101.793 26.152C101.729 26.152 101.649 26.168 101.553 26.2C101.457 26.232 101.393 26.248 101.361 26.248C101.265 26.248 101.121 26.12 100.929 25.864C100.865 25.864 100.769 25.864 100.641 25.864C100.513 25.832 100.369 25.8 100.209 25.768C100.049 25.928 99.9374 26.088 99.8734 26.248C99.5214 26.408 99.3614 26.568 99.3934 26.728C98.8494 26.856 98.4654 27.032 98.2414 27.256C98.2414 27.32 98.2734 27.352 98.3374 27.352C98.1774 27.48 98.0654 27.576 98.0014 27.64C97.9374 27.704 97.8574 27.736 97.7614 27.736L97.1854 28.12C97.1214 28.184 97.0254 28.264 96.8974 28.36C96.8014 28.456 96.6734 28.568 96.5134 28.696C96.5134 28.696 96.4494 28.728 96.3214 28.792C96.2254 28.824 96.0494 28.904 95.7934 29.032L95.0734 29.944C94.9774 29.976 94.8494 30.104 94.6894 30.328C94.5934 30.36 94.4334 30.472 94.2094 30.664C94.0174 30.856 93.8734 30.952 93.7774 30.952C93.7134 30.952 93.6814 30.936 93.6814 30.904C93.7134 30.872 93.7134 30.856 93.6814 30.856C93.6174 30.856 93.5854 30.888 93.5854 30.952C93.5854 30.952 93.5694 30.952 93.5374 30.952ZM90.8494 25.576C90.8494 25.512 90.8654 25.464 90.8974 25.432C90.9614 25.368 91.1054 25.304 91.3294 25.24C91.4254 25.112 91.5214 25.048 91.6174 25.048C91.6494 25.048 91.6974 25.08 91.7614 25.144C91.6334 25.176 91.3934 25.32 91.0414 25.576H90.8494ZM113.928 31.048C113.928 31.048 113.816 30.984 113.592 30.856C113.496 30.856 113.352 30.84 113.16 30.808C112.968 30.776 112.68 30.664 112.296 30.472C112.232 30.44 112.136 30.408 112.008 30.376C111.912 30.312 111.8 30.232 111.672 30.136C111.64 29.976 111.496 29.736 111.24 29.416H111.144L111 29.512C110.968 29.352 110.872 29.208 110.712 29.08C110.712 28.952 110.648 28.808 110.52 28.648C110.584 28.392 110.584 28.104 110.52 27.784C110.456 27.592 110.328 27.4 110.136 27.208L110.28 27.016C110.344 26.888 110.408 26.744 110.472 26.584C110.536 26.392 110.6 26.184 110.664 25.96C110.696 25.832 110.728 25.688 110.76 25.528C110.792 25.368 110.84 25.176 110.904 24.952C110.872 24.92 110.712 24.792 110.424 24.568C110.168 24.344 109.944 24.28 109.752 24.376C109.784 24.312 109.8 24.264 109.8 24.232C109.8 24.168 109.8 24.136 109.8 24.136C109.8 24.104 109.768 24.072 109.704 24.04C109.64 23.976 109.608 23.912 109.608 23.848C109.608 23.848 109.656 23.8 109.752 23.704C109.848 23.576 109.912 23.512 109.944 23.512C110.008 23.512 110.104 23.544 110.232 23.608C110.392 23.672 110.504 23.704 110.568 23.704C110.6 23.704 110.648 23.688 110.712 23.656C110.776 23.624 110.824 23.608 110.856 23.608L111.672 23.8C111.736 23.8 111.832 23.768 111.96 23.704L113.16 22.504C113.256 22.504 113.304 22.488 113.304 22.456C113.336 22.392 113.512 22.216 113.832 21.928C113.864 21.928 113.912 21.912 113.976 21.88C114.072 21.848 114.2 21.752 114.36 21.592L114.504 21.352C115.432 20.712 116.248 20.392 116.952 20.392H117.288C117.224 20.456 117.256 20.488 117.384 20.488C117.416 20.488 117.464 20.472 117.528 20.44C117.592 20.408 117.64 20.392 117.672 20.392L117.96 20.584H118.248C118.376 20.712 118.44 20.776 118.44 20.776C118.472 20.776 118.488 20.76 118.488 20.728H118.536C118.472 20.728 118.536 20.824 118.728 21.016C118.728 21.016 118.648 21.272 118.488 21.784C118.392 21.848 118.248 21.976 118.056 22.168C117.896 22.36 117.784 22.456 117.72 22.456C117.688 22.456 117.608 22.424 117.48 22.36C117.384 22.296 117.304 22.264 117.24 22.264C117.208 22.264 117.112 22.296 116.952 22.36C116.792 22.424 116.68 22.488 116.616 22.552C116.584 22.584 116.504 22.632 116.376 22.696C116.28 22.728 115.912 22.856 115.272 23.08C115.304 23.304 115.256 23.432 115.128 23.464C114.904 23.496 114.76 23.576 114.696 23.704V23.752C114.856 23.912 115.224 23.992 115.8 23.992C115.832 23.992 115.864 23.976 115.896 23.944C115.96 23.912 116.024 23.896 116.088 23.896C116.12 23.896 116.152 23.912 116.184 23.944H116.28C116.312 23.944 116.36 23.928 116.424 23.896C116.488 23.832 116.536 23.8 116.568 23.8C116.632 23.8 116.824 23.848 117.144 23.944C117.464 24.04 117.64 24.088 117.672 24.088C117.8 24.088 117.896 24.008 117.96 23.848L118.152 23.992H118.392C118.424 23.992 118.488 23.944 118.584 23.848V23.752C118.328 23.592 118.136 23.512 118.008 23.512V23.128L118.248 23.032C118.28 23.032 118.312 23.048 118.344 23.08H118.44L118.872 22.936C118.968 23.128 119.08 23.288 119.208 23.416C119.24 23.416 119.256 23.384 119.256 23.32C119.352 23.352 119.48 23.448 119.64 23.608C119.832 23.736 119.96 23.8 120.024 23.8C120.056 23.8 120.104 23.784 120.168 23.752C120.232 23.688 120.296 23.64 120.36 23.608H120.6C120.888 23.608 121.208 23.544 121.56 23.416L121.704 23.512C121.8 23.416 121.912 23.368 122.04 23.368C122.104 23.368 122.136 23.384 122.136 23.416H122.184L122.712 23.32C122.776 23.256 122.888 23.208 123.048 23.176C123.208 23.144 123.48 23.128 123.864 23.128C123.896 23.128 123.912 23.112 123.912 23.08C124.04 23.016 124.168 22.968 124.296 22.936C124.456 22.904 124.632 22.872 124.824 22.84C124.856 22.808 124.92 22.76 125.016 22.696C125.144 22.632 125.352 22.568 125.64 22.504C125.704 22.504 125.768 22.504 125.832 22.504C125.896 22.504 125.992 22.488 126.12 22.456L126.264 22.312C126.296 22.312 126.312 22.328 126.312 22.36H126.36C126.232 22.36 126.456 22.232 127.032 21.976C127.064 22.008 127.08 22.056 127.08 22.12C127.08 22.184 127.096 22.264 127.128 22.36C127.032 22.36 126.968 22.424 126.936 22.552C126.616 22.584 126.392 22.712 126.264 22.936L125.544 23.224C125.48 23.224 125.4 23.224 125.304 23.224C125.24 23.224 125.144 23.24 125.016 23.272L124.584 23.512C124.552 23.512 124.52 23.496 124.488 23.464C124.456 23.432 124.424 23.416 124.392 23.416C124.424 23.416 124.328 23.464 124.104 23.56C123.912 23.656 123.736 23.704 123.576 23.704H123.528C123.528 23.672 123.512 23.656 123.48 23.656L123.336 23.8C123.208 23.832 123.032 23.848 122.808 23.848C122.616 23.848 122.392 23.864 122.136 23.896C122.136 23.928 122.12 23.96 122.088 23.992C122.152 23.992 122.136 24.008 122.04 24.04C121.976 24.04 121.864 24.056 121.704 24.088C121.608 24.088 121.48 24.088 121.32 24.088C121.16 24.088 120.968 24.104 120.744 24.136C120.712 24.136 120.664 24.168 120.6 24.232L121.224 24.952V25.096C121.224 25.096 121.24 25.112 121.272 25.144C121.304 25.176 121.4 25.32 121.56 25.576C121.656 25.768 121.656 25.88 121.56 25.912C121.656 26.232 121.704 26.344 121.704 26.248C121.704 26.28 121.688 26.36 121.656 26.488C121.624 26.616 121.576 26.792 121.512 27.016C121.448 27.112 121.384 27.24 121.32 27.4C121.256 27.528 121.192 27.688 121.128 27.88C121.032 28.008 120.888 28.184 120.696 28.408C120.504 28.6 120.248 28.856 119.928 29.176C119.928 29.208 119.848 29.272 119.688 29.368C119.56 29.432 119.416 29.576 119.256 29.8C119.064 29.896 118.824 30.008 118.536 30.136C118.28 30.232 117.976 30.36 117.624 30.52C117.496 30.552 117.32 30.6 117.096 30.664C116.904 30.696 116.68 30.728 116.424 30.76C116.328 30.792 116.2 30.84 116.04 30.904C115.88 30.968 115.672 31 115.416 31C114.872 31 114.552 30.984 114.456 30.952L113.928 31.048ZM114.36 30.568C114.36 30.6 114.36 30.6 114.36 30.568C114.392 30.504 114.424 30.472 114.456 30.472L114.84 30.568C115.032 30.568 115.144 30.552 115.176 30.52C115.24 30.456 115.32 30.424 115.416 30.424H115.608C115.704 30.456 115.784 30.472 115.848 30.472C115.88 30.472 115.928 30.456 115.992 30.424C116.056 30.36 116.104 30.328 116.136 30.328C116.2 30.328 116.232 30.344 116.232 30.376L116.376 30.28H117C117 30.28 117.096 30.264 117.288 30.232C117.512 30.168 117.72 30.072 117.912 29.944L118.296 29.704C118.552 29.544 118.776 29.432 118.968 29.368C119.16 29.272 119.304 29.192 119.4 29.128C119.88 28.776 120.2 28.392 120.36 27.976C120.36 27.88 120.376 27.768 120.408 27.64C120.472 27.48 120.504 27.384 120.504 27.352C120.504 27.224 120.44 27.096 120.312 26.968C120.312 26.904 120.312 26.808 120.312 26.68C120.344 26.552 120.376 26.408 120.408 26.248L120.312 26.152C120.248 25.896 120.136 25.64 119.976 25.384C119.944 25.384 119.912 25.368 119.88 25.336C119.848 25.304 119.816 25.16 119.784 24.904L119.544 24.712V24.472H119.016C118.984 24.472 118.952 24.456 118.92 24.424C118.888 24.392 118.856 24.376 118.824 24.376H118.584C118.232 24.536 118.056 24.632 118.056 24.664H118.104C118.104 24.664 118.088 24.664 118.056 24.664L117.672 24.52C117.672 24.52 117.592 24.552 117.432 24.616C117.272 24.68 117.096 24.712 116.904 24.712C116.872 24.712 116.84 24.696 116.808 24.664C116.776 24.6 116.728 24.568 116.664 24.568C116.632 24.568 116.568 24.616 116.472 24.712C116.376 24.776 116.312 24.808 116.28 24.808C116.216 24.808 116.168 24.792 116.136 24.76C116.136 24.728 116.12 24.712 116.088 24.712C116.056 24.712 116.008 24.728 115.944 24.76C115.88 24.792 115.832 24.808 115.8 24.808C115.8 24.808 115.688 24.744 115.464 24.616C115.464 24.872 115.368 25 115.176 25C115.048 25 114.984 24.888 114.984 24.664C114.856 24.696 114.744 24.744 114.648 24.808C114.584 24.84 114.504 24.856 114.408 24.856H114.264L114.12 24.712C114.088 24.808 114.008 24.856 113.88 24.856C113.784 24.856 113.72 24.84 113.688 24.808V24.664C113.656 24.696 113.608 24.728 113.544 24.76C113.48 24.792 113.416 24.824 113.352 24.856V24.904C113.352 25.064 113.256 25.208 113.064 25.336C112.872 25.464 112.6 25.624 112.248 25.816C112.248 25.848 112.248 25.896 112.248 25.96C112.28 25.992 112.296 26.024 112.296 26.056C112.296 26.376 112.152 26.584 111.864 26.68L111.432 27.976C111.496 27.976 111.528 27.992 111.528 28.024L112.056 29.608C112.088 29.608 112.12 29.592 112.152 29.56H112.296C112.392 29.56 112.472 29.672 112.536 29.896C112.6 30.088 112.696 30.184 112.824 30.184C112.856 30.184 112.872 30.168 112.872 30.136H112.92C112.888 30.136 113.016 30.2 113.304 30.328C113.304 30.328 113.4 30.36 113.592 30.424L113.688 30.328C114.136 30.424 114.36 30.504 114.36 30.568ZM127.653 48.424C127.589 48.424 127.509 48.392 127.413 48.328C127.317 48.264 127.253 48.232 127.221 48.232C127.125 48.232 127.077 48.248 127.077 48.28H126.933C126.677 48.024 126.341 47.528 125.925 46.792V46.504L125.733 45.784C125.701 45.72 125.637 45.64 125.541 45.544C125.477 45.48 125.413 45.384 125.349 45.256C125.413 45.064 125.413 44.792 125.349 44.44C125.285 44.408 125.189 44.296 125.061 44.104C125.125 43.848 125.125 43.432 125.061 42.856L124.725 42.376C124.693 42.344 124.677 42.296 124.677 42.232L124.917 41.128C124.917 41.16 124.885 41.08 124.821 40.888C124.821 40.824 124.805 40.76 124.773 40.696C124.773 40.664 124.773 40.632 124.773 40.6C124.773 40.504 124.805 40.328 124.869 40.072C124.837 40.104 124.821 40.04 124.821 39.88C124.853 39.88 124.869 39.848 124.869 39.784V38.44C124.869 38.344 124.885 38.28 124.917 38.248V37.528C124.949 37.528 124.997 37.352 125.061 37L125.349 35.512C125.349 35.448 125.317 35.384 125.253 35.32V34.984L125.445 34.84V34.456L125.541 34.36C125.541 34.072 125.509 33.896 125.445 33.832C125.477 33.8 125.509 33.768 125.541 33.736C125.573 33.704 125.605 33.672 125.637 33.64V33.352L125.829 33.208C125.893 32.696 125.909 32.424 125.877 32.392H125.973L125.877 32.344C125.973 32.12 125.989 31.864 125.925 31.576C125.893 31.32 125.893 31.176 125.925 31.144C125.765 31.08 125.669 31 125.637 30.904L125.397 30.856L125.349 30.904V31C125.317 31.096 125.189 31.144 124.965 31.144C124.709 31.08 124.517 30.92 124.389 30.664L124.197 30.616C124.261 30.552 124.213 30.488 124.053 30.424C123.893 30.328 123.765 30.152 123.669 29.896C123.733 29.8 123.829 29.704 123.957 29.608L125.157 29.848C125.221 29.752 125.285 29.704 125.349 29.704C125.477 29.704 125.589 29.768 125.685 29.896H125.973C126.037 29.672 126.133 29.496 126.261 29.368C126.293 29.336 126.309 29.256 126.309 29.128L126.597 28.264C126.533 28.104 126.533 27.896 126.597 27.64C126.629 27.608 126.693 27.464 126.789 27.208V26.872C126.821 26.808 126.853 26.744 126.885 26.68C126.917 26.616 126.965 26.536 127.029 26.44V25.96L127.125 25.816C127.093 25.72 127.077 25.528 127.077 25.24L127.365 24.52C127.365 24.488 127.445 24.424 127.605 24.328C127.701 23.944 127.717 23.72 127.653 23.656C127.781 23.56 127.845 23.432 127.845 23.272C127.877 23.08 127.957 22.76 128.085 22.312C128.117 22.28 128.101 22.264 128.037 22.264L128.229 22.024C128.197 21.736 127.749 21.464 126.885 21.208C126.853 21.176 126.741 21.096 126.549 20.968C126.357 20.808 126.213 20.728 126.117 20.728C126.053 20.728 126.005 20.744 125.973 20.776H125.829L125.781 20.584C125.653 20.488 125.509 20.344 125.349 20.152V19.816C125.317 19.752 125.285 19.72 125.253 19.72C125.317 19.624 125.397 19.512 125.493 19.384C125.461 19.352 125.445 19.272 125.445 19.144C125.541 19.016 125.637 18.92 125.733 18.856C125.829 18.76 126.165 18.68 126.741 18.616C126.773 18.616 126.805 18.6 126.837 18.568C126.869 18.568 126.885 18.584 126.885 18.616C126.917 18.648 126.949 18.664 126.981 18.664C127.013 18.664 127.029 18.648 127.029 18.616C127.061 18.552 127.093 18.52 127.125 18.52C127.317 18.52 127.477 18.568 127.605 18.664C127.637 18.728 127.877 18.952 128.325 19.336H128.661C128.661 19.272 128.661 19.176 128.661 19.048C128.661 18.92 128.677 18.776 128.709 18.616C128.709 18.584 128.757 18.472 128.853 18.28C128.821 18.248 128.805 18.12 128.805 17.896C128.901 17.448 128.949 17.272 128.949 17.368C128.949 17.336 128.933 17.304 128.901 17.272C128.901 17.112 128.885 16.952 128.853 16.792C128.853 16.632 128.837 16.456 128.805 16.264C128.837 16.2 128.853 16.152 128.853 16.12C128.853 16.056 128.853 16.024 128.853 16.024C128.661 15.672 128.565 15.496 128.565 15.496C128.565 15.304 128.645 15.208 128.805 15.208C128.933 15.208 129.013 15.256 129.045 15.352C129.141 15.704 129.253 16.008 129.381 16.264C129.541 16.52 129.621 16.824 129.621 17.176L129.573 17.272C129.541 17.304 129.557 17.368 129.621 17.464L129.477 19.192C129.477 19.224 129.445 19.288 129.381 19.384C129.349 19.48 129.333 19.544 129.333 19.576C129.333 19.832 129.445 20.024 129.669 20.152C129.797 20.216 129.877 20.248 129.909 20.248C129.941 20.216 129.973 20.2 130.005 20.2C130.005 20.36 130.181 20.568 130.533 20.824H130.581C130.581 20.792 130.597 20.776 130.629 20.776C130.725 20.776 130.869 20.856 131.061 21.016C131.253 21.176 131.349 21.32 131.349 21.448L132.261 22.168L132.165 22.408L132.309 22.552C132.405 22.744 132.565 22.84 132.789 22.84C132.821 22.936 132.869 23.064 132.933 23.224C132.997 23.352 133.061 23.496 133.125 23.656C133.317 23.688 133.429 23.72 133.461 23.752C133.493 23.72 133.525 23.704 133.557 23.704L133.653 23.8V24.424C133.685 24.456 133.813 24.472 134.037 24.472L134.229 24.856C134.261 24.92 134.229 24.984 134.133 25.048L134.277 25.192C134.309 25.192 134.325 25.16 134.325 25.096C134.389 25.128 134.437 25.16 134.469 25.192C134.501 25.224 134.533 25.256 134.565 25.288C134.693 25.864 134.901 26.168 135.189 26.2C135.189 26.264 135.173 26.376 135.141 26.536C135.109 26.696 135.093 26.808 135.093 26.872L135.525 27.4L135.573 27.928C135.573 28.12 135.589 28.264 135.621 28.36L136.965 28.12L137.685 27.976C137.749 27.912 137.829 27.864 137.925 27.832C138.725 27.736 139.653 27.448 140.709 26.968C140.741 27 140.789 27.016 140.853 27.016C140.917 27.016 140.981 27.032 141.045 27.064L141.285 26.824C141.701 26.6 141.957 26.568 142.053 26.728C142.085 26.824 141.893 26.984 141.477 27.208C141.253 27.336 140.965 27.448 140.613 27.544C140.261 27.64 139.589 27.864 138.597 28.216L137.493 28.552L135.717 28.888C135.749 28.984 135.765 29.064 135.765 29.128C135.765 29.192 135.765 29.256 135.765 29.32L135.669 29.416V29.848C135.573 29.848 135.509 29.912 135.477 30.04L134.997 30.28V30.616C134.965 30.712 134.869 30.808 134.709 30.904H134.469C134.149 31.064 134.021 31.144 134.085 31.144H134.037C134.037 31.112 134.021 31.096 133.989 31.096C133.957 31.096 133.829 31.144 133.605 31.24C133.413 31.336 133.301 31.384 133.269 31.384C133.205 31.384 133.141 31.368 133.077 31.336C133.045 31.304 133.013 31.288 132.981 31.288C132.917 31.288 132.805 31.32 132.645 31.384C132.517 31.448 132.453 31.48 132.453 31.48C132.421 31.48 132.405 31.48 132.405 31.48H132.453C132.421 31.448 132.293 31.4 132.069 31.336C131.845 31.304 131.701 31.288 131.637 31.288C131.605 31.288 131.573 31.304 131.541 31.336C131.541 31.368 131.525 31.384 131.493 31.384C131.461 31.384 131.413 31.368 131.349 31.336C131.317 31.304 131.269 31.288 131.205 31.288C131.173 31.288 131.141 31.304 131.109 31.336H131.013C131.045 31.336 130.981 31.288 130.821 31.192C130.757 31.192 130.661 31.192 130.533 31.192C130.405 31.192 130.261 31.176 130.101 31.144L129.477 31.288H128.949C128.917 31.288 128.869 31.256 128.805 31.192C128.805 31.192 128.677 31.192 128.421 31.192H128.181C128.085 31.192 127.973 31.192 127.845 31.192C127.749 31.192 127.621 31.208 127.461 31.24C127.429 31.368 127.397 31.496 127.365 31.624C127.333 31.784 127.301 31.976 127.269 32.2C127.301 32.296 127.301 32.408 127.269 32.536C127.173 32.632 127.109 32.728 127.077 32.824C127.045 32.952 127.013 33.064 126.981 33.16C126.981 33.288 126.981 33.416 126.981 33.544C126.981 33.64 127.045 33.72 127.173 33.784C127.301 33.848 127.365 33.944 127.365 34.072C127.365 34.072 127.349 34.12 127.317 34.216C127.285 34.312 127.237 34.44 127.173 34.6C127.173 34.664 127.141 34.744 127.077 34.84C127.013 34.968 126.917 35.144 126.789 35.368V35.56C126.789 35.656 126.773 35.752 126.741 35.848C126.741 35.976 126.725 36.12 126.693 36.28C126.693 36.408 126.677 36.552 126.645 36.712C126.645 36.904 126.645 37.112 126.645 37.336C126.645 37.56 126.645 37.784 126.645 38.008C126.677 38.264 126.693 38.52 126.693 38.776V38.824C126.693 38.888 126.661 38.968 126.597 39.064C126.565 39.16 126.549 39.24 126.549 39.304C126.549 39.432 126.581 39.592 126.645 39.784C126.581 39.88 126.533 40.088 126.501 40.408C126.565 40.6 126.565 40.872 126.501 41.224C126.373 41.64 126.309 41.784 126.309 41.656V42.664C126.405 42.696 126.501 42.696 126.597 42.664C126.533 42.76 126.485 43.112 126.453 43.72C126.421 43.72 126.405 43.752 126.405 43.816V45.496L126.597 45.736H126.453C126.421 45.768 126.405 45.848 126.405 45.976C126.405 46.168 126.469 46.424 126.597 46.744C126.757 47.064 126.901 47.24 127.029 47.272C127.061 47.272 127.045 47.352 126.981 47.512L127.077 47.656C127.141 47.592 127.173 47.528 127.173 47.464H127.317C127.573 47.72 127.749 47.848 127.845 47.848C127.909 47.848 127.973 47.832 128.037 47.8H128.181V48.184C128.053 48.312 127.989 48.376 127.989 48.376H127.797C127.765 48.408 127.717 48.424 127.653 48.424ZM125.253 19.72C125.253 19.688 125.253 19.688 125.253 19.72V19.72ZM127.845 29.704C128.549 29.64 129.189 29.576 129.765 29.512C130.373 29.416 130.933 29.304 131.445 29.176L132.645 28.888C132.773 28.888 132.901 28.888 133.029 28.888C133.189 28.856 133.381 28.824 133.605 28.792C133.637 28.824 133.701 28.84 133.797 28.84L134.661 28.648L134.997 28.552C134.933 28.36 134.901 28.264 134.901 28.264C134.805 28.296 134.677 28.088 134.517 27.64C134.517 27.672 134.405 27.448 134.181 26.968L133.845 26.488L133.509 26.2C133.285 26.04 133.045 25.848 132.789 25.624C132.565 25.368 132.309 25.112 132.021 24.856C131.989 24.728 131.909 24.616 131.781 24.52C131.653 24.392 131.557 24.248 131.493 24.088C131.333 23.96 131.061 23.768 130.677 23.512C130.293 23.224 129.797 22.92 129.189 22.6V22.648H128.997V22.744C128.997 22.744 128.933 22.888 128.805 23.176C128.709 23.464 128.645 23.656 128.613 23.752C128.645 23.816 128.661 23.944 128.661 24.136L128.421 24.76C128.293 25.432 128.197 26.008 128.133 26.488V26.776C128.005 27.16 127.941 27.496 127.941 27.784C127.941 28.2 127.957 28.392 127.989 28.36V28.312C127.989 28.344 127.989 28.36 127.989 28.36L127.845 28.648V29.704ZM131.253 30.472L131.541 30.328L131.637 30.424C131.701 30.36 131.749 30.328 131.781 30.328H132.501L132.885 30.232C132.981 30.232 133.061 30.264 133.125 30.328C133.157 30.2 133.221 30.136 133.317 30.136C133.381 30.2 133.573 30.264 133.893 30.328C133.957 30.264 134.005 30.216 134.037 30.184C134.101 30.152 134.133 30.136 134.133 30.136C134.165 30.136 134.181 30.152 134.181 30.184H134.277C134.341 30.184 134.405 30.136 134.469 30.04C134.565 29.944 134.709 29.88 134.901 29.848L135.093 29.416L134.949 29.32C135.045 29.16 135.109 29.064 135.141 29.032L133.797 29.272C133.477 29.304 132.949 29.416 132.213 29.608C131.509 29.8 130.597 30.056 129.477 30.376C129.605 30.376 129.733 30.376 129.861 30.376C130.021 30.376 130.181 30.36 130.341 30.328C130.341 30.36 130.501 30.376 130.821 30.376C131.109 30.376 131.253 30.408 131.253 30.472ZM123.237 29.848C123.205 29.816 123.173 29.784 123.141 29.752C123.141 29.72 123.109 29.688 123.045 29.656V29.416L123.237 29.272L123.525 29.608L123.237 29.848Z" fill="#093351"/>
</svg>
