<svg width="current" height="current" viewBox="0 0 24 24" fill="none" xmlns="http://www.w3.org/2000/svg">
<rect width="24" height="24" rx="4" fill="white"/>
<path d="M8.06788 8.06794C7.75282 8.383 7.32551 8.56 6.87994 8.56C5.94994 8.56 5.18994 7.81 5.18994 6.88C5.18994 6.43179 5.36799 6.00193 5.68493 5.68499C6.00187 5.36806 6.43173 5.19 6.87994 5.19C7.80994 5.19 8.55994 5.95 8.55994 6.88C8.55994 7.32557 8.38294 7.75288 8.06788 8.06794Z" fill="#093351"/>
<path d="M18.5 13.2V18.5H15.71V13.57C15.71 13.1987 15.5625 12.8426 15.2999 12.5801C15.0374 12.3175 14.6813 12.17 14.31 12.17C13.54 12.17 12.92 12.8 12.92 13.57V18.5H10.13V10.13H12.92V11.24C13.4 10.46 14.39 9.94 15.24 9.94C16.1046 9.94 16.9338 10.2835 17.5452 10.8948C18.1565 11.5062 18.5 12.3354 18.5 13.2Z" fill="#093351"/>
<path d="M8.27 10.13V18.5H5.5V10.13H8.27Z" fill="#093351"/>
</svg>
