<svg width="14" height="14" viewBox="0 0 14 14" fill="none" xmlns="http://www.w3.org/2000/svg">
<path d="M7.90066 6.09934C7.42285 5.62173 6.77491 5.35342 6.09932 5.35342C5.42374 5.35342 4.7758 5.62173 4.29799 6.09934L2.49607 7.90067C2.01825 8.3785 1.74982 9.02656 1.74982 9.7023C1.74982 10.378 2.01825 11.0261 2.49607 11.5039C2.97389 11.9817 3.62196 12.2502 4.2977 12.2502C4.97344 12.2502 5.6215 11.9817 6.09932 11.5039L6.99999 10.6033" stroke="#0184FF" stroke-linecap="round" stroke-linejoin="round"/>
<path d="M6.0993 7.90067C6.57712 8.37829 7.22505 8.64659 7.90064 8.64659C8.57623 8.64659 9.22416 8.37829 9.70197 7.90067L11.5039 6.09934C11.9817 5.62152 12.2501 4.97346 12.2501 4.29771C12.2501 3.62197 11.9817 2.97391 11.5039 2.49609C11.0261 2.01827 10.378 1.74983 9.70226 1.74983C9.02652 1.74983 8.37846 2.01827 7.90064 2.49609L6.99997 3.39676" stroke="#0184FF" stroke-linecap="round" stroke-linejoin="round"/>
</svg>
