<svg width="current" height="current" viewBox="0 0 24 24" fill="none" xmlns="http://www.w3.org/2000/svg">
<path fill-rule="evenodd" clip-rule="evenodd" d="M4 0C1.79086 0 0 1.79086 0 4V20C0 22.2091 1.79086 24 4 24H20C22.2091 24 24 22.2091 24 20V4C24 1.79086 22.2091 0 20 0H4ZM8.22267 8.22291C7.90761 8.53797 7.48029 8.71497 7.03473 8.71497C6.10473 8.71497 5.34473 7.96497 5.34473 7.03497C5.34473 6.58676 5.52278 6.1569 5.83972 5.83996C6.15665 5.52302 6.58651 5.34497 7.03473 5.34497C7.96473 5.34497 8.71473 6.10497 8.71473 7.03497C8.71473 7.48054 8.53773 7.90785 8.22267 8.22291ZM18.6548 13.355V18.655H15.8648V13.725C15.8648 13.3537 15.7173 12.9976 15.4547 12.735C15.1922 12.4725 14.8361 12.325 14.4648 12.325C13.6948 12.325 13.0748 12.955 13.0748 13.725V18.655H10.2848V10.285H13.0748V11.395C13.5548 10.615 14.5448 10.095 15.3948 10.095C16.2594 10.095 17.0886 10.4384 17.7 11.0498C18.3113 11.6612 18.6548 12.4904 18.6548 13.355ZM8.42479 18.655V10.285H5.65479V18.655H8.42479Z" fill="white"/>
</svg>
