<svg width="16" height="16" viewBox="0 0 16 16" fill="none" xmlns="http://www.w3.org/2000/svg">
<path d="M11.5001 10C11.1258 10.0019 10.7568 10.0878 10.4201 10.2513C10.0835 10.4149 9.78788 10.6519 9.55509 10.945L5.90009 8.66C6.0333 8.23008 6.0333 7.76991 5.90009 7.34L9.55509 5.055C9.92607 5.51435 10.4477 5.82758 11.0275 5.9392C11.6073 6.05082 12.2079 5.95361 12.7229 5.66481C13.2379 5.376 13.634 4.91424 13.8412 4.36132C14.0483 3.8084 14.053 3.2 13.8546 2.64391C13.6561 2.08782 13.2672 1.61993 12.7568 1.32311C12.2464 1.0263 11.6473 0.91972 11.0659 1.02226C10.4844 1.12481 9.95798 1.42985 9.57987 1.88336C9.20177 2.33686 8.99638 2.90956 9.00009 3.5C9.00245 3.72358 9.03611 3.94574 9.10009 4.16L5.44509 6.445C5.12242 6.03879 4.68136 5.74302 4.18307 5.59869C3.68477 5.45437 3.15392 5.46863 2.6641 5.6395C2.17427 5.81038 1.74974 6.1294 1.44934 6.55235C1.14893 6.9753 0.987549 7.48122 0.987549 8C0.987549 8.51877 1.14893 9.0247 1.44934 9.44765C1.74974 9.87059 2.17427 10.1896 2.6641 10.3605C3.15392 10.5314 3.68477 10.5456 4.18307 10.4013C4.68136 10.257 5.12242 9.96121 5.44509 9.555L9.10009 11.84C9.03611 12.0542 9.00245 12.2764 9.00009 12.5C9.00009 12.9944 9.14671 13.4778 9.42142 13.8889C9.69612 14.3 10.0866 14.6205 10.5434 14.8097C11.0002 14.9989 11.5029 15.0484 11.9878 14.952C12.4728 14.8555 12.9182 14.6174 13.2679 14.2678C13.6175 13.9181 13.8556 13.4727 13.9521 12.9877C14.0485 12.5028 13.999 12.0001 13.8098 11.5433C13.6206 11.0865 13.3001 10.696 12.889 10.4213C12.4779 10.1466 11.9945 10 11.5001 10ZM11.5001 2C11.7968 2 12.0868 2.08797 12.3334 2.25279C12.5801 2.41761 12.7724 2.65188 12.8859 2.92597C12.9994 3.20006 13.0291 3.50166 12.9713 3.79263C12.9134 4.0836 12.7705 4.35088 12.5608 4.56066C12.351 4.77043 12.0837 4.9133 11.7927 4.97117C11.5018 5.02905 11.2002 4.99935 10.9261 4.88582C10.652 4.77228 10.4177 4.58002 10.2529 4.33335C10.0881 4.08668 10.0001 3.79667 10.0001 3.5C10.0001 3.10217 10.1581 2.72064 10.4394 2.43934C10.7207 2.15803 11.1023 2 11.5001 2ZM3.50009 9.5C3.20342 9.5 2.91341 9.41202 2.66674 9.2472C2.42006 9.08238 2.2278 8.84811 2.11427 8.57402C2.00074 8.29993 1.97104 7.99833 2.02891 7.70736C2.08679 7.41639 2.22965 7.14911 2.43943 6.93934C2.64921 6.72956 2.91649 6.5867 3.20746 6.52882C3.49843 6.47094 3.80003 6.50065 4.07412 6.61418C4.34821 6.72771 4.58247 6.91997 4.7473 7.16664C4.91212 7.41331 5.00009 7.70332 5.00009 8C5.00009 8.39782 4.84206 8.77935 4.56075 9.06066C4.27945 9.34196 3.89792 9.5 3.50009 9.5ZM11.5001 14C11.2034 14 10.9134 13.912 10.6667 13.7472C10.4201 13.5824 10.2278 13.3481 10.1143 13.074C10.0007 12.7999 9.97104 12.4983 10.0289 12.2074C10.0868 11.9164 10.2297 11.6491 10.4394 11.4393C10.6492 11.2296 10.9165 11.0867 11.2075 11.0288C11.4984 10.9709 11.8 11.0006 12.0741 11.1142C12.3482 11.2277 12.5825 11.42 12.7473 11.6666C12.9121 11.9133 13.0001 12.2033 13.0001 12.5C13.0001 12.8978 12.8421 13.2794 12.5608 13.5607C12.2794 13.842 11.8979 14 11.5001 14Z" fill="#093351"/>
</svg>
