<svg width="14" height="14" viewBox="0 0 14 14" fill="none" xmlns="http://www.w3.org/2000/svg">
<path d="M14 3.25454C13.5219 3.46077 13.0017 3.60919 12.4658 3.66699C13.0222 3.33646 13.4388 2.81428 13.6375 2.19842C13.1155 2.50899 12.5435 2.72677 11.9471 2.84209C11.6978 2.5756 11.3964 2.36331 11.0615 2.21843C10.7265 2.07355 10.3654 1.9992 10.0005 2.00001C8.5241 2.00001 7.33674 3.19674 7.33674 4.66531C7.33674 4.87154 7.36174 5.07776 7.40236 5.27618C5.19168 5.16056 3.22005 4.10444 1.90927 2.48745C1.67043 2.89539 1.54527 3.35988 1.54681 3.8326C1.54681 4.75749 2.01707 5.57301 2.73417 6.05264C2.31157 6.036 1.89886 5.91985 1.52962 5.71362V5.74643C1.52962 7.04159 2.44514 8.1149 3.6653 8.36174C3.43621 8.42125 3.20053 8.4517 2.96383 8.45236C2.79041 8.45236 2.62637 8.43517 2.46076 8.41174C2.79822 9.46786 3.78092 10.235 4.95109 10.26C4.03557 10.9771 2.88884 11.3989 1.64367 11.3989C1.42026 11.3989 1.21404 11.3911 1 11.3661C2.18111 12.1238 3.5825 12.5612 5.0917 12.5612C9.99111 12.5612 12.672 8.50235 12.672 4.97934C12.672 4.86373 12.672 4.74811 12.6642 4.6325C13.1829 4.25286 13.6375 3.7826 14 3.25454Z" fill="#0184FF"/>
</svg>
