<svg width="current" height="current" viewBox="0 0 24 24" fill="none" xmlns="http://www.w3.org/2000/svg">
<path fill-rule="evenodd" clip-rule="evenodd" d="M4 0C1.79083 0 0 1.79086 0 4V20C0 22.2091 1.79083 24 4 24H20C22.2092 24 24 22.2091 24 20V4C24 1.79086 22.2092 0 20 0H4ZM21.84 9.07001C21.78 8.26999 21.69 7.64001 21.56 7.17001C21.31 6.26999 20.73 5.69 19.83 5.44C18.8 5.16 16.19 5 12 5L10.41 5.06C9.31 5.06 8.12 5.09 6.82001 5.16C5.5 5.22 4.64001 5.31 4.16998 5.44C3.27002 5.69 2.69 6.26999 2.44 7.17001C2.15997 8.20001 2 9.81 2 12L2.06 12.84C2.06 13.44 2.09003 14.13 2.15997 14.93C2.21997 15.73 2.31 16.36 2.44 16.83C2.69 17.73 3.27002 18.31 4.16998 18.56C5.20001 18.84 7.81 19 12 19L13.59 18.94C14.69 18.94 15.88 18.91 17.18 18.84C18.5 18.78 19.36 18.69 19.83 18.56C20.73 18.31 21.31 17.73 21.56 16.83C21.84 15.8 22 14.19 22 12L21.94 11.16C21.94 10.56 21.91 9.87 21.84 9.07001Z" fill="white"/>
<path d="M9.96091 15L15.1509 12L9.96091 9V15Z" fill="white"/>
</svg>
