<svg width="20" height="20" viewBox="0 0 20 20" fill="none" xmlns="http://www.w3.org/2000/svg">
<path d="M17.5 15.8334V16.6667H2.5V15.8334L4.16667 14.1667V9.16675C4.16667 6.58341 5.85833 4.30841 8.33333 3.57508C8.33333 3.49175 8.33333 3.41675 8.33333 3.33341C8.33333 2.89139 8.50893 2.46746 8.82149 2.1549C9.13405 1.84234 9.55797 1.66675 10 1.66675C10.442 1.66675 10.866 1.84234 11.1785 2.1549C11.4911 2.46746 11.6667 2.89139 11.6667 3.33341C11.6667 3.41675 11.6667 3.49175 11.6667 3.57508C14.1417 4.30841 15.8333 6.58341 15.8333 9.16675V14.1667L17.5 15.8334ZM11.6667 17.5001C11.6667 17.9421 11.4911 18.366 11.1785 18.6786C10.866 18.9912 10.442 19.1667 10 19.1667C9.55797 19.1667 9.13405 18.9912 8.82149 18.6786C8.50893 18.366 8.33333 17.9421 8.33333 17.5001" fill="#D7D7D7"/>
<path d="M17.1667 5.33333C17.1667 6.89814 15.8981 8.16667 14.3333 8.16667C12.7685 8.16667 11.5 6.89814 11.5 5.33333C11.5 3.76853 12.7685 2.5 14.3333 2.5C15.8981 2.5 17.1667 3.76853 17.1667 5.33333Z" fill="#0184FF" stroke="white"/>
</svg>
