<svg width="16" height="19" viewBox="0 0 16 19" fill="none" xmlns="http://www.w3.org/2000/svg">
<path d="M15.5 4.41797C15.5 6.0263 14.1917 7.33463 12.5833 7.33463C10.975 7.33463 9.66667 6.0263 9.66667 4.41797C9.66667 2.80964 10.975 1.5013 12.5833 1.5013C14.1917 1.5013 15.5 2.80964 15.5 4.41797ZM13.8333 8.8263C13.4167 8.93463 13 9.0013 12.5833 9.0013C10.0583 9.0013 8 6.94297 8 4.41797C8 3.19297 8.48333 2.08464 9.25 1.25964C8.95833 0.901302 8.50833 0.667969 8 0.667969C7.08333 0.667969 6.33333 1.41797 6.33333 2.33464V2.5763C3.85833 3.30964 2.16667 5.58464 2.16667 8.16797V13.168L0.5 14.8346V15.668H15.5V14.8346L13.8333 13.168V8.8263ZM8 18.168C8.925 18.168 9.66667 17.4263 9.66667 16.5013H6.33333C6.33333 17.4263 7.08333 18.168 8 18.168Z" fill="#D7D7D7"/>
</svg>
