<svg width="20" height="20" viewBox="0 0 20 20" fill="none" xmlns="http://www.w3.org/2000/svg">
<path d="M17.5 5.41797C17.5 7.0263 16.1917 8.33463 14.5833 8.33463C12.975 8.33463 11.6667 7.0263 11.6667 5.41797C11.6667 3.80964 12.975 2.5013 14.5833 2.5013C16.1917 2.5013 17.5 3.80964 17.5 5.41797ZM15.8333 9.8263C15.4167 9.93463 15 10.0013 14.5833 10.0013C12.0583 10.0013 10 7.94297 10 5.41797C10 4.19297 10.4833 3.08464 11.25 2.25964C10.9583 1.9013 10.5083 1.66797 10 1.66797C9.08333 1.66797 8.33333 2.41797 8.33333 3.33464V3.5763C5.85833 4.30964 4.16667 6.58464 4.16667 9.16797V14.168L2.5 15.8346V16.668H17.5V15.8346L15.8333 14.168V9.8263ZM10 19.168C10.925 19.168 11.6667 18.4263 11.6667 17.5013H8.33333C8.33333 18.4263 9.08333 19.168 10 19.168Z" fill="#D7D7D7"/>
<ellipse cx="14.6634" cy="5.55599" rx="3.33333" ry="3.33333" fill="#0184FF"/>
</svg>
