<svg width="19" height="18" viewBox="0 0 19 18" fill="none" xmlns="http://www.w3.org/2000/svg">
<path d="M16.5 4.25H13.875V2.5C13.875 1.52875 13.0962 0.75 12.125 0.75H6.875C5.90375 0.75 5.125 1.52875 5.125 2.5V4.25H2.5C1.52875 4.25 0.75 5.02875 0.75 6V15.625C0.75 16.5962 1.52875 17.375 2.5 17.375H16.5C17.4713 17.375 18.25 16.5962 18.25 15.625V6C18.25 5.02875 17.4713 4.25 16.5 4.25ZM6.875 2.5H12.125V4.25H6.875V2.5ZM16.5 15.625H2.5V13.875H16.5V15.625ZM16.5 11.25H2.5V6H5.125V7.75H6.875V6H12.125V7.75H13.875V6H16.5V11.25Z" fill="#0184FF"/>
</svg>
