<svg width="current" height="current" viewBox="0 0 18 18" fill="none" xmlns="http://www.w3.org/2000/svg">
<path d="M8.99996 15.6667C5.32496 15.6667 2.33329 12.6751 2.33329 9.00008C2.33329 5.32508 5.32496 2.33341 8.99996 2.33341C12.675 2.33341 15.6666 5.32508 15.6666 9.00008C15.6666 12.6751 12.675 15.6667 8.99996 15.6667ZM8.99996 0.666748C7.90561 0.666748 6.82198 0.882296 5.81093 1.30109C4.79988 1.71987 3.88122 2.3337 3.1074 3.10752C1.5446 4.67033 0.666626 6.78994 0.666626 9.00008C0.666626 11.2102 1.5446 13.3298 3.1074 14.8926C3.88122 15.6665 4.79988 16.2803 5.81093 16.6991C6.82198 17.1179 7.90561 17.3334 8.99996 17.3334C11.2101 17.3334 13.3297 16.4554 14.8925 14.8926C16.4553 13.3298 17.3333 11.2102 17.3333 9.00008C17.3333 7.90573 17.1177 6.8221 16.699 5.81105C16.2802 4.80001 15.6663 3.88135 14.8925 3.10752C14.1187 2.3337 13.2 1.71987 12.189 1.30109C11.1779 0.882296 10.0943 0.666748 8.99996 0.666748ZM4.83329 9.83341H13.1666V8.16675H4.83329" fill="#202020" fill-opacity="0.6"/>
</svg>
