<svg width="23" height="23" viewBox="0 0 23 23" fill="none" xmlns="http://www.w3.org/2000/svg">
<path d="M20.653 16.8652H6.65302V2.86523H20.653V16.8652ZM20.653 0.865234H6.65302C6.12258 0.865234 5.61387 1.07595 5.2388 1.45102C4.86373 1.82609 4.65302 2.3348 4.65302 2.86523V16.8652C4.65302 17.3957 4.86373 17.9044 5.2388 18.2794C5.61387 18.6545 6.12258 18.8652 6.65302 18.8652H20.653C21.1834 18.8652 21.6922 18.6545 22.0672 18.2794C22.4423 17.9044 22.653 17.3957 22.653 16.8652V2.86523C22.653 2.3348 22.4423 1.82609 22.0672 1.45102C21.6922 1.07595 21.1834 0.865234 20.653 0.865234ZM2.65302 4.86523H0.653015V20.8652C0.653015 21.3957 0.863729 21.9044 1.2388 22.2794C1.61387 22.6545 2.12258 22.8652 2.65302 22.8652H18.653V20.8652H2.65302V4.86523ZM15.613 10.1552L12.863 13.6952L10.903 11.3352L8.15302 14.8652H19.153L15.613 10.1552Z" fill="#2094FF"/>
</svg>
