<svg width="28" height="24" viewBox="0 0 28 24" fill="none" xmlns="http://www.w3.org/2000/svg">
<path d="M3.01432 13.3333C1.53432 13.3333 0.347656 14.52 0.347656 16V21.3333C0.347656 22.8133 1.53432 24 3.01432 24H8.34766C9.82766 24 11.0143 22.8133 11.0143 21.3333V16C11.0143 14.52 9.82766 13.3333 8.34766 13.3333H3.01432ZM8.61432 15.3333L10.0277 16.7333L4.70766 22L1.33432 18.6L2.76099 17.2L4.72099 19.1867L8.61432 15.3333ZM3.01432 0C1.53432 0 0.347656 1.18667 0.347656 2.66667V8C0.347656 9.48 1.53432 10.6667 3.01432 10.6667H8.34766C9.82766 10.6667 11.0143 9.48 11.0143 8V2.66667C11.0143 1.18667 9.82766 0 8.34766 0H3.01432ZM3.01432 2.66667H8.34766V8H3.01432V2.66667ZM13.681 2.66667H27.0143V5.33333H13.681V2.66667ZM13.681 21.3333V18.6667H27.0143V21.3333H13.681ZM13.681 10.6667H27.0143V13.3333H13.681V10.6667Z" fill="#0184FF"/>
</svg>
