<svg width="current" height="current" viewBox="0 0 18 21" fill="none" xmlns="http://www.w3.org/2000/svg">
<path d="M3 20.7111C2.16667 20.7111 1.45833 20.4197 0.875 19.8369C0.291667 19.2541 0 18.5464 0 17.7137V14.7164H3V0.728516L4.5 2.22721L6 0.728516L7.5 2.22721L9 0.728516L10.5 2.22721L12 0.728516L13.5 2.22721L15 0.728516L16.5 2.22721L18 0.728516V17.7137C18 18.5464 17.7083 19.2541 17.125 19.8369C16.5417 20.4197 15.8333 20.7111 15 20.7111H3ZM15 18.7129C15.2833 18.7129 15.5207 18.617 15.712 18.4251C15.904 18.234 16 17.9968 16 17.7137V3.72591H5V14.7164H14V17.7137C14 17.9968 14.096 18.234 14.288 18.4251C14.4793 18.617 14.7167 18.7129 15 18.7129ZM6 7.72243V5.72417H12V7.72243H6ZM6 10.7198V8.72157H12V10.7198H6ZM14 7.72243C13.7167 7.72243 13.4793 7.62652 13.288 7.43468C13.096 7.24352 13 7.00639 13 6.7233C13 6.44022 13.096 6.20276 13.288 6.01092C13.4793 5.81976 13.7167 5.72417 14 5.72417C14.2833 5.72417 14.5207 5.81976 14.712 6.01092C14.904 6.20276 15 6.44022 15 6.7233C15 7.00639 14.904 7.24352 14.712 7.43468C14.5207 7.62652 14.2833 7.72243 14 7.72243ZM14 10.7198C13.7167 10.7198 13.4793 10.6239 13.288 10.4321C13.096 10.2409 13 10.0038 13 9.7207C13 9.43761 13.096 9.20015 13.288 9.00832C13.4793 8.81715 13.7167 8.72157 14 8.72157C14.2833 8.72157 14.5207 8.81715 14.712 9.00832C14.904 9.20015 15 9.43761 15 9.7207C15 10.0038 14.904 10.2409 14.712 10.4321C14.5207 10.6239 14.2833 10.7198 14 10.7198ZM3 18.7129H12V16.7146H2V17.7137C2 17.9968 2.09567 18.234 2.287 18.4251C2.479 18.617 2.71667 18.7129 3 18.7129Z" fill="#0184FF"/>
</svg>
