<svg width="25" height="27" viewBox="0 0 25 27" fill="none" xmlns="http://www.w3.org/2000/svg">
<path d="M5.87435 12.332H12.541V18.9987H5.87435V12.332ZM21.8743 24.332H3.20768V9.66536H21.8743V24.332ZM21.8743 2.9987H20.541V0.332031H17.8743V2.9987H7.20768V0.332031H4.54102V2.9987H3.20768C1.72768 2.9987 0.541016 4.1987 0.541016 5.66536V24.332C0.541016 25.0393 0.821967 25.7176 1.32206 26.2176C1.82216 26.7177 2.50044 26.9987 3.20768 26.9987H21.8743C22.5816 26.9987 23.2599 26.7177 23.76 26.2176C24.2601 25.7176 24.541 25.0393 24.541 24.332V5.66536C24.541 4.95812 24.2601 4.27984 23.76 3.77975C23.2599 3.27965 22.5816 2.9987 21.8743 2.9987Z" fill="#0184FF"/>
</svg>
