<svg width="32" height="32" viewBox="0 0 32 32" fill="none" xmlns="http://www.w3.org/2000/svg">
<path d="M26.7199 11.6134V5.33338H20.4533L15.9999 0.920044L11.6133 5.33338H5.33326V11.6134L0.919922 16L5.33326 20.4534V26.72H11.6133L15.9999 31.1334L20.4533 26.72H26.7199V20.4534L31.1333 16L26.7199 11.6134ZM11.7733 9.40004C13.0799 9.40004 14.1333 10.4534 14.1333 11.7734C14.1333 12.3993 13.8846 12.9996 13.442 13.4422C12.9994 13.8847 12.3992 14.1334 11.7733 14.1334C10.4533 14.1334 9.39992 13.08 9.39992 11.7734C9.39992 10.4534 10.4533 9.40004 11.7733 9.40004ZM20.2933 22.6667C18.9866 22.6667 17.9333 21.6 17.9333 20.2934C17.9333 19.6675 18.1819 19.0672 18.6245 18.6246C19.0671 18.182 19.6673 17.9334 20.2933 17.9334C21.5999 17.9334 22.6666 18.9867 22.6666 20.2934C22.6666 20.9228 22.4165 21.5265 21.9715 21.9716C21.5264 22.4167 20.9227 22.6667 20.2933 22.6667ZM11.3333 22.7067L9.33326 20.7067L20.7066 9.33338L22.7066 11.3334L11.3333 22.7067Z" fill="#0184FF"/>
</svg>
