<svg width="14" height="14" viewBox="0 0 14 14" fill="none" xmlns="http://www.w3.org/2000/svg">
<path d="M11.1676 13.6667H2.0009C1.55887 13.6667 1.13494 13.4911 0.822384 13.1786C0.509823 12.866 0.334229 12.4421 0.334229 12V2.83337C0.334229 2.39135 0.509823 1.96742 0.822384 1.65486C1.13494 1.3423 1.55887 1.16671 2.0009 1.16671H5.33423V2.83337H2.0009V12H11.1676V8.66671H12.8342V12C12.8342 12.4421 12.6586 12.866 12.3461 13.1786C12.0335 13.4911 11.6096 13.6667 11.1676 13.6667ZM6.7509 8.42254L5.5759 7.24421L10.8201 2.00004H7.83423V0.333374H13.6676V6.16671H12.0009V3.17921L6.7509 8.42254Z" fill="#0184FF" stroke="white" stroke-width="0.4"/>
</svg>
