<svg xmlns="http://www.w3.org/2000/svg" width="48.327" height="48.328" viewBox="0 0 48.327 48.328">
  <g id="Group_637" data-name="Group 637" transform="translate(-313.754 -338.865)">
    <path id="Path_352" data-name="Path 352" d="M1,51.338a3.9,3.9,0,0,0,3.9,3.9H16.589v3.118H13.471v1.559H36.855V58.353H33.737V55.236H45.429a3.9,3.9,0,0,0,3.9-3.9V49H1Zm31.178,7.015H18.148V55.236h14.03ZM2.559,50.559H47.768v.779a2.341,2.341,0,0,1-2.338,2.338H4.9a2.341,2.341,0,0,1-2.338-2.338Z" transform="translate(312.754 327.281)" fill="#146eff"/>
    <path id="Path_353" data-name="Path 353" d="M56.9,11H53v1.559h3.9A2.341,2.341,0,0,1,59.236,14.9V39.06h1.559V14.9A3.9,3.9,0,0,0,56.9,11Z" transform="translate(301.286 335.661)" fill="#146eff"/>
    <path id="Path_354" data-name="Path 354" d="M2.559,14.9A2.341,2.341,0,0,1,4.9,12.559h3.9V11H4.9A3.9,3.9,0,0,0,1,14.9V39.06H2.559Z" transform="translate(312.754 335.661)" fill="#146eff"/>
    <path id="Path_355" data-name="Path 355" d="M42.619,1H13V33.737H42.619ZM41.061,2.559V7.236h-26.5V2.559Zm-26.5,29.619V8.794h26.5V32.178Z" transform="translate(310.108 337.865)" fill="#146eff"/>
    <rect id="Rectangle_281" data-name="Rectangle 281" width="1" height="3" transform="translate(326.473 341.473)" fill="#146eff"/>
    <rect id="Rectangle_282" data-name="Rectangle 282" width="2" height="3" transform="translate(328.473 341.473)" fill="#146eff"/>
    <rect id="Rectangle_283" data-name="Rectangle 283" width="2" height="3" transform="translate(332.473 341.473)" fill="#146eff"/>
    <path id="Path_356" data-name="Path 356" d="M54.465,31.664l3.406-5.109-3.406-5.109-1.3.865L56,26.554,53.168,30.8Z" transform="translate(301.249 333.356)" fill="#146eff"/>
    <path id="Path_357" data-name="Path 357" d="M8.2,21.445,4.8,26.554,8.2,31.664,9.5,30.8,6.672,26.554,9.5,22.31Z" transform="translate(311.917 333.356)" fill="#146eff"/>
    <path id="Path_358" data-name="Path 358" d="M35.952,25.474c-.053-.1-.118-.185-.177-.277a5.454,5.454,0,1,0-9.421-3.741,4.716,4.716,0,0,0-4.142,2.459L18.875,30.03H17v1.559H40.384V30.03H38.437Zm.709,4.556h-2.83l-2.9-5.324a3.133,3.133,0,0,1,3.657,1.515Zm-8.749-8.574a3.9,3.9,0,1,1,6.821,2.574,4.662,4.662,0,0,0-4.612-.691,4.714,4.714,0,0,0-2.186-1.6C27.929,21.645,27.912,21.552,27.912,21.456Zm-4.333,3.206a3.16,3.16,0,0,1,5.548,0l2.928,5.368H20.651Z" transform="translate(309.226 334.556)" fill="#146eff"/>
  </g>
</svg>
