<svg id="Group_16" data-name="Group 16" xmlns="http://www.w3.org/2000/svg" width="37.274" height="48.328" viewBox="0 0 37.274 48.328">
  <path id="Path_13" data-name="Path 13" d="M50.141,49.9a9.677,9.677,0,0,1-.658.856l-.4.4a10.48,10.48,0,0,1,5.2,2.9,10.79,10.79,0,0,1,3.16,7.7V68.6a1.064,1.064,0,0,1-.263.658A5.234,5.234,0,0,1,55.08,70.64a25.9,25.9,0,0,1-6.453,1.514,68.1,68.1,0,0,1-8.428.527A55.739,55.739,0,0,1,28.018,71.5,13.842,13.842,0,0,1,24.2,70.114a2.856,2.856,0,0,1-.922-.79,1.064,1.064,0,0,1-.263-.658V61.752a10.79,10.79,0,0,1,3.16-7.7,11.567,11.567,0,0,1,4.411-2.7l-.593-.593c-.132-.2-.329-.4-.461-.593A12.393,12.393,0,0,0,21.5,61.752V68.6a2.679,2.679,0,0,0,.527,1.58,5.964,5.964,0,0,0,2.7,1.844,27.847,27.847,0,0,0,6.782,1.58,72.256,72.256,0,0,0,8.625.527,54.684,54.684,0,0,0,12.51-1.251,15.334,15.334,0,0,0,4.28-1.58,4.589,4.589,0,0,0,1.317-1.185,2.679,2.679,0,0,0,.527-1.58V61.752A11.98,11.98,0,0,0,50.141,49.9Z" transform="translate(-21.5 -25.802)" fill="#146eff"/>
  <path id="Path_14" data-name="Path 14" d="M37.813,40.032a8.426,8.426,0,0,0,1.449,4.741,8.01,8.01,0,0,0,.988,1.119,27.1,27.1,0,0,0-.2,3.358,26.364,26.364,0,0,0,.658,6.123,6.864,6.864,0,0,0,.79,1.975,1.9,1.9,0,0,0,1.514.988,1.573,1.573,0,0,0,.922-.329,3.929,3.929,0,0,0,.922-1.317,15.762,15.762,0,0,0,.79-3.16,28.713,28.713,0,0,0,.263-4.28,27.106,27.106,0,0,0-.2-3.358,7.009,7.009,0,0,0,1.646-2.173,8.211,8.211,0,0,0,.79-3.687A12.012,12.012,0,0,0,51.64,37.2a15.282,15.282,0,0,0,3.49-9.876,15.282,15.282,0,0,0-3.49-9.876,11.042,11.042,0,0,0-17.251,0,15.282,15.282,0,0,0-3.49,9.876A15.282,15.282,0,0,0,34.39,37.2,10.954,10.954,0,0,0,37.813,40.032Zm1.514.658a10.315,10.315,0,0,0,2.041.527c-.066.132-.132.329-.2.461a13.153,13.153,0,0,0-.658,2.239,4.2,4.2,0,0,1-.527-.922A7.321,7.321,0,0,1,39.328,40.69Zm2.831,2.7a6.687,6.687,0,0,1,.593-1.58.909.909,0,0,1,.2-.263.23.23,0,0,1,.066.132,3.481,3.481,0,0,1,.461.988A15.355,15.355,0,0,1,44,45.1a2.326,2.326,0,0,1-1.119.263,3.1,3.1,0,0,1-1.119-.263C41.961,44.509,42.027,43.917,42.159,43.39Zm1.58,11.522a6.687,6.687,0,0,1-.593,1.58.909.909,0,0,1-.2.263.23.23,0,0,1-.066-.132,3.481,3.481,0,0,1-.461-.988,22.586,22.586,0,0,1-.856-6.518c0-.856.066-1.712.132-2.5a4.257,4.257,0,0,0,1.317.263,3.139,3.139,0,0,0,1.317-.263c.066.79.132,1.646.132,2.5A25.532,25.532,0,0,1,43.739,54.912Zm1.778-11.061-.066.066c-.066-.329-.132-.658-.2-.922a9.93,9.93,0,0,0-.658-1.844,10.315,10.315,0,0,0,2.041-.527A8.07,8.07,0,0,1,45.517,43.851ZM35.509,18.37a9.59,9.59,0,0,1,15.012,0,13.767,13.767,0,0,1,3.16,8.889,13.417,13.417,0,0,1-3.16,8.889,9.59,9.59,0,0,1-15.012,0,14.08,14.08,0,0,1,0-17.777Z" transform="translate(-24.711 -13.3)" fill="#146eff"/>
</svg>
