<svg xmlns="http://www.w3.org/2000/svg" viewBox="0 0 50 50"><defs><style>.cls-1,.cls-2{fill:none;stroke:#447bbf;stroke-miterlimit:10;}.cls-2{stroke-width:0.75px;}</style></defs><g id="Layer_3" data-name="Layer 3"><path class="cls-1" d="M25.07,18V4.78a1.61,1.61,0,0,1,1.61-1.61H45.36A1.61,1.61,0,0,1,47,4.78V18"/><path class="cls-1" d="M46.91,22.32H24.66A1.69,1.69,0,0,1,23,20.63V18.41h9.4c2.51,2.35,4.72,2.17,6.71,0H48.6v2.22A1.69,1.69,0,0,1,46.91,22.32Z"/><path class="cls-1" d="M3.73,42.55V27.86a1.79,1.79,0,0,1,1.79-1.78H26.26A1.78,1.78,0,0,1,28,27.86V42.55"/><path class="cls-1" d="M28,47.22H3.28A1.88,1.88,0,0,1,1.4,45.34V42.87H11.84c2.78,2.61,5.24,2.41,7.45,0H29.86v2.47A1.88,1.88,0,0,1,28,47.22Z"/><rect class="cls-2" x="32.44" y="10.7" width="6.71" height="5.9" rx="0.85"/><path class="cls-1" d="M35.43,6h.74a2.2,2.2,0,0,1,2.2,2.2V10.7a0,0,0,0,1,0,0H33.23a0,0,0,0,1,0,0V8.23A2.2,2.2,0,0,1,35.43,6Z"/><path class="cls-2" d="M12.5,35.48h6.78a1.37,1.37,0,0,1,1.37,1.37V40.6a0,0,0,0,1,0,0H11.12a0,0,0,0,1,0,0V36.86A1.37,1.37,0,0,1,12.5,35.48Z"/><rect class="cls-2" x="13.81" y="29.71" width="4.15" height="4.15" rx="2.07"/><polyline class="cls-1" points="17.85 11.26 8.16 11.26 8.16 21.13"/><polyline class="cls-1" points="33.55 40.22 43.24 40.22 43.24 30.35"/></g></svg>