<svg xmlns="http://www.w3.org/2000/svg" width="58.967" height="48.328" viewBox="0 0 58.967 48.328">
  <path id="Path_5" data-name="Path 5" d="M78.377,39.258,49.876,25.5a1.364,1.364,0,0,0-.885,0l-28.5,13.759a.921.921,0,0,0-.491.885.944.944,0,0,0,.59.884L31.2,46.137A19.246,19.246,0,0,0,29.631,53.9a19.852,19.852,0,1,0,39.7,0,18.917,18.917,0,0,0-1.572-7.764l5.8-2.85v11.99a.739.739,0,0,0-.491.688L71.5,65.4a1.059,1.059,0,0,0,.2.786,1.213,1.213,0,0,0,.786.393h4.226a.894.894,0,0,0,.786-.393.764.764,0,0,0,.2-.786l-1.671-9.336a1.254,1.254,0,0,0-.491-.688V42.4l2.85-1.376a1.129,1.129,0,0,0,.59-.884A.86.86,0,0,0,78.377,39.258ZM49.483,71.886A17.887,17.887,0,0,1,32.973,47.12L49.09,54.884a.835.835,0,0,0,.786,0L65.994,47.12A18.281,18.281,0,0,1,67.37,54,17.889,17.889,0,0,1,49.483,71.886ZM73.66,64.613l.884-5.6.884,5.6Zm.59-23.783c-.1,0-.1.1-.2.1L49.483,52.82,23.243,40.142l26.24-12.776,26.24,12.678Z" transform="translate(-20 -25.425)" fill="#146eff"/>
</svg>
