<svg xmlns="http://www.w3.org/2000/svg" width="49.637" height="48.7" viewBox="0 0 49.637 48.7">
  <g id="Group_179" data-name="Group 179" transform="translate(0.165 0.206)">
    <path id="Path_291" data-name="Path 291" d="M501.637,115.417a.279.279,0,0,1-.069-.006.566.566,0,0,1-.5-.633c.131-1.112.165-4.239-1.249-5.357a.568.568,0,0,1,.707-.89c2.208,1.746,1.694,6.2,1.672,6.389A.567.567,0,0,1,501.637,115.417Z" transform="translate(-475.657 -107.268)" fill="#146eff" stroke="#146eff" stroke-width="0.33"/>
    <path id="Path_295" data-name="Path 295" d="M191.661,747.01H148.4a1.1,1.1,0,0,1-1.1-1.1V736.7a1.1,1.1,0,0,1,1.1-1.1h43.254a1.1,1.1,0,0,1,1.1,1.1v9.208A1.1,1.1,0,0,1,191.661,747.01Zm-43.22-1.141h43.18v-9.128h-43.18Z" transform="translate(-143.449 -698.682)" fill="#146eff" stroke="#146eff" stroke-width="0.33"/>
    <path id="Path_296" data-name="Path 296" d="M360.77,788.282a.572.572,0,0,1-.57-.571v-4.94a.57.57,0,1,1,1.141,0v4.94A.565.565,0,0,1,360.77,788.282Z" transform="translate(-344.204 -742.623)" fill="#146eff" stroke="#146eff" stroke-width="0.33"/>
    <path id="Path_297" data-name="Path 297" d="M423.471,788.282a.572.572,0,0,1-.571-.571v-4.94a.57.57,0,1,1,1.141,0v4.94A.568.568,0,0,1,423.471,788.282Z" transform="translate(-403.327 -742.623)" fill="#146eff" stroke="#146eff" stroke-width="0.33"/>
    <path id="Path_298" data-name="Path 298" d="M123.591,594.7H80.9a1.1,1.1,0,0,1-1.1-1.1v-7.5a1.1,1.1,0,0,1,1.1-1.1h42.684a1.1,1.1,0,0,1,1.1,1.1v7.5A1.093,1.093,0,0,1,123.591,594.7Zm-42.65-1.141h42.61v-7.416H80.941Z" transform="translate(-79.8 -556.673)" fill="#146eff" stroke="#146eff" stroke-width="0.33"/>
    <path id="Path_299" data-name="Path 299" d="M215.858,791.116a2.858,2.858,0,1,1,2.858-2.858A2.863,2.863,0,0,1,215.858,791.116Zm0-4.569a1.717,1.717,0,1,0,1.717,1.717A1.719,1.719,0,0,0,215.858,786.547Z" transform="translate(-205.401 -745.641)" fill="#146eff" stroke="#146eff" stroke-width="0.33"/>
    <path id="Path_300" data-name="Path 300" d="M724.856,747.01h-5.385a.572.572,0,0,1-.571-.571V736.17a.572.572,0,0,1,.571-.57h5.385a.572.572,0,0,1,.571.57v10.269A.572.572,0,0,1,724.856,747.01Zm-4.815-1.141h4.244v-9.128h-4.244Z" transform="translate(-682.44 -698.682)" fill="#146eff" stroke="#146eff" stroke-width="0.33"/>
    <path id="Path_301" data-name="Path 301" d="M184.709,594.7h-4.239a.572.572,0,0,1-.57-.57v-8.557a.572.572,0,0,1,.57-.571h4.239a.572.572,0,0,1,.57.571v8.557A.568.568,0,0,1,184.709,594.7Zm-3.674-1.141h3.1v-7.416h-3.1Z" transform="translate(-174.189 -556.673)" fill="#146eff" stroke="#146eff" stroke-width="0.33"/>
    <path id="Path_302" data-name="Path 302" d="M403.541,661.141h-7.77a.57.57,0,1,1,0-1.141h7.77a.57.57,0,1,1,0,1.141Z" transform="translate(-377.207 -627.395)" fill="#146eff" stroke="#146eff" stroke-width="0.33"/>
    <path id="Path_303" data-name="Path 303" d="M224.6,495.052H185.9a1.1,1.1,0,0,1-1.1-1.1V489.5a1.1,1.1,0,0,1,1.1-1.1h38.69a1.1,1.1,0,0,1,1.1,1.1v4.45A1.093,1.093,0,0,1,224.6,495.052Zm-38.656-1.141h38.616v-4.376H185.941Z" transform="translate(-178.81 -465.584)" fill="#146eff" stroke="#146eff" stroke-width="0.33"/>
    <path id="Path_304" data-name="Path 304" d="M771.371,494.958a.572.572,0,0,1-.57-.571v-5.517a.571.571,0,1,1,1.141,0v5.517A.569.569,0,0,1,771.371,494.958Z" transform="translate(-731.379 -465.49)" fill="#146eff" stroke="#146eff" stroke-width="0.33"/>
    <path id="Path_305" data-name="Path 305" d="M296.271,494.958a.572.572,0,0,1-.57-.571v-5.517a.57.57,0,1,1,1.141,0v5.517A.569.569,0,0,1,296.271,494.958Z" transform="translate(-283.383 -465.49)" fill="#146eff" stroke="#146eff" stroke-width="0.33"/>
    <path id="Path_306" data-name="Path 306" d="M365.76,205.84c-1.346,0-2.955-.8-4.718-3.925a14.137,14.137,0,0,1-2.059-7.679,7.627,7.627,0,0,1,2.31-5.209,5.537,5.537,0,0,1,5.425-1.232,8.649,8.649,0,0,1,2.3,1,8.65,8.65,0,0,1,2.3-1,5.55,5.55,0,0,1,5.425,1.232,7.652,7.652,0,0,1,2.31,5.209,14.088,14.088,0,0,1-2.059,7.679h0c-2.847,5.037-5.271,4.039-6.88,3.377a3.478,3.478,0,0,0-1.1-.337,3.335,3.335,0,0,0-1.1.337A5.661,5.661,0,0,1,365.76,205.84ZM365,188.7a4.238,4.238,0,0,0-2.938,1.169c-1.98,1.814-3.172,5.916-.029,11.484,2.35,4.159,3.925,3.508,5.454,2.881a2.99,2.99,0,0,1,3.064,0c1.523.628,3.1,1.278,5.454-2.881h0c3.149-5.568,1.951-9.67-.029-11.484a4.4,4.4,0,0,0-4.324-.981,7.451,7.451,0,0,0-2.288,1.055.573.573,0,0,1-.679,0,7.7,7.7,0,0,0-2.288-1.055A5.622,5.622,0,0,0,365,188.7Z" transform="translate(-343.038 -181.906)" fill="#146eff" stroke="#146eff" stroke-width="0.33"/>
    <path id="Path_307" data-name="Path 307" d="M526.68,93.73c-.365,0-.6-.029-.639-.029a.563.563,0,0,1-.5-.531,4.139,4.139,0,0,1,1.175-3.486c1.66-1.552,4.433-1.192,4.547-1.175a.573.573,0,0,1,.491.542,4.2,4.2,0,0,1-1.232,3.406A5.759,5.759,0,0,1,526.68,93.73Zm-.011-1.141a4.671,4.671,0,0,0,3.081-.97,2.877,2.877,0,0,0,.861-2.014,4.58,4.58,0,0,0-3.121.918A2.822,2.822,0,0,0,526.669,92.589Z" transform="translate(-500.096 -88.462)" fill="#146eff" stroke="#146eff" stroke-width="0.33"/>
    <path id="Path_308" data-name="Path 308" d="M677.209,594.7h-4.239a.572.572,0,0,1-.57-.57v-8.557a.572.572,0,0,1,.57-.571h4.239a.572.572,0,0,1,.571.571v8.557A.568.568,0,0,1,677.209,594.7Zm-3.674-1.141h3.1v-7.416h-3.1Z" transform="translate(-638.593 -556.673)" fill="#146eff" stroke="#146eff" stroke-width="0.33"/>
  </g>
</svg>
