<svg xmlns="http://www.w3.org/2000/svg" width="62.35" height="47.765" viewBox="0 0 62.35 47.765">
  <g id="Group_640" data-name="Group 640" transform="translate(-829.806 -337.842)">
    <g id="noun_course_3971390" transform="translate(837.843 337.842)">
      <path id="Path_376" data-name="Path 376" d="M49.377,9.961H46.192V6.776a.8.8,0,0,0-.8-.8H42.212V2.8a.8.8,0,0,0-.8-.8H4.8a.8.8,0,0,0-.8.8V41.008a.8.8,0,0,0,.8.8H7.98v3.184a.8.8,0,0,0,.8.8h3.184v3.184a.8.8,0,0,0,.8.8h36.62a.8.8,0,0,0,.8-.8V10.757A.8.8,0,0,0,49.377,9.961Zm-.8,6.369H13.553V11.553H48.58ZM44.6,9.961H12.757a.8.8,0,0,0-.8.8v1.592H9.573V7.573H44.6ZM40.62,3.592V5.98H8.776a.8.8,0,0,0-.8.8V8.369H5.592V3.592ZM5.592,40.212V9.961H7.98V40.212Zm3.98,3.98V13.941h2.388V44.192Zm3.98,3.98V17.922H48.58V48.173Z" transform="translate(-4 -2)" fill="#146eff"/>
      <rect id="Rectangle_1105" data-name="Rectangle 1105" width="1.965" height="0.983" transform="translate(10.809 11.406)" fill="#146eff"/>
      <rect id="Rectangle_1106" data-name="Rectangle 1106" width="0.983" height="0.983" transform="translate(14.74 11.406)" fill="#146eff"/>
      <rect id="Rectangle_1107" data-name="Rectangle 1107" width="0.983" height="0.983" transform="translate(17.688 11.406)" fill="#146eff"/>
      <rect id="Rectangle_1108" data-name="Rectangle 1108" width="15.723" height="0.983" transform="translate(27.515 11.406)" fill="#146eff"/>
      <path id="Path_377" data-name="Path 377" d="M35.961,40.922A7.961,7.961,0,1,0,28,32.961,7.97,7.97,0,0,0,35.961,40.922Zm0-14.329a6.369,6.369,0,1,1-6.369,6.369A6.376,6.376,0,0,1,35.961,26.592Z" transform="translate(-8.894 -6.69)" fill="#146eff"/>
      <path id="Path_378" data-name="Path 378" d="M34.377,37.842a.8.8,0,0,0,.775.035l6.369-3.184a.8.8,0,0,0,0-1.425l-6.369-3.184A.8.8,0,0,0,34,30.8v6.369A.8.8,0,0,0,34.377,37.842Zm1.215-5.758,3.793,1.9-3.793,1.9Z" transform="translate(-10.118 -7.71)" fill="#146eff"/>
      <path id="Path_379" data-name="Path 379" d="M46.067,49A3.182,3.182,0,0,0,43,51.388H37.2a3.169,3.169,0,0,0-6.143,0h-5.8a3.184,3.184,0,1,0,0,1.592h5.8a3.169,3.169,0,0,0,6.143,0H43A3.179,3.179,0,1,0,46.067,49ZM22.184,53.776a1.592,1.592,0,1,1,1.592-1.592A1.594,1.594,0,0,1,22.184,53.776Zm11.941,0a1.592,1.592,0,1,1,1.592-1.592A1.594,1.594,0,0,1,34.126,53.776Zm11.941,0a1.592,1.592,0,1,1,1.592-1.592A1.594,1.594,0,0,1,46.067,53.776Z" transform="translate(-7.059 -11.584)" fill="#146eff"/>
      <rect id="Rectangle_1109" data-name="Rectangle 1109" width="5.896" height="0.983" transform="translate(37.341 19.268)" fill="#146eff"/>
      <rect id="Rectangle_1110" data-name="Rectangle 1110" width="5.896" height="1.965" transform="translate(37.341 22.216)" fill="#146eff"/>
      <rect id="Rectangle_1111" data-name="Rectangle 1111" width="5.896" height="1.965" transform="translate(37.341 25.164)" fill="#146eff"/>
    </g>
    <path id="Icon_ionic-ios-arrow-back" data-name="Icon ionic-ios-arrow-back" d="M12.209,8.974l2.1-2.1a.4.4,0,1,0-.563-.561L11.366,8.693a.4.4,0,0,0-.012.548l2.394,2.4a.4.4,0,0,0,.563-.561Z" transform="translate(818.555 352.928)" fill="#146eff"/>
    <path id="Icon_ionic-ios-arrow-back-2" data-name="Icon ionic-ios-arrow-back" d="M13.471,8.973l-2.1-2.1a.4.4,0,1,1,.563-.561l2.384,2.382a.4.4,0,0,1,.012.548l-2.393,2.4a.4.4,0,0,1-.563-.561Z" transform="translate(877.726 353.297)" fill="#146eff"/>
  </g>
</svg>
