<svg width="current" height="current" viewBox="0 0 20 22" fill="none" xmlns="http://www.w3.org/2000/svg">
<path d="M7.85407 4.14342H12.1398C12.1398 3.57509 11.914 3.03005 11.5122 2.62819C11.1103 2.22632 10.5653 2.00056 9.99693 2.00056C9.42861 2.00056 8.88357 2.22632 8.4817 2.62819C8.07984 3.03005 7.85407 3.57509 7.85407 4.14342ZM6.56836 4.14342C6.56836 3.2341 6.92958 2.36203 7.57256 1.71905C8.21555 1.07607 9.08762 0.714844 9.99693 0.714844C10.9062 0.714844 11.7783 1.07607 12.4213 1.71905C13.0643 2.36203 13.4255 3.2341 13.4255 4.14342H18.7826C18.9531 4.14342 19.1167 4.21114 19.2372 4.3317C19.3578 4.45226 19.4255 4.61578 19.4255 4.78627C19.4255 4.95677 19.3578 5.12028 19.2372 5.24084C19.1167 5.3614 18.9531 5.42913 18.7826 5.42913H17.6598L16.6166 17.946C16.5408 18.8566 16.1254 19.7053 15.4531 20.3241C14.7807 20.9428 13.9004 21.2862 12.9866 21.2863H7.00722C6.0935 21.2862 5.21316 20.9428 4.54079 20.3241C3.86842 19.7053 3.45311 18.8566 3.37722 17.946L2.33407 5.42913H1.21122C1.04072 5.42913 0.877207 5.3614 0.756648 5.24084C0.636089 5.12028 0.568359 4.95677 0.568359 4.78627C0.568359 4.61578 0.636089 4.45226 0.756648 4.3317C0.877207 4.21114 1.04072 4.14342 1.21122 4.14342H6.56836ZM4.65865 17.8388C4.70766 18.4281 4.97632 18.9773 5.41134 19.3777C5.84636 19.7781 6.41597 20.0004 7.00722 20.0006H12.9866C13.5779 20.0004 14.1475 19.7781 14.5825 19.3777C15.0175 18.9773 15.2862 18.4281 15.3352 17.8388L16.3706 5.42913H3.62407L4.65865 17.8388ZM8.06836 8.42913C8.23886 8.42913 8.40237 8.49686 8.52293 8.61742C8.64349 8.73798 8.71122 8.90149 8.71122 9.07199V16.3577C8.71122 16.5282 8.64349 16.6917 8.52293 16.8123C8.40237 16.9328 8.23886 17.0006 8.06836 17.0006C7.89786 17.0006 7.73435 16.9328 7.61379 16.8123C7.49323 16.6917 7.4255 16.5282 7.4255 16.3577V9.07199C7.4255 8.90149 7.49323 8.73798 7.61379 8.61742C7.73435 8.49686 7.89786 8.42913 8.06836 8.42913ZM12.5684 9.07199C12.5684 8.90149 12.5006 8.73798 12.3801 8.61742C12.2595 8.49686 12.096 8.42913 11.9255 8.42913C11.755 8.42913 11.5915 8.49686 11.4709 8.61742C11.3504 8.73798 11.2826 8.90149 11.2826 9.07199V16.3577C11.2826 16.5282 11.3504 16.6917 11.4709 16.8123C11.5915 16.9328 11.755 17.0006 11.9255 17.0006C12.096 17.0006 12.2595 16.9328 12.3801 16.8123C12.5006 16.6917 12.5684 16.5282 12.5684 16.3577V9.07199Z" fill="#FF0000"/>
</svg>
