<svg xmlns="http://www.w3.org/2000/svg" width="17.648" height="20.169" viewBox="0 0 17.648 20.169">
  <path id="Icon_awesome-bell" data-name="Icon awesome-bell" d="M8.824,20.169a2.521,2.521,0,0,0,2.52-2.521H6.3A2.521,2.521,0,0,0,8.824,20.169Zm8.485-5.9c-.761-.818-2.185-2.048-2.185-6.078a6.221,6.221,0,0,0-5.04-6.112V1.261a1.26,1.26,0,1,0-2.519,0v.821a6.221,6.221,0,0,0-5.04,6.112c0,4.03-1.424,5.26-2.185,6.078A1.231,1.231,0,0,0,0,15.126a1.262,1.262,0,0,0,1.264,1.261H16.383a1.261,1.261,0,0,0,1.264-1.261,1.23,1.23,0,0,0-.339-.855Z" transform="translate(0)" fill="#565656"/>
</svg>
